<?xml version="1.0" standalone="no"?>
<!DOCTYPE svg PUBLIC "-//W3C//DTD SVG 1.1//EN" "http://www.w3.org/Graphics/SVG/1.1/DTD/svg11.dtd" >
<svg xmlns="http://www.w3.org/2000/svg" xmlns:xlink="http://www.w3.org/1999/xlink" version="1.1">
<metadata>
Created by FontForge 20201107 at Thu Oct 29 19:01:54 2020
 By 
Copyright (c) 2020 by Viet hoa by MTD. All rights reserved.
</metadata>
<defs>
<font id="MTDDoppelgangerDisplay" horiz-adv-x="761" >
  <font-face 
    font-family="MTD Doppelganger Display"
    font-weight="400"
    font-stretch="normal"
    units-per-em="1000"
    panose-1="0 0 0 0 0 0 0 0 0 0"
    ascent="800"
    descent="-200"
    x-height="376"
    cap-height="670"
    bbox="-130 -314 1520.15 835.1"
    underline-thickness="50"
    underline-position="-175"
    unicode-range="U+000D-FB06"
  />
<missing-glyph horiz-adv-x="250" 
 />
    <glyph glyph-name="uni01C9" unicode="lj" horiz-adv-x="302" 
d="M38 578q-10 8 -21 8v8h74v-594l-1 -273q0 -29 39 -29h6q5 0 15 2q27 8 44.5 30t17.5 50v206l-1 337l-1 17q0 12 -8.5 20.5t-20.5 8.5v8h106v-8q-12 0 -20.5 -8.5t-8.5 -20.5v-17l-1 -311v-232q0 -32 -19 -56t-49 -32q-12 -2 -17 -2l-59 1q-30 6 -49 30t-19 54v6l1 219
v557q0 13 -8 21zM233 457l-29 29l29 29l29 -29z" />
    <glyph glyph-name="uni01CC" unicode="nj" horiz-adv-x="503" 
d="M15 8q10 0 19.5 9t9.5 19v304q0 11 -8 21q-10 8 -21 8v8h74q0 -9 8 -13.5t15 -0.5q28 14 57 14q44 0 79 -29t42 -72q1 -2 1.5 -44.5t0 -96t0.5 -105.5v-30l-1 -273q0 -29 39 -29h6q5 0 15 2q27 8 44.5 30t17.5 50v206l-1 337l-1 17q0 12 -8.5 20.5t-20.5 8.5v8h106v-8
q-12 0 -20.5 -8.5t-8.5 -20.5v-17l-1 -311v-232q0 -32 -19 -56t-49 -32q-12 -2 -17 -2l-59 1q-30 6 -49 30t-19 54v6l2 487v40q0 32 -23.5 46t-56.5 14t-55 -14.5t-22 -45.5l-1 -21v-14l-1 -236v-3q2 -11 10 -18.5t19 -7.5v-8h-103v8zM405 486l29 29l29 -29l-29 -29z" />
    <glyph glyph-name="f_f" unicode="ff" horiz-adv-x="437" 
d="M10 366v8h18q12 0 12 12v62q0 31 19 55t49 32q12 2 17 2h43q35 0 62 -25q11 -13 20 -29v18q0 31 19 55.5t49 32.5q5 1 17 1h42q38 0 64 -26t26 -64h-7v1q0 33 -24.5 57t-57.5 24h-6q-6 0 -16 -2q-27 -8 -44 -30t-17 -50v-113q0 -13 12 -13h114v-8h-114q-12 0 -12 -12v-9
l1 -246v-62q0 -11 9 -20q7 -9 20 -9v-8h-105v8q12 0 20.5 8.5t8.5 20.5v17l1 301q0 11 -12 11h-140q-13 0 -13 -12v-9l1 -246v-45l1 -17q0 -12 8 -20q7 -9 20 -9h1v-8h-106v8q12 0 20.5 8.5t8.5 20.5v17l1 301q0 11 -12 11h-18zM85 387q0 -13 13 -13h140q12 0 12 12v66
q-1 24 -18 46q-20 31 -64 31q-33 0 -58 -24.5t-25 -58.5v-59z" />
    <glyph glyph-name="fi" unicode="fi" horiz-adv-x="320" 
d="M28 370h-18v7h18q11 0 13 12v116q0 36 24.5 62.5t60.5 26.5h43q33 0 58 -21.5t31 -54.5q2 -8 8 -14l18 -18l-29 -29l-29 29l16 15q11 12 6 26q-5 22 -22 37.5t-39 19.5q-20 6 -40 0q-27 -8 -44 -30.5t-17 -50.5v-113q0 -13 12 -13h207v-8q-11 -1 -19 -9t-8 -20v-305
q0 -11 8 -19t19 -8v-8h-100v8q12 0 20.5 8.5t8.5 20.5v303q0 14 -9 21q-9 9 -20 9h-107q-12 0 -12 -13v-14l1 -243v-63q0 -13 9 -20q9 -9 20 -9v-8h-106v8q12 0 20.5 8.5t8.5 20.5v18l2 303q-2 12 -13 12z" />
    <glyph glyph-name="fl" unicode="fl" horiz-adv-x="294" 
d="M10 8q12 0 20.5 8.5t8.5 20.5v17l2 304q-2 11 -13 11h-18v8h18q11 0 13 12v115q0 32 19 56.5t49 32.5q5 1 17 1h43q28 0 55.5 -20t27.5 -47v-492q0 -11 8 -19t19 -8v-8h-101v8q12 0 20.5 8.5t8.5 20.5v520q0 15 -11.5 22.5t-27.5 7.5q-13 0 -21 -4q-26 -7 -43.5 -29.5
t-17.5 -50.5v-113q0 -13 12 -13h39v-8h-39q-12 0 -12 -12v-14l1 -243v-63q0 -13 9 -20q8 -9 20 -9v-8h-106v8z" />
    <glyph glyph-name="f_f_i" unicode="ffi" horiz-adv-x="528" 
d="M10 0v8q12 0 20.5 8.5t8.5 20.5v17l1 302q0 11 -12 11h-18v8h18q12 0 12 12v61q0 32 19 55.5t49 31.5q12 2 17 2h43q52 0 82 -54v18q0 31 19 55.5t49 32.5q10 2 17 2h42q31 0 58 -22t31 -52q1 -9 9 -18l17 -16l-29 -29l-29 29l13 12q15 15 7 35q-5 14 -12 22l-6 6
q-17 17 -40 23q-19 4 -40 -1q-26 -6 -43.5 -29t-17.5 -51v-113q0 -12 12 -12h206v-8q-11 -1 -19 -9.5t-8 -19.5v-303q0 -13 8 -19q8 -8 19 -8v-8h-100v8q12 0 20.5 8.5t8.5 20.5v301q0 11 -8 21q-8 8 -21 8h-106q-12 0 -12 -12v-14l1 -242v-62q0 -11 9 -20t20 -9v-8h-105v8
q12 0 20.5 8.5t8.5 20.5v17l1 302q0 11 -12 11h-140q-13 0 -13 -12v-9l1 -247v-45l1 -17q0 -11 8.5 -20t19.5 -9h1v-8h-106zM85 447v-60q0 -5 4 -8.5t9 -3.5h140q12 0 12 12v64q-1 33 -25 55.5t-57 22.5t-58 -24.5t-25 -57.5z" />
    <glyph glyph-name="f_f_l" unicode="ffl" horiz-adv-x="502" 
d="M10 375h18q12 0 12 11v62q0 31 19 55t49 32q12 2 17 2h43q56 0 82 -54v18q0 31 19 55.5t49 32.5q5 1 17 1h52q29 0 51 -24.5t22 -53.5v-477q0 -13 8 -19q8 -8 19 -8v-8h-100v8q12 0 20.5 8.5t8.5 20.5v517q0 12 -9 20q-4 4 -6 5q-6 3 -29 3q-6 0 -16 -2q-27 -8 -44 -30
t-17 -50v-113q0 -12 12 -12h39v-8h-39q-12 0 -12 -12v-14l1 -242v-62q0 -11 9 -20q7 -9 20 -9v-8h-105v8q12 0 20.5 8.5t8.5 20.5v17l1 301q0 12 -12 12h-140q-13 0 -13 -12v-9l1 -247v-45l1 -17q0 -12 8 -20q7 -9 20 -9h1v-8h-106v8q12 0 20.5 8.5t8.5 20.5v17l1 302
q0 11 -12 11h-18v8zM85 447v-60q0 -12 13 -12h140q12 0 12 11v65q-2 28 -18 47q-20 31 -64 31h-6l-15 -3q-27 -7 -44.5 -29t-17.5 -50z" />
    <glyph glyph-name="s_t" unicode="st" horiz-adv-x="623" 
d="M24 236q-9 27 1 58q13 38 49.5 60t78.5 22h1q28 0 49 -7q8 -2 13.5 3.5t3.5 13.5q-5 20 -5 37q0 57 42.5 95.5t100.5 32.5q43 -4 75 -35t38 -75q3 -22 -2 -48q-2 -8 3.5 -15.5t14.5 -7.5h28v-7h-28q-13 0 -22.5 -9.5t-9.5 -23.5v-30l-1 -233q0 -33 25.5 -55t58.5 -22
q32 0 55 22.5t23 55.5v1h7v-7q-3 -35 -28.5 -58.5t-59.5 -23.5h-42q-5 0 -17 2q-29 7 -47.5 30.5t-18.5 54.5v2l-1 243v9q26 17 41 44.5t15 57.5q0 54 -40.5 90.5t-95.5 29.5q-41 -5 -71.5 -34.5t-34.5 -70.5q-8 -58 42 -107q10 -8 23 -15v-26h-9q-9 32 -38.5 53t-64.5 24
q-69 8 -111 -37q-18 -19 -22 -41q-4 -20 6 -44q16 -36 67 -53q6 -2 23 -7.5t26 -8.5l36 -14q40 -20 56 -49q15 -29 7 -58q-6 -26 -28.5 -43.5t-51.5 -24.5q-14 -2 -23 -2h-3q-49 0 -79 30q-5 5 -11.5 2.5t-6.5 -9.5v-20h-8v84h8q0 -29 23 -52q2 -2 5.5 -4t4.5 -4
q26 -20 64 -20h3q36 0 64 26q17 17 20.5 39t-13.5 41q-13 16 -34 24l-23 7q-4 1 -12 4t-12 4l-48 18q-19 7 -38 21l-11 10q-23 23 -30 50z" />
    <glyph glyph-name="A_A" unicode="AA" horiz-adv-x="1053" 
d="M85 0h-85v8q17 0 31.5 10t20.5 27l178 508q1 3 1 8q0 10 -7 17.5t-17 7.5l30 84h99v-8h-13l207 -601q2 -5 6 -5t6 5l173 492q1 3 1 8q0 10 -7 17.5t-17 7.5l30 84h99v-8h-13l218 -635q3 -9 11 -14q7 -5 16 -5v-8h-85v8q7 0 11 5.5t2 11.5l-93 268l-11 34q-5 7 -12 6
q-30 -5 -50.5 -27.5t-21.5 -53.5q-1 -34 -20.5 -60t-51.5 -33t-60 7t-42 40q-3 6 -9 5.5t-9 -5.5l-57 -162q-3 -13 0 -24l7 -20h-46l-71 205q-2 7 -8.5 7t-9.5 -6q-14 -26 -42 -39.5t-60 -6.5q-31 7 -50.5 32.5t-20.5 59.5q-1 31 -21.5 53.5t-50.5 27.5q-10 2 -13 -8
l-98 -281q-2 -6 -2 -9q0 -11 8 -19t19 -8v-8zM753 640l-137 -390v-6q2 -33 26.5 -56t57.5 -23q36 0 60.5 24t24.5 60q0 33 21 58.5t53 32.5q12 2 8 14l-98 286q-2 6 -8 6t-8 -6zM169 355q-2 -5 0.5 -9.5t7.5 -5.5q32 -7 52.5 -32.5t20.5 -58.5q0 -36 24 -60t60 -24
q34 0 58.5 23t26.5 56q0 4 -2 10l-133 386q-2 6 -8 6t-7 -6z" />
    <glyph glyph-name="A_E" unicode="AE" horiz-adv-x="671" 
d="M0 8q17 0 31.5 10t20.5 27l178 508q4 12 -3 22t-20 10l30 85h426v-36h-8q0 12 -8 20t-19 8h-280q-9 0 -14.5 -7.5t-2.5 -15.5l130 -377q8 -27 38 -27h43q16 0 27 11t11 28h8v-85h-8q0 16 -11 27t-27 11h-50q-7 0 -11 -5.5t-2 -12.5l62 -182q7 -19 27 -19h60q11 0 19 8
t8 19v1h8v-36h-180v8q7 0 11 5.5t2 11.5l-62 180q-2 6 -8.5 6.5t-9.5 -5.5q-15 -27 -42.5 -40t-59.5 -6q-31 7 -50.5 32.5t-20.5 58.5q-1 31 -21.5 54t-50.5 28q-9 2 -13 -8l-98 -281q-4 -13 3.5 -24.5t21.5 -11.5v-8h-85v8zM169 354q-6 -11 8 -15q32 -6 52.5 -31t20.5 -59
q0 -36 24.5 -60t60.5 -24q33 0 57.5 23t26.5 56q0 4 -2 10l-133 386q-2 5 -8 5t-7 -5z" />
    <glyph glyph-name="A_V" unicode="AV" horiz-adv-x="826" 
d="M0 0v8q17 0 31.5 10t20.5 27l178 508q4 12 -3 22.5t-20 10.5l30 84h105v-8q-7 0 -10.5 -5t-1.5 -12l31 -92l31 -88v-1l16 -46v-2l134 -386q2 -5 8 -5t7 5l209 597q2 6 2 8q0 11 -8 19t-19 8v8h85v-8q-41 0 -52 -37l-205 -585q-4 -12 3 -22t20 -10l-3 -8h-105v8
q7 0 10.5 5.5t1.5 11.5l-62 180q-2 7 -8.5 7t-9.5 -6q-15 -27 -42.5 -40t-59.5 -6q-31 7 -50.5 32.5t-20.5 59.5q-1 31 -21.5 53.5t-50.5 27.5q-10 2 -13 -8l-98 -281q-4 -13 3.5 -24.5t21.5 -11.5v-8h-85zM169 355q-2 -5 0.5 -9.5t7.5 -5.5q32 -7 52.5 -32.5t20.5 -58.5
q0 -36 24 -60t60 -24q34 0 58.5 23t26.5 56q0 4 -2 10l-133 386q-2 6 -8 6t-7 -6z" />
    <glyph glyph-name="M_B" unicode="MB" horiz-adv-x="1124" 
d="M0 0v8q30 0 39 29l143 523v2q1 2 1 3q0 19 -21 21l23 84h78v-8h-10l100 -373q2 -6 8.5 -6t7.5 6l74 271l1 2v3q0 19 -21 21l24 84h312q79 0 135 -56t56 -135q0 -36 -14 -72q-4 -8 0.5 -17t14.5 -10q66 -10 110 -57q57 -57 55 -135q-1 -78 -57.5 -133t-134.5 -55h-285v8
q6 0 9.5 4.5t1.5 9.5l-164 609q-2 7 -9 7t-8 -7l-101 -367q-3 -15 0 -30l57 -211q3 -15 20 -15v-8h-67v8q6 0 9.5 4.5t1.5 9.5l-164 609q-1 7 -8 7t-9 -7l-163 -595q-1 -2 -1 -6q0 -9 6.5 -15.5t16.5 -6.5v-8h-67zM634 284q-17 -4 -13 -20l65 -241q3 -15 20 -15h218
q10 0 28 2q15 3 27 9q39 22 62.5 68.5t23.5 104.5q0 63 -34.5 122.5t-93.5 59.5q-18 2 -27 -11q-57 -75 -151 -75h-89q-20 0 -36 -4zM532 662q-8 0 -12 -6t-2 -13l93 -340q2 -6 7.5 -9.5t12.5 -2.5q16 4 39 4h89q68 0 105 56t37 128q0 55 -22.5 100.5t-59.5 68.5
q-13 9 -35 13q-9 1 -25 1h-227z" />
    <glyph glyph-name="M_E" unicode="ME" horiz-adv-x="835" 
d="M0 0v8q30 0 39 29l143 523v5q0 19 -20 21l23 84h78v-8h-10l100 -373q2 -6 8.5 -6t7.5 6l74 271l1 2v3q0 19 -21 21l24 84h380v-35h-7q0 11 -8.5 19t-19.5 8h-258q-7 0 -12 -5.5t-3 -13.5l86 -320q8 -27 36 -27h50q16 0 27 11t11 28h8v-85h-8q0 16 -11 27t-27 11h-53
q-9 0 -14 -7t-3 -16l65 -242q3 -15 20 -15h86q11 0 19.5 8t8.5 19v1h7v-36h-188v8q6 0 9.5 4.5t1.5 9.5l-164 609q-2 7 -9 7t-8 -7l-101 -367q-3 -15 0 -30l57 -211q3 -15 20 -15v-8h-67v8q6 0 9.5 4.5t1.5 9.5l-164 609q-1 7 -8 7t-9 -7l-163 -595q-1 -2 -1 -6
q0 -9 6.5 -15.5t16.5 -6.5v-8h-67z" />
    <glyph glyph-name="M_D" unicode="MD" horiz-adv-x="1144" 
d="M0 0v8q30 0 39 29l143 523q2 10 -4 18t-16 8l23 84h78v-8h-10l101 -373q2 -6 8 -6t7 6l74 271q3 10 -3 18t-17 8l24 84h349q133 -6 226.5 -104t93.5 -231t-93.5 -231t-226.5 -104h-156v8q5 0 8 4.5t2 9.5l-164 609q-2 7 -9 7t-8 -7l-101 -367q-3 -15 0 -30l57 -211
q3 -15 20 -15v-8h-67v8q6 0 9.5 4.5t1.5 9.5l-164 609q-1 7 -8 7t-9 -7l-163 -595q-3 -10 4 -19t18 -9v-8h-67zM545 662q-12 0 -19 -9t-4 -20l164 -610q5 -15 20 -15h84q114 4 195 100t81 227q0 132 -81.5 228t-196.5 99h-243z" />
    <glyph glyph-name="F_F" unicode="FF" horiz-adv-x="700" 
d="M118 0h-101v8q12 0 20.5 8.5t8.5 20.5v596q0 13 -9 21q-8 8 -20 8v8h675v-35h-7q0 11 -8.5 19t-19.5 8h-218q-12 0 -20.5 -8.5t-8.5 -20.5v-299q0 -16 11 -27t27 -11h107q15 0 27 12t12 27h7v-85h-7q0 16 -11.5 27.5t-27.5 11.5h-107q-16 0 -27 -11.5t-11 -27.5v-215
q0 -11 8 -19t19 -8v-8h-100v8q12 0 20.5 8.5t8.5 20.5q0 99 -0.5 299t-0.5 299q0 8 -5 15l-1 2q-1 2 -2 2q-8 8 -20 8h-217q-13 0 -21 -8.5t-8 -20.5v-299q0 -16 11 -27t27 -11h106q16 0 27.5 11.5t11.5 27.5h8v-85h-8q0 16 -11.5 27.5t-27.5 11.5h-106q-16 0 -27 -11.5
t-11 -27.5v-215q0 -11 8 -19t19 -8v-8z" />
    <glyph glyph-name="F_I" unicode="FI" horiz-adv-x="453" 
d="M118 0h-101v8q12 0 20.5 8.5t8.5 20.5v596q0 13 -9 21q-8 8 -20 8v8h419v-8q-11 -1 -19 -9t-8 -20v-598q0 -13 8 -19q8 -8 19 -8v-8h-100v8q12 0 20.5 8.5t8.5 20.5v596q0 13 -9 21q-8 8 -20 8h-216q-13 0 -21 -8.5t-8 -20.5v-299q0 -16 11 -27t27 -11h106
q16 0 27.5 11.5t11.5 27.5h8v-85h-8q0 16 -11.5 27.5t-27.5 11.5h-106q-16 0 -27 -11.5t-11 -27.5v-215q0 -11 8 -19t19 -8v-8z" />
    <glyph glyph-name="F_L" unicode="FL" horiz-adv-x="687" 
d="M17 670h419v-8q-12 0 -20.5 -8.5t-8.5 -20.5v-596q0 -12 8.5 -20.5t20.5 -8.5h216q11 0 19 8t8 19v1h8v-36h-354v8q12 0 20.5 8.5t8.5 20.5v596q0 12 -8 20q-8 9 -21 9h-214q-12 0 -20.5 -8.5t-8.5 -20.5v-299q0 -16 11.5 -27t27.5 -11h106q16 0 27.5 11.5t11.5 27.5h7
v-85h-7q0 16 -11.5 27t-27.5 11h-106q-16 0 -27.5 -11t-11.5 -27v-215q0 -11 8 -19t19 -8v-8h-100v8q12 0 20.5 8.5t8.5 20.5v596q0 13 -9 20q-8 9 -20 9v8z" />
    <glyph glyph-name="H_E" unicode="HE" horiz-adv-x="631" 
d="M17 8q12 0 20.5 8.5t8.5 20.5v596q0 12 -8.5 20.5t-20.5 8.5v8h101v-8q-12 -1 -20 -9.5t-8 -19.5v-316q0 -9 6.5 -15.5t15.5 -6.5h165q8 0 14.5 6t6.5 14v318q0 8 -2 12q-6 17 -26 17h-1v8h354v-35h-7q0 11 -8.5 19t-19.5 8h-218q-11 -1 -19 -9.5t-8 -19.5v-299
q1 -16 12 -27t27 -11h104q16 0 27.5 11.5t11.5 27.5h8v-85h-8q0 16 -11.5 27.5t-27.5 11.5h-104q-16 0 -27 -11t-12 -27v-215q1 -12 9 -20t20 -8h216q11 0 19.5 8t8.5 20h7v-36h-354v8q12 0 20.5 8.5t8.5 20.5v230q0 8 -6.5 14t-14.5 6h-165q-9 0 -15.5 -6t-6.5 -15v-231
q0 -13 8 -19q8 -8 20 -8v-8h-101v8z" />
    <glyph glyph-name="L_A" unicode="LA" horiz-adv-x="884" 
d="M17 8q12 0 20.5 8.5t8.5 20.5v596q0 13 -9 20q-8 9 -20 9v8h102v-8q-12 0 -20.5 -8.5t-8.5 -20.5v-596q0 -12 8.5 -20.5t20.5 -8.5h196q31 0 48 27v1l2.5 5t2.5 4l177 508q4 12 -3 22t-20 10l30 85h100v-8h-13l218 -635q7 -19 27 -19v-8h-85v8q7 0 10.5 5.5t1.5 11.5
l-62 180q-2 6 -8.5 6.5t-9.5 -5.5q-14 -26 -42 -39.5t-59 -6.5q-32 7 -51.5 32.5t-20.5 58.5q-1 31 -21.5 54t-50.5 28q-8 2 -12 -8l-99 -281q-5 -13 3.5 -24.5t22.5 -11.5v-8h-384v8zM484 354q-4 -11 8 -15q32 -6 53 -31.5t21 -58.5q0 -37 24 -60.5t60 -23.5q33 0 57.5 23
t26.5 56q0 7 -2 10l-133 386q-1 5 -7 5t-8 -5z" />
    <glyph glyph-name="M_P" unicode="MP" horiz-adv-x="981" 
d="M0 0v8q30 0 39 29l143 523q2 10 -4 18t-16 8l23 84h78v-8h-10l101 -373q2 -6 8 -6t7 6l74 271q3 10 -3 18t-17 8l24 84h314q78 0 134.5 -55t57.5 -134q1 -80 -57.5 -137.5t-139.5 -57.5h-61q-21 0 -43 -5q-13 -3 -20.5 -15t-3.5 -26l58 -217q5 -15 20 -15v-8h-66v8
q5 0 8 4.5t2 9.5l-164 609q-2 7 -9 7t-8 -7l-101 -367q-3 -15 0 -30l57 -211q3 -15 20 -15v-8h-67v8q6 0 9.5 4.5t1.5 9.5l-164 609q-1 7 -8 7t-9 -7l-163 -595q-3 -10 4 -19t18 -9v-8h-67zM540 662q-10 0 -15.5 -7.5t-3.5 -16.5l88 -327q3 -13 14.5 -19.5t24.5 -3.5
q22 6 47 6h66q22 0 45 5q43 20 70 68.5t27 110.5t-27.5 111.5t-71.5 67.5q-18 5 -43 5h-221z" />
    <glyph glyph-name="N_K" unicode="NK" horiz-adv-x="855" 
d="M17 671h93l195 -612q1 -4 6 -3.5t6 4.5v574q0 12 -9 20.5t-21 8.5v8h101v-8q-11 -1 -19 -9t-8 -20v-248q0 -20 13.5 -33.5t33.5 -13.5h91q35 0 59.5 24.5t24.5 59.5v173q0 38 26.5 64.5t64.5 26.5h42q56 0 81 -49q18 -34 58 -34v-8h-101v8q20 0 27.5 18.5t-6.5 33.5
q-26 24 -59 24h-5q-6 -1 -16 -3q-27 -8 -44.5 -30t-17.5 -51v-173q0 -37 -25.5 -63.5t-62.5 -27.5q100 -22 171.5 -100.5t86.5 -180.5q3 -19 18 -31t34 -12v-8h-101v8q19 0 31.5 14.5t9.5 33.5q-20 119 -111 197.5t-211 78.5h-65q-20 0 -33.5 -14t-13.5 -33v-250
q0 -11 8 -19t19 -8v-8h-110l-195 612q-1 5 -6.5 4t-5.5 -6v-556q0 -17 14 -33q15 -13 33 -13v-8h-101v8q19 0 33 13.5t14 32.5v563q0 19 -13.5 32.5t-33.5 13.5v8z" />
    <glyph glyph-name="N_T" unicode="NT" horiz-adv-x="670" 
d="M17 662v8h93l195 -611q1 -4 6 -3.5t5 5.5v555q0 19 -13.5 32.5t-32.5 13.5v8h400v-36h-8q0 12 -8 20t-20 8h-90q-11 -1 -19 -9t-8 -20v-598q0 -13 8 -19q8 -8 19 -8v-8h-101v8q12 0 20.5 8.5t8.5 20.5v596q0 13 -8 21t-21 8h-73q-19 0 -32.5 -13.5t-13.5 -32.5v-562
q0 -19 14 -32.5t33 -13.5v-8h-94l-194 611q-1 5 -6.5 4t-5.5 -6v-555q0 -19 14 -32.5t33 -13.5v-8h-101v8q19 0 33 13.5t14 32.5v562q0 19 -13.5 32.5t-33.5 13.5z" />
    <glyph glyph-name="O_C" unicode="OC" horiz-adv-x="1240" 
d="M131 85q-103 103 -103 249t103 249q102 103 249 103q139 0 240 -94q100 93 235 95h8v-61h-8q0 32 -40 32q-111 0 -190 -71l4 -4q95 -95 102 -230t-76 -239q98 -93 227 -102q128 -9 216 74l10 10q82 87 74 206v3q-1 13 -10 21t-22 8v8h62v-8q0 -145 -104 -249
q-54 -54 -127.5 -81.5t-153.5 -20.5q-119 10 -207 94q-103 -95 -240 -95q-146 0 -249 103zM136 578q-88 -88 -78.5 -221.5t110.5 -234.5q110 -110 256 -110q113 0 190 70q-94 91 -106 220q-12 141 76 252q-109 103 -249 103q-120 0 -199 -79zM590 549q-61 -82 -53 -192
q9 -136 112 -237q67 89 51 212t-108 215z" />
    <glyph glyph-name="O_G" unicode="OG" horiz-adv-x="1243" 
d="M131 83q-103 104 -103 249.5t103 248.5t249 103q140 0 241 -96l7 6l14 12t8 7q72 54 164 68q2 0 17.5 1.5t29 2.5t13.5 0v-61h-8q0 12 -8 20.5t-20 9.5l-19 2q-113 0 -192 -73l2 -2q95 -95 102 -229t-75 -238q100 -95 229 -104q5 0 8 -1q65 -2 118 18q89 34 143 120.5
t54 184.5q0 34 -24.5 58.5t-58.5 24.5q-23 0 -43 -12.5t-31 -32.5q-1 -1 -1 -3q-4 -8 -9 -48q-5 -28 -21 -45q-9 -11 -36 -27q-29 -19 -29 -53h-8v101h8q0 -14 9.5 -23t22.5 -9q8 0 14 3q25 20 32 56q6 39 7 43q23 52 73 57q4 1 12 1h7q33 -4 55.5 -26.5t27.5 -55.5
q2 -25 -3 -61q-16 -97 -77 -172q-2 -2 -4 -4.5t-3 -3.5l-1 -1q-18 -20 -28 -28l-4 -4q-3 -3 -10 -8.5t-10 -7.5q-103 -78 -231 -70q-123 6 -214 88q-2 1 -5 3.5t-4 3.5q-101 -96 -241 -96q-146 0 -249 103zM136 576q-88 -88 -78.5 -222t110.5 -234q111 -111 256 -111
q115 0 192 73q-49 47 -76 109q-38 87 -26 183t69 172q2 2 3 4q-108 105 -251 105q-120 0 -199 -79zM592 544q-59 -80 -51 -189q9 -133 109 -235q66 89 50 211t-108 213z" />
    <glyph glyph-name="O_O" unicode="OO" horiz-adv-x="1242" 
d="M131 83q-103 104 -103 249.5t103 249.5q103 103 249 103q138 0 241 -95q103 95 241 95q146 0 249 -103q103 -104 103 -249.5t-103 -249.5q-103 -103 -249 -103q-138 0 -241 95q-103 -95 -241 -95q-146 0 -249 103zM137 576q-88 -88 -79 -221.5t110 -234.5
q54 -54 121.5 -82.5t135.5 -28.5q113 0 190 71l-3 3q-96 96 -103 231t77 238q-109 104 -249 104q-120 0 -200 -80zM1074 545q-54 54 -121.5 82.5t-135.5 28.5q-114 0 -191 -71q2 -1 4 -3q96 -96 103 -231t-77 -238q110 -104 250 -104q120 0 199 79q88 89 79 222.5
t-110 234.5zM592 546q-67 -89 -51 -211.5t108 -214.5l1 -1q67 89 51 211.5t-108 214.5z" />
    <glyph glyph-name="T_E" unicode="TE" horiz-adv-x="678" 
d="M0 634v36h670v-35h-8q0 11 -8 19t-20 8h-216q-12 0 -20.5 -8.5t-8.5 -20.5v-298q0 -16 11.5 -27.5t27.5 -11.5h105q16 0 27.5 11.5t11.5 27.5h7v-85h-7q0 16 -11.5 27.5t-27.5 11.5h-105q-16 0 -27.5 -11.5t-11.5 -27.5v-213q0 -12 8.5 -20.5t20.5 -8.5h216q12 0 20 8
t8 19v1h8v-36h-354v8q12 0 20.5 8.5t8.5 20.5v596q0 13 -9 21q-8 8 -20 8h-89q-11 -1 -19 -9t-8 -20v-598q0 -13 8 -19q8 -8 19 -8v-8h-101v8q12 0 20.5 8.5t8.5 20.5v596q0 13 -8 21t-21 8h-90q-12 0 -20 -8t-8 -20h-8z" />
    <glyph glyph-name="T_H_E" unicode="THE" horiz-adv-x="931" 
d="M0 670h417v-8q-11 -1 -19 -9t-8 -20v-316q0 -9 6.5 -15.5t15.5 -6.5h164q9 0 15.5 6.5t6.5 15.5v316q0 13 -9 21q-8 8 -20 8v8h354v-35h-8q0 11 -8 19t-19 8h-216q-11 0 -20 -8.5t-9 -20.5v-298q0 -16 11 -27.5t27 -11.5h105q16 0 27.5 11.5t11.5 27.5h8v-85h-8
q0 16 -11.5 27.5t-27.5 11.5h-105q-16 0 -27 -11.5t-11 -27.5v-213q0 -12 8 -20.5t21 -8.5h216q11 0 19 8t8 19v1h8v-36h-354v8q12 0 20.5 8.5t8.5 20.5v229q0 9 -6.5 15t-15.5 6h-164q-9 0 -15.5 -6t-6.5 -15v-231q0 -13 8 -19q8 -8 19 -8v-8h-101v8q12 0 20.5 8.5
t8.5 20.5v596q0 13 -8 21t-21 8h-89q-11 -1 -19 -9t-8 -20v-598q0 -13 8 -19q8 -8 19 -8v-8h-101v8q12 0 20.5 8.5t8.5 20.5v596q0 13 -8 21t-21 8h-90q-12 0 -20 -8t-8 -20h-8v36z" />
    <glyph glyph-name="T_T" unicode="TT" horiz-adv-x="698" 
d="M8 634h-8v36h698v-36h-7q0 12 -8.5 20t-20.5 8h-90q-11 -1 -19 -9t-8 -20v-598q0 -13 8 -19q8 -8 19 -8v-8h-100v8q12 0 20.5 8.5t8.5 20.5v596q0 12 -8.5 20.5t-20.5 8.5h-91q-11 0 -19 -7.5t-9 -18.5v-2h-8v2q-1 11 -9 18.5t-19 7.5h-90q-11 -1 -19 -9t-8 -20v-598
q0 -13 8 -19q8 -8 19 -8v-8h-101v8q12 0 20.5 8.5t8.5 20.5v596q0 13 -8 21t-21 8h-90q-12 0 -20 -8t-8 -20z" />
    <glyph glyph-name="T_R" unicode="TR" horiz-adv-x="1022" 
d="M0 634v36h621q78 0 134.5 -55t57.5 -134q1 -52 -26 -97t-72 -71q-4 -2 -3 -7t6 -5q97 -14 166.5 -83.5t86.5 -166.5q4 -19 18 -31t33 -12v-8h-101v8q20 0 32.5 15t8.5 34q-20 102 -99 170t-182 69q-2 0 -10 -2q-27 -8 -55 -8h-61q-49 0 -90 -23t-66 -63q-9 -15 -9 -33
v-132q0 -13 8 -19q6 -8 19 -8v-8h-101v8q12 0 20.5 8.5t8.5 20.5v596q0 13 -8 21q-10 8 -21 8h-89q-11 -1 -19 -9t-8 -20v-598q0 -11 8 -19t19 -8v-8h-101v8q12 0 20.5 8.5t8.5 20.5v596q0 13 -8 21t-21 8h-90q-12 0 -20 -8t-8 -20h-8zM390 633v-385q0 -7 5 -12t12 -5
q6 0 11 5q56 58 137 58h66q22 0 45 5q4 1 8 4q40 21 64.5 69t24.5 106q0 62 -27.5 111.5t-71.5 67.5q-18 5 -43 5h-204q-11 -1 -19 -9t-8 -20z" />
    <glyph glyph-name="T_W" unicode="TW" horiz-adv-x="1027" 
d="M8 634h-8v36h387v-8q-5 0 -8.5 -4.5t-2.5 -9.5l165 -609q1 -7 8 -7t9 7l100 367q5 16 0 30l-56 211q-5 15 -20 15v8h66v-8q-5 0 -8.5 -4.5t-1.5 -9.5l163 -609q2 -7 8.5 -7t8.5 7l164 595q0 1 0.5 3t0.5 3q0 9 -6.5 15.5t-16.5 6.5v8h67v-8q-30 0 -39 -29l-164 -600
q-3 -9 3 -17t16 -8l-2 -8h-85v8q7 0 11 5t2 12l-96 356q-1 6 -7 6t-8 -6l-95 -348q-3 -9 3 -17t16 -8l-2 -8h-85v8q7 0 11 5t2 12l-168 622q0 7 -8 11t-15 4h-90q-11 -1 -19 -9t-8 -20v-598q0 -11 8 -19t19 -8v-8h-101v8q12 0 20.5 8.5t8.5 20.5v596q0 13 -8 21t-21 8h-90
q-12 0 -20 -8t-8 -20z" />
    <glyph glyph-name="T_Y" unicode="TY" horiz-adv-x="666" 
d="M0 634v36h400v-8q-7 0 -10.5 -5t-1.5 -12q13 -38 39.5 -114.5t39.5 -114.5l24 -70q2 -6 8.5 -6t8.5 5l98 282q2 6 2 8q0 11 -8 19t-19 8v8h85v-8q-41 0 -52 -37l-111 -315q-4 -11 -4 -25v-250q0 -13 8 -19q8 -8 19 -8v-8h-101v8q13 0 21 8.5t8 20.5v267q0 12 -3 24
l-109 315q-3 9 -10 14q-8 5 -17 5h-88q-11 -1 -19 -9t-8 -20v-598q0 -11 8 -19t19 -8v-8h-101v8q12 0 20.5 8.5t8.5 20.5v596q0 13 -8 21t-21 8h-90q-12 0 -20 -8t-8 -20h-8z" />
    <glyph glyph-name="T_h" unicode="Th" horiz-adv-x="633" 
d="M0 670h419v-8q-10 0 -19.5 -10t-9.5 -19v-17l-1 -240q0 -8 7 -12.5t14 -0.5q26 14 57 14q50 0 86.5 -36t36.5 -86v-2l-1 -216q0 -12 8 -20q7 -9 21 -9v-8h-30l-73 1v7q11 0 20 9t9 20v17l1 216q-4 42 -26 70.5t-52 28.5q-33 0 -53.5 -29.5t-25.5 -66.5l-1 -236
q0 -12 8.5 -20.5t20.5 -8.5v-8h-103v8q10 0 19.5 9.5t9.5 19.5v17l2 252l1 327q0 13 -8 21t-21 8h-89q-11 -1 -19 -9t-8 -20v-598q0 -13 8 -19q8 -8 19 -8v-8h-101v8q12 0 20.5 8.5t8.5 20.5v596q0 13 -8 21t-21 8h-90q-12 0 -20 -8t-8 -20h-8v36z" />
    <glyph glyph-name="U_B" unicode="UB" horiz-adv-x="1215" 
d="M15 670h99v-8q-11 -1 -18.5 -9t-7.5 -19v-473q0 -67 45.5 -117t111.5 -53h11q85 0 145 60.5t60 145.5v414q0 22 -15.5 37t-36.5 15v7h443q78 0 134 -55.5t56 -134.5q0 -37 -14 -71q-4 -8 0.5 -16.5t14.5 -9.5q65 -11 109 -57q57 -58 55 -135q-1 -76 -57.5 -131
t-133.5 -55h-507v8q12 0 20.5 8.5t8.5 20.5v592q0 27 -30 27q-16 0 -28 -10.5t-12 -28.5v-425q0 -89 -62 -151.5t-150 -62.5t-150 63t-62 151v437q0 12 -8.5 20t-20.5 8v8zM582 108v-68q0 -11 8 -19t19 -8h407q19 0 28 2q15 2 27 9q38 22 61.5 68t23.5 103q0 56 -22 102
t-59 67q-16 9 -47 13q-16 2 -26 -12q-58 -74 -150 -74h-88q-76 0 -129 -53.5t-53 -129.5zM582 635v-422q0 -5 3.5 -8t8.5 -2.5t8 5.5q26 41 69 65.5t93 24.5h88q66 0 103.5 55.5t37.5 126.5q0 60 -31 116t-85 65q-18 2 -25 2l-243 -1q-11 0 -19 -8t-8 -19z" />
    <glyph glyph-name="U_D" unicode="UD" horiz-adv-x="1238" 
d="M15 662v8h99v-8q-11 -1 -18.5 -9t-7.5 -19v-473q0 -67 45.5 -117t111.5 -53h11q85 0 145 60.5t60 145.5v414q0 22 -15.5 37t-36.5 15v7h485q131 -6 223.5 -102.5t92.5 -228.5t-92.5 -228.5t-223.5 -102.5h-385v8q12 0 20 8.5t8 19.5v590q0 28 -28 28q-16 0 -28.5 -11
t-12.5 -29v-425q0 -89 -62 -151.5t-150 -62.5t-150 63t-62 151v437q0 12 -8.5 20t-20.5 8zM581 634v-590q0 -11 8.5 -19.5t20.5 -8.5h278q113 4 193 98.5t80 224.5q0 131 -80.5 225.5t-194.5 98.5l-276 -1q-12 0 -20.5 -8t-8.5 -20z" />
    <glyph glyph-name="U_P" unicode="UP" horiz-adv-x="1027" 
d="M15 662v8h99v-8q-11 -1 -18.5 -9t-7.5 -19v-473q0 -67 45.5 -117t111.5 -53h11q85 0 145 60.5t60 145.5v414q0 22 -15.5 37t-36.5 15v7h401q77 0 132.5 -54.5t56.5 -131.5q1 -79 -56.5 -136t-137.5 -57h-61q-47 0 -88 -23t-65 -62q-10 -14 -10 -33v-131q0 -12 8 -18
q8 -8 19 -8v-8h-99v8q12 0 20 8.5t8 20.5v589q0 12 -8 20t-20 8q-16 0 -28.5 -11.5t-12.5 -28.5v-425q0 -89 -62 -151.5t-150 -62.5t-150 63t-62 151v437q0 12 -8.5 20t-20.5 8zM581 253q0 -16 16 -16q8 0 12 5q56 56 135 56h66q22 0 45 6q43 19 69.5 67t26.5 109
q0 62 -27.5 110.5t-70.5 66.5q-21 6 -43 6h-202q-11 -1 -19 -9.5t-8 -19.5v-381z" />
    <glyph glyph-name="U_L" unicode="UL" horiz-adv-x="859" 
d="M15 662v8h99v-8q-11 -1 -18.5 -9t-7.5 -19v-473q0 -67 45.5 -117t111.5 -53h11q85 0 145 60.5t60 145.5v414q0 22 -15.5 37t-36.5 15v7h202v-8q-12 0 -20.5 -8.5t-8.5 -19.5v-590q0 -12 8.5 -20t20.5 -8h213q11 0 19 8t8 19h8v-35h-350v8q12 0 20.5 8t8.5 20v590
q0 12 -8 20q-11 9 -21 9q-17 0 -29 -12t-12 -29v-425q0 -89 -62 -151.5t-150 -62.5t-150 63t-62 151v437q0 12 -8.5 20t-20.5 8z" />
    <glyph glyph-name="U_R" unicode="UR" horiz-adv-x="1207" 
d="M15 662v8h99v-8q-11 -1 -18.5 -9t-7.5 -19v-473q0 -67 45.5 -117t111.5 -53h11q85 0 145 60.5t60 145.5v414q0 22 -15.5 37t-36.5 15v7h401q77 0 132.5 -54.5t56.5 -131.5q1 -52 -25.5 -96.5t-70.5 -70.5q-4 -2 -3 -6.5t5 -5.5q96 -13 165 -81.5t86 -164.5
q3 -19 17.5 -31t33.5 -12v-8h-100v8q19 0 31.5 14.5t8.5 33.5q-19 100 -97.5 168t-179.5 68q-2 0 -5.5 -0.5t-4.5 -0.5q-24 -8 -55 -8h-61q-47 0 -88 -23t-65 -62q-10 -14 -10 -33v-131q0 -11 8 -19q9 -7 19 -7v-8h-99v8q12 0 20 8.5t8 19.5v590q0 12 -8 20t-20 8
q-16 0 -28.5 -11.5t-12.5 -28.5v-425q0 -89 -62 -151.5t-150 -62.5t-150 63t-62 151v437q0 12 -8.5 20t-20.5 8zM581 634v-381q0 -16 16 -16q8 0 12 5q56 56 135 56h66q22 0 45 6q40 21 68 70t28 106q0 62 -27.5 110.5t-70.5 66.5q-21 6 -43 6h-202q-11 -1 -19 -9.5
t-8 -19.5z" />
    <glyph glyph-name="a_e" unicode="ae" horiz-adv-x="785" 
d="M109 -14q-40 12 -64.5 46.5t-22.5 75.5q3 69 64 103q87 49 140 99q3 2 10 9q6 11 0 22q-22 32 -54 32q-48 0 -82 -33.5t-34 -81.5h-7q0 51 36.5 87t86.5 36q43 0 74 -25q9 -8 18 1q14 14 50.5 49.5t54.5 53.5q35 33 78 33q35 0 66 -22q51 -33 46 -96q0 -144 -95 -305
q-8 -11 3 -20q59 -44 124 -44q62 0 102 40q45 45 37 118q0 2 -1 7.5t-2 8.5h28q0 -83 -58.5 -141.5t-140.5 -58.5q-83 0 -141 57.5t-60 140.5q0 78 51 136t128 66q8 1 12.5 7t3.5 13q-7 37 -35.5 60.5t-65.5 23.5q-45 0 -76 -31q-18 -18 -52.5 -51.5t-48.5 -47.5
q-11 -11 -2 -22l1 -1q1 -1 1 -2q20 -28 22 -92v-108v-93q0 -10 7 -19q8 -8 20 -8v-8h-72v27q0 6 -5 7.5t-8 -3.5q-29 -40 -77 -49q-31 -6 -60 3zM63 185q-21 -23 -15 -62q8 -45 48.5 -81.5t85.5 -36.5q31 0 52 24.5t25 57.5v183q0 20 -4 34q-2 6 -7.5 7.5t-10.5 -2.5
q-1 -1 -3.5 -3t-3.5 -3l-2 -2q-52 -48 -139 -97q-12 -7 -26 -19zM391 237q-12 -89 59 -162q4 -5 10 -4t9 6q61 105 82 206q6 42 8 58q0 11 -9 13h-6q-5 1 -16 1q-54 0 -93 -32.5t-44 -85.5z" />
    <glyph glyph-name="c_k_y" unicode="cky" horiz-adv-x="1070" 
d="M25 182q-2 82 57 142q54 55 130 60q11 0 11 11q12 85 77 141.5t152 56.5h105v-8q-11 -1 -19 -9t-8 -19v-354q0 -5 4 -9.5t10 -4.5h27q18 1 31 13.5t13 30.5v96q0 21 15 36t36 15h125v-8q-7 0 -11 -5t-2 -12l110 -321q2 -5 8 -5t8 5q11 33 34 99.5t35 98.5l37 105q2 6 2 9
q0 11 -8 18.5t-19 7.5v8h85v-8q-18 0 -32.5 -10t-19.5 -26l-38 -106q-7 -23 -16 -45q-2 -7 -7.5 -22t-8.5 -23q-25 -73 -55 -164q-2 -4 -11.5 -33t-15.5 -43q-12 -26 -38 -41t-56 -16q-7 0 -27.5 0.5t-31 -0.5t-25 -6t-24.5 -15q-18 -20 -20 -49q0 -31 22 -52.5t53 -21.5
q24 -1 64.5 -1h64.5q34 0 55 23q12 10 18 26q0 2 1.5 6.5t2 7.5t1.5 7t0.5 5t-0.5 2h8q-5 -37 -27 -61t-59 -24h-129q-19 0 -34 4q-56 21 -65 78q-5 39 18 71q30 41 108 41q65 -3 80 3q26 12 37 40q2 5 5.5 15t5.5 14q6 16 6 21.5t-10 20.5q-3 3 -7.5 4.5t-7.5 1.5h-4l-2 8
l-116 341q-7 20 -26 20q-17 0 -32.5 -14t-15.5 -30v-96q0 -25 -20 -40q-4 -3 -3 -8t5 -6q56 -20 90.5 -69t34.5 -109h-8q0 72 -49.5 125t-121.5 56h-43q-14 0 -14 -14v-132q0 -11 8 -19t19 -8v-8h-100v8q12 0 20.5 8.5t8.5 20.5v489q0 42 -10 51t-30 9q-16 0 -48 -8
q-73 -17 -121 -79t-48 -137v-8h-4q-15 4 -35 4q-63 0 -103 -40q-45 -47 -36.5 -118.5t65.5 -127.5q63 -63 145 -63q63 0 102 40q45 45 37 117q-2 12 -3 17h29q0 -82 -58 -141t-140 -59h-2q-83 0 -141.5 57.5t-59.5 140.5z" />
    <glyph glyph-name="c_t" unicode="ct" horiz-adv-x="704" 
d="M25 177q-2 82 57 142q42 45 104 57q24 5 22 29q-2 9 -2 26q2 59 42.5 104.5t99.5 52.5q78 9 132 -43q48 -45 51 -108v-26q0 -14 10 -23.5t24 -9.5h28v-8h-28q-14 0 -24 -9.5t-10 -23.5v-31l-1 -238q0 -27 18 -49.5t44 -29.5q10 -2 15 -2h6q34 0 58.5 24t24.5 58v1h8v-8
q-3 -35 -29 -59t-62 -24h-42q-7 0 -17 2q-30 8 -49 32t-19 55v2l-1 242v62l29 40q11 15 9 35q-9 59 -55 97.5t-107 35.5q-60 -2 -102.5 -46.5t-44.5 -104.5q-1 -24 7 -51q4 -12 4 -28v-2q-16 4 -37 4q-61 0 -101 -40q-45 -47 -36.5 -118.5t65.5 -127.5q64 -63 146 -63
q62 0 101 40q45 46 37 118q0 3 -1 8.5t-2 7.5h29q0 -82 -57.5 -140t-140.5 -60h-2q-83 0 -141.5 57.5t-59.5 140.5z" />
    <glyph glyph-name="e_e" unicode="ee" horiz-adv-x="818" 
d="M24 178q-2 82 57 142q60 60 143 60l4 1v-2q3 -18 -4 -64q-12 -93 -68 -203q-4 -10 -25 -49q-1 -7 6 -13q57 -45 125 -45q58 0 96.5 36.5t41.5 94.5q1 9 -1.5 25.5t-2.5 24.5q5 84 62 139t142 56q2 -18 -2 -52v-1q-14 -106 -67 -211q-1 0 -1 -2q-10 -22 -27 -52
q0 -9 6 -13q57 -45 124 -45q62 0 101 40q45 46 37 118q-1 3 -2 8.5t-1 8.5h29q0 -82 -57 -139v-1q-60 -60 -141 -60h-3q-55 0 -102 28q-6 3 -11 3q-11 0 -17 -9q-35 -55 -87 -118q-47 -56 -120 -56q-79 0 -125 61q-42 54 -31 122q1 6 -3 12t-13.5 13.5t-10.5 8.5
q-52 57 -52 133zM110 2q-6 -48 19 -92q44 -74 130 -74q70 0 114 53q48 57 89 120q8 15 -4 26l-2 2q-24 24 -39 54q-2 4 -6.5 4t-6.5 -4q-14 -28 -36 -50v-1q-60 -60 -141 -60h-3q-55 0 -102 28q-4 2 -8 0t-4 -6zM450 305q-27 -33 -29 -77t14.5 -83.5t45.5 -69.5q11 -11 19 2
q31 54 61 135.5t30 131.5q-3 12 -28 12q-64 0 -105 -41q-2 -2 -4.5 -5.5t-3.5 -4.5zM72 296q-28 -48 -21.5 -100t38.5 -97q8 -12 20 -24q11 -11 19 2q57 94 89 243q3 26 -1 31q-7 6 -44 3q-65 -7 -100 -58z" />
    <glyph glyph-name="f_b" unicode="fb" horiz-adv-x="588" 
d="M28 369h-18v8h18q11 0 13 11v117q0 36 24.5 62.5t60.5 26.5h43q8 0 12 -1q28 -3 49.5 -23t21.5 -47v-13l-1 -140q0 -7 6 -11t13 -1q42 22 91 22q82 2 142 -58q60 -58 60 -142q1 -82 -57.5 -141.5t-141.5 -60.5h-3q-49 0 -91 22q-10 6 -22 6q-13 0 -23 -6h-50v8
q12 0 20.5 8.5t8.5 20.5v17l3 503q0 12 -8 20t-25 9.5t-27 -2.5q-27 -8 -44 -30.5t-17 -50.5v-114q0 -12 12 -12h38v-8h-38q-12 0 -12 -12v-14l1 -243v-63q0 -13 9 -20q9 -9 20 -9v-7h-106v7q12 0 20.5 8.5t8.5 20.5v18l2 302q-2 12 -13 12zM249 57q0 -11 8 -21
q45 -50 106 -50h1q64 1 109.5 57.5t44.5 136.5q0 79 -45.5 135.5t-110.5 57.5h-1q-31 -1 -69.5 -21t-41.5 -48z" />
    <glyph glyph-name="f_h" unicode="fh" horiz-adv-x="490" 
d="M10 8q12 0 20.5 8.5t8.5 20.5v17l2 303q-2 12 -13 12h-18v7h18q11 0 13 12v116q0 32 19 56.5t49 32.5q5 1 17 1h52q23 0 48.5 -21.5t25.5 -44.5v-21l-1 -131q0 -8 6.5 -12t14.5 0q28 13 57 13q51 0 87 -35.5t36 -86.5v-1l-1 -217q0 -12 8.5 -20.5t20.5 -8.5v-8h-103v9
q11 0 20 9.5t9 19.5v17l2 215q-5 43 -27 71.5t-52 28.5q-33 0 -53.5 -30t-25.5 -67l-1 -236q0 -12 8.5 -20.5t20.5 -8.5v-8h-103v9q11 0 20 9t9 19v18l3 502q0 11 -8 21q-8 8 -31 8q-14 0 -21 -3q-26 -7 -43.5 -29.5t-17.5 -50.5v-114q0 -13 12 -13h38v-7h-38q-12 0 -12 -12
v-15l1 -242v-63q0 -11 9 -20t20 -9v-8h-106v8z" />
    <glyph glyph-name="f_j" unicode="fj" horiz-adv-x="321" 
d="M43 0h-33v8q12 0 20.5 8.5t8.5 20.5v17l2 303q-2 12 -13 12h-18v8h18q11 0 13 11v116q0 36 25 63t60 27h43q33 0 58.5 -22.5t31.5 -55.5q0 -7 6 -11l18 -20l-29 -29l-29 29l19 18q8 10 5 20q-18 62 -86 62q-6 0 -16 -2q-27 -8 -44 -30t-17 -51v-113q0 -12 12 -12h208v-8
q-12 0 -20.5 -8.5t-8.5 -20.5v-17l-1 -311v-232q0 -36 -25.5 -63t-60.5 -27h-42q-36 0 -62 24.5t-29 59.5v7h7v-1q0 -34 25 -58t59 -24h5q6 0 16 2q49 15 60 63q0 1 0.5 3t0.5 3q0 2 0.5 5.5t0.5 5.5v206l-2 337v17q0 12 -8.5 20.5t-20.5 8.5h-102q-12 0 -12 -12v-14l1 -244
v-62q0 -12 8.5 -20.5t20.5 -8.5v-8h-73z" />
    <glyph glyph-name="f_r" unicode="fr" horiz-adv-x="446" 
d="M28 370h-18v7h18q11 0 13 12v116q0 36 24.5 62.5t60.5 26.5h43q36 0 61.5 -24t28.5 -59v-8h-7v8q-3 24 -19 45q-1 1 -2.5 3t-2.5 3q-15 15 -38 21.5t-43 0.5q-27 -8 -44 -30t-17 -51v-113q0 -13 12 -13h158q0 -9 8 -13.5t16 -0.5q28 15 57 15q44 0 79 -29q21 -19 30 -39
h-31q0 29 -23.5 44.5t-54.5 15.5t-55 -16t-24 -45v-36l-1 -236q0 -12 8 -20q7 -9 21 -9v-8h-103v9q10 0 19.5 9t9.5 19v304q0 13 -9 20q-9 9 -20 9h-85q-12 0 -12 -12v-15l1 -243v-63q0 -13 9 -20q8 -8 20 -8v-8h-106v8q12 0 20.5 8t8.5 20v18l2 303q-2 12 -13 12z" />
    <glyph glyph-name="f_t" unicode="ft" horiz-adv-x="432" 
d="M10 8q12 0 20.5 8.5t8.5 20.5v17l2 303q-2 12 -13 12h-18v8h18q11 0 13 11v116q0 36 25 63t60 27h43q52 0 83 -54q5 -12 7 -30v-100q0 -14 10 -23.5t24 -9.5h28v-8h-28q-14 0 -24 -10t-10 -24v-31l-1 -238q0 -7 1 -11q0 -4 1 -6q10 -48 60 -63q10 -2 15 -2h6
q35 0 58.5 24t25.5 58v1h7v-7q-3 -35 -29 -59.5t-62 -24.5h-43q-5 0 -17 2q-30 8 -49 32t-19 56v1l-1 251v37q0 14 -14 14h-100q-12 0 -12 -12v-14l1 -244v-62q0 -13 9 -21q8 -8 20 -8v-8h-106v8zM147 583q-27 -8 -44 -30t-17 -51v-113q0 -12 12 -12h80q36 0 59 29
q15 22 15 44v60q-3 26 -19 45q-21 21 -38.5 26.5t-47.5 1.5z" />
    <glyph glyph-name="f_y" unicode="fy" horiz-adv-x="488" 
d="M28 367h-18v7h18q4 0 8 4t4 8v115q0 31 19 55.5t49 32.5q6 1 17 1h43q23 0 46.5 -13.5t32.5 -33.5q2 -4 3 -7q7 -15 8 -29v-7h-8v7q-1 26 -19.5 47t-44.5 26q-6 2 -20 1.5t-19 -2.5q-27 -7 -44.5 -29t-17.5 -51v-112q0 -13 13 -13l112 -1v-6q-7 0 -10.5 -5.5t-1.5 -12.5
l109 -320q2 -5 7.5 -5t7.5 5l107 302q1 3 1 9q0 11 -7.5 19t-19.5 8v8h85v-8q-17 0 -31.5 -10t-20.5 -27l-37 -106q-36 -96 -79 -224q-1 -3 -2.5 -9t-2.5 -9l-20 -61q-10 -36 -36 -60q-15 -12 -33 -18q-14 -5 -29 -6t-39.5 0t-29.5 1q-26 -1 -45 -22t-19 -47q0 -30 21 -51
q20 -23 53 -23q24 -1 64.5 -1h64.5q31 0 55 22q12 14 17 25l3 8l3 15v7h8v-4l-2 -12l-5 -17q-10 -24 -31.5 -38t-47.5 -14h-129q-18 0 -33 4q-58 22 -65 77q-6 38 18 72q30 40 84 40h48q4 0 13 -0.5t14.5 -0.5t13.5 1t14 4q23 8 38 42l14 36q5 14 -3.5 26.5t-23.5 12.5
l-118 348q-7 19 -27 19h-27q-5 0 -9 -3.5t-4 -8.5v-14l1 -242v-45l1 -17q0 -11 8 -21q8 -8 20 -8h1v-8h-106v8q12 0 20.5 8.5t8.5 20.5v17l1 301q0 12 -12 12z" />
    <glyph glyph-name="f_f_b" unicode="ffb" horiz-adv-x="794" 
d="M42 0h-32v8q12 0 20.5 8.5t8.5 20.5v17l1 301q0 11 -12 11h-18v8h18q12 0 12 12v62q0 31 19 55t49 32q12 2 17 2h43q53 0 82 -54v18q0 31 19 55.5t49 32.5q5 1 17 1h42q31 0 57 -19.5t26 -50.5v-13l-1 -140q0 -7 6 -11t13 0q42 22 90 22q83 0 142 -58t59 -141
q1 -82 -57 -141t-141 -60h-3q-48 0 -90 22q-9 5 -22 5q-11 0 -23 -5h-49v8q11 0 19.5 8.5t9.5 19.5v18l3 499q0 11 -9 20q-7 9 -30 9h-5q-6 0 -16 -2q-27 -8 -44 -30t-17 -50v-113q0 -13 12 -13h37v-8h-37q-12 0 -12 -12v-14l1 -241v-62q0 -13 9 -20q7 -9 20 -9v-8h-105v8
q12 0 20.5 8.5t8.5 20.5v17l1 301q-2 11 -13 11h-139q-13 0 -13 -12v-9l1 -246v-45l1 -17q0 -12 8 -20q7 -9 20 -9h1v-8h-74zM457 56q0 -10 8 -20q46 -51 105 -50h1q64 1 109 57t45 136q-1 79 -46.5 135t-109.5 56h-1q-57 0 -101 -47q-8 -8 -8 -21zM85 446v-59q0 -13 13 -13
h139q13 0 13 12v69q-3 25 -18 43q-20 31 -64 31q-34 0 -58.5 -24.5t-24.5 -58.5z" />
    <glyph glyph-name="f_f_h" unicode="ffh" horiz-adv-x="697" 
d="M28 366h-18v8h18q12 0 12 12v62q0 31 19 55t49 32q12 2 17 2h43q35 0 62 -25q3 -3 20 -29v18q0 31 19 55.5t49 32.5q5 1 17 1h42q35 0 59 -22t24 -57v-7l-1 -130q0 -8 7 -12.5t14 -0.5q26 14 57 14q50 0 86 -36t36 -85v-2l-1 -215q0 -12 8.5 -20.5t20.5 -8.5v-8h-102v9
q0 -1 7.5 2.5t14.5 10.5t7 15v17l1 215q-5 42 -27 70t-51 28q-33 0 -53.5 -29.5t-24.5 -65.5l-2 -235q0 -11 9 -20t20 -9v-8h-102v8q11 0 20 9t9 20v17l1 198v53l2 249q0 12 -9 20q-8 8 -25 9t-26 -3q-27 -8 -44 -30t-17 -50v-113q0 -13 12 -13h38v-8h-38q-12 0 -12 -12v-14
l1 -241v-62q0 -11 9 -20q7 -9 20 -9v-8h-105v8q12 0 20.5 8.5t8.5 20.5v17l1 301q0 11 -12 11h-140q-13 0 -13 -12v-9l1 -246v-45l1 -17q0 -12 8 -20q7 -9 20 -9h1v-8h-106v8q12 0 20.5 8.5t8.5 20.5v17l1 301q0 11 -12 11zM85 387q0 -13 13 -13h140q12 0 12 12v66
q-1 32 -25.5 54.5t-56.5 22.5q-34 0 -58.5 -24.5t-24.5 -58.5v-59z" />
    <glyph glyph-name="f_f_j" unicode="ffj" horiz-adv-x="529" 
d="M10 0v8q12 0 20.5 8.5t8.5 20.5v17l1 301q0 12 -12 12h-18v7h18q4 0 8 4t4 8v62q0 31 19 55t49 32q6 1 17 1h43q37 0 62 -25l4 -4q13 -13 16 -25v19q0 31 19 55t49 32q12 2 17 2h42q37 0 63 -25q20 -21 27 -51q2 -9 7 -14l18 -18l-29 -29l-29 29l15 16q12 12 7 27
q-4 14 -14 27l-6 6q-18 18 -40 22q-18 5 -39 -1q-27 -7 -44.5 -29.5t-17.5 -50.5v-112q0 -13 13 -13h206v-7q-12 0 -20.5 -8.5t-8.5 -20.5v-17l-1 -309v-231q0 -31 -19 -55t-49 -32q-10 -2 -17 -2h-42q-36 0 -62 24t-28 59v7h7q0 -34 24 -58t59 -24h5q6 0 16 2q48 13 60 63
l1 16v205l-1 335v17q0 12 -8.5 20.5t-20.5 8.5h-101q-5 0 -9 -3.5t-4 -8.5v-15l1 -241v-62q4 -29 29 -29v-8h-105v8q12 0 20.5 8.5t8.5 20.5v17l1 301q0 12 -12 12h-140q-5 0 -9 -3.5t-4 -8.5v-10l1 -246v-45l1 -17q0 -12 8 -20.5t20 -8.5h1v-8h-106zM147 526
q-27 -8 -44.5 -29.5t-17.5 -50.5v-59q0 -13 13 -13h140q12 0 12 12v62q0 27 -18 50l-6 6q-24 24 -58 24h-6q-5 0 -15 -2z" />
    <glyph glyph-name="f_f_r" unicode="ffr" horiz-adv-x="653" 
d="M10 0v9q12 -1 20.5 7.5t8.5 20.5v17l1 302q0 11 -12 11h-18v8h18q12 0 12 12v62q0 31 19 54.5t49 31.5q6 2 17 2h43q27 0 49.5 -14.5t32.5 -39.5v19q0 31 19 55t49 32q10 2 17 2h42q9 0 13 -1q31 -5 54 -28.5t23 -53.5v-8h-7v7q-3 27 -18 45q-13 20 -46 29q-21 4 -40 -1
q-26 -7 -43.5 -29.5t-17.5 -50.5v-113q0 -12 12 -12h158q0 -9 7.5 -13.5t15.5 -0.5q26 14 56 14q34 0 64.5 -18.5t44.5 -48.5h-30q-1 31 -24 45t-55 14t-54.5 -15t-22.5 -45l-1 -21v-14l-1 -235q0 -12 8 -20q8 -9 21 -9v-8h-103v8q12 0 20.5 8.5t8.5 20.5v301q0 13 -8 21
t-21 8h-84q-12 0 -12 -12v-14l1 -241v-63q0 -12 8.5 -20t20.5 -8v-9h-105v9q12 -1 20.5 7.5t8.5 20.5v17l1 302q0 11 -12 11h-140q-13 0 -13 -12v-9l1 -246v-46l1 -17q0 -12 8 -20t20 -8h1v-9h-106zM85 388q0 -13 13 -13h140q12 0 12 12v65q-2 26 -18 47l-6 6q-24 24 -58 24
h-6q-8 0 -15 -3q-27 -7 -44.5 -29t-17.5 -50v-59z" />
    <glyph glyph-name="f_f_t" unicode="fft" horiz-adv-x="639" 
d="M28 366h-18v8h18q12 0 12 12v62q0 31 19 55t49 32q6 1 17 1h43q37 0 62 -25l4 -4q10 -10 16 -25v19q0 31 19 55t49 32q10 2 17 2h42q9 0 13 -1q31 -5 54 -28.5t23 -53.5v-100q0 -14 10 -23.5t24 -9.5h28v-8h-28q-14 0 -24 -9.5t-10 -23.5v-31l-1 -237q0 -1 0.5 -5t0.5 -5
t0.5 -3t0.5 -3q12 -50 60 -63q10 -2 15 -2h6q34 0 58.5 24t24.5 58h7v-7q-3 -35 -29 -59t-61 -24h-43q-6 0 -16 2h-1q-29 8 -48 32t-19 55v1l-1 250v37q0 13 -13 13h-101q-12 0 -12 -12v-14l1 -241v-63q0 -12 8.5 -20t20.5 -8v-8h-105v8q12 0 20.5 8t8.5 20v17l1 302
q0 11 -12 11h-140q-13 0 -13 -12v-9l1 -246v-46l1 -17q0 -12 8 -20t20 -8h1v-8h-106v8q12 0 20.5 8t8.5 20v17l1 302q0 11 -12 11zM295 499v-112q0 -5 3.5 -9t8.5 -4h80q37 0 58 30q15 18 15 43v60q-3 26 -18 44q-14 21 -46 29q-22 2 -40 -1q-26 -7 -43.5 -29.5t-17.5 -50.5
zM85 446v-59q0 -13 13 -13h140q12 0 12 12v64q-2 29 -18 48l-6 6q-24 24 -58 24h-6q-8 0 -15 -3q-27 -7 -44.5 -29t-17.5 -50z" />
    <glyph glyph-name="f_f_y" unicode="ffy" horiz-adv-x="698" 
d="M10 367v7h18q4 0 8 4t4 8v62q0 31 19 55t49 32q6 1 17 1h43q37 0 62 -25l4 -4q3 -3 4 -5q3 -3 7 -9q0 -1 2 -3q1 -1 2 -3.5t1 -4.5v19q0 31 19 55.5t49 32.5q6 1 17 1h43q37 0 62 -25l4 -4q24 -22 24 -54v-7h-8v7q-1 23 -18 45l-6 6q-18 18 -40 22q-6 2 -20 1.5t-19 -2.5
q-27 -7 -44.5 -29t-17.5 -51v-112q0 -13 13 -13l112 1v-8q-7 0 -10.5 -5.5t-1.5 -12.5l109 -320q2 -5 7.5 -5t7.5 5l107 302q1 3 1 9q0 11 -7.5 19t-19.5 8v8h85v-8q-17 0 -31.5 -10t-20.5 -27l-37 -106q-36 -96 -79 -224q-1 -3 -2.5 -9t-2.5 -9l-20 -61q-10 -36 -36 -60
q-23 -18 -53 -23q0 -3 -39 -2l-39 2q-26 -1 -45 -22t-19 -47q0 -30 21 -51q20 -23 53 -23q24 -1 64.5 -1h64.5q31 0 55 22q12 14 17 25l3 8l3 15h7l-1 -9l-5 -17q-10 -24 -31.5 -38t-47.5 -14h-129q-18 0 -33 4q-58 22 -65 77q-6 38 18 72q25 33 66 39h95q15 0 26 5
q24 8 38 42l14 36q5 14 -3.5 26.5t-23.5 12.5l-118 348q-7 19 -27 19h-27q-5 0 -9 -3.5t-4 -8.5v-14l1 -242v-45l1 -17q0 -11 8 -21q8 -8 20 -8h1v-8h-106v8q12 0 20.5 8.5t8.5 20.5v17l1 301q0 12 -12 12h-140q-5 0 -9 -3.5t-4 -8.5v-10l1 -246v-45l1 -17q0 -11 8 -21
q8 -8 20 -8h1v-8h-106v8q12 0 20.5 8.5t8.5 20.5v17l1 301q0 12 -12 12h-18zM147 526q-27 -8 -44.5 -29.5t-17.5 -50.5v-59q0 -13 13 -13h140q4 0 8 4t4 8v61q0 28 -18 51l-6 6q-24 24 -58 24h-6q-5 0 -15 -2z" />
    <glyph glyph-name="g_g" unicode="gg" horiz-adv-x="902" 
d="M86 35q-59 57 -60 140t57 142q59 60 143 60q81 0 138 -57q8 -6 14 -14q9 -12 23 -5q46 22 46 74h8q0 -54 -47 -79q-14 -9 -7 -25q26 -48 23.5 -103.5t-33.5 -100.5q-5 -8 -2.5 -16t10.5 -12q25 -10 40.5 -32.5t15.5 -50.5q-1 -14 -7 -34q-4 -12 3.5 -22.5t20.5 -10.5
q53 0 112.5 -0.5t98.5 -0.5h43l101 -1q22 5 38 24.5t19 44.5v7q-3 28 -23.5 45t-46.5 17q-22 0 -41 -13q-51 -33 -111 -33q-80 0 -139 56q-59 58 -60 140.5t57 141.5q58 60 142 60q82 0 139 -57q2 -2 4.5 -4t5 -5t4.5 -5q9 -12 23 -5q46 22 46 74h8q0 -54 -47 -79
q-16 -9 -7 -25q26 -48 23 -103.5t-34 -100.5q-5 -7 -2 -15.5t11 -12.5q25 -10 40.5 -32.5t15.5 -50.5q1 -13 -2 -28q-5 -25 -29 -49q-27 -23 -55 -23q-6 -1 -14 -1l-66 -3q-105 -3 -542 -3l-53 -1h-24q-13 -2 -19 -5q-26 -10 -42 -42q-2 -7 -4 -21q0 -24 13 -44t35 -27
q7 -3 23 -5l79 -2h18t42.5 -0.5t52.5 -0.5h428q34 0 58.5 24t24.5 58h8q0 -37 -26 -63t-63 -27h-2h-95.5h-173.5h-178.5h-93.5l-79 -3q-14 0 -28 3q-29 9 -50 30q-22 31 -24 55q-2 13 1 32q3 13 11 30q27 46 80 51h28l53 -1h187q27 -1 49 16t26 44q1 2 1 6v7q-2 28 -22.5 45
t-47.5 17q-22 0 -41 -13q-50 -33 -111 -33q-82 0 -139 56zM88 312q-45 -47 -36 -118q8 -76 71 -133t139 -57q61 0 100 40q45 46 37 117q-10 77 -71.5 133.5t-138.5 56.5q-62 0 -101 -39zM525 312q-45 -47 -36 -118q8 -75 71 -132.5t138 -57.5q62 0 101 40q45 46 37 117
q-10 77 -71.5 133.5t-138.5 56.5q-62 0 -101 -39z" />
    <glyph glyph-name="g_i" unicode="gi" horiz-adv-x="626" 
d="M86 33q-59 57 -60 140t57 142q59 60 143 60q81 0 138 -57q8 -6 14 -14q9 -12 23 -5q46 22 46 74v160q0 25 18.5 43t44.5 16q24 -1 39.5 -19t15.5 -42v-10q0 -13 10 -25l15 -14l-29 -29l-28 29l15 14q10 12 10 25v10q0 20 -13 35.5t-32 17.5q-23 3 -40.5 -12.5
t-17.5 -38.5v-160q0 -54 -47 -79q-14 -9 -7 -25q26 -48 23.5 -103.5t-33.5 -100.5q-5 -8 -2.5 -16t10.5 -12q25 -10 40.5 -32.5t15.5 -50.5q1 -13 -2 -28q-6 -26 -29 -49q-27 -23 -55 -23q-98 -7 -185 -7l-53 -1h-13q-21 0 -30 -5q-20 -8 -32 -24q-20 -26 -11 -61
q10 -38 45 -49q7 -3 23 -5l79 -2q27 -1 79 -1h26q34 0 58 24t24 58h8q0 -37 -26 -63t-63 -27h-1h-105l-79 -3q-14 0 -28 3q-29 9 -50 30q-22 31 -24 55q-2 13 1 32q3 13 11 30q27 46 80 51h28l53 -1q35 0 105 -2l53 -3q4 0 13 -0.5t13 -0.5q31 0 53.5 20.5t25.5 51.5v7
q-2 28 -22.5 45t-47.5 17q-22 0 -41 -13q-50 -33 -111 -33q-82 0 -139 56zM88 310q-45 -47 -36 -118q8 -76 71 -133t139 -57q61 0 100 40q45 46 37 117q-10 77 -71.5 133.5t-138.5 56.5q-62 0 -101 -39zM512 374h99v-8q-11 -1 -18.5 -9t-7.5 -19v-303q0 -11 7.5 -19t18.5 -8
v-7h-99v8q12 0 20 8t8 20v301q0 12 -8 20t-20 8v8z" />
    <glyph glyph-name="g_y" unicode="gy" horiz-adv-x="810" 
d="M86 35q-59 57 -60 140t57 142q59 60 143 60q81 0 138 -57q33 -27 50 -77q31 -95 -23 -176q-5 -8 -2.5 -16t10.5 -12q25 -10 40.5 -32.5t15.5 -50.5q1 -13 -2 -28t-10 -27q-4 -6 -0.5 -12t10.5 -6h68q65 0 82 38q1 3 3 7l13 36q5 14 -3 26.5t-23 12.5l-2 8l-116 339
q-3 8 -10 13q-5 3 -10 5q-2 0 -4 0.5t-3 0.5v7h85v-7q-7 0 -11 -5.5t-2 -12.5l110 -318q2 -6 7.5 -6t7.5 6l106 300q1 3 1 9q0 11 -7.5 19t-18.5 8v7h84v-7q-17 0 -31.5 -10t-20.5 -27l-121 -347l-20 -61q-9 -32 -33 -56.5t-55 -24.5q-6 -1 -16 -1h-384h-30q-30 -4 -44 -21
q-20 -20 -20 -48q0 -31 21.5 -51.5t52.5 -22.5q15 -1 143 -1h74h111.5t102.5 0.5t49 0.5q32 0 52.5 19t25.5 50h8q-4 -19 -6 -25q-24 -52 -80 -52h-68.5h-125h-137h-111.5h-7h-17h-17t-15 1t-16 3t-14 6t-16 10q-29 23 -34 61q-1 5 -1 16v1q0 7 2 21q3 13 11 30q27 46 80 51
h28l53 -1q35 0 105 -2l53 -3q4 0 13 -0.5t13 -0.5q31 0 53.5 20.5t25.5 51.5v7q-2 28 -22.5 45t-47.5 17q-22 0 -41 -13q-50 -33 -111 -33q-82 0 -139 56zM88 312q-45 -47 -36 -118q8 -76 71 -133t139 -57q61 0 100 40q45 46 37 117q-10 77 -71.5 133.5t-138.5 56.5
q-62 0 -101 -39z" />
    <glyph glyph-name="g_g_y" unicode="ggy" horiz-adv-x="1263" 
d="M86 35q-59 57 -60 140t57 142q59 60 143 60q81 0 138 -57q8 -6 14 -14q9 -12 23 -5q46 22 46 74h8q0 -54 -47 -79q-14 -9 -7 -25q26 -48 23.5 -103.5t-33.5 -100.5q-5 -8 -2.5 -16t10.5 -12q25 -10 40.5 -32.5t15.5 -50.5q-1 -14 -7 -34q-4 -12 3.5 -22.5t20.5 -10.5
q53 0 112.5 -0.5t98.5 -0.5h43h104q22 5 36.5 23.5t17.5 44.5v7q-3 28 -23.5 45t-46.5 17q-22 0 -41 -13q-51 -33 -111 -33q-80 0 -139 56q-59 58 -60 140.5t57 141.5q58 60 142 60q82 0 139 -57q2 -2 4.5 -4t5 -5t4.5 -5q9 -12 23 -5q46 22 46 74h8q0 -54 -47 -79
q-16 -9 -7 -25q26 -48 23 -103.5t-34 -100.5q-5 -7 -2 -15.5t11 -12.5q33 -13 47.5 -44.5t6.5 -66.5q-5 -25 -29 -49q-10 -9 -27.5 -17t-28.5 -8q-13 -2 -44 -2h-35q-105 -3 -542 -3l-53 -1h-24q-13 -2 -19 -5q-26 -10 -42 -42q-2 -7 -4 -21q0 -24 13 -44t35 -27q7 -3 23 -5
l79 -2h18t42.5 -0.5t52.5 -0.5h428q34 0 58.5 24t24.5 58q0 39 27.5 69t66.5 30q3 0 32.5 -1t48.5 0t30 6q16 6 23 14.5t15 26.5l14 36q5 14 -3.5 26.5t-23.5 12.5l-2 8l-116 338q-7 20 -26 20v7h84v-7q-7 0 -10.5 -5.5t-1.5 -12.5l109 -319q2 -5 7.5 -5t7.5 5l106 301
q2 6 2 9q0 11 -8 19t-19 8v7h84v-7q-17 0 -31.5 -10.5t-19.5 -26.5l-122 -347l-19 -61q-17 -60 -69 -78q-10 -4 -25.5 -5t-39.5 0t-26 1h-6q-26 -2 -44 -21q-20 -18 -20 -48q-2 -28 20 -51q21 -21 54 -23q19 -1 40 -1t47.5 0.5t40.5 0.5q28 0 50 17.5t27 44.5l1 7h7l-1 -9
l-5 -16q-5 -14 -19 -28q-26 -26 -60 -24h-40.5h-47.5h-40q-19 -2 -33 4q-25 7 -45 30q-6 8 -17 8q-10 0 -18 -8q-26 -30 -67 -32h-2h-95.5h-173.5h-178.5h-93.5l-79 -3q-14 0 -28 3q-29 9 -50 30q-22 31 -24 55q-2 13 1 32q3 13 11 30q27 46 80 51h28l53 -1h187q27 -1 49 16
t26 44q1 2 1 6v7q-2 28 -22.5 45t-47.5 17q-22 0 -41 -13q-50 -33 -111 -33q-82 0 -139 56zM88 312q-45 -47 -36 -118q8 -76 71 -133t139 -57q61 0 100 40q45 46 37 117q-10 77 -71.5 133.5t-138.5 56.5q-62 0 -101 -39zM525 312q-45 -47 -36 -118q8 -75 71 -132.5
t138 -57.5q62 0 101 40q45 46 37 117q-10 77 -71.5 133.5t-138.5 56.5q-62 0 -101 -39z" />
    <glyph glyph-name="i_p" unicode="ip" horiz-adv-x="619" 
d="M67 455l-29 29l25 25q42 52 109 49q49 -3 84 -38t37 -84q1 -28 -8 -53q-4 -12 -3 -20q0 -5 4 -7.5t9 -0.5q43 25 98 27h3q82 -1 140.5 -60t57.5 -142q0 -83 -59 -141t-142 -58q-49 2 -86 20q-8 4 -15.5 -0.5t-7.5 -13.5v-45l1 -194q0 -11 8 -19.5t19 -9.5v-7
q-32 -1 -100 -1l-1 8q13 0 21 8q8 10 8 21l-1 323l-2 251v10q22 15 37 44q16 31 11 68q-5 41 -35 71t-71 34q-40 6 -77 -16q-13 -8 -15 -23t9 -26zM289 324q-7 -10 -7 -19l1 -131v-117q0 -12 8 -20q43 -48 102 -48h1q64 0 109.5 56t46.5 136q1 79 -44 135.5t-110 57.5h-1
q-61 0 -106 -50zM17 0v8q12 0 20.5 8.5t8.5 20.5v302q0 11 -9 20t-20 9v8h100v-8q-11 -1 -19 -9.5t-8 -19.5v-304q0 -11 8 -19t19 -8v-8h-100z" />
    <glyph glyph-name="i_t" unicode="it" horiz-adv-x="456" 
d="M38 484l25 25q45 57 119 48q47 -7 79 -43t33 -84q0 -7 -2 -23q-2 -11 4 -20.5t17 -10.5h33v-8h-29q-13 0 -23 -10t-10 -23v-31l-1 -238q0 -7 1 -10q0 -4 1 -6q4 -22 20.5 -39.5t38.5 -23.5q10 -2 16 -2h6q35 0 58 23.5t25 58.5v1h7v-8q-3 -35 -29 -59t-61 -24h-43
q-5 0 -17 2q-30 8 -49 32t-19 55v2l-1 250v14q23 17 37 44q12 29 12 53q0 50 -35.5 86t-85.5 36q-34 0 -63 -18q-13 -8 -15 -23t9 -26l-29 -29zM17 1v7q12 0 20.5 8.5t8.5 20.5v302q0 13 -9 21q-8 8 -20 8v8h100v-8q-11 -1 -19 -9t-8 -20v-304q0 -11 8 -19t19 -8v-7h-100z
" />
    <glyph glyph-name="k_y" unicode="ky" horiz-adv-x="767" 
d="M17 7q12 0 20.5 8.5t8.5 20.5v518q0 12 -9 20q-8 8 -20 8v8h100v-8q-11 -1 -19 -9t-8 -19v-353q0 -14 14 -14h27q18 0 31 13t13 31v95q0 22 15 37t36 15h37q21 0 36 -15.5t15 -36.5h-7q0 18 -13 31t-31 13t-31 -13t-13 -31v-95q0 -24 -20 -41q-4 -2 -3 -7t5 -6
q56 -20 90 -69t34 -108v-157q1 -6 7 -6q4 0 6 3q24 32 65 38h94q16 0 27 5q24 8 38 42l14 36q5 14 -3.5 26.5t-23.5 12.5l-118 348q-8 19 -27 19v8h85v-8q-7 0 -11 -5.5t-2 -12.5l110 -320q2 -5 8 -5t7 5l107 302q1 3 1 9q0 11 -7.5 19t-19.5 8v8h85v-8q-17 0 -31.5 -10
t-20.5 -27l-122 -348l-19 -61q-10 -36 -36 -60q-18 -14 -33 -18q-22 -5 -98 -5q-26 -1 -45 -22t-19 -47q0 -31 21.5 -52.5t52.5 -21.5q24 -1 64.5 -1h64.5q31 0 55 22q12 14 17 25l5 15h7l-2 -10l-3 -8q-9 -23 -31.5 -37.5t-47.5 -14.5h-129q-18 0 -33 4q-58 22 -65 77
q-1 5 -1 14v219q0 71 -50 124t-121 56h-43q-14 0 -14 -14v-132q0 -11 8 -19t19 -8v-7h-100v7z" />
    <glyph glyph-name="o_e" unicode="oe" horiz-adv-x="820" 
d="M99 24q-74 59 -74 164q0 77 60.5 134t137.5 57h6q55 -1 101.5 -30.5t72.5 -78.5q2 -4 7 -4t7 4q25 50 72.5 79.5t103.5 30.5h6q4 -4 -2 -51v-1q-15 -114 -92 -260q-5 -10 3 -18q58 -44 124 -44q62 0 101 40q45 46 37 117q0 3 -1 8.5t-2 8.5h28q0 -82 -57.5 -140
t-139.5 -60h-2q-60 0 -109 32q-11 8 -17 -4q-46 -69 -91 -123q-55 -66 -140 -55q-74 9 -114 74q-30 50 -21 107q2 8 -5 13zM132 64q-2 -8 5 -14q58 -44 124 -44q49 0 87 28t48 75q4 10 4 31q0 15 -1 23l-3 18q-13 56 -55 101.5t-97 62.5q-15 4 -17 -12q-15 -118 -95 -269z
M110 -7q-3 -43 20 -83q43 -73 129 -73q70 0 114 53q49 58 88 119q10 15 -3 26l-2 2q-26 26 -41 57q0 4 -5 4t-8 -10l-3 -6q-24 -45 -73.5 -73.5t-100.5 -28.5t-96 24q-6 4 -12.5 0t-6.5 -11zM188 354q-77 0 -110.5 -51t-22 -116t54.5 -112q4 -5 10 -4t9 6q73 129 91 262v1
q0 14 -32 14zM421 218q-6 -64 60 -143q4 -5 10 -4t9 6q77 137 90 266q0 11 -31 11q-60 0 -99 -38t-39 -98z" />
    <glyph glyph-name="p_y" unicode="py" horiz-adv-x="743" 
d="M-91 -229q-6 38 18 71q25 34 66 39q8 2 34 2q9 0 15 6t6 15l-2 419v17q0 12 -8.5 20.5t-20.5 8.5v7l73 1v-13q0 -5 4 -7.5t9 -0.5q44 26 98 26h3q82 -1 140 -59.5t57 -140.5q0 -84 -59 -141q-60 -59 -141 -57q-45 0 -86 19q-8 4 -15.5 -0.5t-7.5 -13.5v-85q0 -9 6.5 -15
t14.5 -6q4 0 110.5 -1.5t183.5 -0.5t94 5q16 8 23.5 16.5t14.5 25.5l14 36q5 14 -3.5 26.5t-23.5 12.5l-2 8l-116 339q-3 9 -10 14q-8 5 -17 5v8h85v-8q-7 0 -11 -5.5t-2 -11.5l110 -319q1 -6 7 -6t8 6l106 301q2 6 2 9q0 11 -8 18.5t-19 7.5v8h84v-8q-17 0 -31.5 -10
t-19.5 -26l-122 -348l-20 -61q-21 -72 -88 -82q-3 0 -8 -0.5t-8 -0.5h-332q-9 0 -15 -6t-6 -15v-69q0 -11 8 -19t19 -9v-8l-100 -1v8q11 0 20 9t9 20l-1 69q0 9 -6 15t-15 6l-30 1q-26 -1 -45 -22t-19 -47q0 -30 21 -51q20 -23 53 -23q21 -1 515 -1q31 0 52.5 19t25.5 50h8
q-5 -34 -28.5 -55.5t-57.5 -21.5q-8 0 -91 0.5t-167 0.5h-163t-94 -1q-18 0 -33 4q-17 6 -31 16q-29 25 -34 61zM90 306l2 -247q0 -12 8 -20q43 -48 101 -48h1q64 1 109.5 56.5t45.5 134.5q1 79 -44 135.5t-109 57.5h-1q-60 0 -105 -51q-8 -8 -8 -18z" />
    <glyph glyph-name="s_p" unicode="sp" horiz-adv-x="786" 
d="M24 238q-9 28 1 57q13 39 49 60t80 23q34 0 58 -10q6 -2 10 2t2 9q-9 23 -9 46q0 53 38 91t91 38t90 -35t39 -87q3 -42 -19 -75q4 -11 12 -5q44 26 97 26h3q81 -1 138.5 -59t56.5 -139q0 -82 -59 -139q-59 -58 -139 -56q-44 0 -85 19q-8 4 -15.5 -0.5t-7.5 -13.5v-6
l1 -38v-191q0 -11 8 -19t19 -9v-7l-98 -1v8q10 0 20 8q8 8 8 20l-3 559v9q31 20 43 48q13 23 13 54q0 54 -41 91t-96 30q-41 -5 -71 -35t-34 -71q-8 -58 34 -100l2 -2q13 -13 29 -21v-25h-9q-11 32 -39 52t-64 25q-68 8 -112 -37q-18 -19 -22 -42q-3 -23 6 -43
q15 -35 67 -54q9 -3 26 -8.5t23 -7.5l36 -14q42 -20 56 -49q16 -28 8 -58q-2 -8 -12 -27q-12 -14 -19 -20q-22 -16 -49 -21q-1 0 -23 -3h-4q-42 0 -73 25l-6 6q-5 4 -11.5 1.5t-6.5 -9.5v-20h-8v85h8q0 -36 30 -58.5t67 -22.5h4q14 2 21 4q21 4 43 22q10 10 14 19
q8 14 6 31.5t-13 30.5q-15 19 -57 31q-4 2 -12 4t-12 4q-41 14 -49 18q-16 5 -26 13q-4 2 -12 8l-11 10q-23 23 -30 51zM454 174l1 -115q0 -12 8 -20q44 -47 100 -47h1q63 1 107.5 56t45.5 132q1 79 -43.5 134.5t-107.5 56.5h-1q-59 0 -104 -50q-7 -9 -7 -19v-128z" />
    <glyph glyph-name="f_s" unicode="fs" horiz-adv-x="428" 
d="M116 -1h-106v8q12 0 20.5 8.5t8.5 20.5v17l1 302q0 12 -12 12h-18v7h18q12 0 12 12v115q0 31 19 55.5t49 32.5q12 2 17 2h43q2 0 6 -0.5t6 -0.5q31 -4 54.5 -28t23.5 -55v-7h-7v7q-3 27 -18 45l-6 6q-34 34 -80 22q-27 -8 -44.5 -30t-17.5 -50v-160l1 -242l1 -45v-17
q0 -13 8 -21q10 -8 21 -8v-8zM138 237q-8 31 1 59q12 39 50 61.5t81 22.5h1q69 2 111 -44q5 -5 11.5 -2.5t6.5 10.5v31h8v-83h-9q-9 28 -33 49q-25 25 -72 31q-71 7 -114 -39q-18 -19 -22 -42q-4 -22 6 -44q15 -37 68 -55q22 -6 50 -17q3 -1 25 -9l12 -5q2 -1 7 -3t7 -3
q28 -15 43 -43q16 -30 8 -60q-5 -23 -32 -47q-24 -18 -50 -22q-26 -7 -57.5 1t-50.5 27q-5 5 -11.5 2.5t-6.5 -9.5v-21h-8v87h8q0 -17 10 -36t24 -26q28 -20 65 -20h3q24 0 46.5 12.5t34.5 32.5q14 35 -7 63q-15 16 -36 24l-97 34q-26 12 -39 22l-11 10q-23 22 -31 51z" />
    <glyph glyph-name="s_s" unicode="ss" horiz-adv-x="579" 
d="M291 -7v81h9q4 0 4 -12q5 -9 10 -16q30 -43 89 -50q67 -8 112 38q31 33 20 73q-12 44 -75 67q-83 28 -97 37q-27 15 -41 42.5t-7 56.5q10 37 44.5 55.5t74.5 14.5q37 -3 62 -25q2 -2 8 -6q6 -2 9 -1q7 4 7 14q-2 11 -1 16h8v-85h-8q1 0 -2 13t-4 15q-8 19 -24 30l-3 3
q-33 24 -78 19q-51 -8 -68 -43q-1 -1 -3 -5q-10 -27 6 -53q12 -19 39 -29q13 -5 41 -14t45 -15t37.5 -19.5t33.5 -31.5q23 -32 19.5 -72t-33.5 -67q-40 -35 -99 -37q-69 -2 -110 43q-5 5 -11.5 2.5t-6.5 -9.5v-30h-7zM40 206q-23 32 -19.5 72t33.5 67q40 35 99 37
q67 2 110 -43q5 -5 11.5 -2.5t6.5 9.5v30h7v-81h-9q-4 0 -4 12q-5 9 -10 16q-30 43 -89 50q-69 8 -112 -38q-31 -31 -20 -73q12 -44 75 -67q83 -28 97 -37q27 -15 41 -42.5t7 -56.5q-10 -37 -44.5 -55.5t-74.5 -14.5q-37 3 -62 25q-2 2 -8 6q-6 2 -9 1q-7 -4 -7 -14
q2 -11 1 -16h-8v85h8q-1 0 2 -13t4 -15q8 -19 24 -30l3 -3q33 -24 78 -19q51 8 68 43q1 1 3 5q10 27 -6 53q-12 19 -39 29q-13 5 -41 14t-45 15t-37.5 19.5t-33.5 31.5z" />
    <glyph glyph-name="t_w" unicode="tw" horiz-adv-x="689" 
d="M10 319v54l47 63v-26q0 -14 9.5 -23.5t23.5 -9.5h113v-8q-7 0 -10.5 -5.5t-1.5 -11.5l110 -321q1 -5 7 -5t8 5l68 193q6 16 0 32l-32 94q-3 9 -10 14q-8 5 -17 5v8h85v-8q-4 0 -5 -1q-12 -4 -7 -16l110 -321q2 -5 8 -5t7 5l107 303q1 3 1 8q0 11 -8 19t-19 8v8h85v-8
q-17 0 -31.5 -10t-20.5 -27l-102 -291q-2 -6 -2 -8q0 -10 7 -17t17 -7l-2 -8h-99v8h12l-66 194q-2 6 -8.5 6.5t-8.5 -6.5l-57 -162q-2 -6 -2 -8q0 -10 7 -17t17 -7l-2 -8h-99v8h12l-116 341q-3 9 -10 14q-8 5 -17 5h-28q-14 0 -23.5 -9.5t-9.5 -23.5v-31l-1 -238
q0 -25 18 -48.5t43 -30.5q10 -2 16 -2h6q39 0 64 30q18 25 18 52v1h8v-8q-3 -35 -29 -59t-61 -24h-43q-7 0 -17 2q-30 8 -49 32t-19 55v2z" />
    <glyph glyph-name="t_t" unicode="tt" horiz-adv-x="434" 
d="M11 72l-1 247v53l46 63v-26q0 -13 10 -23t23 -10h28v-7h-28q-13 0 -23 -9.5t-10 -23.5v-31l-1 -235q0 -31 22.5 -55.5t53.5 -24.5h6q34 0 58 23t24 57v2l-1 247v53l46 63v-26q0 -13 10 -23t23 -10h28v-7h-28q-13 0 -23 -9.5t-10 -23.5v-31l-1 -235q0 -31 22.5 -55.5
t53.5 -24.5h6q34 0 58 23.5t24 57.5v1h7v-8q-2 -35 -28 -58.5t-61 -23.5h-42q-5 0 -17 2q-40 9 -58 47q-2 4 -6 4t-5 -4q-25 -49 -80 -49h-42q-5 0 -17 2q-29 8 -48 31.5t-19 54.5v2z" />
    <glyph glyph-name="t_t_y" unicode="tty" horiz-adv-x="670" 
d="M11 70l-1 249v54l46 63v-26q0 -14 10 -24t24 -10h28v-7h-28q-14 0 -24 -9.5t-10 -23.5v-268q0 -28 17 -49.5t44 -28.5q54 -11 85 28q18 23 18 50v2l-1 249v54l47 63v-26q0 -14 9.5 -24t23.5 -10h93v-7q-7 0 -10.5 -5.5t-1.5 -11.5l109 -320q2 -5 8 -5t8 5l106 301
q1 3 1 9q0 11 -7.5 19t-19.5 8v8h85v-8q-17 0 -31.5 -10t-20.5 -27l-121 -347l-20 -61q-18 -62 -69 -78q-11 -4 -23 -4.5t-30.5 0.5t-24.5 1q-35 0 -59 -18.5t-24 -51.5q0 -31 21.5 -52.5t52.5 -21.5q22 -1 128 -1q33 0 55 22q10 8 17 25l3 7l3 15h8l-7 -25
q-10 -24 -31.5 -38t-47.5 -14h-128q-18 0 -33 4q-58 22 -65 77q-6 38 18 71q25 34 66 39q4 1 23.5 1t43.5 -0.5t27 -0.5q47 0 65 47l13 36q5 14 -3 26.5t-23 12.5l-6 17q-2 8 -10 9t-13 -6q-26 -43 -77 -43h-42q-12 0 -17 1q-34 9 -53 39q-4 5 -11 5.5t-11 -5.5
q-27 -40 -75 -40h-42q-12 0 -17 1q-30 8 -49 32t-19 55v2zM266 305l-1 -237q0 -33 26.5 -55.5t60.5 -22.5q32 0 55 23.5t23 55.5v1l-95 280q-7 19 -27 19h-9q-13 0 -23 -9.5t-10 -23.5v-31z" />
    <glyph glyph-name="e_e_t" unicode="eet" horiz-adv-x="968" 
d="M25 177q-2 81 56 139q51 53 144 60v-1q3 -13 -2 -48q-3 -28 -9 -53q-10 -73 -84 -209q-2 -8 6 -13q56 -44 122 -44q59 0 97 37t39 95q-4 16 -4 37q-2 81 56 139q49 51 117 58q18 3 23 21q8 37 38.5 61t69.5 24q65 0 97 -56q2 -4 5 -12.5t5.5 -13.5t6.5 -10.5t10 -8.5
t14 -3h28v-7h-28q-14 0 -23.5 -9.5t-9.5 -23.5v-15q0 -36 -0.5 -106.5t-0.5 -105.5q0 -47 4 -59q6 -20 21.5 -35t34.5 -20q10 -2 16 -2h5q34 0 58 23t24 57v1h7v-7q-3 -35 -28.5 -58.5t-60.5 -23.5q-58 0 -73 6q-27 12 -42 38q-6 12 -7 19q-1 2 -1.5 8.5t-2.5 8.5q-3 3 -6 1
q-3 -1 -5.5 -4t-5 -7.5t-4.5 -6.5q-10 -12 -20 -19q-51 -46 -126 -46q-59 0 -108 32q-8 6 -14 -2q-38 -60 -91 -124q-46 -55 -118 -55q-41 0 -76.5 20.5t-56.5 55.5q-29 48 -19 102q1 9 -6 16l-13 11q-57 56 -59 138zM495 64q-2 -7 5 -12q58 -44 123 -44q47 0 84 27t47 72
l-1 212v42q0 11 7 21l14 19q13 18 -1 35q-31 37 -79 37q-42 0 -72 -29t-32 -70q1 -9 -1 -41q-11 -74 -32 -130.5t-62 -138.5zM110 8q-6 -16 1 -48q10 -52 50.5 -85t93.5 -33q51 0 90 30q43 33 114 147q3 5 0 10t-10.5 11.5t-8.5 7.5q-13 14 -25 35q-4 7 -11 7t-11 -7
q-26 -47 -72 -73.5t-100 -26.5q-52 0 -95 25q-13 10 -16 0zM67 285q-23 -47 -15.5 -95.5t37.5 -90.5q9 -12 20 -23q4 -4 9.5 -3.5t8.5 5.5q4 7 11 20t10 18v1q1 1 1 2q53 110 67 214v4q1 5 -2.5 8.5t-7.5 3.5q-42 5 -80.5 -11.5t-58.5 -52.5zM418 251q-11 -45 5 -92.5
t50 -82.5q11 -11 19 2q77 136 89 262q-3 11 -30 11q-48 0 -84.5 -27t-48.5 -73z" />
    <glyph glyph-name="e_t" unicode="et" horiz-adv-x="604" 
d="M25 176q-2 81 56 140q53 53 126 59q10 0 12 11q7 40 38 67t72 27q66 0 98 -57q2 -5 6 -16t6.5 -16t10 -10t18.5 -5h28v-8h-28q-18 0 -27 -14q-6 -8 -6 -18v-86q0 -16 -0.5 -49t-0.5 -50v-62q0 -42 20 -69.5t61 -27.5q33 0 57.5 24t24.5 57h7v-7q-3 -35 -28.5 -58.5
t-60.5 -23.5h-14h-15t-13 0.5t-15 2t-12 4t-14 6.5t-12 9q-25 21 -29 48q0 11 -5 12q-4 1 -10 -9q-22 -33 -66 -53.5t-86 -21.5h-2q-80 0 -138 56.5t-59 137.5zM132 71q-6 -11 4 -20q57 -44 123 -44q47 0 82.5 25t48.5 75l-1 212v37q0 16 10 29q12 17 8.5 38t-20.5 32
q-26 17 -58 17q-42 0 -72.5 -30t-30.5 -72q0 -141 -94 -299zM56 259q-14 -47 1.5 -97t51.5 -87q10 -10 18 2q77 131 90 259q1 8 -6.5 11.5t-20.5 3.5q-47 0 -83.5 -24t-50.5 -68z" />
    <glyph glyph-name="h_j" unicode="hj" horiz-adv-x="505" 
d="M17 9q11 0 20 9.5t9 19.5v17l1 200v6l1 47l1 250q0 11 -8 21q-8 8 -21 8v8h103v-8q-10 0 -19.5 -10t-9.5 -19v-17l-1 -164q0 -8 7 -12t14 0q28 13 57 13q51 0 87 -35.5t36 -86.5v-1l-1 -527q0 -12 8 -20l1 -1q6 -8 30 -8h6q5 0 15 2q27 8 44.5 30t17.5 50v206l-1 337
l-1 17q0 12 -8.5 20.5t-20.5 8.5v8h106v-8q-12 0 -20.5 -8.5t-8.5 -20.5v-17l-1 -311v-232q0 -32 -19 -56t-49 -32q-12 -2 -17 -2l-59 1q-30 6 -49 30t-19 54v6l2 489q-5 43 -27 71.5t-52 28.5q-33 0 -53.5 -30t-25.5 -67l-1 -236q0 -12 8.5 -20.5t20.5 -8.5v-8h-103v8z
M436 458l-29 29l29 29l29 -29z" />
    <glyph glyph-name="o_t" unicode="ot" horiz-adv-x="709" 
d="M85 34q-58 57 -60 138t52 141l5 5q60 60 142 60q27 0 46 -5q8 -2 14 5t2 15q-12 25 -12 54q0 55 38.5 93.5t93.5 38.5q24 0 48 -9q41 -15 64.5 -52.5t18.5 -81.5v-26q0 -14 9.5 -23.5t23.5 -9.5h29v-8h-29q-14 0 -23.5 -9.5t-9.5 -23.5v-31l-1 -238q0 -31 23 -56.5
t54 -25.5h6q33 0 58 24.5t25 57.5v1h7v-7q-2 -35 -28.5 -59.5t-61.5 -24.5h-43q-5 0 -17 2q-30 8 -49 32t-19 56v1l-1 251v27q0 10 6 17q25 27 31 60q3 12 3 24q0 55 -41.5 93t-97.5 31q-43 -4 -73.5 -35.5t-35.5 -74.5q-8 -68 48 -112q10 -6 15 -10q38 -27 59.5 -70.5
t21.5 -90.5q0 -83 -58.5 -142t-141.5 -59q-82 0 -141 57zM83 308q-40 -46 -32 -114q8 -76 72 -133.5t140 -57.5q58 0 96 35q51 51 42 123q-10 77 -73 134.5t-139 57.5q-59 0 -96 -36q-2 -1 -5 -4z" />
    <glyph glyph-name="o_f" unicode="of" horiz-adv-x="675" 
d="M85 40q-58 57 -60 138t52 141l10 10q59 56 139 56q20 0 43 -5q13 -4 31 -4h174q11 0 13 12v116q0 31 19 55.5t49 32.5q10 2 17 2h42q35 0 61.5 -24.5t29.5 -59.5v-7h-7v1q-2 34 -25 57q-30 30 -80 22q-27 -8 -44 -30t-17 -50v-114q0 -13 12 -13h114v-7h-114
q-12 0 -12 -12v-10l1 -247v-62q0 -12 8.5 -20.5t20.5 -8.5v-8h-106v8q12 0 20.5 8.5t8.5 20.5v17l2 302q-2 12 -13 12h-118q-10 0 -13.5 -9.5t4.5 -15.5q37 -26 58 -70t21 -90q0 -84 -57 -141l-5 -5q-58 -55 -138 -55q-82 0 -141 57zM83 314q-40 -46 -32 -114
q8 -76 72 -133.5t140 -57.5q30 0 60.5 11.5t44.5 33.5q41 45 33 113q-10 77 -73 134.5t-139 57.5q-61 0 -106 -45z" />
    <glyph glyph-name="r_t" unicode="rt" horiz-adv-x="519" 
d="M15 0v8q17 -2 25 18q5 9 5 45v162q0 93 -2 107q-6 30 -28 30v7h74q4 -13 10 -16q5 -2 10 0.5t4 7.5l-3 6q-27 35 -25.5 82.5t30.5 81.5q3 4 7 7q36 39 93 39q37 0 69 -19.5t49 -52.5q5 -9 7.5 -17.5t4 -21.5t1.5 -17v-21.5v-18.5q0 -14 10 -24t24 -10h28v-8h-28
q-14 0 -24 -9.5t-10 -23.5v-245q0 -37 2 -45q6 -21 22 -37t37 -21q23 -6 47 1.5t39 26.5q17 20 19 51v1h7v-7q-3 -39 -34 -64q-24 -20 -80 -20q-45 0 -74.5 22.5t-29.5 67.5v1l-1 251v12q0 23 12 39q42 54 21 117q-14 42 -52.5 65.5t-81.5 18.5q-32 -5 -58.5 -25t-39.5 -49
q-27 -65 13 -121q7 -9 12 -10q3 -1 15 1q13 3 27 3q34 0 64.5 -18t45.5 -48h-31q1 15 -8.5 28.5t-23.5 20.5q-23 13 -60 9q-37 -5 -50.5 -22t-13.5 -55q0 -41 -0.5 -122.5t-1.5 -122.5q0 -15 3 -21q7 -17 26 -17v-8h-103z" />
    <glyph glyph-name="v_e" unicode="ve" horiz-adv-x="738" 
d="M27 349q-7 19 -27 19v8h85v-8q-7 0 -11 -5.5t-2 -11.5l110 -320q2 -6 8 -6t7 6q9 23 25 69q9 27 44 125q27 76 79 230q10 30 34.5 45.5t55.5 13.5q32 -3 53 -23t25 -51q12 -80 -7 -164q-23 -104 -84 -206q-6 -11 4 -20q57 -45 125 -45q61 0 100 40q45 46 37 118
q0 3 -1 8.5t-2 8.5h28q0 -81 -56 -139v-1h-1q-57 -60 -142 -60q-82 0 -140.5 57.5t-59.5 139.5q-2 83 57 142q46 47 111 58q12 1 20 11t7 22q-2 20 -3 29q-5 32 -25.5 48.5t-45.5 19.5q-63 4 -82 -54q-30 -89 -55 -161q-74 -210 -81 -230q-9 -27 -9 -30q0 -9 7 -16t17 -7
l-3 -8h-99v8h13zM344 259q-14 -47 2.5 -97t52.5 -88q10 -10 18 3q77 131 91 268q0 9 -25 9q-28 0 -37 -3q-81 -18 -102 -92z" />
    <glyph glyph-name="v_e_e" unicode="vee" horiz-adv-x="1111" 
d="M16 365q-5 5 -16 5v8h85v-8q-7 0 -11 -5t-2 -12l110 -320q2 -5 8 -5t7 5q93 262 148 425q10 30 34.5 46t55.5 13q27 -2 44.5 -14.5t25 -34t10 -40.5t2.5 -46q0 -151 -95 -309q-7 -13 4 -20q57 -45 125 -45q61 0 100 40q40 41 38 103q-7 45 8 89.5t47 77.5q57 58 140 60h2
q5 -8 5 -18q0 -18 -3 -34q-13 -105 -68 -212v-1q-12 -25 -27 -51v-1q0 -7 6 -13q58 -44 124 -44q62 0 101 40q45 46 37 118q-1 3 -2 8t-1 8h28q2 -93 -73 -155q-53 -43 -125 -43q-61 0 -113 32q-7 6 -12 -2q-41 -66 -93 -127q-47 -56 -120 -56q-61 0 -106.5 42t-50.5 102
q0 23 1 28q3 19 2 21q-1 3 -6 5q-74 56 -76 155q-2 83 57 142q46 48 111 57q12 2 20 11.5t7 22.5q-8 92 -74 96q-25 3 -48.5 -10t-33.5 -43q-46 -138 -71 -205l-73 -208q-1 -3 -1 -8q0 -10 7 -17t17 -7l-3 -8h-99v8h13l-116 340q-3 9 -11 14zM401 -6q-3 -41 17 -80
q36 -68 112 -78q81 -11 134 52q49 59 90 121q7 14 -4 23l-3 3q-23 23 -36 48q-4 7 -12 7.5t-12 -6.5q-13 -24 -30 -41h-1q-56 -59 -140 -61h-2q-50 0 -93 23q-7 4 -13 0.5t-7 -11.5zM749 312q-28 -29 -34.5 -68.5t4.5 -76t33 -70.5q7 -10 20 -24q4 -5 10 -4t9 6
q78 133 90 266q-1 13 -26 13q-64 0 -106 -42zM376 316q-48 -49 -35 -129q1 -2 1 -5q8 -36 28 -68q4 -4 8 -12l2 -4q3 -3 8 -9t11 -12q10 -10 18 2q78 134 91 269q-4 10 -26 10q-67 0 -106 -42z" />
    <glyph glyph-name="v_i" unicode="vi" horiz-adv-x="478" 
d="M0 367v8h85v-8q-7 0 -11 -5.5t-2 -11.5l110 -320q2 -5 8 -5t7 5l107 301q1 3 1 9q0 11 -7.5 19t-19.5 8v8h185v-8q-11 -1 -19 -9.5t-8 -19.5v-303q0 -12 7.5 -19.5t19.5 -7.5v-8h-100v8q12 0 20.5 8.5t8.5 20.5v301q0 12 -9 20q-8 9 -20 9q-17 0 -31.5 -10t-20.5 -27
l-102 -290q-4 -12 3 -22t20 -10l-3 -8h-99v8h13l-116 340q-7 19 -27 19zM384 482l29 29l29 -29l-29 -28z" />
    <glyph glyph-name="v_i_p" unicode="vip" horiz-adv-x="873" 
d="M27 347q-8 19 -27 19v8h85v-8q-7 0 -11 -5.5t-2 -12.5l110 -320q2 -5 8 -5t7 5l107 302q1 3 1 9q0 11 -7.5 19t-19.5 8v8h258v-13q0 -5 4.5 -7.5t9.5 -0.5q43 25 97 27h4q83 -2 140.5 -61t56.5 -141q0 -83 -59 -140q-60 -60 -142 -58q-45 0 -85 20q-8 4 -16 -1t-8 -14v-6
l1 -38v-194q0 -11 8 -19.5t19 -9.5v-7l-100 -1v8q13 0 21 8t8 21l-1 322l-2 251v17q0 12 -8.5 20.5t-20.5 8.5q-11 -1 -19 -9.5t-8 -19.5v-304q0 -11 8 -19t19 -8v-7h-100v7q12 0 20.5 8.5t8.5 20.5v302q0 13 -9 20q-9 9 -20 9q-17 0 -31.5 -10t-20.5 -27l-102 -291
q-4 -11 3 -21.5t20 -10.5l-3 -7h-99v7h13zM537 303v-130l1 -118q0 -10 8 -20q45 -48 99 -48q63 0 111 57.5t48 134.5q1 79 -44 135.5t-109 57.5h-1q-61 0 -106 -51q-7 -9 -7 -18zM413 452l-29 29l29 29l29 -29z" />
    <glyph glyph-name="w_e" unicode="we" horiz-adv-x="945" 
d="M27 349q-7 19 -27 19v8h85v-8q-7 0 -11 -5.5t-2 -11.5l110 -320q2 -6 8 -6t7 6l68 192q6 17 0 32l-32 94q-3 8 -10 14q-8 5 -16 5v8h84v-8q-7 0 -10.5 -5.5t-1.5 -11.5l110 -320q1 -5 7 -5t8 5q8 24 13 36q24 72 56 160q20 54 79 229q10 29 34.5 45.5t55.5 13.5
q31 -2 52 -22.5t26 -51.5q10 -89 -7 -165q-23 -104 -84 -206q-7 -11 4 -20q58 -44 123 -44q62 0 102 40q44 44 36 117q0 8 -3 17h29q0 -82 -57 -140t-140 -60h-3q-81 0 -140 57.5t-60 139.5q0 75 47.5 131.5t120.5 68.5q16 2 22.5 14.5t5 28t-6 30t-10.5 25.5q-18 28 -58 32
q-25 3 -48.5 -10.5t-33.5 -43.5q-18 -54 -41 -121q-10 -27 -28 -81q-35 -98 -44 -125q-5 -14 -15 -42.5t-15 -42.5q-2 -6 -2 -8q0 -10 7 -17t17 -7l-3 -8h-98v8h12l-68 201q-1 4 -6 4t-6 -4l-60 -169q-1 -3 -1 -8q0 -10 7 -17t17 -7l-3 -8h-99v8h13zM550 258
q-13 -47 3 -96.5t52 -86.5q11 -11 19 2q83 141 90 268q-3 9 -32 9q-47 0 -83 -26t-49 -70z" />
    <glyph glyph-name="w_e_e" unicode="wee" horiz-adv-x="1314" 
d="M0 377h85v-8q-7 0 -11 -5t-2 -12l110 -320q2 -5 8 -5t7 5l67 188q5 16 0 31l-34 99q-3 9 -11 14q-5 5 -16 5v8h85v-8q-7 0 -11 -5t-2 -12l18 -50l92 -270q2 -5 7.5 -5t7.5 5q5 12 13.5 36.5t12.5 36.5q100 284 122 352q10 30 34.5 46t55.5 13q27 -2 44.5 -14.5t25 -34
t10 -40.5t2.5 -46q0 -151 -95 -309q-7 -13 4 -20q55 -43 126 -43q55 0 93.5 30t42.5 88q1 6 1 45t6 60q18 64 70 103.5t119 41.5h2q6 -15 2.5 -51t-9.5 -52q-16 -78 -59 -161v-1q-12 -26 -27 -51v-1q0 -7 6 -13q58 -44 124 -44q62 0 101 40q45 46 37 118q0 3 -1 8.5t-2 7.5
h28q2 -78 -56 -139v-1q-58 -58 -141 -60h-2q-32 0 -61 10q-11 3 -28.5 13t-23.5 12q-7 4 -12 -4q-36 -58 -92 -126q-47 -56 -120 -56q-42 0 -78 20.5t-57 57.5q-32 52 -19 111l1 1v1q0 2 -2 4h-1l-8 7h-1q-2 2 -5.5 5t-5.5 5q-58 57 -60 141q0 74 47.5 131.5t120.5 67.5
q12 2 20 11.5t7 22.5q0 5 -1 14.5t-2 14.5q-5 32 -26 48.5t-45 18.5q-25 3 -48.5 -10t-33.5 -43q-23 -69 -71 -205l-73 -208q-1 -3 -1 -8q0 -10 7 -17t17 -7l-3 -8h-99v8h13l-66 193q-2 5 -7 5t-7 -5l-57 -161q-1 -3 -1 -8q0 -10 7 -17t17 -7l-3 -8h-99v8h13l-116 340
q-3 9 -11 14q-5 5 -16 5v8zM604 -7q-3 -41 17 -80q36 -68 112 -78q81 -11 134 52q49 59 90 121q7 14 -4 23l-3 3q-22 22 -36 48q-4 7 -12 7.5t-12 -6.5q-24 -47 -70.5 -74t-100.5 -28h-2q-50 0 -93 23q-7 4 -13 0.5t-7 -11.5zM952 311q-46 -54 -35.5 -121.5t58.5 -117.5
q4 -5 10 -4t9 6q78 133 90 266q1 7 -6.5 9.5t-20.5 2.5q-67 0 -105 -41zM579 315q-41 -48 -37.5 -106t40.5 -109q6 -8 20 -24q10 -10 18 2q78 134 91 269q-4 10 -26 10q-66 0 -106 -42z" />
    <glyph glyph-name="w_i" unicode="wi" horiz-adv-x="683" 
d="M27 351q-7 20 -27 20v8h86v-8q-7 0 -11 -5.5t-2 -12.5l111 -323q2 -5 8 -5t7 5l67 188q3 11 0 22l-38 111q-3 9 -11 14q-6 6 -16 6v8h85v-8q-1 0 -2.5 -0.5t-2.5 -0.5q-12 -6 -7 -17l19 -56v-1l92 -266q1 -5 7 -5t8 5l107 305q2 6 2 9q0 11 -8 19t-19 8v8h186v-8
q-11 -1 -19 -9.5t-8 -19.5v-307q0 -11 8 -19t19 -8v-8h-101v8q12 0 20.5 8.5t8.5 20.5v305q0 12 -8 20q-11 9 -21 9q-17 0 -31.5 -10t-20.5 -27l-103 -294q-2 -6 -2 -8q0 -10 7.5 -17t17.5 -7l-3 -8h-100v8h13l-66 194q-1 4 -5 4t-6 -4l-57 -162q-1 -3 -1 -8q0 -10 7 -17
t17 -7l-3 -8h-100v8h13zM588 487l29 30l30 -30l-30 -29z" />
    <glyph glyph-name="w_i_p" unicode="wip" horiz-adv-x="1082" 
d="M0 379h86v-8q-7 0 -11 -5.5t-2 -11.5l111 -324q2 -5 8 -5t7 5l67 188q3 12 0 23l-38 111q-7 19 -27 19v8h85v-8q-3 0 -5 -1q-12 -6 -7 -16l19 -57v-1l92 -266q1 -5 7 -5t8 5l107 305q2 6 2 9q0 11 -8 19t-19 8v8h260v-13q0 -5 4 -7.5t9 0.5q46 26 99 26h3
q83 -1 142 -60.5t58 -142.5q0 -84 -60 -142q-60 -60 -143 -58q-46 0 -86 20q-8 4 -16 -1t-8 -14v-45l1 -196q0 -11 8 -19.5t19 -8.5v-8l-101 -1v8q12 0 20.5 8.5t8.5 20.5l-1 326l-2 253v17q0 12 -8.5 20.5t-20.5 8.5q-11 -1 -19 -9.5t-8 -19.5v-307q0 -11 8 -19t19 -8v-8
h-101v8q12 0 20.5 8.5t8.5 20.5v305q0 11 -8 21q-10 8 -21 8q-17 0 -31.5 -10t-20.5 -27l-103 -294q-2 -4 -2 -8q0 -10 7.5 -17t17.5 -7l-3 -8h-100v8h13l-66 194q-1 4 -5 4t-6 -4l-57 -162q-1 -2 -1 -8q0 -10 7 -17t17 -7l-3 -8h-100v8h13l-117 344q-3 7 -10 14q-8 5 -17 5
v8zM742 307l2 -249q0 -11 8 -21q42 -46 102 -48h2q65 1 110.5 57.5t45.5 135.5q1 80 -44.5 137t-110.5 58h-1q-60 1 -106 -50q-6 -7 -8 -20zM618 459l-30 29l30 29l29 -29z" />
    <glyph glyph-name="w_j" unicode="wj" horiz-adv-x="689" 
d="M27 352q-8 19 -27 19v8h86v-8q-7 0 -11 -5.5t-2 -11.5l111 -324q2 -5 8 -5t7 5l67 189q3 11 0 22l-38 111q-7 19 -27 19v8h85v-8q-3 0 -5 -1q-12 -6 -7 -16l19 -57v-1l92 -266q1 -5 7 -5t8 5l107 305q2 6 2 9q0 11 -8 19t-19 8v8h192v-8q-12 0 -21 -8.5t-9 -20.5v-17
l-1 -312v-233q0 -31 -19 -55.5t-49 -32.5q-12 -2 -18 -2h-42q-36 0 -62.5 24.5t-28.5 59.5v7h7q0 -34 24.5 -58.5t59.5 -24.5h5q6 0 16 2q27 8 44.5 30.5t17.5 49.5v207l-1 338l-1 17q0 12 -8.5 20.5t-20.5 8.5q-17 0 -31.5 -10t-20.5 -27l-103 -294q-2 -4 -2 -8
q0 -10 7.5 -17t17.5 -7l-3 -8h-100v8h13l-66 194q-1 4 -5 4t-6 -4l-57 -162q-1 -2 -1 -8q0 -10 7 -17t17 -7l-3 -8h-100v8h13zM590 488l29 29l29 -29l-29 -29z" />
    <glyph glyph-name="CO.ss01" unicode="Co" 
d="M243 211q-57 56 -59.5 135.5t51.5 138.5q62 60 151 60q82 0 136.5 -55.5t54.5 -137.5q0 -76 -51 -132q-2 -3 -5 -5q-2 -3 -5 -5q-58 -55 -136 -55q-79 0 -137 56zM250 490q-50 -50 -41 -121q8 -75 70 -131.5t138 -56.5q57 0 94 34l10 10q39 45 31 111q-8 76 -70 132
t-138 56q-57 0 -94 -34zM29 320q-7 81 20.5 154t81.5 127q103 103 245 104h8v-61h-8q0 32 -40 32q-119 0 -199 -80l-5 -5l-5 -5q-78 -88 -69 -211q9 -133 110.5 -234.5t234.5 -110.5q128 -9 216 74l10 10q81 86 74 209q-1 13 -10 21t-22 8v8h62v-8q0 -145 -104 -249
q-54 -54 -127 -81.5t-154 -20.5q-126 11 -217 102t-102 217z" />
    <glyph glyph-name=".notdef" horiz-adv-x="250" 
 />
    <glyph glyph-name="uni0000" horiz-adv-x="0" 
 />
    <glyph glyph-name="uni0000" horiz-adv-x="0" 
 />
    <glyph glyph-name="uni000D" unicode="&#xd;" horiz-adv-x="333" 
 />
    <glyph glyph-name="space" unicode=" " horiz-adv-x="250" 
 />
    <glyph glyph-name="exclam" unicode="!" horiz-adv-x="98" 
d="M49 41l29 -29l-29 -29l-29 29zM53 670v-562h-8v562h8z" />
    <glyph glyph-name="quotedbl" unicode="&#x22;" horiz-adv-x="176" 
d="M90 624l66 66l5 -5l-38 -39l22 -22l-28 -28zM43 596l-28 28l66 66l5 -5l-38 -39l23 -22z" />
    <glyph glyph-name="numbersign" unicode="#" horiz-adv-x="371" 
d="M0 3l74 210h-73v7h76l53 153h-73v7h76l75 213l7 -2l-74 -211h148l75 213l7 -2l-74 -211h65v-7h-68l-54 -153h66v-7h-68l-75 -213l-7 3l74 210h-148l-75 -213zM85 220h147l54 153h-148z" />
    <glyph glyph-name="dollar" unicode="$" horiz-adv-x="377" 
d="M5 450q-20 91 41 159q1 1 2 2.5t2.5 2.5t2.5 2q56 56 132 56v13h7v-13q11 0 17 -1q52 -5 94.5 -37t62.5 -80q12 -35 11 -36q-1 0 -4 -0.5t-4 -0.5q-12 61 -60 103t-110 44h-7v-370l54 -23q33 -14 56 -41t30 -62q17 -70 -31 -124l-6 -6q-38 -44 -103 -44v-14h-7v10
q0 3 -2 4h-5q-2 0 -5 0.5t-5 0.5q-29 4 -59 21q-53 35 -66 90q-2 5 -4 19q0 1 -0.5 6t-0.5 8.5v4.5h8q0 -60 42 -102q47 -40 95 -40h2v287l-71 29q-41 17 -70 52.5t-39 79.5zM51 604q-58 -66 -39 -153q21 -89 105 -126l68 -28v368q-75 -2 -127 -54q-3 -4 -7 -7zM192 286
v-285q57 2 97 42l6 6q46 50 30 118q-15 68 -82 97z" />
    <glyph glyph-name="percent" unicode="%" horiz-adv-x="245" 
d="M169 30l29 29l28 -29l-28 -29zM76 563l-29 -29l-28 29l28 29zM223 593l7 -2l-208 -591l-7 3z" />
    <glyph glyph-name="ampersand" unicode="&#x26;" horiz-adv-x="624" 
d="M21 122q-6 61 25 112q15 20 18 23l114 119q11 13 -1 24l-144 145l87 90q2 3 6.5 8t7.5 7q5 5 8 7l9 7q37 26 83 23t80.5 -36t40.5 -79t-19 -89q-7 -11 -14 -19l-85 -90q-12 -12 1 -23l178 -179q11 -11 23 2q16 22 20 47q8 35 -7 71q-14 34 -45 56q-2 2 -7.5 5t-8.5 4
q-7 3 -15 3q-15 0 -26.5 -11t-11.5 -27h-8v100h8v-2q0 -38 38 -50q27 -7 49 -27.5t34 -47.5q16 -38 8 -76q-6 -28 -25 -54q-9 -11 1 -19l107 -107q29 -31 74 -31v-8h-100v8q13 0 17.5 11.5t-3.5 20.5l-99 99q-11 11 -21 0l-98 -102q-24 -26 -40 -36q-49 -33 -107 -27
q-59 4 -101.5 46.5t-50.5 101.5zM75 215q-27 -41 -24 -90q5 -51 39.5 -87.5t84.5 -42.5q53 -6 96 20q17 11 39 33l39 36l62 60q11 12 1 22l-180 180q-12 10 -24 0l-114 -109q-3 -3 -19 -22zM44 545l139 -139q11 -13 23 -1l89 84q6 6 11 14q21 31 18 66q-3 36 -28 64
q-27 27 -64 32q-39 5 -72 -15l-8 -5q-1 -1 -3.5 -3t-3.5 -3q-5 -4 -15 -14z" />
    <glyph glyph-name="quotesingle" unicode="'" horiz-adv-x="101" 
d="M15 683l5 5l66 -66l-27 -28l-28 28l22 22z" />
    <glyph glyph-name="parenleft" unicode="(" horiz-adv-x="125" 
d="M74 53q-61 154 -53 319t82 313l7 -3q-74 -146 -82 -310t53 -316l29 -73l-7 -3z" />
    <glyph glyph-name="parenright" unicode=")" horiz-adv-x="125" 
d="M15 682l7 3q74 -148 82 -313t-53 -319l-29 -73l-7 3l29 73q60 153 52.5 316t-81.5 310z" />
    <glyph glyph-name="asterisk" unicode="*" horiz-adv-x="191" 
d="M0 537l4 7l88 -51v102h8v-102l88 51l3 -7l-88 -51l88 -51l-3 -6l-88 51v-102h-8v102l-88 -51l-4 6l88 51z" />
    <glyph glyph-name="plus" unicode="+" horiz-adv-x="329" 
d="M15 303h146v146h7v-146h146v-7h-146v-146h-7v146h-146v7z" />
    <glyph glyph-name="comma" unicode="," horiz-adv-x="101" 
d="M20 -50l-5 5l38 39l-22 22l28 28l27 -28z" />
    <glyph glyph-name="hyphen" unicode="-" horiz-adv-x="323" 
d="M311 299v-7h-299v7h299z" />
    <glyph glyph-name="period" unicode="." horiz-adv-x="87" 
d="M15 18l28 29l29 -29l-29 -28z" />
    <glyph glyph-name="slash" unicode="/" horiz-adv-x="254" 
d="M254 682l-247 -702l-7 3l247 702z" />
    <glyph glyph-name="zero" unicode="0" horiz-adv-x="444" 
d="M84 38q-57 55 -59 135.5t51 138.5l10 10q57 54 136 54q82 0 139.5 -57.5t57.5 -139.5q0 -76 -51 -133l-10 -10q-57 -54 -136 -54t-138 56zM333 285l-217 -217q64 -61 142 -61q55 0 95 35l9 9q40 44 32 112q-8 67 -61 122zM82 307q-40 -44 -32 -112q8 -67 61 -122l217 217
q-64 61 -142 61q-57 0 -95 -35z" />
    <glyph glyph-name="one" unicode="1" horiz-adv-x="146" 
d="M85 377h44v-377h-44v361l-68 -77v16z" />
    <glyph glyph-name="two" unicode="2" horiz-adv-x="315" 
d="M283 0h-273l190 156q43 37 43 92q0 46 -32 79.5t-77 33.5q-44 0 -73 -29v-1l-6 5q41 41 98 41q54 0 94 -38t40 -91q0 -60 -46 -98l-173 -142h215v-8z" />
    <glyph glyph-name="three" unicode="3" horiz-adv-x="387" 
d="M41 223h-29v4q2 62 46.5 105.5t106.5 44.5q66 2 111 -45q43 -41 46 -102v-11q-1 -45 -26 -82t-66 -56q61 -19 99 -72t38 -118q0 -83 -58.5 -142t-141.5 -59q-81 0 -140 57l31 32q64 -63 146 -63q58 0 96 35l10 10q40 46 32 113t-58 120.5t-117 67.5v35q14 -4 21 -5
q54 -6 84 25q31 31 25 83q0 2 -0.5 5t-0.5 4q-11 53 -54 95t-96 49q-52 7 -83.5 -27t-25.5 -86l2 -8q2 -8 2 -9z" />
    <glyph glyph-name="four" unicode="4" horiz-adv-x="327" 
d="M0 46l310 330v-56l-54 -59v-254h54v-8h-54v-57h-8v57h-232zM22 7h226v246l-226 -245v-1z" />
    <glyph glyph-name="five" unicode="5" horiz-adv-x="300" 
d="M9 26l-1 2l21 20q3 -6 11 -18q33 -42 78 -42t77 41l2 2t1 2t1 2l2 2q29 42 29 101q0 55 -29.5 102.5t-82.5 47.5q-24 0 -46 -13q-1 -1 -4 -2.5t-4 -2.5v106h161v-8h-153v-81q21 7 47 7q65 0 110.5 -46t45.5 -110q0 -59 -41 -105l-8 -8q-44 -43 -108 -43q-62 0 -109 44z
" />
    <glyph glyph-name="six" unicode="6" horiz-adv-x="359" 
d="M71 25q-33 33 -42 78.5t7 87.5q76 177 222 250l17 9l3 -7l-17 -9q-131 -70 -194 -195q41 49 112 49q61 0 107 -43t47 -104v-12q-2 -62 -46.5 -105.5t-106.5 -43.5q-64 0 -109 45zM57 212q-15 -44 -1.5 -84t45.5 -72q39 -40 89 -50q51 -11 85 15q35 25 35 69q4 64 -52 122
q-48 48 -108 52q-30 2 -55.5 -12t-37.5 -40z" />
    <glyph glyph-name="seven" unicode="7" horiz-adv-x="218" 
d="M15 332v45h191l-89 -377h-45l92 369h-141v-37h-8z" />
    <glyph glyph-name="eight" unicode="8" horiz-adv-x="422" 
d="M80 -261q-73 62 -70 158q2 53 30 99t74 71l18 9l14 5q-23 11 -45 31q-16 18 -22 28q-24 39 -23 85.5t27 84.5q21 31 55 49t71 18h2q61 0 105.5 -41t49.5 -102q3 -41 -16 -79t-53 -62q-17 -13 -21 -12q61 -19 98.5 -72t37.5 -118q0 -83 -59 -142t-142 -59q-76 0 -131 49z
M68 21q-40 -44 -32 -113q8 -77 71.5 -134.5t140.5 -57.5q62 0 102 40q0 1 2 2.5t2 2.5q40 44 32 113q-8 77 -71.5 135t-140.5 58q-57 0 -96 -36q-3 -2 -5 -5zM81 278q-5 -30 4 -56q13 -43 48 -78q26 -27 61.5 -42t69.5 -11q29 4 50.5 24.5t26.5 49.5q13 70 -51 136
q-62 62 -133 52q-30 -4 -50.5 -25t-25.5 -50z" />
    <glyph glyph-name="nine" unicode="9" horiz-adv-x="343" 
d="M18 229q2 61 47 105t106 44q64 0 110 -46q33 -33 42 -78t-8 -88q-3 -8 -10 -22t-9 -19q-31 -67 -83.5 -121t-118.5 -87l-17 -9l-4 7l17 8q129 65 194 195q-44 -49 -110 -49q-62 0 -107.5 42.5t-48.5 104.5v13zM41 267q-3 -65 53 -121q49 -49 108 -53q29 -2 55 12.5
t38 40.5q14 43 0.5 83t-45.5 72q-41 41 -89 51q-51 9 -84 -15q-33 -25 -36 -70z" />
    <glyph glyph-name="colon" unicode=":" horiz-adv-x="87" 
d="M15 28l28 29l29 -29l-29 -28zM72 217l-29 -28l-28 28l28 29z" />
    <glyph glyph-name="semicolon" unicode=";" horiz-adv-x="104" 
d="M31 30l29 29l29 -29l-69 -68l-5 5l40 40zM89 219l-29 -28l-29 28l29 29z" />
    <glyph glyph-name="less" unicode="&#x3c;" horiz-adv-x="143" 
d="M128 276l-6 -6l-107 107l107 106l6 -6l-101 -100z" />
    <glyph glyph-name="equal" unicode="=" horiz-adv-x="329" 
d="M15 301h299v-7h-299v7zM314 190h-299v7h299v-7z" />
    <glyph glyph-name="greater" unicode="&#x3e;" horiz-adv-x="143" 
d="M21 270l-6 6l101 101l-101 100l6 6l107 -106z" />
    <glyph glyph-name="question" unicode="?" horiz-adv-x="385" 
d="M25 459q13 57 54 94t100 42q39 3 77 -12q33 -13 57 -38l6 -6q54 -61 37 -141q-19 -84 -98 -117q-26 -10 -42 -34t-16 -53v-102h-6v102q0 31 16.5 56t44.5 37q76 32 94 112q17 78 -35 135q-2 3 -6 7l-2 2q-23 23 -58 36q-33 12 -70 9q-18 -2 -33 -7q-17 -5 -31 -13
q-31 -16 -53.5 -46t-28.5 -65zM197 -19l-26 26l26 26l26 -26z" />
    <glyph glyph-name="at" unicode="@" horiz-adv-x="643" 
d="M105 94q-88 94 -79 224q8 110 86.5 189t188.5 86q129 8 223 -79q94 -88 94 -217v-17q-4 -65 -51.5 -110.5t-113.5 -45.5l-25 -1v55q-13 -35 -45 -57.5t-69 -22.5h-6q-46 2 -80 36t-36 80q-1 35 15.5 65.5t47.5 47.5q93 51 153 111q-34 49 -94 49q-47 0 -81 -33.5
t-34 -80.5h-7q0 50 35.5 86t86.5 36q50 0 85.5 -36t35.5 -86v-242l18 1q63 0 108.5 43t48.5 105q1 5 1 17q0 125 -92 211q-93 86 -218 77q-107 -7 -183.5 -84t-84.5 -184q-8 -126 77 -218q86 -91 212 -91h277v-8h-277q-129 0 -217 94zM259 320q-62 -34 -59 -105
q1 -43 32.5 -75t75.5 -34q50 -2 84 32q36 33 36 82v153q0 31 -16 58q-63 -62 -153 -111z" />
    <glyph glyph-name="A" unicode="A" horiz-adv-x="569" 
d="M0 0v8q17 0 31.5 10t20.5 27l178 508q4 12 -3 22.5t-20 10.5l30 84h99v-8h-13l219 -635q7 -19 27 -19v-8h-85v8q7 0 10.5 5.5t1.5 11.5l-62 180q-2 7 -8.5 7t-9.5 -6q-15 -27 -42.5 -40t-59.5 -6q-31 7 -50.5 32.5t-20.5 59.5q-1 31 -21.5 53.5t-50.5 27.5q-10 2 -13 -8
l-98 -281q-4 -13 3.5 -24.5t21.5 -11.5v-8h-85zM169 355q-2 -5 0.5 -9.5t7.5 -5.5q32 -7 52.5 -32.5t20.5 -58.5q0 -36 24 -60t60 -24q34 0 58.5 23t26.5 56q0 4 -2 10l-133 386q-2 6 -8 6t-7 -6z" />
    <glyph glyph-name="B" unicode="B" horiz-adv-x="728" 
d="M528 0h-511v8q12 0 20.5 8.5t8.5 20.5v596q0 12 -8.5 20.5t-20.5 8.5v8h346q79 0 135 -56t56 -135q0 -36 -14 -72q-4 -9 0.5 -17.5t14.5 -9.5q66 -10 110 -57q57 -57 55 -135q-1 -78 -57.5 -133t-134.5 -55zM274 288q-76 0 -130 -54t-54 -130v-69q0 -11 8.5 -19t19.5 -8
h410q38 0 55 11q39 22 62.5 68.5t23.5 103.5q0 56 -22.5 101.5t-59.5 68.5q-20 13 -46 13q-18 2 -27 -12q-58 -74 -151 -74h-89zM118 662q-11 0 -19.5 -8t-8.5 -19v-425q0 -8 8 -10.5t13 4.5q26 42 69 66.5t94 24.5h89q68 0 105 56t37 128q0 56 -22.5 101t-59.5 68
q-13 9 -35 13q-18 2 -25 2z" />
    <glyph glyph-name="C" unicode="C" 
d="M29 302q-7 81 20.5 154t81.5 127q103 103 245 104h8v-61h-8q0 13 -8.5 22t-21.5 10h-10q-119 0 -199 -80l-10 -10q-78 -88 -69 -211q9 -133 110.5 -234.5t234.5 -110.5q128 -9 216 74l10 10q82 87 75 206v1q0 13 -10 22t-23 9v8h62v-8q0 -145 -104 -249
q-54 -54 -127 -81.5t-154 -20.5q-126 11 -217 102t-102 217z" />
    <glyph glyph-name="D" unicode="D" horiz-adv-x="755" 
d="M102 0h-85v8q12 0 20.5 8.5t8.5 20.5v596q0 12 -8.5 20.5t-20.5 8.5v8h390q133 -6 226.5 -104t93.5 -231t-93.5 -231t-226.5 -104h-305zM90 37q0 -12 8.5 -20.5t20.5 -8.5h282q114 4 195 100t81 227q0 132 -81.5 228t-196.5 99h-280q-12 0 -20.5 -8.5t-8.5 -20.5v-596z
" />
    <glyph glyph-name="E" unicode="E" horiz-adv-x="379" 
d="M371 0h-354v8q12 0 20.5 8.5t8.5 20.5v596q0 13 -9 21q-8 8 -20 8v8h354v-35h-8q0 11 -8 19t-19 8h-216q-13 0 -21 -8.5t-8 -20.5v-298q0 -16 11 -27.5t27 -11.5h105q16 0 27.5 11.5t11.5 27.5h8v-85h-8q0 16 -11.5 27.5t-27.5 11.5h-105q-16 0 -27 -11.5t-11 -27.5v-213
q0 -12 8 -20.5t21 -8.5h216q11 0 19 8t8 19v1h8v-36z" />
    <glyph glyph-name="F" unicode="F" horiz-adv-x="381" 
d="M17 670h356v-35h-8q0 11 -8 19t-20 8h-217q-13 0 -21 -8.5t-8 -20.5v-299q0 -16 11 -27t27 -11h106q16 0 27.5 11.5t11.5 27.5h8v-85h-8q0 16 -11.5 27.5t-27.5 11.5h-106q-16 0 -27 -11.5t-11 -27.5v-215q0 -11 8 -19t19 -8v-8h-101v8q12 0 20.5 8.5t8.5 20.5v596
q0 13 -9 21q-8 8 -20 8v8z" />
    <glyph glyph-name="G" unicode="G" 
d="M30 334q0 146 103 249t249 103h11v-61h-8q0 12 -8 21t-20 10l-5 1h-14q-121 0 -198 -79l-5.5 -5.5t-5.5 -4.5q-75 -84 -69 -205v-7q9 -134 110.5 -235t234.5 -110q26 -2 46 1q113 8 191.5 95.5t83.5 203.5q4 41 -11 65q-12 21 -35.5 32t-47.5 7t-43 -21t-25 -41
q-2 -8 -4 -23.5t-3 -21.5q-8 -32 -37 -50q-3 -2 -12.5 -7.5t-14.5 -9.5q-17 -15 -19 -46h-8v101h8q-1 -11 7.5 -20.5t19.5 -10.5q21 -3 36 18q11 16 14 40q4 28 8 41q9 26 32.5 43t51.5 17q27 1 51 -15.5t34 -41.5q11 -26 5 -70q-17 -135 -115.5 -225t-234.5 -90
q-146 0 -249.5 103.5t-103.5 248.5z" />
    <glyph glyph-name="H" unicode="H" horiz-adv-x="387" 
d="M46 633q0 12 -8.5 20.5t-20.5 8.5v8h101v-8q-27 -2 -27 -29v-316q0 -9 6 -15.5t15 -6.5h165q9 0 15.5 6.5t6.5 15.5v316q0 12 -8.5 20.5t-20.5 8.5v8h100v-8q-11 -1 -19 -9t-8 -20v-598q0 -13 8 -19q8 -8 19 -8v-8h-100v8q12 0 20.5 8.5t8.5 20.5v229q0 9 -6.5 15
t-15.5 6h-165q-9 0 -15 -6t-6 -15v-231q0 -12 7.5 -19.5t19.5 -7.5v-8h-101v8q12 0 20.5 8.5t8.5 20.5v596z" />
    <glyph glyph-name="I" unicode="I" horiz-adv-x="126" 
d="M8 662v8h101v-8q-27 -2 -27 -29v-598q0 -12 7.5 -19.5t19.5 -7.5v-8h-101v8q12 0 20.5 8.5t8.5 20.5v596q0 13 -9 21q-8 8 -20 8z" />
    <glyph glyph-name="J" unicode="J" horiz-adv-x="513" 
d="M0 178h100v-8q-9 0 -15.5 -7t-5.5 -17q8 -58 39 -100t74 -52q9 -2 29 -2q8 0 22 2q49 11 82 62.5t33 118.5v467q0 8 -6 14.5t-15 6.5h-141q-9 0 -15 -6.5t-6 -14.5v-8h-8v36h329v-36h-8v8q0 8 -6 14.5t-15 6.5h-37q-8 0 -14 -6.5t-6 -14.5l-1 -466q0 -72 -47 -126
t-117 -64q-9 -2 -27 -2q-70 0 -122.5 46t-66.5 115q-4 25 -29 25v8z" />
    <glyph glyph-name="K" unicode="K" horiz-adv-x="584" 
d="M17 8q12 0 20.5 8.5t8.5 20.5v597q0 13 -8 21q-10 8 -21 8v8h101v-8q-11 -1 -19 -9t-8 -20v-248q0 -20 13.5 -33.5t32.5 -13.5h92q34 0 58.5 24.5t24.5 59.5v173q0 38 26.5 64.5t64.5 26.5h43q26 0 48 -13.5t33 -35.5q18 -34 57 -34v-8h-101v8q20 0 28 18.5t-6 32.5
q-25 25 -59 25h-6q-11 0 -15 -2q-27 -8 -44.5 -30.5t-17.5 -51.5v-173q0 -37 -26 -63.5t-63 -27.5q101 -22 172.5 -100.5t86.5 -180.5q3 -19 17.5 -31t33.5 -12v-8h-101v8q20 0 32.5 14.5t8.5 33.5q-20 119 -110.5 197.5t-211.5 78.5h-65q-19 0 -32.5 -13.5t-13.5 -33.5
v-250q0 -11 8 -19q6 -8 19 -8v-8h-101v8z" />
    <glyph glyph-name="L" unicode="L" horiz-adv-x="371" 
d="M371 0h-354v8q12 0 20.5 8.5t8.5 20.5v596q0 13 -9 20q-8 9 -20 9v8h102v-8q-12 0 -20.5 -8.5t-8.5 -20.5v-596q0 -12 8.5 -20.5t20.5 -8.5h216q12 0 20 8t8 19v1h8v-36z" />
    <glyph glyph-name="M" unicode="M" horiz-adv-x="706" 
d="M0 8q30 0 39 29l143 523q2 10 -4 18t-16 8l23 84h78v-8h-10l101 -373q2 -6 8 -6t7 6l74 271q3 10 -3 18t-17 8l24 84h77v-8h-10l172 -639q5 -15 20 -15v-8h-66v8q5 0 8 4.5t2 9.5l-164 609q-2 7 -9 7t-8 -7l-101 -367q-3 -15 0 -30l57 -211q3 -15 20 -15v-8h-67v8
q6 0 9.5 4.5t1.5 9.5l-164 609q-1 7 -8 7t-9 -7l-163 -595q-3 -10 4 -19t18 -9v-8h-67v8z" />
    <glyph glyph-name="N" unicode="N" horiz-adv-x="388" 
d="M17 8q19 0 33 13.5t14 32.5v562q0 19 -13.5 32.5t-33.5 13.5v8h93l195 -611q1 -4 6 -3.5t5 5.5v555q0 19 -13.5 32.5t-32.5 13.5v8h101v-8q-20 0 -33.5 -13.5t-13.5 -32.5v-562q0 -19 14 -32.5t33 -13.5v-8h-94l-194 611q-1 5 -6.5 4t-5.5 -6v-555q0 -19 14 -32.5
t33 -13.5v-8h-101v8z" />
    <glyph glyph-name="O" unicode="O" 
d="M131 85q-104 103 -104 249t104 250t250 104q145 0 249 -104q68 -68 92 -158.5t0 -181.5t-92 -159q-104 -104 -249 -104q-146 0 -250 104zM137 578q-88 -89 -79 -222t110 -234q111 -111 257 -111q120 0 199 80q88 88 79 221.5t-110 234.5q-111 111 -256 111
q-120 0 -200 -80z" />
    <glyph glyph-name="P" unicode="P" horiz-adv-x="532" 
d="M8 670h304q79 0 135 -55t57 -134q1 -80 -57 -137.5t-139 -57.5h-62q-48 0 -89 -23t-66 -63q-9 -15 -9 -33v-132q0 -12 7.5 -19.5t19.5 -7.5v-8h-101v8q12 0 20.5 8.5t8.5 20.5v596q0 13 -9 21q-8 8 -20 8v8zM109 662q-27 -2 -27 -29v-385q0 -7 5 -12t11 -5q5 0 12 5
q56 58 136 58h66q21 0 45 6q43 20 70.5 68.5t27.5 109.5q0 62 -27.5 111.5t-71.5 67.5q-18 5 -44 5h-203z" />
    <glyph glyph-name="Q" unicode="Q" 
d="M131 85q-70 70 -93 164.5t5 188t103 160.5q100 89 234 89q120 0 214 -72q84 -64 118 -161t12 -196t-93 -173q0 -2 1 -3q50 -2 75 -27t26 -64v-7h-317q-78 -8 -153 18t-132 83zM137 579q-88 -89 -79 -222.5t110 -234.5q111 -111 256 -111q96 0 170 54q6 4 6 11.5t-7 11.5
q-42 27 -42 76q0 38 26.5 64.5t64.5 26.5v-7q-34 0 -58.5 -24.5t-24.5 -59.5q0 -25 14 -45.5t36 -30.5q10 -4 15 3q84 89 75.5 223.5t-106.5 232.5q-109 111 -257 111q-120 0 -199 -79zM516 9q-7 -3 -5.5 -10.5t8.5 -7.5h193q14 0 12 15q-6 29 -29 48.5t-53 19.5
q-23 0 -40 -14q-40 -33 -86 -51z" />
    <glyph glyph-name="R" unicode="R" horiz-adv-x="723" 
d="M37 654q-8 8 -20 8v8h304q79 0 135 -55t57 -134q1 -52 -25.5 -97t-71.5 -71q-4 -2 -3 -7t6 -5q97 -14 166.5 -83.5t86.5 -166.5q3 -19 17.5 -31t33.5 -12v-8h-101v8q20 0 32.5 15t8.5 34q-20 102 -99 170t-182 69q-2 0 -10 -2q-27 -8 -55 -8h-62q-48 0 -89 -23t-66 -63
q-9 -15 -9 -33v-132q0 -12 7.5 -19.5t19.5 -7.5v-8h-101v8q12 0 20.5 8.5t8.5 20.5v596q0 13 -9 21zM118 662q-27 -2 -27 -29v-385q0 -7 5 -12t11 -5q5 0 12 5q56 58 136 58h66q36 0 54 9q40 21 64.5 69t24.5 106q0 62 -27.5 111.5t-71.5 67.5q-18 5 -44 5h-203z" />
    <glyph glyph-name="S" unicode="S" horiz-adv-x="432" 
d="M24 439q-11 45 -2 88q14 65 66 110t119 47q29 2 54 -4q52 -11 90 -44q11 -9 24 -9q14 0 24 9.5t10 24.5h7v-137l-7 -1q-11 53 -47.5 91.5t-88.5 54.5q-32 9 -66 6q-64 -5 -112.5 -50t-52.5 -109q-3 -36 9 -69q12 -36 39 -64.5t62 -42.5q10 -4 36.5 -15t40.5 -17
q60 -26 69 -31q40 -22 63 -61l3.5 -7l3.5 -7q18 -44 12 -90q-6 -44 -37 -78q-11 -13 -35.5 -30t-37.5 -17q-21 -7 -47 -7q-63 0 -108 42q-7 7 -17 7t-18 -7.5t-8 -18.5h-7v133h7q0 -58 40 -100t98 -47q48 -2 86 23q27 16 44.5 44t17.5 59q2 40 -18 73q-11 18 -28 34
q-8 7 -20 14t-20 10.5t-24.5 10t-21.5 8.5q-1 0 -13 5q-2 1 -16 7t-22 9q-6 3 -19 8.5t-20 8.5q-42 18 -71.5 54.5t-40.5 81.5z" />
    <glyph glyph-name="T" unicode="T" horiz-adv-x="353" 
d="M0 670h353v-36h-8q0 12 -8 20t-20 8h-90q-11 -1 -19 -9t-8 -20v-598q0 -13 8 -19q8 -8 19 -8v-8h-101v8q12 0 20.5 8.5t8.5 20.5v596q0 13 -8 21t-21 8h-90q-12 0 -20 -8t-8 -20h-8v36z" />
    <glyph glyph-name="U" unicode="U" horiz-adv-x="524" 
d="M15 670h99v-7q-11 -1 -18.5 -9.5t-7.5 -19.5v-473q0 -67 45.5 -117t112.5 -53h10q85 0 145 60.5t60 145.5v414q0 22 -15 37t-37 15v7h100v-7q-17 0 -29 -12t-12 -29v-425q0 -89 -62 -151.5t-150 -62.5t-150 63t-62 151v437q0 11 -9 20q-7 9 -20 9v7z" />
    <glyph glyph-name="V" unicode="V" horiz-adv-x="569" 
d="M17 657q-8 5 -17 5v8h85v-8q-7 0 -10.5 -5t-1.5 -12l31 -92l31 -88v-1l150 -434q1 -5 7 -5t8 5l209 597q2 6 2 8q0 11 -8 19t-19 8v8h85v-8q-41 0 -52 -37l-205 -585q-4 -12 3 -22t20 -10l-3 -8h-100v8h13l-218 635q-3 9 -10 14z" />
    <glyph glyph-name="W" unicode="W" horiz-adv-x="706" 
d="M0 662v8h67v-8q-6 0 -9.5 -4.5t-1.5 -9.5l164 -609q2 -7 9 -7t8 7l101 367q5 16 0 30l-57 211q-3 15 -20 15v8h67v-8q-5 0 -8.5 -4.5t-2.5 -9.5l164 -609q1 -7 8 -7t9 7l163 595q1 2 1 6q0 9 -6.5 15.5t-15.5 6.5v8h66v-8q-30 0 -39 -29l-128 -471l-15 -51l-21 -78
q-2 -9 4 -17t16 -8l-2 -8h-86v8q7 0 11 5t3 12l-96 356q-1 6 -7.5 6t-8.5 -6l-95 -348q-2 -9 4 -17t16 -8l-2 -8h-86v8q7 0 11 5t2 12l-167 622q-3 15 -20 15z" />
    <glyph glyph-name="X" unicode="X" horiz-adv-x="353" 
d="M0 8q17 0 31.5 10t20.5 27l108 308q3 11 0 22l-92 265q-6 22 -30 22h-3v8h86v-8h-13l73 -213q1 -5 6 -5t7 5l63 181q4 12 -3 22t-20 10l3 8h86v-8h-23q-24 0 -31 -22l-74 -210q-3 -11 0 -22l131 -381q3 -9 11 -14q7 -5 16 -5v-8h-85v8q7 0 10.5 5.5t1.5 11.5l-104 305
q-2 5 -8 5t-8 -5l-100 -286q-2 -6 -2 -9q0 -11 8 -19t19 -8v-8h-85v8z" />
    <glyph glyph-name="Y" unicode="Y" horiz-adv-x="351" 
d="M17 657q-8 5 -17 5v8h85v-8q-7 0 -10.5 -5t-1.5 -12l31 -92l72 -207q2 -6 8.5 -6t7.5 5l99 282q1 3 1 8q0 11 -7.5 19t-18.5 8v8h85v-8q-41 0 -52 -37l-111 -315q-4 -11 -4 -25v-250q0 -13 8 -19q8 -8 19 -8v-8h-101v8q12 0 20.5 8.5t8.5 20.5v267q0 13 -4 24l-108 315
q-3 9 -10 14z" />
    <glyph glyph-name="Z" unicode="Z" horiz-adv-x="383" 
d="M15 8q10 0 18 5q9 4 12 14l237 622q2 4 -1 8.5t-8 4.5h-222q-12 0 -20 -8t-8 -20h-8v36h353v-8h-5q-24 0 -32 -22l-148 -386q-2 -4 -4 -10l-83 -219q-3 -6 1.5 -11.5t11.5 -5.5h223q12 0 20 8t8 20h8v-36h-353v8z" />
    <glyph glyph-name="bracketleft" unicode="[" horiz-adv-x="143" 
d="M15 -20v705h113v-8h-105v-689h105v-8h-113z" />
    <glyph glyph-name="backslash" unicode="\" horiz-adv-x="254" 
d="M247 -20l-247 702l7 3l247 -702z" />
    <glyph glyph-name="bracketright" unicode="]" horiz-adv-x="143" 
d="M15 685h113v-705h-113v8h105v689h-105v8z" />
    <glyph glyph-name="asciicircum" unicode="^" horiz-adv-x="178" 
d="M89 689l89 -89l-5 -5l-84 84l-84 -84l-5 5z" />
    <glyph glyph-name="underscore" unicode="_" horiz-adv-x="727" 
d="M12 -11h703v-9h-703v9z" />
    <glyph glyph-name="grave" unicode="`" horiz-adv-x="101" 
d="M15 683l5 5l66 -66l-27 -28l-28 28l22 22z" />
    <glyph glyph-name="a" unicode="a" horiz-adv-x="344" 
d="M52 22q-41 48 -27 106q11 55 60 81q84 47 147 105q12 12 2 25q-24 32 -53 32q-48 0 -81.5 -34t-33.5 -81h-8q0 50 36 86t87 36q51 -2 85 -34q36 -36 36 -107v-202q0 -11 8 -19q10 -8 19 -8v-7h-71v27q0 5 -5.5 6.5t-8.5 -2.5q-32 -45 -86 -51q-63 -8 -106 41zM63 183
q-23 -21 -15 -61q8 -45 48 -81.5t85 -36.5q25 0 42 15l1 1q28 26 34 66v182q0 20 -4 34q-2 6 -7.5 7.5t-10.5 -2.5q-63 -59 -147 -104q-15 -9 -26 -20z" />
    <glyph glyph-name="b" unicode="b" horiz-adv-x="423" 
d="M60 0h-50v8q12 0 20.5 8.5t8.5 20.5v17l3 502q0 11 -8 21q-8 8 -21 8v8h101v-8q-11 -1 -19 -9.5t-8 -19.5l-1 -186q0 -8 6 -12t13 0q42 22 90 22q84 0 143.5 -58t59.5 -142q1 -82 -57.5 -141.5t-141.5 -60.5h-4q-48 0 -90 22q-9 5 -22 5q-14 0 -23 -5zM85 304l-1 -247
q0 -11 8 -21q45 -50 106 -50h1q64 1 109.5 57.5t44.5 136.5q0 79 -45.5 135.5t-110.5 56.5h-2q-57 0 -102 -47q-8 -10 -8 -21z" />
    <glyph glyph-name="c" unicode="c" horiz-adv-x="439" 
d="M25 178q-2 81 56 140q57 57 139 59h2v-29q-9 2 -21 4h-15q-60 0 -100 -40q-44 -45 -35.5 -116t64.5 -126q64 -62 143 -62q61 0 100 40q44 45 36 116q0 3 -1 8t-2 8h28q0 -81 -57 -138t-138 -59h-2q-82 0 -138.5 56.5t-58.5 138.5z" />
    <glyph glyph-name="d" unicode="d" horiz-adv-x="423" 
d="M224 -22q-83 1 -141.5 60.5t-57.5 141.5q0 84 60 142q60 60 142 58q45 0 87 -20q8 -4 15.5 1t7.5 14l-1 181q0 12 -8 20t-19 9v8l101 1v-8q-12 0 -20.5 -8.5t-8.5 -20.5l3 -503v-17q0 -12 8.5 -20.5t20.5 -8.5v-8h-74v13q-49 -35 -112 -35h-3zM70 180q-1 -80 44.5 -136.5
t109.5 -57.5h1q61 0 106 50q8 10 8 21l-2 247q0 13 -8 21q-43 46 -102 48h-1q-65 -1 -110.5 -57.5t-45.5 -135.5z" />
    <glyph glyph-name="e" unicode="e" horiz-adv-x="439" 
d="M25 177q-2 81 56 139q57 58 138 60h7q0 -148 -94 -305q-6 -11 4 -20q58 -44 122 -44q60 0 99 40q48 48 34 132h28q0 -82 -56.5 -138.5t-138.5 -58.5h-2q-71 0 -123 43l-3 3q-33 25 -51.5 65.5t-19.5 83.5zM86 311q-47 -49 -34 -127q18 -70 57 -109q10 -10 18 2
q77 133 90 260q0 9 -10 13q-4 1 -8 1h-13q-60 0 -100 -40z" />
    <glyph glyph-name="f" unicode="f" horiz-adv-x="229" 
d="M10 8q12 0 20.5 8.5t8.5 20.5v17l1 303q0 11 -12 11h-18v8h18q12 0 12 12v116q0 36 25 62.5t61 26.5h42q38 0 63 -25q11 -9 18.5 -26.5t9.5 -31.5v-7h-7q-1 30 -19 52l-6 6q-24 24 -58 24h-6q-6 0 -16 -2q-27 -8 -44.5 -30t-17.5 -51v-113q0 -13 13 -13h114v-8h-114
q-12 0 -12 -12v-9l1 -247v-63q0 -12 8.5 -20.5t20.5 -8.5v-8h-106v8z" />
    <glyph glyph-name="g" unicode="g" horiz-adv-x="466" 
d="M30 -270q-26 35 -18.5 78t43.5 66q25 18 79 18l137 -3q45 -3 90 -3q22 -1 40 7q17 7 30 23q26 31 12 67q-17 42 -66 42q-23 0 -41 -12q-53 -34 -111 -34q-81 0 -139 57q-59 58 -60 140.5t57 141.5q57 60 142 60q82 0 139 -57l6.5 -6.5l7.5 -7.5q12 -10 23 -5q46 22 46 74
h8q0 -54 -47 -79q-14 -9 -7 -25q26 -48 23.5 -103.5t-33.5 -100.5q-5 -8 -2.5 -16.5t10.5 -11.5q51 -20 56 -82v-1q3 -36 -20.5 -64.5t-58.5 -34.5q-21 -4 -87 -6q-144 -3 -145 -3q-47 2 -69 -12q-28 -18 -32 -49q-1 -10 0 -21q7 -40 43 -56q11 -5 46 -7q63 -3 127 -3
q54 -2 80 13q40 22 40 70h8q0 -5 -2 -15q-16 -78 -120 -78q-30 1 -91 1q-51 -2 -76 -1q-42 3 -68 39zM88 313q-45 -46 -37 -118q10 -76 72 -133t138 -57q62 0 101 40q45 45 37 117q-10 76 -72 133.5t-138 57.5q-61 0 -101 -40z" />
    <glyph glyph-name="h" unicode="h" horiz-adv-x="337" 
d="M17 0v8q11 0 20 9t9 20v17l1 200v5l1 47l1 250q0 27 -29 30v7h103v-8h-2q-11 0 -19 -9t-8 -20v-17l-1 -163q0 -8 7 -12.5t14 -0.5q26 14 57 14q50 0 86.5 -36t36.5 -86v-1l-1 -217q0 -12 8 -20q7 -9 21 -9v-8h-30l-73 1v7q12 0 20.5 9t8.5 20v17l1 216q-4 42 -26 70.5
t-52 28.5q-33 0 -54 -30t-25 -66l-1 -236q0 -12 8 -20q8 -9 21 -9v-8h-103z" />
    <glyph glyph-name="i" unicode="i" horiz-adv-x="128" 
d="M17 377h101v-8q-12 -1 -19.5 -9.5t-7.5 -19.5v-305q0 -12 7.5 -19.5t19.5 -7.5v-8h-101v8q12 0 20.5 8.5t8.5 20.5v303q0 12 -8.5 20.5t-20.5 8.5v8zM67 456l-29 29l29 29l29 -29z" />
    <glyph glyph-name="j" unicode="j" horiz-adv-x="129" 
d="M-130 -226v7h7v-1q2 -35 25.5 -58.5t58.5 -23.5h6q5 0 15 2q50 15 60 63q1 2 1 6q1 4 1 11v206l-1 337l-1 17q0 13 -8.5 21t-20.5 8v8h106v-8q-12 0 -20.5 -8t-8.5 -21v-17l-1 -311v-232q0 -32 -19 -56t-49 -32q-12 -2 -17 -2h-43q-36 0 -62 24.5t-29 59.5zM36 486l29 29
l29 -29l-29 -29z" />
    <glyph glyph-name="k" unicode="k" horiz-adv-x="327" 
d="M37 577q-9 9 -20 9v7h101v-7q-12 -1 -19.5 -9.5t-7.5 -19.5v-355q0 -5 4 -9.5t9 -4.5h28q18 1 31 13.5t13 31.5v95q0 22 15 37t36 15h37q22 0 37 -15.5t15 -36.5h-8q0 18 -13 31t-31 13t-31 -13t-13 -31v-95q0 -26 -20 -41q-4 -3 -3 -8t5 -6q56 -20 90.5 -69t34.5 -109
h-8q0 72 -49.5 125t-121.5 56h-44q-13 0 -13 -14v-132q0 -12 7.5 -19.5t19.5 -7.5v-8h-101v8q12 0 20.5 8.5t8.5 20.5v520q0 13 -9 20z" />
    <glyph glyph-name="l" unicode="l" horiz-adv-x="128" 
d="M17 586v7h74v-558q0 -12 7.5 -19.5t19.5 -7.5v-8h-101v8q12 0 20.5 8.5t8.5 20.5v520q0 13 -9 20q-9 9 -20 9z" />
    <glyph glyph-name="m" unicode="m" horiz-adv-x="531" 
d="M10 0v9q11 0 20 9t9 19v303q0 11 -9 20t-20 9v8h73v-1q0 -9 8 -13.5t16 -0.5q28 15 56 15q45 0 80 -29l13 -13q7 -10 17 0q34 42 92 42q50 0 86 -35.5t38 -85.5v-3l-2 -216q0 -11 9 -20t20 -9v-8h-29l-74 1v8q12 0 21 8t9 20v18l1 214v38q0 31 -23.5 46.5t-55.5 15.5
q-21 0 -43 -8q-35 -15 -35 -53v-35l-1 -236q0 -11 8.5 -20t19.5 -9v-8h-29l-73 1v8q11 0 20 9t9 19v18l1 198v54q0 31 -23.5 46.5t-55.5 15.5t-54.5 -15t-23.5 -46v-35l-1 -236q0 -12 8 -20q8 -9 21 -9v-8h-103z" />
    <glyph glyph-name="n" unicode="n" horiz-adv-x="329" 
d="M15 369v8h73v-1q0 -9 8 -13.5t16 -0.5q28 15 56 15q50 0 86.5 -35t37.5 -86v-3l-2 -216q0 -11 9 -20t20 -9v-8h-29l-73 1v8q12 0 20.5 8t8.5 20v18l1 214v38q0 31 -23.5 46.5t-55.5 15.5q-31 0 -54 -15.5t-24 -45.5v-35l-1 -236q0 -12 8.5 -20.5t20.5 -8.5v-8h-103v9
q11 0 20 9t9 19v303q0 11 -9 20t-20 9z" />
    <glyph glyph-name="o" unicode="o" horiz-adv-x="444" 
d="M84 38q-57 55 -59 135.5t51 138.5l10 10q57 54 136 54q82 0 139.5 -57.5t57.5 -139.5q0 -76 -51 -133l-10 -10q-57 -54 -136 -54t-138 56zM82 307q-40 -44 -32 -112q10 -76 71 -132t137 -56q57 0 95 35l9 9q40 44 32 112q-8 75 -70.5 131.5t-137.5 56.5q-57 0 -95 -35z
" />
    <glyph glyph-name="p" unicode="p" horiz-adv-x="425" 
d="M17 368v7l73 1v-13q0 -5 4 -7.5t9 -0.5q44 26 97 26h3q82 -1 140 -59t57 -140q0 -83 -58.5 -140.5t-141.5 -57.5q-45 0 -85 20q-8 4 -15.5 -0.5t-7.5 -13.5v-45l1 -192q0 -11 8 -19.5t19 -9.5v-7l-100 -1v8q11 0 21 8q8 8 8 20l-3 570v17q0 12 -8.5 20.5t-20.5 8.5z
M98 324q-8 -8 -8 -19l2 -246q0 -12 7 -20q44 -47 101 -47h2q63 0 108 55.5t46 134.5t-44 135t-109 57h-1q-60 0 -104 -50z" />
    <glyph glyph-name="q" unicode="q" horiz-adv-x="417" 
d="M25 184q-1 82 56.5 140t139.5 59h3q52 0 98 -26q5 -2 9 0.5t4 7.5v13l72 -1v-7q-11 0 -19.5 -8.5t-8.5 -20.5v-17l-2 -248l-1 -321q0 -12 8 -20t20 -8v-8l-99 1v7q11 1 19 9.5t8 19.5l1 192v44q0 9 -7.5 14t-15.5 1q-42 -20 -86 -20q-80 -2 -140 57q-59 57 -59 140z
M221 376q-63 -1 -108 -57t-44 -135q1 -78 46 -133.5t108 -56.5h1q59 2 101 48q8 8 8 20l1 116v129q0 12 -7 19q-45 50 -105 50h-1z" />
    <glyph glyph-name="r" unicode="r" horiz-adv-x="273" 
d="M10 369v8h73v-1q0 -9 8 -13.5t16 -0.5q28 15 56 15q45 0 80 -29q17 -16 30 -38h-31q-2 37 -34 50h-1l-1 1q-21 8 -43 8q-21 0 -42 -8h-1q-35 -17 -35 -53v-35l-1 -236q0 -12 8.5 -20.5t20.5 -8.5v-8h-103v9h2q10 0 18.5 8.5t8.5 19.5v303q0 12 -9 20q-8 9 -20 9z" />
    <glyph glyph-name="s" unicode="s" horiz-adv-x="309" 
d="M41 198q-23 32 -19.5 72t33.5 67q40 35 99 37q67 2 110 -43q4 -5 11 -2.5t7 9.5v30h7v-81h-9q-4 0 -4 12q-5 9 -10 16q-30 43 -89 50q-69 8 -112 -38q-31 -31 -20 -73q12 -44 75 -67q83 -28 97 -37q27 -15 41 -42.5t7 -56.5q-10 -37 -44.5 -55.5t-74.5 -14.5
q-37 3 -62 25q-2 2 -8 6q-6 2 -9 1q-7 -4 -7 -14q2 -11 1 -16h-8v85h8q-1 0 2 -13t4 -15q8 -19 24 -30l3 -3q33 -24 78 -19q51 8 68 43q1 1 3 5q10 27 -6 53q-12 19 -39 29q-13 5 -41 14t-45 15t-37.5 19.5t-33.5 31.5z" />
    <glyph glyph-name="t" unicode="t" horiz-adv-x="226" 
d="M10 371l46 63v-26q0 -14 10 -23.5t23 -9.5h28v-8h-28q-14 0 -23.5 -9.5t-9.5 -23.5v-30l-1 -235q0 -7 1 -10q0 -4 1 -6q4 -22 20 -39t39 -23q10 -2 15 -2h6q34 0 58 23.5t24 57.5l7 1v-8q-3 -35 -28.5 -58.5t-60.5 -23.5h-42q-5 0 -17 2q-29 8 -48 31.5t-19 54.5v1
l-1 248v53z" />
    <glyph glyph-name="u" unicode="u" horiz-adv-x="329" 
d="M10 377h103v-8q-11 0 -20.5 -9t-9.5 -20v-17l-1 -232v-39q0 -31 23.5 -46t55.5 -15q21 0 43 8q35 15 35 53v35l1 44v209q0 12 -8 20q-8 9 -21 9v8h103v-8q-12 0 -20.5 -9t-8.5 -20v-303q0 -11 8 -21q10 -8 21 -8v-8h-74v12q-36 -29 -79 -29q-50 0 -86.5 35.5t-36.5 85.5
v2l1 234q0 12 -8.5 20.5t-20.5 8.5v8z" />
    <glyph glyph-name="v" unicode="v" horiz-adv-x="366" 
d="M27 350q-7 20 -27 20v7h85v-7q-7 0 -10.5 -5.5t-1.5 -12.5l110 -322q2 -5 8 -5t8 5l107 304q1 3 1 9q0 11 -7.5 19t-19.5 8v7h86v-7q-18 0 -32.5 -10t-20.5 -27l-103 -293q-4 -12 3.5 -22t19.5 -10l-3 -8h-99v8h13z" />
    <glyph glyph-name="w" unicode="w" horiz-adv-x="572" 
d="M0 369v8h85v-8q-7 0 -10.5 -5.5t-1.5 -11.5l110 -322q2 -5 7.5 -5t7.5 5l72 205q1 4 0 9l-36 106q-8 19 -27 19v8h86v-8q-7 0 -11 -5t-2 -12l110 -322q2 -5 8 -5t8 5l107 303q1 3 1 9q0 11 -7.5 19t-19.5 8v8h85v-8q-17 0 -31.5 -10t-20.5 -27l-102 -292q-2 -6 -2 -8
q0 -10 7 -17t17 -7l-2 -8h-100v8l12 2l-68 201q-2 5 -7 5t-6 -5l-59 -171q-1 -3 -1 -8q0 -10 7 -17t17 -7l-3 -8h-99v8h13l-117 342q-8 19 -27 19z" />
    <glyph glyph-name="x" unicode="x" horiz-adv-x="213" 
d="M0 0v8q17 0 31.5 10t20.5 27l37 105q5 10 0 21l-61 179q-8 19 -27 19v8h85v-8q-5 0 -9 -4.5t-4 -9.5l39 -114q2 -3 5 -3t4 3l33 93q1 3 1 8q0 11 -7.5 19t-19.5 8v8h85v-8q-17 0 -31.5 -10t-20.5 -27l-37 -105q-3 -11 0 -21l46 -133l15 -46q7 -19 27 -19v-8h-85v8
q6 0 10 4.5t3 9.5l-39 114q-1 3 -4 3t-5 -3l-33 -94q-3 -14 3.5 -24t22.5 -10v-8h-85z" />
    <glyph glyph-name="y" unicode="y" horiz-adv-x="364" 
d="M-85 -230q-6 38 18 71q28 39 70 39h90q18 2 27 6q15 6 23 15q1 1 2.5 3l3 4t3.5 5q1 3 3 7t3 7l14 37q5 14 -3.5 26t-23.5 12l-2 8l-116 340q-7 19 -27 19v7h85v-7q-7 0 -11 -5.5t-2 -12.5l110 -319q2 -5 8 -5t7 5l106 301q2 6 2 9q0 11 -8 19t-19 8v7h85v-7
q-39 0 -52 -37l-122 -348l-20 -61q-11 -39 -37.5 -61t-66.5 -22l-56 1q-15 0 -30 -6q-40 -23 -40 -63q0 -30 21 -51q20 -23 53 -23q21 -1 128 -1q33 0 56 22t23 55h7q1 -16 -6 -33q-9 -23 -32 -37.5t-48 -14.5q-14 0 -40 0.5t-47.5 0.5t-40.5 -1q-18 0 -33 4q-58 22 -65 77z
" />
    <glyph glyph-name="z" unicode="z" horiz-adv-x="236" 
d="M10 0v8q9 0 17 5q8 8 10 14l112 328q1 5 -3 9.5t-10 4.5h-126v8h211v-8q-19 0 -27 -19l-112 -328q-1 -5 3 -9.5t10 -4.5h126v-8h-211z" />
    <glyph glyph-name="braceleft" unicode="{" horiz-adv-x="198" 
d="M22 372l-2 2l2 3q48 51 48 122v73q0 46 33 79.5t80 33.5v-8q-43 0 -74 -30.5t-31 -74.5v-73q0 -71 -48 -125q48 -53 48 -124v-157q0 -43 31 -74t74 -31v-8q-47 0 -80 33t-33 80v157q0 69 -48 122z" />
    <glyph glyph-name="bar" unicode="|" horiz-adv-x="38" 
d="M23 685v-705h-8v705h8z" />
    <glyph glyph-name="braceright" unicode="}" horiz-adv-x="198" 
d="M15 -20v8q43 0 74 31t31 74v157q0 71 47 124q-47 55 -47 125v73q0 44 -31 74.5t-74 30.5v8q47 0 80 -33.5t33 -79.5v-73q0 -70 47 -122l3 -3l-3 -2q-47 -53 -47 -122v-157q0 -47 -33 -80t-80 -33z" />
    <glyph glyph-name="asciitilde" unicode="~" horiz-adv-x="221" 
d="M20 212l-5 6q20 20 49 20q30 0 49 -20q19 -18 44 -18q26 0 44 18l5 -6q-20 -20 -49 -20q-27 0 -49 20q-18 19 -44 19q-25 0 -44 -19z" />
    <glyph glyph-name="copyright" unicode="&#xa9;" horiz-adv-x="94" 
d="M0 641q0 19 14 33t33 14t33 -14t14 -33t-14 -33t-33 -14t-33 14t-14 33zM47 681q-17 0 -28.5 -11.5t-11.5 -28.5t11.5 -28.5t28.5 -11.5t28.5 11.5t11.5 28.5t-11.5 28.5t-28.5 11.5zM22 641q0 11 7 18t18 7v-7q-7 0 -12.5 -5.5t-5.5 -12.5t5.5 -12.5t12.5 -5.5t12.5 5.5
t5.5 12.5h7q0 -11 -7 -18t-18 -7t-18 7t-7 18z" />
    <glyph glyph-name="registered" unicode="&#xae;" horiz-adv-x="113" 
d="M49 670l32 -21l32 21v-77h-7v63l-25 -16l-24 16v-63h-8v77zM0 669h42v-8h-17v-68h-8v68h-17v8z" />
    <glyph glyph-name="degree" unicode="&#xb0;" horiz-adv-x="94" 
d="M0 640q0 20 14 33.5t33 13.5t33 -13.5t14 -33.5t-14 -33.5t-33 -13.5t-33 13.5t-14 33.5zM47 680q-17 0 -28.5 -12t-11.5 -28t11.5 -28t28.5 -12t28.5 12t11.5 28t-11.5 28t-28.5 12z" />
    <glyph glyph-name="acute" unicode="&#xb4;" horiz-adv-x="101" 
d="M81 688l5 -5l-38 -39l22 -22l-28 -28l-27 28z" />
    <glyph glyph-name="ordmasculine" unicode="&#xba;" horiz-adv-x="134" 
d="M20 178q0 20 14 33.5t33 13.5t33 -13.5t14 -33.5t-14 -33.5t-33 -13.5t-33 13.5t-14 33.5zM67 218q-17 0 -28.5 -12t-11.5 -28t11.5 -28t28.5 -12t28.5 12t11.5 28t-11.5 28t-28.5 12z" />
    <glyph glyph-name="Agrave" unicode="&#xc0;" horiz-adv-x="569" 
d="M0 0v8q17 0 31.5 10t20.5 27l178 508q4 12 -3 22.5t-20 10.5l30 84h99v-8h-13l219 -635q7 -19 27 -19v-8h-85v8q7 0 10.5 5.5t1.5 11.5l-62 180q-2 7 -8.5 7t-9.5 -6q-15 -27 -42.5 -40t-59.5 -6q-31 7 -50.5 32.5t-20.5 59.5q-1 31 -21.5 53.5t-50.5 27.5q-10 2 -13 -8
l-98 -281q-4 -13 3.5 -24.5t21.5 -11.5v-8h-85zM169 355q-2 -5 0.5 -9.5t7.5 -5.5q32 -7 52.5 -32.5t20.5 -58.5q0 -36 24 -60t60 -24q34 0 58.5 23t26.5 56q0 4 -2 10l-133 386q-2 6 -8 6t-7 -6zM293 713l-54 54l5 6l54 -54z" />
    <glyph glyph-name="Aacute" unicode="&#xc1;" horiz-adv-x="569" 
d="M0 0v8q17 0 31.5 10t20.5 27l178 508q4 12 -3 22.5t-20 10.5l30 84h99v-8h-13l219 -635q7 -19 27 -19v-8h-85v8q7 0 10.5 5.5t1.5 11.5l-62 180q-2 7 -8.5 7t-9.5 -6q-15 -27 -42.5 -40t-59.5 -6q-31 7 -50.5 32.5t-20.5 59.5q-1 31 -21.5 53.5t-50.5 27.5q-10 2 -13 -8
l-98 -281q-4 -13 3.5 -24.5t21.5 -11.5v-8h-85zM169 355q-2 -5 0.5 -9.5t7.5 -5.5q32 -7 52.5 -32.5t20.5 -58.5q0 -36 24 -60t60 -24q34 0 58.5 23t26.5 56q0 4 -2 10l-133 386q-2 6 -8 6t-7 -6zM331 773l6 -5l-54 -55l-6 6z" />
    <glyph glyph-name="Acircumflex" unicode="&#xc2;" horiz-adv-x="569" 
d="M0 0v8q17 0 31.5 10t20.5 27l178 508q4 12 -3 22.5t-20 10.5l30 84h99v-8h-13l219 -635q7 -19 27 -19v-8h-85v8q7 0 10.5 5.5t1.5 11.5l-62 180q-2 7 -8.5 7t-9.5 -6q-15 -27 -42.5 -40t-59.5 -6q-31 7 -50.5 32.5t-20.5 59.5q-1 31 -21.5 53.5t-50.5 27.5q-10 2 -13 -8
l-98 -281q-4 -13 3.5 -24.5t21.5 -11.5v-8h-85zM169 355q-2 -5 0.5 -9.5t7.5 -5.5q32 -7 52.5 -32.5t20.5 -58.5q0 -36 24 -60t60 -24q34 0 58.5 23t26.5 56q0 4 -2 10l-133 386q-2 6 -8 6t-7 -6zM230 713l-5 5l59 59l59 -59l-6 -5l-53 53z" />
    <glyph glyph-name="Atilde" unicode="&#xc3;" horiz-adv-x="569" 
d="M0 0v8q17 0 31.5 10t20.5 27l178 508q4 12 -3 22.5t-20 10.5l30 84h99v-8h-13l219 -635q7 -19 27 -19v-8h-85v8q7 0 10.5 5.5t1.5 11.5l-62 180q-2 7 -8.5 7t-9.5 -6q-15 -27 -42.5 -40t-59.5 -6q-31 7 -50.5 32.5t-20.5 59.5q-1 31 -21.5 53.5t-50.5 27.5q-10 2 -13 -8
l-98 -281q-4 -13 3.5 -24.5t21.5 -11.5v-8h-85zM169 355q-2 -5 0.5 -9.5t7.5 -5.5q32 -7 52.5 -32.5t20.5 -58.5q0 -36 24 -60t60 -24q34 0 58.5 23t26.5 56q0 4 -2 10l-133 386q-2 6 -8 6t-7 -6zM237 728q11 11 25 11q15 0 24 -11q8 -7 20 -7t19 7l6 -5q-10 -10 -25 -10
t-25 10q-7 8 -19 8t-20 -8z" />
    <glyph glyph-name="Adieresis" unicode="&#xc4;" horiz-adv-x="569" 
d="M0 0v8q17 0 31.5 10t20.5 27l177 507q4 11 -3 21.5t-19 10.5l1 2h-1l30 84h99v-8h-1v-1h-12l219 -634q7 -19 27 -19v-8h-87v8q7 0 11 5.5t2 11.5l-62 180q-3 8 -11 6q-4 0 -6 -5q-14 -25 -38 -37q-28 -17 -64 -10q-32 7 -51.5 33t-20.5 59q-1 31 -21.5 53.5t-50.5 27.5
q-9 2 -12 -7l-98 -282q-1 -2 -1 -7q-1 -11 7 -19.5t19 -8.5v-8h-85zM169 355q-2 -5 0.5 -9.5t7.5 -5.5q32 -7 52.5 -32.5t20.5 -58.5q0 -36 24.5 -59.5t60.5 -23.5q33 0 56.5 22t26.5 55q0 4 -2 10l-133 386q-1 4 -6 5t-8 -3v-1zM198 716l29 29l29 -29l-29 -29zM341 687
l-29 29l29 29l28 -29z" />
    <glyph glyph-name="Aring" unicode="&#xc5;" horiz-adv-x="569" 
d="M0 0v8q17 0 31.5 10t20.5 27l177 506q4 12 -3 22.5t-20 10.5l31 86h99v-8h-1v-2h-11l218 -633q7 -19 27 -19v-8h-87v8q7 0 11 5.5t2 11.5l-62 180q-3 8 -11 6q-4 0 -6 -5q-14 -26 -41 -39q-30 -15 -62 -8q-31 7 -50.5 32.5t-20.5 59.5q-1 31 -21.5 53.5t-50.5 27.5
q-9 2 -12 -8l-98 -281q-1 -2 -1 -7q-1 -11 7 -19.5t19 -8.5v-8h-85zM169 355q-2 -5 0.5 -9.5t7.5 -5.5q32 -7 52.5 -32.5t20.5 -58.5q0 -36 24.5 -60t59.5 -24q33 0 58 22.5t26 55.5q0 4 -2 10l-133 385q-1 5 -6 6t-8 -3v-1zM242 723q0 17 12.5 29.5t29.5 12.5t29 -12.5
t12 -29.5t-12 -29.5t-29 -12.5t-29.5 12.5t-12.5 29.5zM250 723q0 -14 10 -24t24 -10t24 10t10 24t-10 24t-24 10t-24 -10t-10 -24z" />
    <glyph glyph-name="Ccedilla" unicode="&#xc7;" horiz-adv-x="764" 
d="M29 301q-7 80 20.5 153.5t82.5 128.5q101 102 246 104h8v-61h-8q0 13 -8.5 22t-21.5 10h-11q-119 0 -199 -80q-2 -1 -6 -5q0 -1 -2 -2.5t-2 -2.5q-79 -87 -70 -212q9 -134 110.5 -236t235.5 -111q131 -8 218 75l9 9q83 88 76 208l-1 3q-1 12 -10 20.5t-22 8.5v8h62v-8
q0 -142 -98.5 -244.5t-239.5 -108.5v-44q0 -33 -23.5 -57t-57.5 -24q-33 0 -56 -23t-23 -56t23 -56t56 -23h136q30 0 51.5 21.5t21.5 51.5h8q0 -34 -24 -57.5t-57 -23.5h-136q-36 0 -61.5 25.5t-25.5 61.5t25.5 61.5t61.5 25.5q31 0 52 21.5t21 51.5v43q-27 0 -40 2
q-127 11 -218.5 102t-102.5 218z" />
    <glyph glyph-name="Egrave" unicode="&#xc8;" horiz-adv-x="379" 
d="M371 0h-354v8q12 0 20.5 8.5t8.5 20.5v596q0 13 -9 21q-8 8 -20 8v8h354v-35h-8q0 11 -8 19t-19 8h-216q-13 0 -21 -8.5t-8 -20.5v-298q0 -16 11 -27.5t27 -11.5h105q16 0 27.5 11.5t11.5 27.5h8v-85h-8q0 16 -11.5 27.5t-27.5 11.5h-105q-16 0 -27 -11.5t-11 -27.5v-213
q0 -12 8 -20.5t21 -8.5h216q11 0 19 8t8 19v1h8v-36zM210 713l-54 54l5 6l54 -54z" />
    <glyph glyph-name="Eacute" unicode="&#xc9;" horiz-adv-x="379" 
d="M371 0h-354v8q12 0 20.5 8.5t8.5 20.5v596q0 13 -9 21q-8 8 -20 8v8h354v-35h-8q0 11 -8 19t-19 8h-216q-13 0 -21 -8.5t-8 -20.5v-298q0 -16 11 -27.5t27 -11.5h105q16 0 27.5 11.5t11.5 27.5h8v-85h-8q0 16 -11.5 27.5t-27.5 11.5h-105q-16 0 -27 -11.5t-11 -27.5v-213
q0 -12 8 -20.5t21 -8.5h216q11 0 19 8t8 19v1h8v-36zM218 773l6 -5l-54 -55l-6 6z" />
    <glyph glyph-name="Ecircumflex" unicode="&#xca;" horiz-adv-x="379" 
d="M371 0h-354v8q12 0 20.5 8.5t8.5 20.5v596q0 13 -9 21q-8 8 -20 8v8h354v-35h-8q0 11 -8 19t-19 8h-216q-13 0 -21 -8.5t-8 -20.5v-298q0 -16 11 -27.5t27 -11.5h105q16 0 27.5 11.5t11.5 27.5h8v-85h-8q0 16 -11.5 27.5t-27.5 11.5h-105q-16 0 -27 -11.5t-11 -27.5v-213
q0 -12 8 -20.5t21 -8.5h216q11 0 19 8t8 19v1h8v-36zM140 713l-5 5l59 59l59 -59l-6 -5l-53 53z" />
    <glyph glyph-name="Edieresis" unicode="&#xcb;" horiz-adv-x="378" 
d="M370 0h-353v8q12 0 20.5 8.5t8.5 20.5v595q0 12 -8.5 20.5t-20.5 8.5v8h353v-35h-7q0 11 -8.5 19t-19.5 8h-216q-12 0 -20.5 -8.5t-8.5 -20.5v-298q0 -16 11.5 -27t27.5 -11h105q16 0 27 11t11 27h8v-85h-8q0 16 -11 27.5t-27 11.5h-105q-16 0 -27.5 -11.5t-11.5 -27.5
v-212q0 -12 8.5 -20.5t20.5 -8.5h216q11 0 19.5 8t8.5 19v1h7v-36zM222 717l29 29l29 -29l-29 -29zM137 688l-29 29l29 29l29 -29z" />
    <glyph glyph-name="Igrave" unicode="&#xcc;" horiz-adv-x="126" 
d="M8 662v8h101v-8q-27 -2 -27 -29v-598q0 -12 7.5 -19.5t19.5 -7.5v-8h-101v8q12 0 20.5 8.5t8.5 20.5v596q0 13 -9 21q-8 8 -20 8zM62 713l-54 54l5 6l54 -54z" />
    <glyph glyph-name="Iacute" unicode="&#xcd;" horiz-adv-x="126" 
d="M8 662v8h101v-8q-27 -2 -27 -29v-598q0 -12 7.5 -19.5t19.5 -7.5v-8h-101v8q12 0 20.5 8.5t8.5 20.5v596q0 13 -9 21q-8 8 -20 8zM108 773l6 -5l-54 -55l-6 6z" />
    <glyph glyph-name="Icircumflex" unicode="&#xce;" horiz-adv-x="144" 
d="M117 0h-101v8q12 0 20.5 8.5t8.5 20.5v596q0 12 -8.5 20.5t-20.5 8.5v7h101v-8q-11 -1 -19 -9t-8 -19v-598q0 -13 8 -19q8 -8 19 -8v-8zM7 692l65 60l54 -60l-5 -5l-50 54l-59 -54z" />
    <glyph glyph-name="Idieresis" unicode="&#xcf;" horiz-adv-x="159" 
d="M25 662v7h100v-8q-11 -1 -19 -9t-8 -19v-598q0 -13 8 -19q8 -8 19 -8v-8h-100v8q12 0 20.5 8.5t8.5 20.5v596q0 11 -9 20t-20 9zM84 717l29 29l29 -29l-29 -29zM8 717l29 29l29 -29l-29 -29z" />
    <glyph glyph-name="Ntilde" unicode="&#xd1;" horiz-adv-x="388" 
d="M118 0h-101v8q19 0 33 13.5t14 32.5v562q0 20 -14 33.5t-33 13.5v7h93l3 -7l192 -604q1 -4 6 -3.5t5 5.5v555q0 19 -13.5 33t-32.5 14v7h101v-7q-19 0 -33 -13.5t-14 -33.5v-562q0 -19 14 -32.5t33 -13.5v-8h-94l-194 611q-1 5 -6.5 4t-5.5 -6v-555q0 -19 14 -32.5
t33 -13.5v-8zM146 704q11 11 26 11q14 0 25 -11q7 -7 19 -7q13 0 20 7l5 -5q-11 -11 -25 -11t-25 11q-7 8 -19 8t-20 -8z" />
    <glyph glyph-name="Ograve" unicode="&#xd2;" 
d="M131 85q-104 103 -104 249t104 250t250 104q145 0 249 -104q68 -68 92 -158.5t0 -181.5t-92 -159q-104 -104 -249 -104q-146 0 -250 104zM137 578q-88 -89 -79 -222t110 -234q111 -111 257 -111q120 0 199 80q88 88 79 221.5t-110 234.5q-111 111 -256 111
q-120 0 -200 -80zM401 730l-54 54l5 6l54 -54z" />
    <glyph glyph-name="Oacute" unicode="&#xd3;" 
d="M131 85q-104 103 -104 249t104 250t250 104q145 0 249 -104q68 -68 92 -158.5t0 -181.5t-92 -159q-104 -104 -249 -104q-146 0 -250 104zM137 578q-88 -89 -79 -222t110 -234q111 -111 257 -111q120 0 199 80q88 88 79 221.5t-110 234.5q-111 111 -256 111
q-120 0 -200 -80zM409 790l6 -5l-54 -55l-6 6z" />
    <glyph glyph-name="Ocircumflex" unicode="&#xd4;" 
d="M131 85q-104 103 -104 249t104 250t250 104q145 0 249 -104q68 -68 92 -158.5t0 -181.5t-92 -159q-104 -104 -249 -104q-146 0 -250 104zM137 578q-88 -89 -79 -222t110 -234q111 -111 257 -111q120 0 199 80q88 88 79 221.5t-110 234.5q-111 111 -256 111
q-120 0 -200 -80zM326 730l-5 5l59 59l59 -59l-6 -5l-53 53z" />
    <glyph glyph-name="Otilde" unicode="&#xd5;" 
d="M131 85q-104 103 -104 249t104 250t250 104q145 0 249 -104q68 -68 92 -158.5t0 -181.5t-92 -159q-104 -104 -249 -104q-146 0 -250 104zM137 578q-88 -89 -79 -222t110 -234q111 -111 257 -111q120 0 199 80q88 88 79 221.5t-110 234.5q-111 111 -256 111
q-120 0 -200 -80zM333 745q11 11 25 11q15 0 24 -11q8 -7 20 -7t19 7l6 -5q-10 -10 -25 -10t-25 10q-7 8 -19 8t-20 -8z" />
    <glyph glyph-name="Odieresis" unicode="&#xd6;" horiz-adv-x="757" 
d="M130 86q-103 103 -103 248.5t103 248.5q103 102 249 102t248 -102q103 -103 102.5 -248.5t-102.5 -248.5q-103 -103 -248 -103q-144 0 -249 103zM135 577q-88 -88 -79 -221t110 -234q110 -110 256 -110q120 0 199 79q88 88 79 221t-110 234q-110 110 -256 110
q-120 0 -199 -79zM407 740l30 30l30 -30l-30 -30zM289 740l30 30l30 -30l-30 -30z" />
    <glyph glyph-name="multiply" unicode="&#xd7;" horiz-adv-x="246" 
d="M20 192l-5 5l103 103l-103 104l5 4l103 -103l104 103l4 -4l-103 -104l103 -103l-4 -5l-104 103z" />
    <glyph glyph-name="Ugrave" unicode="&#xd9;" horiz-adv-x="524" 
d="M15 670h99v-7q-11 -1 -18.5 -9.5t-7.5 -19.5v-473q0 -67 45.5 -117t112.5 -53h10q85 0 145 60.5t60 145.5v414q0 22 -15 37t-37 15v7h100v-7q-17 0 -29 -12t-12 -29v-425q0 -89 -62 -151.5t-150 -62.5t-150 63t-62 151v437q0 11 -9 20q-7 9 -20 9v7zM282 713l-54 54l5 6
l54 -54z" />
    <glyph glyph-name="Uacute" unicode="&#xda;" horiz-adv-x="524" 
d="M15 670h99v-7q-11 -1 -18.5 -9.5t-7.5 -19.5v-473q0 -67 45.5 -117t112.5 -53h10q85 0 145 60.5t60 145.5v414q0 22 -15 37t-37 15v7h100v-7q-17 0 -29 -12t-12 -29v-425q0 -89 -62 -151.5t-150 -62.5t-150 63t-62 151v437q0 11 -9 20q-7 9 -20 9v7zM290 773l6 -5
l-54 -55l-6 6z" />
    <glyph glyph-name="Ucircumflex" unicode="&#xdb;" horiz-adv-x="524" 
d="M15 662v8h99v-8q-11 -1 -18.5 -9t-7.5 -19v-473q0 -67 45.5 -117t111.5 -53h11q85 0 144.5 60t59.5 146v414q0 21 -15 36t-36 15v8h100v-8q-17 0 -29 -11.5t-12 -28.5v-425q0 -89 -62 -151.5t-150 -62.5t-150 63t-62 151v437q0 11 -9 19.5t-20 8.5zM208 684l-5 5l59 59
l59 -59l-6 -5l-53 53z" />
    <glyph glyph-name="Udieresis" unicode="&#xdc;" horiz-adv-x="524" 
d="M15 662v8h99v-8q-11 -1 -18.5 -9t-7.5 -19v-473q0 -67 45.5 -117t111.5 -53h11q85 0 144.5 60t59.5 146v414q0 21 -15 36t-36 15v8h100v-8q-17 0 -29 -11.5t-12 -28.5v-425q0 -89 -62 -151.5t-150 -62.5t-150 63t-62 151v437q0 11 -9 19.5t-20 8.5zM318 685l-29 29l29 29
l29 -29zM205 685l-28 29l28 29l29 -29z" />
    <glyph glyph-name="Yacute" unicode="&#xdd;" horiz-adv-x="351" 
d="M17 657q-8 5 -17 5v8h85v-8q-7 0 -10.5 -5t-1.5 -12l31 -92l72 -207q2 -6 8.5 -6t7.5 5l99 282q1 3 1 8q0 11 -7.5 19t-18.5 8v8h85v-8q-41 0 -52 -37l-111 -315q-4 -11 -4 -25v-250q0 -13 8 -19q8 -8 19 -8v-8h-101v8q12 0 20.5 8.5t8.5 20.5v267q0 13 -4 24l-108 315
q-3 9 -10 14zM213 773l6 -5l-54 -55l-6 6z" />
    <glyph glyph-name="germandbls" unicode="&#xdf;" horiz-adv-x="510" 
d="M17 669h193q78 0 135.5 -54.5t59.5 -132.5q2 -93 -68 -151q-15 -11 -2 -24l109 -108q55 -55 58 -131q3 -83 -56 -142q-56 -56 -135 -56t-135 56l-27 27l5 6l28 -28q38 -38 86 -36q79 1 143.5 65.5t65.5 143.5q2 49 -36 87l-114 114q-20 27 -2 55q31 52 31 118
q0 71 -37 127t-104 56h-97q-12 -1 -19.5 -9.5t-7.5 -19.5v-599q0 -11 8 -19q6 -8 19 -8v-8h-101v8q12 0 20.5 8.5t8.5 20.5v597q0 12 -8.5 20.5t-20.5 8.5v8z" />
    <glyph glyph-name="agrave" unicode="&#xe0;" horiz-adv-x="344" 
d="M52 22q-41 48 -27 106q11 55 60 81q84 47 147 105q12 12 2 25q-24 32 -53 32q-48 0 -81.5 -34t-33.5 -81h-8q0 50 36 86t87 36q51 -2 85 -34q36 -36 36 -107v-202q0 -11 8 -19q10 -8 19 -8v-7h-71v27q0 5 -5.5 6.5t-8.5 -2.5q-32 -45 -86 -51q-63 -8 -106 41zM63 183
q-23 -21 -15 -61q8 -45 48 -81.5t85 -36.5q25 0 42 15l1 1q28 26 34 66v182q0 20 -4 34q-2 6 -7.5 7.5t-10.5 -2.5q-63 -59 -147 -104q-15 -9 -26 -20zM196 420l-54 54l5 6l54 -54z" />
    <glyph glyph-name="aacute" unicode="&#xe1;" horiz-adv-x="344" 
d="M52 22q-41 48 -27 106q11 55 60 81q84 47 147 105q12 12 2 25q-24 32 -53 32q-48 0 -81.5 -34t-33.5 -81h-8q0 50 36 86t87 36q51 -2 85 -34q36 -36 36 -107v-202q0 -11 8 -19q10 -8 19 -8v-7h-71v27q0 5 -5.5 6.5t-8.5 -2.5q-32 -45 -86 -51q-63 -8 -106 41zM63 183
q-23 -21 -15 -61q8 -45 48 -81.5t85 -36.5q25 0 42 15l1 1q28 26 34 66v182q0 20 -4 34q-2 6 -7.5 7.5t-10.5 -2.5q-63 -59 -147 -104q-15 -9 -26 -20zM214 480l6 -5l-54 -55l-6 6z" />
    <glyph glyph-name="acircumflex" unicode="&#xe2;" horiz-adv-x="344" 
d="M52 22q-41 48 -27 106q11 55 60 81q84 47 147 105q12 12 2 25q-24 32 -53 32q-48 0 -81.5 -34t-33.5 -81h-8q0 50 36 86t87 36q51 -2 85 -34q36 -36 36 -107v-202q0 -11 8 -19q10 -8 19 -8v-7h-71v27q0 5 -5.5 6.5t-8.5 -2.5q-32 -45 -86 -51q-63 -8 -106 41zM63 183
q-23 -21 -15 -61q8 -45 48 -81.5t85 -36.5q25 0 42 15l1 1q28 26 34 66v182q0 20 -4 34q-2 6 -7.5 7.5t-10.5 -2.5q-63 -59 -147 -104q-15 -9 -26 -20zM117 420l-5 5l59 59l59 -59l-6 -5l-53 53z" />
    <glyph glyph-name="atilde" unicode="&#xe3;" horiz-adv-x="344" 
d="M52 22q-41 48 -27 106q11 55 60 81q84 47 147 105q12 12 2 25q-24 32 -53 32q-48 0 -81.5 -34t-33.5 -81h-8q0 50 36 86t87 36q51 -2 85 -34q36 -36 36 -107v-202q0 -11 8 -19q10 -8 19 -8v-7h-71v27q0 5 -5.5 6.5t-8.5 -2.5q-32 -45 -86 -51q-63 -8 -106 41zM63 183
q-23 -21 -15 -61q8 -45 48 -81.5t85 -36.5q25 0 42 15l1 1q28 26 34 66v182q0 20 -4 34q-2 6 -7.5 7.5t-10.5 -2.5q-63 -59 -147 -104q-15 -9 -26 -20zM128 435q11 11 25 11q15 0 24 -11q8 -7 20 -7t19 7l6 -5q-10 -10 -25 -10t-25 10q-7 8 -19 8t-20 -8z" />
    <glyph glyph-name="adieresis" unicode="&#xe4;" horiz-adv-x="344" 
d="M52 22q-41 48 -27 106q11 55 60 81q84 47 147 105q12 12 2 25q-24 32 -53 32q-48 0 -81.5 -34t-33.5 -81h-8q0 50 36 86t87 36q51 -2 85 -34q36 -36 36 -107v-202q0 -11 8 -19q10 -8 19 -8v-7h-71v27q0 5 -5.5 6.5t-8.5 -2.5q-32 -45 -86 -51q-63 -8 -106 41zM63 183
q-23 -21 -15 -61q8 -45 48 -81.5t85 -36.5q25 0 42 15l1 1q28 26 34 66v182q0 20 -4 34q-2 6 -7.5 7.5t-10.5 -2.5q-63 -59 -147 -104q-15 -9 -26 -20zM232 468l-29 29l29 29l29 -29zM90 497l29 29l29 -29l-29 -29z" />
    <glyph glyph-name="aring" unicode="&#xe5;" horiz-adv-x="344" 
d="M52 22q-41 48 -27 106q11 55 60 81q84 47 147 105q12 12 2 25q-24 32 -53 32q-48 0 -81.5 -34t-33.5 -81h-8q0 50 36 86t87 36q51 -2 85 -34q36 -36 36 -107v-202q0 -11 8 -19q10 -8 19 -8v-7h-71v27q0 5 -5.5 6.5t-8.5 -2.5q-32 -45 -86 -51q-63 -8 -106 41zM63 183
q-23 -21 -15 -61q8 -45 48 -81.5t85 -36.5q25 0 42 15l1 1q28 26 34 66v182q0 20 -4 34q-2 6 -7.5 7.5t-10.5 -2.5q-63 -59 -147 -104q-15 -9 -26 -20zM176 448q-17 0 -29.5 12t-12.5 29t12.5 29.5t29.5 12.5t29 -12.5t12 -29.5t-12 -29t-29 -12zM142 489q0 -14 10 -24
t24 -10t24 10t10 24t-10 24t-24 10t-24 -10t-10 -24z" />
    <glyph glyph-name="ccedilla" unicode="&#xe7;" horiz-adv-x="440" 
d="M25 175q-2 81 56 140q57 58 139 60h2v-29q-6 1 -20 3h-16q-61 0 -100 -39q-44 -46 -35.5 -117t64.5 -126q64 -62 143 -62q61 0 100 40q45 45 36 116q0 6 -2 16h28q0 -79 -56 -137v-1h-1q-53 -54 -131 -59v-17q0 -17 -12 -29.5t-29 -12.5q-16 0 -26.5 -10.5t-10.5 -25.5
q0 -16 10.5 -26.5t26.5 -10.5h66q14 0 24 10t10 24h8q0 -17 -12.5 -29.5t-29.5 -12.5h-66q-19 0 -32 13t-13 32q0 18 13 31t32 13q14 0 24 10t10 24v17h-3q-81 0 -138 57t-59 138z" />
    <glyph glyph-name="egrave" unicode="&#xe8;" horiz-adv-x="438" 
d="M25 177q-2 81 56 139q57 58 138 60h7q0 -148 -94 -305q-6 -11 4 -20q58 -44 122 -44q60 0 99 40q48 48 34 132h28q0 -82 -56.5 -138.5t-138.5 -58.5h-2q-71 0 -123 43l-3 3q-33 25 -51.5 65.5t-19.5 83.5zM86 311q-47 -49 -34 -127q18 -70 57 -109q10 -10 18 2
q77 133 90 260q0 9 -10 13q-4 1 -8 1h-13q-60 0 -100 -40zM227 420l-54 54l5 6l54 -54z" />
    <glyph glyph-name="eacute" unicode="&#xe9;" horiz-adv-x="438" 
d="M25 177q-2 81 56 139q57 58 138 60h7q0 -148 -94 -305q-6 -11 4 -20q58 -44 122 -44q60 0 99 40q48 48 34 132h28q0 -82 -56.5 -138.5t-138.5 -58.5h-2q-71 0 -123 43l-3 3q-33 25 -51.5 65.5t-19.5 83.5zM86 311q-47 -49 -34 -127q18 -70 57 -109q10 -10 18 2
q77 133 90 260q0 9 -10 13q-4 1 -8 1h-13q-60 0 -100 -40zM250 480l6 -5l-54 -55l-6 6z" />
    <glyph glyph-name="ecircumflex" unicode="&#xea;" horiz-adv-x="438" 
d="M25 177q-2 81 56 139q57 58 138 60h7q0 -148 -94 -305q-6 -11 4 -20q58 -44 122 -44q60 0 99 40q48 48 34 132h28q0 -82 -56.5 -138.5t-138.5 -58.5h-2q-71 0 -123 43l-3 3q-33 25 -51.5 65.5t-19.5 83.5zM86 311q-47 -49 -34 -127q18 -70 57 -109q10 -10 18 2
q77 133 90 260q0 9 -10 13q-4 1 -8 1h-13q-60 0 -100 -40zM160 425l59 58l58 -58l-5 -5l-53 53l-53 -53z" />
    <glyph glyph-name="edieresis" unicode="&#xeb;" horiz-adv-x="438" 
d="M25 177q-2 81 56 139q57 58 138 60h7q0 -148 -94 -305q-6 -11 4 -20q58 -44 122 -44q60 0 99 40q48 48 34 132h28q0 -82 -56.5 -138.5t-138.5 -58.5h-2q-71 0 -123 43l-3 3q-33 25 -51.5 65.5t-19.5 83.5zM86 311q-47 -49 -34 -127q18 -70 57 -109q10 -10 18 2
q77 133 90 260q0 9 -10 13q-4 1 -8 1h-13q-60 0 -100 -40zM277 443l-28 29l28 28l29 -28zM166 443l-29 29l29 28l28 -28z" />
    <glyph glyph-name="igrave" unicode="&#xec;" horiz-adv-x="128" 
d="M17 377h101v-8q-12 -1 -19.5 -9.5t-7.5 -19.5v-305q0 -12 7.5 -19.5t19.5 -7.5v-8h-101v8q12 0 20.5 8.5t8.5 20.5v303q0 12 -8.5 20.5t-20.5 8.5v8zM71 420l-54 54l5 6l54 -54z" />
    <glyph glyph-name="iacute" unicode="&#xed;" horiz-adv-x="128" 
d="M17 377h101v-8q-12 -1 -19.5 -9.5t-7.5 -19.5v-305q0 -12 7.5 -19.5t19.5 -7.5v-8h-101v8q12 0 20.5 8.5t8.5 20.5v303q0 12 -8.5 20.5t-20.5 8.5v8zM114 480l6 -5l-54 -55l-6 6z" />
    <glyph glyph-name="icircumflex" unicode="&#xee;" horiz-adv-x="146" 
d="M26 367v8h100v-8q-11 -1 -19 -9t-8 -20v-303q0 -13 8 -19q8 -8 19 -8v-8h-100v8q12 0 20.5 8.5t8.5 20.5v301q0 11 -8 21q-10 8 -21 8zM22 454l-5 5l59 60l60 -60l-6 -5l-54 54z" />
    <glyph glyph-name="idieresis" unicode="&#xef;" horiz-adv-x="160" 
d="M33 0v8q12 0 20.5 8.5t8.5 20.5v301q0 11 -8 21q-8 8 -21 8v8h101v-8q-27 -2 -27 -29v-303q0 -13 8 -19q6 -8 19 -8v-8h-101zM121 454l-29 29l29 29l29 -29zM46 454l-29 29l29 29l29 -29z" />
    <glyph glyph-name="ntilde" unicode="&#xf1;" horiz-adv-x="329" 
d="M15 0v9q11 0 20 9t9 19v303q0 11 -9 20t-20 9v8h73v-1q0 -9 8 -13.5t16 -0.5q28 15 56 15q50 0 86.5 -35t37.5 -86v-3l-2 -216q0 -11 9 -20t20 -9v-8h-29l-73 1v8q12 0 20.5 8t8.5 20v18l1 214v38q0 31 -23.5 46.5t-55.5 15.5q-31 0 -54 -15.5t-24 -45.5v-35l-1 -236
q0 -12 8.5 -20.5t20.5 -8.5v-8h-103zM125 466l-5 5q11 11 25 11t25 -11q7 -7 19 -7q13 0 20 7l5 -5q-11 -11 -25 -11t-25 11q-7 8 -19 8t-20 -8z" />
    <glyph glyph-name="ograve" unicode="&#xf2;" horiz-adv-x="444" 
d="M84 38q-57 55 -59 135.5t51 138.5l10 10q57 54 136 54q82 0 139.5 -57.5t57.5 -139.5q0 -76 -51 -133l-10 -10q-57 -54 -136 -54t-138 56zM82 307q-40 -44 -32 -112q10 -76 71 -132t137 -56q57 0 95 35l9 9q40 44 32 112q-8 75 -70.5 131.5t-137.5 56.5q-57 0 -95 -35z
M242 420l-54 54l5 6l54 -54z" />
    <glyph glyph-name="oacute" unicode="&#xf3;" horiz-adv-x="444" 
d="M84 38q-57 55 -59 135.5t51 138.5l10 10q57 54 136 54q82 0 139.5 -57.5t57.5 -139.5q0 -76 -51 -133l-10 -10q-57 -54 -136 -54t-138 56zM82 307q-40 -44 -32 -112q10 -76 71 -132t137 -56q57 0 95 35l9 9q40 44 32 112q-8 75 -70.5 131.5t-137.5 56.5q-57 0 -95 -35z
M250 480l6 -5l-54 -55l-6 6z" />
    <glyph glyph-name="ocircumflex" unicode="&#xf4;" horiz-adv-x="444" 
d="M84 38q-57 55 -59 135.5t51 138.5l10 10q57 54 136 54q82 0 139.5 -57.5t57.5 -139.5q0 -76 -51 -133l-10 -10q-57 -54 -136 -54t-138 56zM82 307q-40 -44 -32 -112q10 -76 71 -132t137 -56q57 0 95 35l9 9q40 44 32 112q-8 75 -70.5 131.5t-137.5 56.5q-57 0 -95 -35z
M168 420l-5 5l59 59l59 -59l-6 -5l-53 53z" />
    <glyph glyph-name="otilde" unicode="&#xf5;" horiz-adv-x="444" 
d="M84 38q-57 55 -59 135.5t51 138.5l10 10q57 54 136 54q82 0 139.5 -57.5t57.5 -139.5q0 -76 -51 -133l-10 -10q-57 -54 -136 -54t-138 56zM82 307q-40 -44 -32 -112q10 -76 71 -132t137 -56q57 0 95 35l9 9q40 44 32 112q-8 75 -70.5 131.5t-137.5 56.5q-57 0 -95 -35z
M175 435q11 11 25 11q15 0 24 -11q8 -7 20 -7t19 7l6 -5q-10 -10 -25 -10t-25 10q-7 8 -19 8t-20 -8z" />
    <glyph glyph-name="odieresis" unicode="&#xf6;" horiz-adv-x="444" 
d="M84 38q-57 55 -59 135.5t51 138.5l10 10q57 54 136 54q82 0 139.5 -57.5t57.5 -139.5q0 -76 -51 -133l-10 -10q-57 -54 -136 -54t-138 56zM82 307q-40 -44 -32 -112q10 -76 71 -132t137 -56q57 0 95 35l9 9q40 44 32 112q-8 75 -70.5 131.5t-137.5 56.5q-57 0 -95 -35z
M278 445l-29 29l29 28l28 -28zM138 474l28 28l28 -28l-28 -29z" />
    <glyph glyph-name="ugrave" unicode="&#xf9;" horiz-adv-x="329" 
d="M10 377h103v-8q-11 0 -20.5 -9t-9.5 -20v-17l-1 -232v-39q0 -31 23.5 -46t55.5 -15q21 0 43 8q35 15 35 53v35l1 44v209q0 12 -8 20q-8 9 -21 9v8h103v-8q-12 0 -20.5 -9t-8.5 -20v-303q0 -11 8 -21q10 -8 21 -8v-8h-74v12q-36 -29 -79 -29q-50 0 -86.5 35.5t-36.5 85.5
v2l1 234q0 12 -8.5 20.5t-20.5 8.5v8zM185 420l-54 54l5 6l54 -54z" />
    <glyph glyph-name="uacute" unicode="&#xfa;" horiz-adv-x="329" 
d="M10 377h103v-8q-11 0 -20.5 -9t-9.5 -20v-17l-1 -232v-39q0 -31 23.5 -46t55.5 -15q21 0 43 8q35 15 35 53v35l1 44v209q0 12 -8 20q-8 9 -21 9v8h103v-8q-12 0 -20.5 -9t-8.5 -20v-303q0 -11 8 -21q10 -8 21 -8v-8h-74v12q-36 -29 -79 -29q-50 0 -86.5 35.5t-36.5 85.5
v2l1 234q0 12 -8.5 20.5t-20.5 8.5v8zM193 480l6 -5l-54 -55l-6 6z" />
    <glyph glyph-name="ucircumflex" unicode="&#xfb;" horiz-adv-x="328" 
d="M10 376h29l73 -1v-7h-2v-1h-5q-1 0 -2.5 -0.5t-2.5 -1.5l-1 -1l-4 -2l-1 -1l-2 -2l-3 -3q-6 -9 -6 -17v-17l-1 -231v-39q0 -31 23 -46t55 -15q22 0 43 8h1q34 15 34 53v20l1 15v252q1 11 -8 20q-7 9 -20 9v8h102v-9h-2q-4 0 -6 -1q-1 0 -2 -0.5t-2 -0.5l-1 -1l-4 -2
l-2 -2q-1 -1 -2 -1q-4 -4 -6 -11q-1 -1 -1 -2v-1q-1 -2 -1 -6v-302q0 -12 8.5 -20.5t20.5 -8.5v-8h-73v12q-36 -29 -80 -29q-49 0 -85 35.5t-38 85.5v2h1l1 233q0 13 -9 20q-8 9 -20 9v8zM108 453l-6 6l60 59l59 -59l-6 -6l-53 54z" />
    <glyph glyph-name="udieresis" unicode="&#xfc;" horiz-adv-x="328" 
d="M10 368v8h29l73 -1v-7h-2v-1h-5q-1 0 -2.5 -0.5t-2.5 -1.5l-1 -1l-4 -2l-1 -1l-2 -2l-3 -3q-6 -9 -6 -17v-17l-1 -231v-39q0 -31 23 -46t55 -15q22 0 43 8h1q34 15 34 53v20l1 15v252q1 11 -8 20q-7 9 -20 9v8h102v-9h-2q-4 0 -6 -1q-1 0 -2 -0.5t-2 -0.5l-1 -1l-4 -2
l-2 -2q-1 -1 -2 -1q-4 -4 -6 -11q-1 -1 -1 -2v-1q-1 -2 -1 -6v-302q0 -12 8.5 -20.5t20.5 -8.5v-8h-73v12q-36 -29 -80 -29q-49 0 -85 35.5t-38 85.5v2h1l1 233q0 13 -9 20q-8 9 -20 9zM218 453l-29 29l29 29l29 -29zM76 482l29 29l29 -29l-29 -29z" />
    <glyph glyph-name="yacute" unicode="&#xfd;" horiz-adv-x="364" 
d="M-85 -230q-6 38 18 71q28 39 70 39h90q18 2 27 6q15 6 23 15q1 1 2.5 3l3 4t3.5 5q1 3 3 7t3 7l14 37q5 14 -3.5 26t-23.5 12l-2 8l-116 340q-7 19 -27 19v7h85v-7q-7 0 -11 -5.5t-2 -12.5l110 -319q2 -5 8 -5t7 5l106 301q2 6 2 9q0 11 -8 19t-19 8v7h85v-7
q-39 0 -52 -37l-122 -348l-20 -61q-11 -39 -37.5 -61t-66.5 -22l-56 1q-15 0 -30 -6q-40 -23 -40 -63q0 -30 21 -51q20 -23 53 -23q21 -1 128 -1q33 0 56 22t23 55h7q1 -16 -6 -33q-9 -23 -32 -37.5t-48 -14.5q-14 0 -40 0.5t-47.5 0.5t-40.5 -1q-18 0 -33 4q-58 22 -65 77z
M211 480l6 -5l-54 -55l-6 6z" />
    <glyph glyph-name="Abreve" unicode="&#x102;" horiz-adv-x="569" 
d="M0 0v8q17 0 31.5 10t20.5 27l178 508q4 12 -3 22.5t-20 10.5l30 84h99v-8h-13l219 -635q7 -19 27 -19v-8h-85v8q7 0 10.5 5.5t1.5 11.5l-62 180q-2 7 -8.5 7t-9.5 -6q-15 -27 -42.5 -40t-59.5 -6q-31 7 -50.5 32.5t-20.5 59.5q-1 31 -21.5 53.5t-50.5 27.5q-10 2 -13 -8
l-98 -281q-4 -13 3.5 -24.5t21.5 -11.5v-8h-85zM169 355q-2 -5 0.5 -9.5t7.5 -5.5q32 -7 52.5 -32.5t20.5 -58.5q0 -36 24 -60t60 -24q34 0 58.5 23t26.5 56q0 4 -2 10l-133 386q-2 6 -8 6t-7 -6zM336 760h8q-1 -5 -4 -13t-18 -21t-38 -13t-38 11.5t-18 23.5l-3 12h7
q13 -40 52 -40q42 0 52 40z" />
    <glyph glyph-name="abreve" unicode="&#x103;" horiz-adv-x="344" 
d="M52 22q-41 48 -27 106q11 55 60 81q84 47 147 105q12 12 2 25q-24 32 -53 32q-48 0 -81.5 -34t-33.5 -81h-8q0 50 36 86t87 36q51 -2 85 -34q36 -36 36 -107v-202q0 -11 8 -19q10 -8 19 -8v-7h-71v27q0 5 -5.5 6.5t-8.5 -2.5q-32 -45 -86 -51q-63 -8 -106 41zM63 183
q-23 -21 -15 -61q8 -45 48 -81.5t85 -36.5q25 0 42 15l1 1q28 26 34 66v182q0 20 -4 34q-2 6 -7.5 7.5t-10.5 -2.5q-63 -59 -147 -104q-15 -9 -26 -20zM223 467h8q-1 -5 -4 -13t-18 -21t-38 -13t-38 12t-18 24l-3 11h7q13 -40 52 -40q42 0 52 40z" />
    <glyph glyph-name="Dcroat" unicode="&#x110;" horiz-adv-x="755" 
d="M17 0v8q12 0 20.5 8.5t8.5 20.5v289h-128v7h128v300q0 12 -8.5 20.5t-20.5 8.5v8h390q133 -6 226.5 -104t93.5 -231t-93.5 -231t-226.5 -104h-390zM90 37q0 -12 8.5 -20.5t20.5 -8.5h282q114 4 195 100t81 227q0 132 -81.5 228t-196.5 99h-280q-12 0 -20.5 -8.5
t-8.5 -20.5v-300h127v-7h-127v-289z" />
    <glyph glyph-name="dcroat" unicode="&#x111;" horiz-adv-x="423" 
d="M465 460v-7h-84l3 -399v-17q0 -12 8.5 -20.5t20.5 -8.5v-8h-74v13q-49 -35 -112 -35h-3q-83 1 -141.5 60.5t-57.5 141.5q0 84 60 142q60 60 142 58q45 0 87 -20q8 -4 15.5 1t7.5 14l-1 78h-83v7h83v96q0 12 -8 20t-19 9v8l101 1v-8q-12 0 -20.5 -8.5t-8.5 -20.5v-97h84z
M70 180q-1 -80 44.5 -136.5t109.5 -57.5h1q61 0 106 50q8 10 8 21l-2 247q0 13 -8 21q-43 46 -102 48h-1q-65 -1 -110.5 -57.5t-45.5 -135.5z" />
    <glyph glyph-name="Itilde" unicode="&#x128;" horiz-adv-x="126" 
d="M8 662v8h101v-8q-27 -2 -27 -29v-598q0 -12 7.5 -19.5t19.5 -7.5v-8h-101v8q12 0 20.5 8.5t8.5 20.5v596q0 13 -9 21q-8 8 -20 8zM12 728q11 11 25 11q15 0 24 -11q8 -7 20 -7t19 7l6 -5q-10 -10 -25 -10t-25 10q-7 8 -19 8t-20 -8z" />
    <glyph glyph-name="itilde" unicode="&#x129;" horiz-adv-x="128" 
d="M17 377h101v-8q-12 -1 -19.5 -9.5t-7.5 -19.5v-305q0 -12 7.5 -19.5t19.5 -7.5v-8h-101v8q12 0 20.5 8.5t8.5 20.5v303q0 12 -8.5 20.5t-20.5 8.5v8zM22 435q11 11 25 11q15 0 24 -11q8 -7 20 -7t19 7l6 -5q-10 -10 -25 -10t-25 10q-7 8 -19 8t-20 -8z" />
    <glyph glyph-name="dotlessi" unicode="&#x131;" horiz-adv-x="128" 
d="M17 377h101v-8q-12 -1 -19.5 -9.5t-7.5 -19.5v-305q0 -12 7.5 -19.5t19.5 -7.5v-8h-101v8q12 0 20.5 8.5t8.5 20.5v303q0 12 -8.5 20.5t-20.5 8.5v8z" />
    <glyph glyph-name="Utilde" unicode="&#x168;" horiz-adv-x="524" 
d="M15 670h99v-7q-11 -1 -18.5 -9.5t-7.5 -19.5v-473q0 -67 45.5 -117t112.5 -53h10q85 0 145 60.5t60 145.5v414q0 22 -15 37t-37 15v7h100v-7q-17 0 -29 -12t-12 -29v-425q0 -89 -62 -151.5t-150 -62.5t-150 63t-62 151v437q0 11 -9 20q-7 9 -20 9v7zM215 728q11 11 25 11
q15 0 24 -11q8 -7 20 -7t19 7l6 -5q-10 -10 -25 -10t-25 10q-7 8 -19 8t-20 -8z" />
    <glyph glyph-name="utilde" unicode="&#x169;" horiz-adv-x="329" 
d="M10 377h103v-8q-11 0 -20.5 -9t-9.5 -20v-17l-1 -232v-39q0 -31 23.5 -46t55.5 -15q21 0 43 8q35 15 35 53v35l1 44v209q0 12 -8 20q-8 9 -21 9v8h103v-8q-12 0 -20.5 -9t-8.5 -20v-303q0 -11 8 -21q10 -8 21 -8v-8h-74v12q-36 -29 -79 -29q-50 0 -86.5 35.5t-36.5 85.5
v2l1 234q0 12 -8.5 20.5t-20.5 8.5v8zM118 435q11 11 25 11q15 0 24 -11q8 -7 20 -7t19 7l6 -5q-10 -10 -25 -10t-25 10q-7 8 -19 8t-20 -8z" />
    <glyph glyph-name="Ohorn" unicode="&#x1a0;" 
d="M630 584q68 -68 92 -158.5t0 -181.5t-92 -159q-104 -104 -249 -104q-146 0 -250 104q-104 103 -104 249t104 250t250 104q104 0 190 -57q22 3 35 19q17 23 0 55l27 15q-2 -39 -5 -49q-10 -38 -46 -47q27 -19 48 -40zM624 91q88 88 79 221.5t-110 234.5q-111 111 -256 111
q-120 0 -200 -80q-88 -89 -79 -222t110 -234q111 -111 257 -111q120 0 199 80z" />
    <glyph glyph-name="ohorn" unicode="&#x1a1;" horiz-adv-x="444" 
d="M340 336q79 -59 79 -157q0 -76 -51 -133l-10 -10q-57 -54 -136 -54t-138 56q-57 55 -59 135.5t51 138.5l10 10q57 54 136 54q59 0 109 -34q10 7 15 13q17 22 0 55l27 15q-2 -40 -5 -49q-8 -27 -28 -40zM362 51q40 44 32 112q-8 75 -70.5 131.5t-137.5 56.5q-57 0 -95 -35
l-9 -9q-40 -44 -32 -112q10 -76 71 -132t137 -56q57 0 95 35z" />
    <glyph glyph-name="Uhorn" unicode="&#x1af;" horiz-adv-x="524" 
d="M507 707l27 15q0 -29 -5 -49q-12 -45 -61 -49v-2v-425q0 -89 -62 -151.5t-150 -62.5t-150 63t-62 151v437q0 11 -9 20q-7 9 -20 9v7h99v-7q-11 -1 -18.5 -9.5t-7.5 -19.5v-473q0 -67 45.5 -117t112.5 -53h10q85 0 145 60.5t60 145.5v414q0 22 -15 37t-37 15v7h86v-7
q-21 0 -26 -30q24 1 38 19q18 23 0 55z" />
    <glyph glyph-name="uhorn" unicode="&#x1b0;" horiz-adv-x="329" 
d="M322 411l27 15q0 -29 -5 -49q-13 -45 -59 -49v-291q0 -11 8 -21q10 -8 21 -8v-8h-74v12q-36 -29 -79 -29q-50 0 -86.5 35.5t-36.5 85.5v2l1 234q0 12 -8.5 20.5t-20.5 8.5v8h103v-8q-11 0 -20.5 -9t-9.5 -20v-17l-1 -232v-39q0 -31 23.5 -46t55.5 -15q21 0 43 8
q35 15 35 53v35l1 44v209q0 12 -8 20q-8 9 -21 9v8h98v-8q-12 -1 -19 -11.5t-5 -17.5v-3q23 2 37 19q17 24 0 55z" />
    <glyph glyph-name="circumflex" unicode="&#x2c6;" horiz-adv-x="0" 
d="M121 420l-5 5l59 59l59 -59l-6 -5l-53 53z" />
    <glyph glyph-name="breve" unicode="&#x2d8;" horiz-adv-x="0" 
d="M192 467h8q-1 -5 -4 -13t-18 -21t-38 -13t-38 12t-18 24l-3 11h7q13 -40 52 -40q42 0 52 40z" />
    <glyph glyph-name="tilde" unicode="&#x2dc;" horiz-adv-x="221" 
d="M20 180l-5 6q20 20 49 20q30 0 49 -20q19 -18 44 -18q26 0 44 18l5 -6q-20 -20 -49 -20q-27 0 -49 20q-18 19 -44 19q-25 0 -44 -19z" />
    <glyph glyph-name="gravecomb" unicode="&#x300;" horiz-adv-x="101" 
d="M196 420l-54 54l5 6l54 -54z" />
    <glyph glyph-name="acutecomb" unicode="&#x301;" horiz-adv-x="101" 
d="M250 480l6 -5l-54 -55l-6 6z" />
    <glyph glyph-name="tildecomb" unicode="&#x303;" horiz-adv-x="221" 
d="M128 435q11 11 25 11q15 0 24 -11q8 -7 20 -7t19 7l6 -5q-10 -10 -25 -10t-25 10q-7 8 -19 8t-20 -8z" />
    <glyph glyph-name="hookabovecomb" unicode="&#x309;" horiz-adv-x="0" 
d="M52 463q3 19 22 19q12 1 20 -8q8 -8 6 -20q-2 -10 -12 -15q-8 -5 -8 -10v-9h-8v9q0 10 11 16q8 5 9 13q1 6 -3.5 11t-13.5 5q-12 0 -16 -14z" />
    <glyph glyph-name="dotbelowcomb" unicode="&#x323;" horiz-adv-x="0" 
d="M15 -77l28 29l29 -29l-29 -28z" />
    <glyph glyph-name="uni1EA0" unicode="&#x1ea0;" horiz-adv-x="569" 
d="M0 0v8q17 0 31.5 10t20.5 27l178 508q4 12 -3 22.5t-20 10.5l30 84h99v-8h-13l219 -635q7 -19 27 -19v-8h-85v8q7 0 10.5 5.5t1.5 11.5l-62 180q-2 7 -8.5 7t-9.5 -6q-15 -27 -42.5 -40t-59.5 -6q-31 7 -50.5 32.5t-20.5 59.5q-1 31 -21.5 53.5t-50.5 27.5q-10 2 -13 -8
l-98 -281q-4 -13 3.5 -24.5t21.5 -11.5v-8h-85zM169 355q-2 -5 0.5 -9.5t7.5 -5.5q32 -7 52.5 -32.5t20.5 -58.5q0 -36 24 -60t60 -24q34 0 58.5 23t26.5 56q0 4 -2 10l-133 386q-2 6 -8 6t-7 -6zM256 -58l28 29l29 -29l-29 -28z" />
    <glyph glyph-name="uni1EA1" unicode="&#x1ea1;" horiz-adv-x="344" 
d="M52 22q-41 48 -27 106q11 55 60 81q84 47 147 105q12 12 2 25q-24 32 -53 32q-48 0 -81.5 -34t-33.5 -81h-8q0 50 36 86t87 36q51 -2 85 -34q36 -36 36 -107v-202q0 -11 8 -19q10 -8 19 -8v-7h-71v27q0 5 -5.5 6.5t-8.5 -2.5q-32 -45 -86 -51q-63 -8 -106 41zM63 183
q-23 -21 -15 -61q8 -45 48 -81.5t85 -36.5q25 0 42 15l1 1q28 26 34 66v182q0 20 -4 34q-2 6 -7.5 7.5t-10.5 -2.5q-63 -59 -147 -104q-15 -9 -26 -20zM143 -77l28 29l29 -29l-29 -28z" />
    <glyph glyph-name="uni1EA2" unicode="&#x1ea2;" horiz-adv-x="569" 
d="M0 0v8q17 0 31.5 10t20.5 27l178 508q4 12 -3 22.5t-20 10.5l30 84h99v-8h-13l219 -635q7 -19 27 -19v-8h-85v8q7 0 10.5 5.5t1.5 11.5l-62 180q-2 7 -8.5 7t-9.5 -6q-15 -27 -42.5 -40t-59.5 -6q-31 7 -50.5 32.5t-20.5 59.5q-1 31 -21.5 53.5t-50.5 27.5q-10 2 -13 -8
l-98 -281q-4 -13 3.5 -24.5t21.5 -11.5v-8h-85zM169 355q-2 -5 0.5 -9.5t7.5 -5.5q32 -7 52.5 -32.5t20.5 -58.5q0 -36 24 -60t60 -24q34 0 58.5 23t26.5 56q0 4 -2 10l-133 386q-2 6 -8 6t-7 -6zM260 756q3 19 22 19q12 1 20 -8q8 -8 6 -20q-2 -10 -12 -15q-8 -5 -8 -10v-9
h-8v9q0 10 11 16q8 5 9 13q1 6 -3.5 11t-13.5 5q-12 0 -16 -14z" />
    <glyph glyph-name="uni1EA3" unicode="&#x1ea3;" horiz-adv-x="344" 
d="M52 22q-41 48 -27 106q11 55 60 81q84 47 147 105q12 12 2 25q-24 32 -53 32q-48 0 -81.5 -34t-33.5 -81h-8q0 50 36 86t87 36q51 -2 85 -34q36 -36 36 -107v-202q0 -11 8 -19q10 -8 19 -8v-7h-71v27q0 5 -5.5 6.5t-8.5 -2.5q-32 -45 -86 -51q-63 -8 -106 41zM63 183
q-23 -21 -15 -61q8 -45 48 -81.5t85 -36.5q25 0 42 15l1 1q28 26 34 66v182q0 20 -4 34q-2 6 -7.5 7.5t-10.5 -2.5q-63 -59 -147 -104q-15 -9 -26 -20zM147 463q3 19 22 19q12 1 20 -8q8 -8 6 -20q-2 -10 -12 -15q-8 -5 -8 -10v-9h-8v9q0 10 11 16q8 5 9 13q1 6 -3.5 11
t-13.5 5q-12 0 -16 -14z" />
    <glyph glyph-name="uni1EA4" unicode="&#x1ea4;" horiz-adv-x="569" 
d="M0 0v8q17 0 31.5 10t20.5 27l178 508q4 12 -3 22.5t-20 10.5l30 84h99v-8h-13l219 -635q7 -19 27 -19v-8h-85v8q7 0 10.5 5.5t1.5 11.5l-62 180q-2 7 -8.5 7t-9.5 -6q-15 -27 -42.5 -40t-59.5 -6q-31 7 -50.5 32.5t-20.5 59.5q-1 31 -21.5 53.5t-50.5 27.5q-10 2 -13 -8
l-98 -281q-4 -13 3.5 -24.5t21.5 -11.5v-8h-85zM169 355q-2 -5 0.5 -9.5t7.5 -5.5q32 -7 52.5 -32.5t20.5 -58.5q0 -36 24 -60t60 -24q34 0 58.5 23t26.5 56q0 4 -2 10l-133 386q-2 6 -8 6t-7 -6zM230 713l-5 5l59 59l59 -59l-6 -5l-53 53zM386 816l6 -5l-54 -55l-6 6z" />
    <glyph glyph-name="uni1EA5" unicode="&#x1ea5;" horiz-adv-x="344" 
d="M52 22q-41 48 -27 106q11 55 60 81q84 47 147 105q12 12 2 25q-24 32 -53 32q-48 0 -81.5 -34t-33.5 -81h-8q0 50 36 86t87 36q51 -2 85 -34q36 -36 36 -107v-202q0 -11 8 -19q10 -8 19 -8v-7h-71v27q0 5 -5.5 6.5t-8.5 -2.5q-32 -45 -86 -51q-63 -8 -106 41zM63 183
q-23 -21 -15 -61q8 -45 48 -81.5t85 -36.5q25 0 42 15l1 1q28 26 34 66v182q0 20 -4 34q-2 6 -7.5 7.5t-10.5 -2.5q-63 -59 -147 -104q-15 -9 -26 -20zM117 420l-5 5l59 59l59 -59l-6 -5l-53 53zM273 523l6 -5l-54 -55l-6 6z" />
    <glyph glyph-name="uni1EA6" unicode="&#x1ea6;" horiz-adv-x="569" 
d="M0 0v8q17 0 31.5 10t20.5 27l178 508q4 12 -3 22.5t-20 10.5l30 84h99v-8h-13l219 -635q7 -19 27 -19v-8h-85v8q7 0 10.5 5.5t1.5 11.5l-62 180q-2 7 -8.5 7t-9.5 -6q-15 -27 -42.5 -40t-59.5 -6q-31 7 -50.5 32.5t-20.5 59.5q-1 31 -21.5 53.5t-50.5 27.5q-10 2 -13 -8
l-98 -281q-4 -13 3.5 -24.5t21.5 -11.5v-8h-85zM169 355q-2 -5 0.5 -9.5t7.5 -5.5q32 -7 52.5 -32.5t20.5 -58.5q0 -36 24 -60t60 -24q34 0 58.5 23t26.5 56q0 4 -2 10l-133 386q-2 6 -8 6t-7 -6zM230 713l-5 5l59 59l59 -59l-6 -5l-53 53zM348 749l-54 54l5 6l54 -54z" />
    <glyph glyph-name="uni1EA7" unicode="&#x1ea7;" horiz-adv-x="344" 
d="M52 22q-41 48 -27 106q11 55 60 81q84 47 147 105q12 12 2 25q-24 32 -53 32q-48 0 -81.5 -34t-33.5 -81h-8q0 50 36 86t87 36q51 -2 85 -34q36 -36 36 -107v-202q0 -11 8 -19q10 -8 19 -8v-7h-71v27q0 5 -5.5 6.5t-8.5 -2.5q-32 -45 -86 -51q-63 -8 -106 41zM63 183
q-23 -21 -15 -61q8 -45 48 -81.5t85 -36.5q25 0 42 15l1 1q28 26 34 66v182q0 20 -4 34q-2 6 -7.5 7.5t-10.5 -2.5q-63 -59 -147 -104q-15 -9 -26 -20zM117 420l-5 5l59 59l59 -59l-6 -5l-53 53zM235 456l-54 54l5 6l54 -54z" />
    <glyph glyph-name="uni1EA8" unicode="&#x1ea8;" horiz-adv-x="569" 
d="M0 0v8q17 0 31.5 10t20.5 27l178 508q4 12 -3 22.5t-20 10.5l30 84h99v-8h-13l219 -635q7 -19 27 -19v-8h-85v8q7 0 10.5 5.5t1.5 11.5l-62 180q-2 7 -8.5 7t-9.5 -6q-15 -27 -42.5 -40t-59.5 -6q-31 7 -50.5 32.5t-20.5 59.5q-1 31 -21.5 53.5t-50.5 27.5q-10 2 -13 -8
l-98 -281q-4 -13 3.5 -24.5t21.5 -11.5v-8h-85zM169 355q-2 -5 0.5 -9.5t7.5 -5.5q32 -7 52.5 -32.5t20.5 -58.5q0 -36 24 -60t60 -24q34 0 58.5 23t26.5 56q0 4 -2 10l-133 386q-2 6 -8 6t-7 -6zM230 713l-5 5l59 59l59 -59l-6 -5l-53 53zM310 798q3 19 22 19q12 1 20 -8
q8 -8 6 -20q-2 -10 -12 -15q-8 -5 -8 -10v-9h-8v9q0 10 11 16q8 5 9 13q1 6 -3.5 11t-13.5 5q-12 0 -16 -14z" />
    <glyph glyph-name="uni1EA9" unicode="&#x1ea9;" horiz-adv-x="344" 
d="M52 22q-41 48 -27 106q11 55 60 81q84 47 147 105q12 12 2 25q-24 32 -53 32q-48 0 -81.5 -34t-33.5 -81h-8q0 50 36 86t87 36q51 -2 85 -34q36 -36 36 -107v-202q0 -11 8 -19q10 -8 19 -8v-7h-71v27q0 5 -5.5 6.5t-8.5 -2.5q-32 -45 -86 -51q-63 -8 -106 41zM63 183
q-23 -21 -15 -61q8 -45 48 -81.5t85 -36.5q25 0 42 15l1 1q28 26 34 66v182q0 20 -4 34q-2 6 -7.5 7.5t-10.5 -2.5q-63 -59 -147 -104q-15 -9 -26 -20zM117 420l-5 5l59 59l59 -59l-6 -5l-53 53zM197 505q3 19 22 19q12 1 20 -8q8 -8 6 -20q-2 -10 -12 -15q-8 -5 -8 -10v-9
h-8v9q0 10 11 16q8 5 9 13q1 6 -3.5 11t-13.5 5q-12 0 -16 -14z" />
    <glyph glyph-name="uni1EAA" unicode="&#x1eaa;" horiz-adv-x="569" 
d="M0 0v8q17 0 31.5 10t20.5 27l178 508q4 12 -3 22.5t-20 10.5l30 84h99v-8h-13l219 -635q7 -19 27 -19v-8h-85v8q7 0 10.5 5.5t1.5 11.5l-62 180q-2 7 -8.5 7t-9.5 -6q-15 -27 -42.5 -40t-59.5 -6q-31 7 -50.5 32.5t-20.5 59.5q-1 31 -21.5 53.5t-50.5 27.5q-10 2 -13 -8
l-98 -281q-4 -13 3.5 -24.5t21.5 -11.5v-8h-85zM169 355q-2 -5 0.5 -9.5t7.5 -5.5q32 -7 52.5 -32.5t20.5 -58.5q0 -36 24 -60t60 -24q34 0 58.5 23t26.5 56q0 4 -2 10l-133 386q-2 6 -8 6t-7 -6zM230 713l-5 5l59 59l59 -59l-6 -5l-53 53zM238 807q11 11 25 11q15 0 24 -11
q8 -7 20 -7t19 7l6 -5q-10 -10 -25 -10t-25 10q-7 8 -19 8t-20 -8z" />
    <glyph glyph-name="uni1EAB" unicode="&#x1eab;" horiz-adv-x="344" 
d="M52 22q-41 48 -27 106q11 55 60 81q84 47 147 105q12 12 2 25q-24 32 -53 32q-48 0 -81.5 -34t-33.5 -81h-8q0 50 36 86t87 36q51 -2 85 -34q36 -36 36 -107v-202q0 -11 8 -19q10 -8 19 -8v-7h-71v27q0 5 -5.5 6.5t-8.5 -2.5q-32 -45 -86 -51q-63 -8 -106 41zM63 183
q-23 -21 -15 -61q8 -45 48 -81.5t85 -36.5q25 0 42 15l1 1q28 26 34 66v182q0 20 -4 34q-2 6 -7.5 7.5t-10.5 -2.5q-63 -59 -147 -104q-15 -9 -26 -20zM117 420l-5 5l59 59l59 -59l-6 -5l-53 53zM125 514q11 11 25 11q15 0 24 -11q8 -7 20 -7t19 7l6 -5q-10 -10 -25 -10
t-25 10q-7 8 -19 8t-20 -8z" />
    <glyph glyph-name="uni1EAC" unicode="&#x1eac;" horiz-adv-x="569" 
d="M0 0v8q17 0 31.5 10t20.5 27l178 508q4 12 -3 22.5t-20 10.5l30 84h99v-8h-13l219 -635q7 -19 27 -19v-8h-85v8q7 0 10.5 5.5t1.5 11.5l-62 180q-2 7 -8.5 7t-9.5 -6q-15 -27 -42.5 -40t-59.5 -6q-31 7 -50.5 32.5t-20.5 59.5q-1 31 -21.5 53.5t-50.5 27.5q-10 2 -13 -8
l-98 -281q-4 -13 3.5 -24.5t21.5 -11.5v-8h-85zM169 355q-2 -5 0.5 -9.5t7.5 -5.5q32 -7 52.5 -32.5t20.5 -58.5q0 -36 24 -60t60 -24q34 0 58.5 23t26.5 56q0 4 -2 10l-133 386q-2 6 -8 6t-7 -6zM256 -58l28 29l29 -29l-29 -28zM230 713l-5 5l59 59l59 -59l-6 -5l-53 53z
" />
    <glyph glyph-name="uni1EAD" unicode="&#x1ead;" horiz-adv-x="344" 
d="M143 -77l28 29l29 -29l-29 -28zM52 22q-41 48 -27 106q11 55 60 81q84 47 147 105q12 12 2 25q-24 32 -53 32q-48 0 -81.5 -34t-33.5 -81h-8q0 50 36 86t87 36q51 -2 85 -34q36 -36 36 -107v-202q0 -11 8 -19q10 -8 19 -8v-7h-71v27q0 5 -5.5 6.5t-8.5 -2.5
q-32 -45 -86 -51q-63 -8 -106 41zM63 183q-23 -21 -15 -61q8 -45 48 -81.5t85 -36.5q25 0 42 15l1 1q28 26 34 66v182q0 20 -4 34q-2 6 -7.5 7.5t-10.5 -2.5q-63 -59 -147 -104q-15 -9 -26 -20zM117 420l-5 5l59 59l59 -59l-6 -5l-53 53z" />
    <glyph glyph-name="uni1EAE" unicode="&#x1eae;" horiz-adv-x="569" 
d="M0 0v8q17 0 31.5 10t20.5 27l178 508q4 12 -3 22.5t-20 10.5l30 84h99v-8h-13l219 -635q7 -19 27 -19v-8h-85v8q7 0 10.5 5.5t1.5 11.5l-62 180q-2 7 -8.5 7t-9.5 -6q-15 -27 -42.5 -40t-59.5 -6q-31 7 -50.5 32.5t-20.5 59.5q-1 31 -21.5 53.5t-50.5 27.5q-10 2 -13 -8
l-98 -281q-4 -13 3.5 -24.5t21.5 -11.5v-8h-85zM169 355q-2 -5 0.5 -9.5t7.5 -5.5q32 -7 52.5 -32.5t20.5 -58.5q0 -36 24 -60t60 -24q34 0 58.5 23t26.5 56q0 4 -2 10l-133 386q-2 6 -8 6t-7 -6zM336 760h8q-1 -5 -4 -13t-18 -21t-38 -13t-38 11.5t-18 23.5l-3 12h7
q13 -40 52 -40q42 0 52 40zM322 833l6 -5l-54 -55l-6 6z" />
    <glyph glyph-name="uni1EAF" unicode="&#x1eaf;" horiz-adv-x="344" 
d="M52 22q-41 48 -27 106q11 55 60 81q84 47 147 105q12 12 2 25q-24 32 -53 32q-48 0 -81.5 -34t-33.5 -81h-8q0 50 36 86t87 36q51 -2 85 -34q36 -36 36 -107v-202q0 -11 8 -19q10 -8 19 -8v-7h-71v27q0 5 -5.5 6.5t-8.5 -2.5q-32 -45 -86 -51q-63 -8 -106 41zM63 183
q-23 -21 -15 -61q8 -45 48 -81.5t85 -36.5q25 0 42 15l1 1q28 26 34 66v182q0 20 -4 34q-2 6 -7.5 7.5t-10.5 -2.5q-63 -59 -147 -104q-15 -9 -26 -20zM223 467h8q-1 -5 -4 -13t-18 -21t-38 -13t-38 12t-18 24l-3 11h7q13 -40 52 -40q42 0 52 40zM209 540l6 -5l-54 -55l-6 6
z" />
    <glyph glyph-name="uni1EB0" unicode="&#x1eb0;" horiz-adv-x="569" 
d="M0 0v8q17 0 31.5 10t20.5 27l178 508q4 12 -3 22.5t-20 10.5l30 84h99v-8h-13l219 -635q7 -19 27 -19v-8h-85v8q7 0 10.5 5.5t1.5 11.5l-62 180q-2 7 -8.5 7t-9.5 -6q-15 -27 -42.5 -40t-59.5 -6q-31 7 -50.5 32.5t-20.5 59.5q-1 31 -21.5 53.5t-50.5 27.5q-10 2 -13 -8
l-98 -281q-4 -13 3.5 -24.5t21.5 -11.5v-8h-85zM169 355q-2 -5 0.5 -9.5t7.5 -5.5q32 -7 52.5 -32.5t20.5 -58.5q0 -36 24 -60t60 -24q34 0 58.5 23t26.5 56q0 4 -2 10l-133 386q-2 6 -8 6t-7 -6zM336 760h8q-1 -5 -4 -13t-18 -21t-38 -13t-38 11.5t-18 23.5l-3 12h7
q13 -40 52 -40q42 0 52 40zM289 773l-54 54l5 6l54 -54z" />
    <glyph glyph-name="uni1EB1" unicode="&#x1eb1;" horiz-adv-x="344" 
d="M52 22q-41 48 -27 106q11 55 60 81q84 47 147 105q12 12 2 25q-24 32 -53 32q-48 0 -81.5 -34t-33.5 -81h-8q0 50 36 86t87 36q51 -2 85 -34q36 -36 36 -107v-202q0 -11 8 -19q10 -8 19 -8v-7h-71v27q0 5 -5.5 6.5t-8.5 -2.5q-32 -45 -86 -51q-63 -8 -106 41zM63 183
q-23 -21 -15 -61q8 -45 48 -81.5t85 -36.5q25 0 42 15l1 1q28 26 34 66v182q0 20 -4 34q-2 6 -7.5 7.5t-10.5 -2.5q-63 -59 -147 -104q-15 -9 -26 -20zM223 467h8q-1 -5 -4 -13t-18 -21t-38 -13t-38 12t-18 24l-3 11h7q13 -40 52 -40q42 0 52 40zM180 480l-54 54l5 6l54 -54
z" />
    <glyph glyph-name="uni1EB2" unicode="&#x1eb2;" horiz-adv-x="569" 
d="M0 0v8q17 0 31.5 10t20.5 27l178 508q4 12 -3 22.5t-20 10.5l30 84h99v-8h-13l219 -635q7 -19 27 -19v-8h-85v8q7 0 10.5 5.5t1.5 11.5l-62 180q-2 7 -8.5 7t-9.5 -6q-15 -27 -42.5 -40t-59.5 -6q-31 7 -50.5 32.5t-20.5 59.5q-1 31 -21.5 53.5t-50.5 27.5q-10 2 -13 -8
l-98 -281q-4 -13 3.5 -24.5t21.5 -11.5v-8h-85zM169 355q-2 -5 0.5 -9.5t7.5 -5.5q32 -7 52.5 -32.5t20.5 -58.5q0 -36 24 -60t60 -24q34 0 58.5 23t26.5 56q0 4 -2 10l-133 386q-2 6 -8 6t-7 -6zM336 760h8q-1 -5 -4 -13t-18 -21t-38 -13t-38 11.5t-18 23.5l-3 12h7
q13 -40 52 -40q42 0 52 40zM260 816q3 19 22 19q12 1 20 -8q8 -8 6 -20q-2 -10 -12 -15q-8 -5 -8 -10v-9h-8v9q0 10 11 16q8 5 9 13q1 6 -3.5 11t-13.5 5q-12 0 -16 -14z" />
    <glyph glyph-name="uni1EB3" unicode="&#x1eb3;" horiz-adv-x="344" 
d="M52 22q-41 48 -27 106q11 55 60 81q84 47 147 105q12 12 2 25q-24 32 -53 32q-48 0 -81.5 -34t-33.5 -81h-8q0 50 36 86t87 36q51 -2 85 -34q36 -36 36 -107v-202q0 -11 8 -19q10 -8 19 -8v-7h-71v27q0 5 -5.5 6.5t-8.5 -2.5q-32 -45 -86 -51q-63 -8 -106 41zM63 183
q-23 -21 -15 -61q8 -45 48 -81.5t85 -36.5q25 0 42 15l1 1q28 26 34 66v182q0 20 -4 34q-2 6 -7.5 7.5t-10.5 -2.5q-63 -59 -147 -104q-15 -9 -26 -20zM223 467h8q-1 -5 -4 -13t-18 -21t-38 -13t-38 12t-18 24l-3 11h7q13 -40 52 -40q42 0 52 40zM147 523q3 19 22 19
q12 1 20 -8q8 -8 6 -20q-2 -10 -12 -15q-8 -5 -8 -10v-9h-8v9q0 10 11 16q8 5 9 13q1 6 -3.5 11t-13.5 5q-12 0 -16 -14z" />
    <glyph glyph-name="uni1EB4" unicode="&#x1eb4;" horiz-adv-x="569" 
d="M0 0v8q17 0 31.5 10t20.5 27l178 508q4 12 -3 22.5t-20 10.5l30 84h99v-8h-13l219 -635q7 -19 27 -19v-8h-85v8q7 0 10.5 5.5t1.5 11.5l-62 180q-2 7 -8.5 7t-9.5 -6q-15 -27 -42.5 -40t-59.5 -6q-31 7 -50.5 32.5t-20.5 59.5q-1 31 -21.5 53.5t-50.5 27.5q-10 2 -13 -8
l-98 -281q-4 -13 3.5 -24.5t21.5 -11.5v-8h-85zM169 355q-2 -5 0.5 -9.5t7.5 -5.5q32 -7 52.5 -32.5t20.5 -58.5q0 -36 24 -60t60 -24q34 0 58.5 23t26.5 56q0 4 -2 10l-133 386q-2 6 -8 6t-7 -6zM336 760h8q-1 -5 -4 -13t-18 -21t-38 -13t-38 11.5t-18 23.5l-3 12h7
q13 -40 52 -40q42 0 52 40zM237 788q11 11 25 11q15 0 24 -11q8 -7 20 -7t19 7l6 -5q-10 -10 -25 -10t-25 10q-7 8 -19 8t-20 -8z" />
    <glyph glyph-name="uni1EB5" unicode="&#x1eb5;" horiz-adv-x="344" 
d="M52 22q-41 48 -27 106q11 55 60 81q84 47 147 105q12 12 2 25q-24 32 -53 32q-48 0 -81.5 -34t-33.5 -81h-8q0 50 36 86t87 36q51 -2 85 -34q36 -36 36 -107v-202q0 -11 8 -19q10 -8 19 -8v-7h-71v27q0 5 -5.5 6.5t-8.5 -2.5q-32 -45 -86 -51q-63 -8 -106 41zM63 183
q-23 -21 -15 -61q8 -45 48 -81.5t85 -36.5q25 0 42 15l1 1q28 26 34 66v182q0 20 -4 34q-2 6 -7.5 7.5t-10.5 -2.5q-63 -59 -147 -104q-15 -9 -26 -20zM223 467h8q-1 -5 -4 -13t-18 -21t-38 -13t-38 12t-18 24l-3 11h7q13 -40 52 -40q42 0 52 40zM125 495q11 11 25 11
q15 0 24 -11q8 -7 20 -7t19 7l6 -5q-10 -10 -25 -10t-25 10q-7 8 -19 8t-20 -8z" />
    <glyph glyph-name="uni1EB6" unicode="&#x1eb6;" horiz-adv-x="569" 
d="M0 0v8q17 0 31.5 10t20.5 27l178 508q4 12 -3 22.5t-20 10.5l30 84h99v-8h-13l219 -635q7 -19 27 -19v-8h-85v8q7 0 10.5 5.5t1.5 11.5l-62 180q-2 7 -8.5 7t-9.5 -6q-15 -27 -42.5 -40t-59.5 -6q-31 7 -50.5 32.5t-20.5 59.5q-1 31 -21.5 53.5t-50.5 27.5q-10 2 -13 -8
l-98 -281q-4 -13 3.5 -24.5t21.5 -11.5v-8h-85zM169 355q-2 -5 0.5 -9.5t7.5 -5.5q32 -7 52.5 -32.5t20.5 -58.5q0 -36 24 -60t60 -24q34 0 58.5 23t26.5 56q0 4 -2 10l-133 386q-2 6 -8 6t-7 -6zM256 -58l28 29l29 -29l-29 -28zM336 760h8q-1 -5 -4 -13t-18 -21t-38 -13
t-38 11.5t-18 23.5l-3 12h7q13 -40 52 -40q42 0 52 40z" />
    <glyph glyph-name="uni1EB7" unicode="&#x1eb7;" horiz-adv-x="344" 
d="M52 22q-41 48 -27 106q11 55 60 81q84 47 147 105q12 12 2 25q-24 32 -53 32q-48 0 -81.5 -34t-33.5 -81h-8q0 50 36 86t87 36q51 -2 85 -34q36 -36 36 -107v-202q0 -11 8 -19q10 -8 19 -8v-7h-71v27q0 5 -5.5 6.5t-8.5 -2.5q-32 -45 -86 -51q-63 -8 -106 41zM63 183
q-23 -21 -15 -61q8 -45 48 -81.5t85 -36.5q25 0 42 15l1 1q28 26 34 66v182q0 20 -4 34q-2 6 -7.5 7.5t-10.5 -2.5q-63 -59 -147 -104q-15 -9 -26 -20zM143 -77l28 29l29 -29l-29 -28zM223 467h8q-1 -5 -4 -13t-18 -21t-38 -13t-38 12t-18 24l-3 11h7q13 -40 52 -40
q42 0 52 40z" />
    <glyph glyph-name="uni1EB8" unicode="&#x1eb8;" horiz-adv-x="379" 
d="M371 0h-354v8q12 0 20.5 8.5t8.5 20.5v596q0 13 -9 21q-8 8 -20 8v8h354v-35h-8q0 11 -8 19t-19 8h-216q-13 0 -21 -8.5t-8 -20.5v-298q0 -16 11 -27.5t27 -11.5h105q16 0 27.5 11.5t11.5 27.5h8v-85h-8q0 16 -11.5 27.5t-27.5 11.5h-105q-16 0 -27 -11.5t-11 -27.5v-213
q0 -12 8 -20.5t21 -8.5h216q11 0 19 8t8 19v1h8v-36zM166 -58l28 29l29 -29l-29 -28z" />
    <glyph glyph-name="uni1EB9" unicode="&#x1eb9;" horiz-adv-x="439" 
d="M25 177q-2 81 56 139q57 58 138 60h7q0 -148 -94 -305q-6 -11 4 -20q58 -44 122 -44q60 0 99 40q48 48 34 132h28q0 -82 -56.5 -138.5t-138.5 -58.5h-2q-71 0 -123 43l-3 3q-33 25 -51.5 65.5t-19.5 83.5zM86 311q-47 -49 -34 -127q18 -70 57 -109q10 -10 18 2
q77 133 90 260q0 9 -10 13q-4 1 -8 1h-13q-60 0 -100 -40zM191 -77l28 29l29 -29l-29 -28z" />
    <glyph glyph-name="uni1EBA" unicode="&#x1eba;" horiz-adv-x="379" 
d="M371 0h-354v8q12 0 20.5 8.5t8.5 20.5v596q0 13 -9 21q-8 8 -20 8v8h354v-35h-8q0 11 -8 19t-19 8h-216q-13 0 -21 -8.5t-8 -20.5v-298q0 -16 11 -27.5t27 -11.5h105q16 0 27.5 11.5t11.5 27.5h8v-85h-8q0 16 -11.5 27.5t-27.5 11.5h-105q-16 0 -27 -11.5t-11 -27.5v-213
q0 -12 8 -20.5t21 -8.5h216q11 0 19 8t8 19v1h8v-36zM188 756q3 19 22 19q12 1 20 -8q8 -8 6 -20q-2 -10 -12 -15q-8 -5 -8 -10v-9h-8v9q0 10 11 16q8 5 9 13q1 6 -3.5 11t-13.5 5q-12 0 -16 -14z" />
    <glyph glyph-name="uni1EBB" unicode="&#x1ebb;" horiz-adv-x="439" 
d="M25 177q-2 81 56 139q57 58 138 60h7q0 -148 -94 -305q-6 -11 4 -20q58 -44 122 -44q60 0 99 40q48 48 34 132h28q0 -82 -56.5 -138.5t-138.5 -58.5h-2q-71 0 -123 43l-3 3q-33 25 -51.5 65.5t-19.5 83.5zM86 311q-47 -49 -34 -127q18 -70 57 -109q10 -10 18 2
q77 133 90 260q0 9 -10 13q-4 1 -8 1h-13q-60 0 -100 -40zM195 463q3 19 22 19q12 1 20 -8q8 -8 6 -20q-2 -10 -12 -15q-8 -5 -8 -10v-9h-8v9q0 10 11 16q8 5 9 13q1 6 -3.5 11t-13.5 5q-12 0 -16 -14z" />
    <glyph glyph-name="uni1EBC" unicode="&#x1ebc;" horiz-adv-x="379" 
d="M371 0h-354v8q12 0 20.5 8.5t8.5 20.5v596q0 13 -9 21q-8 8 -20 8v8h354v-35h-8q0 11 -8 19t-19 8h-216q-13 0 -21 -8.5t-8 -20.5v-298q0 -16 11 -27.5t27 -11.5h105q16 0 27.5 11.5t11.5 27.5h8v-85h-8q0 16 -11.5 27.5t-27.5 11.5h-105q-16 0 -27 -11.5t-11 -27.5v-213
q0 -12 8 -20.5t21 -8.5h216q11 0 19 8t8 19v1h8v-36zM155 728q11 11 25 11q15 0 24 -11q8 -7 20 -7t19 7l6 -5q-10 -10 -25 -10t-25 10q-7 8 -19 8t-20 -8z" />
    <glyph glyph-name="uni1EBD" unicode="&#x1ebd;" horiz-adv-x="439" 
d="M25 177q-2 81 56 139q57 58 138 60h7q0 -148 -94 -305q-6 -11 4 -20q58 -44 122 -44q60 0 99 40q48 48 34 132h28q0 -82 -56.5 -138.5t-138.5 -58.5h-2q-71 0 -123 43l-3 3q-33 25 -51.5 65.5t-19.5 83.5zM86 311q-47 -49 -34 -127q18 -70 57 -109q10 -10 18 2
q77 133 90 260q0 9 -10 13q-4 1 -8 1h-13q-60 0 -100 -40zM172 435q11 11 25 11q15 0 24 -11q8 -7 20 -7t19 7l6 -5q-10 -10 -25 -10t-25 10q-7 8 -19 8t-20 -8z" />
    <glyph glyph-name="uni1EBE" unicode="&#x1ebe;" horiz-adv-x="379" 
d="M371 0h-354v8q12 0 20.5 8.5t8.5 20.5v596q0 13 -9 21q-8 8 -20 8v8h354v-35h-8q0 11 -8 19t-19 8h-216q-13 0 -21 -8.5t-8 -20.5v-298q0 -16 11 -27.5t27 -11.5h105q16 0 27.5 11.5t11.5 27.5h8v-85h-8q0 16 -11.5 27.5t-27.5 11.5h-105q-16 0 -27 -11.5t-11 -27.5v-213
q0 -12 8 -20.5t21 -8.5h216q11 0 19 8t8 19v1h8v-36zM140 713l-5 5l59 59l59 -59l-6 -5l-53 53zM296 816l6 -5l-54 -55l-6 6z" />
    <glyph glyph-name="uni1EBF" unicode="&#x1ebf;" horiz-adv-x="438" 
d="M25 177q-2 81 56 139q57 58 138 60h7q0 -148 -94 -305q-6 -11 4 -20q58 -44 122 -44q60 0 99 40q48 48 34 132h28q0 -82 -56.5 -138.5t-138.5 -58.5h-2q-71 0 -123 43l-3 3q-33 25 -51.5 65.5t-19.5 83.5zM86 311q-47 -49 -34 -127q18 -70 57 -109q10 -10 18 2
q77 133 90 260q0 9 -10 13q-4 1 -8 1h-13q-60 0 -100 -40zM160 425l59 58l58 -58l-5 -5l-53 53l-53 -53zM321 522l6 -5l-54 -55l-6 6zM321 522l6 -5l-54 -55l-6 6z" />
    <glyph glyph-name="uni1EC0" unicode="&#x1ec0;" horiz-adv-x="379" 
d="M371 0h-354v8q12 0 20.5 8.5t8.5 20.5v596q0 13 -9 21q-8 8 -20 8v8h354v-35h-8q0 11 -8 19t-19 8h-216q-13 0 -21 -8.5t-8 -20.5v-298q0 -16 11 -27.5t27 -11.5h105q16 0 27.5 11.5t11.5 27.5h8v-85h-8q0 16 -11.5 27.5t-27.5 11.5h-105q-16 0 -27 -11.5t-11 -27.5v-213
q0 -12 8 -20.5t21 -8.5h216q11 0 19 8t8 19v1h8v-36zM140 713l-5 5l59 59l59 -59l-6 -5l-53 53zM258 749l-54 54l5 6l54 -54z" />
    <glyph glyph-name="uni1EC1" unicode="&#x1ec1;" horiz-adv-x="438" 
d="M25 177q-2 81 56 139q57 58 138 60h7q0 -148 -94 -305q-6 -11 4 -20q58 -44 122 -44q60 0 99 40q48 48 34 132h28q0 -82 -56.5 -138.5t-138.5 -58.5h-2q-71 0 -123 43l-3 3q-33 25 -51.5 65.5t-19.5 83.5zM86 311q-47 -49 -34 -127q18 -70 57 -109q10 -10 18 2
q77 133 90 260q0 9 -10 13q-4 1 -8 1h-13q-60 0 -100 -40zM160 425l59 58l58 -58l-5 -5l-53 53l-53 -53zM282 456l-54 54l5 6l54 -54z" />
    <glyph glyph-name="uni1EC2" unicode="&#x1ec2;" horiz-adv-x="379" 
d="M371 0h-354v8q12 0 20.5 8.5t8.5 20.5v596q0 13 -9 21q-8 8 -20 8v8h354v-35h-8q0 11 -8 19t-19 8h-216q-13 0 -21 -8.5t-8 -20.5v-298q0 -16 11 -27.5t27 -11.5h105q16 0 27.5 11.5t11.5 27.5h8v-85h-8q0 16 -11.5 27.5t-27.5 11.5h-105q-16 0 -27 -11.5t-11 -27.5v-213
q0 -12 8 -20.5t21 -8.5h216q11 0 19 8t8 19v1h8v-36zM140 713l-5 5l59 59l59 -59l-6 -5l-53 53zM220 798q3 19 22 19q12 1 20 -8q8 -8 6 -20q-2 -10 -12 -15q-8 -5 -8 -10v-9h-8v9q0 10 11 16q8 5 9 13q1 6 -3.5 11t-13.5 5q-12 0 -16 -14z" />
    <glyph glyph-name="uni1EC3" unicode="&#x1ec3;" horiz-adv-x="438" 
d="M25 177q-2 81 56 139q57 58 138 60h7q0 -148 -94 -305q-6 -11 4 -20q58 -44 122 -44q60 0 99 40q48 48 34 132h28q0 -82 -56.5 -138.5t-138.5 -58.5h-2q-71 0 -123 43l-3 3q-33 25 -51.5 65.5t-19.5 83.5zM86 311q-47 -49 -34 -127q18 -70 57 -109q10 -10 18 2
q77 133 90 260q0 9 -10 13q-4 1 -8 1h-13q-60 0 -100 -40zM160 425l59 58l58 -58l-5 -5l-53 53l-53 -53zM245 505q3 19 22 19q12 1 20 -8q8 -8 6 -20q-2 -10 -12 -15q-8 -5 -8 -10v-9h-8v9q0 10 11 16q8 5 9 13q1 6 -3.5 11t-13.5 5q-12 0 -16 -14z" />
    <glyph glyph-name="uni1EC4" unicode="&#x1ec4;" horiz-adv-x="379" 
d="M371 0h-354v8q12 0 20.5 8.5t8.5 20.5v596q0 13 -9 21q-8 8 -20 8v8h354v-35h-8q0 11 -8 19t-19 8h-216q-13 0 -21 -8.5t-8 -20.5v-298q0 -16 11 -27.5t27 -11.5h105q16 0 27.5 11.5t11.5 27.5h8v-85h-8q0 16 -11.5 27.5t-27.5 11.5h-105q-16 0 -27 -11.5t-11 -27.5v-213
q0 -12 8 -20.5t21 -8.5h216q11 0 19 8t8 19v1h8v-36zM140 713l-5 5l59 59l59 -59l-6 -5l-53 53zM148 807q11 11 25 11q15 0 24 -11q8 -7 20 -7t19 7l6 -5q-10 -10 -25 -10t-25 10q-7 8 -19 8t-20 -8z" />
    <glyph glyph-name="uni1EC5" unicode="&#x1ec5;" horiz-adv-x="438" 
d="M25 177q-2 81 56 139q57 58 138 60h7q0 -148 -94 -305q-6 -11 4 -20q58 -44 122 -44q60 0 99 40q48 48 34 132h28q0 -82 -56.5 -138.5t-138.5 -58.5h-2q-71 0 -123 43l-3 3q-33 25 -51.5 65.5t-19.5 83.5zM86 311q-47 -49 -34 -127q18 -70 57 -109q10 -10 18 2
q77 133 90 260q0 9 -10 13q-4 1 -8 1h-13q-60 0 -100 -40zM160 425l59 58l58 -58l-5 -5l-53 53l-53 -53zM173 514q11 11 25 11q15 0 24 -11q8 -7 20 -7t19 7l6 -5q-10 -10 -25 -10t-25 10q-7 8 -19 8t-20 -8z" />
    <glyph glyph-name="uni1EC6" unicode="&#x1ec6;" horiz-adv-x="379" 
d="M371 0h-354v8q12 0 20.5 8.5t8.5 20.5v596q0 13 -9 21q-8 8 -20 8v8h354v-35h-8q0 11 -8 19t-19 8h-216q-13 0 -21 -8.5t-8 -20.5v-298q0 -16 11 -27.5t27 -11.5h105q16 0 27.5 11.5t11.5 27.5h8v-85h-8q0 16 -11.5 27.5t-27.5 11.5h-105q-16 0 -27 -11.5t-11 -27.5v-213
q0 -12 8 -20.5t21 -8.5h216q11 0 19 8t8 19v1h8v-36zM166 -58l28 29l29 -29l-29 -28zM140 713l-5 5l59 59l59 -59l-6 -5l-53 53z" />
    <glyph glyph-name="uni1EC7" unicode="&#x1ec7;" horiz-adv-x="439" 
d="M191 -77l28 29l29 -29l-29 -28zM25 177q-2 81 56 139q57 58 138 60h7q0 -148 -94 -305q-6 -11 4 -20q58 -44 122 -44q60 0 99 40q48 48 34 132h28q0 -82 -56.5 -138.5t-138.5 -58.5h-2q-71 0 -123 43l-3 3q-33 25 -51.5 65.5t-19.5 83.5zM86 311q-47 -49 -34 -127
q18 -70 57 -109q10 -10 18 2q77 133 90 260q0 9 -10 13q-4 1 -8 1h-13q-60 0 -100 -40zM160 425l59 58l58 -58l-5 -5l-53 53l-53 -53z" />
    <glyph glyph-name="uni1EC8" unicode="&#x1ec8;" horiz-adv-x="126" 
d="M8 662v8h101v-8q-27 -2 -27 -29v-598q0 -12 7.5 -19.5t19.5 -7.5v-8h-101v8q12 0 20.5 8.5t8.5 20.5v596q0 13 -9 21q-8 8 -20 8zM36 756q3 19 22 19q12 1 20 -8q8 -8 6 -20q-2 -10 -12 -15q-8 -5 -8 -10v-9h-8v9q0 10 11 16q8 5 9 13q1 6 -3.5 11t-13.5 5q-12 0 -16 -14
z" />
    <glyph glyph-name="uni1EC9" unicode="&#x1ec9;" horiz-adv-x="128" 
d="M17 377h101v-8q-12 -1 -19.5 -9.5t-7.5 -19.5v-305q0 -12 7.5 -19.5t19.5 -7.5v-8h-101v8q12 0 20.5 8.5t8.5 20.5v303q0 12 -8.5 20.5t-20.5 8.5v8zM45 463q3 19 22 19q12 1 20 -8q8 -8 6 -20q-2 -10 -12 -15q-8 -5 -8 -10v-9h-8v9q0 10 11 16q8 5 9 13q1 6 -3.5 11
t-13.5 5q-12 0 -16 -14z" />
    <glyph glyph-name="uni1ECA" unicode="&#x1eca;" horiz-adv-x="126" 
d="M8 662v8h101v-8q-27 -2 -27 -29v-598q0 -12 7.5 -19.5t19.5 -7.5v-8h-101v8q12 0 20.5 8.5t8.5 20.5v596q0 13 -9 21q-8 8 -20 8zM29 -58l28 29l29 -29l-29 -28z" />
    <glyph glyph-name="uni1ECB" unicode="&#x1ecb;" horiz-adv-x="128" 
d="M17 377h101v-8q-12 -1 -19.5 -9.5t-7.5 -19.5v-305q0 -12 7.5 -19.5t19.5 -7.5v-8h-101v8q12 0 20.5 8.5t8.5 20.5v303q0 12 -8.5 20.5t-20.5 8.5v8zM67 456l-29 29l29 29l29 -29zM40 -58l28 29l29 -29l-29 -28z" />
    <glyph glyph-name="uni1ECC" unicode="&#x1ecc;" 
d="M131 85q-104 103 -104 249t104 250t250 104q145 0 249 -104q68 -68 92 -158.5t0 -181.5t-92 -159q-104 -104 -249 -104q-146 0 -250 104zM137 578q-88 -89 -79 -222t110 -234q111 -111 257 -111q120 0 199 80q88 88 79 221.5t-110 234.5q-111 111 -256 111
q-120 0 -200 -80zM352 -77l28 29l29 -29l-29 -28z" />
    <glyph glyph-name="uni1ECD" unicode="&#x1ecd;" horiz-adv-x="444" 
d="M84 38q-57 55 -59 135.5t51 138.5l10 10q57 54 136 54q82 0 139.5 -57.5t57.5 -139.5q0 -76 -51 -133l-10 -10q-57 -54 -136 -54t-138 56zM82 307q-40 -44 -32 -112q10 -76 71 -132t137 -56q57 0 95 35l9 9q40 44 32 112q-8 75 -70.5 131.5t-137.5 56.5q-57 0 -95 -35z
M193 -77l28 29l29 -29l-29 -28z" />
    <glyph glyph-name="uni1ECE" unicode="&#x1ece;" 
d="M131 85q-104 103 -104 249t104 250t250 104q145 0 249 -104q68 -68 92 -158.5t0 -181.5t-92 -159q-104 -104 -249 -104q-146 0 -250 104zM137 578q-88 -89 -79 -222t110 -234q111 -111 257 -111q120 0 199 80q88 88 79 221.5t-110 234.5q-111 111 -256 111
q-120 0 -200 -80zM356 756q3 19 22 19q12 1 20 -8q8 -8 6 -20q-2 -10 -12 -15q-8 -5 -8 -10v-9h-8v9q0 10 11 16q8 5 9 13q1 6 -3.5 11t-13.5 5q-12 0 -16 -14z" />
    <glyph glyph-name="uni1ECF" unicode="&#x1ecf;" horiz-adv-x="444" 
d="M84 38q-57 55 -59 135.5t51 138.5l10 10q57 54 136 54q82 0 139.5 -57.5t57.5 -139.5q0 -76 -51 -133l-10 -10q-57 -54 -136 -54t-138 56zM82 307q-40 -44 -32 -112q10 -76 71 -132t137 -56q57 0 95 35l9 9q40 44 32 112q-8 75 -70.5 131.5t-137.5 56.5q-57 0 -95 -35z
M197 463q3 19 22 19q12 1 20 -8q8 -8 6 -20q-2 -10 -12 -15q-8 -5 -8 -10v-9h-8v9q0 10 11 16q8 5 9 13q1 6 -3.5 11t-13.5 5q-12 0 -16 -14z" />
    <glyph glyph-name="uni1ED0" unicode="&#x1ed0;" 
d="M131 85q-104 103 -104 249t104 250t250 104q145 0 249 -104q68 -68 92 -158.5t0 -181.5t-92 -159q-104 -104 -249 -104q-146 0 -250 104zM137 578q-88 -89 -79 -222t110 -234q111 -111 257 -111q120 0 199 80q88 88 79 221.5t-110 234.5q-111 111 -256 111
q-120 0 -200 -80zM326 730l-5 5l59 59l59 -59l-6 -5l-53 53zM482 833l6 -5l-54 -55l-6 6z" />
    <glyph glyph-name="uni1ED1" unicode="&#x1ed1;" horiz-adv-x="444" 
d="M84 38q-57 55 -59 135.5t51 138.5l10 10q57 54 136 54q82 0 139.5 -57.5t57.5 -139.5q0 -76 -51 -133l-10 -10q-57 -54 -136 -54t-138 56zM82 307q-40 -44 -32 -112q10 -76 71 -132t137 -56q57 0 95 35l9 9q40 44 32 112q-8 75 -70.5 131.5t-137.5 56.5q-57 0 -95 -35z
M168 420l-5 5l59 59l59 -59l-6 -5l-53 53zM324 522l6 -5l-54 -55l-6 6zM324 522l6 -5l-54 -55l-6 6z" />
    <glyph glyph-name="uni1ED2" unicode="&#x1ed2;" 
d="M131 85q-104 103 -104 249t104 250t250 104q145 0 249 -104q68 -68 92 -158.5t0 -181.5t-92 -159q-104 -104 -249 -104q-146 0 -250 104zM137 578q-88 -89 -79 -222t110 -234q111 -111 257 -111q120 0 199 80q88 88 79 221.5t-110 234.5q-111 111 -256 111
q-120 0 -200 -80zM326 730l-5 5l59 59l59 -59l-6 -5l-53 53zM444 766l-54 54l5 6l54 -54z" />
    <glyph glyph-name="uni1ED3" unicode="&#x1ed3;" horiz-adv-x="444" 
d="M84 38q-57 55 -59 135.5t51 138.5l10 10q57 54 136 54q82 0 139.5 -57.5t57.5 -139.5q0 -76 -51 -133l-10 -10q-57 -54 -136 -54t-138 56zM82 307q-40 -44 -32 -112q10 -76 71 -132t137 -56q57 0 95 35l9 9q40 44 32 112q-8 75 -70.5 131.5t-137.5 56.5q-57 0 -95 -35z
M168 420l-5 5l59 59l59 -59l-6 -5l-53 53zM286 456l-54 54l5 6l54 -54z" />
    <glyph glyph-name="uni1ED4" unicode="&#x1ed4;" 
d="M131 85q-104 103 -104 249t104 250t250 104q145 0 249 -104q68 -68 92 -158.5t0 -181.5t-92 -159q-104 -104 -249 -104q-146 0 -250 104zM137 578q-88 -89 -79 -222t110 -234q111 -111 257 -111q120 0 199 80q88 88 79 221.5t-110 234.5q-111 111 -256 111
q-120 0 -200 -80zM326 730l-5 5l59 59l59 -59l-6 -5l-53 53zM406 815q3 19 22 19q12 1 20 -8q8 -8 6 -20q-2 -10 -12 -15q-8 -5 -8 -10v-9h-8v9q0 10 11 16q8 5 9 13q1 6 -3.5 11t-13.5 5q-12 0 -16 -14z" />
    <glyph glyph-name="uni1ED5" unicode="&#x1ed5;" horiz-adv-x="444" 
d="M84 38q-57 55 -59 135.5t51 138.5l10 10q57 54 136 54q82 0 139.5 -57.5t57.5 -139.5q0 -76 -51 -133l-10 -10q-57 -54 -136 -54t-138 56zM82 307q-40 -44 -32 -112q10 -76 71 -132t137 -56q57 0 95 35l9 9q40 44 32 112q-8 75 -70.5 131.5t-137.5 56.5q-57 0 -95 -35z
M168 420l-5 5l59 59l59 -59l-6 -5l-53 53zM248 505q3 19 22 19q12 1 20 -8q8 -8 6 -20q-2 -10 -12 -15q-8 -5 -8 -10v-9h-8v9q0 10 11 16q8 5 9 13q1 6 -3.5 11t-13.5 5q-12 0 -16 -14z" />
    <glyph glyph-name="uni1ED6" unicode="&#x1ed6;" 
d="M131 85q-104 103 -104 249t104 250t250 104q145 0 249 -104q68 -68 92 -158.5t0 -181.5t-92 -159q-104 -104 -249 -104q-146 0 -250 104zM137 578q-88 -89 -79 -222t110 -234q111 -111 257 -111q120 0 199 80q88 88 79 221.5t-110 234.5q-111 111 -256 111
q-120 0 -200 -80zM326 730l-5 5l59 59l59 -59l-6 -5l-53 53zM334 824q11 11 25 11q15 0 24 -11q8 -7 20 -7t19 7l6 -5q-10 -10 -25 -10t-25 10q-7 8 -19 8t-20 -8z" />
    <glyph glyph-name="uni1ED7" unicode="&#x1ed7;" horiz-adv-x="444" 
d="M84 38q-57 55 -59 135.5t51 138.5l10 10q57 54 136 54q82 0 139.5 -57.5t57.5 -139.5q0 -76 -51 -133l-10 -10q-57 -54 -136 -54t-138 56zM82 307q-40 -44 -32 -112q10 -76 71 -132t137 -56q57 0 95 35l9 9q40 44 32 112q-8 75 -70.5 131.5t-137.5 56.5q-57 0 -95 -35z
M168 420l-5 5l59 59l59 -59l-6 -5l-53 53zM176 514q11 11 25 11q15 0 24 -11q8 -7 20 -7t19 7l6 -5q-10 -10 -25 -10t-25 10q-7 8 -19 8t-20 -8z" />
    <glyph glyph-name="uni1ED8" unicode="&#x1ed8;" 
d="M131 85q-104 103 -104 249t104 250t250 104q145 0 249 -104q68 -68 92 -158.5t0 -181.5t-92 -159q-104 -104 -249 -104q-146 0 -250 104zM137 578q-88 -89 -79 -222t110 -234q111 -111 257 -111q120 0 199 80q88 88 79 221.5t-110 234.5q-111 111 -256 111
q-120 0 -200 -80zM352 -77l28 29l29 -29l-29 -28zM326 730l-5 5l59 59l59 -59l-6 -5l-53 53z" />
    <glyph glyph-name="uni1ED9" unicode="&#x1ed9;" horiz-adv-x="444" 
d="M84 38q-57 55 -59 135.5t51 138.5l10 10q57 54 136 54q82 0 139.5 -57.5t57.5 -139.5q0 -76 -51 -133l-10 -10q-57 -54 -136 -54t-138 56zM82 307q-40 -44 -32 -112q10 -76 71 -132t137 -56q57 0 95 35l9 9q40 44 32 112q-8 75 -70.5 131.5t-137.5 56.5q-57 0 -95 -35z
M193 -77l28 29l29 -29l-29 -28zM168 420l-5 5l59 59l59 -59l-6 -5l-53 53z" />
    <glyph glyph-name="uni1EDA" unicode="&#x1eda;" 
d="M630 584q68 -68 92 -158.5t0 -181.5t-92 -159q-104 -104 -249 -104q-146 0 -250 104q-104 103 -104 249t104 250t250 104q104 0 190 -57q22 3 35 19q17 23 0 55l27 15q-2 -39 -5 -49q-10 -38 -46 -47q27 -19 48 -40zM624 91q88 88 79 221.5t-110 234.5q-111 111 -256 111
q-120 0 -200 -80q-88 -89 -79 -222t110 -234q111 -111 257 -111q120 0 199 80zM418 790l6 -5l-54 -55l-6 6z" />
    <glyph glyph-name="uni1EDB" unicode="&#x1edb;" horiz-adv-x="444" 
d="M340 336q79 -59 79 -157q0 -76 -51 -133l-10 -10q-57 -54 -136 -54t-138 56q-57 55 -59 135.5t51 138.5l10 10q57 54 136 54q59 0 109 -34q10 7 15 13q17 22 0 55l27 15q-2 -40 -5 -49q-8 -27 -28 -40zM362 51q40 44 32 112q-8 75 -70.5 131.5t-137.5 56.5q-57 0 -95 -35
l-9 -9q-40 -44 -32 -112q10 -76 71 -132t137 -56q57 0 95 35zM250 480l6 -5l-54 -55l-6 6z" />
    <glyph glyph-name="uni1EDC" unicode="&#x1edc;" 
d="M630 584q68 -68 92 -158.5t0 -181.5t-92 -159q-104 -104 -249 -104q-146 0 -250 104q-104 103 -104 249t104 250t250 104q104 0 190 -57q22 3 35 19q17 23 0 55l27 15q-2 -39 -5 -49q-10 -38 -46 -47q27 -19 48 -40zM624 91q88 88 79 221.5t-110 234.5q-111 111 -256 111
q-120 0 -200 -80q-88 -89 -79 -222t110 -234q111 -111 257 -111q120 0 199 80zM401 730l-54 54l5 6l54 -54z" />
    <glyph glyph-name="uni1EDD" unicode="&#x1edd;" horiz-adv-x="444" 
d="M340 336q79 -59 79 -157q0 -76 -51 -133l-10 -10q-57 -54 -136 -54t-138 56q-57 55 -59 135.5t51 138.5l10 10q57 54 136 54q59 0 109 -34q10 7 15 13q17 22 0 55l27 15q-2 -40 -5 -49q-8 -27 -28 -40zM362 51q40 44 32 112q-8 75 -70.5 131.5t-137.5 56.5q-57 0 -95 -35
l-9 -9q-40 -44 -32 -112q10 -76 71 -132t137 -56q57 0 95 35zM242 420l-54 54l5 6l54 -54z" />
    <glyph glyph-name="uni1EDE" unicode="&#x1ede;" 
d="M630 584q68 -68 92 -158.5t0 -181.5t-92 -159q-104 -104 -249 -104q-146 0 -250 104q-104 103 -104 249t104 250t250 104q104 0 190 -57q22 3 35 19q17 23 0 55l27 15q-2 -39 -5 -49q-10 -38 -46 -47q27 -19 48 -40zM624 91q88 88 79 221.5t-110 234.5q-111 111 -256 111
q-120 0 -200 -80q-88 -89 -79 -222t110 -234q111 -111 257 -111q120 0 199 80zM356 773q3 19 22 19q12 1 20 -8q8 -8 6 -20q-2 -10 -12 -15q-8 -5 -8 -10v-9h-8v9q0 10 11 16q8 5 9 13q1 6 -3.5 11t-13.5 5q-12 0 -16 -14z" />
    <glyph glyph-name="uni1EDF" unicode="&#x1edf;" horiz-adv-x="444" 
d="M340 336q79 -59 79 -157q0 -76 -51 -133l-10 -10q-57 -54 -136 -54t-138 56q-57 55 -59 135.5t51 138.5l10 10q57 54 136 54q59 0 109 -34q10 7 15 13q17 22 0 55l27 15q-2 -40 -5 -49q-8 -27 -28 -40zM362 51q40 44 32 112q-8 75 -70.5 131.5t-137.5 56.5q-57 0 -95 -35
l-9 -9q-40 -44 -32 -112q10 -76 71 -132t137 -56q57 0 95 35zM197 463q3 19 22 19q12 1 20 -8q8 -8 6 -20q-2 -10 -12 -15q-8 -5 -8 -10v-9h-8v9q0 10 11 16q8 5 9 13q1 6 -3.5 11t-13.5 5q-12 0 -16 -14z" />
    <glyph glyph-name="uni1EE0" unicode="&#x1ee0;" 
d="M630 584q68 -68 92 -158.5t0 -181.5t-92 -159q-104 -104 -249 -104q-146 0 -250 104q-104 103 -104 249t104 250t250 104q104 0 190 -57q22 3 35 19q17 23 0 55l27 15q-2 -39 -5 -49q-10 -38 -46 -47q27 -19 48 -40zM624 91q88 88 79 221.5t-110 234.5q-111 111 -256 111
q-120 0 -200 -80q-88 -89 -79 -222t110 -234q111 -111 257 -111q120 0 199 80zM333 745q11 11 25 11q15 0 24 -11q8 -7 20 -7t19 7l6 -5q-10 -10 -25 -10t-25 10q-7 8 -19 8t-20 -8z" />
    <glyph glyph-name="uni1EE1" unicode="&#x1ee1;" horiz-adv-x="444" 
d="M340 336q79 -59 79 -157q0 -76 -51 -133l-10 -10q-57 -54 -136 -54t-138 56q-57 55 -59 135.5t51 138.5l10 10q57 54 136 54q59 0 109 -34q10 7 15 13q17 22 0 55l27 15q-2 -40 -5 -49q-8 -27 -28 -40zM362 51q40 44 32 112q-8 75 -70.5 131.5t-137.5 56.5q-57 0 -95 -35
l-9 -9q-40 -44 -32 -112q10 -76 71 -132t137 -56q57 0 95 35zM175 435q11 11 25 11q15 0 24 -11q8 -7 20 -7t19 7l6 -5q-10 -10 -25 -10t-25 10q-7 8 -19 8t-20 -8z" />
    <glyph glyph-name="uni1EE2" unicode="&#x1ee2;" 
d="M630 584q68 -68 92 -158.5t0 -181.5t-92 -159q-104 -104 -249 -104q-146 0 -250 104q-104 103 -104 249t104 250t250 104q104 0 190 -57q22 3 35 19q17 23 0 55l27 15q-2 -39 -5 -49q-10 -38 -46 -47q27 -19 48 -40zM624 91q88 88 79 221.5t-110 234.5q-111 111 -256 111
q-120 0 -200 -80q-88 -89 -79 -222t110 -234q111 -111 257 -111q120 0 199 80zM352 -77l28 29l29 -29l-29 -28z" />
    <glyph glyph-name="uni1EE3" unicode="&#x1ee3;" horiz-adv-x="444" 
d="M340 336q79 -59 79 -157q0 -76 -51 -133l-10 -10q-57 -54 -136 -54t-138 56q-57 55 -59 135.5t51 138.5l10 10q57 54 136 54q59 0 109 -34q10 7 15 13q17 22 0 55l27 15q-2 -40 -5 -49q-8 -27 -28 -40zM362 51q40 44 32 112q-8 75 -70.5 131.5t-137.5 56.5q-57 0 -95 -35
l-9 -9q-40 -44 -32 -112q10 -76 71 -132t137 -56q57 0 95 35zM193 -77l28 29l29 -29l-29 -28z" />
    <glyph glyph-name="uni1EE4" unicode="&#x1ee4;" horiz-adv-x="524" 
d="M15 670h99v-7q-11 -1 -18.5 -9.5t-7.5 -19.5v-473q0 -67 45.5 -117t112.5 -53h10q85 0 145 60.5t60 145.5v414q0 22 -15 37t-37 15v7h100v-7q-17 0 -29 -12t-12 -29v-425q0 -89 -62 -151.5t-150 -62.5t-150 63t-62 151v437q0 11 -9 20q-7 9 -20 9v7zM233 -77l28 29
l29 -29l-29 -28z" />
    <glyph glyph-name="uni1EE5" unicode="&#x1ee5;" horiz-adv-x="329" 
d="M10 377h103v-8q-11 0 -20.5 -9t-9.5 -20v-17l-1 -232v-39q0 -31 23.5 -46t55.5 -15q21 0 43 8q35 15 35 53v35l1 44v209q0 12 -8 20q-8 9 -21 9v8h103v-8q-12 0 -20.5 -9t-8.5 -20v-303q0 -11 8 -21q10 -8 21 -8v-8h-74v12q-36 -29 -79 -29q-50 0 -86.5 35.5t-36.5 85.5
v2l1 234q0 12 -8.5 20.5t-20.5 8.5v8zM136 -77l28 29l29 -29l-29 -28z" />
    <glyph glyph-name="uni1EE6" unicode="&#x1ee6;" horiz-adv-x="524" 
d="M15 670h99v-7q-11 -1 -18.5 -9.5t-7.5 -19.5v-473q0 -67 45.5 -117t112.5 -53h10q85 0 145 60.5t60 145.5v414q0 22 -15 37t-37 15v7h100v-7q-17 0 -29 -12t-12 -29v-425q0 -89 -62 -151.5t-150 -62.5t-150 63t-62 151v437q0 11 -9 20q-7 9 -20 9v7zM237 756q3 19 22 19
q12 1 20 -8q8 -8 6 -20q-2 -10 -12 -15q-8 -5 -8 -10v-9h-8v9q0 10 11 16q8 5 9 13q1 6 -3.5 11t-13.5 5q-12 0 -16 -14z" />
    <glyph glyph-name="uni1EE7" unicode="&#x1ee7;" horiz-adv-x="329" 
d="M10 377h103v-8q-11 0 -20.5 -9t-9.5 -20v-17l-1 -232v-39q0 -31 23.5 -46t55.5 -15q21 0 43 8q35 15 35 53v35l1 44v209q0 12 -8 20q-8 9 -21 9v8h103v-8q-12 0 -20.5 -9t-8.5 -20v-303q0 -11 8 -21q10 -8 21 -8v-8h-74v12q-36 -29 -79 -29q-50 0 -86.5 35.5t-36.5 85.5
v2l1 234q0 12 -8.5 20.5t-20.5 8.5v8zM140 463q3 19 22 19q12 1 20 -8q8 -8 6 -20q-2 -10 -12 -15q-8 -5 -8 -10v-9h-8v9q0 10 11 16q8 5 9 13q1 6 -3.5 11t-13.5 5q-12 0 -16 -14z" />
    <glyph glyph-name="uni1EE8" unicode="&#x1ee8;" horiz-adv-x="524" 
d="M507 707l27 15q0 -29 -5 -49q-12 -45 -61 -49v-2v-425q0 -89 -62 -151.5t-150 -62.5t-150 63t-62 151v437q0 11 -9 20q-7 9 -20 9v7h99v-7q-11 -1 -18.5 -9.5t-7.5 -19.5v-473q0 -67 45.5 -117t112.5 -53h10q85 0 145 60.5t60 145.5v414q0 22 -15 37t-37 15v7h86v-7
q-21 0 -26 -30q24 1 38 19q18 23 0 55zM290 773l6 -5l-54 -55l-6 6z" />
    <glyph glyph-name="uni1EE9" unicode="&#x1ee9;" horiz-adv-x="329" 
d="M322 411l27 15q0 -29 -5 -49q-13 -45 -59 -49v-291q0 -11 8 -21q10 -8 21 -8v-8h-74v12q-36 -29 -79 -29q-50 0 -86.5 35.5t-36.5 85.5v2l1 234q0 12 -8.5 20.5t-20.5 8.5v8h103v-8q-11 0 -20.5 -9t-9.5 -20v-17l-1 -232v-39q0 -31 23.5 -46t55.5 -15q21 0 43 8
q35 15 35 53v35l1 44v209q0 12 -8 20q-8 9 -21 9v8h98v-8q-12 -1 -19 -11.5t-5 -17.5v-3q23 2 37 19q17 24 0 55zM193 480l6 -5l-54 -55l-6 6z" />
    <glyph glyph-name="uni1EEA" unicode="&#x1eea;" horiz-adv-x="524" 
d="M507 707l27 15q0 -29 -5 -49q-12 -45 -61 -49v-2v-425q0 -89 -62 -151.5t-150 -62.5t-150 63t-62 151v437q0 11 -9 20q-7 9 -20 9v7h99v-7q-11 -1 -18.5 -9.5t-7.5 -19.5v-473q0 -67 45.5 -117t112.5 -53h10q85 0 145 60.5t60 145.5v414q0 22 -15 37t-37 15v7h86v-7
q-21 0 -26 -30q24 1 38 19q18 23 0 55zM282 713l-54 54l5 6l54 -54z" />
    <glyph glyph-name="uni1EEB" unicode="&#x1eeb;" horiz-adv-x="329" 
d="M322 411l27 15q0 -29 -5 -49q-13 -45 -59 -49v-291q0 -11 8 -21q10 -8 21 -8v-8h-74v12q-36 -29 -79 -29q-50 0 -86.5 35.5t-36.5 85.5v2l1 234q0 12 -8.5 20.5t-20.5 8.5v8h103v-8q-11 0 -20.5 -9t-9.5 -20v-17l-1 -232v-39q0 -31 23.5 -46t55.5 -15q21 0 43 8
q35 15 35 53v35l1 44v209q0 12 -8 20q-8 9 -21 9v8h98v-8q-12 -1 -19 -11.5t-5 -17.5v-3q23 2 37 19q17 24 0 55zM185 420l-54 54l5 6l54 -54z" />
    <glyph glyph-name="uni1EEC" unicode="&#x1eec;" horiz-adv-x="524" 
d="M507 707l27 15q0 -29 -5 -49q-12 -45 -61 -49v-2v-425q0 -89 -62 -151.5t-150 -62.5t-150 63t-62 151v437q0 11 -9 20q-7 9 -20 9v7h99v-7q-11 -1 -18.5 -9.5t-7.5 -19.5v-473q0 -67 45.5 -117t112.5 -53h10q85 0 145 60.5t60 145.5v414q0 22 -15 37t-37 15v7h86v-7
q-21 0 -26 -30q24 1 38 19q18 23 0 55zM237 756q3 19 22 19q12 1 20 -8q8 -8 6 -20q-2 -10 -12 -15q-8 -5 -8 -10v-9h-8v9q0 10 11 16q8 5 9 13q1 6 -3.5 11t-13.5 5q-12 0 -16 -14z" />
    <glyph glyph-name="uni1EED" unicode="&#x1eed;" horiz-adv-x="329" 
d="M322 411l27 15q0 -29 -5 -49q-13 -45 -59 -49v-291q0 -11 8 -21q10 -8 21 -8v-8h-74v12q-36 -29 -79 -29q-50 0 -86.5 35.5t-36.5 85.5v2l1 234q0 12 -8.5 20.5t-20.5 8.5v8h103v-8q-11 0 -20.5 -9t-9.5 -20v-17l-1 -232v-39q0 -31 23.5 -46t55.5 -15q21 0 43 8
q35 15 35 53v35l1 44v209q0 12 -8 20q-8 9 -21 9v8h98v-8q-12 -1 -19 -11.5t-5 -17.5v-3q23 2 37 19q17 24 0 55zM140 463q3 19 22 19q12 1 20 -8q8 -8 6 -20q-2 -10 -12 -15q-8 -5 -8 -10v-9h-8v9q0 10 11 16q8 5 9 13q1 6 -3.5 11t-13.5 5q-12 0 -16 -14z" />
    <glyph glyph-name="uni1EEE" unicode="&#x1eee;" horiz-adv-x="524" 
d="M507 707l27 15q0 -29 -5 -49q-12 -45 -61 -49v-2v-425q0 -89 -62 -151.5t-150 -62.5t-150 63t-62 151v437q0 11 -9 20q-7 9 -20 9v7h99v-7q-11 -1 -18.5 -9.5t-7.5 -19.5v-473q0 -67 45.5 -117t112.5 -53h10q85 0 145 60.5t60 145.5v414q0 22 -15 37t-37 15v7h86v-7
q-21 0 -26 -30q24 1 38 19q18 23 0 55zM215 728q11 11 25 11q15 0 24 -11q8 -7 20 -7t19 7l6 -5q-10 -10 -25 -10t-25 10q-7 8 -19 8t-20 -8z" />
    <glyph glyph-name="uni1EEF" unicode="&#x1eef;" horiz-adv-x="329" 
d="M322 411l27 15q0 -29 -5 -49q-13 -45 -59 -49v-291q0 -11 8 -21q10 -8 21 -8v-8h-74v12q-36 -29 -79 -29q-50 0 -86.5 35.5t-36.5 85.5v2l1 234q0 12 -8.5 20.5t-20.5 8.5v8h103v-8q-11 0 -20.5 -9t-9.5 -20v-17l-1 -232v-39q0 -31 23.5 -46t55.5 -15q21 0 43 8
q35 15 35 53v35l1 44v209q0 12 -8 20q-8 9 -21 9v8h98v-8q-12 -1 -19 -11.5t-5 -17.5v-3q23 2 37 19q17 24 0 55zM118 435q11 11 25 11q15 0 24 -11q8 -7 20 -7t19 7l6 -5q-10 -10 -25 -10t-25 10q-7 8 -19 8t-20 -8z" />
    <glyph glyph-name="uni1EF0" unicode="&#x1ef0;" horiz-adv-x="524" 
d="M507 707l27 15q0 -29 -5 -49q-12 -45 -61 -49v-2v-425q0 -89 -62 -151.5t-150 -62.5t-150 63t-62 151v437q0 11 -9 20q-7 9 -20 9v7h99v-7q-11 -1 -18.5 -9.5t-7.5 -19.5v-473q0 -67 45.5 -117t112.5 -53h10q85 0 145 60.5t60 145.5v414q0 22 -15 37t-37 15v7h86v-7
q-21 0 -26 -30q24 1 38 19q18 23 0 55zM233 -77l28 29l29 -29l-29 -28z" />
    <glyph glyph-name="uni1EF1" unicode="&#x1ef1;" horiz-adv-x="329" 
d="M322 411l27 15q0 -29 -5 -49q-13 -45 -59 -49v-291q0 -11 8 -21q10 -8 21 -8v-8h-74v12q-36 -29 -79 -29q-50 0 -86.5 35.5t-36.5 85.5v2l1 234q0 12 -8.5 20.5t-20.5 8.5v8h103v-8q-11 0 -20.5 -9t-9.5 -20v-17l-1 -232v-39q0 -31 23.5 -46t55.5 -15q21 0 43 8
q35 15 35 53v35l1 44v209q0 12 -8 20q-8 9 -21 9v8h98v-8q-12 -1 -19 -11.5t-5 -17.5v-3q23 2 37 19q17 24 0 55zM136 -77l28 29l29 -29l-29 -28z" />
    <glyph glyph-name="Ygrave" unicode="&#x1ef2;" horiz-adv-x="351" 
d="M17 657q-8 5 -17 5v8h85v-8q-7 0 -10.5 -5t-1.5 -12l31 -92l72 -207q2 -6 8.5 -6t7.5 5l99 282q1 3 1 8q0 11 -7.5 19t-18.5 8v8h85v-8q-41 0 -52 -37l-111 -315q-4 -11 -4 -25v-250q0 -13 8 -19q8 -8 19 -8v-8h-101v8q12 0 20.5 8.5t8.5 20.5v267q0 13 -4 24l-108 315
q-3 9 -10 14zM196 713l-54 54l5 6l54 -54z" />
    <glyph glyph-name="ygrave" unicode="&#x1ef3;" horiz-adv-x="364" 
d="M-85 -230q-6 38 18 71q28 39 70 39h90q18 2 27 6q15 6 23 15q1 1 2.5 3l3 4t3.5 5q1 3 3 7t3 7l14 37q5 14 -3.5 26t-23.5 12l-2 8l-116 340q-7 19 -27 19v7h85v-7q-7 0 -11 -5.5t-2 -12.5l110 -319q2 -5 8 -5t7 5l106 301q2 6 2 9q0 11 -8 19t-19 8v7h85v-7
q-39 0 -52 -37l-122 -348l-20 -61q-11 -39 -37.5 -61t-66.5 -22l-56 1q-15 0 -30 -6q-40 -23 -40 -63q0 -30 21 -51q20 -23 53 -23q21 -1 128 -1q33 0 56 22t23 55h7q1 -16 -6 -33q-9 -23 -32 -37.5t-48 -14.5q-14 0 -40 0.5t-47.5 0.5t-40.5 -1q-18 0 -33 4q-58 22 -65 77z
M202 420l-54 54l5 6l54 -54z" />
    <glyph glyph-name="uni1EF4" unicode="&#x1ef4;" horiz-adv-x="351" 
d="M17 657q-8 5 -17 5v8h85v-8q-7 0 -10.5 -5t-1.5 -12l31 -92l72 -207q2 -6 8.5 -6t7.5 5l99 282q1 3 1 8q0 11 -7.5 19t-18.5 8v8h85v-8q-41 0 -52 -37l-111 -315q-4 -11 -4 -25v-250q0 -13 8 -19q8 -8 19 -8v-8h-101v8q12 0 20.5 8.5t8.5 20.5v267q0 13 -4 24l-108 315
q-3 9 -10 14zM135 -58l28 29l29 -29l-29 -28z" />
    <glyph glyph-name="uni1EF5" unicode="&#x1ef5;" horiz-adv-x="364" 
d="M-85 -230q-6 38 18 71q28 39 70 39h90q18 2 27 6q15 6 23 15q1 1 2.5 3l3 4t3.5 5q1 3 3 7t3 7l14 37q5 14 -3.5 26t-23.5 12l-2 8l-116 340q-7 19 -27 19v7h85v-7q-7 0 -11 -5.5t-2 -12.5l110 -319q2 -5 8 -5t7 5l106 301q2 6 2 9q0 11 -8 19t-19 8v7h85v-7
q-39 0 -52 -37l-122 -348l-20 -61q-11 -39 -37.5 -61t-66.5 -22l-56 1q-15 0 -30 -6q-40 -23 -40 -63q0 -30 21 -51q20 -23 53 -23q21 -1 128 -1q33 0 56 22t23 55h7q1 -16 -6 -33q-9 -23 -32 -37.5t-48 -14.5q-14 0 -40 0.5t-47.5 0.5t-40.5 -1q-18 0 -33 4q-58 22 -65 77z
M196 -77l28 29l29 -29l-29 -28z" />
    <glyph glyph-name="uni1EF6" unicode="&#x1ef6;" horiz-adv-x="351" 
d="M17 657q-8 5 -17 5v8h85v-8q-7 0 -10.5 -5t-1.5 -12l31 -92l72 -207q2 -6 8.5 -6t7.5 5l99 282q1 3 1 8q0 11 -7.5 19t-18.5 8v8h85v-8q-41 0 -52 -37l-111 -315q-4 -11 -4 -25v-250q0 -13 8 -19q8 -8 19 -8v-8h-101v8q12 0 20.5 8.5t8.5 20.5v267q0 13 -4 24l-108 315
q-3 9 -10 14zM151 756q3 19 22 19q12 1 20 -8q8 -8 6 -20q-2 -10 -12 -15q-8 -5 -8 -10v-9h-8v9q0 10 11 16q8 5 9 13q1 6 -3.5 11t-13.5 5q-12 0 -16 -14z" />
    <glyph glyph-name="uni1EF7" unicode="&#x1ef7;" horiz-adv-x="364" 
d="M-85 -230q-6 38 18 71q28 39 70 39h90q18 2 27 6q15 6 23 15q1 1 2.5 3l3 4t3.5 5q1 3 3 7t3 7l14 37q5 14 -3.5 26t-23.5 12l-2 8l-116 340q-7 19 -27 19v7h85v-7q-7 0 -11 -5.5t-2 -12.5l110 -319q2 -5 8 -5t7 5l106 301q2 6 2 9q0 11 -8 19t-19 8v7h85v-7
q-39 0 -52 -37l-122 -348l-20 -61q-11 -39 -37.5 -61t-66.5 -22l-56 1q-15 0 -30 -6q-40 -23 -40 -63q0 -30 21 -51q20 -23 53 -23q21 -1 128 -1q33 0 56 22t23 55h7q1 -16 -6 -33q-9 -23 -32 -37.5t-48 -14.5q-14 0 -40 0.5t-47.5 0.5t-40.5 -1q-18 0 -33 4q-58 22 -65 77z
M157 463q3 19 22 19q12 1 20 -8q8 -8 6 -20q-2 -10 -12 -15q-8 -5 -8 -10v-9h-8v9q0 10 11 16q8 5 9 13q1 6 -3.5 11t-13.5 5q-12 0 -16 -14z" />
    <glyph glyph-name="uni1EF8" unicode="&#x1ef8;" horiz-adv-x="351" 
d="M17 657q-8 5 -17 5v8h85v-8q-7 0 -10.5 -5t-1.5 -12l31 -92l72 -207q2 -6 8.5 -6t7.5 5l99 282q1 3 1 8q0 11 -7.5 19t-18.5 8v8h85v-8q-41 0 -52 -37l-111 -315q-4 -11 -4 -25v-250q0 -13 8 -19q8 -8 19 -8v-8h-101v8q12 0 20.5 8.5t8.5 20.5v267q0 13 -4 24l-108 315
q-3 9 -10 14zM128 728q11 11 25 11q15 0 24 -11q8 -7 20 -7t19 7l6 -5q-10 -10 -25 -10t-25 10q-7 8 -19 8t-20 -8z" />
    <glyph glyph-name="uni1EF9" unicode="&#x1ef9;" horiz-adv-x="364" 
d="M-85 -230q-6 38 18 71q28 39 70 39h90q18 2 27 6q15 6 23 15q1 1 2.5 3l3 4t3.5 5q1 3 3 7t3 7l14 37q5 14 -3.5 26t-23.5 12l-2 8l-116 340q-7 19 -27 19v7h85v-7q-7 0 -11 -5.5t-2 -12.5l110 -319q2 -5 8 -5t7 5l106 301q2 6 2 9q0 11 -8 19t-19 8v7h85v-7
q-39 0 -52 -37l-122 -348l-20 -61q-11 -39 -37.5 -61t-66.5 -22l-56 1q-15 0 -30 -6q-40 -23 -40 -63q0 -30 21 -51q20 -23 53 -23q21 -1 128 -1q33 0 56 22t23 55h7q1 -16 -6 -33q-9 -23 -32 -37.5t-48 -14.5q-14 0 -40 0.5t-47.5 0.5t-40.5 -1q-18 0 -33 4q-58 22 -65 77z
M135 435q11 11 25 11q15 0 24 -11q8 -7 20 -7t19 7l6 -5q-10 -10 -25 -10t-25 10q-7 8 -19 8t-20 -8z" />
    <glyph glyph-name="quotedblleft" unicode="&#x201c;" horiz-adv-x="176" 
d="M90 621l66 66l5 -5l-38 -39l22 -22l-28 -28zM43 593l-28 28l66 66l5 -5l-38 -39l23 -22z" />
    <glyph glyph-name="quotedblright" unicode="&#x201d;" horiz-adv-x="176" 
d="M53 643l-38 39l5 5l66 -66l-27 -28l-28 28zM128 643l-38 39l5 5l66 -66l-28 -28l-28 28z" />
    <glyph glyph-name="dagger" unicode="&#x2020;" horiz-adv-x="230" 
d="M15 257h96v120h8v-120h96v-8h-96v-249h-8v249h-96v8z" />
    <glyph glyph-name="daggerdbl" unicode="&#x2021;" horiz-adv-x="230" 
d="M15 249v8h96v120h8v-120h96v-8h-96v-122h96v-8h-96v-119h-8v119h-96v8h96v122h-96z" />
    <glyph glyph-name="E.ss01" horiz-adv-x="414" 
d="M70 37q-58 58 -55 139q3 75 58 128l10 11q12 12 -1 24q-69 57 -67 147q1 77 57.5 130t134.5 53h192v-35h-8q0 11 -8.5 19.5t-19.5 8.5h-161q-66 0 -102.5 -55.5t-36.5 -124.5t36.5 -124.5t102.5 -55.5h77q16 0 26.5 11t10.5 26h8v-83h-8v2q0 15 -10.5 26t-26.5 11h-77
q-49 0 -90 23q-10 5 -18 -3l-19 -19q-37 -35 -35 -85q2 -78 64.5 -141t140.5 -63q47 -2 84 35l224 224q8 8 8 20t-8 20l6 5l25 -25l-249 -249q-55 -55 -133 -55t-132 55z" />
    <glyph glyph-name="H.ss01" horiz-adv-x="601" 
d="M17 0v8q12 0 20.5 8.5t8.5 20.5v597q0 13 -8 21q-10 8 -21 8v8h101v-8q-11 -1 -19 -9t-8 -20v-248q0 -20 13.5 -33.5t32.5 -13.5h92q34 0 58.5 24.5t24.5 59.5v173q0 38 26.5 64.5t64.5 26.5h43q36 0 62 -24t29 -59v-550q0 -19 13.5 -32.5t32.5 -13.5h1v-8h-101v8
q19 0 32.5 13.5t13.5 32.5v542q0 43 -31 65.5t-73 15.5q-27 -8 -44.5 -30t-17.5 -51v-173q0 -38 -26.5 -64.5t-64.5 -26.5h-135q-19 0 -32.5 -13.5t-13.5 -33.5v-250q0 -11 8 -19t19 -8v-8h-101z" />
    <glyph glyph-name="H.ss02" horiz-adv-x="532" 
d="M17 8q12 0 20.5 8.5t8.5 20.5v597q0 13 -8 21q-10 8 -21 8v8h101v-8q-11 -1 -19 -9t-8 -20v-248q0 -20 13.5 -33.5t32.5 -13.5h23q34 0 58.5 24.5t24.5 59.5v173q0 38 26.5 64.5t64.5 26.5h43q36 0 62.5 -24t28.5 -59v-550q0 -19 13.5 -32.5t32.5 -13.5h1v-8h-101v8
q19 0 32.5 13.5t13.5 32.5v542q0 35 -24.5 59.5t-58.5 24.5q-1 0 -22 -3q-27 -8 -44.5 -30t-17.5 -51v-173q0 -38 -26.5 -64.5t-64.5 -26.5h-65q-19 0 -32.5 -13.5t-13.5 -33.5v-250q0 -11 8 -19q6 -8 19 -8v-8h-101v8z" />
    <glyph glyph-name="I.ss01" horiz-adv-x="353" 
d="M353 0h-353v36h8q0 -12 8 -20t20 -8q11 0 19 8t8 20v283q0 38 27 66t64 28q34 0 58.5 24.5t24.5 58.5v138q0 12 -8.5 20.5t-19.5 8.5h-173q-12 0 -20 -8.5t-8 -20.5h-8v36h353v-36h-8q0 12 -8 20.5t-20 8.5q-11 0 -19.5 -8.5t-8.5 -20.5v-135q0 -38 -26.5 -66t-63.5 -28
q-35 0 -59 -24.5t-24 -58.5v-286q0 -12 8.5 -20t19.5 -8h173q12 0 20 8t8 20h8v-36z" />
    <glyph glyph-name="I.ss02" horiz-adv-x="567" 
d="M567 0h-567v36h8q0 -12 8 -20t20 -8h106q12 0 20 8t8 20v283q0 38 27 66t64 28q35 0 59 24.5t24 58.5v138q0 12 -8.5 20.5t-19.5 8.5h-280q-12 0 -20 -8.5t-8 -20.5h-8v36h567v-36h-8q0 12 -8 20.5t-20 8.5h-106q-12 0 -20.5 -8.5t-8.5 -20.5v-135q0 -38 -26.5 -66
t-63.5 -28q-34 0 -58.5 -24.5t-24.5 -58.5v-286q0 -12 8.5 -20t19.5 -8h280q12 0 20 8t8 20h8v-36z" />
    <glyph glyph-name="L.ss01" horiz-adv-x="152" 
d="M94 -28q-34 29 -79 29v7q15 0 25.5 10.5t10.5 25.5v588q0 11 -8 21q-10 8 -21 8v8h99v-8q-11 -1 -18.5 -9.5t-7.5 -19.5v-578q0 -45 30 -80l62 -71l57 -57q44 -44 106 -44q42 0 79 21.5t56 57.5q32 66 3.5 135t-93.5 100q-16 7 -32 -3t-16 -28h-8v99h8q0 -41 38 -56
q50 -19 83.5 -61.5t39.5 -95.5q5 -53 -21 -99t-75 -66q-30 -12 -61 -12q-67 0 -112 47l-49 48z" />
    <glyph glyph-name="L.ss02" horiz-adv-x="145" 
d="M15 8q15 0 25.5 10.5t10.5 25.5v590q0 12 -8 20q-10 8 -21 8v8h100v-8q-11 -1 -19 -9t-8 -19v-580q0 -45 30 -80l63 -71l122 -123q45 -45 106 -45q42 0 78 20.5t57 57.5q31 62 7 129.5t-83 101.5q-20 10 -31 9q-13 -1 -22 -11t-8 -23h-8v100h7q0 -26 20 -44q4 -4 38 -22
q62 -30 88 -91q13 -26 16 -57q5 -53 -20.5 -99t-76.5 -66q-30 -12 -61 -12q-65 0 -112 47l-115 114l-96 83q-34 29 -79 29v7z" />
    <glyph glyph-name="M.ss01" horiz-adv-x="1052" 
d="M85 0h-85v8q17 0 31.5 10t20.5 27l178 509q4 11 -3 21.5t-19 10.5h-1l30 84h99v-8h-13l168 -487q3 -9 12.5 -12.5t17.5 1.5q70 39 99 123l93 267q4 12 -3 22t-19 10l30 84h99v-8h-13l218 -635q7 -19 27 -19v-8h-85v8q7 0 11 5.5t2 11.5l-213 613q-2 6 -8.5 6t-8.5 -6
l-122 -353q-33 -91 -110 -132q-16 -9 -11 -26l35 -100q7 -19 27 -19v-8h-85v8q7 0 10.5 5.5t1.5 11.5l-30 89q-7 16 -24 14q-26 -4 -40 -4q-87 0 -153 55t-80 141q-1 5 -6 5.5t-6 -4.5l-97 -277q-4 -13 3.5 -24.5t21.5 -11.5v-8zM178 377q-7 -24 -4 -43q11 -82 66.5 -135.5
t125.5 -63.5q35 -5 65 -1q10 1 15.5 9.5t2.5 18.5l-164 476q-2 6 -8.5 6t-8.5 -6z" />
    <glyph glyph-name="W.ss01" horiz-adv-x="1052" 
d="M0 670h85v-8q-7 0 -10.5 -5.5t-1.5 -11.5l212 -613q2 -6 8.5 -6t8.5 6l123 353q31 91 110 132q15 8 10 26l-34 100q-7 19 -27 19v8h85v-8q-7 0 -11 -5.5t-2 -11.5l31 -89q5 -16 23 -14q17 4 40 4q87 0 153.5 -55t79.5 -141q1 -5 6 -5t7 4l97 278q1 3 1 8q0 11 -7.5 19
t-19.5 8v8h85v-8q-39 0 -52 -37l-205 -585q-4 -12 3 -22t20 -10l-3 -8h-99v8h13l-168 487q-5 14 -19 14q-6 0 -11 -3q-70 -39 -99 -123l-66 -189l-53 -156q-4 -11 3 -20.5t19 -9.5l-3 -8h-100v8h13l-218 635q-3 9 -10 14q-8 5 -17 5v8zM621 536q-10 -1 -15.5 -9.5
t-2.5 -18.5l165 -476q2 -6 8 -6t8 6l90 262q7 19 4 42q-11 83 -66 136t-126 63q-30 6 -65 1z" />
    <glyph glyph-name="Y.ss01" horiz-adv-x="500" 
d="M3 662h-3v8h86v-8h-13l105 -306q6 -19 27 -24q51 -13 101 -44q7 -4 14.5 -2t10.5 10l113 324q5 16 -4.5 29t-25.5 13v8h86v-8q-32 0 -44 -30l-119 -342q-7 -19 9 -33q4 -3 12 -11q84 -83 100 -202q2 -15 14 -25.5t28 -10.5v-8h-86v8q16 0 27 12.5t9 29.5
q-19 119 -104.5 197.5t-205.5 85.5l-106 307q-8 22 -31 22z" />
    <glyph glyph-name="Z.ss01" horiz-adv-x="499" 
d="M0 670h499v-9l-196 -261q-87 -116 -23 -257q46 -93 141 -123q26 -8 48 7.5t22 42.5h8v-70h-8q-70 2 -128.5 39.5t-89.5 100.5l-21 47q-60 132 22 242l176 233h-414q-12 0 -20 -8t-8 -20h-8v36z" />
    <glyph glyph-name="b.ss01" horiz-adv-x="349" 
d="M15 9q12 0 20.5 8.5t8.5 20.5v520q0 12 -9 20q-7 9 -20 9v8h101v-8q-12 -1 -19.5 -9.5t-7.5 -19.5v-198q0 -20 26 -46q65 -60 145 -102q27 -15 45 -42.5t19 -58.5q2 -54 -38.5 -95t-96.5 -35q-54 5 -88 50q-3 4 -7.5 2.5t-4.5 -6.5v-26h-74v8zM105 313q-5 5 -10.5 2.5
t-5.5 -9.5v-230q6 -29 26.5 -50.5t49.5 -21.5q44 0 84.5 37t48.5 82q8 39 -15 62q-11 11 -26 20q-76 41 -152 108z" />
    <glyph glyph-name="d.ss01" horiz-adv-x="349" 
d="M160 -19q-56 -6 -96.5 35t-38.5 95q1 31 19 58.5t45 42.5q80 42 145 102q26 26 26 46v198q0 11 -7.5 19.5t-19.5 9.5v8h101v-8q-12 0 -20 -9q-9 -8 -9 -20v-520q0 -12 8.5 -20.5t20.5 -8.5v-8h-74v26q0 5 -4.5 6.5t-7.5 -2.5q-34 -45 -88 -50zM66 185q-23 -23 -15 -62
q8 -45 48.5 -82t84.5 -37q29 0 49.5 21.5t26.5 50.5v230q0 7 -6 9.5t-10 -2.5q-76 -67 -152 -108q-15 -9 -26 -20z" />
    <glyph glyph-name="o.ss01" horiz-adv-x="318" 
d="M15 236q2 58 43 99t99 42q61 0 104 -43q41 -41 41 -101.5t-41 -101.5q-42 -42 -100 -42q-62 -1 -104 42t-42 105zM143 350q-79 11 -97 -49q-16 -53 23 -116q42 -68 112 -77q44 -7 76 27q31 38 20 88t-45 82q-37 37 -89 45zM53 0v7h212v-7h-212z" />
    <glyph glyph-name="s.ss01" horiz-adv-x="310" 
d="M21 -7v81h9q4 0 4 -12q5 -9 10 -16q30 -43 89 -50q67 -8 112 38q31 33 20 73q-12 44 -75 67q-83 28 -97 37q-27 15 -41 42.5t-7 56.5q10 37 44.5 55.5t74.5 14.5q37 -3 62 -25q2 -2 8 -6q6 -2 9 -1q7 4 7 14q-2 11 -1 16h8v-85h-8q1 0 -2 13t-4 15q-8 19 -24 30l-3 3
q-33 24 -78 19q-51 -8 -68 -43q-1 -1 -3 -5q-10 -27 6 -53q12 -19 39 -29q13 -5 41 -14t45 -15t37.5 -19.5t33.5 -31.5q23 -32 19.5 -72t-33.5 -67q-40 -35 -99 -37q-69 -2 -110 43q-5 5 -11.5 2.5t-6.5 -9.5v-30h-7z" />
    <glyph glyph-name="p.ss01" horiz-adv-x="359" 
d="M15 -310v8q13 0 21 9q9 7 9 21v611q0 13 -8.5 21.5t-21.5 8.5v8h76v-26q0 -5 5 -6.5t8 2.5q38 51 104 51q48 0 83 -31.5t42 -79.5q3 -29 -5 -54q-15 -47 -60 -73q-45 -25 -98.5 -62.5t-70.5 -64.5q-8 -11 -8 -26q-1 -22 -1 -46.5t0.5 -54t0.5 -45.5v-133q0 -12 8 -20.5
t20 -9.5v-8h-104zM91 63q0 -7 6.5 -9.5t10.5 2.5q76 67 156 111q13 8 27 20v1q23 24 16 64q-8 46 -50 83.5t-88 37.5q-29 0 -46 -16q-25 -26 -32 -57v-237z" />
    <glyph glyph-name="q.ss01" horiz-adv-x="359" 
d="M31 233q-8 25 -5 54q7 48 42 79.5t83 31.5q66 0 104 -51q2 -3 5 -3.5t5.5 2t2.5 5.5v26h76v-8q-13 0 -21.5 -8.5t-8.5 -21.5v-611q0 -14 9 -21q7 -9 21 -9v-8h-104v8q12 1 20 9.5t8 20.5v133v146q0 15 -8 26q-17 27 -70.5 64.5t-98.5 62.5q-45 26 -60 73zM52 252
q-8 -40 16 -64v-1q14 -12 27 -20q80 -44 156 -111q5 -5 11 -2.5t6 9.5v237q-7 31 -31 56q-18 17 -47 17q-46 0 -88 -37.5t-50 -83.5z" />
    <glyph glyph-name="spook.01" horiz-adv-x="584" 
d="M86 187q-86 86 -86 206.5t86 206.5t206 86t206 -86t86 -207t-86 -206l-206 -206zM28 394q0 -112 77 -187l187 -186l186 186q77 77 77 186.5t-77 186.5q-78 78 -186 78q-109 0 -186.5 -77.5t-77.5 -186.5zM149 319q-34 0 -58 24t-24 58t24 58t58 24t58 -24t24 -58t-24 -58
t-58 -24zM435 319q-34 0 -58 24t-24 58t24 58t58 24t58 -24t24 -58t-24 -58t-58 -24zM226 272q-7 10 -2 24l46 92q6 14 22 14t22 -14l45 -92q7 -13 -1 -24q-7 -12 -21 -12h-90q-14 0 -21 12zM435 455q-22 0 -38 -16t-16 -38q0 -23 15.5 -38.5t38.5 -15.5t38.5 15.5
t15.5 38.5q0 22 -16 38t-38 16zM149 455q-22 0 -38 -16t-16 -38q0 -23 15.5 -38.5t38.5 -15.5t38.5 15.5t15.5 38.5q0 22 -16 38t-38 16zM292 370l-40 -82h80z" />
    <glyph glyph-name="spook.02" horiz-adv-x="1520" 
d="M285 2q-3 1 -7 3t-13 10t-13.5 18t-2.5 27t14 36q14 23 46 58.5t53 69.5t29 78q14 73 28 98.5t41 25.5q13 0 20.5 -15t14.5 -18q2 -4 9.5 -1t9.5 4t9 6.5t8 5.5q50 36 86 36q48 0 56 -41q6 -27 -9 -51.5t-40 -40.5q-52 -31 -31 -55q9 -10 21 -10q27 0 40 25q11 24 20 46
q18 44 59 85.5t97 41.5q73 0 83 -76q0 -29 8 -33q4 -2 7 -2q23 -1 41 20q6 7 17 20.5t20.5 23.5t19.5 18q41 30 84 30q28 0 48.5 -16t28.5 -43q2 -7 3 -14t0.5 -12t-2 -14t-1.5 -13q-2 -10 5 -15q6 -4 14 -1q4 2 5 3q12 7 18 22q19 51 64.5 142.5t65.5 113.5q3 5 8 11.5
t20 16t28 5.5q19 -5 20 -27.5t-7 -42.5t-16 -34q-9 -15 -55 -81q-3 -4 -8.5 -11t-9 -11.5t-7.5 -11.5t-5 -14v-2q0 -1 2 -1q6 0 24 15q39 34 81 34q47 0 56 -41q6 -27 -9 -51.5t-40 -40.5q-18 -10 -30.5 -25.5t-0.5 -29.5q9 -9 20 -9q14 0 34 12q24 16 37 16q7 0 13 -5
q17 -13 -13 -46q-19 -19 -55.5 -33.5t-65.5 -14.5q-39 0 -61 25q-21 22 -12 46.5t26.5 42t38.5 28.5q28 14 36 33q2 9 0 13q-4 8 -15 8q-10 0 -40 -13q-27 -15 -45 -33q-12 -12 -22 -28.5t-14.5 -26.5t-13.5 -34.5t-12 -30.5q-2 -4 -6 -14t-6 -14q-12 -26 -48 -26
q-39 0 -41 26v7q7 27 -2 34q-7 5 -14 -4q-54 -59 -125 -50q-30 3 -47 22q-5 5 -16.5 28t-26.5 27q-27 8 -52 -19q-48 -58 -112 -58q-28 0 -56 17.5t-39 17.5q-8 0 -16 -4q-47 -21 -77 -21q-37 0 -60 26q-20 22 -11 46.5t26.5 42t37.5 28.5q16 8 26 18.5t10.5 17.5t-1.5 12
q-2 3 -12 3q-19 0 -46.5 -13.5t-52.5 -43.5q-27 -32 -56.5 -129t-42.5 -123q-16 -34 -40 -48.5t-40 -11.5zM12 213q-29 51 5.5 99t91.5 64q18 5 30 3q13 -2 21.5 -15.5t2.5 -26.5q-5 -10 -32 -22q-11 -5 -22 -14t-17.5 -21.5t7.5 -23.5q5 -3 19 -8q42 -12 81 -5
q30 7 53.5 26t16.5 46q-7 28 -58 58q-91 48 -115 100q-2 3 -4 8t-5.5 21t-2 32t12.5 39t31 43q32 33 78 50.5t76 19.5l29 1q72 0 95 -55q3 -5 4 -6q2 -2 8 -4q1 0 3.5 -1t3.5 -1q275 -76 473 -76q91 0 166 18q8 2 59 18.5t79 18.5q60 6 63 -37q3 -46 -82.5 -71.5
t-227.5 -24.5q-104 1 -208 15q-20 2 -28 4q-144 17 -259 51q-24 6 -37 4q-17 -2 -31.5 -24.5t-17.5 -25.5q-23 -21 -60 -21q-26 0 -44.5 12.5t-19.5 37.5q-1 22 11.5 40t33.5 25q2 1 5.5 1.5t6 1t5 2.5t3.5 4q3 9 -9 15t-22 6q-34 0 -69 -27q-36 -29 -28 -64q5 -25 43 -52
q8 -6 21 -15.5t22 -15.5t22 -16.5t20.5 -17.5t18 -18.5t14 -21t9.5 -23t4.5 -25.5t-2.5 -29q-8 -40 -32 -68.5t-52 -41t-54.5 -19.5t-44.5 -7h-18q-111 -2 -146 60zM1075 365q-21 -1 -42.5 -25.5t-25.5 -51t17 -43.5q16 -11 36 -5q26 6 40 31q1 1 6.5 10.5t7 12.5t5 11t4 13
t-0.5 12t-5 13q-14 24 -42 22zM800 365q-21 -1 -42.5 -25.5t-25.5 -51t17 -43.5q15 -10 35 -5q27 6 41 31q1 1 6.5 10.5t7 12.5t5 11t4 13t-0.5 12t-5 13q-14 24 -42 22zM1108 32q0 15 11 23q11 9 27 9t27.5 -8.5t11.5 -23.5t-12 -23.5t-27 -8.5q-16 0 -27 9q-11 8 -11 23z
M475 1v62h33q15 0 26 -8q9 -9 9 -23q0 -13 -9 -22q-10 -9 -26 -9h-33zM571 63h59v-10h-47v-17h44v-9h-44v-16h48v-10h-60v62zM797 9q-11 9 -11 23t12 23q10 9 30 9q16 0 25 -4l-3 -10q-8 4 -22 4q-31 0 -31 -22q0 -10 9 -16q8 -6 22 -6q10 0 18 4v13h-20v9h32v-28
q-16 -8 -30 -8q-19 0 -31 9zM886 1v62h11l43 -47v47h11v-62h-11l-43 47v-47h-11zM1119 32q0 -22 27 -22q12 0 20 6q8 8 8 16q0 10 -8.5 16t-19.5 6q-12 0 -19 -6q-8 -5 -8 -16zM671 2q-9 3 -15 6l3 9q4 -2 14 -6q5 -1 15 -1q20 0 20 8q0 3 -5 5q-2 2 -16 5q-15 1 -22 7
q-7 3 -7 12q0 17 31 17q10 0 15 -1q2 -1 6 -2t6 -2l-4 -9q-12 5 -23 5q-9 0 -14 -3q-5 -1 -5 -5q0 -3 4 -6q1 0 3.5 -1t6.5 -1.5t7 -1.5q16 -3 22 -7t6 -11q0 -9 -8 -14q-10 -5 -23 -5q-5 0 -17 2zM486 11h23q10 0 16 6q7 6 7 15t-7 15q-6 6 -16 6h-23v-42zM1020 32
q0 14 12 23q10 9 30 9q14 0 23 -4l-3 -10q-8 4 -20 4q-31 0 -31 -22q0 -10 9 -16q8 -6 22 -6q17 0 23 6l2 -10q-11 -6 -25 -6q-20 0 -30 9q-12 9 -12 23zM758 1h-11v62h11v-62zM1208 7q0 3 2 4q2 2 4 2q7 0 7 -6q0 -7 -7 -7q-2 0 -4 2q-2 1 -2 5z" />
    </font>
</defs>
</svg>
