<?xml version="1.0" standalone="no"?>
<!DOCTYPE svg PUBLIC "-//W3C//DTD SVG 1.1//EN" "http://www.w3.org/Graphics/SVG/1.1/DTD/svg11.dtd" >
<svg xmlns="http://www.w3.org/2000/svg" xmlns:xlink="http://www.w3.org/1999/xlink" version="1.1">
<metadata>
Created by FontForge 20201107 at Sun Nov  3 14:32:21 2024
 By 
HTF Gotham  Copr. 2002 The Hoefler Type Foundry, Inc. Info: www.typography.com
</metadata>
<defs>
<font id="SVN-GothamItalic" horiz-adv-x="1712" >
  <font-face 
    font-family="SVN-Gotham"
    font-weight="450"
    font-style="italic"
    font-stretch="normal"
    units-per-em="2048"
    panose-1="2 0 6 3 4 0 0 9 0 4"
    ascent="1638"
    descent="-410"
    x-height="1081"
    cap-height="1434"
    bbox="-268 -410 2501 2327"
    underline-thickness="40"
    underline-position="-271"
    slope="-12"
    unicode-range="U+0020-FB02"
  />
<missing-glyph horiz-adv-x="1024" 
 />
    <glyph glyph-name="fi" unicode="fi" horiz-adv-x="1398" 
d="M836 0l290 1081h248l-291 -1081h-247zM68 0l233 868h-137l57 213h137l21 88q47 171 149.5 253.5t262.5 82.5q125 0 213 -37l-56 -206q-71 32 -151 32q-138 0 -179 -151l-16 -62h299l-57 -213h-295l-234 -868h-247zM1161 1247l66 236h266l-63 -236h-269z" />
    <glyph glyph-name="fl" unicode="fl" horiz-adv-x="1398" 
d="M836 0l401 1495h248l-402 -1495h-247zM68 0l233 868h-137l57 213h137l21 88q47 171 149.5 253.5t262.5 82.5q125 0 213 -37l-56 -206q-71 32 -151 32q-138 0 -179 -151l-16 -62h299l-57 -213h-295l-234 -868h-247z" />
    <glyph glyph-name=".notdef" horiz-adv-x="1024" 
 />
    <glyph glyph-name=".null" horiz-adv-x="0" 
 />
    <glyph glyph-name="nonmarkingreturn" horiz-adv-x="682" 
 />
    <glyph glyph-name="space" unicode=" " horiz-adv-x="614" 
 />
    <glyph glyph-name="exclam" unicode="!" horiz-adv-x="620" 
d="M29 0l73 281h275l-76 -281h-272zM217 453l166 909l20 72h291l-20 -72l-320 -909h-137z" />
    <glyph glyph-name="quotedbl" unicode="&#x22;" horiz-adv-x="1009" 
d="M205 821l176 613h283l-2 -11l-326 -602h-131zM662 821l178 613h282l-4 -11l-325 -602h-131z" />
    <glyph glyph-name="numbersign" unicode="#" horiz-adv-x="1406" 
d="M522 543h334l125 356h-336zM113 0l114 330h-190l57 213h209l123 356h-215l57 213h232l112 322h219l-112 -322h336l112 322h217l-110 -322h190l-55 -213h-211l-123 -356h215l-55 -213h-236l-114 -330h-217l114 330h-336l-114 -330h-219z" />
    <glyph glyph-name="dollar" unicode="$" horiz-adv-x="1292" 
d="M748 575l-105 -358q118 5 187 56.5t69 138.5q0 55 -33 91t-118 72zM672 868l98 346q-118 4 -189 -50t-71 -134q0 -54 35.5 -89.5t126.5 -72.5zM348 -201l64 217q-273 55 -420 244l184 156q124 -145 307 -185l115 400q-88 34 -145.5 64.5t-106 74t-71.5 101t-23 133.5
q0 121 70.5 219.5t193 154.5t272.5 56q25 0 39 -2l37 120h178l-41 -143q195 -47 326 -184l-170 -168q-110 102 -227 135l-109 -381q169 -61 253.5 -147.5t84.5 -227.5q0 -127 -73.5 -227t-201.5 -154.5t-286 -54.5h-12l-60 -201h-178z" />
    <glyph glyph-name="percent" unicode="%" horiz-adv-x="1765" 
d="M1296 135q61 0 111.5 42.5t77 104.5t26.5 126q0 78 -38.5 122.5t-106.5 44.5q-91 0 -153 -86.5t-62 -187.5q0 -76 39 -121t106 -45zM494 860q61 0 111 42t76 104t26 127q0 78 -38.5 121.5t-107.5 43.5q-60 0 -110 -42t-76.5 -104t-26.5 -126q0 -78 39 -122t107 -44z
M1286 -16q-138 0 -221.5 87t-83.5 222q0 110 50 208.5t142 161t203 62.5q135 0 220 -86t85 -221q0 -110 -50 -209t-142 -162t-203 -63zM127 0l1382 1434h224l-1385 -1434h-221zM483 709q-138 0 -221.5 86t-83.5 223q0 108 50 206.5t142.5 162t202.5 63.5q135 0 220.5 -87
t85.5 -222q0 -108 -50.5 -206.5t-142.5 -162t-203 -63.5z" />
    <glyph glyph-name="ampersand" unicode="&#x26;" horiz-adv-x="1421" 
d="M520 188q157 0 322 127l-252 351q-151 -47 -224 -124t-73 -169q0 -84 59.5 -134.5t167.5 -50.5zM698 877q160 49 224.5 107t64.5 130q0 60 -43.5 103t-118.5 43q-84 0 -140 -56.5t-56 -134.5q0 -84 69 -192zM1090 -29l-134 185q-109 -89 -220.5 -132.5t-241.5 -43.5
q-195 0 -319 100.5t-124 275.5q0 73 26 139.5t78 126.5t136.5 109.5t195.5 83.5q-81 140 -81 256q0 161 121.5 274t310.5 113q166 0 271 -93t105 -237q0 -55 -20 -107t-65 -105t-127.5 -100.5t-196.5 -82.5l201 -276q82 89 192 264l158 -107q-118 -183 -234 -311l154 -213z
" />
    <glyph glyph-name="quotesingle" unicode="'" horiz-adv-x="550" 
d="M205 821l176 613h283l-2 -11l-326 -602h-131z" />
    <glyph glyph-name="parenleft" unicode="(" horiz-adv-x="901" 
d="M666 -135l-152 -156q-371 309 -371 725q0 217 91.5 411t275 354t444.5 265l90 -184q-215 -96 -363 -234.5t-216 -290.5t-68 -313q0 -164 71.5 -304t197.5 -273z" />
    <glyph glyph-name="parenright" unicode=")" horiz-adv-x="901" 
d="M-27 -285l-90 185q215 96 363 234.5t216 290t68 312.5q0 165 -71.5 304.5t-198.5 271.5l154 157q370 -309 370 -725q0 -330 -209.5 -601t-601.5 -429z" />
    <glyph glyph-name="asterisk" unicode="*" horiz-adv-x="880" 
d="M565 776l-139 35l92 236l-237 -93l-39 142l254 37l-199 159l102 103l158 -199l39 248l137 -35l-92 -235l238 92l39 -140l-254 -39l200 -157l-104 -105l-158 199z" />
    <glyph glyph-name="plus" unicode="+" horiz-adv-x="1323" 
d="M459 217l104 391h-393l61 226h394l102 391h236l-105 -391h393l-61 -226h-393l-105 -391h-233z" />
    <glyph glyph-name="comma" unicode="," horiz-adv-x="600" 
d="M-92 -297l-19 104q107 17 162.5 64.5t73.5 128.5h-107l76 281h273l-64 -238q-43 -171 -138 -249.5t-257 -90.5z" />
    <glyph glyph-name="hyphen" unicode="-" horiz-adv-x="841" 
d="M109 506l65 244h606l-65 -244h-606z" />
    <glyph glyph-name="hyphen" unicode="&#xad;" horiz-adv-x="841" 
d="M109 506l65 244h606l-65 -244h-606z" />
    <glyph glyph-name="period" unicode="." horiz-adv-x="600" 
d="M18 0l76 281h273l-76 -281h-273z" />
    <glyph glyph-name="slash" unicode="/" horiz-adv-x="1067" 
d="M-268 -262l1417 1896h237l-1417 -1896h-237z" />
    <glyph glyph-name="zero" unicode="0" horiz-adv-x="1482" 
d="M694 203q101 0 192 62t153 160t98.5 218.5t36.5 237.5q0 163 -77.5 256.5t-217.5 93.5q-101 0 -192 -62t-153 -160t-98.5 -218.5t-36.5 -237.5q0 -163 77.5 -256.5t217.5 -93.5zM676 -25q-245 0 -391 159t-146 419q0 130 33.5 260t100 245.5t156.5 205t212 142t258 52.5
q244 0 389.5 -158.5t145.5 -418.5q0 -130 -33.5 -260t-100 -246t-156.5 -205.5t-211.5 -142t-256.5 -52.5z" />
    <glyph glyph-name="one" unicode="1" horiz-adv-x="827" 
d="M193 0l315 1174l-272 -70l-5 217l424 123h174l-387 -1444h-249z" />
    <glyph glyph-name="two" unicode="2" horiz-adv-x="1241" 
d="M-55 0l55 205l764 549q114 82 167.5 151.5t53.5 145.5q0 82 -57.5 129t-159.5 47q-98 0 -185 -48.5t-177 -138.5l-158 162q235 252 530 252q209 0 338 -105.5t129 -273.5q0 -131 -73 -235.5t-252 -233.5l-533 -385h670l-60 -221h-1052z" />
    <glyph glyph-name="three" unicode="3" horiz-adv-x="1239" 
d="M500 -25q-189 0 -318 73t-200 202l190 135q60 -91 140 -136.5t200 -45.5q137 0 229.5 72t92.5 176q0 98 -84 149t-234 51h-78l-16 154l487 409h-610l59 220h955l-51 -189l-512 -418q156 -26 248 -114t92 -240q0 -140 -78.5 -254.5t-214 -179t-297.5 -64.5z" />
    <glyph glyph-name="four" unicode="4" horiz-adv-x="1341" 
d="M362 528h457l154 572zM678 0l86 322h-696l-27 186l1020 936h244l-246 -916h205l-56 -206h-204l-86 -322h-240z" />
    <glyph glyph-name="five" unicode="5" horiz-adv-x="1243" 
d="M514 -23q-160 0 -299 72t-217 184l180 146q147 -176 357 -176q150 0 246 82t96 196q0 100 -76.5 160.5t-214.5 60.5q-113 0 -234 -59l-131 107l223 684h842l-63 -224h-613l-108 -329q91 32 184 32q202 0 326.5 -111t124.5 -296q0 -105 -45 -201t-124.5 -169t-197.5 -116
t-256 -43z" />
    <glyph glyph-name="six" unicode="6" horiz-adv-x="1314" 
d="M645 190q139 0 230.5 88t91.5 207q0 100 -68 164t-188 64q-145 0 -237.5 -85t-92.5 -202q0 -99 65 -164q78 -72 199 -72zM643 -25q-110 0 -204.5 34t-157.5 97q-146 146 -146 402q0 216 74 410t209 329q211 211 502 211q260 0 434 -174l-150 -178q-135 125 -305 125
q-179 0 -305 -129q-63 -63 -111.5 -153.5t-66.5 -186.5q55 66 153.5 112t210.5 46q193 0 318 -112t125 -294q0 -103 -45 -201.5t-121.5 -173t-185 -119.5t-228.5 -45z" />
    <glyph glyph-name="seven" unicode="7" horiz-adv-x="1228" 
d="M61 0l914 1212h-709l60 222h1007l-53 -191l-922 -1243h-297z" />
    <glyph glyph-name="eight" unicode="8" horiz-adv-x="1343" 
d="M625 186q142 0 233.5 63t91.5 165q0 92 -84 152.5t-223 60.5q-145 0 -234.5 -65.5t-89.5 -164.5q0 -93 84 -152t222 -59zM772 829q127 0 207 64t80 154q2 87 -70 142.5t-198 55.5q-121 0 -202 -61.5t-81 -153.5q-2 -87 71 -144t193 -57zM610 -20q-149 0 -272.5 50.5
t-195.5 141.5t-72 203q0 159 106 258.5t283 138.5q-87 38 -138 115t-51 170q0 75 36.5 145.5t102.5 127t168 90.5t224 34q219 0 358 -106.5t139 -272.5q0 -138 -89 -233.5t-240 -128.5q102 -39 165.5 -119.5t63.5 -192.5q0 -172 -163.5 -296.5t-424.5 -124.5z" />
    <glyph glyph-name="nine" unicode="9" horiz-adv-x="1314" 
d="M702 707q141 0 233.5 88t92.5 209q0 100 -65 165q-74 74 -199 74q-140 0 -232 -89.5t-92 -215.5q0 -102 70 -166.5t192 -64.5zM498 -25q-267 0 -459 189l151 178q77 -71 152 -106t168 -35q174 0 307 133q131 128 174 323q-55 -65 -153 -112t-211 -47q-194 0 -318.5 112
t-124.5 299q0 149 77 275.5t211 200t294 73.5q106 0 203 -34.5t159 -96.5q74 -71 110 -171.5t36 -250.5q0 -208 -75.5 -396.5t-211.5 -324.5q-209 -209 -489 -209z" />
    <glyph glyph-name="colon" unicode=":" horiz-adv-x="606" 
d="M23 0l75 281h273l-76 -281h-272zM238 801l75 280h273l-76 -280h-272z" />
    <glyph glyph-name="semicolon" unicode=";" horiz-adv-x="606" 
d="M-90 -297l-19 104q108 17 165 65t71 128h-104l75 281h273l-64 -238q-49 -172 -142 -250t-255 -90zM238 801l75 280h273l-76 -280h-272z" />
    <glyph glyph-name="semicolon" unicode="&#x37e;" horiz-adv-x="606" 
d="M-90 -297l-19 104q108 17 165 65t71 128h-104l75 281h273l-64 -238q-49 -172 -142 -250t-255 -90zM238 801l75 280h273l-76 -280h-272z" />
    <glyph glyph-name="less" unicode="&#x3c;" horiz-adv-x="1310" 
d="M1010 158l-858 452l59 221l1100 453l-68 -248l-819 -325l645 -328z" />
    <glyph glyph-name="equal" unicode="=" horiz-adv-x="1310" 
d="M127 350l61 230h959l-62 -230h-958zM264 862l62 230h958l-61 -230h-959z" />
    <glyph glyph-name="greater" unicode="&#x3e;" horiz-adv-x="1310" 
d="M78 158l67 248l820 325l-646 328l60 225l858 -453l-59 -221z" />
    <glyph glyph-name="question" unicode="?" horiz-adv-x="1107" 
d="M203 0l76 281h272l-76 -281h-272zM373 453l47 331l12 11q211 18 325.5 83.5t114.5 176.5q0 80 -55 124t-155 44q-88 0 -172.5 -38t-153.5 -102l-135 166q94 97 222.5 150t270.5 53q201 0 322 -107t121 -262q0 -185 -139.5 -299.5t-391.5 -152.5l-67 -178h-166z" />
    <glyph glyph-name="at" unicode="@" horiz-adv-x="2007" 
d="M934 309q78 0 153.5 48.5t124 131.5t48.5 175q0 90 -56 144t-149 54q-122 0 -216 -105t-94 -251q0 -92 51 -144.5t138 -52.5zM975 -322q-251 0 -446 101t-302.5 282.5t-107.5 413.5q0 157 50 306t142 271t214.5 214.5t276.5 144t318 51.5q187 0 343 -57t259 -154.5
t160 -226t57 -272.5q0 -121 -27 -224t-72 -173.5t-105 -120.5t-126 -73.5t-134 -23.5q-104 0 -176 46.5t-99 125.5q-157 -174 -344 -174q-140 0 -234 92t-94 252q0 117 44.5 222.5t116 178.5t163.5 115.5t186 42.5q197 0 283 -168l45 150l188 -51l-159 -506
q-35 -108 1.5 -172t125.5 -64q55 0 112.5 34.5t108 97.5t83 166t32.5 227q0 129 -52 244t-145 202t-233.5 137.5t-307.5 50.5q-188 0 -359.5 -74.5t-293.5 -198.5t-194 -291.5t-72 -346.5q0 -321 214.5 -521t559.5 -200q217 0 420 92l32 -67q-210 -101 -452 -101z" />
    <glyph glyph-name="A" unicode="A" horiz-adv-x="1562" 
d="M563 569h494l-92 580zM-102 0l1017 1444h242l244 -1444h-258l-56 346h-677l-240 -346h-272z" />
    <glyph glyph-name="B" unicode="B" horiz-adv-x="1468" 
d="M346 223h414q152 0 238.5 59.5t86.5 163.5q0 81 -66.5 125.5t-184.5 44.5h-383zM508 829h356q153 0 238.5 57.5t85.5 162.5q0 77 -59.5 119t-178.5 42h-340zM39 0l385 1434h549q229 0 349 -95.5t120 -248.5q0 -143 -90 -238t-238 -127q221 -84 221 -293
q0 -194 -162.5 -313t-447.5 -119h-686z" />
    <glyph glyph-name="C" unicode="C" horiz-adv-x="1495" 
d="M801 -25q-185 0 -331 73t-231 213.5t-85 324.5q0 170 68.5 330t183.5 279t276.5 191t337.5 72q386 0 559 -307l-209 -141q-72 107 -159 162t-220 55q-150 0 -283 -87t-212.5 -233t-79.5 -311q0 -175 108.5 -282t280.5 -107q114 0 198.5 40.5t182.5 123.5l166 -168
q-114 -109 -245.5 -168.5t-305.5 -59.5z" />
    <glyph glyph-name="D" unicode="D" horiz-adv-x="1587" 
d="M352 229h232q329 0 524 195q160 160 160 395q0 163 -101 264q-121 121 -372 121h-179zM39 0l385 1434h389q372 0 559 -187q158 -158 158 -418q0 -161 -59.5 -304.5t-172.5 -256.5q-268 -268 -745 -268h-514z" />
    <glyph glyph-name="E" unicode="E" horiz-adv-x="1351" 
d="M39 0l385 1434h1053l-62 -226h-801l-100 -374h711l-62 -224h-710l-103 -385h813l-61 -225h-1063z" />
    <glyph glyph-name="F" unicode="F" horiz-adv-x="1353" 
d="M39 0l385 1434h1067l-61 -230h-816l-104 -391h723l-62 -229h-722l-156 -584h-254z" />
    <glyph glyph-name="G" unicode="G" horiz-adv-x="1601" 
d="M809 -25q-128 0 -244.5 39.5t-209.5 114.5t-148 194.5t-55 268.5q0 110 31 218.5t86.5 203.5t136.5 177t178 141t214.5 92.5t241.5 33.5q378 0 568 -254l-189 -160q-72 86 -165 134.5t-232 48.5q-126 0 -240 -52.5t-193.5 -138.5t-126 -200.5t-46.5 -235.5
q0 -185 113.5 -290t295.5 -105q163 0 303 74l89 303h-367l59 219h611l-195 -686q-234 -140 -516 -140z" />
    <glyph glyph-name="H" unicode="H" horiz-adv-x="1548" 
d="M39 0l385 1434h254l-160 -596h674l160 596h252l-385 -1434h-252l161 604h-673l-162 -604h-254z" />
    <glyph glyph-name="I" unicode="I" horiz-adv-x="649" 
d="M53 0l385 1434h254l-385 -1434h-254z" />
    <glyph glyph-name="J" unicode="J" horiz-adv-x="1155" 
d="M389 -20q-148 0 -264.5 70t-183.5 196l184 145q54 -93 119 -135.5t155 -42.5q125 0 213 88q43 43 73 107.5t63 191.5l223 834h260l-240 -891q-40 -157 -85 -250t-118 -166q-153 -147 -399 -147z" />
    <glyph glyph-name="K" unicode="K" horiz-adv-x="1480" 
d="M39 0l385 1434h254l-195 -725l840 725h346l-729 -613l367 -821h-279l-289 672l-346 -291l-100 -381h-254z" />
    <glyph glyph-name="L" unicode="L" horiz-adv-x="1265" 
d="M39 0l385 1434h254l-324 -1205h754l-64 -229h-1005z" />
    <glyph glyph-name="M" unicode="M" horiz-adv-x="1777" 
d="M39 0l385 1434h256l250 -678l614 678h289l-385 -1434h-256l276 1028l-630 -676h-9l-264 672l-274 -1024h-252z" />
    <glyph glyph-name="N" unicode="N" horiz-adv-x="1609" 
d="M39 0l385 1434h233l486 -1014l274 1014h248l-385 -1434h-211l-502 1042l-278 -1042h-250z" />
    <glyph glyph-name="O" unicode="O" 
d="M825 207q121 0 228.5 54t179.5 140.5t114 195t42 218.5q0 182 -110 297t-298 115q-121 0 -228 -54t-179.5 -140.5t-114 -195.5t-41.5 -219q0 -182 109.5 -296.5t297.5 -114.5zM799 -25q-142 0 -262.5 48.5t-203.5 132.5t-130 200t-47 248q0 129 40 255t116.5 233.5
t179 189.5t236 129t278.5 47q142 0 263 -48.5t204.5 -133t130.5 -200t47 -247.5q0 -162 -64 -316.5t-174.5 -273.5t-271.5 -191.5t-342 -72.5z" />
    <glyph glyph-name="P" unicode="P" horiz-adv-x="1380" 
d="M477 688h252q199 0 312.5 79.5t113.5 221.5q0 86 -55 141q-74 74 -232 74h-254zM39 0l385 1434h453q295 0 434 -142q106 -106 106 -282q0 -168 -90.5 -293t-248 -188.5t-361.5 -63.5h-299l-125 -465h-254z" />
    <glyph glyph-name="Q" unicode="Q" 
d="M825 207q130 0 244 65l-203 254l207 142l172 -246q68 86 106 188t38 205q0 182 -110 297t-298 115q-121 0 -228 -54t-179.5 -140.5t-114 -195.5t-41.5 -219q0 -182 109.5 -296.5t297.5 -114.5zM1311 -78l-111 158q-186 -105 -401 -105q-142 0 -262.5 48.5t-203.5 132.5
t-130 200t-47 248q0 129 40 255t116.5 233.5t179 189.5t236 129t278.5 47q142 0 263 -48.5t204.5 -133t130.5 -200t47 -247.5q0 -171 -68 -329.5t-192 -280.5l125 -158z" />
    <glyph glyph-name="R" unicode="R" horiz-adv-x="1480" 
d="M485 723h326q236 0 338 108q72 72 72 173q0 76 -52 131q-69 69 -239 69h-314zM39 0l385 1434h520q294 0 434 -140q105 -105 105 -270q0 -200 -131 -328q-118 -123 -359 -172l267 -524h-289l-246 500h-299l-133 -500h-254z" />
    <glyph glyph-name="S" unicode="S" horiz-adv-x="1304" 
d="M606 -20q-406 0 -608 268l190 158q90 -103 193.5 -153t239.5 -50q123 0 199.5 54t76.5 144q0 66 -55 110.5t-209 106.5q-89 36 -151.5 70.5t-114 80.5t-77.5 104.5t-26 130.5q0 132 74 235.5t199.5 159t277.5 55.5q334 0 526 -215l-176 -172q-85 83 -172 123.5t-196 40.5
q-121 0 -194 -56.5t-73 -132.5q0 -66 59.5 -110.5t219.5 -108.5q180 -72 268 -158.5t88 -226.5q0 -137 -77 -242.5t-203.5 -160.5t-278.5 -55z" />
    <glyph glyph-name="T" unicode="T" horiz-adv-x="1265" 
d="M356 0l324 1200h-457l64 234h1163l-64 -234h-454l-324 -1200h-252z" />
    <glyph glyph-name="U" unicode="U" horiz-adv-x="1560" 
d="M707 -23q-252 0 -391.5 126.5t-139.5 347.5q0 118 33 227l201 756h252l-211 -791q-21 -71 -21 -158q0 -126 77.5 -201t223.5 -75q160 0 268 108q109 109 158 301l219 816h252l-229 -854q-74 -275 -223 -424q-179 -179 -469 -179z" />
    <glyph glyph-name="V" unicode="V" horiz-adv-x="1476" 
d="M469 -10l-203 1444h271l129 -1096l718 1096h285l-977 -1444h-223z" />
    <glyph glyph-name="W" unicode="W" horiz-adv-x="2248" 
d="M391 -10l-112 1444h262l59 -1063l633 1067h213l70 -1067l626 1063h287l-887 -1444h-231l-74 1018l-619 -1018h-227z" />
    <glyph glyph-name="X" unicode="X" horiz-adv-x="1429" 
d="M-88 0l711 743l-330 691h282l230 -512l471 512h323l-688 -721l340 -713h-282l-242 535l-491 -535h-324z" />
    <glyph glyph-name="Y" unicode="Y" horiz-adv-x="1341" 
d="M387 0l152 569l-320 865h279l217 -648l567 648h311l-809 -891l-145 -543h-252z" />
    <glyph glyph-name="Z" unicode="Z" horiz-adv-x="1394" 
d="M-39 0l49 186l1096 1024h-793l62 224h1141l-52 -187l-1095 -1024h827l-59 -223h-1176z" />
    <glyph glyph-name="bracketleft" unicode="[" horiz-adv-x="929" 
d="M-4 -266l457 1700h630l-53 -195h-393l-352 -1311h393l-51 -194h-631z" />
    <glyph glyph-name="backslash" unicode="\" horiz-adv-x="1067" 
d="M694 -262l-434 1896h207l434 -1896h-207z" />
    <glyph glyph-name="bracketright" unicode="]" horiz-adv-x="929" 
d="M-131 -266l53 194h393l353 1311h-394l52 195h630l-456 -1700h-631z" />
    <glyph glyph-name="asciicircum" unicode="^" horiz-adv-x="1024" 
d="M201 1010l424 426h174l196 -426h-172l-137 270l-280 -270h-205z" />
    <glyph glyph-name="underscore" unicode="_" horiz-adv-x="1228" 
d="M-236 -328l54 193h1237l-51 -193h-1240z" />
    <glyph glyph-name="grave" unicode="`" horiz-adv-x="1024" 
d="M723 1219l-186 235l231 100l125 -335h-170z" />
    <glyph glyph-name="a" unicode="a" horiz-adv-x="1193" 
d="M453 160q112 0 207 76t120 178l13 47q-121 41 -246 41q-123 0 -194.5 -54t-71.5 -141q0 -71 45.5 -109t126.5 -38zM356 -23q-142 0 -235.5 82t-93.5 215q0 184 133 287t348 103q166 0 323 -54l7 23q12 50 12 86q0 75 -58 117.5t-178 42.5q-146 0 -297 -60l-41 205
q178 74 388 74q213 0 323.5 -87.5t110.5 -248.5q0 -64 -23 -154l-162 -608h-243l37 141q-157 -164 -351 -164z" />
    <glyph glyph-name="b" unicode="b" horiz-adv-x="1368" 
d="M645 188q153 0 263 128t110 307q0 124 -69.5 196t-186.5 72q-98 0 -188 -58.5t-145.5 -158t-55.5 -211.5q0 -120 75 -197.5t197 -77.5zM674 -23q-247 0 -365 216l-51 -193h-248l400 1495h247l-149 -557q80 80 163 123t183 43q185 0 303.5 -126t118.5 -337
q0 -140 -50.5 -265t-133.5 -211.5t-192.5 -137t-225.5 -50.5z" />
    <glyph glyph-name="c" unicode="c" horiz-adv-x="1148" 
d="M586 -25q-214 0 -355 132.5t-141 349.5q0 130 52 250t138.5 206.5t204 138.5t244.5 52q293 0 438 -246l-192 -131q-32 51 -64 84t-84 55.5t-118 22.5q-72 0 -140 -35.5t-118.5 -93.5t-81.5 -137.5t-31 -163.5q0 -124 74 -197.5t182 -73.5q77 0 141 30t135 91l131 -162
q-94 -85 -190.5 -128.5t-224.5 -43.5z" />
    <glyph glyph-name="d" unicode="d" horiz-adv-x="1368" 
d="M606 188q98 0 188 59t145.5 159t55.5 212q0 119 -76.5 196t-197.5 77q-153 0 -263 -126.5t-110 -307.5q0 -123 70.5 -196t187.5 -73zM512 -23q-184 0 -303 126t-119 337q0 140 50.5 265t133.5 211.5t192.5 137t225.5 50.5q248 0 365 -215l162 606h247l-399 -1495h-248
l39 143q-80 -80 -163 -123t-183 -43z" />
    <glyph glyph-name="e" unicode="e" horiz-adv-x="1228" 
d="M352 621h561q11 33 11 73q0 91 -54 149t-161 58q-125 0 -220 -77t-137 -203zM1112 451h-786q2 -126 74 -199.5t206 -73.5q77 0 142 25t135 80l118 -158q-186 -150 -419 -150q-226 0 -359 128t-133 346q0 120 47.5 237t129 210t202.5 150.5t258 57.5q201 0 316.5 -118.5
t115.5 -301.5q0 -112 -47 -233z" />
    <glyph glyph-name="f" unicode="f" horiz-adv-x="811" 
d="M68 0l233 868h-137l57 213h137l21 88q47 171 149.5 253.5t262.5 82.5q125 0 213 -37l-56 -206q-71 32 -151 32q-138 0 -179 -151l-16 -62h299l-57 -213h-295l-234 -868h-247z" />
    <glyph glyph-name="g" unicode="g" horiz-adv-x="1363" 
d="M606 289q149 0 263 109.5t114 252.5q0 106 -71.5 174t-190.5 68q-147 0 -256 -110t-109 -263q0 -112 70 -171.5t180 -59.5zM504 -332q-159 0 -304.5 44t-250.5 122l137 172q179 -137 403 -137q169 0 265 96q70 70 112 219l19 66q-93 -84 -177.5 -124t-193.5 -40t-202 44
t-153.5 135t-60.5 212q0 131 51 249t134.5 200t192 130t220.5 48q74 0 133 -17.5t101 -50.5t70 -68t53 -81l51 194h248l-238 -893q-41 -146 -80.5 -225t-103.5 -143q-152 -152 -426 -152z" />
    <glyph glyph-name="h" unicode="h" horiz-adv-x="1265" 
d="M10 0l400 1495h247l-147 -553q76 76 154 119t174 43q152 0 240.5 -87.5t88.5 -236.5q0 -64 -32 -190l-156 -590h-248l160 600q16 56 16 109q0 82 -48.5 126t-139.5 44q-103 0 -183.5 -74.5t-113.5 -196.5l-164 -608h-248z" />
    <glyph glyph-name="i" unicode="i" horiz-adv-x="585" 
d="M25 0l290 1081h248l-291 -1081h-247zM350 1247l64 236h268l-66 -236h-266z" />
    <glyph glyph-name="j" unicode="j" horiz-adv-x="583" 
d="M-98 -334q-92 0 -158 19l53 196q54 -12 82 -12q54 0 92.5 37.5t57.5 109.5l286 1065h248l-295 -1095q-48 -168 -140.5 -244t-225.5 -76zM350 1247l64 236h266l-64 -236h-266z" />
    <glyph glyph-name="k" unicode="k" horiz-adv-x="1191" 
d="M10 0l402 1495h247l-233 -874l553 460h328l-545 -440l260 -641h-279l-192 481l-209 -168l-84 -313h-248z" />
    <glyph glyph-name="l" unicode="l" horiz-adv-x="585" 
d="M25 0l401 1495h248l-402 -1495h-247z" />
    <glyph glyph-name="m" unicode="m" horiz-adv-x="1945" 
d="M10 0l289 1081h248l-37 -139q79 79 150.5 120.5t166.5 41.5q116 0 190 -59t105 -158q159 217 406 217q147 0 234 -88t87 -236q0 -56 -34 -190l-158 -590h-248l162 600q14 61 14 109q0 82 -45 126t-131 44q-102 0 -179 -74t-108 -197l-164 -608h-247l161 600q15 66 15 109
q0 82 -45 126t-131 44q-103 0 -179.5 -73.5t-109.5 -197.5l-164 -608h-248z" />
    <glyph glyph-name="n" unicode="n" horiz-adv-x="1263" 
d="M10 0l289 1081h248l-37 -139q76 76 154 119t174 43q152 0 240.5 -87.5t88.5 -236.5q0 -64 -32 -190l-156 -590h-248l160 600q16 56 16 109q0 82 -48.5 126t-139.5 44q-103 0 -183.5 -74.5t-113.5 -196.5l-164 -608h-248z" />
    <glyph glyph-name="o" unicode="o" horiz-adv-x="1323" 
d="M614 190q100 0 187 62t135.5 156.5t48.5 193.5q0 134 -75.5 210.5t-200.5 76.5q-102 0 -189 -63t-134.5 -157.5t-47.5 -191.5q0 -134 75.5 -210.5t200.5 -76.5zM600 -25q-229 0 -368.5 138.5t-139.5 355.5q0 121 50 237t134 203.5t201.5 141t245.5 53.5q229 0 368.5 -139
t139.5 -357q0 -122 -50.5 -238t-135.5 -202.5t-202 -139.5t-243 -53z" />
    <glyph glyph-name="p" unicode="p" horiz-adv-x="1368" 
d="M645 188q153 0 263 128t110 307q0 124 -69.5 196t-186.5 72q-98 0 -188 -58.5t-145.5 -158t-55.5 -211.5q0 -120 75 -197.5t197 -77.5zM-78 -328l377 1409h248l-39 -143q80 80 163 123t183 43q185 0 303.5 -126t118.5 -337q0 -140 -50.5 -265t-133.5 -211.5t-192.5 -137
t-225.5 -50.5q-247 0 -365 216l-139 -521h-248z" />
    <glyph glyph-name="q" unicode="q" horiz-adv-x="1368" 
d="M606 188q98 0 188 59t145.5 159t55.5 212q0 122 -75.5 197.5t-198.5 75.5q-153 0 -263 -126.5t-110 -307.5q0 -123 70.5 -196t187.5 -73zM711 -410l147 555q-161 -168 -346 -168q-184 0 -303 126t-119 337q0 140 50.5 265t133.5 211.5t192.5 137t225.5 50.5
q251 0 365 -213l51 190h248l-398 -1491h-247z" />
    <glyph glyph-name="r" unicode="r" horiz-adv-x="843" 
d="M10 0l289 1081h248l-64 -243q97 138 205.5 206t247.5 58l-70 -262h-14q-170 0 -297.5 -110.5t-187.5 -328.5l-109 -401h-248z" />
    <glyph glyph-name="s" unicode="s" horiz-adv-x="1019" 
d="M444 -25q-129 0 -258 50t-219 145l148 152q152 -152 348 -152q75 0 124.5 35t49.5 94q0 40 -36 69t-122 66q-76 30 -126 56.5t-95.5 63t-67.5 83.5t-22 106q0 155 116.5 257t307.5 102q122 0 232.5 -43.5t183.5 -108.5l-138 -159q-148 118 -297 118q-78 0 -121.5 -34
t-43.5 -89q0 -40 38.5 -71t133.5 -70q57 -25 95 -44.5t79.5 -47.5t66 -57t40.5 -68.5t16 -85.5q0 -165 -122.5 -266t-310.5 -101z" />
    <glyph glyph-name="t" unicode="t" horiz-adv-x="837" 
d="M401 -18q-129 0 -199.5 57t-70.5 156q0 59 19 124l145 549h-137l57 213h137l80 297h248l-80 -297h289l-58 -213h-288l-140 -522q-8 -31 -8 -61q0 -84 109 -84q74 0 158 35l-58 -216q-80 -38 -203 -38z" />
    <glyph glyph-name="u" unicode="u" horiz-adv-x="1265" 
d="M428 -23q-152 0 -241 87.5t-89 236.5q0 61 33 191l158 589h248l-162 -600q-15 -62 -15 -108q0 -82 48 -126t139 -44q104 0 184.5 74t112.5 196l164 608h247l-288 -1081h-248l37 139q-76 -76 -154 -119t-174 -43z" />
    <glyph glyph-name="v" unicode="v" horiz-adv-x="1189" 
d="M326 -8l-150 1089h256l78 -790l498 790h270l-729 -1089h-223z" />
    <glyph glyph-name="w" unicode="w" horiz-adv-x="1746" 
d="M248 -8l-60 1089h252l21 -739l438 743h211l41 -743l422 739h250l-647 -1089h-224l-43 739l-442 -739h-219z" />
    <glyph glyph-name="x" unicode="x" horiz-adv-x="1171" 
d="M-90 0l551 563l-250 518h266l154 -346l319 346h299l-524 -542l256 -539h-266l-162 369l-342 -369h-301z" />
    <glyph glyph-name="y" unicode="y" horiz-adv-x="1198" 
d="M133 -334q-137 0 -244 74l131 182q68 -47 140 -47q50 0 91 26t93 95l-158 1085h254l90 -800l478 800h270l-698 -1112q-108 -164 -211.5 -233.5t-235.5 -69.5z" />
    <glyph glyph-name="z" unicode="z" horiz-adv-x="1134" 
d="M-49 0l47 170l795 709h-584l53 202h912l-46 -170l-796 -708h612l-55 -203h-938z" />
    <glyph glyph-name="braceleft" unicode="{" horiz-adv-x="997" 
d="M713 -137l-80 -152q-192 40 -277.5 119.5t-85.5 202.5q0 71 43 196q27 86 27 138q0 42 -11.5 67.5t-51 42.5t-111.5 17h-64l52 188h61q79 0 128 14t85 53t56.5 101t37.5 166q33 228 163.5 334.5t408.5 113.5l12 -168q-101 -9 -167.5 -31.5t-107.5 -65.5t-61 -98t-31 -140
q-19 -141 -60 -223t-103 -119.5t-164 -49.5q81 -17 123.5 -63t42.5 -115q0 -48 -33 -145q-37 -127 -37 -172q0 -76 43.5 -123.5t161.5 -87.5z" />
    <glyph glyph-name="bar" unicode="|" horiz-adv-x="677" 
d="M276 -262v1896h199v-1896h-199z" />
    <glyph glyph-name="braceright" unicode="}" horiz-adv-x="997" 
d="M-72 -289l-12 168q101 9 167 31.5t106.5 66.5t60.5 98t33 140q19 141 60 222.5t102.5 118t164.5 50.5q-164 35 -164 178q0 55 31 146q37 118 37 172q0 76 -43.5 123.5t-161.5 87.5l80 151q192 -40 277.5 -119t85.5 -202q0 -78 -41 -197q-29 -82 -29 -137q0 -65 34.5 -96
t141.5 -31h62l-52 -188h-61q-103 0 -161 -28t-92 -99t-54 -207q-33 -227 -164.5 -334.5t-407.5 -114.5z" />
    <glyph glyph-name="asciitilde" unicode="~" horiz-adv-x="1013" 
d="M270 467l-137 65q117 250 283 250q47 0 80 -15t73 -48q41 -33 61.5 -44t45.5 -11q40 0 70.5 29.5t64.5 90.5l139 -65q-117 -250 -282 -250q-50 0 -81.5 14.5t-74.5 48.5q-60 46 -78 52q-13 4 -26 4q-40 0 -72 -30.5t-66 -90.5z" />
    <glyph glyph-name="nbspace" unicode="&#xa0;" horiz-adv-x="614" 
 />
    <glyph glyph-name="exclamdown" unicode="&#xa1;" horiz-adv-x="620" 
d="M18 0l21 72l319 909h138l-166 -909l-21 -72h-291zM338 1153l76 281h272l-76 -281h-272z" />
    <glyph glyph-name="cent" unicode="&#xa2;" horiz-adv-x="1183" 
d="M506 424l254 651q-105 -5 -191 -64.5t-134 -153.5t-48 -200q0 -76 32 -136.5t87 -96.5zM326 -12l90 225q-131 61 -203 174.5t-72 265.5q0 175 84.5 321.5t232 231t324.5 84.5q38 0 54 -2l61 158h180l-76 -193q166 -64 244 -211l-188 -129q-63 95 -146 136l-262 -672h17
q88 0 157 28.5t140 86.5l133 -166q-178 -164 -424 -164q-50 0 -94 6l-72 -180h-180z" />
    <glyph glyph-name="sterling" unicode="&#xa3;" horiz-adv-x="1306" 
d="M-20 0l43 160l176 49l96 360h-162l57 213h162l58 215q53 202 163 312q143 143 369 143q289 0 420 -240l-203 -135q-45 72 -98.5 108t-136.5 36q-100 0 -172 -72q-64 -64 -101 -195l-49 -172h514l-55 -213h-514l-94 -350h669l-59 -219h-1083z" />
    <glyph glyph-name="currency" unicode="&#xa4;" horiz-adv-x="1452" 
d="M797 -25q-227 0 -373 130.5t-166 355.5h-201l47 174h156q8 82 33 174h-143l47 174h149q89 213 265.5 344t402.5 131q376 0 497 -332l-215 -104q-47 105 -115.5 157t-183.5 52q-120 0 -214.5 -65t-155.5 -183h460l-47 -174h-479q-28 -67 -39 -174h473l-47 -174h-428
q17 -123 91 -190.5t190 -67.5q100 0 173.5 39t151.5 123l170 -148q-205 -242 -499 -242z" />
    <glyph glyph-name="yen" unicode="&#xa5;" horiz-adv-x="1449" 
d="M455 0l55 209h-393l49 182h393l39 150h-393l49 182h321l-282 711h272l221 -603l545 603h305l-671 -711h321l-49 -182h-395l-39 -150h395l-49 -182h-395l-56 -209h-243z" />
    <glyph glyph-name="section" unicode="&#xa7;" horiz-adv-x="1294" 
d="M813 563q76 0 129 36t53 89q0 45 -46 75.5t-158 67.5q-133 43 -216 43q-76 0 -129 -35.5t-53 -88.5q0 -45 46.5 -76t158.5 -68q133 -43 215 -43zM584 -18q-151 0 -275 49t-198 133l155 143q61 -59 149 -97t183 -38q79 0 127.5 27.5t48.5 74.5q0 42 -50.5 72.5
t-180.5 69.5q-75 22 -126.5 40.5t-104.5 45t-84 55t-50.5 68t-19.5 86.5q0 106 83 176t232 90q-98 73 -98 178q0 133 122.5 217t307.5 84q151 0 275 -49t198 -133l-156 -144q-61 59 -148.5 97.5t-182.5 38.5q-79 0 -128 -28t-49 -75q0 -42 50.5 -72t181.5 -69
q75 -22 126.5 -40.5t104.5 -45t84 -55t50.5 -68t19.5 -86.5q0 -105 -83.5 -175.5t-232.5 -90.5q99 -74 99 -178q0 -133 -122.5 -217t-307.5 -84z" />
    <glyph glyph-name="dieresis" unicode="&#xa8;" horiz-adv-x="1024" 
d="M356 1219l66 241h252l-66 -241h-252zM764 1219l65 241h252l-67 -241h-250z" />
    <glyph glyph-name="copyright" unicode="&#xa9;" horiz-adv-x="1699" 
d="M903 326q-168 0 -280.5 115.5t-112.5 283.5t113.5 285.5t285.5 117.5q102 0 172 -30.5t131 -89.5l-96 -111q-99 92 -209 92q-104 0 -172.5 -76t-68.5 -186q0 -109 69.5 -185.5t173.5 -76.5q63 0 111 23.5t100 72.5l99 -96q-66 -70 -138.5 -104.5t-177.5 -34.5zM893 49
q139 0 263 53t212 143t139.5 214t51.5 260q0 182 -86 334.5t-238.5 241.5t-337.5 89q-139 0 -263 -53t-211.5 -143t-138.5 -213t-51 -260t50.5 -259.5t137.5 -212t210 -142t262 -52.5zM893 -25q-204 0 -374.5 100t-267.5 270t-97 370q0 149 58 286t156.5 237t236.5 160
t292 60q153 0 290.5 -59t235.5 -158t155.5 -235.5t57.5 -286.5q0 -149 -58 -286t-156.5 -237.5t-237 -160.5t-291.5 -60z" />
    <glyph glyph-name="ordfeminine" unicode="&#xaa;" horiz-adv-x="798" 
d="M444 926q59 0 112.5 42t70.5 101l4 21q-77 22 -133 22q-63 0 -102.5 -31t-39.5 -80q0 -33 24 -54t64 -21zM109 578l32 118h531l-33 -118h-530zM387 825q-78 0 -127 44t-49 116q0 101 74 160t188 59q84 0 180 -30l4 14q9 21 9 41q0 88 -131 88q-79 0 -160 -31l-25 115
q103 41 215 41q117 0 178.5 -48t61.5 -137q0 -26 -12 -88l-91 -331h-141l23 80q-93 -93 -197 -93z" />
    <glyph glyph-name="guillemotleft" unicode="&#xab;" horiz-adv-x="1239" 
d="M311 70l-217 450l4 17l471 462l148 -133l-371 -362l166 -342zM825 70l-219 450l4 17l473 462l146 -133l-371 -362l166 -342z" />
    <glyph glyph-name="registered" unicode="&#xae;" horiz-adv-x="1699" 
d="M745 748h191q72 0 114 32.5t42 89.5q0 59 -41.5 91t-114.5 32h-191v-245zM596 350v776h346q137 0 218 -65.5t81 -181.5q0 -93 -48.5 -152.5t-131.5 -83.5l211 -293h-176l-191 268h-160v-268h-149zM893 49q139 0 263 53t212 143t139.5 214t51.5 260q0 182 -86 334.5
t-238.5 241.5t-337.5 89q-139 0 -263 -53t-211.5 -143t-138.5 -213t-51 -260t50.5 -259.5t137.5 -212t210 -142t262 -52.5zM893 -25q-204 0 -374.5 100t-267.5 270t-97 370q0 149 58 286t156.5 237t236.5 160t292 60q153 0 290.5 -59t235.5 -158t155.5 -235.5t57.5 -286.5
q0 -149 -58 -286t-156.5 -237.5t-237 -160.5t-291.5 -60z" />
    <glyph glyph-name="macron" unicode="&#xaf;" horiz-adv-x="1024" 
d="M344 1229l49 182h701l-50 -182h-700z" />
    <glyph glyph-name="macron" unicode="&#x2c9;" horiz-adv-x="1024" 
d="M344 1229l49 182h701l-50 -182h-700z" />
    <glyph glyph-name="degree" unicode="&#xb0;" horiz-adv-x="862" 
d="M496 911q89 0 151 72t62 162q0 75 -44 121.5t-116 46.5q-89 0 -151 -72.5t-62 -161.5q0 -77 43.5 -122.5t116.5 -45.5zM487 772q-139 0 -223 84t-84 215q0 150 111 264.5t264 114.5q139 0 224 -84t85 -215q0 -150 -112 -264.5t-265 -114.5z" />
    <glyph glyph-name="plusminus" unicode="&#xb1;" horiz-adv-x="1259" 
d="M526 -25q-199 0 -332 75.5t-208 195.5l190 139q68 -89 155 -135.5t214 -46.5q140 0 222.5 66t82.5 159q0 190 -295 190h-127l57 211h140q157 0 254.5 59.5t97.5 164.5q0 80 -66 129t-166 49q-98 0 -174.5 -36t-162.5 -110l-142 160q106 103 225 157t279 54
q211 0 339 -103t128 -263q0 -140 -90.5 -235t-261.5 -138q96 -36 158.5 -110.5t62.5 -184.5q0 -191 -162.5 -319t-417.5 -128z" />
    <glyph glyph-name="acute" unicode="&#xb4;" horiz-adv-x="1024" 
d="M453 1219l307 335l221 -100l-313 -235h-215z" />
    <glyph glyph-name="mu" unicode="&#xb5;" 
d="M825 207q130 0 244 65l-203 254l207 142l172 -246q68 86 106 188t38 205q0 182 -110 297t-298 115q-121 0 -228 -54t-179.5 -140.5t-114 -195.5t-41.5 -219q0 -182 109.5 -296.5t297.5 -114.5zM1311 -78l-111 158q-186 -105 -401 -105q-142 0 -262.5 48.5t-203.5 132.5
t-130 200t-47 248q0 129 40 255t116.5 233.5t179 189.5t236 129t278.5 47q142 0 263 -48.5t204.5 -133t130.5 -200t47 -247.5q0 -171 -68 -329.5t-192 -280.5l125 -158z" />
    <glyph glyph-name="mu" unicode="&#x3bc;" 
d="M825 207q130 0 244 65l-203 254l207 142l172 -246q68 86 106 188t38 205q0 182 -110 297t-298 115q-121 0 -228 -54t-179.5 -140.5t-114 -195.5t-41.5 -219q0 -182 109.5 -296.5t297.5 -114.5zM1311 -78l-111 158q-186 -105 -401 -105q-142 0 -262.5 48.5t-203.5 132.5
t-130 200t-47 248q0 129 40 255t116.5 233.5t179 189.5t236 129t278.5 47q142 0 263 -48.5t204.5 -133t130.5 -200t47 -247.5q0 -171 -68 -329.5t-192 -280.5l125 -158z" />
    <glyph glyph-name="paragraph" unicode="&#xb6;" horiz-adv-x="1157" 
d="M575 0l123 465q-239 8 -374.5 111.5t-135.5 306.5q0 121 45 221t131.5 174t222 115t306.5 41h319l-385 -1434h-252z" />
    <glyph glyph-name="periodcentered" unicode="&#xb7;" horiz-adv-x="600" 
d="M141 487l76 281h275l-76 -281h-275z" />
    <glyph glyph-name="periodcentered" unicode="&#x2219;" horiz-adv-x="600" 
d="M141 487l76 281h275l-76 -281h-275z" />
    <glyph glyph-name="cedilla" unicode="&#xb8;" horiz-adv-x="1024" 
d="M297 -338l-191 90l254 268h187z" />
    <glyph glyph-name="ordmasculine" unicode="&#xba;" horiz-adv-x="815" 
d="M510 946q84 0 140.5 66t56.5 151q0 71 -40.5 113.5t-107.5 42.5q-83 0 -140 -67.5t-57 -149.5q0 -69 41 -112.5t107 -43.5zM111 578l30 118h564l-31 -118h-563zM504 821q-129 0 -207 77.5t-78 197.5q0 139 101.5 243.5t244.5 104.5q128 0 206.5 -77.5t78.5 -197.5
q0 -139 -101.5 -243.5t-244.5 -104.5z" />
    <glyph glyph-name="guillemotright" unicode="&#xbb;" horiz-adv-x="1239" 
d="M152 70l-146 131l369 364l-164 342l199 90l219 -448l-4 -17zM664 70l-146 131l371 364l-166 342l199 90l219 -448l-4 -17z" />
    <glyph glyph-name="questiondown" unicode="&#xbf;" horiz-adv-x="1107" 
d="M510 -18q-203 0 -323.5 106.5t-120.5 261.5q0 183 140 299.5t390 153.5l68 178h165l-47 -332l-12 -10q-211 -18 -325.5 -83.5t-114.5 -176.5q0 -79 55.5 -123.5t155.5 -44.5q88 0 172 37.5t153 101.5l135 -166q-94 -97 -222 -149.5t-269 -52.5zM651 1153l76 281h272
l-75 -281h-273z" />
    <glyph glyph-name="Agrave" unicode="&#xc0;" horiz-adv-x="1562" 
d="M981 1552l-186 236l231 100l125 -336h-170zM563 569h494l-92 580zM-102 0l1017 1444h242l244 -1444h-258l-56 346h-677l-240 -346h-272z" />
    <glyph glyph-name="Aacute" unicode="&#xc1;" horiz-adv-x="1562" 
d="M911 1552l308 336l221 -100l-314 -236h-215zM563 569h494l-92 580zM-102 0l1017 1444h242l244 -1444h-258l-56 346h-677l-240 -346h-272z" />
    <glyph glyph-name="Acircumflex" unicode="&#xc2;" horiz-adv-x="1562" 
d="M674 1552l317 299h232l157 -299h-186l-119 138l-196 -138h-205zM563 569h494l-92 580zM-102 0l1017 1444h242l244 -1444h-258l-56 346h-677l-240 -346h-272z" />
    <glyph glyph-name="Atilde" unicode="&#xc3;" horiz-adv-x="1562" 
d="M563 569h494l-92 580zM-102 0l1017 1444h242l244 -1444h-258l-56 346h-677l-240 -346h-272zM834 1554l-117 58q103 217 244 217q39 0 67 -13t64 -42q6 -4 16 -12t14 -11t11.5 -8t11 -7t9 -5t9.5 -4t9 -2t10 -1q35 0 59.5 25t58.5 82l119 -57q-103 -218 -245 -218
q-39 0 -67.5 13.5t-64.5 42.5q-6 4 -16 11.5t-14 10t-11.5 7.5t-11 7t-9.5 5t-9.5 3.5t-8.5 1.5t-10 1q-34 0 -61.5 -26.5t-56.5 -78.5z" />
    <glyph glyph-name="Adieresis" unicode="&#xc4;" horiz-adv-x="1562" 
d="M725 1552l66 242h251l-65 -242h-252zM1133 1552l65 242h252l-68 -242h-249zM563 569h494l-92 580zM-102 0l1017 1444h242l244 -1444h-258l-56 346h-677l-240 -346h-272z" />
    <glyph glyph-name="Aring" unicode="&#xc5;" horiz-adv-x="1562" 
d="M569 569h494l-92 580zM1053 1454q60 0 99.5 47t39.5 109q0 44 -28.5 73t-76.5 29q-61 0 -101 -47t-40 -109q0 -44 28.5 -73t78.5 -29zM-96 0l993 1411q-66 57 -66 145q0 103 76.5 178.5t182.5 75.5q98 0 157.5 -56t59.5 -142q0 -71 -37.5 -129.5t-98.5 -89.5l236 -1393
h-258l-55 346h-678l-240 -346h-272z" />
    <glyph glyph-name="AE" unicode="&#xc6;" horiz-adv-x="2172" 
d="M637 569h401l172 645h-43zM-106 0l1185 1434h1209l-62 -226h-766l-100 -374h676l-62 -224h-676l-102 -385h778l-61 -225h-1028l94 346h-524l-285 -346h-276z" />
    <glyph glyph-name="Ccedilla" unicode="&#xc7;" horiz-adv-x="1495" 
d="M786 -25l-219 -313l-190 90l233 246q-206 51 -331 207t-125 381q0 170 68.5 330t183.5 279t276.5 191t337.5 72q386 0 559 -307l-209 -141q-72 107 -159 162t-220 55q-150 0 -283 -87t-212.5 -233t-79.5 -311q0 -175 108.5 -282t280.5 -107q114 0 198.5 40.5t182.5 123.5
l166 -168q-114 -109 -245.5 -168.5t-305.5 -59.5h-15z" />
    <glyph glyph-name="Egrave" unicode="&#xc8;" horiz-adv-x="1351" 
d="M909 1552l-186 236l231 100l125 -336h-170zM39 0l385 1434h1053l-62 -226h-801l-100 -374h711l-62 -224h-710l-103 -385h813l-61 -225h-1063z" />
    <glyph glyph-name="Eacute" unicode="&#xc9;" horiz-adv-x="1351" 
d="M805 1552l307 336l221 -100l-313 -236h-215zM39 0l385 1434h1053l-62 -226h-801l-100 -374h711l-62 -224h-710l-103 -385h813l-61 -225h-1063z" />
    <glyph glyph-name="Ecircumflex" unicode="&#xca;" horiz-adv-x="1351" 
d="M618 1552l318 299h231l158 -299h-186l-119 138l-197 -138h-205zM39 0l385 1434h1053l-62 -226h-801l-100 -374h711l-62 -224h-710l-103 -385h813l-61 -225h-1063z" />
    <glyph glyph-name="Edieresis" unicode="&#xcb;" horiz-adv-x="1351" 
d="M645 1552l66 242h252l-66 -242h-252zM1053 1552l65 242h252l-67 -242h-250zM39 0l385 1434h1053l-62 -226h-801l-100 -374h711l-62 -224h-710l-103 -385h813l-61 -225h-1063z" />
    <glyph glyph-name="Igrave" unicode="&#xcc;" horiz-adv-x="649" 
d="M530 1552l-186 236l231 100l125 -336h-170zM53 0l385 1434h254l-385 -1434h-254z" />
    <glyph glyph-name="Iacute" unicode="&#xcd;" horiz-adv-x="649" 
d="M444 1552l308 336l221 -100l-314 -236h-215zM53 0l385 1434h254l-385 -1434h-254z" />
    <glyph glyph-name="Icircumflex" unicode="&#xce;" horiz-adv-x="649" 
d="M223 1552l318 299h231l158 -299h-187l-118 138l-197 -138h-205zM53 0l385 1434h254l-385 -1434h-254z" />
    <glyph glyph-name="Idieresis" unicode="&#xcf;" horiz-adv-x="649" 
d="M266 1552l66 242h252l-66 -242h-252zM674 1552l65 242h252l-67 -242h-250zM53 0l385 1434h254l-385 -1434h-254z" />
    <glyph glyph-name="Eth" unicode="&#xd0;" horiz-adv-x="1634" 
d="M399 229h232q329 0 524 195q160 160 160 395q0 163 -101 264q-121 121 -372 121h-178l-101 -370h346l-61 -226h-346zM86 0l164 608h-166l61 226h166l160 600h389q372 0 559 -187q158 -158 158 -418q0 -161 -59 -304.5t-172 -256.5q-268 -268 -746 -268h-514z" />
    <glyph glyph-name="Ntilde" unicode="&#xd1;" horiz-adv-x="1609" 
d="M805 1542l-137 66q117 250 282 250q47 0 80.5 -15.5t73.5 -48.5q41 -33 61 -44t45 -11q40 0 71 30t65 91l139 -66q-117 -250 -285 -250q-47 0 -80 15.5t-73 48.5q-43 33 -62.5 44t-42.5 11q-40 0 -71.5 -30.5t-65.5 -90.5zM39 0l385 1434h233l486 -1014l274 1014h248
l-385 -1434h-211l-502 1042l-278 -1042h-250z" />
    <glyph glyph-name="Ograve" unicode="&#xd2;" 
d="M1014 1552l-187 236l232 100l125 -336h-170zM825 207q121 0 228.5 54t179.5 140.5t114 195t42 218.5q0 182 -110 297t-298 115q-121 0 -228 -54t-179.5 -140.5t-114 -195.5t-41.5 -219q0 -182 109.5 -296.5t297.5 -114.5zM799 -25q-142 0 -262.5 48.5t-203.5 132.5
t-130 200t-47 248q0 129 40 255t116.5 233.5t179 189.5t236 129t278.5 47q142 0 263 -48.5t204.5 -133t130.5 -200t47 -247.5q0 -162 -64 -316.5t-174.5 -273.5t-271.5 -191.5t-342 -72.5z" />
    <glyph glyph-name="Oacute" unicode="&#xd3;" 
d="M883 1552l307 336l221 -100l-313 -236h-215zM825 207q121 0 228.5 54t179.5 140.5t114 195t42 218.5q0 182 -110 297t-298 115q-121 0 -228 -54t-179.5 -140.5t-114 -195.5t-41.5 -219q0 -182 109.5 -296.5t297.5 -114.5zM799 -25q-142 0 -262.5 48.5t-203.5 132.5
t-130 200t-47 248q0 129 40 255t116.5 233.5t179 189.5t236 129t278.5 47q142 0 263 -48.5t204.5 -133t130.5 -200t47 -247.5q0 -162 -64 -316.5t-174.5 -273.5t-271.5 -191.5t-342 -72.5z" />
    <glyph glyph-name="Ocircumflex" unicode="&#xd4;" 
d="M717 1552l317 299h232l157 -299h-186l-119 138l-196 -138h-205zM825 207q121 0 228.5 54t179.5 140.5t114 195t42 218.5q0 182 -110 297t-298 115q-121 0 -228 -54t-179.5 -140.5t-114 -195.5t-41.5 -219q0 -182 109.5 -296.5t297.5 -114.5zM799 -25q-142 0 -262.5 48.5
t-203.5 132.5t-130 200t-47 248q0 129 40 255t116.5 233.5t179 189.5t236 129t278.5 47q142 0 263 -48.5t204.5 -133t130.5 -200t47 -247.5q0 -162 -64 -316.5t-174.5 -273.5t-271.5 -191.5t-342 -72.5z" />
    <glyph glyph-name="Otilde" unicode="&#xd5;" 
d="M825 207q121 0 228.5 54t179.5 140.5t114 195t42 218.5q0 182 -110 297t-298 115q-121 0 -228 -54t-179.5 -140.5t-114 -195.5t-41.5 -219q0 -182 109.5 -296.5t297.5 -114.5zM799 -25q-142 0 -262.5 48.5t-203.5 132.5t-130 200t-47 248q0 129 40 255t116.5 233.5
t179 189.5t236 129t278.5 47q142 0 263 -48.5t204.5 -133t130.5 -200t47 -247.5q0 -162 -64 -316.5t-174.5 -273.5t-271.5 -191.5t-342 -72.5zM885 1554l-117 58q103 217 244 217q39 0 67 -13t64 -42q6 -4 16 -12t14 -11t11.5 -8t11 -7t9 -5t9.5 -4t9 -2t10 -1q35 0 60 25
t59 82l118 -57q-103 -218 -245 -218q-39 0 -67 13.5t-64 42.5q-6 4 -16 11.5t-14 10t-11.5 7.5t-11 7t-9.5 5t-9.5 3.5t-8.5 1.5t-10 1q-34 0 -62 -26.5t-57 -78.5z" />
    <glyph glyph-name="Odieresis" unicode="&#xd6;" 
d="M750 1552l65 242h252l-66 -242h-251zM1157 1552l66 242h252l-68 -242h-250zM825 207q121 0 228.5 54t179.5 140.5t114 195t42 218.5q0 182 -110 297t-298 115q-121 0 -228 -54t-179.5 -140.5t-114 -195.5t-41.5 -219q0 -182 109.5 -296.5t297.5 -114.5zM799 -25
q-142 0 -262.5 48.5t-203.5 132.5t-130 200t-47 248q0 129 40 255t116.5 233.5t179 189.5t236 129t278.5 47q142 0 263 -48.5t204.5 -133t130.5 -200t47 -247.5q0 -162 -64 -316.5t-174.5 -273.5t-271.5 -191.5t-342 -72.5z" />
    <glyph glyph-name="Oslash" unicode="&#xd8;" 
d="M823 197q122 0 231.5 55t183 143.5t116.5 198.5t43 221q0 108 -37 189l-805 -715q106 -92 268 -92zM449 422l811 717q-110 96 -279 96q-98 0 -188 -36t-158.5 -97.5t-120 -140t-78 -168t-26.5 -177.5q0 -115 39 -194zM799 -25q-259 0 -434 154l-160 -139h-252l299 266
q-96 152 -96 348q0 129 40 255t116.5 233.5t179 189.5t236 129t278.5 47q261 0 442 -160l164 146h252l-305 -275q92 -150 92 -340q0 -162 -64 -316.5t-174.5 -273.5t-271.5 -191.5t-342 -72.5z" />
    <glyph glyph-name="Ugrave" unicode="&#xd9;" horiz-adv-x="1560" 
d="M975 1552l-187 236l232 100l125 -336h-170zM707 -23q-252 0 -391.5 126.5t-139.5 347.5q0 118 33 227l201 756h252l-211 -791q-21 -71 -21 -158q0 -126 77.5 -201t223.5 -75q160 0 268 108q109 109 158 301l219 816h252l-229 -854q-74 -275 -223 -424
q-179 -179 -469 -179z" />
    <glyph glyph-name="Uacute" unicode="&#xda;" horiz-adv-x="1560" 
d="M868 1552l308 336l221 -100l-314 -236h-215zM707 -23q-252 0 -391.5 126.5t-139.5 347.5q0 118 33 227l201 756h252l-211 -791q-21 -71 -21 -158q0 -126 77.5 -201t223.5 -75q160 0 268 108q109 109 158 301l219 816h252l-229 -854q-74 -275 -223 -424
q-179 -179 -469 -179z" />
    <glyph glyph-name="Ucircumflex" unicode="&#xdb;" horiz-adv-x="1560" 
d="M674 1552l317 299h232l157 -299h-186l-119 138l-196 -138h-205zM707 -23q-252 0 -391.5 126.5t-139.5 347.5q0 118 33 227l201 756h252l-211 -791q-21 -71 -21 -158q0 -126 77.5 -201t223.5 -75q160 0 268 108q109 109 158 301l219 816h252l-229 -854q-74 -275 -223 -424
q-179 -179 -469 -179z" />
    <glyph glyph-name="Udieresis" unicode="&#xdc;" horiz-adv-x="1560" 
d="M717 1552l65 242h252l-65 -242h-252zM1124 1552l66 242h252l-68 -242h-250zM707 -23q-252 0 -391.5 126.5t-139.5 347.5q0 118 33 227l201 756h252l-211 -791q-21 -71 -21 -158q0 -126 77.5 -201t223.5 -75q160 0 268 108q109 109 158 301l219 816h252l-229 -854
q-74 -275 -223 -424q-179 -179 -469 -179z" />
    <glyph glyph-name="Yacute" unicode="&#xdd;" horiz-adv-x="1341" 
d="M758 1552l307 336l221 -100l-313 -236h-215zM387 0l152 569l-320 865h279l217 -648l567 648h311l-809 -891l-145 -543h-252z" />
    <glyph glyph-name="Thorn" unicode="&#xde;" horiz-adv-x="1398" 
d="M416 463h254q200 0 313 79t113 224q0 83 -56 139q-73 76 -233 76h-252zM39 0l385 1434h252l-60 -226h201q149 0 254.5 -33t179.5 -106q107 -107 107 -283q0 -171 -91.5 -295.5t-249 -186.5t-360.5 -62h-299l-65 -242h-254z" />
    <glyph glyph-name="germandbls" unicode="&#xdf;" horiz-adv-x="1286" 
d="M461 -4l53 197q203 -4 300 66.5t97 182.5q0 169 -276 207l45 170q336 78 336 297q0 85 -55.5 133.5t-143.5 48.5q-105 0 -179.5 -75t-111.5 -215l-268 -1008h-248l277 1028q63 225 178 340q144 141 362 141q193 0 309.5 -104.5t116.5 -265.5q0 -151 -94.5 -252.5
t-257.5 -151.5q248 -89 248 -299q0 -97 -43 -177.5t-126 -141t-216 -93t-303 -28.5z" />
    <glyph glyph-name="agrave" unicode="&#xe0;" horiz-adv-x="1193" 
d="M735 1219l-186 235l231 100l125 -335h-170zM453 160q112 0 207 76t120 178l13 47q-121 41 -246 41q-123 0 -194.5 -54t-71.5 -141q0 -71 45.5 -109t126.5 -38zM356 -23q-142 0 -235.5 82t-93.5 215q0 184 133 287t348 103q166 0 323 -54l7 23q12 50 12 86q0 75 -58 117.5
t-178 42.5q-146 0 -297 -60l-41 205q178 74 388 74q213 0 323.5 -87.5t110.5 -248.5q0 -64 -23 -154l-162 -608h-243l37 141q-157 -164 -351 -164z" />
    <glyph glyph-name="aacute" unicode="&#xe1;" horiz-adv-x="1193" 
d="M625 1219l307 335l221 -100l-313 -235h-215zM453 160q112 0 207 76t120 178l13 47q-121 41 -246 41q-123 0 -194.5 -54t-71.5 -141q0 -71 45.5 -109t126.5 -38zM356 -23q-142 0 -235.5 82t-93.5 215q0 184 133 287t348 103q166 0 323 -54l7 23q12 50 12 86
q0 75 -58 117.5t-178 42.5q-146 0 -297 -60l-41 205q178 74 388 74q213 0 323.5 -87.5t110.5 -248.5q0 -64 -23 -154l-162 -608h-243l37 141q-157 -164 -351 -164z" />
    <glyph glyph-name="acircumflex" unicode="&#xe2;" horiz-adv-x="1193" 
d="M408 1219l317 299h231l158 -299h-186l-119 137l-197 -137h-204zM453 160q112 0 207 76t120 178l13 47q-121 41 -246 41q-123 0 -194.5 -54t-71.5 -141q0 -71 45.5 -109t126.5 -38zM356 -23q-142 0 -235.5 82t-93.5 215q0 184 133 287t348 103q166 0 323 -54l7 23
q12 50 12 86q0 75 -58 117.5t-178 42.5q-146 0 -297 -60l-41 205q178 74 388 74q213 0 323.5 -87.5t110.5 -248.5q0 -64 -23 -154l-162 -608h-243l37 141q-157 -164 -351 -164z" />
    <glyph glyph-name="atilde" unicode="&#xe3;" horiz-adv-x="1193" 
d="M453 160q112 0 207 76t120 178l13 47q-121 41 -246 41q-123 0 -194.5 -54t-71.5 -141q0 -71 45.5 -109t126.5 -38zM356 -23q-142 0 -235.5 82t-93.5 215q0 184 133 287t348 103q166 0 323 -54l7 23q12 50 12 86q0 75 -58 117.5t-178 42.5q-146 0 -297 -60l-41 205
q178 74 388 74q213 0 323.5 -87.5t110.5 -248.5q0 -64 -23 -154l-162 -608h-243l37 141q-157 -164 -351 -164zM584 1219l-117 57q103 217 244 217q39 0 67 -13t64 -42q55 -41 71 -46q9 -3 19 -3q35 0 60.5 25t58.5 81l118 -57q-103 -217 -245 -217q-39 0 -67 13t-64 42
q-4 3 -13 9t-12 8.5t-10 7t-10 6.5t-8 5t-8 4t-7.5 3t-7.5 2.5t-7 1t-8 0.5q-35 0 -62 -26t-56 -78z" />
    <glyph glyph-name="adieresis" unicode="&#xe4;" horiz-adv-x="1193" 
d="M432 1219l66 241h252l-66 -241h-252zM840 1219l65 241h252l-67 -241h-250zM453 160q112 0 207 76t120 178l13 47q-121 41 -246 41q-123 0 -194.5 -54t-71.5 -141q0 -71 45.5 -109t126.5 -38zM356 -23q-142 0 -235.5 82t-93.5 215q0 184 133 287t348 103q166 0 323 -54
l7 23q12 50 12 86q0 75 -58 117.5t-178 42.5q-146 0 -297 -60l-41 205q178 74 388 74q213 0 323.5 -87.5t110.5 -248.5q0 -64 -23 -154l-162 -608h-243l37 141q-157 -164 -351 -164z" />
    <glyph glyph-name="aring" unicode="&#xe5;" horiz-adv-x="1193" 
d="M799 1315q60 0 100.5 45.5t40.5 107.5q0 46 -28 74.5t-78 28.5q-60 0 -101 -46t-41 -108q0 -45 28.5 -73.5t78.5 -28.5zM797 1217q-99 0 -158 55.5t-59 142.5q0 103 76 178.5t180 75.5q98 0 157.5 -55.5t59.5 -143.5q0 -104 -75.5 -178.5t-180.5 -74.5zM453 160
q112 0 207 76t120 178l13 47q-121 41 -246 41q-123 0 -194.5 -54t-71.5 -141q0 -71 45.5 -109t126.5 -38zM356 -23q-142 0 -235.5 82t-93.5 215q0 184 133 287t348 103q166 0 323 -54l7 23q12 50 12 86q0 75 -58 117.5t-178 42.5q-146 0 -297 -60l-41 205q178 74 388 74
q213 0 323.5 -87.5t110.5 -248.5q0 -64 -23 -154l-162 -608h-243l37 141q-157 -164 -351 -164z" />
    <glyph glyph-name="ae" unicode="&#xe6;" horiz-adv-x="1941" 
d="M819 453q-137 49 -272 49q-123 0 -194.5 -54t-71.5 -141q0 -72 49 -109.5t141 -37.5q83 0 184.5 50.5t173.5 125.5q-10 65 -10 117zM1065 618h563q8 24 8 76q0 91 -53.5 149t-161.5 58q-122 0 -218 -78.5t-138 -204.5zM883 188q-110 -101 -224 -156t-253 -55
q-176 0 -277.5 84.5t-101.5 227.5q0 176 133 275.5t348 99.5q166 0 323 -54l7 23q12 50 12 86q0 75 -58 117.5t-178 42.5q-146 0 -297 -60l-41 205q178 74 388 74q297 0 374 -185q81 90 186 140.5t224 50.5q197 0 310.5 -118.5t113.5 -301.5q0 -114 -47 -229h-787
q0 -127 72.5 -202t208.5 -75q76 0 140 25t138 80l117 -158q-77 -68 -184 -109t-234 -41q-141 0 -247 54.5t-166 158.5z" />
    <glyph glyph-name="ccedilla" unicode="&#xe7;" horiz-adv-x="1148" 
d="M180 -248l238 248q-150 49 -239 168.5t-89 288.5q0 130 52 250t138.5 206.5t204 138.5t244.5 52q293 0 438 -246l-192 -131q-32 51 -64 84t-84 55.5t-118 22.5q-72 0 -140 -35.5t-118.5 -93.5t-81.5 -137.5t-31 -163.5q0 -124 74 -197.5t182 -73.5q77 0 141 30t135 91
l131 -162q-94 -84 -188.5 -127.5t-220.5 -44.5h-2l-219 -313z" />
    <glyph glyph-name="egrave" unicode="&#xe8;" horiz-adv-x="1228" 
d="M713 1219l-187 235l232 100l125 -335h-170zM352 621h561q11 33 11 73q0 91 -54 149t-161 58q-125 0 -220 -77t-137 -203zM1112 451h-786q2 -126 74 -199.5t206 -73.5q77 0 142 25t135 80l118 -158q-186 -150 -419 -150q-226 0 -359 128t-133 346q0 120 47.5 237t129 210
t202.5 150.5t258 57.5q201 0 316.5 -118.5t115.5 -301.5q0 -112 -47 -233z" />
    <glyph glyph-name="eacute" unicode="&#xe9;" horiz-adv-x="1228" 
d="M600 1219l307 335l221 -100l-313 -235h-215zM352 621h561q11 33 11 73q0 91 -54 149t-161 58q-125 0 -220 -77t-137 -203zM1112 451h-786q2 -126 74 -199.5t206 -73.5q77 0 142 25t135 80l118 -158q-186 -150 -419 -150q-226 0 -359 128t-133 346q0 120 47.5 237t129 210
t202.5 150.5t258 57.5q201 0 316.5 -118.5t115.5 -301.5q0 -112 -47 -233z" />
    <glyph glyph-name="ecircumflex" unicode="&#xea;" horiz-adv-x="1228" 
d="M414 1219l317 299h232l157 -299h-186l-119 137l-197 -137h-204zM352 621h561q11 33 11 73q0 91 -54 149t-161 58q-125 0 -220 -77t-137 -203zM1112 451h-786q2 -126 74 -199.5t206 -73.5q77 0 142 25t135 80l118 -158q-186 -150 -419 -150q-226 0 -359 128t-133 346
q0 120 47.5 237t129 210t202.5 150.5t258 57.5q201 0 316.5 -118.5t115.5 -301.5q0 -112 -47 -233z" />
    <glyph glyph-name="edieresis" unicode="&#xeb;" horiz-adv-x="1228" 
d="M444 1219l66 241h252l-66 -241h-252zM852 1219l66 241h251l-67 -241h-250zM352 621h561q11 33 11 73q0 91 -54 149t-161 58q-125 0 -220 -77t-137 -203zM1112 451h-786q2 -126 74 -199.5t206 -73.5q77 0 142 25t135 80l118 -158q-186 -150 -419 -150q-226 0 -359 128
t-133 346q0 120 47.5 237t129 210t202.5 150.5t258 57.5q201 0 316.5 -118.5t115.5 -301.5q0 -112 -47 -233z" />
    <glyph glyph-name="igrave" unicode="&#xec;" horiz-adv-x="585" 
d="M408 1219l-187 235l232 100l125 -335h-170zM25 0l290 1081h248l-291 -1081h-247z" />
    <glyph glyph-name="iacute" unicode="&#xed;" horiz-adv-x="585" 
d="M324 1219l307 335l221 -100l-313 -235h-215zM25 0l290 1081h248l-291 -1081h-247z" />
    <glyph glyph-name="icircumflex" unicode="&#xee;" horiz-adv-x="585" 
d="M106 1219l318 299h231l158 -299h-186l-119 137l-197 -137h-205zM25 0l290 1081h248l-291 -1081h-247z" />
    <glyph glyph-name="idieresis" unicode="&#xef;" horiz-adv-x="585" 
d="M139 1219l66 241h252l-66 -241h-252zM547 1219l65 241h252l-67 -241h-250zM25 0l290 1081h248l-291 -1081h-247z" />
    <glyph glyph-name="eth" unicode="&#xf0;" horiz-adv-x="1292" 
d="M592 188q149 0 251.5 107t102.5 250q0 119 -74.5 193.5t-201.5 74.5q-145 0 -245.5 -105t-100.5 -249q0 -126 74 -198.5t194 -72.5zM575 -25q-217 0 -354 131t-137 338q0 149 75 276.5t201 201t271 73.5q182 0 311 -116l-145 327l-289 -112l-66 131l293 114l-69 156h252
l32 -76l236 92l65 -131l-243 -94l98 -237q92 -215 92 -410q0 -134 -44 -254.5t-122.5 -211.5t-197 -144.5t-259.5 -53.5z" />
    <glyph glyph-name="ntilde" unicode="&#xf1;" horiz-adv-x="1263" 
d="M547 1208l-137 66q117 250 282 250q47 0 80.5 -15.5t73.5 -48.5q41 -33 61 -44t45 -11q40 0 70.5 30t64.5 91l140 -66q-117 -250 -285 -250q-47 0 -80.5 15.5t-73.5 48.5q-32 24 -44 32.5t-28 15.5t-32 7q-40 0 -71.5 -30.5t-65.5 -90.5zM10 0l289 1081h248l-37 -139
q76 76 154 119t174 43q152 0 240.5 -87.5t88.5 -236.5q0 -64 -32 -190l-156 -590h-248l160 600q16 56 16 109q0 82 -48.5 126t-139.5 44q-103 0 -183.5 -74.5t-113.5 -196.5l-164 -608h-248z" />
    <glyph glyph-name="ograve" unicode="&#xf2;" horiz-adv-x="1323" 
d="M735 1219l-186 235l231 100l125 -335h-170zM614 190q100 0 187 62t135.5 156.5t48.5 193.5q0 134 -75.5 210.5t-200.5 76.5q-102 0 -189 -63t-134.5 -157.5t-47.5 -191.5q0 -134 75.5 -210.5t200.5 -76.5zM600 -25q-229 0 -368.5 138.5t-139.5 355.5q0 121 50 237
t134 203.5t201.5 141t245.5 53.5q229 0 368.5 -139t139.5 -357q0 -122 -50.5 -238t-135.5 -202.5t-202 -139.5t-243 -53z" />
    <glyph glyph-name="oacute" unicode="&#xf3;" horiz-adv-x="1323" 
d="M610 1219l308 335l221 -100l-314 -235h-215zM614 190q100 0 187 62t135.5 156.5t48.5 193.5q0 134 -75.5 210.5t-200.5 76.5q-102 0 -189 -63t-134.5 -157.5t-47.5 -191.5q0 -134 75.5 -210.5t200.5 -76.5zM600 -25q-229 0 -368.5 138.5t-139.5 355.5q0 121 50 237
t134 203.5t201.5 141t245.5 53.5q229 0 368.5 -139t139.5 -357q0 -122 -50.5 -238t-135.5 -202.5t-202 -139.5t-243 -53z" />
    <glyph glyph-name="ocircumflex" unicode="&#xf4;" horiz-adv-x="1323" 
d="M440 1219l318 299h231l158 -299h-186l-119 137l-197 -137h-205zM614 190q100 0 187 62t135.5 156.5t48.5 193.5q0 134 -75.5 210.5t-200.5 76.5q-102 0 -189 -63t-134.5 -157.5t-47.5 -191.5q0 -134 75.5 -210.5t200.5 -76.5zM600 -25q-229 0 -368.5 138.5t-139.5 355.5
q0 121 50 237t134 203.5t201.5 141t245.5 53.5q229 0 368.5 -139t139.5 -357q0 -122 -50.5 -238t-135.5 -202.5t-202 -139.5t-243 -53z" />
    <glyph glyph-name="otilde" unicode="&#xf5;" horiz-adv-x="1323" 
d="M614 190q100 0 187 62t135.5 156.5t48.5 193.5q0 134 -75.5 210.5t-200.5 76.5q-102 0 -189 -63t-134.5 -157.5t-47.5 -191.5q0 -134 75.5 -210.5t200.5 -76.5zM600 -25q-229 0 -368.5 138.5t-139.5 355.5q0 121 50 237t134 203.5t201.5 141t245.5 53.5q229 0 368.5 -139
t139.5 -357q0 -122 -50.5 -238t-135.5 -202.5t-202 -139.5t-243 -53zM590 1219l-117 57q103 217 244 217q39 0 67 -13t64 -42q55 -41 71 -46q9 -3 19 -3q35 0 60.5 25t58.5 81l119 -57q-103 -217 -246 -217q-39 0 -67 13t-64 42q-6 4 -16 11.5t-14 10t-11.5 7.5t-11 7
t-9.5 5t-9.5 3.5t-8.5 1.5t-10 1q-35 0 -62.5 -26.5t-56.5 -77.5z" />
    <glyph glyph-name="odieresis" unicode="&#xf6;" horiz-adv-x="1323" 
d="M461 1219l65 241h252l-65 -241h-252zM868 1219l66 241h252l-68 -241h-250zM614 190q100 0 187 62t135.5 156.5t48.5 193.5q0 134 -75.5 210.5t-200.5 76.5q-102 0 -189 -63t-134.5 -157.5t-47.5 -191.5q0 -134 75.5 -210.5t200.5 -76.5zM600 -25q-229 0 -368.5 138.5
t-139.5 355.5q0 121 50 237t134 203.5t201.5 141t245.5 53.5q229 0 368.5 -139t139.5 -357q0 -122 -50.5 -238t-135.5 -202.5t-202 -139.5t-243 -53z" />
    <glyph glyph-name="oslash" unicode="&#xf8;" horiz-adv-x="1323" 
d="M608 182q80 0 153 37.5t123 97.5t79.5 135.5t29.5 149.5q0 68 -18 117l-547 -479q70 -58 180 -58zM346 371l543 473q-71 53 -174 53q-81 0 -154 -38t-122.5 -98t-79 -135t-29.5 -149q0 -53 16 -106zM600 -25q-204 0 -346 119l-119 -104h-233l254 223q-64 113 -64 256
q0 121 50 237t134 203.5t201.5 141t245.5 53.5q204 0 338 -115l119 105h231l-248 -220q68 -115 68 -266q0 -122 -50.5 -238t-135.5 -202.5t-202 -139.5t-243 -53z" />
    <glyph glyph-name="ugrave" unicode="&#xf9;" horiz-adv-x="1265" 
d="M756 1219l-187 235l232 100l125 -335h-170zM428 -23q-152 0 -241 87.5t-89 236.5q0 61 33 191l158 589h248l-162 -600q-15 -62 -15 -108q0 -82 48 -126t139 -44q104 0 184.5 74t112.5 196l164 608h247l-288 -1081h-248l37 139q-76 -76 -154 -119t-174 -43z" />
    <glyph glyph-name="uacute" unicode="&#xfa;" horiz-adv-x="1265" 
d="M631 1219l307 335l221 -100l-313 -235h-215zM428 -23q-152 0 -241 87.5t-89 236.5q0 61 33 191l158 589h248l-162 -600q-15 -62 -15 -108q0 -82 48 -126t139 -44q104 0 184.5 74t112.5 196l164 608h247l-288 -1081h-248l37 139q-76 -76 -154 -119t-174 -43z" />
    <glyph glyph-name="ucircumflex" unicode="&#xfb;" horiz-adv-x="1265" 
d="M442 1219l318 299h231l158 -299h-186l-119 137l-197 -137h-205zM428 -23q-152 0 -241 87.5t-89 236.5q0 61 33 191l158 589h248l-162 -600q-15 -62 -15 -108q0 -82 48 -126t139 -44q104 0 184.5 74t112.5 196l164 608h247l-288 -1081h-248l37 139q-76 -76 -154 -119
t-174 -43z" />
    <glyph glyph-name="udieresis" unicode="&#xfc;" horiz-adv-x="1265" 
d="M471 1219l66 241h251l-65 -241h-252zM879 1219l65 241h252l-68 -241h-249zM428 -23q-152 0 -241 87.5t-89 236.5q0 61 33 191l158 589h248l-162 -600q-15 -62 -15 -108q0 -82 48 -126t139 -44q104 0 184.5 74t112.5 196l164 608h247l-288 -1081h-248l37 139
q-76 -76 -154 -119t-174 -43z" />
    <glyph glyph-name="yacute" unicode="&#xfd;" horiz-adv-x="1198" 
d="M604 1219l307 335l222 -100l-314 -235h-215zM133 -334q-137 0 -244 74l131 182q68 -47 140 -47q50 0 91 26t93 95l-158 1085h254l90 -800l478 800h270l-698 -1112q-108 -164 -211.5 -233.5t-235.5 -69.5z" />
    <glyph glyph-name="thorn" unicode="&#xfe;" horiz-adv-x="1368" 
d="M645 188q153 0 263 128t110 307q0 124 -69.5 196t-186.5 72q-98 0 -188 -58.5t-145.5 -158t-55.5 -211.5q0 -120 75 -197.5t197 -77.5zM-78 -328l490 1823h247l-151 -557q80 80 163 123t183 43q185 0 303.5 -126t118.5 -337q0 -140 -50.5 -265t-133.5 -211.5t-192.5 -137
t-225.5 -50.5q-247 0 -365 216l-139 -521h-248z" />
    <glyph glyph-name="ydieresis" unicode="&#xff;" horiz-adv-x="1198" 
d="M420 1219l65 241h252l-65 -241h-252zM827 1219l66 241h252l-68 -241h-250zM133 -334q-137 0 -244 74l131 182q68 -47 140 -47q50 0 91 26t93 95l-158 1085h254l90 -800l478 800h270l-698 -1112q-108 -164 -211.5 -233.5t-235.5 -69.5z" />
    <glyph glyph-name="Abreve" unicode="&#x102;" horiz-adv-x="1562" 
d="M1063 1567q-141 0 -208 79t-54 197q2 10 2 23h166q-22 -53 10 -91t115 -34q118 0 211 125h168q-56 -137 -166.5 -218t-243.5 -81zM563 569h494l-92 580zM-102 0l1017 1444h242l244 -1444h-258l-56 346h-677l-240 -346h-272z" />
    <glyph glyph-name="abreve" unicode="&#x103;" horiz-adv-x="1193" 
d="M825 1214q-141 0 -208 79.5t-54 197.5q2 10 2 22h166q-22 -53 10 -90.5t115 -33.5q119 0 211 124h168q-56 -137 -166.5 -218t-243.5 -81zM453 160q112 0 207 76t120 178l13 47q-121 41 -246 41q-123 0 -194.5 -54t-71.5 -141q0 -71 45.5 -109t126.5 -38zM356 -23
q-142 0 -235.5 82t-93.5 215q0 184 133 287t348 103q166 0 323 -54l7 23q12 50 12 86q0 75 -58 117.5t-178 42.5q-146 0 -297 -60l-41 205q178 74 388 74q213 0 323.5 -87.5t110.5 -248.5q0 -64 -23 -154l-162 -608h-243l37 141q-157 -164 -351 -164z" />
    <glyph glyph-name="Dcroat" unicode="&#x110;" horiz-adv-x="1587" 
d="M76 610l59 211h123l166 613h389q372 0 559 -187q158 -158 158 -418q0 -161 -59.5 -304.5t-172.5 -256.5q-268 -268 -745 -268h-514l164 610h-127zM352 229h232q329 0 524 195q160 160 160 395q0 163 -101 264q-121 121 -372 121h-179l-104 -383h330l-60 -211h-327z" />
    <glyph glyph-name="dcroat" unicode="&#x111;" horiz-adv-x="1368" 
d="M512 -23q-184 0 -303 126t-119 337q0 140 50.5 265t133.5 211.5t192.5 137t225.5 50.5q248 0 365 -215l90 342h-262l43 151h260l31 113h247l-30 -113h153l-43 -151h-151l-328 -1231h-248l39 143q-80 -80 -163 -123t-183 -43zM606 188q98 0 188 59t145.5 159t55.5 212
q0 119 -76.5 196t-197.5 77q-153 0 -263 -126.5t-110 -307.5q0 -123 70.5 -196t187.5 -73z" />
    <glyph glyph-name="Itilde" unicode="&#x128;" horiz-adv-x="649" 
d="M383 1554l-117 58q103 217 244 217q39 0 67 -13t64 -42q6 -4 16 -12t14 -11t11.5 -8t11 -7t9 -5t9.5 -4t9 -2t10 -1q35 0 60 25t59 82l119 -57q-103 -218 -246 -218q-39 0 -67 13.5t-64 42.5q-6 4 -16 11.5t-14 10t-11.5 7.5t-11 7t-9.5 5t-9.5 3.5t-8.5 1.5t-10 1
q-34 0 -62 -26.5t-57 -78.5zM53 0l385 1434h254l-385 -1434h-254z" />
    <glyph glyph-name="itilde" unicode="&#x129;" horiz-adv-x="585" 
d="M25 0l290 1081h248l-291 -1081h-247zM246 1219l-117 57q103 217 244 217q39 0 67 -13t64 -42q55 -41 71 -46q9 -3 19 -3q35 0 60.5 25t58.5 81l118 -57q-103 -217 -245 -217q-39 0 -67 13t-64 42q-6 4 -16 11.5t-14 10t-11.5 7.5t-11 7t-9.5 5t-9.5 3.5t-8.5 1.5t-10 1
q-35 0 -62.5 -26.5t-56.5 -77.5z" />
    <glyph glyph-name="dotlessi" unicode="&#x131;" horiz-adv-x="585" 
d="M25 0l290 1081h248l-291 -1081h-247z" />
    <glyph glyph-name="Lslash" unicode="&#x141;" horiz-adv-x="1341" 
d="M115 0l151 569l-164 -45l64 234l166 47l168 629h245l-149 -555l451 125l-64 -234l-448 -125l-113 -416h760l-62 -229h-1005z" />
    <glyph glyph-name="lslash" unicode="&#x142;" horiz-adv-x="704" 
d="M86 0l164 606l-166 -45l61 236l166 45l176 653h248l-155 -577l168 45l-64 -236l-166 -45l-184 -682h-248z" />
    <glyph glyph-name="OE" unicode="&#x152;" horiz-adv-x="2244" 
d="M889 229h129l262 975h-180q-333 0 -527 -194q-157 -157 -157 -396q0 -166 98 -264q121 -121 375 -121zM1985 0h-1117q-372 0 -567 195q-147 147 -147 409q0 336 231 561q269 269 743 269h1231l-61 -226h-766l-100 -374h675l-61 -224h-674l-104 -385h778z" />
    <glyph glyph-name="oe" unicode="&#x153;" horiz-adv-x="2115" 
d="M612 190q103 0 190 59.5t135 153t48 195.5q0 134 -75 212.5t-199 78.5q-104 0 -191 -61t-134.5 -155t-47.5 -196q0 -130 75.5 -208.5t198.5 -78.5zM1241 618h561q10 33 10 76q0 91 -54 149t-161 58q-122 0 -218 -78.5t-138 -204.5zM2001 455h-787q0 -127 72.5 -202
t208.5 -75q76 0 140.5 25t138.5 80l116 -158q-78 -68 -184.5 -109t-232.5 -41q-152 0 -259 62t-157 174q-83 -109 -198.5 -172.5t-258.5 -63.5q-228 0 -368 139t-140 355q0 165 83.5 311.5t229 235t316.5 88.5q158 0 267.5 -68.5t158.5 -183.5q81 114 199.5 183t269.5 69
q203 0 317.5 -118t114.5 -302q0 -114 -47 -229z" />
    <glyph glyph-name="Scaron" unicode="&#x160;" horiz-adv-x="1304" 
d="M772 1552l-158 299h185l119 -135l198 135h205l-320 -299h-229zM606 -20q-406 0 -608 268l190 158q90 -103 193.5 -153t239.5 -50q123 0 199.5 54t76.5 144q0 66 -55 110.5t-209 106.5q-89 36 -151.5 70.5t-114 80.5t-77.5 104.5t-26 130.5q0 132 74 235.5t199.5 159
t277.5 55.5q334 0 526 -215l-176 -172q-85 83 -172 123.5t-196 40.5q-121 0 -194 -56.5t-73 -132.5q0 -66 59.5 -110.5t219.5 -108.5q180 -72 268 -158.5t88 -226.5q0 -137 -77 -242.5t-203.5 -160.5t-278.5 -55z" />
    <glyph glyph-name="scaron" unicode="&#x161;" horiz-adv-x="1019" 
d="M565 1219l-157 299h184l119 -136l198 136h205l-319 -299h-230zM444 -25q-129 0 -258 50t-219 145l148 152q152 -152 348 -152q75 0 124.5 35t49.5 94q0 40 -36 69t-122 66q-76 30 -126 56.5t-95.5 63t-67.5 83.5t-22 106q0 155 116.5 257t307.5 102q122 0 232.5 -43.5
t183.5 -108.5l-138 -159q-148 118 -297 118q-78 0 -121.5 -34t-43.5 -89q0 -40 38.5 -71t133.5 -70q57 -25 95 -44.5t79.5 -47.5t66 -57t40.5 -68.5t16 -85.5q0 -165 -122.5 -266t-310.5 -101z" />
    <glyph glyph-name="Utilde" unicode="&#x168;" horiz-adv-x="1560" 
d="M815 1554l-117 58q103 217 244 217q39 0 67 -13t64 -42q6 -4 16 -12t14 -11t11.5 -8t11 -7t9 -5t9.5 -4t9 -2t10 -1q35 0 60 25t59 82l119 -57q-103 -218 -246 -218q-39 0 -67 13.5t-64 42.5q-6 4 -16 11.5t-14 10t-11.5 7.5t-11 7t-9.5 5t-9.5 3.5t-8.5 1.5t-10 1
q-34 0 -62 -26.5t-57 -78.5zM707 -23q-252 0 -391.5 126.5t-139.5 347.5q0 118 33 227l201 756h252l-211 -791q-21 -71 -21 -158q0 -126 77.5 -201t223.5 -75q160 0 268 108q109 109 158 301l219 816h252l-229 -854q-74 -275 -223 -424q-179 -179 -469 -179z" />
    <glyph glyph-name="utilde" unicode="&#x169;" horiz-adv-x="1265" 
d="M578 1219l-117 57q103 217 244 217q39 0 67 -13t64 -42q55 -41 71 -46q9 -3 19 -3q35 0 59.5 24.5t58.5 81.5l119 -57q-103 -217 -245 -217q-39 0 -68 13.5t-64 41.5q-6 4 -16 11.5t-14 10t-11.5 7.5t-11 7t-9.5 5t-9.5 3.5t-8.5 1.5t-10 1q-35 0 -62 -26t-56 -78z
M428 -23q-152 0 -241 87.5t-89 236.5q0 61 33 191l158 589h248l-162 -600q-15 -62 -15 -108q0 -82 48 -126t139 -44q104 0 184.5 74t112.5 196l164 608h247l-288 -1081h-248l37 139q-76 -76 -154 -119t-174 -43z" />
    <glyph glyph-name="Ydieresis" unicode="&#x178;" horiz-adv-x="1341" 
d="M580 1552l65 242h252l-66 -242h-251zM987 1552l66 242h252l-68 -242h-250zM387 0l152 569l-320 865h279l217 -648l567 648h311l-809 -891l-145 -543h-252z" />
    <glyph glyph-name="Zcaron" unicode="&#x17d;" horiz-adv-x="1394" 
d="M823 1552l-157 299h184l119 -135l198 135h205l-319 -299h-230zM-39 0l49 186l1096 1024h-793l62 224h1141l-52 -187l-1095 -1024h827l-59 -223h-1176z" />
    <glyph glyph-name="zcaron" unicode="&#x17e;" horiz-adv-x="1134" 
d="M604 1219l-158 299h185l119 -136l198 136h205l-319 -299h-230zM-49 0l47 170l795 709h-584l53 202h912l-46 -170l-796 -708h612l-55 -203h-938z" />
    <glyph glyph-name="florin" unicode="&#x192;" horiz-adv-x="1101" 
d="M109 -18q-82 0 -164 16l55 203q58 -15 96 -15q108 0 176 156l170 387h-168l56 207h205l92 205q132 311 401 311q137 0 225 -37l-57 -205q-62 33 -154 33q-68 0 -116.5 -42t-87.5 -130l-60 -135h271l-56 -207h-307l-203 -461q-69 -154 -161 -220t-213 -66z" />
    <glyph glyph-name="Ohorn" unicode="&#x1a0;" 
d="M799 -25q-142 0 -262.5 48.5t-203.5 132.5t-130 200t-47 248q0 129 40 255t116.5 233.5t179 189.5t236 129t278.5 47q143 0 262 -49q37 -15 59 -27q62 6 105 25q45 20 51 49q24 94 -2 182h231q8 -59 -1 -127t-17 -90q-35 -120 -144 -184q-20 -12 -30 -16q43 -53 84 -144
q47 -115 47 -248q0 -162 -64 -316.5t-174.5 -273.5t-271.5 -191.5t-342 -72.5zM825 207q121 0 228.5 54t179.5 140.5t114 195t42 218.5q0 182 -110 297t-298 115q-121 0 -228 -54t-179.5 -140.5t-114 -195.5t-41.5 -219q0 -182 109.5 -296.5t297.5 -114.5z" />
    <glyph glyph-name="ohorn" unicode="&#x1a1;" horiz-adv-x="1323" 
d="M600 -25q-229 0 -368.5 138.5t-139.5 355.5q0 121 50 237t134 203.5t201.5 141t245.5 53.5q119 0 209 -37q21 -9 39 -18q57 6 98 24q45 20 51 49q24 94 -2 183h232q8 -59 -1.5 -127t-17.5 -91q-35 -121 -143 -184q-5 -3 -16.5 -9t-16.5 -9q30 -53 39 -80q37 -87 37 -197
q0 -122 -50.5 -238t-135.5 -202.5t-202 -139.5t-243 -53zM614 190q100 0 187 62t135.5 156.5t48.5 193.5q0 134 -75.5 210.5t-200.5 76.5q-102 0 -189 -63t-134.5 -157.5t-47.5 -191.5q0 -134 75.5 -210.5t200.5 -76.5z" />
    <glyph glyph-name="Uhorn" unicode="&#x1af;" horiz-adv-x="1646" 
d="M707 -23q-252 0 -391.5 126.5t-139.5 347.5q0 118 33 227l201 756h252l-211 -791q-21 -71 -21 -158q0 -126 77.5 -201t223.5 -75q160 0 268 108q109 109 158 301l219 816h174q18 3 33 12q45 20 51 49q24 94 -2 182h232q8 -59 -1 -126.5t-18 -90.5q-35 -121 -143 -184
q-52 -32 -131 -51l-172 -645q-74 -275 -223 -424q-179 -179 -469 -179z" />
    <glyph glyph-name="uhorn" unicode="&#x1b0;" horiz-adv-x="1333" 
d="M428 -23q-152 0 -241 87.5t-89 236.5q0 61 33 191l158 589h248l-162 -600q-15 -62 -15 -108q0 -82 48 -126t139 -44q104 0 184.5 74t112.5 196l164 608h139q32 6 59 19q45 20 51 49q24 94 -2 182h232q8 -59 -1 -126.5t-18 -90.5q-35 -121 -143 -184q-49 -32 -123 -51
l-235 -879h-248l37 139q-76 -76 -154 -119t-174 -43z" />
    <glyph glyph-name="circumflex" unicode="&#x2c6;" horiz-adv-x="1024" 
d="M342 1219l317 299h232l158 -299h-187l-119 137l-196 -137h-205z" />
    <glyph glyph-name="caron" unicode="&#x2c7;" horiz-adv-x="1024" 
d="M573 1219l-157 299h184l119 -136l199 136h204l-319 -299h-230z" />
    <glyph glyph-name="breve" unicode="&#x2d8;" horiz-adv-x="1024" 
d="M723 1214q-148 0 -227.5 79.5t-79.5 197.5q0 21 2 27h174q2 -57 40.5 -93t112.5 -36q60 0 111.5 35.5t89.5 93.5h178q-44 -139 -154 -221.5t-247 -82.5z" />
    <glyph glyph-name="dotaccent" unicode="&#x2d9;" horiz-adv-x="1024" 
d="M567 1217l68 245h254l-66 -245h-256z" />
    <glyph glyph-name="ring" unicode="&#x2da;" horiz-adv-x="1024" 
d="M735 1315q60 0 101 46t41 107q0 45 -28.5 74t-78.5 29q-60 0 -100.5 -46t-40.5 -108q0 -45 28 -73.5t78 -28.5zM733 1217q-99 0 -158 55.5t-59 142.5q0 103 76 178.5t180 75.5q98 0 157.5 -55.5t59.5 -143.5q0 -104 -75.5 -178.5t-180.5 -74.5z" />
    <glyph glyph-name="ogonek" unicode="&#x2db;" horiz-adv-x="1024" 
d="M502 -221l-31 -115q-165 -10 -251.5 33.5t-86.5 132.5q0 40 22 92.5t54 97.5h176q-45 -78 -45 -137q0 -95 162 -104z" />
    <glyph glyph-name="tilde" unicode="&#x2dc;" horiz-adv-x="1024" 
d="M459 1208l-137 66q117 250 282 250q47 0 80.5 -15.5t73.5 -48.5q41 -33 61 -44t45 -11q40 0 70.5 30t64.5 91l140 -66q-117 -250 -285 -250q-47 0 -80.5 15.5t-73.5 48.5q-32 24 -44 32.5t-28 15.5t-32 7q-40 0 -71.5 -30.5t-65.5 -90.5z" />
    <glyph glyph-name="hungarumlaut" unicode="&#x2dd;" horiz-adv-x="1024" 
d="M295 1219l305 335l191 -100l-312 -235h-184zM668 1219l307 335l190 -100l-313 -235h-184z" />
    <glyph glyph-name="Omega" unicode="&#x3a9;" horiz-adv-x="1624" 
d="M68 0l233 868h-137l57 213h137l21 88q47 171 149.5 253.5t262.5 82.5q125 0 213 -37l-56 -206q-71 32 -151 32q-138 0 -179 -151l-16 -62h299l-57 -213h-295l-234 -868h-247zM879 0l233 868h-137l57 213h137l23 88q83 336 410 336q125 0 213 -37l-56 -206q-71 32 -151 32
q-134 0 -178 -151l-17 -62h299l-57 -213h-295l-234 -868h-247z" />
    <glyph glyph-name="Omega" unicode="&#x2126;" horiz-adv-x="1624" 
d="M68 0l233 868h-137l57 213h137l21 88q47 171 149.5 253.5t262.5 82.5q125 0 213 -37l-56 -206q-71 32 -151 32q-138 0 -179 -151l-16 -62h299l-57 -213h-295l-234 -868h-247zM879 0l233 868h-137l57 213h137l23 88q83 336 410 336q125 0 213 -37l-56 -206q-71 32 -151 32
q-134 0 -178 -151l-17 -62h299l-57 -213h-295l-234 -868h-247z" />
    <glyph glyph-name="pi" unicode="&#x3c0;" horiz-adv-x="1699" 
d="M782 721h150q74 0 117 36t43 97q0 65 -42.5 98t-117.5 33h-150v-264zM631 342v778h313q140 0 220.5 -70.5t80.5 -193.5q0 -129 -90 -198.5t-225 -69.5h-148v-246h-151zM893 49q139 0 263 53t212 143t139.5 214t51.5 260q0 182 -86 334.5t-238.5 241.5t-337.5 89
q-139 0 -263 -53t-211.5 -143t-138.5 -213t-51 -260t50.5 -259.5t137.5 -212t210 -142t262 -52.5zM893 -25q-204 0 -374.5 100t-267.5 270t-97 370q0 149 58 286t156.5 237t236.5 160t292 60q153 0 290.5 -59t235.5 -158t155.5 -235.5t57.5 -286.5q0 -149 -58 -286
t-156.5 -237.5t-237 -160.5t-291.5 -60z" />
    <glyph glyph-name="uni1EA0" unicode="&#x1ea0;" horiz-adv-x="1562" 
d="M442 -393l70 256h229l-69 -256h-230zM563 569h494l-92 580zM-102 0l1017 1444h242l244 -1444h-258l-56 346h-677l-240 -346h-272z" />
    <glyph glyph-name="uni1EA1" unicode="&#x1ea1;" horiz-adv-x="1193" 
d="M223 -393l70 256h229l-69 -256h-230zM453 160q112 0 207 76t120 178l13 47q-121 41 -246 41q-123 0 -194.5 -54t-71.5 -141q0 -71 45.5 -109t126.5 -38zM356 -23q-142 0 -235.5 82t-93.5 215q0 184 133 287t348 103q166 0 323 -54l7 23q12 50 12 86q0 75 -58 117.5
t-178 42.5q-146 0 -297 -60l-41 205q178 74 388 74q213 0 323.5 -87.5t110.5 -248.5q0 -64 -23 -154l-162 -608h-243l37 141q-157 -164 -351 -164z" />
    <glyph glyph-name="uni1EA2" unicode="&#x1ea2;" horiz-adv-x="1562" 
d="M1008 1567l47 190q66 6 116 28.5t68 59.5q9 23 -2 40.5t-45 17.5q-77 0 -125 -66l-125 64q39 49 79.5 81t79.5 45.5t67 18t61 4.5q94 0 144.5 -59t21.5 -144q-27 -82 -86 -128t-140 -72l-36 -80h-125zM563 569h494l-92 580zM-102 0l1017 1444h242l244 -1444h-258l-56 346
h-677l-240 -346h-272z" />
    <glyph glyph-name="uni1EA3" unicode="&#x1ea3;" horiz-adv-x="1193" 
d="M727 1217l47 190q66 6 116 28.5t68 59.5q9 23 -2 40t-45 17q-78 0 -125 -65l-124 63q73 91 143.5 120.5t142.5 29.5q94 0 144.5 -59t21.5 -144q-46 -143 -225 -201l-37 -79h-125zM453 160q112 0 207 76t120 178l13 47q-121 41 -246 41q-123 0 -194.5 -54t-71.5 -141
q0 -71 45.5 -109t126.5 -38zM356 -23q-142 0 -235.5 82t-93.5 215q0 184 133 287t348 103q166 0 323 -54l7 23q12 50 12 86q0 75 -58 117.5t-178 42.5q-146 0 -297 -60l-41 205q178 74 388 74q213 0 323.5 -87.5t110.5 -248.5q0 -64 -23 -154l-162 -608h-243l37 141
q-157 -164 -351 -164z" />
    <glyph glyph-name="uni1EA4" unicode="&#x1ea4;" horiz-adv-x="1562" 
d="M1339 1782l308 336l221 -101l-314 -235h-215zM674 1552l317 299h232l157 -299h-186l-119 138l-196 -138h-205zM563 569h494l-92 580zM-102 0l1017 1444h242l244 -1444h-258l-56 346h-677l-240 -346h-272z" />
    <glyph glyph-name="uni1EA5" unicode="&#x1ea5;" horiz-adv-x="1193" 
d="M1073 1448l307 336l222 -101l-314 -235h-215zM408 1219l317 299h231l158 -299h-186l-119 137l-197 -137h-204zM453 160q112 0 207 76t120 178l13 47q-121 41 -246 41q-123 0 -194.5 -54t-71.5 -141q0 -71 45.5 -109t126.5 -38zM356 -23q-142 0 -235.5 82t-93.5 215
q0 184 133 287t348 103q166 0 323 -54l7 23q12 50 12 86q0 75 -58 117.5t-178 42.5q-146 0 -297 -60l-41 205q178 74 388 74q213 0 323.5 -87.5t110.5 -248.5q0 -64 -23 -154l-162 -608h-243l37 141q-157 -164 -351 -164z" />
    <glyph glyph-name="uni1EA6" unicode="&#x1ea6;" horiz-adv-x="1562" 
d="M1386 1782l-186 235l232 101l124 -336h-170zM674 1552l317 299h232l157 -299h-186l-119 138l-196 -138h-205zM563 569h494l-92 580zM-102 0l1017 1444h242l244 -1444h-258l-56 346h-677l-240 -346h-272z" />
    <glyph glyph-name="uni1EA7" unicode="&#x1ea7;" horiz-adv-x="1193" 
d="M1120 1448l-186 235l231 101l125 -336h-170zM408 1219l317 299h231l158 -299h-186l-119 137l-197 -137h-204zM453 160q112 0 207 76t120 178l13 47q-121 41 -246 41q-123 0 -194.5 -54t-71.5 -141q0 -71 45.5 -109t126.5 -38zM356 -23q-142 0 -235.5 82t-93.5 215
q0 184 133 287t348 103q166 0 323 -54l7 23q12 50 12 86q0 75 -58 117.5t-178 42.5q-146 0 -297 -60l-41 205q178 74 388 74q213 0 323.5 -87.5t110.5 -248.5q0 -64 -23 -154l-162 -608h-243l37 141q-157 -164 -351 -164z" />
    <glyph glyph-name="uni1EA8" unicode="&#x1ea8;" horiz-adv-x="1562" 
d="M1321 1784l45 174q145 14 180 80q16 51 -47 51q-75 0 -121 -59l-121 57q69 84 137.5 110.5t141.5 26.5q91 0 140 -53.5t20 -130.5q-26 -75 -82 -116.5t-135 -68.5l-37 -71h-121zM674 1552l317 299h232l157 -299h-186l-119 138l-196 -138h-205zM563 569h494l-92 580z
M-102 0l1017 1444h242l244 -1444h-258l-56 346h-677l-240 -346h-272z" />
    <glyph glyph-name="uni1EA9" unicode="&#x1ea9;" horiz-adv-x="1193" 
d="M1055 1450l45 174q145 14 180 80q16 51 -47 51q-75 0 -121 -59l-121 57q69 84 137.5 110.5t141.5 26.5q91 0 140 -53.5t20 -130.5q-18 -52 -56 -90.5t-74.5 -57.5t-87.5 -36l-36 -72h-121zM408 1219l317 299h231l158 -299h-186l-119 137l-197 -137h-204zM453 160
q112 0 207 76t120 178l13 47q-121 41 -246 41q-123 0 -194.5 -54t-71.5 -141q0 -71 45.5 -109t126.5 -38zM356 -23q-142 0 -235.5 82t-93.5 215q0 184 133 287t348 103q166 0 323 -54l7 23q12 50 12 86q0 75 -58 117.5t-178 42.5q-146 0 -297 -60l-41 205q178 74 388 74
q213 0 323.5 -87.5t110.5 -248.5q0 -64 -23 -154l-162 -608h-243l37 141q-157 -164 -351 -164z" />
    <glyph glyph-name="uni1EAA" unicode="&#x1eaa;" horiz-adv-x="1562" 
d="M920 1931l-117 58q103 217 244 217q39 0 67 -13.5t64 -42.5q55 -41 71 -46q9 -3 19 -3q35 0 59.5 25t58.5 82l119 -58q-103 -217 -245 -217q-39 0 -67.5 13.5t-64.5 42.5q-6 4 -16 11.5t-14 10t-11.5 7.5t-11 7t-9.5 5t-9.5 3.5t-8.5 1.5t-10 1q-34 0 -61.5 -26.5
t-56.5 -78.5zM674 1552l317 299h232l157 -299h-186l-119 138l-196 -138h-205zM563 569h494l-92 580zM-102 0l1017 1444h242l244 -1444h-258l-56 346h-677l-240 -346h-272z" />
    <glyph glyph-name="uni1EAB" unicode="&#x1eab;" horiz-adv-x="1193" 
d="M653 1595l-116 58q103 217 243 217q39 0 67 -13t64 -42q6 -4 16 -12t14 -11t11.5 -8t11 -7t9 -5t9.5 -4t9 -2t10 -1q35 0 60 25t59 82l119 -57q-103 -218 -246 -218q-39 0 -67 13.5t-64 42.5q-6 4 -16 11.5t-14 10t-11.5 7.5t-11 7t-9.5 5t-9.5 3.5t-8.5 1.5t-10 1
q-34 0 -62 -26.5t-57 -78.5zM408 1219l317 299h231l158 -299h-186l-119 137l-197 -137h-204zM453 160q112 0 207 76t120 178l13 47q-121 41 -246 41q-123 0 -194.5 -54t-71.5 -141q0 -71 45.5 -109t126.5 -38zM356 -23q-142 0 -235.5 82t-93.5 215q0 184 133 287t348 103
q166 0 323 -54l7 23q12 50 12 86q0 75 -58 117.5t-178 42.5q-146 0 -297 -60l-41 205q178 74 388 74q213 0 323.5 -87.5t110.5 -248.5q0 -64 -23 -154l-162 -608h-243l37 141q-157 -164 -351 -164z" />
    <glyph glyph-name="uni1EAC" unicode="&#x1eac;" horiz-adv-x="1562" 
d="M442 -393l70 256h229l-69 -256h-230zM674 1552l317 299h232l157 -299h-186l-119 138l-196 -138h-205zM563 569h494l-92 580zM-102 0l1017 1444h242l244 -1444h-258l-56 346h-677l-240 -346h-272z" />
    <glyph glyph-name="uni1EAD" unicode="&#x1ead;" horiz-adv-x="1193" 
d="M223 -393l70 256h229l-69 -256h-230zM408 1219l317 299h231l158 -299h-186l-119 137l-197 -137h-204zM453 160q112 0 207 76t120 178l13 47q-121 41 -246 41q-123 0 -194.5 -54t-71.5 -141q0 -71 45.5 -109t126.5 -38zM356 -23q-142 0 -235.5 82t-93.5 215q0 184 133 287
t348 103q166 0 323 -54l7 23q12 50 12 86q0 75 -58 117.5t-178 42.5q-146 0 -297 -60l-41 205q178 74 388 74q213 0 323.5 -87.5t110.5 -248.5q0 -64 -23 -154l-162 -608h-243l37 141q-157 -164 -351 -164z" />
    <glyph glyph-name="uni1EAE" unicode="&#x1eae;" horiz-adv-x="1562" 
d="M1020 1866l307 336l221 -101l-313 -235h-215zM1063 1567q-141 0 -208 79t-54 197q2 10 2 23h166q-22 -53 10 -91t115 -34q118 0 211 125h168q-56 -137 -166.5 -218t-243.5 -81zM563 569h494l-92 580zM-102 0l1017 1444h242l244 -1444h-258l-56 346h-677l-240 -346h-272z
" />
    <glyph glyph-name="uni1EAF" unicode="&#x1eaf;" horiz-adv-x="1193" 
d="M782 1513l308 336l221 -100l-314 -236h-215zM825 1214q-141 0 -208 79.5t-54 197.5q2 10 2 22h166q-22 -53 10 -90.5t115 -33.5q119 0 211 124h168q-56 -137 -166.5 -218t-243.5 -81zM453 160q112 0 207 76t120 178l13 47q-121 41 -246 41q-123 0 -194.5 -54t-71.5 -141
q0 -71 45.5 -109t126.5 -38zM356 -23q-142 0 -235.5 82t-93.5 215q0 184 133 287t348 103q166 0 323 -54l7 23q12 50 12 86q0 75 -58 117.5t-178 42.5q-146 0 -297 -60l-41 205q178 74 388 74q213 0 323.5 -87.5t110.5 -248.5q0 -64 -23 -154l-162 -608h-243l37 141
q-157 -164 -351 -164z" />
    <glyph glyph-name="uni1EB0" unicode="&#x1eb0;" horiz-adv-x="1562" 
d="M1063 1868l-186 235l231 101l125 -336h-170zM1063 1567q-141 0 -208 79t-54 197q2 10 2 23h166q-22 -53 10 -91t115 -34q118 0 211 125h168q-56 -137 -166.5 -218t-243.5 -81zM563 569h494l-92 580zM-102 0l1017 1444h242l244 -1444h-258l-56 346h-677l-240 -346h-272z
" />
    <glyph glyph-name="uni1EB1" unicode="&#x1eb1;" horiz-adv-x="1193" 
d="M825 1516l-186 235l231 100l125 -335h-170zM825 1214q-141 0 -208 79.5t-54 197.5q2 10 2 22h166q-22 -53 10 -90.5t115 -33.5q119 0 211 124h168q-56 -137 -166.5 -218t-243.5 -81zM453 160q112 0 207 76t120 178l13 47q-121 41 -246 41q-123 0 -194.5 -54t-71.5 -141
q0 -71 45.5 -109t126.5 -38zM356 -23q-142 0 -235.5 82t-93.5 215q0 184 133 287t348 103q166 0 323 -54l7 23q12 50 12 86q0 75 -58 117.5t-178 42.5q-146 0 -297 -60l-41 205q178 74 388 74q213 0 323.5 -87.5t110.5 -248.5q0 -64 -23 -154l-162 -608h-243l37 141
q-157 -164 -351 -164z" />
    <glyph glyph-name="uni1EB2" unicode="&#x1eb2;" horiz-adv-x="1562" 
d="M1067 1868l47 180q144 14 180 84q8 23 -2.5 39t-44.5 16q-76 0 -121 -63l-122 61q75 85 142.5 113.5t137.5 28.5q92 0 141.5 -56.5t20.5 -136.5q-26 -78 -83 -120.5t-136 -69.5l-37 -76h-123zM1063 1567q-141 0 -208 79t-54 197q2 10 2 23h166q-22 -53 10 -91t115 -34
q118 0 211 125h168q-56 -137 -166.5 -218t-243.5 -81zM563 569h494l-92 580zM-102 0l1017 1444h242l244 -1444h-258l-56 346h-677l-240 -346h-272z" />
    <glyph glyph-name="uni1EB3" unicode="&#x1eb3;" horiz-adv-x="1193" 
d="M827 1516l47 180q145 14 181 84q8 23 -2.5 39t-44.5 16q-76 0 -121 -63l-123 61q75 85 142 113t138 28q92 0 141.5 -56t20.5 -136q-26 -78 -83 -121t-136 -70l-37 -75h-123zM825 1214q-141 0 -208 79.5t-54 197.5q2 10 2 22h166q-22 -53 10 -90.5t115 -33.5
q119 0 211 124h168q-56 -137 -166.5 -218t-243.5 -81zM453 160q112 0 207 76t120 178l13 47q-121 41 -246 41q-123 0 -194.5 -54t-71.5 -141q0 -71 45.5 -109t126.5 -38zM356 -23q-142 0 -235.5 82t-93.5 215q0 184 133 287t348 103q166 0 323 -54l7 23q12 50 12 86
q0 75 -58 117.5t-178 42.5q-146 0 -297 -60l-41 205q178 74 388 74q213 0 323.5 -87.5t110.5 -248.5q0 -64 -23 -154l-162 -608h-243l37 141q-157 -164 -351 -164z" />
    <glyph glyph-name="uni1EB4" unicode="&#x1eb4;" horiz-adv-x="1562" 
d="M932 1937l-117 58q103 217 244 217q39 0 67 -13t64 -42q6 -4 16 -12t14 -11t11.5 -8t11 -7t9 -5t9.5 -4t9 -2t10 -1q35 0 60 25t59 82l119 -57q-103 -218 -246 -218q-39 0 -67 13.5t-64 42.5q-6 4 -16 11.5t-14 10t-11.5 7.5t-11 7t-9.5 5t-9.5 3.5t-8.5 1.5t-10 1
q-35 0 -62.5 -26.5t-56.5 -78.5zM1063 1567q-141 0 -208 79t-54 197q2 10 2 23h166q-22 -53 10 -91t115 -34q118 0 211 125h168q-56 -137 -166.5 -218t-243.5 -81zM563 569h494l-92 580zM-102 0l1017 1444h242l244 -1444h-258l-56 346h-677l-240 -346h-272z" />
    <glyph glyph-name="uni1EB5" unicode="&#x1eb5;" horiz-adv-x="1193" 
d="M694 1585l-116 57q103 218 243 218q39 0 67 -13.5t64 -42.5q55 -41 71 -46q9 -3 19 -3q35 0 60 25t59 82l119 -58q-103 -217 -246 -217q-39 0 -67 13t-64 42q-7 5 -20.5 14.5t-18 13t-13.5 9t-13.5 7t-11 3t-13.5 1.5q-35 0 -62.5 -26.5t-56.5 -78.5zM825 1214
q-141 0 -208 79.5t-54 197.5q2 10 2 22h166q-22 -53 10 -90.5t115 -33.5q119 0 211 124h168q-56 -137 -166.5 -218t-243.5 -81zM453 160q112 0 207 76t120 178l13 47q-121 41 -246 41q-123 0 -194.5 -54t-71.5 -141q0 -71 45.5 -109t126.5 -38zM356 -23q-142 0 -235.5 82
t-93.5 215q0 184 133 287t348 103q166 0 323 -54l7 23q12 50 12 86q0 75 -58 117.5t-178 42.5q-146 0 -297 -60l-41 205q178 74 388 74q213 0 323.5 -87.5t110.5 -248.5q0 -64 -23 -154l-162 -608h-243l37 141q-157 -164 -351 -164z" />
    <glyph glyph-name="uni1EB6" unicode="&#x1eb6;" horiz-adv-x="1562" 
d="M442 -393l70 256h229l-69 -256h-230zM1063 1567q-141 0 -208 79t-54 197q2 10 2 23h166q-22 -53 10 -91t115 -34q118 0 211 125h168q-56 -137 -166.5 -218t-243.5 -81zM563 569h494l-92 580zM-102 0l1017 1444h242l244 -1444h-258l-56 346h-677l-240 -346h-272z" />
    <glyph glyph-name="uni1EB7" unicode="&#x1eb7;" horiz-adv-x="1193" 
d="M223 -393l70 256h229l-69 -256h-230zM825 1214q-141 0 -208 79.5t-54 197.5q2 10 2 22h166q-22 -53 10 -90.5t115 -33.5q119 0 211 124h168q-56 -137 -166.5 -218t-243.5 -81zM453 160q112 0 207 76t120 178l13 47q-121 41 -246 41q-123 0 -194.5 -54t-71.5 -141
q0 -71 45.5 -109t126.5 -38zM356 -23q-142 0 -235.5 82t-93.5 215q0 184 133 287t348 103q166 0 323 -54l7 23q12 50 12 86q0 75 -58 117.5t-178 42.5q-146 0 -297 -60l-41 205q178 74 388 74q213 0 323.5 -87.5t110.5 -248.5q0 -64 -23 -154l-162 -608h-243l37 141
q-157 -164 -351 -164z" />
    <glyph glyph-name="uni1EB8" unicode="&#x1eb8;" horiz-adv-x="1351" 
d="M369 -393l69 256h230l-70 -256h-229zM39 0l385 1434h1053l-62 -226h-801l-100 -374h711l-62 -224h-710l-103 -385h813l-61 -225h-1063z" />
    <glyph glyph-name="uni1EB9" unicode="&#x1eb9;" horiz-adv-x="1228" 
d="M344 -393l70 256h229l-70 -256h-229zM352 621h561q11 33 11 73q0 91 -54 149t-161 58q-125 0 -220 -77t-137 -203zM1112 451h-786q2 -126 74 -199.5t206 -73.5q77 0 142 25t135 80l118 -158q-186 -150 -419 -150q-226 0 -359 128t-133 346q0 120 47.5 237t129 210
t202.5 150.5t258 57.5q201 0 316.5 -118.5t115.5 -301.5q0 -112 -47 -233z" />
    <glyph glyph-name="uni1EBA" unicode="&#x1eba;" horiz-adv-x="1351" 
d="M897 1567l47 190q66 6 116 28.5t68 59.5q9 23 -2 40.5t-45 17.5q-77 0 -125 -66l-125 64q39 49 79.5 81t79.5 45.5t67 18t61 4.5q94 0 144.5 -59t21.5 -144q-27 -82 -85.5 -128t-139.5 -72l-37 -80h-125zM39 0l385 1434h1053l-62 -226h-801l-100 -374h711l-62 -224h-710
l-103 -385h813l-61 -225h-1063z" />
    <glyph glyph-name="uni1EBB" unicode="&#x1ebb;" horiz-adv-x="1228" 
d="M727 1217l47 190q66 6 116 28.5t68 59.5q9 23 -2 40t-45 17q-78 0 -125 -65l-124 63q73 91 143.5 120.5t142.5 29.5q94 0 144.5 -59t21.5 -144q-46 -143 -225 -201l-37 -79h-125zM352 621h561q11 33 11 73q0 91 -54 149t-161 58q-125 0 -220 -77t-137 -203zM1112 451
h-786q2 -126 74 -199.5t206 -73.5q77 0 142 25t135 80l118 -158q-186 -150 -419 -150q-226 0 -359 128t-133 346q0 120 47.5 237t129 210t202.5 150.5t258 57.5q201 0 316.5 -118.5t115.5 -301.5q0 -112 -47 -233z" />
    <glyph glyph-name="uni1EBC" unicode="&#x1ebc;" horiz-adv-x="1351" 
d="M754 1554l-117 58q103 217 244 217q39 0 67 -13t64 -42q6 -4 16 -12t14 -11t11.5 -8t11 -7t9 -5t9.5 -4t9 -2t10 -1q35 0 60 25t59 82l118 -57q-103 -218 -245 -218q-39 0 -67 13.5t-64 42.5q-4 3 -13 9t-12 8.5t-10 7t-10 6.5t-8 5t-8 4t-7.5 3t-7.5 2.5t-7 1t-8 0.5
q-34 0 -61.5 -26.5t-56.5 -78.5zM39 0l385 1434h1053l-62 -226h-801l-100 -374h711l-62 -224h-710l-103 -385h813l-61 -225h-1063z" />
    <glyph glyph-name="uni1EBD" unicode="&#x1ebd;" horiz-adv-x="1228" 
d="M590 1219l-117 57q103 217 244 217q39 0 67 -13t64 -42q55 -41 71 -46q9 -3 19 -3q35 0 60.5 25t58.5 81l119 -57q-103 -217 -246 -217q-39 0 -67 13t-64 42q-6 4 -16 11.5t-14 10t-11.5 7.5t-11 7t-9.5 5t-9.5 3.5t-8.5 1.5t-10 1q-35 0 -62.5 -26.5t-56.5 -77.5z
M352 621h561q11 33 11 73q0 91 -54 149t-161 58q-125 0 -220 -77t-137 -203zM1112 451h-786q2 -126 74 -199.5t206 -73.5q77 0 142 25t135 80l118 -158q-186 -150 -419 -150q-226 0 -359 128t-133 346q0 120 47.5 237t129 210t202.5 150.5t258 57.5q201 0 316.5 -118.5
t115.5 -301.5q0 -112 -47 -233z" />
    <glyph glyph-name="uni1EBE" unicode="&#x1ebe;" horiz-adv-x="1351" 
d="M1284 1782l307 336l221 -101l-313 -235h-215zM618 1552l318 299h231l158 -299h-186l-119 138l-197 -138h-205zM39 0l385 1434h1053l-62 -226h-801l-100 -374h711l-62 -224h-710l-103 -385h813l-61 -225h-1063z" />
    <glyph glyph-name="uni1EBF" unicode="&#x1ebf;" horiz-adv-x="1228" 
d="M1079 1448l307 336l222 -101l-314 -235h-215zM414 1219l317 299h232l157 -299h-186l-119 137l-197 -137h-204zM352 621h561q11 33 11 73q0 91 -54 149t-161 58q-125 0 -220 -77t-137 -203zM1112 451h-786q2 -126 74 -199.5t206 -73.5q77 0 142 25t135 80l118 -158
q-186 -150 -419 -150q-226 0 -359 128t-133 346q0 120 47.5 237t129 210t202.5 150.5t258 57.5q201 0 316.5 -118.5t115.5 -301.5q0 -112 -47 -233z" />
    <glyph glyph-name="uni1EC0" unicode="&#x1ec0;" horiz-adv-x="1351" 
d="M1331 1782l-186 235l231 101l125 -336h-170zM618 1552l318 299h231l158 -299h-186l-119 138l-197 -138h-205zM39 0l385 1434h1053l-62 -226h-801l-100 -374h711l-62 -224h-710l-103 -385h813l-61 -225h-1063z" />
    <glyph glyph-name="uni1EC1" unicode="&#x1ec1;" horiz-adv-x="1228" 
d="M1126 1448l-186 235l231 101l125 -336h-170zM414 1219l317 299h232l157 -299h-186l-119 137l-197 -137h-204zM352 621h561q11 33 11 73q0 91 -54 149t-161 58q-125 0 -220 -77t-137 -203zM1112 451h-786q2 -126 74 -199.5t206 -73.5q77 0 142 25t135 80l118 -158
q-186 -150 -419 -150q-226 0 -359 128t-133 346q0 120 47.5 237t129 210t202.5 150.5t258 57.5q201 0 316.5 -118.5t115.5 -301.5q0 -112 -47 -233z" />
    <glyph glyph-name="uni1EC2" unicode="&#x1ec2;" horiz-adv-x="1351" 
d="M1266 1784l45 174q145 14 180 80q16 51 -47 51q-75 0 -121 -59l-121 57q69 84 137.5 110.5t141.5 26.5q91 0 139.5 -53.5t19.5 -130.5q-26 -75 -82 -116.5t-135 -68.5l-37 -71h-120zM618 1552l318 299h231l158 -299h-186l-119 138l-197 -138h-205zM39 0l385 1434h1053
l-62 -226h-801l-100 -374h711l-62 -224h-710l-103 -385h813l-61 -225h-1063z" />
    <glyph glyph-name="uni1EC3" unicode="&#x1ec3;" horiz-adv-x="1228" 
d="M1061 1450l45 174q145 14 180 80q16 51 -47 51q-75 0 -121 -59l-121 57q69 84 137.5 110.5t141.5 26.5q91 0 140 -53.5t20 -130.5q-26 -75 -82 -116t-135 -68l-37 -72h-121zM414 1219l317 299h232l157 -299h-186l-119 137l-197 -137h-204zM352 621h561q11 33 11 73
q0 91 -54 149t-161 58q-125 0 -220 -77t-137 -203zM1112 451h-786q2 -126 74 -199.5t206 -73.5q77 0 142 25t135 80l118 -158q-186 -150 -419 -150q-226 0 -359 128t-133 346q0 120 47.5 237t129 210t202.5 150.5t258 57.5q201 0 316.5 -118.5t115.5 -301.5q0 -112 -47 -233
z" />
    <glyph glyph-name="uni1EC4" unicode="&#x1ec4;" horiz-adv-x="1351" 
d="M864 1931l-116 58q103 217 243 217q39 0 67 -13.5t64 -42.5q55 -41 71 -46q9 -3 19 -3q35 0 60 25t59 82l119 -58q-103 -217 -246 -217q-39 0 -67 13.5t-64 42.5q-6 4 -16 11.5t-14 10t-11.5 7.5t-11 7t-9.5 5t-9.5 3.5t-8.5 1.5t-10 1q-35 0 -62.5 -26.5t-56.5 -78.5z
M618 1552l318 299h231l158 -299h-186l-119 138l-197 -138h-205zM39 0l385 1434h1053l-62 -226h-801l-100 -374h711l-62 -224h-710l-103 -385h813l-61 -225h-1063z" />
    <glyph glyph-name="uni1EC5" unicode="&#x1ec5;" horiz-adv-x="1228" 
d="M659 1595l-116 58q103 217 243 217q39 0 68 -13.5t64 -41.5q6 -4 16 -12t14 -11t11.5 -8t11 -7t9 -5t9.5 -4t9 -2t10 -1q35 0 59.5 25t58.5 82l119 -57q-103 -218 -246 -218q-39 0 -67 13.5t-64 42.5q-6 4 -16 11.5t-14 10t-11.5 7.5t-11 7t-9.5 5t-9.5 3.5t-8.5 1.5
t-10 1q-34 0 -62 -26.5t-57 -78.5zM414 1219l317 299h232l157 -299h-186l-119 137l-197 -137h-204zM352 621h561q11 33 11 73q0 91 -54 149t-161 58q-125 0 -220 -77t-137 -203zM1112 451h-786q2 -126 74 -199.5t206 -73.5q77 0 142 25t135 80l118 -158q-186 -150 -419 -150
q-226 0 -359 128t-133 346q0 120 47.5 237t129 210t202.5 150.5t258 57.5q201 0 316.5 -118.5t115.5 -301.5q0 -112 -47 -233z" />
    <glyph glyph-name="uni1EC6" unicode="&#x1ec6;" horiz-adv-x="1351" 
d="M369 -393l69 256h230l-70 -256h-229zM618 1552l318 299h231l158 -299h-186l-119 138l-197 -138h-205zM39 0l385 1434h1053l-62 -226h-801l-100 -374h711l-62 -224h-710l-103 -385h813l-61 -225h-1063z" />
    <glyph glyph-name="uni1EC7" unicode="&#x1ec7;" horiz-adv-x="1228" 
d="M342 -393l70 256h229l-70 -256h-229zM414 1219l317 299h232l157 -299h-186l-119 137l-197 -137h-204zM352 621h561q11 33 11 73q0 91 -54 149t-161 58q-125 0 -220 -77t-137 -203zM1112 451h-786q2 -126 74 -199.5t206 -73.5q77 0 142 25t135 80l118 -158
q-186 -150 -419 -150q-226 0 -359 128t-133 346q0 120 47.5 237t129 210t202.5 150.5t258 57.5q201 0 316.5 -118.5t115.5 -301.5q0 -112 -47 -233z" />
    <glyph glyph-name="uni1EC8" unicode="&#x1ec8;" horiz-adv-x="649" 
d="M528 1567l47 190q67 6 117 28.5t68 59.5q9 23 -2 40.5t-45 17.5q-77 0 -125 -66l-125 64q39 49 79.5 81t79.5 45.5t67 18t61 4.5q94 0 144 -59t21 -144q-27 -82 -85.5 -128t-139.5 -72l-37 -80h-125zM53 0l385 1434h254l-385 -1434h-254z" />
    <glyph glyph-name="uni1EC9" unicode="&#x1ec9;" horiz-adv-x="585" 
d="M25 0l290 1081h248l-291 -1081h-247zM408 1217l47 190q66 6 116 28.5t68 59.5q9 23 -2 40t-45 17q-78 0 -125 -65l-125 63q73 91 143.5 120.5t143.5 29.5q94 0 144.5 -59t21.5 -144q-46 -143 -226 -201l-37 -79h-124z" />
    <glyph glyph-name="uni1ECA" unicode="&#x1eca;" horiz-adv-x="632" 
d="M-53 -393l69 256h230l-70 -256h-229zM37 0l385 1434h254l-385 -1434h-254z" />
    <glyph glyph-name="uni1ECB" unicode="&#x1ecb;" horiz-adv-x="585" 
d="M-68 -393l70 256h229l-69 -256h-230zM25 0l290 1081h248l-291 -1081h-247zM350 1247l64 236h268l-66 -236h-266z" />
    <glyph glyph-name="uni1ECC" unicode="&#x1ecc;" 
d="M549 -393l69 256h230l-70 -256h-229zM825 207q121 0 228.5 54t179.5 140.5t114 195t42 218.5q0 182 -110 297t-298 115q-121 0 -228 -54t-179.5 -140.5t-114 -195.5t-41.5 -219q0 -182 109.5 -296.5t297.5 -114.5zM799 -25q-142 0 -262.5 48.5t-203.5 132.5t-130 200
t-47 248q0 129 40 255t116.5 233.5t179 189.5t236 129t278.5 47q142 0 263 -48.5t204.5 -133t130.5 -200t47 -247.5q0 -162 -64 -316.5t-174.5 -273.5t-271.5 -191.5t-342 -72.5z" />
    <glyph glyph-name="uni1ECD" unicode="&#x1ecd;" horiz-adv-x="1323" 
d="M344 -393l70 256h229l-70 -256h-229zM614 190q100 0 187 62t135.5 156.5t48.5 193.5q0 134 -75.5 210.5t-200.5 76.5q-102 0 -189 -63t-134.5 -157.5t-47.5 -191.5q0 -134 75.5 -210.5t200.5 -76.5zM600 -25q-229 0 -368.5 138.5t-139.5 355.5q0 121 50 237t134 203.5
t201.5 141t245.5 53.5q229 0 368.5 -139t139.5 -357q0 -122 -50.5 -238t-135.5 -202.5t-202 -139.5t-243 -53z" />
    <glyph glyph-name="uni1ECE" unicode="&#x1ece;" 
d="M1051 1567l47 190q66 6 116 28.5t68 59.5q9 23 -2 40.5t-45 17.5q-77 0 -125 -66l-125 64q39 49 79.5 81t79.5 45.5t67 18t61 4.5q94 0 144.5 -59t21.5 -144q-27 -82 -86 -128t-140 -72l-36 -80h-125zM825 207q121 0 228.5 54t179.5 140.5t114 195t42 218.5
q0 182 -110 297t-298 115q-121 0 -228 -54t-179.5 -140.5t-114 -195.5t-41.5 -219q0 -182 109.5 -296.5t297.5 -114.5zM799 -25q-142 0 -262.5 48.5t-203.5 132.5t-130 200t-47 248q0 129 40 255t116.5 233.5t179 189.5t236 129t278.5 47q142 0 263 -48.5t204.5 -133
t130.5 -200t47 -247.5q0 -162 -64 -316.5t-174.5 -273.5t-271.5 -191.5t-342 -72.5z" />
    <glyph glyph-name="uni1ECF" unicode="&#x1ecf;" horiz-adv-x="1323" 
d="M756 1217l47 190q66 6 116 28.5t68 59.5q9 23 -2 40t-45 17q-78 0 -125 -65l-125 63q73 91 143.5 120.5t143.5 29.5q94 0 144.5 -59t21.5 -144q-46 -143 -225 -201l-37 -79h-125zM614 190q100 0 187 62t135.5 156.5t48.5 193.5q0 134 -75.5 210.5t-200.5 76.5
q-102 0 -189 -63t-134.5 -157.5t-47.5 -191.5q0 -134 75.5 -210.5t200.5 -76.5zM600 -25q-229 0 -368.5 138.5t-139.5 355.5q0 121 50 237t134 203.5t201.5 141t245.5 53.5q229 0 368.5 -139t139.5 -357q0 -122 -50.5 -238t-135.5 -202.5t-202 -139.5t-243 -53z" />
    <glyph glyph-name="uni1ED0" unicode="&#x1ed0;" 
d="M1382 1782l308 336l221 -101l-314 -235h-215zM717 1552l317 299h232l157 -299h-186l-119 138l-196 -138h-205zM825 207q121 0 228.5 54t179.5 140.5t114 195t42 218.5q0 182 -110 297t-298 115q-121 0 -228 -54t-179.5 -140.5t-114 -195.5t-41.5 -219
q0 -182 109.5 -296.5t297.5 -114.5zM799 -25q-142 0 -262.5 48.5t-203.5 132.5t-130 200t-47 248q0 129 40 255t116.5 233.5t179 189.5t236 129t278.5 47q142 0 263 -48.5t204.5 -133t130.5 -200t47 -247.5q0 -162 -64 -316.5t-174.5 -273.5t-271.5 -191.5t-342 -72.5z" />
    <glyph glyph-name="uni1ED1" unicode="&#x1ed1;" horiz-adv-x="1323" 
d="M1106 1448l307 336l221 -101l-313 -235h-215zM440 1219l318 299h231l158 -299h-186l-119 137l-197 -137h-205zM614 190q100 0 187 62t135.5 156.5t48.5 193.5q0 134 -75.5 210.5t-200.5 76.5q-102 0 -189 -63t-134.5 -157.5t-47.5 -191.5q0 -134 75.5 -210.5t200.5 -76.5
zM600 -25q-229 0 -368.5 138.5t-139.5 355.5q0 121 50 237t134 203.5t201.5 141t245.5 53.5q229 0 368.5 -139t139.5 -357q0 -122 -50.5 -238t-135.5 -202.5t-202 -139.5t-243 -53z" />
    <glyph glyph-name="uni1ED2" unicode="&#x1ed2;" 
d="M1430 1782l-187 235l232 101l124 -336h-169zM717 1552l317 299h232l157 -299h-186l-119 138l-196 -138h-205zM825 207q121 0 228.5 54t179.5 140.5t114 195t42 218.5q0 182 -110 297t-298 115q-121 0 -228 -54t-179.5 -140.5t-114 -195.5t-41.5 -219q0 -182 109.5 -296.5
t297.5 -114.5zM799 -25q-142 0 -262.5 48.5t-203.5 132.5t-130 200t-47 248q0 129 40 255t116.5 233.5t179 189.5t236 129t278.5 47q142 0 263 -48.5t204.5 -133t130.5 -200t47 -247.5q0 -162 -64 -316.5t-174.5 -273.5t-271.5 -191.5t-342 -72.5z" />
    <glyph glyph-name="uni1ED3" unicode="&#x1ed3;" horiz-adv-x="1323" 
d="M1153 1448l-186 235l231 101l125 -336h-170zM440 1219l318 299h231l158 -299h-186l-119 137l-197 -137h-205zM614 190q100 0 187 62t135.5 156.5t48.5 193.5q0 134 -75.5 210.5t-200.5 76.5q-102 0 -189 -63t-134.5 -157.5t-47.5 -191.5q0 -134 75.5 -210.5t200.5 -76.5z
M600 -25q-229 0 -368.5 138.5t-139.5 355.5q0 121 50 237t134 203.5t201.5 141t245.5 53.5q229 0 368.5 -139t139.5 -357q0 -122 -50.5 -238t-135.5 -202.5t-202 -139.5t-243 -53z" />
    <glyph glyph-name="uni1ED4" unicode="&#x1ed4;" 
d="M1364 1784l45 174q145 14 180 80q16 51 -47 51q-75 0 -121 -59l-121 57q69 84 137.5 110.5t141.5 26.5q91 0 140 -53.5t20 -130.5q-26 -75 -82 -116.5t-135 -68.5l-37 -71h-121zM717 1552l317 299h232l157 -299h-186l-119 138l-196 -138h-205zM825 207q121 0 228.5 54
t179.5 140.5t114 195t42 218.5q0 182 -110 297t-298 115q-121 0 -228 -54t-179.5 -140.5t-114 -195.5t-41.5 -219q0 -182 109.5 -296.5t297.5 -114.5zM799 -25q-142 0 -262.5 48.5t-203.5 132.5t-130 200t-47 248q0 129 40 255t116.5 233.5t179 189.5t236 129t278.5 47
q142 0 263 -48.5t204.5 -133t130.5 -200t47 -247.5q0 -162 -64 -316.5t-174.5 -273.5t-271.5 -191.5t-342 -72.5z" />
    <glyph glyph-name="uni1ED5" unicode="&#x1ed5;" horiz-adv-x="1323" 
d="M1087 1450l46 174q145 14 180 80q16 51 -47 51q-75 0 -121 -59l-121 57q69 84 137.5 110.5t141.5 26.5q91 0 139.5 -53.5t19.5 -130.5q-26 -75 -82 -116t-135 -68l-37 -72h-121zM440 1219l318 299h231l158 -299h-186l-119 137l-197 -137h-205zM614 190q100 0 187 62
t135.5 156.5t48.5 193.5q0 134 -75.5 210.5t-200.5 76.5q-102 0 -189 -63t-134.5 -157.5t-47.5 -191.5q0 -134 75.5 -210.5t200.5 -76.5zM600 -25q-229 0 -368.5 138.5t-139.5 355.5q0 121 50 237t134 203.5t201.5 141t245.5 53.5q229 0 368.5 -139t139.5 -357
q0 -122 -50.5 -238t-135.5 -202.5t-202 -139.5t-243 -53z" />
    <glyph glyph-name="uni1ED6" unicode="&#x1ed6;" 
d="M963 1931l-117 58q103 217 244 217q39 0 67 -13.5t64 -42.5q55 -41 71 -46q9 -3 19 -3q35 0 60 25t59 82l118 -58q-103 -217 -245 -217q-39 0 -67.5 13.5t-64.5 42.5q-6 4 -16 11.5t-14 10t-11.5 7.5t-11 7t-9.5 5t-9.5 3.5t-8.5 1.5t-10 1q-34 0 -61.5 -26.5
t-56.5 -78.5zM717 1552l317 299h232l157 -299h-186l-119 138l-196 -138h-205zM825 207q121 0 228.5 54t179.5 140.5t114 195t42 218.5q0 182 -110 297t-298 115q-121 0 -228 -54t-179.5 -140.5t-114 -195.5t-41.5 -219q0 -182 109.5 -296.5t297.5 -114.5zM799 -25
q-142 0 -262.5 48.5t-203.5 132.5t-130 200t-47 248q0 129 40 255t116.5 233.5t179 189.5t236 129t278.5 47q142 0 263 -48.5t204.5 -133t130.5 -200t47 -247.5q0 -162 -64 -316.5t-174.5 -273.5t-271.5 -191.5t-342 -72.5z" />
    <glyph glyph-name="uni1ED7" unicode="&#x1ed7;" horiz-adv-x="1323" 
d="M686 1595l-117 58q103 217 244 217q39 0 67 -13t64 -42q6 -4 16 -12t14 -11t11.5 -8t11 -7t9 -5t9.5 -4t9 -2t10 -1q35 0 60 25t59 82l119 -57q-103 -218 -246 -218q-39 0 -67 13.5t-64 42.5q-6 4 -16 11.5t-14 10t-11.5 7.5t-11 7t-9.5 5t-9.5 3.5t-8.5 1.5t-10 1
q-35 0 -62.5 -26.5t-56.5 -78.5zM440 1219l318 299h231l158 -299h-186l-119 137l-197 -137h-205zM614 190q100 0 187 62t135.5 156.5t48.5 193.5q0 134 -75.5 210.5t-200.5 76.5q-102 0 -189 -63t-134.5 -157.5t-47.5 -191.5q0 -134 75.5 -210.5t200.5 -76.5zM600 -25
q-229 0 -368.5 138.5t-139.5 355.5q0 121 50 237t134 203.5t201.5 141t245.5 53.5q229 0 368.5 -139t139.5 -357q0 -122 -50.5 -238t-135.5 -202.5t-202 -139.5t-243 -53z" />
    <glyph glyph-name="uni1ED8" unicode="&#x1ed8;" 
d="M549 -393l69 256h230l-70 -256h-229zM717 1552l317 299h232l157 -299h-186l-119 138l-196 -138h-205zM825 207q121 0 228.5 54t179.5 140.5t114 195t42 218.5q0 182 -110 297t-298 115q-121 0 -228 -54t-179.5 -140.5t-114 -195.5t-41.5 -219q0 -182 109.5 -296.5
t297.5 -114.5zM799 -25q-142 0 -262.5 48.5t-203.5 132.5t-130 200t-47 248q0 129 40 255t116.5 233.5t179 189.5t236 129t278.5 47q142 0 263 -48.5t204.5 -133t130.5 -200t47 -247.5q0 -162 -64 -316.5t-174.5 -273.5t-271.5 -191.5t-342 -72.5z" />
    <glyph glyph-name="uni1ED9" unicode="&#x1ed9;" horiz-adv-x="1323" 
d="M344 -393l70 256h229l-70 -256h-229zM440 1219l318 299h231l158 -299h-186l-119 137l-197 -137h-205zM614 190q100 0 187 62t135.5 156.5t48.5 193.5q0 134 -75.5 210.5t-200.5 76.5q-102 0 -189 -63t-134.5 -157.5t-47.5 -191.5q0 -134 75.5 -210.5t200.5 -76.5z
M600 -25q-229 0 -368.5 138.5t-139.5 355.5q0 121 50 237t134 203.5t201.5 141t245.5 53.5q229 0 368.5 -139t139.5 -357q0 -122 -50.5 -238t-135.5 -202.5t-202 -139.5t-243 -53z" />
    <glyph glyph-name="uni1EDA" unicode="&#x1eda;" 
d="M883 1552l307 336l221 -100l-313 -236h-215zM799 -25q-142 0 -262.5 48.5t-203.5 132.5t-130 200t-47 248q0 129 40 255t116.5 233.5t179 189.5t236 129t278.5 47q143 0 262 -49q37 -15 59 -27q62 6 105 25q45 20 51 49q24 94 -2 182h231q8 -59 -1 -127t-17 -90
q-35 -120 -144 -184q-20 -12 -30 -16q43 -53 84 -144q47 -115 47 -248q0 -162 -64 -316.5t-174.5 -273.5t-271.5 -191.5t-342 -72.5zM825 207q121 0 228.5 54t179.5 140.5t114 195t42 218.5q0 182 -110 297t-298 115q-121 0 -228 -54t-179.5 -140.5t-114 -195.5t-41.5 -219
q0 -182 109.5 -296.5t297.5 -114.5z" />
    <glyph glyph-name="uni1EDB" unicode="&#x1edb;" horiz-adv-x="1323" 
d="M610 1219l308 335l221 -100l-314 -235h-215zM600 -25q-229 0 -368.5 138.5t-139.5 355.5q0 121 50 237t134 203.5t201.5 141t245.5 53.5q119 0 209 -37q21 -9 39 -18q57 6 98 24q45 20 51 49q24 94 -2 183h232q8 -59 -1.5 -127t-17.5 -91q-35 -121 -143 -184
q-5 -3 -16.5 -9t-16.5 -9q30 -53 39 -80q37 -87 37 -197q0 -122 -50.5 -238t-135.5 -202.5t-202 -139.5t-243 -53zM614 190q100 0 187 62t135.5 156.5t48.5 193.5q0 134 -75.5 210.5t-200.5 76.5q-102 0 -189 -63t-134.5 -157.5t-47.5 -191.5q0 -134 75.5 -210.5
t200.5 -76.5z" />
    <glyph glyph-name="uni1EDC" unicode="&#x1edc;" 
d="M1014 1552l-187 236l232 100l125 -336h-170zM799 -25q-142 0 -262.5 48.5t-203.5 132.5t-130 200t-47 248q0 129 40 255t116.5 233.5t179 189.5t236 129t278.5 47q143 0 262 -49q37 -15 59 -27q62 6 105 25q45 20 51 49q24 94 -2 182h231q8 -59 -1 -127t-17 -90
q-35 -120 -144 -184q-20 -12 -30 -16q43 -53 84 -144q47 -115 47 -248q0 -162 -64 -316.5t-174.5 -273.5t-271.5 -191.5t-342 -72.5zM825 207q121 0 228.5 54t179.5 140.5t114 195t42 218.5q0 182 -110 297t-298 115q-121 0 -228 -54t-179.5 -140.5t-114 -195.5t-41.5 -219
q0 -182 109.5 -296.5t297.5 -114.5z" />
    <glyph glyph-name="uni1EDD" unicode="&#x1edd;" horiz-adv-x="1323" 
d="M735 1219l-186 235l231 100l125 -335h-170zM600 -25q-229 0 -368.5 138.5t-139.5 355.5q0 121 50 237t134 203.5t201.5 141t245.5 53.5q119 0 209 -37q21 -9 39 -18q57 6 98 24q45 20 51 49q24 94 -2 183h232q8 -59 -1.5 -127t-17.5 -91q-35 -121 -143 -184
q-5 -3 -16.5 -9t-16.5 -9q30 -53 39 -80q37 -87 37 -197q0 -122 -50.5 -238t-135.5 -202.5t-202 -139.5t-243 -53zM614 190q100 0 187 62t135.5 156.5t48.5 193.5q0 134 -75.5 210.5t-200.5 76.5q-102 0 -189 -63t-134.5 -157.5t-47.5 -191.5q0 -134 75.5 -210.5
t200.5 -76.5z" />
    <glyph glyph-name="uni1EDE" unicode="&#x1ede;" 
d="M1051 1567l47 190q66 6 116 28.5t68 59.5q9 23 -2 40.5t-45 17.5q-77 0 -125 -66l-125 64q39 49 79.5 81t79.5 45.5t67 18t61 4.5q94 0 144.5 -59t21.5 -144q-27 -82 -86 -128t-140 -72l-36 -80h-125zM799 -25q-142 0 -262.5 48.5t-203.5 132.5t-130 200t-47 248
q0 129 40 255t116.5 233.5t179 189.5t236 129t278.5 47q143 0 262 -49q37 -15 59 -27q62 6 105 25q45 20 51 49q24 94 -2 182h231q8 -59 -1 -127t-17 -90q-35 -120 -144 -184q-20 -12 -30 -16q43 -53 84 -144q47 -115 47 -248q0 -162 -64 -316.5t-174.5 -273.5
t-271.5 -191.5t-342 -72.5zM825 207q121 0 228.5 54t179.5 140.5t114 195t42 218.5q0 182 -110 297t-298 115q-121 0 -228 -54t-179.5 -140.5t-114 -195.5t-41.5 -219q0 -182 109.5 -296.5t297.5 -114.5z" />
    <glyph glyph-name="uni1EDF" unicode="&#x1edf;" horiz-adv-x="1323" 
d="M756 1217l47 190q66 6 116 28.5t68 59.5q9 23 -2 40t-45 17q-78 0 -125 -65l-125 63q73 91 143.5 120.5t143.5 29.5q94 0 144.5 -59t21.5 -144q-46 -143 -225 -201l-37 -79h-125zM600 -25q-229 0 -368.5 138.5t-139.5 355.5q0 121 50 237t134 203.5t201.5 141t245.5 53.5
q119 0 209 -37q21 -9 39 -18q57 6 98 24q45 20 51 49q24 94 -2 183h232q8 -59 -1.5 -127t-17.5 -91q-35 -121 -143 -184q-5 -3 -16.5 -9t-16.5 -9q30 -53 39 -80q37 -87 37 -197q0 -122 -50.5 -238t-135.5 -202.5t-202 -139.5t-243 -53zM614 190q100 0 187 62t135.5 156.5
t48.5 193.5q0 134 -75.5 210.5t-200.5 76.5q-102 0 -189 -63t-134.5 -157.5t-47.5 -191.5q0 -134 75.5 -210.5t200.5 -76.5z" />
    <glyph glyph-name="uni1EE0" unicode="&#x1ee0;" 
d="M885 1554l-117 58q103 217 244 217q39 0 67 -13t64 -42q6 -4 16 -12t14 -11t11.5 -8t11 -7t9 -5t9.5 -4t9 -2t10 -1q35 0 60 25t59 82l118 -57q-103 -218 -245 -218q-39 0 -67 13.5t-64 42.5q-6 4 -16 11.5t-14 10t-11.5 7.5t-11 7t-9.5 5t-9.5 3.5t-8.5 1.5t-10 1
q-34 0 -62 -26.5t-57 -78.5zM799 -25q-142 0 -262.5 48.5t-203.5 132.5t-130 200t-47 248q0 129 40 255t116.5 233.5t179 189.5t236 129t278.5 47q143 0 262 -49q37 -15 59 -27q62 6 105 25q45 20 51 49q24 94 -2 182h231q8 -59 -1 -127t-17 -90q-35 -120 -144 -184
q-20 -12 -30 -16q43 -53 84 -144q47 -115 47 -248q0 -162 -64 -316.5t-174.5 -273.5t-271.5 -191.5t-342 -72.5zM825 207q121 0 228.5 54t179.5 140.5t114 195t42 218.5q0 182 -110 297t-298 115q-121 0 -228 -54t-179.5 -140.5t-114 -195.5t-41.5 -219q0 -182 109.5 -296.5
t297.5 -114.5z" />
    <glyph glyph-name="uni1EE1" unicode="&#x1ee1;" horiz-adv-x="1323" 
d="M590 1219l-117 57q103 217 244 217q39 0 67 -13t64 -42q55 -41 71 -46q9 -3 19 -3q35 0 60.5 25t58.5 81l119 -57q-103 -217 -246 -217q-39 0 -67 13t-64 42q-6 4 -16 11.5t-14 10t-11.5 7.5t-11 7t-9.5 5t-9.5 3.5t-8.5 1.5t-10 1q-35 0 -62.5 -26.5t-56.5 -77.5z
M600 -25q-229 0 -368.5 138.5t-139.5 355.5q0 121 50 237t134 203.5t201.5 141t245.5 53.5q119 0 209 -37q21 -9 39 -18q57 6 98 24q45 20 51 49q24 94 -2 183h232q8 -59 -1.5 -127t-17.5 -91q-35 -121 -143 -184q-5 -3 -16.5 -9t-16.5 -9q30 -53 39 -80q37 -87 37 -197
q0 -122 -50.5 -238t-135.5 -202.5t-202 -139.5t-243 -53zM614 190q100 0 187 62t135.5 156.5t48.5 193.5q0 134 -75.5 210.5t-200.5 76.5q-102 0 -189 -63t-134.5 -157.5t-47.5 -191.5q0 -134 75.5 -210.5t200.5 -76.5z" />
    <glyph glyph-name="uni1EE2" unicode="&#x1ee2;" 
d="M549 -393l69 256h230l-70 -256h-229zM799 -25q-142 0 -262.5 48.5t-203.5 132.5t-130 200t-47 248q0 129 40 255t116.5 233.5t179 189.5t236 129t278.5 47q143 0 262 -49q37 -15 59 -27q62 6 105 25q45 20 51 49q24 94 -2 182h231q8 -59 -1 -127t-17 -90
q-35 -120 -144 -184q-20 -12 -30 -16q43 -53 84 -144q47 -115 47 -248q0 -162 -64 -316.5t-174.5 -273.5t-271.5 -191.5t-342 -72.5zM825 207q121 0 228.5 54t179.5 140.5t114 195t42 218.5q0 182 -110 297t-298 115q-121 0 -228 -54t-179.5 -140.5t-114 -195.5t-41.5 -219
q0 -182 109.5 -296.5t297.5 -114.5z" />
    <glyph glyph-name="uni1EE3" unicode="&#x1ee3;" horiz-adv-x="1323" 
d="M344 -393l70 256h229l-70 -256h-229zM600 -25q-229 0 -368.5 138.5t-139.5 355.5q0 121 50 237t134 203.5t201.5 141t245.5 53.5q119 0 209 -37q21 -9 39 -18q57 6 98 24q45 20 51 49q24 94 -2 183h232q8 -59 -1.5 -127t-17.5 -91q-35 -121 -143 -184q-5 -3 -16.5 -9
t-16.5 -9q30 -53 39 -80q37 -87 37 -197q0 -122 -50.5 -238t-135.5 -202.5t-202 -139.5t-243 -53zM614 190q100 0 187 62t135.5 156.5t48.5 193.5q0 134 -75.5 210.5t-200.5 76.5q-102 0 -189 -63t-134.5 -157.5t-47.5 -191.5q0 -134 75.5 -210.5t200.5 -76.5z" />
    <glyph glyph-name="uni1EE4" unicode="&#x1ee4;" horiz-adv-x="1560" 
d="M426 -393l70 256h229l-70 -256h-229zM707 -23q-252 0 -391.5 126.5t-139.5 347.5q0 118 33 227l201 756h252l-211 -791q-21 -71 -21 -158q0 -126 77.5 -201t223.5 -75q160 0 268 108q109 109 158 301l219 816h252l-229 -854q-74 -275 -223 -424q-179 -179 -469 -179z" />
    <glyph glyph-name="uni1EE5" unicode="&#x1ee5;" horiz-adv-x="1265" 
d="M262 -393l70 256h229l-69 -256h-230zM428 -23q-152 0 -241 87.5t-89 236.5q0 61 33 191l158 589h248l-162 -600q-15 -62 -15 -108q0 -82 48 -126t139 -44q104 0 184.5 74t112.5 196l164 608h247l-288 -1081h-248l37 139q-76 -76 -154 -119t-174 -43z" />
    <glyph glyph-name="uni1EE6" unicode="&#x1ee6;" horiz-adv-x="1560" 
d="M975 1567l47 190q66 6 116 28.5t68 59.5q9 23 -2 40.5t-45 17.5q-77 0 -125 -66l-125 64q39 49 79.5 81t79.5 45.5t67 18t61 4.5q94 0 144.5 -59t21.5 -144q-27 -82 -85.5 -128t-139.5 -72l-37 -80h-125zM707 -23q-252 0 -391.5 126.5t-139.5 347.5q0 118 33 227l201 756
h252l-211 -791q-21 -71 -21 -158q0 -126 77.5 -201t223.5 -75q160 0 268 108q109 109 158 301l219 816h252l-229 -854q-74 -275 -223 -424q-179 -179 -469 -179z" />
    <glyph glyph-name="uni1EE7" unicode="&#x1ee7;" horiz-adv-x="1265" 
d="M727 1217l47 190q66 6 116 28.5t68 59.5q9 23 -2 40t-45 17q-78 0 -125 -65l-124 63q73 91 143.5 120.5t142.5 29.5q94 0 144.5 -59t21.5 -144q-46 -143 -225 -201l-37 -79h-125zM428 -23q-152 0 -241 87.5t-89 236.5q0 61 33 191l158 589h248l-162 -600
q-15 -62 -15 -108q0 -82 48 -126t139 -44q104 0 184.5 74t112.5 196l164 608h247l-288 -1081h-248l37 139q-76 -76 -154 -119t-174 -43z" />
    <glyph glyph-name="uni1EE8" unicode="&#x1ee8;" horiz-adv-x="1646" 
d="M868 1552l308 336l221 -100l-314 -236h-215zM707 -23q-252 0 -391.5 126.5t-139.5 347.5q0 118 33 227l201 756h252l-211 -791q-21 -71 -21 -158q0 -126 77.5 -201t223.5 -75q160 0 268 108q109 109 158 301l219 816h174q18 3 33 12q45 20 51 49q24 94 -2 182h232
q8 -59 -1 -126.5t-18 -90.5q-35 -121 -143 -184q-52 -32 -131 -51l-172 -645q-74 -275 -223 -424q-179 -179 -469 -179z" />
    <glyph glyph-name="uni1EE9" unicode="&#x1ee9;" horiz-adv-x="1333" 
d="M631 1219l307 335l221 -100l-313 -235h-215zM428 -23q-152 0 -241 87.5t-89 236.5q0 61 33 191l158 589h248l-162 -600q-15 -62 -15 -108q0 -82 48 -126t139 -44q104 0 184.5 74t112.5 196l164 608h139q32 6 59 19q45 20 51 49q24 94 -2 182h232q8 -59 -1 -126.5
t-18 -90.5q-35 -121 -143 -184q-49 -32 -123 -51l-235 -879h-248l37 139q-76 -76 -154 -119t-174 -43z" />
    <glyph glyph-name="uni1EEA" unicode="&#x1eea;" horiz-adv-x="1646" 
d="M975 1552l-187 236l232 100l125 -336h-170zM707 -23q-252 0 -391.5 126.5t-139.5 347.5q0 118 33 227l201 756h252l-211 -791q-21 -71 -21 -158q0 -126 77.5 -201t223.5 -75q160 0 268 108q109 109 158 301l219 816h174q18 3 33 12q45 20 51 49q24 94 -2 182h232
q8 -59 -1 -126.5t-18 -90.5q-35 -121 -143 -184q-52 -32 -131 -51l-172 -645q-74 -275 -223 -424q-179 -179 -469 -179z" />
    <glyph glyph-name="uni1EEB" unicode="&#x1eeb;" horiz-adv-x="1333" 
d="M756 1219l-187 235l232 100l125 -335h-170zM428 -23q-152 0 -241 87.5t-89 236.5q0 61 33 191l158 589h248l-162 -600q-15 -62 -15 -108q0 -82 48 -126t139 -44q104 0 184.5 74t112.5 196l164 608h139q32 6 59 19q45 20 51 49q24 94 -2 182h232q8 -59 -1 -126.5
t-18 -90.5q-35 -121 -143 -184q-49 -32 -123 -51l-235 -879h-248l37 139q-76 -76 -154 -119t-174 -43z" />
    <glyph glyph-name="uni1EEC" unicode="&#x1eec;" horiz-adv-x="1646" 
d="M975 1567l47 190q66 6 116 28.5t68 59.5q9 23 -2 40.5t-45 17.5q-77 0 -125 -66l-125 64q39 49 79.5 81t79.5 45.5t67 18t61 4.5q94 0 144.5 -59t21.5 -144q-27 -82 -85.5 -128t-139.5 -72l-37 -80h-125zM707 -23q-252 0 -391.5 126.5t-139.5 347.5q0 118 33 227l201 756
h252l-211 -791q-21 -71 -21 -158q0 -126 77.5 -201t223.5 -75q160 0 268 108q109 109 158 301l219 816h174q18 3 33 12q45 20 51 49q24 94 -2 182h232q8 -59 -1 -126.5t-18 -90.5q-35 -121 -143 -184q-52 -32 -131 -51l-172 -645q-74 -275 -223 -424q-179 -179 -469 -179z
" />
    <glyph glyph-name="uni1EED" unicode="&#x1eed;" horiz-adv-x="1333" 
d="M727 1217l47 190q66 6 116 28.5t68 59.5q9 23 -2 40t-45 17q-78 0 -125 -65l-124 63q73 91 143.5 120.5t142.5 29.5q94 0 144.5 -59t21.5 -144q-46 -143 -225 -201l-37 -79h-125zM428 -23q-152 0 -241 87.5t-89 236.5q0 61 33 191l158 589h248l-162 -600
q-15 -62 -15 -108q0 -82 48 -126t139 -44q104 0 184.5 74t112.5 196l164 608h139q32 6 59 19q45 20 51 49q24 94 -2 182h232q8 -59 -1 -126.5t-18 -90.5q-35 -121 -143 -184q-49 -32 -123 -51l-235 -879h-248l37 139q-76 -76 -154 -119t-174 -43z" />
    <glyph glyph-name="uni1EEE" unicode="&#x1eee;" horiz-adv-x="1646" 
d="M815 1554l-117 58q103 217 244 217q39 0 67 -13t64 -42q6 -4 16 -12t14 -11t11.5 -8t11 -7t9 -5t9.5 -4t9 -2t10 -1q35 0 60 25t59 82l119 -57q-103 -218 -246 -218q-39 0 -67 13.5t-64 42.5q-6 4 -16 11.5t-14 10t-11.5 7.5t-11 7t-9.5 5t-9.5 3.5t-8.5 1.5t-10 1
q-34 0 -62 -26.5t-57 -78.5zM707 -23q-252 0 -391.5 126.5t-139.5 347.5q0 118 33 227l201 756h252l-211 -791q-21 -71 -21 -158q0 -126 77.5 -201t223.5 -75q160 0 268 108q109 109 158 301l219 816h174q18 3 33 12q45 20 51 49q24 94 -2 182h232q8 -59 -1 -126.5
t-18 -90.5q-35 -121 -143 -184q-52 -32 -131 -51l-172 -645q-74 -275 -223 -424q-179 -179 -469 -179z" />
    <glyph glyph-name="uni1EEF" unicode="&#x1eef;" horiz-adv-x="1333" 
d="M578 1219l-117 57q103 217 244 217q39 0 67 -13t64 -42q55 -41 71 -46q9 -3 19 -3q35 0 59.5 24.5t58.5 81.5l119 -57q-103 -217 -245 -217q-39 0 -68 13.5t-64 41.5q-6 4 -16 11.5t-14 10t-11.5 7.5t-11 7t-9.5 5t-9.5 3.5t-8.5 1.5t-10 1q-35 0 -62 -26t-56 -78z
M428 -23q-152 0 -241 87.5t-89 236.5q0 61 33 191l158 589h248l-162 -600q-15 -62 -15 -108q0 -82 48 -126t139 -44q104 0 184.5 74t112.5 196l164 608h139q32 6 59 19q45 20 51 49q24 94 -2 182h232q8 -59 -1 -126.5t-18 -90.5q-35 -121 -143 -184q-49 -32 -123 -51
l-235 -879h-248l37 139q-76 -76 -154 -119t-174 -43z" />
    <glyph glyph-name="uni1EF0" unicode="&#x1ef0;" horiz-adv-x="1646" 
d="M426 -393l70 256h229l-70 -256h-229zM707 -23q-252 0 -391.5 126.5t-139.5 347.5q0 118 33 227l201 756h252l-211 -791q-21 -71 -21 -158q0 -126 77.5 -201t223.5 -75q160 0 268 108q109 109 158 301l219 816h174q18 3 33 12q45 20 51 49q24 94 -2 182h232
q8 -59 -1 -126.5t-18 -90.5q-35 -121 -143 -184q-52 -32 -131 -51l-172 -645q-74 -275 -223 -424q-179 -179 -469 -179z" />
    <glyph glyph-name="uni1EF1" unicode="&#x1ef1;" horiz-adv-x="1333" 
d="M262 -393l70 256h229l-69 -256h-230zM428 -23q-152 0 -241 87.5t-89 236.5q0 61 33 191l158 589h248l-162 -600q-15 -62 -15 -108q0 -82 48 -126t139 -44q104 0 184.5 74t112.5 196l164 608h139q32 6 59 19q45 20 51 49q24 94 -2 182h232q8 -59 -1 -126.5t-18 -90.5
q-35 -121 -143 -184q-49 -32 -123 -51l-235 -879h-248l37 139q-76 -76 -154 -119t-174 -43z" />
    <glyph glyph-name="Ygrave" unicode="&#x1ef2;" horiz-adv-x="1341" 
d="M817 1552l-186 236l231 100l125 -336h-170zM387 0l152 569l-320 865h279l217 -648l567 648h311l-809 -891l-145 -543h-252z" />
    <glyph glyph-name="ygrave" unicode="&#x1ef3;" horiz-adv-x="1198" 
d="M666 1219l-187 235l232 100l125 -335h-170zM133 -334q-137 0 -244 74l131 182q68 -47 140 -47q50 0 91 26t93 95l-158 1085h254l90 -800l478 800h270l-698 -1112q-108 -164 -211.5 -233.5t-235.5 -69.5z" />
    <glyph glyph-name="uni1EF4" unicode="&#x1ef4;" horiz-adv-x="1341" 
d="M301 -393l70 256h229l-70 -256h-229zM387 0l152 569l-320 865h279l217 -648l567 648h311l-809 -891l-145 -543h-252z" />
    <glyph glyph-name="uni1EF5" unicode="&#x1ef5;" horiz-adv-x="1198" 
d="M592 -393l70 256h229l-70 -256h-229zM133 -334q-137 0 -244 74l131 182q68 -47 140 -47q50 0 91 26t93 95l-158 1085h254l90 -800l478 800h270l-698 -1112q-108 -164 -211.5 -233.5t-235.5 -69.5z" />
    <glyph glyph-name="uni1EF6" unicode="&#x1ef6;" horiz-adv-x="1341" 
d="M817 1567l47 190q67 6 117 28.5t68 59.5q8 23 -3 40.5t-45 17.5q-76 0 -124 -66l-125 64q73 91 143 120t143 29q94 0 144.5 -59t21.5 -144q-27 -82 -85.5 -128t-139.5 -72l-37 -80h-125zM387 0l152 569l-320 865h279l217 -648l567 648h311l-809 -891l-145 -543h-252z" />
    <glyph glyph-name="uni1EF7" unicode="&#x1ef7;" horiz-adv-x="1198" 
d="M676 1217l47 190q66 6 116 28.5t68 59.5q9 23 -2 40t-45 17q-78 0 -125 -65l-125 63q73 91 143.5 120.5t143.5 29.5q94 0 144.5 -59t21.5 -144q-46 -143 -225 -201l-37 -79h-125zM133 -334q-137 0 -244 74l131 182q68 -47 140 -47q50 0 91 26t93 95l-158 1085h254
l90 -800l478 800h270l-698 -1112q-108 -164 -211.5 -233.5t-235.5 -69.5z" />
    <glyph glyph-name="uni1EF8" unicode="&#x1ef8;" horiz-adv-x="1341" 
d="M694 1554l-116 58q103 217 243 217q39 0 67 -13t64 -42q6 -4 16 -12t14 -11t11.5 -8t11 -7t9 -5t9.5 -4t9 -2t10 -1q35 0 60 25t59 82l119 -57q-103 -218 -246 -218q-39 0 -67 13.5t-64 42.5q-6 4 -16 11.5t-14 10t-11.5 7.5t-11 7t-9.5 5t-9.5 3.5t-8.5 1.5t-10 1
q-35 0 -62.5 -26.5t-56.5 -78.5zM387 0l152 569l-320 865h279l217 -648l567 648h311l-809 -891l-145 -543h-252z" />
    <glyph glyph-name="uni1EF9" unicode="&#x1ef9;" horiz-adv-x="1198" 
d="M510 1219l-117 57q103 217 244 217q39 0 67 -13t64 -42q55 -41 71 -46q9 -3 19 -3q35 0 60.5 25t58.5 81l119 -57q-103 -217 -246 -217q-39 0 -67 13t-64 42q-6 4 -16 11.5t-14 10t-11.5 7.5t-11 7t-9.5 5t-9.5 3.5t-8.5 1.5t-10 1q-35 0 -62.5 -26.5t-56.5 -77.5z
M133 -334q-137 0 -244 74l131 182q68 -47 140 -47q50 0 91 26t93 95l-158 1085h254l90 -800l478 800h270l-698 -1112q-108 -164 -211.5 -233.5t-235.5 -69.5z" />
    <glyph glyph-name="endash" unicode="&#x2013;" horiz-adv-x="1085" 
d="M109 510l63 235h852l-63 -235h-852z" />
    <glyph glyph-name="emdash" unicode="&#x2014;" horiz-adv-x="1843" 
d="M109 510l63 235h1610l-64 -235h-1609z" />
    <glyph glyph-name="quoteleft" unicode="&#x2018;" horiz-adv-x="600" 
d="M223 866l64 238q46 174 140 251.5t257 88.5l18 -105q-109 -17 -165 -64t-70 -128h104l-75 -281h-273z" />
    <glyph glyph-name="quoteright" unicode="&#x2019;" horiz-adv-x="600" 
d="M209 854l-19 107q109 17 165.5 64t70.5 128h-104l75 281h273l-64 -240q-47 -171 -141 -249.5t-256 -90.5z" />
    <glyph glyph-name="quotesinglbase" unicode="&#x201a;" horiz-adv-x="600" 
d="M-92 -297l-19 104q107 17 162.5 64.5t73.5 128.5h-107l76 281h273l-64 -238q-43 -171 -138 -249.5t-257 -90.5z" />
    <glyph glyph-name="quotedblleft" unicode="&#x201c;" horiz-adv-x="1073" 
d="M225 864l64 240q47 171 140 249.5t255 90.5l18 -107q-108 -17 -164.5 -64t-70.5 -126h106l-75 -283h-273zM698 864l66 240q47 171 140 249.5t255 90.5l19 -107q-109 -17 -165.5 -64t-70.5 -126h107l-76 -283h-275z" />
    <glyph glyph-name="quotedblright" unicode="&#x201d;" horiz-adv-x="1073" 
d="M205 854l-19 107q108 17 163 63.5t73 128.5h-107l76 281h273l-64 -240q-47 -171 -140 -249.5t-255 -90.5zM678 854l-19 107q109 17 165.5 64t70.5 128h-104l75 281h273l-64 -240q-47 -171 -141 -249.5t-256 -90.5z" />
    <glyph glyph-name="quotedblbase" unicode="&#x201e;" horiz-adv-x="1075" 
d="M-92 -297l-19 104q107 17 162.5 64.5t73.5 128.5h-107l76 281h273l-64 -238q-43 -171 -138 -249.5t-257 -90.5zM383 -297l-18 104q207 32 235 193h-106l75 281h273l-64 -238q-43 -171 -138 -249.5t-257 -90.5z" />
    <glyph glyph-name="dagger" unicode="&#x2020;" horiz-adv-x="841" 
d="M322 487l167 564l-253 -19l40 146l240 -19l53 275h162l-98 -275l254 19l-41 -146l-244 19l-133 -564h-147z" />
    <glyph glyph-name="daggerdbl" unicode="&#x2021;" horiz-adv-x="854" 
d="M190 0l97 274l-252 -18l39 145l241 -18l74 334l105 334l-252 -19l41 146l241 -19l51 275h162l-98 -275l254 19l-41 -146l-242 19l-73 -334l-107 -334l254 18l-39 -145l-242 18l-51 -274h-162z" />
    <glyph glyph-name="bullet" unicode="&#x2022;" horiz-adv-x="1005" 
d="M496 424q-109 0 -170.5 62t-61.5 171q0 90 42 173.5t119 137.5t169 54q105 0 167 -64t62 -170q0 -90 -41.5 -173.5t-117.5 -137t-168 -53.5z" />
    <glyph glyph-name="ellipsis" unicode="&#x2026;" horiz-adv-x="1669" 
d="M18 0l74 276h268l-75 -276h-267zM557 0l74 276h268l-74 -276h-268zM1096 0l75 276h267l-74 -276h-268z" />
    <glyph glyph-name="perthousand" unicode="&#x2030;" horiz-adv-x="2584" 
d="M1296 135q61 0 111.5 42.5t77 104.5t26.5 126q0 78 -38.5 122.5t-106.5 44.5q-91 0 -153 -86.5t-62 -187.5q0 -76 39 -121t106 -45zM2116 135q61 0 111.5 42.5t77 104.5t26.5 126q0 78 -39 122.5t-107 44.5q-91 0 -153 -86.5t-62 -187.5q0 -75 39.5 -120.5t106.5 -45.5z
M494 860q61 0 111 42t76 104t26 127q0 78 -38.5 121.5t-107.5 43.5q-60 0 -110 -42t-76.5 -104t-26.5 -126q0 -78 39 -122t107 -44zM1286 -16q-138 0 -221.5 87t-83.5 222q0 110 50 208.5t142 161t203 62.5q135 0 220 -86t85 -221q0 -110 -50 -209t-142 -162t-203 -63z
M2105 -16q-134 0 -219.5 87.5t-85.5 221.5q0 110 50 208.5t142 161t203 62.5q138 0 222 -85.5t84 -221.5q0 -110 -50.5 -209t-142.5 -162t-203 -63zM127 0l1382 1434h224l-1385 -1434h-221zM483 709q-138 0 -221.5 86t-83.5 223q0 108 50 206.5t142.5 162t202.5 63.5
q135 0 220.5 -87t85.5 -222q0 -108 -50.5 -206.5t-142.5 -162t-203 -63.5z" />
    <glyph glyph-name="guilsinglleft" unicode="&#x2039;" horiz-adv-x="724" 
d="M311 70l-217 450l4 17l471 462l148 -133l-371 -362l166 -342z" />
    <glyph glyph-name="guilsinglright" unicode="&#x203a;" horiz-adv-x="724" 
d="M152 70l-146 131l369 364l-164 342l199 90l219 -448l-4 -17z" />
    <glyph glyph-name="fraction" unicode="&#x2044;" horiz-adv-x="1083" 
d="M-248 -201l1424 1753h229l-1425 -1753h-228z" />
    <glyph glyph-name="fraction" unicode="&#x2215;" horiz-adv-x="1083" 
d="M-248 -201l1424 1753h229l-1425 -1753h-228z" />
    <glyph glyph-name="trademark" unicode="&#x2122;" horiz-adv-x="1427" 
d="M293 803l141 520h-192l30 111h508l-28 -111h-195l-143 -520h-121zM743 803l175 631h120l109 -299l270 299h135l-174 -631h-116l124 448l-276 -303h-12l-113 303l-125 -448h-117z" />
    <glyph glyph-name="radical" unicode="&#x221a;" horiz-adv-x="2209" 
d="M1647 0l401 1495h248l-402 -1495h-247zM68 0l233 868h-137l57 213h137l21 88q47 171 149.5 253.5t262.5 82.5q125 0 213 -37l-56 -206q-71 32 -151 32q-138 0 -179 -151l-16 -62h299l-57 -213h-295l-234 -868h-247zM879 0l233 868h-137l57 213h137l23 88q83 336 410 336
q125 0 213 -37l-56 -206q-71 32 -151 32q-134 0 -178 -151l-17 -62h299l-57 -213h-295l-234 -868h-247z" />
    <glyph glyph-name="approxequal" unicode="&#x2248;" horiz-adv-x="2209" 
d="M1647 0l290 1081h248l-291 -1081h-247zM68 0l233 868h-137l57 213h137l21 88q47 171 149.5 253.5t262.5 82.5q125 0 213 -37l-56 -206q-71 32 -151 32q-138 0 -179 -151l-16 -62h299l-57 -213h-295l-234 -868h-247zM879 0l233 868h-137l57 213h137l23 88q83 336 410 336
q125 0 213 -37l-56 -206q-71 32 -151 32q-134 0 -178 -151l-17 -62h299l-57 -213h-295l-234 -868h-247zM1974 1247l64 236h266l-63 -236h-267z" />
    <glyph glyph-name="NUL" horiz-adv-x="0" 
 />
    <glyph glyph-name="CR" horiz-adv-x="614" 
 />
    <glyph glyph-name="apple" horiz-adv-x="1980" 
d="M854 131q0 -35 -25 -35q-24 0 -24 35q0 33 24 33q25 0 25 -33zM721 152v-21h-6q-17 0 -17 16q0 13 15 13q8 0 8 -8zM1133 162q9 0 0 -19q-9 19 0 19zM786 444l19 -71q0 -15 -8 -15h-11q-22 0 -37.5 20t-15.5 46q0 35 29 35h12q6 -1 6.5 -2t5.5 -13zM1466 383
q0 -27 -22 -27q-19 0 -35 24t-16 54q0 29 22 29q19 0 35 -24t16 -56zM573 410h-10q-16 0 -23.5 9t-7.5 21q0 19 17 19q15 0 18 -10zM803 786h-23q-26 0 -26 23q0 22 26 22h23v-45zM1401 1096q0 -27 -23 -27q-19 0 -35 24t-16 54q0 29 23 29q19 0 35 -24t16 -56zM557 1133
q-6 -9 -14 -9t-8 4q0 7 8 7q12 0 14 -2zM1159 1133q-6 -9 -14 -9t-8 4q0 7 8 7q12 0 14 -2zM360 1122h-10q-16 0 -23.5 9.5t-7.5 21.5q0 18 17 18q15 0 18 -10zM903 -180q0 26 -22 26q-23 0 -23 -24q0 -27 23 -27q22 0 22 25zM1638 -180q0 26 -22 26q-23 0 -23 -24
q0 -27 23 -27q22 0 22 25zM1155 -188l-10 24l-10 -24h20zM807 -170q0 17 -23 14v-26q23 0 23 12zM1075 -168q0 15 -22 12v-24q22 -3 22 12zM1241 -170q0 17 -22 14v-26q22 0 22 12zM633 94v4q-4 0 -6 2q-6 3 -6 11v41q0 5 6 8q2 2 6 2v4h-37v-4q4 0 6 -2q6 -6 6 -8v-19
q-4 0 -8 4l-16 17q-5 3 -2 6q2 2 4 2v4h-29v-4q4 0 6 -2q3 -1 5 -3t5 -3l21 -19l-27 -26q-1 -1 -4 -3.5t-4 -3.5t-3 -2t-3 -2v-4h35v4q-4 0 -6 2t2 9l16 16q4 4 8 4v-18q0 -5 -6 -11q-2 -2 -6 -2v-4h37zM745 94v4q-4 0 -6 2q-4 4 -4 9v41q0 6 4 10q2 2 6 2v4h-36
q-27 0 -27 -19q0 -9 18 -18l-14 -20l-8 -6l-4 -3l-4 -2v-4h22l15 25q5 8 14 8v-18q0 -3 -6 -9q-2 -2 -4 -2v-4h34zM870 131q0 37 -41 37t-41 -37q0 -39 41 -39t41 39zM983 162v4h-31v-4q2 0 4 -2q1 -1 -2 -8l-12 -19l-12 19q-4 4 0 8q2 2 6 2v4h-31v-4q4 0 6 -2q1 -1 5 -3.5
t6 -4.5l16 -25v-16q0 -5 -6 -11q-2 -2 -4 -2v-4h35v4q-5 0 -7 2q-4 4 -4 11v16l17 25q1 4 5 6l5 2q2 2 4 2zM1194 166h-31v-4q2 0 4 -2q3 -3 0 -8l-18 -39l-10 20l8 17q1 3 2.5 4.5t3 2t2.5 1.5l4 4v4h-53l2 -4q2 0 4 -2l10 -10l6 -11l-14 -26l-16 37q-3 7 0 10q2 2 4 2v4
h-27v-4q2 0 4 -2t4.5 -5.5t3.5 -4.5l27 -56h2q2 -2 2 0l17 33l18 -33h2l25 56q1 3 3 5t4 3t3 2q2 2 4 2v4zM1296 94v4q-3 -3 -6 0q-4 0 -4 11v43q0 6 4 10h6v4h-59l-4 -21l4 -2q0 5 4 9q3 8 14 8h9q8 0 8 -6v-21h-8q-7 0 -11 4q-2 2 -2 6h-4v-26h4q0 4 2 6q6 6 11 6h8v-23
q0 -6 -8 -6h-9q-7 0 -16 9q-4 4 -4 10l-4 -2l4 -23h61zM1421 94v4q-4 0 -6 2q-6 3 -6 9v41q0 5 6 8q1 1 3 2t3 2v4h-20l-49 -53v37q0 7 6 10q2 2 6 2v4h-31v-4q4 0 6 -2q7 -7 7 -10v-58h6l51 58v-41q0 -3 -6 -9q-2 -2 -4 -2v-4h28zM1694 260v12h-1403v-12h1403zM629 350
l-2 6q-7 0 -9 2q-10 3 -12 15l-14 71q-4 12 6 15q2 2 8 2l-2 6h-55q-41 0 -41 -31q0 -12 11 -20t28 -10l-19 -33q-7 -11 -18 -15q-4 -2 -10 -2l2 -6h39l24 47q3 6 10 6l7 -30q4 -11 -7 -15q-2 -2 -8 -2l2 -6h60zM848 350l-2 8q-4 -4 -8 0q-10 3 -13 19l-16 63q-6 18 16 21
l-2 6h-61q-21 0 -36 -11.5t-15 -33.5q0 -31 21.5 -51.5t49.5 -20.5h66zM1071 350l-2 6q-4 0 -6 2q-9 3 -12 19l-15 65q-3 14 6 17q2 2 11 2l-2 6h-29l-59 -86l-11 61q-3 14 6 17q2 2 9 2l-2 6h-43l2 -6q6 0 8 -2q7 -3 10 -17l16 -92l7 -2l61 90l12 -61q3 -15 -4 -19
q-2 -2 -8 -2l2 -6h43zM1272 461l-2 6h-60l2 -6q7 0 9 -2q8 -3 12 -17l10 -43q4 -16 4 -23t-5.5 -12.5t-20.5 -5.5q-30 0 -41 45l-9 39q-3 16 7 19q4 4 8 0v6h-49l2 -6q6 0 10 -2q8 -3 12 -17l8 -39q14 -55 58 -55q52 0 39 49l-11 45q-8 14 7 19q3 3 10 0zM1686 350l-3 6
q-6 0 -8 2q-10 3 -12 15l-14 71q-4 12 6 15q2 2 8 2l-2 6h-92v-21v-14h8q-2 4 2 12q3 15 25 15h8q9 0 12 -13l6 -32h-8q-10 0 -18 8q-4 4 -7 10h-6l11 -47h6q0 6 2 10q3 13 14 13h8l6 -35q4 -12 -6 -15q-2 -2 -8 -2l2 -6h60zM412 440l4 4q-5 8 -6.5 10.5t-6 7.5t-10.5 7
t-14 2q-32 0 -29 -47q-14 47 -43 47q-24 0 -24 -25l6 -2q0 13 16 13q33 0 49 -68q6 -19 -4 -29q-5 -5 -8 -2l2 -8h57l-2 8q-4 -4 -8 0q-9 3 -12 19q-10 38 -10 51q0 27 18 27q10 0 25 -15zM1491 393q0 31 -23.5 54.5t-52.5 23.5q-17 0 -32 -11.5t-15 -33.5q0 -32 23 -55
t53 -23q17 0 32 11.5t15 33.5zM1694 555v12h-1403v-12h1403zM580 631v67h-29v133h29v70h-289v-127h84v57h67v-40h-49v-50h49v-43h-67v58h-84v-125h289zM938 631v67h-29v133h29v70h-197q-44 0 -70 -23t-26 -59t26 -59t70 -23h62v-39h-31v-67h166zM1327 831v70h-166v-70h23
l-31 -47l-31 47h21v70h-127v-70h24l76 -94v-39h-29v-67h166v67h-30v41l75 92h29zM1694 774v127h-301v-127h73v57h23v-133h-29v-67h166v67h-29v133h23v-57h74zM1694 973v12h-1403v-12h1403zM819 1067q0 5 -7 11t-19 7q-6 4 -9 21t-5 34t-13 30.5t-33 13.5q-10 0 -18 -7
t-8 -14q0 -10 10 -10q8 0 8 12q0 13 10 13t14 -15.5t9.5 -39.5t19.5 -38q-18 0 -30 -13t-17 -13q-10 0 -10 8q0 3 2 5t2 5q0 10 -10 10t-10 -14q0 -10 9.5 -17t20.5 -7q19 0 30 13t21 13q6 -14 25 -14q8 0 8 6zM416 1063l-2 6q-6 0 -8 2q-11 4 -13 14l-14 72q-4 11 6 14
q3 3 8 3l-2 6h-55q-41 0 -41 -31q0 -12 11 -21t28 -10l-19 -33q-6 -10 -18 -14q-4 -2 -10 -2l2 -6h39l24 47q3 6 10 6l7 -31q3 -11 -7 -14q-2 -2 -8 -2l2 -6h60zM1020 1063l-2 6q-6 0 -8 2q-11 4 -13 14l-14 72q-4 11 6 14q3 3 8 3l-2 6h-92v-21v-14h8q-2 4 2 12q3 14 25 14
h8q9 0 12 -12l7 -33h-9q-9 0 -18 9q-2 2 -6 10h-6l10 -47h6q0 6 2 10q3 12 14 12h9l6 -35q4 -11 -6 -14q-2 -2 -9 -2l3 -6h59zM1681 1063l-2 6q-6 0 -8 2q-10 3 -12 14l-14 72q-4 11 6 14q3 3 8 3l-2 6h-58l3 -6q5 0 8 -3q6 -2 10 -14l6 -31h-49l-6 31q-4 11 6 14q3 3 8 3
l-2 6h-59l2 -6q5 0 8 -3q8 -3 12 -14l15 -72q3 -11 -7 -14q-2 -2 -8 -2l2 -6h60l-2 6q-7 0 -9 2q-10 3 -12 14l-6 33h49l6 -33q4 -11 -6 -14q-2 -2 -8 -2l2 -6h59zM604 1100q0 25 -29 35q11 7 11 18q0 12 -11 21.5t-32 9.5q-27 0 -27 -23q0 -12 10 -12q9 0 9 6q0 4 -3.5 6.5
t-3.5 5.5q0 11 15 11q20 0 20 -25q0 -8 -4 -12q-33 3 -33 -13q0 -12 17 -12q12 0 22 10q13 -10 13 -30q0 -29 -25 -29t-25 18q0 7 7 7q1 0 4 -2.5t6 -2.5q8 0 8 11q0 10 -14 10q-19 0 -19 -21q0 -26 33 -26q51 0 51 39zM1206 1100q0 26 -28 35q10 7 10 18q0 12 -11 21.5
t-32 9.5q-27 0 -27 -23q0 -12 10 -12q9 0 9 6q0 4 -3.5 6.5t-3.5 5.5q0 11 15 11q20 0 20 -25q0 -8 -4 -12q-33 3 -33 -13q0 -12 17 -12q12 0 22 10q13 -10 13 -30q0 -29 -25 -29t-25 18q0 7 7 7q1 0 4 -2.5t6 -2.5q8 0 8 11q0 10 -14 10q-19 0 -19 -21q0 -26 33 -26
q51 0 51 39zM1425 1106q0 31 -23 54.5t-52 23.5q-17 0 -32 -11.5t-15 -33.5q0 -32 22.5 -55t52.5 -23q17 0 32 11.5t15 33.5zM1694 1266v12h-1403v-12h1403zM899 1356v4q-3 -3 -6 0q-4 0 -4 10v43q0 6 4 10h6v4h-59l-4 -20l4 -2q0 4 4 8q3 8 14 8h8q8 0 8 -6v-20h-8
q-6 0 -10 4q-2 2 -2 6h-4v-27h4q0 4 2 6q7 7 10 7h8v-23q0 -6 -8 -6h-8q-8 0 -16 8q-4 4 -4 10l-4 -2l4 -22h61zM1032 1356v4q-3 -3 -6 0q-6 0 -6 10v43q0 7 6 10h6v4h-37v-2v-2h4q7 -7 7 -10v-18h-35v18q0 6 4 10h6v2v2h-35v-4h4q6 -6 6 -10v-43q0 -2 -6 -8q-2 -2 -4 -2v-4
h35v4q-4 0 -6 2q-4 4 -4 8v21h35v-21q0 -10 -7 -10q-2 -2 -4 0v-4h37zM1141 1405h4v8q0 3 -1 8.5t-1 8.5q-3 -3 -35 -3q-31 0 -37 3q0 -3 -1 -8.5t-1 -8.5v-8h4q1 1 3 4t3 4q10 10 15 10q6 0 6 -6v-47q0 -10 -6 -10q-2 -2 -4 0v-4h34v4q-3 -3 -6 0q-4 0 -4 10v47q0 6 6 6
q7 0 17 -10q4 -4 4 -8zM582 -207q0 -8 -9 -8q-8 0 -8 8t8 8q9 0 9 -8zM1466 -207q0 -8 -8 -8t-8 8t8 8t8 -8zM317 -145l-24 -70h-2l-23 47l-20 -47h-2l-25 70l12 2l15 -47l20 47h2l21 -47l14 45h12zM432 -145l-24 -70h-2l-23 47l-21 -47h-2l-24 70l12 2l14 -47l21 47h2
l21 -47l14 45h12zM547 -145l-25 -70h-2l-22 47l-21 -47h-2l-24 70l12 2l14 -47l21 47h2l20 -47l15 45h12zM662 -145v-11h-25v-57h-12v57h-25v11h62zM745 -145l-26 -39v-29h-12v29l-29 39l12 2l23 -31l18 29h14zM819 -168q0 -25 -35 -25v-20h-12v68q47 7 47 -23zM915 -178
q0 -37 -34 -37q-16 0 -25.5 10.5t-9.5 24.5q0 37 37 37q13 0 22.5 -10.5t9.5 -24.5zM1006 -176v-31q-11 -8 -27 -8q-37 0 -37 35q0 17 11 27t28 10q13 0 25 -9l-5 -10q-8 8 -22 8q-25 0 -25 -26q0 -25 27 -25l12 4v15h-18v10h31zM1094 -213h-15l-16 23h-10v-23h-13v68
q47 7 47 -21q0 -14 -14 -20zM1180 -213h-13l-8 16h-29l-6 -16h-12l31 70h4zM1253 -168q0 -25 -34 -25v-20h-13v68q47 7 47 -23zM1343 -213h-12v31h-33v-31h-12v68h12v-27h33v27h12v-68zM1438 -145l-27 -39v-29h-12v29l-29 39l12 2l23 -31l18 29h15zM1552 -197l-2 -12
q-6 -6 -20 -6q-37 0 -37 35q0 37 37 37q11 0 22 -7l-4 -10q-6 6 -18 6q-11 0 -18 -7t-7 -17q0 -27 27 -27q9 0 20 8zM1651 -178q0 -37 -35 -37q-16 0 -25.5 10.5t-9.5 24.5q0 37 37 37q13 0 23 -10.5t10 -24.5zM1759 -213h-12l-6 41l-21 -43h-4l-20 43l-6 -41h-13l13 70h2
l26 -54l27 54h2zM1778 0h-1571v1536h1571v-1536z" />
    </font>
</defs>
</svg>
