<?xml version="1.0" standalone="no"?>
<!DOCTYPE svg PUBLIC "-//W3C//DTD SVG 1.1//EN" "http://www.w3.org/Graphics/SVG/1.1/DTD/svg11.dtd" >
<svg xmlns="http://www.w3.org/2000/svg" xmlns:xlink="http://www.w3.org/1999/xlink" version="1.1">
<metadata>
Created by FontForge 20201107 at Sun Nov  3 14:32:20 2024
 By 
HTF Gotham  Copr. 2003 The Hoefler Type Foundry, Inc. Info: www.typography.com
</metadata>
<defs>
<font id="SVN-GothamBlackItalic" horiz-adv-x="1665" >
  <font-face 
    font-family="SVN-Gotham Black"
    font-weight="900"
    font-style="italic"
    font-stretch="normal"
    units-per-em="2048"
    panose-1="2 0 6 3 4 0 0 9 0 4"
    ascent="1638"
    descent="-410"
    x-height="1108"
    cap-height="1434"
    bbox="-297 -412 2685 2410"
    underline-thickness="40"
    underline-position="-271"
    slope="-12"
    unicode-range="U+0020-FB02"
  />
<missing-glyph horiz-adv-x="1024" 
 />
    <glyph glyph-name="fi" unicode="fi" horiz-adv-x="1472" 
d="M821 0l297 1108h389l-297 -1108h-389zM1139 1208l78 287h405l-78 -287h-405zM27 0l215 795h-131l84 313h129l6 22q50 199 165.5 289t309.5 90q141 0 248 -36l-72 -273q-73 25 -131 25q-59 0 -92 -25.5t-47 -79.5l-6 -18h249l-82 -307h-241l-215 -795h-389z" />
    <glyph glyph-name="fl" unicode="fl" horiz-adv-x="1472" 
d="M821 0l402 1495h389l-402 -1495h-389zM27 0l215 795h-131l84 313h129l6 22q50 199 165.5 289t309.5 90q141 0 248 -36l-72 -273q-73 25 -131 25q-59 0 -92 -25.5t-47 -79.5l-6 -18h249l-82 -307h-241l-215 -795h-389z" />
    <glyph glyph-name=".notdef" horiz-adv-x="1024" 
 />
    <glyph glyph-name=".null" horiz-adv-x="0" 
 />
    <glyph glyph-name="nonmarkingreturn" horiz-adv-x="682" 
 />
    <glyph glyph-name="space" unicode=" " horiz-adv-x="567" 
 />
    <glyph glyph-name="exclam" unicode="!" horiz-adv-x="659" 
d="M-20 0l92 348h405l-94 -348h-403zM205 467l92 793l47 174h444l-49 -174l-331 -793h-203z" />
    <glyph glyph-name="quotedbl" unicode="&#x22;" horiz-adv-x="1105" 
d="M137 698l195 736h418l-2 -11l-406 -725h-205zM668 698l196 736h418l-2 -11l-406 -725h-206z" />
    <glyph glyph-name="numbersign" unicode="#" horiz-adv-x="1427" 
d="M575 598h277l86 246h-276zM78 0l96 276h-168l74 330h211l80 230h-193l74 329h235l95 269h297l-95 -269h258l95 269h297l-95 -269h168l-73 -329h-209l-82 -230h194l-73 -330h-236l-98 -276h-297l98 276h-260l-96 -276h-297z" />
    <glyph glyph-name="dollar" unicode="$" horiz-adv-x="1343" 
d="M778 528l-65 -217q166 9 166 117q0 33 -21.5 55t-79.5 45zM707 913l61 211q-84 0 -127 -31t-43 -81q0 -35 23 -55t86 -44zM362 -201l64 219q-286 53 -465 232l238 248q159 -132 327 -168l76 250q-201 62 -297 148t-96 241q0 197 171.5 331t446.5 134h19l35 118h213
l-41 -141q211 -49 364 -180l-219 -266q-102 85 -244 131l-71 -236q192 -62 287.5 -150t95.5 -239q0 -209 -173 -340t-450 -131h-10l-58 -201h-213z" />
    <glyph glyph-name="percent" unicode="%" horiz-adv-x="1890" 
d="M1409 195q73 0 120.5 68t47.5 151q0 58 -31 93.5t-84 35.5q-73 0 -120.5 -67.5t-47.5 -151.5q0 -58 31 -93.5t84 -35.5zM516 891q71 0 118.5 67.5t47.5 151.5q0 58 -31 93.5t-84 35.5q-70 0 -118 -68.5t-48 -150.5q0 -58 31 -93.5t84 -35.5zM1399 -20q-160 0 -251 93
t-91 240q0 112 50.5 213t147.5 166.5t218 65.5q160 0 251 -93.5t91 -240.5q0 -112 -50.5 -212.5t-147.5 -166t-218 -65.5zM139 0l1411 1434h289l-1413 -1434h-287zM506 676q-162 0 -253 92.5t-91 241.5q0 112 50.5 212.5t147.5 166t218 65.5q160 0 251 -93.5t91 -240.5
q0 -83 -30.5 -162.5t-83 -142t-131.5 -101t-169 -38.5z" />
    <glyph glyph-name="ampersand" unicode="&#x26;" horiz-adv-x="1433" 
d="M569 272q96 0 211 68l-194 276q-185 -77 -185 -213q0 -58 45 -94.5t123 -36.5zM743 905q105 39 149 79t44 99q0 46 -29.5 76.5t-77.5 30.5q-59 0 -96 -40.5t-37 -98.5q0 -72 47 -146zM1059 -29l-101 142q-212 -136 -438 -136q-229 0 -361 106.5t-132 289.5q0 161 108 276
t303 178q-65 127 -65 238q0 167 125 281t329 114q189 0 307.5 -102.5t118.5 -259.5q0 -267 -354 -393l125 -170q72 78 147 188l232 -162q-89 -136 -201 -254l117 -157z" />
    <glyph glyph-name="quotesingle" unicode="'" horiz-adv-x="577" 
d="M137 698l195 736h424l-2 -11l-406 -725h-211z" />
    <glyph glyph-name="parenleft" unicode="(" horiz-adv-x="931" 
d="M717 -68l-221 -225q-198 153 -301 334t-103 403q0 179 62 340.5t175 289.5t266.5 226t340.5 160l115 -264q-285 -127 -433.5 -325.5t-148.5 -415.5q0 -142 61 -265.5t187 -257.5z" />
    <glyph glyph-name="parenright" unicode=")" horiz-adv-x="931" 
d="M14 -287l-116 264q146 64 258.5 149.5t182 182.5t105 200.5t35.5 209.5q0 141 -60.5 264.5t-187.5 257.5l224 225q401 -309 401 -737q0 -178 -62 -339.5t-174.5 -289.5t-266 -226.5t-339.5 -160.5z" />
    <glyph glyph-name="asterisk" unicode="*" horiz-adv-x="892" 
d="M584 674l-209 55l119 248l-250 -119l-58 211l277 21l-230 157l158 156l156 -229l20 274l209 -55l-119 -250l250 121l58 -213l-277 -21l230 -158l-158 -153l-156 229z" />
    <glyph glyph-name="plus" unicode="+" horiz-adv-x="1331" 
d="M391 197l94 352h-344l92 344h345l94 352h358l-94 -352h344l-92 -344h-344l-94 -352h-359z" />
    <glyph glyph-name="comma" unicode="," horiz-adv-x="618" 
d="M-135 -338l-17 150q121 12 185.5 59t83.5 133h-158l109 399h403l-92 -344q-55 -202 -172 -296t-342 -101z" />
    <glyph glyph-name="hyphen" unicode="-" horiz-adv-x="854" 
d="M68 469l92 342h671l-90 -342h-673z" />
    <glyph glyph-name="hyphen" unicode="&#xad;" horiz-adv-x="854" 
d="M68 469l92 342h671l-90 -342h-673z" />
    <glyph glyph-name="period" unicode="." horiz-adv-x="618" 
d="M-41 0l107 399h405l-109 -399h-403z" />
    <glyph glyph-name="slash" unicode="/" horiz-adv-x="1095" 
d="M-297 -262l1397 1896h340l-1397 -1896h-340z" />
    <glyph glyph-name="zero" unicode="0" horiz-adv-x="1486" 
d="M711 322q79 0 148 50.5t113.5 130t69.5 173t25 182.5q0 125 -55.5 188.5t-151.5 63.5q-79 0 -147.5 -51t-112.5 -130.5t-69 -173t-25 -182.5q0 -124 55 -187.5t150 -63.5zM676 -29q-261 0 -417.5 163.5t-156.5 418.5q0 136 35.5 269t105.5 248t164.5 203t221 138.5
t266.5 50.5q132 0 240.5 -44.5t181.5 -122.5t113 -184.5t40 -229.5q0 -172 -57.5 -335t-158.5 -291t-252 -206t-326 -78z" />
    <glyph glyph-name="one" unicode="1" horiz-adv-x="880" 
d="M172 0l283 1059l-240 -58l-8 322l455 121h288l-387 -1444h-391z" />
    <glyph glyph-name="two" unicode="2" horiz-adv-x="1284" 
d="M-68 0l84 307l729 475q91 61 128.5 110.5t37.5 102.5q0 55 -36 86t-103 31q-141 0 -326 -178l-231 244q254 278 594 278q230 0 367 -114t137 -295q0 -138 -84 -254t-293 -246l-350 -223h571l-88 -324h-1137z" />
    <glyph glyph-name="three" unicode="3" horiz-adv-x="1251" 
d="M524 -29q-385 0 -573 277l270 223q62 -81 134 -120.5t169 -39.5q103 0 171.5 51t68.5 119q0 131 -223 131h-138l-8 205l402 295h-537l86 322h1036l-77 -285l-439 -305q138 -38 214.5 -126t76.5 -222q0 -234 -176 -379.5t-457 -145.5z" />
    <glyph glyph-name="four" unicode="4" horiz-adv-x="1390" 
d="M457 573h338l108 408zM641 0l74 279h-658l-43 290l975 875h420l-231 -869h182l-82 -296h-180l-76 -279h-381z" />
    <glyph glyph-name="five" unicode="5" horiz-adv-x="1253" 
d="M535 -27q-173 0 -334 73.5t-246 180.5l250 234q155 -152 342 -152q112 0 181 56.5t69 138.5q0 69 -53.5 111t-159.5 42q-107 0 -203 -59l-203 141l228 695h946l-88 -328h-627l-66 -199q89 29 183 29q199 0 320.5 -107.5t121.5 -289.5q0 -118 -47.5 -221.5t-132 -180
t-209.5 -120.5t-272 -44z" />
    <glyph glyph-name="six" unicode="6" horiz-adv-x="1339" 
d="M649 274q99 0 163.5 69t64.5 159q0 72 -47 116t-125 44q-103 0 -168.5 -66.5t-65.5 -159.5q0 -71 45 -110q52 -52 133 -52zM649 -27q-124 0 -228 37.5t-173 106.5q-148 148 -148 395q0 198 72.5 390.5t208.5 328.5q229 229 563 229q281 0 463 -155l-199 -281
q-57 51 -130.5 81t-149.5 30q-166 0 -279 -113q-81 -81 -121 -197q57 50 143.5 81.5t184.5 31.5q113 0 205.5 -44.5t149.5 -134.5t57 -210q0 -156 -82.5 -288.5t-225 -210t-311.5 -77.5z" />
    <glyph glyph-name="seven" unicode="7" horiz-adv-x="1257" 
d="M-8 0l864 1100h-647l90 334h1106l-82 -299l-877 -1135h-454z" />
    <glyph glyph-name="eight" unicode="8" horiz-adv-x="1359" 
d="M647 272q94 0 157.5 47t63.5 123q1 70 -57.5 112t-146.5 42q-93 0 -157.5 -47.5t-64.5 -120.5q0 -71 58.5 -113.5t146.5 -42.5zM778 854q83 0 141 45.5t58 116.5q1 65 -51 105t-133 40q-83 0 -141 -45.5t-58 -116.5q-1 -66 51.5 -105.5t132.5 -39.5zM625 -20
q-158 0 -288 47.5t-209 140.5t-79 213q0 149 92.5 247t257.5 142q-75 44 -115 114t-40 156q0 77 37.5 150t106.5 132.5t180.5 95.5t246.5 36q236 0 383.5 -111.5t147.5 -279.5q0 -131 -81 -221.5t-227 -132.5q211 -90 211 -295q0 -185 -172.5 -309.5t-451.5 -124.5z" />
    <glyph glyph-name="nine" unicode="9" horiz-adv-x="1339" 
d="M725 766q100 0 164.5 68t64.5 163q0 67 -43 113q-49 49 -133 49q-100 0 -164.5 -68t-64.5 -163q0 -73 49 -117.5t127 -44.5zM487 -27q-281 0 -477 166l199 279q139 -119 289 -119q163 0 280 117q77 77 117 186q-57 -50 -142 -80t-184 -30q-175 0 -293 103.5t-118 285.5
q0 161 82.5 295t224 210t311.5 76q122 0 227.5 -37t174.5 -106q149 -149 149 -410q0 -195 -73.5 -381.5t-211.5 -324.5q-230 -230 -555 -230z" />
    <glyph glyph-name="colon" unicode=":" horiz-adv-x="628" 
d="M-37 0l109 399h403l-106 -399h-406zM154 709l106 399h406l-109 -399h-403z" />
    <glyph glyph-name="semicolon" unicode=";" horiz-adv-x="628" 
d="M-131 -342l-16 149q121 12 185 59.5t83 133.5h-158l109 399h403l-92 -344q-55 -202 -172 -296t-342 -101zM154 709l106 399h406l-109 -399h-403z" />
    <glyph glyph-name="semicolon" unicode="&#x37e;" horiz-adv-x="628" 
d="M-131 -342l-16 149q121 12 185 59.5t83 133.5h-158l109 399h403l-92 -344q-55 -202 -172 -296t-342 -101zM154 709l106 399h406l-109 -399h-403z" />
    <glyph glyph-name="less" unicode="&#x3c;" horiz-adv-x="1318" 
d="M1051 133l-912 406l99 362l1126 406l-102 -379l-730 -226l611 -223z" />
    <glyph glyph-name="equal" unicode="=" horiz-adv-x="1308" 
d="M78 274l92 342h1006l-91 -342h-1007zM225 825l92 342h1008l-92 -342h-1008z" />
    <glyph glyph-name="greater" unicode="&#x3e;" horiz-adv-x="1318" 
d="M41 133l102 379l729 225l-610 224l92 346l912 -406l-99 -362z" />
    <glyph glyph-name="question" unicode="?" horiz-adv-x="1105" 
d="M137 0l94 348h404l-94 -348h-404zM344 467l37 344l18 16q373 35 373 179q0 102 -137 102q-133 0 -277 -111l-159 277q103 88 233 134t273 46q210 0 336 -106.5t126 -266.5q0 -179 -128 -300t-386 -163l-61 -151h-248z" />
    <glyph glyph-name="at" unicode="@" horiz-adv-x="1976" 
d="M942 391q89 0 156 77t67 183q0 63 -40 102.5t-103 39.5q-91 0 -156 -76t-65 -182q0 -66 37.5 -105t103.5 -39zM946 -315q-250 0 -443 99t-300 279.5t-107 415.5q0 197 78 378t210.5 314.5t320 213t395.5 79.5q189 0 346 -55.5t260.5 -151t160 -223t56.5 -272.5
q0 -131 -28.5 -239.5t-76 -182.5t-112 -125t-135 -74.5t-146.5 -23.5q-109 0 -190 46t-121 122q-69 -76 -147 -120t-179 -44q-136 0 -226.5 95.5t-90.5 256.5q0 123 41.5 233.5t110 188t160 123t188.5 45.5q176 0 264 -148l43 138l301 -82l-164 -520q-31 -98 0.5 -151.5
t118.5 -53.5q51 0 103.5 34.5t98 98t74.5 165.5t29 224q0 126 -51 237.5t-143.5 195.5t-233.5 132.5t-311 48.5q-192 0 -364 -73.5t-293 -196t-192 -288t-71 -345.5q0 -158 56 -291t155.5 -226.5t243 -145.5t313.5 -52q113 0 210.5 22t209.5 71l33 -76q-212 -96 -455 -96z
" />
    <glyph glyph-name="A" unicode="A" horiz-adv-x="1587" 
d="M653 565h320l-51 412zM-152 0l998 1444h389l223 -1444h-418l-34 256h-553l-172 -256h-433z" />
    <glyph glyph-name="B" unicode="B" horiz-adv-x="1462" 
d="M449 319h301q103 0 162 41.5t59 110.5q0 113 -176 113h-275zM596 862h268q104 0 160.5 39t56.5 107q0 106 -172 106h-247zM-25 0l385 1434h596q142 0 246 -27.5t162 -77t84.5 -108.5t26.5 -131q0 -137 -85 -233.5t-237 -133.5q101 -37 159 -109t58 -178q0 -94 -40 -172.5
t-118.5 -137.5t-204.5 -92.5t-288 -33.5h-744z" />
    <glyph glyph-name="C" unicode="C" horiz-adv-x="1488" 
d="M782 -29q-301 0 -489.5 171.5t-188.5 455.5q0 127 39.5 252.5t117.5 235t184.5 194t250 133.5t303.5 49q216 0 365 -96t217 -266l-344 -185q-90 185 -289 185q-116 0 -215.5 -66t-156 -174.5t-56.5 -232.5q0 -135 80 -215t207 -80q90 0 162 36t145 109l268 -237
q-237 -269 -600 -269z" />
    <glyph glyph-name="D" unicode="D" horiz-adv-x="1558" 
d="M469 352h131q126 0 232.5 37.5t177.5 108.5q58 58 90.5 136t32.5 163q0 124 -72 196q-88 88 -281 88h-114zM-25 0l385 1434h463q376 0 561 -185q156 -156 156 -420q0 -330 -235 -565q-264 -264 -752 -264h-578z" />
    <glyph glyph-name="E" unicode="E" horiz-adv-x="1370" 
d="M-25 0l385 1434h1149l-92 -338h-753l-60 -217h684l-84 -314h-684l-61 -227h766l-90 -338h-1160z" />
    <glyph glyph-name="F" unicode="F" horiz-adv-x="1335" 
d="M-25 0l385 1434h1147l-94 -349h-747l-66 -243h676l-88 -330h-676l-137 -512h-400z" />
    <glyph glyph-name="G" unicode="G" horiz-adv-x="1560" 
d="M793 -29q-106 0 -204.5 23t-187.5 73.5t-155 123t-105 179t-39 234.5q0 170 67.5 326.5t186.5 274t292.5 187.5t373.5 70q202 0 357.5 -70t236.5 -173l-266 -258q-147 147 -355 147q-140 0 -252.5 -66.5t-173.5 -177.5t-61 -243q0 -146 91.5 -226t229.5 -80q108 0 191 39
l57 193h-276l76 291h657l-205 -723q-248 -144 -536 -144z" />
    <glyph glyph-name="H" unicode="H" horiz-adv-x="1550" 
d="M-25 0l385 1434h400l-146 -537h506l144 537h399l-385 -1434h-399l147 545h-506l-145 -545h-400z" />
    <glyph glyph-name="I" unicode="I" horiz-adv-x="665" 
d="M-14 0l385 1434h397l-385 -1434h-397z" />
    <glyph glyph-name="J" unicode="J" horiz-adv-x="1163" 
d="M403 -25q-154 0 -282 65t-205 187l270 236q55 -74 109 -106.5t121 -32.5q88 0 153 65q31 31 53 81t56 163l215 801h395l-233 -877q-42 -155 -91 -254t-122 -172q-162 -156 -439 -156z" />
    <glyph glyph-name="K" unicode="K" horiz-adv-x="1478" 
d="M-25 0l385 1434h400l-156 -574l592 574h506l-676 -629l320 -805h-431l-206 553l-248 -227l-86 -326h-400z" />
    <glyph glyph-name="L" unicode="L" horiz-adv-x="1263" 
d="M-25 0l385 1434h400l-291 -1086h684l-94 -348h-1084z" />
    <glyph glyph-name="M" unicode="M" horiz-adv-x="1773" 
d="M-25 0l385 1434h402l190 -555l488 555h446l-385 -1434h-399l219 823l-514 -561h-8l-211 557l-219 -819h-394z" />
    <glyph glyph-name="N" unicode="N" horiz-adv-x="1599" 
d="M-25 0l385 1434h371l371 -797l215 797h395l-385 -1434h-348l-387 825l-221 -825h-396z" />
    <glyph glyph-name="O" unicode="O" 
d="M825 330q91 0 170.5 41t131.5 107t82 147t30 161q0 141 -82.5 229.5t-230.5 88.5q-90 0 -169.5 -41.5t-132 -107.5t-82.5 -147t-30 -161q0 -141 82.5 -229t230.5 -88zM791 -27q-151 0 -279.5 49t-217 134.5t-138.5 204.5t-50 255q0 130 40.5 255t117.5 230.5t180.5 186.5
t237 126.5t279.5 45.5q151 0 279.5 -49t217 -134.5t138 -204.5t49.5 -255q0 -108 -29 -214t-81.5 -199t-130 -172.5t-170.5 -136.5t-207 -89.5t-236 -32.5z" />
    <glyph glyph-name="P" unicode="P" horiz-adv-x="1376" 
d="M567 721h150q146 0 227.5 59.5t81.5 163.5q0 59 -41 100q-56 56 -170 56h-147zM-25 0l385 1434h469q176 0 295 -37t197 -115q113 -113 113 -293q0 -175 -89.5 -306.5t-251 -201t-372.5 -69.5h-236l-110 -412h-400z" />
    <glyph glyph-name="Q" unicode="Q" 
d="M823 322q47 0 103 18l-158 213l285 188l123 -192q63 111 63 233q0 145 -82 233.5t-231 88.5q-91 0 -170.5 -41.5t-132.5 -108t-83 -148t-30 -163.5q0 -145 82 -233t231 -88zM1235 -92l-92 141q-162 -76 -352 -76q-151 0 -279.5 49t-217 134.5t-138.5 204.5t-50 255
q0 130 40.5 255t117.5 230.5t180.5 186.5t237 126.5t279.5 45.5q151 0 279.5 -49t217 -134.5t138 -204.5t49.5 -255q0 -158 -62 -307t-174 -268l109 -148z" />
    <glyph glyph-name="R" unicode="R" horiz-adv-x="1474" 
d="M573 745h228q135 0 215 53.5t80 145.5q0 56 -37 96q-50 50 -176 50h-215zM-25 0l385 1434h541q344 0 494 -150q110 -110 110 -293q0 -185 -107 -317.5t-323 -190.5l221 -483h-438l-190 434h-176l-117 -434h-400z" />
    <glyph glyph-name="S" unicode="S" horiz-adv-x="1320" 
d="M618 -25q-208 0 -377 68t-288 195l256 264q213 -195 442 -195q73 0 117.5 29t44.5 78q0 42 -46 73.5t-194 87.5q-92 35 -155 69t-115 80.5t-77 107.5t-25 139q0 141 78.5 252.5t217.5 173t312 61.5q362 0 588 -213l-246 -274q-178 157 -379 157q-70 0 -113 -29t-43 -73
q0 -41 45 -69.5t195 -86.5q88 -33 151.5 -67.5t116 -82t79 -109.5t26.5 -140q0 -220 -171.5 -358t-439.5 -138z" />
    <glyph glyph-name="T" unicode="T" horiz-adv-x="1320" 
d="M309 0l293 1085h-430l94 349h1256l-92 -349h-431l-290 -1085h-400z" />
    <glyph glyph-name="U" unicode="U" horiz-adv-x="1556" 
d="M700 -27q-277 0 -428 131.5t-151 370.5q0 115 33 230l196 729h402l-203 -758q-21 -70 -21 -135q0 -99 58 -154t166 -55q116 0 192 76q76 71 121 237l213 789h401l-227 -848q-77 -282 -223 -428q-185 -185 -529 -185z" />
    <glyph glyph-name="V" unicode="V" horiz-adv-x="1513" 
d="M414 -10l-191 1444h434l80 -902l563 902h449l-965 -1444h-370z" />
    <glyph glyph-name="W" unicode="W" horiz-adv-x="2256" 
d="M332 -10l-92 1444h411l27 -830l496 834h344l55 -834l471 830h432l-866 -1444h-357l-65 815l-502 -815h-354z" />
    <glyph glyph-name="X" unicode="X" horiz-adv-x="1460" 
d="M-154 0l699 750l-297 684h436l158 -404l354 404h479l-663 -713l315 -721h-438l-172 442l-389 -442h-482z" />
    <glyph glyph-name="Y" unicode="Y" horiz-adv-x="1386" 
d="M326 0l149 555l-289 879h428l142 -537l432 537h475l-801 -922l-137 -512h-399z" />
    <glyph glyph-name="Z" unicode="Z" horiz-adv-x="1394" 
d="M-74 0l76 289l913 809h-671l92 336h1218l-77 -289l-914 -809h699l-91 -336h-1245z" />
    <glyph glyph-name="bracketleft" unicode="[" horiz-adv-x="958" 
d="M-53 -266l456 1700h709l-72 -265h-360l-315 -1171h360l-70 -264h-708z" />
    <glyph glyph-name="backslash" unicode="\" horiz-adv-x="1095" 
d="M647 -262l-424 1896h314l424 -1896h-314z" />
    <glyph glyph-name="bracketright" unicode="]" horiz-adv-x="958" 
d="M-137 -266l71 264h361l313 1171h-360l71 265h709l-457 -1700h-708z" />
    <glyph glyph-name="asciicircum" unicode="^" horiz-adv-x="1024" 
d="M182 1010l408 422h262l182 -422h-252l-102 198l-209 -198h-289z" />
    <glyph glyph-name="underscore" unicode="_" horiz-adv-x="1228" 
d="M-240 -328l64 238h1237l-64 -238h-1237z" />
    <glyph glyph-name="grave" unicode="`" horiz-adv-x="1024" 
d="M682 1202l-227 262l366 117l113 -379h-252z" />
    <glyph glyph-name="a" unicode="a" horiz-adv-x="1222" 
d="M492 217q75 0 139.5 57.5t87.5 143.5l10 37q-74 24 -145 24q-93 0 -148 -43t-55 -117q0 -47 30.5 -74.5t80.5 -27.5zM311 -23q-138 0 -223.5 82t-85.5 220q0 181 132.5 286t354.5 105q141 0 281 -43l4 14q10 30 10 68q0 118 -190 118q-157 0 -299 -55l-55 283
q191 67 436 67q246 0 369.5 -91.5t123.5 -260.5q0 -70 -22 -160l-164 -610h-383l31 119q-78 -71 -152.5 -106.5t-167.5 -35.5z" />
    <glyph glyph-name="b" unicode="b" horiz-adv-x="1376" 
d="M655 299q111 0 191 93t80 224q0 90 -51 142.5t-138 52.5q-112 0 -193 -93.5t-81 -221.5q0 -90 52.5 -143.5t139.5 -53.5zM723 -25q-220 0 -336 177l-41 -152h-389l399 1495h389l-135 -504q142 142 316 142q170 0 281.5 -123t111.5 -332q0 -146 -48.5 -277t-129.5 -224
t-190.5 -147.5t-227.5 -54.5z" />
    <glyph glyph-name="c" unicode="c" horiz-adv-x="1153" 
d="M575 -27q-229 0 -373.5 132t-144.5 354q0 183 89 337.5t242 244t335 89.5q184 0 304 -83.5t167 -219.5l-305 -157q-31 70 -75 104.5t-116 34.5t-133.5 -47t-97 -123t-35.5 -160t48 -134t122 -50q60 0 108 24.5t101 77.5l238 -207q-91 -106 -204 -161.5t-270 -55.5z" />
    <glyph glyph-name="d" unicode="d" horiz-adv-x="1376" 
d="M639 297q112 0 193 93.5t81 221.5q0 90 -52.5 143.5t-139.5 53.5q-111 0 -190.5 -93t-79.5 -224q0 -90 50.5 -142.5t137.5 -52.5zM451 -25q-170 0 -282 123t-112 332q0 146 48.5 277t129.5 224t190.5 147.5t227.5 54.5q220 0 336 -177l144 539h389l-400 -1495h-389
l33 117q-149 -142 -315 -142z" />
    <glyph glyph-name="e" unicode="e" horiz-adv-x="1230" 
d="M442 645h396q10 33 10 60q0 61 -39 101t-113 40q-81 0 -150.5 -52.5t-103.5 -148.5zM1151 446h-735q6 -87 58 -134.5t149 -47.5q118 0 235 88l180 -213q-195 -166 -452 -166q-245 0 -387 133.5t-142 358.5q0 98 29.5 195t87.5 182t137 150t186 103t226 38t211.5 -37.5
t148 -102.5t83.5 -145.5t28 -173.5q0 -113 -43 -228z" />
    <glyph glyph-name="f" unicode="f" horiz-adv-x="856" 
d="M27 0l215 795h-131l84 313h129l6 22q50 199 165.5 289t309.5 90q141 0 248 -36l-72 -273q-73 25 -131 25q-59 0 -92 -25.5t-47 -79.5l-6 -18h249l-82 -307h-241l-215 -795h-389z" />
    <glyph glyph-name="g" unicode="g" horiz-adv-x="1368" 
d="M635 379q110 0 186 80.5t76 187.5q0 79 -49.5 127.5t-134.5 48.5q-110 0 -184 -82.5t-74 -191.5q0 -78 49 -124t131 -46zM487 -332q-158 0 -317.5 41.5t-265.5 110.5l174 243q188 -114 393 -114q147 0 229 82q59 59 93 178l6 24q-76 -68 -156 -101.5t-180 -33.5
q-103 0 -191.5 43t-146 132t-57.5 208q0 171 75.5 319.5t210 239t295.5 90.5q220 0 336 -180l41 158h389l-235 -881q-41 -147 -85.5 -236t-111.5 -161q-86 -83 -205.5 -122.5t-290.5 -39.5z" />
    <glyph glyph-name="h" unicode="h" horiz-adv-x="1294" 
d="M-43 0l399 1495h389l-137 -514q144 152 318 152q151 0 236 -88.5t85 -243.5q0 -67 -33 -199l-159 -602h-389l155 580q13 50 13 90q0 56 -31.5 86t-91.5 30q-153 0 -207 -200l-158 -586h-389z" />
    <glyph glyph-name="i" unicode="i" horiz-adv-x="616" 
d="M-35 0l297 1108h389l-297 -1108h-389zM283 1208l77 287h406l-78 -287h-405z" />
    <glyph glyph-name="j" unicode="j" horiz-adv-x="620" 
d="M-109 -334q-83 0 -165 15l67 258q28 -7 49 -7q60 0 94.5 36t57.5 124l272 1016h389l-286 -1065q-30 -110 -73.5 -183.5t-104 -116t-132 -60t-168.5 -17.5zM285 1208l77 287h406l-78 -287h-405z" />
    <glyph glyph-name="k" unicode="k" horiz-adv-x="1226" 
d="M-43 0l401 1495h390l-197 -731l371 344h469l-510 -455l217 -653h-416l-119 393l-145 -129l-72 -264h-389z" />
    <glyph glyph-name="l" unicode="l" horiz-adv-x="616" 
d="M-35 0l402 1495h389l-402 -1495h-389z" />
    <glyph glyph-name="m" unicode="m" horiz-adv-x="1982" 
d="M-43 0l297 1108h389l-33 -123q141 148 310 148q111 0 183.5 -51.5t104.5 -141.5q166 193 402 193q158 0 242.5 -87t84.5 -243q0 -73 -32 -201l-162 -602h-387l153 580q15 58 15 90q0 116 -119 116q-149 0 -203 -200l-158 -586h-389l156 580q14 54 14 90q0 116 -118 116
q-149 0 -203 -200l-158 -586h-389z" />
    <glyph glyph-name="n" unicode="n" horiz-adv-x="1290" 
d="M-43 0l297 1108h389l-35 -127q144 152 318 152q151 0 236 -88.5t85 -243.5q0 -67 -33 -199l-159 -602h-389l155 580q13 50 13 90q0 56 -31.5 86t-91.5 30q-153 0 -207 -200l-158 -586h-389z" />
    <glyph glyph-name="o" unicode="o" horiz-adv-x="1318" 
d="M627 297q111 0 184.5 95.5t73.5 211.5q0 93 -53 149t-140 56q-74 0 -135 -47.5t-92 -116.5t-31 -141q0 -96 53 -151.5t140 -55.5zM604 -27q-248 0 -395.5 145.5t-147.5 370.5q0 167 84.5 314.5t236 238.5t331.5 91q125 0 228 -40t172 -109.5t106.5 -163.5t37.5 -202
q0 -125 -50.5 -242.5t-136.5 -206t-208 -142.5t-258 -54z" />
    <glyph glyph-name="p" unicode="p" horiz-adv-x="1376" 
d="M655 299q111 0 191 93t80 224q0 90 -51 142.5t-138 52.5q-112 0 -193 -93.5t-81 -221.5q0 -90 52.5 -143.5t139.5 -53.5zM-131 -328l385 1436h389l-33 -117q142 142 316 142q170 0 281.5 -123t111.5 -332q0 -146 -48.5 -277t-129.5 -224t-190.5 -147.5t-227.5 -54.5
q-220 0 -336 177l-129 -480h-389z" />
    <glyph glyph-name="q" unicode="q" horiz-adv-x="1376" 
d="M639 297q112 0 193 93.5t81 221.5q0 90 -52.5 143.5t-139.5 53.5q-111 0 -190.5 -93t-79.5 -224q0 -90 50.5 -142.5t137.5 -52.5zM635 -369l131 486q-149 -142 -315 -142q-170 0 -282 123t-112 332q0 146 48.5 277t129.5 224t190.5 147.5t227.5 54.5q220 0 336 -177
l41 152h389l-395 -1477h-389z" />
    <glyph glyph-name="r" unicode="r" horiz-adv-x="880" 
d="M-43 0l297 1108h389l-59 -223q174 260 415 241l-110 -409h-33q-161 0 -263.5 -93t-156.5 -290l-90 -334h-389z" />
    <glyph glyph-name="s" unicode="s" horiz-adv-x="1046" 
d="M471 -27q-159 0 -303 51t-244 142l193 227q77 -70 178.5 -109.5t189.5 -39.5q49 0 74 18t25 49q0 28 -32.5 49.5t-119.5 55.5q-75 31 -124 57t-95.5 64.5t-69 88t-22.5 113.5q0 171 130 282.5t353 111.5q144 0 270.5 -44.5t208.5 -111.5l-186 -234q-73 55 -156 87
t-157 32q-97 0 -97 -63q0 -28 30.5 -47.5t123.5 -57.5q58 -24 94.5 -41.5t82 -47t71 -60t43.5 -75.5t18 -99q0 -81 -30.5 -152t-88.5 -126.5t-151 -87.5t-209 -32z" />
    <glyph glyph-name="t" unicode="t" horiz-adv-x="880" 
d="M438 -23q-167 0 -251.5 68.5t-84.5 194.5q0 62 21 145l110 410h-131l84 313h131l76 281h389l-75 -281h258l-84 -313h-258l-95 -349q-10 -52 -10 -67q0 -70 88 -70q60 0 148 31l-86 -324q-112 -39 -230 -39z" />
    <glyph glyph-name="u" unicode="u" horiz-adv-x="1294" 
d="M375 -25q-151 0 -236.5 88.5t-85.5 243.5q0 75 31 199l162 602h389l-156 -580q-14 -54 -14 -90q0 -56 32 -86t93 -30q154 0 205 200l157 586h389l-294 -1108h-390l33 127q-144 -152 -315 -152z" />
    <glyph glyph-name="v" unicode="v" horiz-adv-x="1271" 
d="M309 -8l-143 1116h399l41 -645l383 645h414l-739 -1116h-355z" />
    <glyph glyph-name="w" unicode="w" horiz-adv-x="1759" 
d="M211 -8l-39 1116h375l-4 -557l321 561h320l22 -565l299 561h379l-641 -1116h-332l-26 575l-338 -575h-336z" />
    <glyph glyph-name="x" unicode="x" horiz-adv-x="1206" 
d="M-127 0l530 575l-229 533h404l96 -268l223 268h438l-516 -561l234 -547h-404l-100 281l-238 -281h-438z" />
    <glyph glyph-name="y" unicode="y" horiz-adv-x="1273" 
d="M193 -334q-171 0 -295 80l174 285q77 -56 153 -56q31 0 52 8.5t45 32.5l-144 1092h395l45 -666l373 666h410l-686 -1102q-117 -185 -238 -262.5t-284 -77.5z" />
    <glyph glyph-name="z" unicode="z" horiz-adv-x="1142" 
d="M-82 0l70 256l651 543h-487l81 309h996l-68 -256l-653 -543h510l-82 -309h-1018z" />
    <glyph glyph-name="braceleft" unicode="{" horiz-adv-x="1017" 
d="M768 -78l-109 -211q-164 19 -262.5 61.5t-136 99.5t-37.5 138q0 78 33 168q33 108 33 156q0 64 -36.5 94.5t-143.5 30.5h-54l68 258h55q160 0 220 64.5t85 248.5q12 88 36 152.5t69.5 120t114.5 89.5t172.5 53t242.5 19l25 -229q-80 -7 -136.5 -24.5t-91.5 -41
t-57.5 -63.5t-32.5 -79.5t-18 -100.5q-21 -177 -93 -260.5t-249 -102.5q176 -35 176 -194q0 -49 -29 -146q-30 -88 -30 -139q0 -64 39 -100.5t147 -61.5z" />
    <glyph glyph-name="bar" unicode="|" horiz-adv-x="729" 
d="M250 -262v1896h297v-1896h-297z" />
    <glyph glyph-name="braceright" unicode="}" horiz-adv-x="1017" 
d="M-82 -289l-24 230q80 7 136 24.5t90.5 41t56.5 64t32.5 79t19.5 100.5q21 177 93 260t249 102q-176 35 -176 195q0 48 29 145q31 91 31 140q0 63 -38.5 97.5t-148.5 63.5l109 211q164 -19 262.5 -61.5t136 -99.5t37.5 -138q0 -78 -33 -168q-32 -105 -32 -155
q0 -64 36.5 -94.5t143.5 -30.5h53l-68 -258h-55q-160 0 -220 -65t-85 -249q-12 -88 -36 -152.5t-69.5 -120t-114.5 -89.5t-172.5 -53t-242.5 -19z" />
    <glyph glyph-name="asciitilde" unicode="~" horiz-adv-x="1034" 
d="M264 442l-180 84q60 142 145 218.5t183 76.5q87 0 172 -63q70 -49 106 -49q41 0 72.5 29t62.5 87l183 -84q-60 -142 -145.5 -218.5t-184.5 -76.5q-86 0 -172 64q-70 49 -107 49q-40 0 -71.5 -29.5t-63.5 -87.5z" />
    <glyph glyph-name="nbspace" unicode="&#xa0;" horiz-adv-x="567" 
 />
    <glyph glyph-name="exclamdown" unicode="&#xa1;" horiz-adv-x="659" 
d="M-41 0l49 174l332 793h203l-92 -793l-48 -174h-444zM270 1085l95 349h403l-92 -349h-406z" />
    <glyph glyph-name="cent" unicode="&#xa2;" horiz-adv-x="1198" 
d="M518 506l199 506q-79 -8 -141 -60.5t-93.5 -127t-31.5 -154.5q0 -110 67 -164zM303 -12l86 219q-132 61 -205 175.5t-73 270.5q0 136 50.5 257.5t138 209.5t212 139.5t266.5 51.5h43l53 135h226l-72 -182q178 -79 240 -260l-281 -146q-26 73 -86 115l-201 -520
q111 8 211 108l222 -196q-182 -211 -467 -211q-55 0 -72 4l-66 -170h-225z" />
    <glyph glyph-name="sterling" unicode="&#xa3;" horiz-adv-x="1292" 
d="M-45 0l63 238l168 57l68 248h-154l74 276h154l30 117q61 236 189 364q158 158 422 158q148 0 262.5 -58.5t177.5 -154.5l-268 -241q-39 53 -82.5 78.5t-106.5 25.5q-76 0 -131 -55q-46 -43 -73 -142l-27 -92h428l-74 -276h-426l-61 -228h583l-84 -315h-1132z" />
    <glyph glyph-name="currency" unicode="&#xa4;" horiz-adv-x="1386" 
d="M788 -29q-233 0 -386.5 131.5t-178.5 354.5h-184l57 213h137q10 60 23 102h-133l57 213h133q91 216 268 346.5t420 130.5q367 0 504 -301l-291 -194q-43 80 -98 116.5t-145 36.5q-159 0 -252 -139h346l-55 -207h-369q-17 -60 -25 -106h365l-55 -207h-316
q17 -73 69 -110.5t126 -37.5t134 28.5t124 92.5l227 -244q-206 -219 -502 -219z" />
    <glyph glyph-name="yen" unicode="&#xa5;" horiz-adv-x="1470" 
d="M389 0l51 190h-377l66 246h377l26 103h-376l65 245h287l-250 650h420l149 -471l385 471h469l-596 -650h283l-65 -245h-377l-27 -103h375l-66 -246h-377l-51 -190h-391z" />
    <glyph glyph-name="section" unicode="&#xa7;" horiz-adv-x="1280" 
d="M827 598q45 0 75 20t30 54t-39.5 57.5t-138.5 56.5q-160 54 -211 54q-46 0 -76.5 -21t-30.5 -55q0 -33 38.5 -56.5t139.5 -58.5q152 -51 213 -51zM573 -25q-163 0 -301.5 52t-224.5 141l203 215q65 -61 156.5 -101t175.5 -40q108 0 108 61q0 28 -40 48t-161 57
q-68 20 -117 38t-98 44t-79.5 54t-49 66t-18.5 84q0 207 258 267q-68 71 -68 167q0 141 131 237.5t347 96.5q163 0 303 -52t223 -140l-201 -215q-64 61 -156.5 100t-177.5 39q-106 0 -106 -59q0 -29 41.5 -51t157.5 -54q85 -25 144.5 -50t112 -59t79 -79t26.5 -101
q0 -201 -256 -266q66 -73 66 -166q0 -143 -130 -238.5t-348 -95.5z" />
    <glyph glyph-name="dieresis" unicode="&#xa8;" horiz-adv-x="1024" 
d="M291 1202l80 293h340l-80 -293h-340zM739 1202l80 293h340l-80 -293h-340z" />
    <glyph glyph-name="copyright" unicode="&#xa9;" horiz-adv-x="1699" 
d="M907 319q-179 0 -296 115.5t-117 288.5v4q0 169 118 288.5t299 119.5q116 0 194.5 -42t137.5 -120l-166 -131q-72 92 -170 92q-81 0 -133.5 -59t-52.5 -146v-4q0 -87 52.5 -146t133.5 -59q57 0 96.5 23.5t79.5 70.5l166 -118q-61 -85 -141.5 -131t-200.5 -46zM895 53
q138 0 260.5 53t209 143t137 212t50.5 256v4q0 179 -85 330t-235.5 240t-332.5 89q-138 0 -260.5 -53t-209 -142.5t-137 -211.5t-50.5 -256v-4q0 -134 50 -255.5t136 -210.5t208 -141.5t259 -52.5zM895 -29q-153 0 -290.5 60t-235.5 160.5t-155.5 237t-57.5 284.5v4
q0 149 58 286t156.5 238t237 161t291.5 60t290.5 -59.5t235.5 -160t155.5 -237t57.5 -284.5v-4q0 -149 -58 -286t-156.5 -238.5t-237 -161.5t-291.5 -60z" />
    <glyph glyph-name="ordfeminine" unicode="&#xaa;" horiz-adv-x="808" 
d="M473 946q42 0 77.5 31t45.5 78l6 22q-51 15 -82 15q-48 0 -78 -23.5t-30 -64.5q0 -26 16 -42t45 -16zM92 553l43 158h590l-43 -158h-590zM373 815q-76 0 -123 45t-47 119q0 102 72.5 159.5t195.5 57.5q71 0 154 -27l4 13q6 10 6 32q0 68 -105 68q-83 0 -161 -29l-31 154
q103 39 237 39t202.5 -50.5t68.5 -144.5q0 -41 -12 -88l-91 -336h-213l19 66q-81 -78 -176 -78z" />
    <glyph glyph-name="guillemotleft" unicode="&#xab;" horiz-adv-x="1290" 
d="M283 57l-222 459l27 100l440 435l215 -197l-340 -330l168 -338zM821 51l-231 481l4 17l493 485l216 -196l-351 -340l158 -318z" />
    <glyph glyph-name="registered" unicode="&#xae;" horiz-adv-x="1699" 
d="M791 754h141q57 0 88 24.5t31 67.5v4q0 46 -32 70t-87 24h-141v-190zM569 344v789h369q175 0 264 -89q70 -70 70 -180v-4q0 -173 -164 -242l188 -274h-252l-159 240h-4h-90v-240h-222zM895 53q138 0 260.5 53t209 143t137 212t50.5 256v4q0 179 -85 330t-235.5 240
t-332.5 89q-138 0 -260.5 -53t-209 -142.5t-137 -211.5t-50.5 -256v-4q0 -134 50 -255.5t136 -210.5t208 -141.5t259 -52.5zM895 -29q-153 0 -290.5 60t-235.5 160.5t-155.5 237t-57.5 284.5v4q0 149 58 286t156.5 238t237 161t291.5 60t290.5 -59.5t235.5 -160t155.5 -237
t57.5 -284.5v-4q0 -149 -58 -286t-156.5 -238.5t-237 -161.5t-291.5 -60z" />
    <glyph glyph-name="macron" unicode="&#xaf;" horiz-adv-x="1024" 
d="M305 1212l62 238h770l-64 -238h-768z" />
    <glyph glyph-name="macron" unicode="&#x2c9;" horiz-adv-x="1024" 
d="M305 1212l62 238h770l-64 -238h-768z" />
    <glyph glyph-name="degree" unicode="&#xb0;" horiz-adv-x="925" 
d="M543 901q81 0 131.5 64.5t50.5 144.5q0 66 -39 108t-102 42q-81 0 -132 -64.5t-51 -144.5q0 -66 39.5 -108t102.5 -42zM532 709q-157 0 -252.5 94.5t-95.5 236.5q0 169 119 290.5t289 121.5q160 0 254 -94t94 -238q0 -169 -119 -290t-289 -121z" />
    <glyph glyph-name="plusminus" unicode="&#xb1;" horiz-adv-x="1277" 
d="M543 -29q-115 0 -212.5 22.5t-168 62.5t-120.5 86t-87 102l264 229q70 -86 147.5 -126t180.5 -40q100 0 159.5 46.5t59.5 107.5q0 56 -41.5 84t-136.5 28h-148l80 299h139q102 0 164 38t62 106q0 49 -41.5 79.5t-104.5 30.5q-83 0 -156 -34t-159 -105l-203 250
q232 225 567 225q228 0 362 -108t134 -262q0 -144 -87 -238.5t-247 -138.5q99 -37 156 -110t57 -179q0 -199 -175 -327t-445 -128z" />
    <glyph glyph-name="acute" unicode="&#xb4;" horiz-adv-x="1024" 
d="M410 1202l317 379l354 -117l-370 -262h-301z" />
    <glyph glyph-name="mu" unicode="&#xb5;" 
d="M823 322q47 0 103 18l-158 213l285 188l123 -192q63 111 63 233q0 145 -82 233.5t-231 88.5q-91 0 -170.5 -41.5t-132.5 -108t-83 -148t-30 -163.5q0 -145 82 -233t231 -88zM1235 -92l-92 141q-162 -76 -352 -76q-151 0 -279.5 49t-217 134.5t-138.5 204.5t-50 255
q0 130 40.5 255t117.5 230.5t180.5 186.5t237 126.5t279.5 45.5q151 0 279.5 -49t217 -134.5t138 -204.5t49.5 -255q0 -158 -62 -307t-174 -268l109 -148z" />
    <glyph glyph-name="mu" unicode="&#x3bc;" 
d="M823 322q47 0 103 18l-158 213l285 188l123 -192q63 111 63 233q0 145 -82 233.5t-231 88.5q-91 0 -170.5 -41.5t-132.5 -108t-83 -148t-30 -163.5q0 -145 82 -233t231 -88zM1235 -92l-92 141q-162 -76 -352 -76q-151 0 -279.5 49t-217 134.5t-138.5 204.5t-50 255
q0 130 40.5 255t117.5 230.5t180.5 186.5t237 126.5t279.5 45.5q151 0 279.5 -49t217 -134.5t138 -204.5t49.5 -255q0 -158 -62 -307t-174 -268l109 -148z" />
    <glyph glyph-name="paragraph" unicode="&#xb6;" horiz-adv-x="1222" 
d="M553 0l115 434q-527 26 -527 428q0 125 46.5 229.5t135.5 181t227.5 119t313.5 42.5h471l-385 -1434h-397z" />
    <glyph glyph-name="periodcentered" unicode="&#xb7;" horiz-adv-x="618" 
d="M72 440l106 400h406l-109 -400h-403z" />
    <glyph glyph-name="periodcentered" unicode="&#x2219;" horiz-adv-x="618" 
d="M72 440l106 400h406l-109 -400h-403z" />
    <glyph glyph-name="cedilla" unicode="&#xb8;" horiz-adv-x="1024" 
d="M328 -354l-285 131l256 254h264z" />
    <glyph glyph-name="ordmasculine" unicode="&#xba;" horiz-adv-x="823" 
d="M520 987q61 0 101.5 51t40.5 115q0 51 -29 83t-76 32q-61 0 -101 -51t-40 -117q0 -50 28.5 -81.5t75.5 -31.5zM98 553l43 158h580l-41 -158h-582zM510 809q-138 0 -219.5 80.5t-81.5 206.5q0 138 105 244t255 106q137 0 218 -80.5t81 -206.5q0 -139 -104 -244.5
t-254 -105.5z" />
    <glyph glyph-name="guillemotright" unicode="&#xbb;" horiz-adv-x="1290" 
d="M203 76l-215 194l350 340l-158 318l291 129l229 -479l-4 -17zM762 57l-215 197l340 330l-168 338l291 129l221 -459l-29 -100z" />
    <glyph glyph-name="questiondown" unicode="&#xbf;" horiz-adv-x="1105" 
d="M492 -20q-212 0 -338.5 106t-126.5 266q0 179 129 300t387 163l61 152h246l-35 -344l-20 -17q-371 -30 -371 -178q0 -48 34 -75t101 -27q138 0 277 110l159 -276q-99 -87 -230 -133.5t-273 -46.5zM559 1085l94 349h406l-94 -349h-406z" />
    <glyph glyph-name="Agrave" unicode="&#xc0;" horiz-adv-x="1587" 
d="M938 1530l-227 262l366 117l113 -379h-252zM653 565h320l-51 412zM-152 0l998 1444h389l223 -1444h-418l-34 256h-553l-172 -256h-433z" />
    <glyph glyph-name="Aacute" unicode="&#xc1;" horiz-adv-x="1587" 
d="M870 1530l318 379l354 -117l-371 -262h-301zM653 565h320l-51 412zM-152 0l998 1444h389l223 -1444h-418l-34 256h-553l-172 -256h-433z" />
    <glyph glyph-name="Acircumflex" unicode="&#xc2;" horiz-adv-x="1587" 
d="M612 1530l353 338h315l172 -338h-231l-140 125l-207 -125h-262zM653 565h320l-51 412zM-152 0l998 1444h389l223 -1444h-418l-34 256h-553l-172 -256h-433z" />
    <glyph glyph-name="Atilde" unicode="&#xc3;" horiz-adv-x="1587" 
d="M653 565h320l-51 412zM-152 0l998 1444h389l223 -1444h-418l-34 256h-553l-172 -256h-433zM834 1530l-162 74q53 128 128.5 194t164.5 66q69 0 151 -54q62 -45 94 -45q65 0 119 103l162 -72q-50 -127 -127 -194.5t-166 -67.5q-71 0 -151 53q-62 47 -95 47
q-64 0 -118 -104z" />
    <glyph glyph-name="Adieresis" unicode="&#xc4;" horiz-adv-x="1587" 
d="M653 1530l80 293h340l-80 -293h-340zM1102 1530l80 293h340l-80 -293h-340zM653 565h320l-51 412zM-152 0l998 1444h389l223 -1444h-418l-34 256h-553l-172 -256h-433z" />
    <glyph glyph-name="Aring" unicode="&#xc5;" horiz-adv-x="1587" 
d="M653 565h320l-51 412zM1036 1430q65 0 107.5 50.5t42.5 118.5q0 46 -29 77.5t-78 31.5q-65 0 -106 -51.5t-41 -118.5q0 -48 27.5 -78t76.5 -30zM281 0h-433l488 705l487 704q-39 56 -39 125q0 122 88 209.5t213 87.5q113 0 180.5 -64.5t67.5 -164.5q0 -122 -90 -205
l215 -1397h-418l-34 256h-553z" />
    <glyph glyph-name="AE" unicode="&#xc6;" horiz-adv-x="2211" 
d="M713 565h303l145 549h-26zM-156 0l1127 1434h1378l-90 -338h-715l-57 -217h641l-84 -314h-641l-64 -227h725l-90 -338h-1112l70 256h-457l-199 -256h-432z" />
    <glyph glyph-name="Ccedilla" unicode="&#xc7;" horiz-adv-x="1488" 
d="M311 -223l232 229q-204 61 -321.5 215.5t-117.5 376.5q0 126 39.5 250.5t117.5 234.5t183 194.5t246.5 133.5t298.5 49q219 0 373.5 -96.5t218.5 -265.5l-342 -185q-90 185 -291 185q-116 0 -215.5 -66t-156 -174t-56.5 -231q0 -133 80.5 -213t206.5 -80q90 0 162 36
t145 109l268 -237q-233 -261 -583 -269l-203 -327z" />
    <glyph glyph-name="Egrave" unicode="&#xc8;" horiz-adv-x="1370" 
d="M877 1530l-228 262l367 117l112 -379h-251zM-25 0l385 1434h1149l-92 -338h-753l-60 -217h684l-84 -314h-684l-61 -227h766l-90 -338h-1160z" />
    <glyph glyph-name="Eacute" unicode="&#xc9;" horiz-adv-x="1370" 
d="M758 1530l317 379l355 -117l-371 -262h-301zM-25 0l385 1434h1149l-92 -338h-753l-60 -217h684l-84 -314h-684l-61 -227h766l-90 -338h-1160z" />
    <glyph glyph-name="Ecircumflex" unicode="&#xca;" horiz-adv-x="1370" 
d="M532 1530l353 338h315l172 -338h-231l-140 125l-206 -125h-263zM-25 0l385 1434h1149l-92 -338h-753l-60 -217h684l-84 -314h-684l-61 -227h766l-90 -338h-1160z" />
    <glyph glyph-name="Edieresis" unicode="&#xcb;" horiz-adv-x="1370" 
d="M559 1530l80 293h340l-80 -293h-340zM1008 1530l79 293h340l-79 -293h-340zM-25 0l385 1434h1149l-92 -338h-753l-60 -217h684l-84 -314h-684l-61 -227h766l-90 -338h-1160z" />
    <glyph glyph-name="Igrave" unicode="&#xcc;" horiz-adv-x="665" 
d="M492 1530l-228 262l367 117l112 -379h-251zM-14 0l385 1434h397l-385 -1434h-397z" />
    <glyph glyph-name="Iacute" unicode="&#xcd;" horiz-adv-x="665" 
d="M408 1530l317 379l354 -117l-370 -262h-301zM-14 0l385 1434h397l-385 -1434h-397z" />
    <glyph glyph-name="Icircumflex" unicode="&#xce;" horiz-adv-x="665" 
d="M156 1530l352 338h315l172 -338h-231l-139 125l-207 -125h-262zM-14 0l385 1434h397l-385 -1434h-397z" />
    <glyph glyph-name="Idieresis" unicode="&#xcf;" horiz-adv-x="665" 
d="M199 1530l80 293h339l-79 -293h-340zM647 1530l80 293h340l-80 -293h-340zM-14 0l385 1434h397l-385 -1434h-397z" />
    <glyph glyph-name="Eth" unicode="&#xd0;" horiz-adv-x="1638" 
d="M547 340h135q128 0 238 38.5t182 110.5q60 60 94.5 142t34.5 168q0 128 -74 202q-94 91 -289 91h-118l-58 -213h234l-84 -314h-234zM70 0l149 565h-172l86 314h172l150 555h452q376 0 561 -185q156 -156 156 -420q0 -330 -235 -565q-264 -264 -752 -264h-567z" />
    <glyph glyph-name="Ntilde" unicode="&#xd1;" horiz-adv-x="1599" 
d="M795 1524l-183 82q59 144 144.5 219.5t185.5 75.5q84 0 172 -62q41 -29 62.5 -40t42.5 -11q40 0 71.5 29.5t63.5 87.5l182 -82q-59 -144 -144.5 -219.5t-185.5 -75.5q-85 0 -172 61q-40 28 -62 39.5t-44 11.5q-39 0 -70.5 -29t-62.5 -87zM-25 0l385 1434h371l371 -797
l215 797h395l-385 -1434h-348l-387 825l-221 -825h-396z" />
    <glyph glyph-name="Ograve" unicode="&#xd2;" 
d="M932 1530l-227 262l366 117l113 -379h-252zM825 330q91 0 170.5 41t131.5 107t82 147t30 161q0 141 -82.5 229.5t-230.5 88.5q-90 0 -169.5 -41.5t-132 -107.5t-82.5 -147t-30 -161q0 -141 82.5 -229t230.5 -88zM791 -27q-151 0 -279.5 49t-217 134.5t-138.5 204.5
t-50 255q0 130 40.5 255t117.5 230.5t180.5 186.5t237 126.5t279.5 45.5q151 0 279.5 -49t217 -134.5t138 -204.5t49.5 -255q0 -108 -29 -214t-81.5 -199t-130 -172.5t-170.5 -136.5t-207 -89.5t-236 -32.5z" />
    <glyph glyph-name="Oacute" unicode="&#xd3;" 
d="M807 1530l317 379l355 -117l-371 -262h-301zM825 330q91 0 170.5 41t131.5 107t82 147t30 161q0 141 -82.5 229.5t-230.5 88.5q-90 0 -169.5 -41.5t-132 -107.5t-82.5 -147t-30 -161q0 -141 82.5 -229t230.5 -88zM791 -27q-151 0 -279.5 49t-217 134.5t-138.5 204.5
t-50 255q0 130 40.5 255t117.5 230.5t180.5 186.5t237 126.5t279.5 45.5q151 0 279.5 -49t217 -134.5t138 -204.5t49.5 -255q0 -108 -29 -214t-81.5 -199t-130 -172.5t-170.5 -136.5t-207 -89.5t-236 -32.5z" />
    <glyph glyph-name="Ocircumflex" unicode="&#xd4;" 
d="M606 1530l352 338h316l172 -338h-232l-139 125l-207 -125h-262zM825 330q91 0 170.5 41t131.5 107t82 147t30 161q0 141 -82.5 229.5t-230.5 88.5q-90 0 -169.5 -41.5t-132 -107.5t-82.5 -147t-30 -161q0 -141 82.5 -229t230.5 -88zM791 -27q-151 0 -279.5 49t-217 134.5
t-138.5 204.5t-50 255q0 130 40.5 255t117.5 230.5t180.5 186.5t237 126.5t279.5 45.5q151 0 279.5 -49t217 -134.5t138 -204.5t49.5 -255q0 -108 -29 -214t-81.5 -199t-130 -172.5t-170.5 -136.5t-207 -89.5t-236 -32.5z" />
    <glyph glyph-name="Otilde" unicode="&#xd5;" 
d="M825 330q91 0 170.5 41t131.5 107t82 147t30 161q0 141 -82.5 229.5t-230.5 88.5q-90 0 -169.5 -41.5t-132 -107.5t-82.5 -147t-30 -161q0 -141 82.5 -229t230.5 -88zM791 -27q-151 0 -279.5 49t-217 134.5t-138.5 204.5t-50 255q0 130 40.5 255t117.5 230.5t180.5 186.5
t237 126.5t279.5 45.5q151 0 279.5 -49t217 -134.5t138 -204.5t49.5 -255q0 -108 -29 -214t-81.5 -199t-130 -172.5t-170.5 -136.5t-207 -89.5t-236 -32.5zM831 1530l-161 74q53 128 128.5 194t164.5 66q69 0 151 -54q62 -45 94 -45q65 0 119 103l162 -72
q-50 -127 -127 -194.5t-166 -67.5q-72 0 -152 53q-62 47 -94 47q-65 0 -119 -104z" />
    <glyph glyph-name="Odieresis" unicode="&#xd6;" 
d="M651 1530l80 293h340l-80 -293h-340zM1100 1530l80 293h340l-80 -293h-340zM825 330q91 0 170.5 41t131.5 107t82 147t30 161q0 141 -82.5 229.5t-230.5 88.5q-90 0 -169.5 -41.5t-132 -107.5t-82.5 -147t-30 -161q0 -141 82.5 -229t230.5 -88zM791 -27q-151 0 -279.5 49
t-217 134.5t-138.5 204.5t-50 255q0 130 40.5 255t117.5 230.5t180.5 186.5t237 126.5t279.5 45.5q151 0 279.5 -49t217 -134.5t138 -204.5t49.5 -255q0 -108 -29 -214t-81.5 -199t-130 -172.5t-170.5 -136.5t-207 -89.5t-236 -32.5z" />
    <glyph glyph-name="Oslash" unicode="&#xd8;" 
d="M825 317q74 0 142 28t119 75t88.5 107.5t57 127.5t19.5 133q0 53 -16 109l-588 -537q78 -43 178 -43zM522 518l598 543q-76 55 -194 55q-74 0 -141.5 -28t-118 -75t-88 -107.5t-57 -127.5t-19.5 -133q0 -74 20 -127zM791 -27q-257 0 -435 136l-129 -119h-301l289 262
q-109 157 -109 364q0 130 40.5 255t117.5 230.5t180.5 186.5t237 126.5t279.5 45.5q262 0 448 -143l139 127h301l-305 -277q101 -149 101 -350q0 -108 -29 -214t-81.5 -199t-130 -172.5t-170.5 -136.5t-207 -89.5t-236 -32.5z" />
    <glyph glyph-name="Ugrave" unicode="&#xd9;" horiz-adv-x="1556" 
d="M928 1526l-228 262l367 117l113 -379h-252zM700 -27q-277 0 -428 131.5t-151 370.5q0 115 33 230l196 729h402l-203 -758q-21 -70 -21 -135q0 -99 58 -154t166 -55q116 0 192 76q76 71 121 237l213 789h401l-227 -848q-77 -282 -223 -428q-185 -185 -529 -185z" />
    <glyph glyph-name="Uacute" unicode="&#xda;" horiz-adv-x="1556" 
d="M831 1526l318 379l354 -117l-370 -262h-302zM700 -27q-277 0 -428 131.5t-151 370.5q0 115 33 230l196 729h402l-203 -758q-21 -70 -21 -135q0 -99 58 -154t166 -55q116 0 192 76q76 71 121 237l213 789h401l-227 -848q-77 -282 -223 -428q-185 -185 -529 -185z" />
    <glyph glyph-name="Ucircumflex" unicode="&#xdb;" horiz-adv-x="1556" 
d="M602 1530l352 338h316l172 -338h-232l-139 125l-207 -125h-262zM700 -27q-277 0 -428 131.5t-151 370.5q0 115 33 230l196 729h402l-203 -758q-21 -70 -21 -135q0 -99 58 -154t166 -55q116 0 192 76q76 71 121 237l213 789h401l-227 -848q-77 -282 -223 -428
q-185 -185 -529 -185z" />
    <glyph glyph-name="Udieresis" unicode="&#xdc;" horiz-adv-x="1556" 
d="M643 1530l80 293h340l-80 -293h-340zM1092 1530l79 293h340l-79 -293h-340zM700 -27q-277 0 -428 131.5t-151 370.5q0 115 33 230l196 729h402l-203 -758q-21 -70 -21 -135q0 -99 58 -154t166 -55q116 0 192 76q76 71 121 237l213 789h401l-227 -848q-77 -282 -223 -428
q-185 -185 -529 -185z" />
    <glyph glyph-name="Yacute" unicode="&#xdd;" horiz-adv-x="1386" 
d="M731 1530l318 379l354 -117l-371 -262h-301zM326 0l149 555l-289 879h428l142 -537l432 537h475l-801 -922l-137 -512h-399z" />
    <glyph glyph-name="Thorn" unicode="&#xde;" horiz-adv-x="1396" 
d="M518 532h150q145 0 226 60.5t81 161.5q0 61 -41 102q-53 53 -170 53h-146zM-25 0l385 1434h400l-53 -205h75q174 0 292 -36t196 -114q110 -113 110 -288q0 -263 -194 -418.5t-510 -155.5h-244l-57 -217h-400z" />
    <glyph glyph-name="germandbls" unicode="&#xdf;" horiz-adv-x="1308" 
d="M481 -6l74 282q144 0 213.5 54t69.5 135q0 58 -47 96.5t-146 48.5l55 207q248 54 248 236q0 64 -37.5 100.5t-93.5 36.5q-148 0 -209 -225l-258 -965h-389l264 981q69 253 193 377q153 153 413 153q218 0 349 -110.5t131 -290.5q0 -151 -82 -256t-240 -152
q101 -36 159 -106.5t58 -167.5t-44 -179t-130 -143t-227.5 -91.5t-323.5 -20.5z" />
    <glyph glyph-name="agrave" unicode="&#xe0;" horiz-adv-x="1222" 
d="M684 1202l-227 262l366 117l113 -379h-252zM492 217q75 0 139.5 57.5t87.5 143.5l10 37q-74 24 -145 24q-93 0 -148 -43t-55 -117q0 -47 30.5 -74.5t80.5 -27.5zM311 -23q-138 0 -223.5 82t-85.5 220q0 181 132.5 286t354.5 105q141 0 281 -43l4 14q10 30 10 68
q0 118 -190 118q-157 0 -299 -55l-55 283q191 67 436 67q246 0 369.5 -91.5t123.5 -260.5q0 -70 -22 -160l-164 -610h-383l31 119q-78 -71 -152.5 -106.5t-167.5 -35.5z" />
    <glyph glyph-name="aacute" unicode="&#xe1;" horiz-adv-x="1222" 
d="M571 1202l318 379l354 -117l-371 -262h-301zM492 217q75 0 139.5 57.5t87.5 143.5l10 37q-74 24 -145 24q-93 0 -148 -43t-55 -117q0 -47 30.5 -74.5t80.5 -27.5zM311 -23q-138 0 -223.5 82t-85.5 220q0 181 132.5 286t354.5 105q141 0 281 -43l4 14q10 30 10 68
q0 118 -190 118q-157 0 -299 -55l-55 283q191 67 436 67q246 0 369.5 -91.5t123.5 -260.5q0 -70 -22 -160l-164 -610h-383l31 119q-78 -71 -152.5 -106.5t-167.5 -35.5z" />
    <glyph glyph-name="acircumflex" unicode="&#xe2;" horiz-adv-x="1222" 
d="M360 1202l353 338h315l172 -338h-231l-140 125l-206 -125h-263zM492 217q75 0 139.5 57.5t87.5 143.5l10 37q-74 24 -145 24q-93 0 -148 -43t-55 -117q0 -47 30.5 -74.5t80.5 -27.5zM311 -23q-138 0 -223.5 82t-85.5 220q0 181 132.5 286t354.5 105q141 0 281 -43l4 14
q10 30 10 68q0 118 -190 118q-157 0 -299 -55l-55 283q191 67 436 67q246 0 369.5 -91.5t123.5 -260.5q0 -70 -22 -160l-164 -610h-383l31 119q-78 -71 -152.5 -106.5t-167.5 -35.5z" />
    <glyph glyph-name="atilde" unicode="&#xe3;" horiz-adv-x="1222" 
d="M492 217q75 0 139.5 57.5t87.5 143.5l10 37q-74 24 -145 24q-93 0 -148 -43t-55 -117q0 -47 30.5 -74.5t80.5 -27.5zM311 -23q-138 0 -223.5 82t-85.5 220q0 181 132.5 286t354.5 105q141 0 281 -43l4 14q10 30 10 68q0 118 -190 118q-157 0 -299 -55l-55 283
q191 67 436 67q246 0 369.5 -91.5t123.5 -260.5q0 -70 -22 -160l-164 -610h-383l31 119q-78 -71 -152.5 -106.5t-167.5 -35.5zM594 1212l-162 74q53 128 128.5 194t164.5 66q72 0 152 -53q62 -45 94 -45q66 0 119 102l161 -71q-50 -127 -127 -194.5t-166 -67.5
q-71 0 -151 53q-62 47 -94 47q-64 0 -119 -105z" />
    <glyph glyph-name="adieresis" unicode="&#xe4;" horiz-adv-x="1222" 
d="M389 1204l80 293h340l-80 -293h-340zM838 1204l80 293h339l-79 -293h-340zM492 217q75 0 139.5 57.5t87.5 143.5l10 37q-74 24 -145 24q-93 0 -148 -43t-55 -117q0 -47 30.5 -74.5t80.5 -27.5zM311 -23q-138 0 -223.5 82t-85.5 220q0 181 132.5 286t354.5 105
q141 0 281 -43l4 14q10 30 10 68q0 118 -190 118q-157 0 -299 -55l-55 283q191 67 436 67q246 0 369.5 -91.5t123.5 -260.5q0 -70 -22 -160l-164 -610h-383l31 119q-78 -71 -152.5 -106.5t-167.5 -35.5z" />
    <glyph glyph-name="aring" unicode="&#xe5;" horiz-adv-x="1222" 
d="M829 1337q65 0 107.5 50.5t42.5 119.5q0 46 -29.5 77.5t-77.5 31.5q-65 0 -107 -52t-42 -118q0 -48 28.5 -78.5t77.5 -30.5zM823 1212q-113 0 -179 64.5t-66 165.5q0 122 88 209.5t213 87.5q113 0 179 -64.5t66 -165.5q0 -121 -88 -209t-213 -88zM492 217
q75 0 139.5 57.5t87.5 143.5l10 37q-74 24 -145 24q-93 0 -148 -43t-55 -117q0 -47 30.5 -74.5t80.5 -27.5zM311 -23q-138 0 -223.5 82t-85.5 220q0 181 132.5 286t354.5 105q141 0 281 -43l4 14q10 30 10 68q0 118 -190 118q-157 0 -299 -55l-55 283q191 67 436 67
q246 0 369.5 -91.5t123.5 -260.5q0 -70 -22 -160l-164 -610h-383l31 119q-78 -71 -152.5 -106.5t-167.5 -35.5z" />
    <glyph glyph-name="ae" unicode="&#xe6;" horiz-adv-x="1906" 
d="M745 446q-75 33 -161 33q-93 0 -148 -43t-55 -117q0 -48 34.5 -76t96.5 -28q61 0 128.5 29t123.5 82q-16 60 -19 120zM1118 645h395q11 37 11 60q0 61 -39 101t-113 40q-81 0 -150.5 -52.5t-103.5 -148.5zM834 174q-103 -103 -219.5 -150t-258.5 -47q-166 0 -260 80.5
t-94 221.5q0 181 132.5 286t354.5 105q141 0 281 -43l4 14q10 30 10 68q0 118 -190 118q-157 0 -299 -55l-55 283q191 67 436 67q254 0 360 -131q168 142 379 142q91 0 166.5 -24.5t128.5 -67.5t89.5 -101.5t53.5 -125.5t17 -140q0 -113 -43 -228h-735q6 -87 57.5 -134.5
t148.5 -47.5q119 0 236 88l180 -213q-191 -166 -459 -166q-140 0 -247 51.5t-174 149.5z" />
    <glyph glyph-name="ccedilla" unicode="&#xe7;" horiz-adv-x="1153" 
d="M399 -354l-284 131l237 235q-138 55 -216.5 170.5t-78.5 276.5q0 183 89 337.5t242 244t335 89.5q184 0 304 -83.5t167 -219.5l-305 -157q-31 70 -75 104.5t-116 34.5t-133.5 -47t-97 -123t-35.5 -160t47.5 -134t118.5 -50q62 0 110 23.5t103 78.5l238 -207
q-88 -101 -194 -156t-253 -61z" />
    <glyph glyph-name="egrave" unicode="&#xe8;" horiz-adv-x="1230" 
d="M676 1202l-227 262l366 117l113 -379h-252zM442 645h396q10 33 10 60q0 61 -39 101t-113 40q-81 0 -150.5 -52.5t-103.5 -148.5zM1151 446h-735q6 -87 58 -134.5t149 -47.5q118 0 235 88l180 -213q-195 -166 -452 -166q-245 0 -387 133.5t-142 358.5q0 98 29.5 195
t87.5 182t137 150t186 103t226 38t211.5 -37.5t148 -102.5t83.5 -145.5t28 -173.5q0 -113 -43 -228z" />
    <glyph glyph-name="eacute" unicode="&#xe9;" horiz-adv-x="1230" 
d="M561 1202l318 379l354 -117l-371 -262h-301zM442 645h396q10 33 10 60q0 61 -39 101t-113 40q-81 0 -150.5 -52.5t-103.5 -148.5zM1151 446h-735q6 -87 58 -134.5t149 -47.5q118 0 235 88l180 -213q-195 -166 -452 -166q-245 0 -387 133.5t-142 358.5q0 98 29.5 195
t87.5 182t137 150t186 103t226 38t211.5 -37.5t148 -102.5t83.5 -145.5t28 -173.5q0 -113 -43 -228z" />
    <glyph glyph-name="ecircumflex" unicode="&#xea;" horiz-adv-x="1230" 
d="M344 1202l352 338h316l172 -338h-232l-139 125l-207 -125h-262zM442 645h396q10 33 10 60q0 61 -39 101t-113 40q-81 0 -150.5 -52.5t-103.5 -148.5zM1151 446h-735q6 -87 58 -134.5t149 -47.5q118 0 235 88l180 -213q-195 -166 -452 -166q-245 0 -387 133.5t-142 358.5
q0 98 29.5 195t87.5 182t137 150t186 103t226 38t211.5 -37.5t148 -102.5t83.5 -145.5t28 -173.5q0 -113 -43 -228z" />
    <glyph glyph-name="edieresis" unicode="&#xeb;" horiz-adv-x="1230" 
d="M379 1202l80 293h340l-80 -293h-340zM827 1202l80 293h340l-80 -293h-340zM442 645h396q10 33 10 60q0 61 -39 101t-113 40q-81 0 -150.5 -52.5t-103.5 -148.5zM1151 446h-735q6 -87 58 -134.5t149 -47.5q118 0 235 88l180 -213q-195 -166 -452 -166q-245 0 -387 133.5
t-142 358.5q0 98 29.5 195t87.5 182t137 150t186 103t226 38t211.5 -37.5t148 -102.5t83.5 -145.5t28 -173.5q0 -113 -43 -228z" />
    <glyph glyph-name="igrave" unicode="&#xec;" horiz-adv-x="616" 
d="M406 1202l-228 262l367 117l112 -379h-251zM-35 0l297 1108h389l-297 -1108h-389z" />
    <glyph glyph-name="iacute" unicode="&#xed;" horiz-adv-x="616" 
d="M283 1202l317 379l354 -117l-370 -262h-301zM-35 0l297 1108h389l-297 -1108h-389z" />
    <glyph glyph-name="icircumflex" unicode="&#xee;" horiz-adv-x="616" 
d="M49 1202l352 338h316l172 -338h-232l-139 125l-207 -125h-262zM-35 0l297 1108h389l-297 -1108h-389z" />
    <glyph glyph-name="idieresis" unicode="&#xef;" horiz-adv-x="616" 
d="M84 1202l80 293h340l-80 -293h-340zM532 1202l80 293h340l-80 -293h-340zM-35 0l297 1108h389l-297 -1108h-389z" />
    <glyph glyph-name="eth" unicode="&#xf0;" horiz-adv-x="1314" 
d="M616 299q106 0 176 72t70 168q0 81 -53 131.5t-135 50.5q-104 0 -175 -70t-71 -168q0 -84 54 -134t134 -50zM590 -25q-238 0 -387.5 135t-149.5 343q0 143 70.5 264t198.5 193.5t286 72.5q159 0 269 -84l-113 244l-268 -92l-84 182l272 86l-80 176h371l31 -70l247 84
l84 -182l-254 -80l80 -182q90 -203 90 -408q0 -145 -46.5 -270t-131 -216.5t-209.5 -143.5t-276 -52z" />
    <glyph glyph-name="ntilde" unicode="&#xf1;" horiz-adv-x="1290" 
d="M549 1196l-182 82q59 145 144.5 220t184.5 75q84 0 172 -62q41 -29 62.5 -40t42.5 -11q40 0 71.5 29.5t63.5 87.5l182 -82q-59 -145 -144.5 -220t-184.5 -75q-85 0 -173 62q-40 28 -62 39.5t-44 11.5q-39 0 -70 -29.5t-63 -87.5zM-43 0l297 1108h389l-35 -127
q144 152 318 152q151 0 236 -88.5t85 -243.5q0 -67 -33 -199l-159 -602h-389l155 580q13 50 13 90q0 56 -31.5 86t-91.5 30q-153 0 -207 -200l-158 -586h-389z" />
    <glyph glyph-name="ograve" unicode="&#xf2;" horiz-adv-x="1318" 
d="M694 1202l-227 262l367 117l112 -379h-252zM627 297q111 0 184.5 95.5t73.5 211.5q0 93 -53 149t-140 56q-74 0 -135 -47.5t-92 -116.5t-31 -141q0 -96 53 -151.5t140 -55.5zM604 -27q-248 0 -395.5 145.5t-147.5 370.5q0 167 84.5 314.5t236 238.5t331.5 91
q125 0 228 -40t172 -109.5t106.5 -163.5t37.5 -202q0 -125 -50.5 -242.5t-136.5 -206t-208 -142.5t-258 -54z" />
    <glyph glyph-name="oacute" unicode="&#xf3;" horiz-adv-x="1318" 
d="M575 1202l318 379l354 -117l-370 -262h-302zM627 297q111 0 184.5 95.5t73.5 211.5q0 93 -53 149t-140 56q-74 0 -135 -47.5t-92 -116.5t-31 -141q0 -96 53 -151.5t140 -55.5zM604 -27q-248 0 -395.5 145.5t-147.5 370.5q0 167 84.5 314.5t236 238.5t331.5 91
q125 0 228 -40t172 -109.5t106.5 -163.5t37.5 -202q0 -125 -50.5 -242.5t-136.5 -206t-208 -142.5t-258 -54z" />
    <glyph glyph-name="ocircumflex" unicode="&#xf4;" horiz-adv-x="1318" 
d="M352 1202l353 338h315l172 -338h-231l-140 125l-207 -125h-262zM627 297q111 0 184.5 95.5t73.5 211.5q0 93 -53 149t-140 56q-74 0 -135 -47.5t-92 -116.5t-31 -141q0 -96 53 -151.5t140 -55.5zM604 -27q-248 0 -395.5 145.5t-147.5 370.5q0 167 84.5 314.5t236 238.5
t331.5 91q125 0 228 -40t172 -109.5t106.5 -163.5t37.5 -202q0 -125 -50.5 -242.5t-136.5 -206t-208 -142.5t-258 -54z" />
    <glyph glyph-name="otilde" unicode="&#xf5;" horiz-adv-x="1318" 
d="M627 297q111 0 184.5 95.5t73.5 211.5q0 93 -53 149t-140 56q-74 0 -135 -47.5t-92 -116.5t-31 -141q0 -96 53 -151.5t140 -55.5zM604 -27q-248 0 -395.5 145.5t-147.5 370.5q0 167 84.5 314.5t236 238.5t331.5 91q125 0 228 -40t172 -109.5t106.5 -163.5t37.5 -202
q0 -125 -50.5 -242.5t-136.5 -206t-208 -142.5t-258 -54zM586 1212l-162 74q53 128 128.5 194t164.5 66q71 0 151 -53q62 -45 95 -45q65 0 118 102l162 -71q-50 -127 -127 -194.5t-166 -67.5q-71 0 -151 53q-62 47 -94 47q-64 0 -119 -105z" />
    <glyph glyph-name="odieresis" unicode="&#xf6;" horiz-adv-x="1318" 
d="M383 1202l80 293h340l-80 -293h-340zM831 1202l80 293h340l-80 -293h-340zM627 297q111 0 184.5 95.5t73.5 211.5q0 93 -53 149t-140 56q-74 0 -135 -47.5t-92 -116.5t-31 -141q0 -96 53 -151.5t140 -55.5zM604 -27q-248 0 -395.5 145.5t-147.5 370.5q0 167 84.5 314.5
t236 238.5t331.5 91q125 0 228 -40t172 -109.5t106.5 -163.5t37.5 -202q0 -125 -50.5 -242.5t-136.5 -206t-208 -142.5t-258 -54z" />
    <glyph glyph-name="oslash" unicode="&#xf8;" horiz-adv-x="1318" 
d="M623 283q118 0 198 100t80 223q0 19 -4 47l-383 -344q48 -26 109 -26zM422 449l387 346q-48 28 -113 28q-79 0 -144 -48.5t-99.5 -121.5t-34.5 -151q0 -17 4 -53zM604 -25q-206 0 -346 105l-100 -90h-273l250 223q-74 121 -74 283q0 163 84.5 309t236 237t331.5 91
q210 0 352 -107l102 92h273l-254 -227q71 -121 71 -279q0 -122 -50.5 -238t-136.5 -204t-208.5 -141.5t-257.5 -53.5z" />
    <glyph glyph-name="ugrave" unicode="&#xf9;" horiz-adv-x="1294" 
d="M750 1202l-228 262l367 117l112 -379h-251zM375 -25q-151 0 -236.5 88.5t-85.5 243.5q0 75 31 199l162 602h389l-156 -580q-14 -54 -14 -90q0 -56 32 -86t93 -30q154 0 205 200l157 586h389l-294 -1108h-390l33 127q-144 -152 -315 -152z" />
    <glyph glyph-name="uacute" unicode="&#xfa;" horiz-adv-x="1294" 
d="M608 1202l318 379l354 -117l-371 -262h-301zM375 -25q-151 0 -236.5 88.5t-85.5 243.5q0 75 31 199l162 602h389l-156 -580q-14 -54 -14 -90q0 -56 32 -86t93 -30q154 0 205 200l157 586h389l-294 -1108h-390l33 127q-144 -152 -315 -152z" />
    <glyph glyph-name="ucircumflex" unicode="&#xfb;" horiz-adv-x="1294" 
d="M389 1202l352 338h316l172 -338h-232l-139 125l-207 -125h-262zM375 -25q-151 0 -236.5 88.5t-85.5 243.5q0 75 31 199l162 602h389l-156 -580q-14 -54 -14 -90q0 -56 32 -86t93 -30q154 0 205 200l157 586h389l-294 -1108h-390l33 127q-144 -152 -315 -152z" />
    <glyph glyph-name="udieresis" unicode="&#xfc;" horiz-adv-x="1294" 
d="M426 1202l80 293h340l-80 -293h-340zM874 1202l80 293h340l-80 -293h-340zM375 -25q-151 0 -236.5 88.5t-85.5 243.5q0 75 31 199l162 602h389l-156 -580q-14 -54 -14 -90q0 -56 32 -86t93 -30q154 0 205 200l157 586h389l-294 -1108h-390l33 127q-144 -152 -315 -152z
" />
    <glyph glyph-name="yacute" unicode="&#xfd;" horiz-adv-x="1273" 
d="M612 1202l318 379l354 -117l-371 -262h-301zM193 -334q-171 0 -295 80l174 285q77 -56 153 -56q31 0 52 8.5t45 32.5l-144 1092h395l45 -666l373 666h410l-686 -1102q-117 -185 -238 -262.5t-284 -77.5z" />
    <glyph glyph-name="thorn" unicode="&#xfe;" horiz-adv-x="1376" 
d="M655 299q111 0 191 93t80 224q0 90 -51 142.5t-138 52.5q-112 0 -193 -93.5t-81 -221.5q0 -90 52.5 -143.5t139.5 -53.5zM-131 -328l487 1823h389l-135 -504q142 142 316 142q170 0 281.5 -123t111.5 -332q0 -146 -48.5 -277t-129.5 -224t-190.5 -147.5t-227.5 -54.5
q-220 0 -336 177l-129 -480h-389z" />
    <glyph glyph-name="ydieresis" unicode="&#xff;" horiz-adv-x="1273" 
d="M399 1202l80 293h340l-80 -293h-340zM848 1202l80 293h340l-80 -293h-340zM193 -334q-171 0 -295 80l174 285q77 -56 153 -56q31 0 52 8.5t45 32.5l-144 1092h395l45 -666l373 666h410l-686 -1102q-117 -185 -238 -262.5t-284 -77.5z" />
    <glyph glyph-name="Abreve" unicode="&#x102;" horiz-adv-x="1587" 
d="M1085 1548q-174 0 -270 90.5t-96 241.5v8h231q5 -53 44 -86t108 -33q128 0 196 119h234q-43 -157 -166.5 -248.5t-280.5 -91.5zM653 565h320l-51 412zM-152 0l998 1444h389l223 -1444h-418l-34 256h-553l-172 -256h-433z" />
    <glyph glyph-name="abreve" unicode="&#x103;" horiz-adv-x="1222" 
d="M852 1208q-174 0 -270.5 90.5t-96.5 241.5v8h232q5 -53 43.5 -85.5t107.5 -32.5q130 0 197 118h233q-44 -157 -166.5 -248.5t-279.5 -91.5zM492 217q75 0 139.5 57.5t87.5 143.5l10 37q-74 24 -145 24q-93 0 -148 -43t-55 -117q0 -47 30.5 -74.5t80.5 -27.5zM311 -23
q-138 0 -223.5 82t-85.5 220q0 181 132.5 286t354.5 105q141 0 281 -43l4 14q10 30 10 68q0 118 -190 118q-157 0 -299 -55l-55 283q191 67 436 67q246 0 369.5 -91.5t123.5 -260.5q0 -70 -22 -160l-164 -610h-383l31 119q-78 -71 -152.5 -106.5t-167.5 -35.5z" />
    <glyph glyph-name="Dcroat" unicode="&#x110;" horiz-adv-x="1558" 
d="M-10 567l78 283h135l157 584h463q376 0 561 -185q156 -156 156 -420q0 -330 -235 -565q-264 -264 -752 -264h-578l152 567h-137zM469 352h131q126 0 232.5 37.5t177.5 108.5q58 58 90.5 136t32.5 163q0 124 -72 196q-88 88 -281 88h-114l-64 -231h236l-76 -283h-236z" />
    <glyph glyph-name="dcroat" unicode="&#x111;" horiz-adv-x="1376" 
d="M451 -25q-170 0 -282 123t-112 332q0 146 48.5 277t129.5 224t190.5 147.5t227.5 54.5q220 0 336 -177l68 258h-242l51 187h240l27 94h389l-27 -94h141l-49 -187h-141l-324 -1214h-389l33 117q-149 -142 -315 -142zM639 297q112 0 193 93.5t81 221.5q0 90 -52.5 143.5
t-139.5 53.5q-111 0 -190.5 -93t-79.5 -224q0 -90 50.5 -142.5t137.5 -52.5z" />
    <glyph glyph-name="Itilde" unicode="&#x128;" horiz-adv-x="665" 
d="M377 1530l-162 74q53 128 128.5 194t164.5 66q69 0 151 -54q62 -45 95 -45q64 0 118 103l162 -72q-50 -127 -127 -194.5t-166 -67.5q-71 0 -151 53q-62 47 -94 47q-65 0 -119 -104zM-14 0l385 1434h397l-385 -1434h-397z" />
    <glyph glyph-name="itilde" unicode="&#x129;" horiz-adv-x="616" 
d="M-35 0l297 1108h389l-297 -1108h-389zM262 1212l-162 74q53 128 128.5 194t164.5 66q72 0 152 -53q62 -45 94 -45q66 0 119 102l162 -71q-50 -127 -127 -194.5t-166 -67.5q-72 0 -152 53q-62 47 -94 47q-64 0 -119 -105z" />
    <glyph glyph-name="dotlessi" unicode="&#x131;" horiz-adv-x="616" 
d="M-35 0l297 1108h389l-297 -1108h-389z" />
    <glyph glyph-name="Lslash" unicode="&#x141;" horiz-adv-x="1355" 
d="M72 0l135 502l-168 -45l96 354l168 45l154 578h393l-123 -461l393 108l-94 -356l-393 -107l-74 -270h684l-94 -348h-1077z" />
    <glyph glyph-name="lslash" unicode="&#x142;" horiz-adv-x="815" 
d="M66 0l145 539l-180 -47l94 348l180 49l162 606h389l-133 -496l180 50l-94 -351l-180 -49l-174 -649h-389z" />
    <glyph glyph-name="OE" unicode="&#x152;" horiz-adv-x="2211" 
d="M864 352h86l197 729h-100q-265 0 -410 -145q-58 -58 -90.5 -136t-32.5 -163q0 -125 72 -197q88 -88 278 -88zM1974 0h-1153q-377 0 -565 188q-152 152 -152 416q0 329 236 565q265 265 752 265h1257l-90 -338h-715l-57 -217h641l-84 -314h-641l-64 -227h725z" />
    <glyph glyph-name="oe" unicode="&#x153;" horiz-adv-x="2052" 
d="M625 299q113 0 186.5 91.5t73.5 211.5q0 93 -53 150t-140 57q-112 0 -185 -93t-73 -210q0 -93 52.5 -150t138.5 -57zM1262 645h397q8 21 8 60q0 61 -38.5 101t-110.5 40q-83 0 -152.5 -52t-103.5 -149zM1970 446h-735q13 -182 209 -182q116 0 233 88l181 -213
q-191 -166 -459 -166q-253 0 -381 174q-81 -81 -186.5 -126.5t-225.5 -45.5q-125 0 -228 40t-172 110t-107 165.5t-38 205.5q0 164 84 310t235.5 236.5t332.5 90.5q134 0 236 -48.5t165 -136.5q174 185 434 185q116 0 206.5 -37.5t146 -102.5t84 -146t28.5 -173
q0 -113 -43 -228z" />
    <glyph glyph-name="Scaron" unicode="&#x160;" horiz-adv-x="1320" 
d="M735 1530l-172 338h232l139 -125l207 125h262l-352 -338h-316zM618 -25q-208 0 -377 68t-288 195l256 264q213 -195 442 -195q73 0 117.5 29t44.5 78q0 42 -46 73.5t-194 87.5q-92 35 -155 69t-115 80.5t-77 107.5t-25 139q0 141 78.5 252.5t217.5 173t312 61.5
q362 0 588 -213l-246 -274q-178 157 -379 157q-70 0 -113 -29t-43 -73q0 -41 45 -69.5t195 -86.5q88 -33 151.5 -67.5t116 -82t79 -109.5t26.5 -140q0 -220 -171.5 -358t-439.5 -138z" />
    <glyph glyph-name="scaron" unicode="&#x161;" horiz-adv-x="1046" 
d="M545 1202l-172 338h231l139 -125l207 125h262l-352 -338h-315zM471 -27q-159 0 -303 51t-244 142l193 227q77 -70 178.5 -109.5t189.5 -39.5q49 0 74 18t25 49q0 28 -32.5 49.5t-119.5 55.5q-75 31 -124 57t-95.5 64.5t-69 88t-22.5 113.5q0 171 130 282.5t353 111.5
q144 0 270.5 -44.5t208.5 -111.5l-186 -234q-73 55 -156 87t-157 32q-97 0 -97 -63q0 -28 30.5 -47.5t123.5 -57.5q58 -24 94.5 -41.5t82 -47t71 -60t43.5 -75.5t18 -99q0 -81 -30.5 -152t-88.5 -126.5t-151 -87.5t-209 -32z" />
    <glyph glyph-name="Utilde" unicode="&#x168;" horiz-adv-x="1556" 
d="M819 1530l-162 74q53 128 128.5 194t164.5 66q70 0 152 -54q62 -45 94 -45q65 0 119 103l162 -72q-50 -127 -127 -194.5t-166 -67.5q-72 0 -152 53q-62 47 -94 47q-65 0 -119 -104zM700 -27q-277 0 -428 131.5t-151 370.5q0 115 33 230l196 729h402l-203 -758
q-21 -70 -21 -135q0 -99 58 -154t166 -55q116 0 192 76q76 71 121 237l213 789h401l-227 -848q-77 -282 -223 -428q-185 -185 -529 -185z" />
    <glyph glyph-name="utilde" unicode="&#x169;" horiz-adv-x="1294" 
d="M588 1212l-162 74q53 128 128.5 194t164.5 66q71 0 151 -53q62 -45 95 -45q65 0 118 102l162 -71q-50 -127 -127 -194.5t-166 -67.5q-71 0 -151 53q-62 47 -94 47q-64 0 -119 -105zM375 -25q-151 0 -236.5 88.5t-85.5 243.5q0 75 31 199l162 602h389l-156 -580
q-14 -54 -14 -90q0 -56 32 -86t93 -30q154 0 205 200l157 586h389l-294 -1108h-390l33 127q-144 -152 -315 -152z" />
    <glyph glyph-name="Ydieresis" unicode="&#x178;" horiz-adv-x="1386" 
d="M524 1530l80 293h340l-80 -293h-340zM973 1530l80 293h340l-80 -293h-340zM326 0l149 555l-289 879h428l142 -537l432 537h475l-801 -922l-137 -512h-399z" />
    <glyph glyph-name="Zcaron" unicode="&#x17d;" horiz-adv-x="1394" 
d="M786 1530l-172 338h232l139 -125l207 125h262l-352 -338h-316zM-74 0l76 289l913 809h-671l92 336h1218l-77 -289l-914 -809h699l-91 -336h-1245z" />
    <glyph glyph-name="zcaron" unicode="&#x17e;" horiz-adv-x="1142" 
d="M573 1202l-172 338h232l139 -125l207 125h262l-352 -338h-316zM-82 0l70 256l651 543h-487l81 309h996l-68 -256l-653 -543h510l-82 -309h-1018z" />
    <glyph glyph-name="florin" unicode="&#x192;" horiz-adv-x="1144" 
d="M113 -25q-114 0 -203 21l65 285q59 -15 103 -15q54 0 93.5 31.5t74.5 112.5l119 264h-129l67 295h193l71 155q74 176 194.5 255t307.5 79q156 0 246 -33l-66 -286q-67 24 -143 24q-71 0 -116 -33t-75 -102l-26 -59h239l-65 -295h-305l-160 -357q-83 -185 -198.5 -263.5
t-286.5 -78.5z" />
    <glyph glyph-name="Ohorn" unicode="&#x1a0;" 
d="M791 -27q-151 0 -279.5 49t-217 134.5t-138.5 204.5t-50 255q0 130 40.5 255t117.5 230.5t180.5 186.5t237 126.5t279.5 45.5q153 0 278 -49q15 -6 39.5 -17t30.5 -14q72 3 114 21q32 14 43 39q38 79 -2 229h316q18 -189 -39 -309q-50 -130 -178 -191q-6 -3 -15 -6
q25 -41 47 -92q50 -118 50 -254q0 -108 -29 -214t-81.5 -199t-130 -172.5t-170.5 -136.5t-207 -89.5t-236 -32.5zM825 330q91 0 170.5 41t131.5 107t82 147t30 161q0 141 -82.5 229.5t-230.5 88.5q-90 0 -169.5 -41.5t-132 -107.5t-82.5 -147t-30 -161q0 -141 82.5 -229
t230.5 -88z" />
    <glyph glyph-name="ohorn" unicode="&#x1a1;" horiz-adv-x="1343" 
d="M604 -27q-248 0 -395.5 145.5t-147.5 370.5q0 167 84.5 314.5t236 238.5t331.5 91q124 0 227 -41q35 -13 78 -37q76 6 104 20q32 14 43 39q38 79 -2 229h316q18 -189 -39 -309q-49 -129 -178 -190l-43 -19q0 -2 2 -4q36 -91 36 -203q0 -125 -50.5 -242.5t-136.5 -206
t-208 -142.5t-258 -54zM627 297q111 0 184.5 95.5t73.5 211.5q0 93 -53 149t-140 56q-74 0 -135 -47.5t-92 -116.5t-31 -141q0 -96 53 -151.5t140 -55.5z" />
    <glyph glyph-name="Uhorn" unicode="&#x1af;" horiz-adv-x="1681" 
d="M700 -27q-277 0 -428 131.5t-151 370.5q0 115 33 230l196 729h402l-203 -758q-21 -70 -21 -135q0 -99 58 -154t166 -55q116 0 192 76q76 71 121 237l213 789h242q26 3 41 12q32 14 43 39q38 79 -2 229h315q18 -189 -39 -309q-50 -130 -178 -191q-30 -13 -88 -32
l-160 -596q-77 -282 -223 -428q-185 -185 -529 -185z" />
    <glyph glyph-name="uhorn" unicode="&#x1b0;" horiz-adv-x="1445" 
d="M375 -25q-151 0 -236.5 88.5t-85.5 243.5q0 75 31 199l162 602h389l-156 -580q-14 -54 -14 -90q0 -56 32 -86t93 -30q154 0 205 200l157 586h242q42 6 66 16q32 14 43 39q38 78 -3 230h316q18 -190 -39 -310q-49 -129 -178 -190q-58 -28 -127 -43l-225 -850h-390l33 127
q-144 -152 -315 -152z" />
    <glyph glyph-name="circumflex" unicode="&#x2c6;" horiz-adv-x="1024" 
d="M266 1202l352 338h316l172 -338h-232l-139 125l-207 -125h-262z" />
    <glyph glyph-name="caron" unicode="&#x2c7;" horiz-adv-x="1024" 
d="M524 1202l-172 338h232l139 -125l207 125h262l-352 -338h-316z" />
    <glyph glyph-name="breve" unicode="&#x2d8;" horiz-adv-x="1024" 
d="M735 1200q-174 0 -270 90.5t-96 241.5v8h231q5 -53 44 -86t108 -33q128 0 196 119h234q-43 -157 -166.5 -248.5t-280.5 -91.5z" />
    <glyph glyph-name="dotaccent" unicode="&#x2d9;" horiz-adv-x="1024" 
d="M512 1202l80 293h348l-80 -293h-348z" />
    <glyph glyph-name="ring" unicode="&#x2da;" horiz-adv-x="1024" 
d="M735 1337q65 0 107.5 50.5t42.5 119.5q0 46 -29.5 77.5t-77.5 31.5q-65 0 -107 -52t-42 -118q0 -48 28.5 -78.5t77.5 -30.5zM729 1212q-113 0 -179.5 64.5t-66.5 165.5q0 122 88 209.5t213 87.5q113 0 179.5 -64.5t66.5 -165.5q0 -121 -88 -209t-213 -88z" />
    <glyph glyph-name="ogonek" unicode="&#x2db;" horiz-adv-x="1024" 
d="M561 -170l-45 -166q-199 -23 -302 20t-103 142q0 91 92 194h241q-38 -58 -38 -108q0 -79 155 -82z" />
    <glyph glyph-name="tilde" unicode="&#x2dc;" horiz-adv-x="1024" 
d="M455 1196l-183 82q59 144 144.5 219.5t185.5 75.5q84 0 172 -62q41 -29 62.5 -40t42.5 -11q40 0 71.5 29.5t63.5 87.5l182 -82q-59 -144 -144.5 -219.5t-185.5 -75.5q-84 0 -172 62q-40 28 -62 39.5t-44 11.5q-39 0 -70 -29.5t-63 -87.5z" />
    <glyph glyph-name="hungarumlaut" unicode="&#x2dd;" horiz-adv-x="1024" 
d="M238 1204l305 377l303 -111l88 111l319 -117l-348 -260h-268l176 223l-307 -223h-268z" />
    <glyph glyph-name="Omega" unicode="&#x3a9;" horiz-adv-x="1712" 
d="M883 0l215 795h-131l84 313h129l6 22q50 199 165.5 289t309.5 90q141 0 248 -36l-72 -273q-73 25 -131 25q-59 0 -92 -25.5t-47 -79.5l-6 -18h249l-81 -307h-242l-215 -795h-389zM27 0l215 795h-131l84 313h129l6 22q50 199 165.5 289t309.5 90q141 0 248 -36l-72 -273
q-73 25 -131 25q-59 0 -92 -25.5t-47 -79.5l-6 -18h249l-82 -307h-241l-215 -795h-389z" />
    <glyph glyph-name="Omega" unicode="&#x2126;" horiz-adv-x="1712" 
d="M883 0l215 795h-131l84 313h129l6 22q50 199 165.5 289t309.5 90q141 0 248 -36l-72 -273q-73 25 -131 25q-59 0 -92 -25.5t-47 -79.5l-6 -18h249l-81 -307h-242l-215 -795h-389zM27 0l215 795h-131l84 313h129l6 22q50 199 165.5 289t309.5 90q141 0 248 -36l-72 -273
q-73 25 -131 25q-59 0 -92 -25.5t-47 -79.5l-6 -18h249l-82 -307h-241l-215 -795h-389z" />
    <glyph glyph-name="pi" unicode="&#x3c0;" horiz-adv-x="1699" 
d="M825 733h103q57 0 91 27t34 74v4q0 50 -33 76t-94 26h-101v-207zM604 336v788h340q154 0 241 -73t87 -205v-4q0 -133 -93.5 -207t-244.5 -74h-109v-225h-221zM895 53q138 0 260.5 53t209 143t137 212t50.5 256v4q0 179 -85 330t-235.5 240t-332.5 89q-138 0 -260.5 -53
t-209 -142.5t-137 -211.5t-50.5 -256v-4q0 -134 50 -255.5t136 -210.5t208 -141.5t259 -52.5zM895 -29q-153 0 -290.5 60t-235.5 160.5t-155.5 237t-57.5 284.5v4q0 149 58 286t156.5 238t237 161t291.5 60t290.5 -59.5t235.5 -160t155.5 -237t57.5 -284.5v-4
q0 -149 -58 -286t-156.5 -238.5t-237 -161.5t-291.5 -60z" />
    <glyph glyph-name="uni1EA0" unicode="&#x1ea0;" horiz-adv-x="1587" 
d="M418 -412l80 289h293l-80 -289h-293zM653 565h320l-51 412zM-152 0l998 1444h389l223 -1444h-418l-34 256h-553l-172 -256h-433z" />
    <glyph glyph-name="uni1EA1" unicode="&#x1ea1;" horiz-adv-x="1222" 
d="M240 -412l79 289h293l-80 -289h-292zM492 217q75 0 139.5 57.5t87.5 143.5l10 37q-74 24 -145 24q-93 0 -148 -43t-55 -117q0 -47 30.5 -74.5t80.5 -27.5zM311 -23q-138 0 -223.5 82t-85.5 220q0 181 132.5 286t354.5 105q141 0 281 -43l4 14q10 30 10 68q0 118 -190 118
q-157 0 -299 -55l-55 283q191 67 436 67q246 0 369.5 -91.5t123.5 -260.5q0 -70 -22 -160l-164 -610h-383l31 119q-78 -71 -152.5 -106.5t-167.5 -35.5z" />
    <glyph glyph-name="uni1EA2" unicode="&#x1ea2;" horiz-adv-x="1587" 
d="M975 1552l53 215q140 9 180 93q-2 24 -11 34.5t-32 10.5q-58 15 -133 -72l-135 100q86 93 182 133q74 31 162 31q113 0 169 -68t20 -165q-49 -151 -236 -224q-16 -35 -37 -88h-182zM653 565h320l-51 412zM-152 0l998 1444h389l223 -1444h-418l-34 256h-553l-172 -256
h-433z" />
    <glyph glyph-name="uni1EA3" unicode="&#x1ea3;" horiz-adv-x="1222" 
d="M705 1202l53 215q141 9 180 92q-2 24 -11 34.5t-32 10.5q-59 15 -133 -71l-135 100q86 93 182 133q74 31 162 31q113 0 169 -68t19 -166q-49 -150 -235 -223q-16 -35 -37 -88h-182zM492 217q75 0 139.5 57.5t87.5 143.5l10 37q-74 24 -145 24q-93 0 -148 -43t-55 -117
q0 -47 30.5 -74.5t80.5 -27.5zM311 -23q-138 0 -223.5 82t-85.5 220q0 181 132.5 286t354.5 105q141 0 281 -43l4 14q10 30 10 68q0 118 -190 118q-157 0 -299 -55l-55 283q191 67 436 67q246 0 369.5 -91.5t123.5 -260.5q0 -70 -22 -160l-164 -610h-383l31 119
q-78 -71 -152.5 -106.5t-167.5 -35.5z" />
    <glyph glyph-name="uni1EA4" unicode="&#x1ea4;" horiz-adv-x="1587" 
d="M1389 1788l317 379l354 -117l-370 -262h-301zM612 1530l353 338h315l172 -338h-231l-140 125l-207 -125h-262zM653 565h320l-51 412zM-152 0l998 1444h389l223 -1444h-418l-34 256h-553l-172 -256h-433z" />
    <glyph glyph-name="uni1EA5" unicode="&#x1ea5;" horiz-adv-x="1222" 
d="M1137 1460l317 379l354 -117l-370 -262h-301zM360 1202l353 338h315l172 -338h-231l-140 125l-206 -125h-263zM492 217q75 0 139.5 57.5t87.5 143.5l10 37q-74 24 -145 24q-93 0 -148 -43t-55 -117q0 -47 30.5 -74.5t80.5 -27.5zM311 -23q-138 0 -223.5 82t-85.5 220
q0 181 132.5 286t354.5 105q141 0 281 -43l4 14q10 30 10 68q0 118 -190 118q-157 0 -299 -55l-55 283q191 67 436 67q246 0 369.5 -91.5t123.5 -260.5q0 -70 -22 -160l-164 -610h-383l31 119q-78 -71 -152.5 -106.5t-167.5 -35.5z" />
    <glyph glyph-name="uni1EA6" unicode="&#x1ea6;" horiz-adv-x="1587" 
d="M1456 1788l-227 262l366 117l113 -379h-252zM612 1530l353 338h315l172 -338h-231l-140 125l-207 -125h-262zM653 565h320l-51 412zM-152 0l998 1444h389l223 -1444h-418l-34 256h-553l-172 -256h-433z" />
    <glyph glyph-name="uni1EA7" unicode="&#x1ea7;" horiz-adv-x="1222" 
d="M1204 1460l-227 262l366 117l113 -379h-252zM360 1202l353 338h315l172 -338h-231l-140 125l-206 -125h-263zM492 217q75 0 139.5 57.5t87.5 143.5l10 37q-74 24 -145 24q-93 0 -148 -43t-55 -117q0 -47 30.5 -74.5t80.5 -27.5zM311 -23q-138 0 -223.5 82t-85.5 220
q0 181 132.5 286t354.5 105q141 0 281 -43l4 14q10 30 10 68q0 118 -190 118q-157 0 -299 -55l-55 283q191 67 436 67q246 0 369.5 -91.5t123.5 -260.5q0 -70 -22 -160l-164 -610h-383l31 119q-78 -71 -152.5 -106.5t-167.5 -35.5z" />
    <glyph glyph-name="uni1EA8" unicode="&#x1ea8;" horiz-adv-x="1587" 
d="M1399 1790l49 197q131 9 166 86q-3 41 -39 41q-22 7 -54.5 -9t-68.5 -57l-125 92q62 63 119.5 96.5t96.5 41.5t102 12q103 0 154.5 -62.5t19.5 -152.5q-29 -81 -84 -126t-133 -79q-1 -3 -35 -80h-168zM612 1530l353 338h315l172 -338h-231l-140 125l-207 -125h-262z
M653 565h320l-51 412zM-152 0l998 1444h389l223 -1444h-418l-34 256h-553l-172 -256h-433z" />
    <glyph glyph-name="uni1EA9" unicode="&#x1ea9;" horiz-adv-x="1222" 
d="M1147 1462l49 197q131 9 166 86q-3 41 -39 41q-22 7 -54.5 -9t-68.5 -57l-125 92q62 63 119.5 96.5t96.5 41.5t102 12q103 0 154.5 -62.5t19.5 -152.5q-29 -81 -84 -126t-133 -79q-1 -3 -35 -80h-168zM360 1202l353 338h315l172 -338h-231l-140 125l-206 -125h-263z
M492 217q75 0 139.5 57.5t87.5 143.5l10 37q-74 24 -145 24q-93 0 -148 -43t-55 -117q0 -47 30.5 -74.5t80.5 -27.5zM311 -23q-138 0 -223.5 82t-85.5 220q0 181 132.5 286t354.5 105q141 0 281 -43l4 14q10 30 10 68q0 118 -190 118q-157 0 -299 -55l-55 283q191 67 436 67
q246 0 369.5 -91.5t123.5 -260.5q0 -70 -22 -160l-164 -610h-383l31 119q-78 -71 -152.5 -106.5t-167.5 -35.5z" />
    <glyph glyph-name="uni1EAA" unicode="&#x1eaa;" horiz-adv-x="1587" 
d="M901 1937l-162 74q53 128 128.5 194t164.5 66q72 0 152 -53q62 -45 94 -45q66 0 119 102l162 -71q-50 -127 -127 -194.5t-166 -67.5q-72 0 -152 53q-62 47 -94 47q-64 0 -119 -105zM612 1530l353 338h315l172 -338h-231l-140 125l-207 -125h-262zM653 565h320l-51 412z
M-152 0l998 1444h389l223 -1444h-418l-34 256h-553l-172 -256h-433z" />
    <glyph glyph-name="uni1EAB" unicode="&#x1eab;" horiz-adv-x="1222" 
d="M647 1612l-162 74q53 128 128.5 194t164.5 66q70 0 152 -54q62 -45 94 -45q65 0 119 103l162 -72q-50 -127 -127 -194.5t-166 -67.5q-72 0 -152 53q-62 47 -94 47q-65 0 -119 -104zM360 1202l353 338h315l172 -338h-231l-140 125l-206 -125h-263zM492 217
q75 0 139.5 57.5t87.5 143.5l10 37q-74 24 -145 24q-93 0 -148 -43t-55 -117q0 -47 30.5 -74.5t80.5 -27.5zM311 -23q-138 0 -223.5 82t-85.5 220q0 181 132.5 286t354.5 105q141 0 281 -43l4 14q10 30 10 68q0 118 -190 118q-157 0 -299 -55l-55 283q191 67 436 67
q246 0 369.5 -91.5t123.5 -260.5q0 -70 -22 -160l-164 -610h-383l31 119q-78 -71 -152.5 -106.5t-167.5 -35.5z" />
    <glyph glyph-name="uni1EAC" unicode="&#x1eac;" horiz-adv-x="1587" 
d="M418 -412l80 289h293l-80 -289h-293zM612 1530l353 338h315l172 -338h-231l-140 125l-207 -125h-262zM653 565h320l-51 412zM-152 0l998 1444h389l223 -1444h-418l-34 256h-553l-172 -256h-433z" />
    <glyph glyph-name="uni1EAD" unicode="&#x1ead;" horiz-adv-x="1222" 
d="M240 -412l79 289h293l-80 -289h-292zM360 1202l353 338h315l172 -338h-231l-140 125l-206 -125h-263zM492 217q75 0 139.5 57.5t87.5 143.5l10 37q-74 24 -145 24q-93 0 -148 -43t-55 -117q0 -47 30.5 -74.5t80.5 -27.5zM311 -23q-138 0 -223.5 82t-85.5 220
q0 181 132.5 286t354.5 105q141 0 281 -43l4 14q10 30 10 68q0 118 -190 118q-157 0 -299 -55l-55 283q191 67 436 67q246 0 369.5 -91.5t123.5 -260.5q0 -70 -22 -160l-164 -610h-383l31 119q-78 -71 -152.5 -106.5t-167.5 -35.5z" />
    <glyph glyph-name="uni1EAE" unicode="&#x1eae;" horiz-adv-x="1587" 
d="M934 1933l317 379l355 -117l-371 -262h-301zM1085 1548q-174 0 -270 90.5t-96 241.5v8h231q5 -53 44 -86t108 -33q128 0 196 119h234q-43 -157 -166.5 -248.5t-280.5 -91.5zM653 565h320l-51 412zM-152 0l998 1444h389l223 -1444h-418l-34 256h-553l-172 -256h-433z" />
    <glyph glyph-name="uni1EAF" unicode="&#x1eaf;" horiz-adv-x="1222" 
d="M700 1593l318 379l354 -117l-371 -262h-301zM852 1208q-174 0 -270.5 90.5t-96.5 241.5v8h232q5 -53 43.5 -85.5t107.5 -32.5q130 0 197 118h233q-44 -157 -166.5 -248.5t-279.5 -91.5zM492 217q75 0 139.5 57.5t87.5 143.5l10 37q-74 24 -145 24q-93 0 -148 -43
t-55 -117q0 -47 30.5 -74.5t80.5 -27.5zM311 -23q-138 0 -223.5 82t-85.5 220q0 181 132.5 286t354.5 105q141 0 281 -43l4 14q10 30 10 68q0 118 -190 118q-157 0 -299 -55l-55 283q191 67 436 67q246 0 369.5 -91.5t123.5 -260.5q0 -70 -22 -160l-164 -610h-383l31 119
q-78 -71 -152.5 -106.5t-167.5 -35.5z" />
    <glyph glyph-name="uni1EB0" unicode="&#x1eb0;" horiz-adv-x="1587" 
d="M1026 1933l-227 262l366 117l113 -379h-252zM1085 1548q-174 0 -270 90.5t-96 241.5v8h231q5 -53 44 -86t108 -33q128 0 196 119h234q-43 -157 -166.5 -248.5t-280.5 -91.5zM653 565h320l-51 412zM-152 0l998 1444h389l223 -1444h-418l-34 256h-553l-172 -256h-433z" />
    <glyph glyph-name="uni1EB1" unicode="&#x1eb1;" horiz-adv-x="1222" 
d="M793 1593l-228 262l367 117l112 -379h-251zM852 1208q-174 0 -270.5 90.5t-96.5 241.5v8h232q5 -53 43.5 -85.5t107.5 -32.5q130 0 197 118h233q-44 -157 -166.5 -248.5t-279.5 -91.5zM492 217q75 0 139.5 57.5t87.5 143.5l10 37q-74 24 -145 24q-93 0 -148 -43t-55 -117
q0 -47 30.5 -74.5t80.5 -27.5zM311 -23q-138 0 -223.5 82t-85.5 220q0 181 132.5 286t354.5 105q141 0 281 -43l4 14q10 30 10 68q0 118 -190 118q-157 0 -299 -55l-55 283q191 67 436 67q246 0 369.5 -91.5t123.5 -260.5q0 -70 -22 -160l-164 -610h-383l31 119
q-78 -71 -152.5 -106.5t-167.5 -35.5z" />
    <glyph glyph-name="uni1EB2" unicode="&#x1eb2;" horiz-adv-x="1587" 
d="M1036 1911l49 196q131 9 166 86q-3 41 -39 41q-52 16 -122 -65l-125 92q89 90 155.5 117t161.5 32q103 0 154.5 -62.5t19.5 -152.5q-15 -43 -39.5 -77t-56.5 -58t-58 -38.5t-63 -30.5q-1 -3 -35 -80h-168zM1085 1548q-174 0 -270 90.5t-96 241.5v8h231q5 -53 44 -86
t108 -33q128 0 196 119h234q-43 -157 -166.5 -248.5t-280.5 -91.5zM653 565h320l-51 412zM-152 0l998 1444h389l223 -1444h-418l-34 256h-553l-172 -256h-433z" />
    <glyph glyph-name="uni1EB3" unicode="&#x1eb3;" horiz-adv-x="1222" 
d="M803 1571l49 196q131 9 166 86q-3 41 -39 41q-23 7 -55 -8.5t-68 -56.5l-125 92q62 63 119.5 96.5t96.5 41.5t102 12q103 0 154.5 -63t19.5 -153q-15 -43 -39.5 -77t-56.5 -58t-58 -38.5t-63 -30.5q-1 -3 -35 -80h-168zM852 1208q-174 0 -270.5 90.5t-96.5 241.5v8h232
q5 -53 43.5 -85.5t107.5 -32.5q130 0 197 118h233q-44 -157 -166.5 -248.5t-279.5 -91.5zM492 217q75 0 139.5 57.5t87.5 143.5l10 37q-74 24 -145 24q-93 0 -148 -43t-55 -117q0 -47 30.5 -74.5t80.5 -27.5zM311 -23q-138 0 -223.5 82t-85.5 220q0 181 132.5 286t354.5 105
q141 0 281 -43l4 14q10 30 10 68q0 118 -190 118q-157 0 -299 -55l-55 283q191 67 436 67q246 0 369.5 -91.5t123.5 -260.5q0 -70 -22 -160l-164 -610h-383l31 119q-78 -71 -152.5 -106.5t-167.5 -35.5z" />
    <glyph glyph-name="uni1EB4" unicode="&#x1eb4;" horiz-adv-x="1587" 
d="M913 1958l-161 74q54 128 128.5 194t163.5 66q70 0 152 -54q62 -45 94 -45q65 0 119 103l162 -72q-50 -127 -127 -194.5t-166 -67.5q-72 0 -152 53q-62 47 -94 47q-65 0 -119 -104zM1085 1548q-174 0 -270 90.5t-96 241.5v8h231q5 -53 44 -86t108 -33q128 0 196 119h234
q-43 -157 -166.5 -248.5t-280.5 -91.5zM653 565h320l-51 412zM-152 0l998 1444h389l223 -1444h-418l-34 256h-553l-172 -256h-433z" />
    <glyph glyph-name="uni1EB5" unicode="&#x1eb5;" horiz-adv-x="1222" 
d="M680 1618l-162 74q53 128 128.5 194t164.5 66q70 0 152 -54q62 -45 94 -45q65 0 119 103l161 -72q-50 -127 -127 -194.5t-166 -67.5q-71 0 -151 53q-62 47 -94 47q-65 0 -119 -104zM852 1208q-174 0 -270.5 90.5t-96.5 241.5v8h232q5 -53 43.5 -85.5t107.5 -32.5
q130 0 197 118h233q-44 -157 -166.5 -248.5t-279.5 -91.5zM492 217q75 0 139.5 57.5t87.5 143.5l10 37q-74 24 -145 24q-93 0 -148 -43t-55 -117q0 -47 30.5 -74.5t80.5 -27.5zM311 -23q-138 0 -223.5 82t-85.5 220q0 181 132.5 286t354.5 105q141 0 281 -43l4 14
q10 30 10 68q0 118 -190 118q-157 0 -299 -55l-55 283q191 67 436 67q246 0 369.5 -91.5t123.5 -260.5q0 -70 -22 -160l-164 -610h-383l31 119q-78 -71 -152.5 -106.5t-167.5 -35.5z" />
    <glyph glyph-name="uni1EB6" unicode="&#x1eb6;" horiz-adv-x="1587" 
d="M418 -412l80 289h293l-80 -289h-293zM1085 1548q-174 0 -270 90.5t-96 241.5v8h231q5 -53 44 -86t108 -33q128 0 196 119h234q-43 -157 -166.5 -248.5t-280.5 -91.5zM653 565h320l-51 412zM-152 0l998 1444h389l223 -1444h-418l-34 256h-553l-172 -256h-433z" />
    <glyph glyph-name="uni1EB7" unicode="&#x1eb7;" horiz-adv-x="1222" 
d="M240 -412l79 289h293l-80 -289h-292zM852 1208q-174 0 -270.5 90.5t-96.5 241.5v8h232q5 -53 43.5 -85.5t107.5 -32.5q130 0 197 118h233q-44 -157 -166.5 -248.5t-279.5 -91.5zM492 217q75 0 139.5 57.5t87.5 143.5l10 37q-74 24 -145 24q-93 0 -148 -43t-55 -117
q0 -47 30.5 -74.5t80.5 -27.5zM311 -23q-138 0 -223.5 82t-85.5 220q0 181 132.5 286t354.5 105q141 0 281 -43l4 14q10 30 10 68q0 118 -190 118q-157 0 -299 -55l-55 283q191 67 436 67q246 0 369.5 -91.5t123.5 -260.5q0 -70 -22 -160l-164 -610h-383l31 119
q-78 -71 -152.5 -106.5t-167.5 -35.5z" />
    <glyph glyph-name="uni1EB8" unicode="&#x1eb8;" horiz-adv-x="1370" 
d="M305 -412l80 289h293l-80 -289h-293zM-25 0l385 1434h1149l-92 -338h-753l-60 -217h684l-84 -314h-684l-61 -227h766l-90 -338h-1160z" />
    <glyph glyph-name="uni1EB9" unicode="&#x1eb9;" horiz-adv-x="1230" 
d="M295 -412l80 289h293l-80 -289h-293zM442 645h396q10 33 10 60q0 61 -39 101t-113 40q-81 0 -150.5 -52.5t-103.5 -148.5zM1151 446h-735q6 -87 58 -134.5t149 -47.5q118 0 235 88l180 -213q-195 -166 -452 -166q-245 0 -387 133.5t-142 358.5q0 98 29.5 195t87.5 182
t137 150t186 103t226 38t211.5 -37.5t148 -102.5t83.5 -145.5t28 -173.5q0 -113 -43 -228z" />
    <glyph glyph-name="uni1EBA" unicode="&#x1eba;" horiz-adv-x="1370" 
d="M856 1552l53 215q141 9 181 93q-2 24 -11 34.5t-32 10.5q-59 15 -134 -72l-135 100q85 92 183 133q74 31 161 31q113 0 169 -68t20 -165q-49 -151 -236 -224q-16 -35 -37 -88h-182zM-25 0l385 1434h1149l-92 -338h-753l-60 -217h684l-84 -314h-684l-61 -227h766l-90 -338
h-1160z" />
    <glyph glyph-name="uni1EBB" unicode="&#x1ebb;" horiz-adv-x="1230" 
d="M686 1202l53 215q142 9 181 92q-2 24 -11 34.5t-32 10.5q-59 15 -134 -71l-135 100q85 92 183 133q74 31 161 31q113 0 169 -68t20 -166q-49 -150 -236 -223q-16 -35 -37 -88h-182zM442 645h396q10 33 10 60q0 61 -39 101t-113 40q-81 0 -150.5 -52.5t-103.5 -148.5z
M1151 446h-735q6 -87 58 -134.5t149 -47.5q118 0 235 88l180 -213q-195 -166 -452 -166q-245 0 -387 133.5t-142 358.5q0 98 29.5 195t87.5 182t137 150t186 103t226 38t211.5 -37.5t148 -102.5t83.5 -145.5t28 -173.5q0 -113 -43 -228z" />
    <glyph glyph-name="uni1EBC" unicode="&#x1ebc;" horiz-adv-x="1370" 
d="M743 1530l-161 74q54 128 128.5 194t163.5 66q70 0 152 -54q62 -45 94 -45q65 0 119 103l162 -72q-50 -127 -127 -194.5t-166 -67.5q-72 0 -152 53q-62 47 -94 47q-65 0 -119 -104zM-25 0l385 1434h1149l-92 -338h-753l-60 -217h684l-84 -314h-684l-61 -227h766l-90 -338
h-1160z" />
    <glyph glyph-name="uni1EBD" unicode="&#x1ebd;" horiz-adv-x="1230" 
d="M569 1212l-161 74q54 128 128.5 194t163.5 66q72 0 152 -53q62 -45 94 -45q66 0 119 102l162 -71q-50 -127 -127 -194.5t-166 -67.5q-72 0 -152 53q-62 47 -94 47q-64 0 -119 -105zM442 645h396q10 33 10 60q0 61 -39 101t-113 40q-81 0 -150.5 -52.5t-103.5 -148.5z
M1151 446h-735q6 -87 58 -134.5t149 -47.5q118 0 235 88l180 -213q-195 -166 -452 -166q-245 0 -387 133.5t-142 358.5q0 98 29.5 195t87.5 182t137 150t186 103t226 38t211.5 -37.5t148 -102.5t83.5 -145.5t28 -173.5q0 -113 -43 -228z" />
    <glyph glyph-name="uni1EBE" unicode="&#x1ebe;" horiz-adv-x="1370" 
d="M1309 1788l317 379l354 -117l-370 -262h-301zM532 1530l353 338h315l172 -338h-231l-140 125l-206 -125h-263zM-25 0l385 1434h1149l-92 -338h-753l-60 -217h684l-84 -314h-684l-61 -227h766l-90 -338h-1160z" />
    <glyph glyph-name="uni1EBF" unicode="&#x1ebf;" horiz-adv-x="1230" 
d="M1120 1460l318 379l354 -117l-371 -262h-301zM344 1202l352 338h316l172 -338h-232l-139 125l-207 -125h-262zM442 645h396q10 33 10 60q0 61 -39 101t-113 40q-81 0 -150.5 -52.5t-103.5 -148.5zM1151 446h-735q6 -87 58 -134.5t149 -47.5q118 0 235 88l180 -213
q-195 -166 -452 -166q-245 0 -387 133.5t-142 358.5q0 98 29.5 195t87.5 182t137 150t186 103t226 38t211.5 -37.5t148 -102.5t83.5 -145.5t28 -173.5q0 -113 -43 -228z" />
    <glyph glyph-name="uni1EC0" unicode="&#x1ec0;" horiz-adv-x="1370" 
d="M1376 1788l-227 262l367 117l112 -379h-252zM532 1530l353 338h315l172 -338h-231l-140 125l-206 -125h-263zM-25 0l385 1434h1149l-92 -338h-753l-60 -217h684l-84 -314h-684l-61 -227h766l-90 -338h-1160z" />
    <glyph glyph-name="uni1EC1" unicode="&#x1ec1;" horiz-adv-x="1230" 
d="M1188 1460l-227 262l366 117l113 -379h-252zM344 1202l352 338h316l172 -338h-232l-139 125l-207 -125h-262zM442 645h396q10 33 10 60q0 61 -39 101t-113 40q-81 0 -150.5 -52.5t-103.5 -148.5zM1151 446h-735q6 -87 58 -134.5t149 -47.5q118 0 235 88l180 -213
q-195 -166 -452 -166q-245 0 -387 133.5t-142 358.5q0 98 29.5 195t87.5 182t137 150t186 103t226 38t211.5 -37.5t148 -102.5t83.5 -145.5t28 -173.5q0 -113 -43 -228z" />
    <glyph glyph-name="uni1EC2" unicode="&#x1ec2;" horiz-adv-x="1370" 
d="M1319 1790l49 197q131 9 166 86q-3 41 -39 41q-22 7 -54.5 -9t-68.5 -57l-125 92q62 63 119.5 96.5t96.5 41.5t102 12q103 0 154.5 -62.5t19.5 -152.5q-29 -81 -84 -126t-133 -79q-1 -3 -35 -80h-168zM532 1530l353 338h315l172 -338h-231l-140 125l-206 -125h-263z
M-25 0l385 1434h1149l-92 -338h-753l-60 -217h684l-84 -314h-684l-61 -227h766l-90 -338h-1160z" />
    <glyph glyph-name="uni1EC3" unicode="&#x1ec3;" horiz-adv-x="1230" 
d="M1130 1462l50 197q131 9 166 86q-3 41 -39 41q-22 7 -54.5 -9t-68.5 -57l-125 92q47 48 88.5 78.5t82 44.5t70 19t76.5 8q103 0 154.5 -62.5t19.5 -152.5q-29 -81 -84 -126t-133 -79q-1 -3 -35 -80h-168zM344 1202l352 338h316l172 -338h-232l-139 125l-207 -125h-262z
M442 645h396q10 33 10 60q0 61 -39 101t-113 40q-81 0 -150.5 -52.5t-103.5 -148.5zM1151 446h-735q6 -87 58 -134.5t149 -47.5q118 0 235 88l180 -213q-195 -166 -452 -166q-245 0 -387 133.5t-142 358.5q0 98 29.5 195t87.5 182t137 150t186 103t226 38t211.5 -37.5
t148 -102.5t83.5 -145.5t28 -173.5q0 -113 -43 -228z" />
    <glyph glyph-name="uni1EC4" unicode="&#x1ec4;" horiz-adv-x="1370" 
d="M821 1937l-162 74q53 128 128.5 194t164.5 66q72 0 152 -53q62 -45 94 -45q66 0 119 102l162 -71q-50 -127 -127 -194.5t-166 -67.5q-72 0 -152 53q-62 47 -94 47q-64 0 -119 -105zM532 1530l353 338h315l172 -338h-231l-140 125l-206 -125h-263zM-25 0l385 1434h1149
l-92 -338h-753l-60 -217h684l-84 -314h-684l-61 -227h766l-90 -338h-1160z" />
    <glyph glyph-name="uni1EC5" unicode="&#x1ec5;" horiz-adv-x="1230" 
d="M631 1612l-162 74q53 128 128.5 194t164.5 66q69 0 151 -54q62 -45 95 -45q64 0 118 103l162 -72q-50 -127 -127 -194.5t-166 -67.5q-71 0 -151 53q-62 47 -94 47q-65 0 -119 -104zM344 1202l352 338h316l172 -338h-232l-139 125l-207 -125h-262zM442 645h396
q10 33 10 60q0 61 -39 101t-113 40q-81 0 -150.5 -52.5t-103.5 -148.5zM1151 446h-735q6 -87 58 -134.5t149 -47.5q118 0 235 88l180 -213q-195 -166 -452 -166q-245 0 -387 133.5t-142 358.5q0 98 29.5 195t87.5 182t137 150t186 103t226 38t211.5 -37.5t148 -102.5
t83.5 -145.5t28 -173.5q0 -113 -43 -228z" />
    <glyph glyph-name="uni1EC6" unicode="&#x1ec6;" horiz-adv-x="1370" 
d="M305 -412l80 289h293l-80 -289h-293zM532 1530l353 338h315l172 -338h-231l-140 125l-206 -125h-263zM-25 0l385 1434h1149l-92 -338h-753l-60 -217h684l-84 -314h-684l-61 -227h766l-90 -338h-1160z" />
    <glyph glyph-name="uni1EC7" unicode="&#x1ec7;" horiz-adv-x="1230" 
d="M295 -412l80 289h293l-80 -289h-293zM344 1202l352 338h316l172 -338h-232l-139 125l-207 -125h-262zM442 645h396q10 33 10 60q0 61 -39 101t-113 40q-81 0 -150.5 -52.5t-103.5 -148.5zM1151 446h-735q6 -87 58 -134.5t149 -47.5q118 0 235 88l180 -213
q-195 -166 -452 -166q-245 0 -387 133.5t-142 358.5q0 98 29.5 195t87.5 182t137 150t186 103t226 38t211.5 -37.5t148 -102.5t83.5 -145.5t28 -173.5q0 -113 -43 -228z" />
    <glyph glyph-name="uni1EC8" unicode="&#x1ec8;" horiz-adv-x="665" 
d="M504 1552l53 215q140 9 180 93q-2 24 -11 34.5t-32 10.5q-58 15 -133 -72l-135 100q86 93 182 133q74 31 162 31q113 0 168.5 -67.5t19.5 -165.5q-50 -151 -235 -224q-16 -35 -37 -88h-182zM-14 0l385 1434h397l-385 -1434h-397z" />
    <glyph glyph-name="uni1EC9" unicode="&#x1ec9;" horiz-adv-x="616" 
d="M-35 0l297 1108h389l-297 -1108h-389zM387 1202l53 215q142 9 181 92q-2 24 -11 34.5t-32 10.5q-59 15 -134 -71l-135 100q85 92 183 133q74 31 161 31q113 0 169 -68t20 -166q-49 -150 -236 -223q-16 -35 -37 -88h-182z" />
    <glyph glyph-name="uni1ECA" unicode="&#x1eca;" horiz-adv-x="665" 
d="M-74 -412l80 289h293l-80 -289h-293zM-14 0l385 1434h397l-385 -1434h-397z" />
    <glyph glyph-name="uni1ECB" unicode="&#x1ecb;" horiz-adv-x="616" 
d="M-96 -412l80 289h292l-79 -289h-293zM-35 0l297 1108h389l-297 -1108h-389zM283 1208l77 287h406l-78 -287h-405z" />
    <glyph glyph-name="uni1ECC" unicode="&#x1ecc;" 
d="M506 -412l80 289h293l-80 -289h-293zM825 330q91 0 170.5 41t131.5 107t82 147t30 161q0 141 -82.5 229.5t-230.5 88.5q-90 0 -169.5 -41.5t-132 -107.5t-82.5 -147t-30 -161q0 -141 82.5 -229t230.5 -88zM791 -27q-151 0 -279.5 49t-217 134.5t-138.5 204.5t-50 255
q0 130 40.5 255t117.5 230.5t180.5 186.5t237 126.5t279.5 45.5q151 0 279.5 -49t217 -134.5t138 -204.5t49.5 -255q0 -108 -29 -214t-81.5 -199t-130 -172.5t-170.5 -136.5t-207 -89.5t-236 -32.5z" />
    <glyph glyph-name="uni1ECD" unicode="&#x1ecd;" horiz-adv-x="1318" 
d="M328 -412l80 289h292l-79 -289h-293zM627 297q111 0 184.5 95.5t73.5 211.5q0 93 -53 149t-140 56q-74 0 -135 -47.5t-92 -116.5t-31 -141q0 -96 53 -151.5t140 -55.5zM604 -27q-248 0 -395.5 145.5t-147.5 370.5q0 167 84.5 314.5t236 238.5t331.5 91q125 0 228 -40
t172 -109.5t106.5 -163.5t37.5 -202q0 -125 -50.5 -242.5t-136.5 -206t-208 -142.5t-258 -54z" />
    <glyph glyph-name="uni1ECE" unicode="&#x1ece;" 
d="M938 1552l53 215q140 9 180 93q-2 24 -11 34.5t-32 10.5q-58 15 -133 -72l-135 100q86 93 182 133q74 31 162 31q113 0 169 -68t20 -165q-49 -151 -236 -224q-16 -35 -37 -88h-182zM825 330q91 0 170.5 41t131.5 107t82 147t30 161q0 141 -82.5 229.5t-230.5 88.5
q-90 0 -169.5 -41.5t-132 -107.5t-82.5 -147t-30 -161q0 -141 82.5 -229t230.5 -88zM791 -27q-151 0 -279.5 49t-217 134.5t-138.5 204.5t-50 255q0 130 40.5 255t117.5 230.5t180.5 186.5t237 126.5t279.5 45.5q151 0 279.5 -49t217 -134.5t138 -204.5t49.5 -255
q0 -108 -29 -214t-81.5 -199t-130 -172.5t-170.5 -136.5t-207 -89.5t-236 -32.5z" />
    <glyph glyph-name="uni1ECF" unicode="&#x1ecf;" horiz-adv-x="1318" 
d="M700 1202l54 215q141 9 180 92q-2 24 -11 34.5t-32 10.5q-59 15 -133 -71l-135 100q86 93 182 133q74 31 162 31q113 0 169 -68t19 -166q-49 -150 -235 -223q-16 -35 -37 -88h-183zM627 297q111 0 184.5 95.5t73.5 211.5q0 93 -53 149t-140 56q-74 0 -135 -47.5
t-92 -116.5t-31 -141q0 -96 53 -151.5t140 -55.5zM604 -27q-248 0 -395.5 145.5t-147.5 370.5q0 167 84.5 314.5t236 238.5t331.5 91q125 0 228 -40t172 -109.5t106.5 -163.5t37.5 -202q0 -125 -50.5 -242.5t-136.5 -206t-208 -142.5t-258 -54z" />
    <glyph glyph-name="uni1ED0" unicode="&#x1ed0;" 
d="M1382 1788l318 379l354 -117l-371 -262h-301zM606 1530l352 338h316l172 -338h-232l-139 125l-207 -125h-262zM825 330q91 0 170.5 41t131.5 107t82 147t30 161q0 141 -82.5 229.5t-230.5 88.5q-90 0 -169.5 -41.5t-132 -107.5t-82.5 -147t-30 -161q0 -141 82.5 -229
t230.5 -88zM791 -27q-151 0 -279.5 49t-217 134.5t-138.5 204.5t-50 255q0 130 40.5 255t117.5 230.5t180.5 186.5t237 126.5t279.5 45.5q151 0 279.5 -49t217 -134.5t138 -204.5t49.5 -255q0 -108 -29 -214t-81.5 -199t-130 -172.5t-170.5 -136.5t-207 -89.5t-236 -32.5z
" />
    <glyph glyph-name="uni1ED1" unicode="&#x1ed1;" horiz-adv-x="1318" 
d="M1128 1460l318 379l354 -117l-370 -262h-302zM352 1202l353 338h315l172 -338h-231l-140 125l-207 -125h-262zM627 297q111 0 184.5 95.5t73.5 211.5q0 93 -53 149t-140 56q-74 0 -135 -47.5t-92 -116.5t-31 -141q0 -96 53 -151.5t140 -55.5zM604 -27
q-248 0 -395.5 145.5t-147.5 370.5q0 167 84.5 314.5t236 238.5t331.5 91q125 0 228 -40t172 -109.5t106.5 -163.5t37.5 -202q0 -125 -50.5 -242.5t-136.5 -206t-208 -142.5t-258 -54z" />
    <glyph glyph-name="uni1ED2" unicode="&#x1ed2;" 
d="M1450 1788l-227 262l366 117l113 -379h-252zM606 1530l352 338h316l172 -338h-232l-139 125l-207 -125h-262zM825 330q91 0 170.5 41t131.5 107t82 147t30 161q0 141 -82.5 229.5t-230.5 88.5q-90 0 -169.5 -41.5t-132 -107.5t-82.5 -147t-30 -161q0 -141 82.5 -229
t230.5 -88zM791 -27q-151 0 -279.5 49t-217 134.5t-138.5 204.5t-50 255q0 130 40.5 255t117.5 230.5t180.5 186.5t237 126.5t279.5 45.5q151 0 279.5 -49t217 -134.5t138 -204.5t49.5 -255q0 -108 -29 -214t-81.5 -199t-130 -172.5t-170.5 -136.5t-207 -89.5t-236 -32.5z
" />
    <glyph glyph-name="uni1ED3" unicode="&#x1ed3;" horiz-adv-x="1318" 
d="M1196 1460l-227 262l366 117l113 -379h-252zM352 1202l353 338h315l172 -338h-231l-140 125l-207 -125h-262zM627 297q111 0 184.5 95.5t73.5 211.5q0 93 -53 149t-140 56q-74 0 -135 -47.5t-92 -116.5t-31 -141q0 -96 53 -151.5t140 -55.5zM604 -27q-248 0 -395.5 145.5
t-147.5 370.5q0 167 84.5 314.5t236 238.5t331.5 91q125 0 228 -40t172 -109.5t106.5 -163.5t37.5 -202q0 -125 -50.5 -242.5t-136.5 -206t-208 -142.5t-258 -54z" />
    <glyph glyph-name="uni1ED4" unicode="&#x1ed4;" 
d="M1393 1790l49 197q131 9 166 86q-3 41 -39 41q-22 7 -54.5 -9t-68.5 -57l-125 92q47 48 88.5 78.5t82 44.5t70 19t76.5 8q103 0 154.5 -62.5t19.5 -152.5q-29 -81 -84 -126t-133 -79q-8 -16 -20.5 -46.5t-13.5 -33.5h-168zM606 1530l352 338h316l172 -338h-232l-139 125
l-207 -125h-262zM825 330q91 0 170.5 41t131.5 107t82 147t30 161q0 141 -82.5 229.5t-230.5 88.5q-90 0 -169.5 -41.5t-132 -107.5t-82.5 -147t-30 -161q0 -141 82.5 -229t230.5 -88zM791 -27q-151 0 -279.5 49t-217 134.5t-138.5 204.5t-50 255q0 130 40.5 255
t117.5 230.5t180.5 186.5t237 126.5t279.5 45.5q151 0 279.5 -49t217 -134.5t138 -204.5t49.5 -255q0 -108 -29 -214t-81.5 -199t-130 -172.5t-170.5 -136.5t-207 -89.5t-236 -32.5z" />
    <glyph glyph-name="uni1ED5" unicode="&#x1ed5;" horiz-adv-x="1318" 
d="M1139 1462l49 197q131 9 166 86q-3 41 -39 41q-22 7 -54.5 -9t-68.5 -57l-125 92q47 48 88.5 78.5t82 44.5t70 19t76.5 8q104 0 155.5 -62.5t19.5 -152.5q-15 -43 -39.5 -77t-57 -58.5t-58.5 -39t-63 -30.5q-8 -16 -20.5 -46.5t-13.5 -33.5h-168zM352 1202l353 338h315
l172 -338h-231l-140 125l-207 -125h-262zM627 297q111 0 184.5 95.5t73.5 211.5q0 93 -53 149t-140 56q-74 0 -135 -47.5t-92 -116.5t-31 -141q0 -96 53 -151.5t140 -55.5zM604 -27q-248 0 -395.5 145.5t-147.5 370.5q0 167 84.5 314.5t236 238.5t331.5 91q125 0 228 -40
t172 -109.5t106.5 -163.5t37.5 -202q0 -125 -50.5 -242.5t-136.5 -206t-208 -142.5t-258 -54z" />
    <glyph glyph-name="uni1ED6" unicode="&#x1ed6;" 
d="M895 1937l-162 74q53 128 128.5 194t164.5 66q72 0 152 -53q62 -45 94 -45q66 0 119 102l161 -71q-50 -127 -126.5 -194.5t-165.5 -67.5q-72 0 -152 53q-62 47 -94 47q-64 0 -119 -105zM606 1530l352 338h316l172 -338h-232l-139 125l-207 -125h-262zM825 330
q91 0 170.5 41t131.5 107t82 147t30 161q0 141 -82.5 229.5t-230.5 88.5q-90 0 -169.5 -41.5t-132 -107.5t-82.5 -147t-30 -161q0 -141 82.5 -229t230.5 -88zM791 -27q-151 0 -279.5 49t-217 134.5t-138.5 204.5t-50 255q0 130 40.5 255t117.5 230.5t180.5 186.5t237 126.5
t279.5 45.5q151 0 279.5 -49t217 -134.5t138 -204.5t49.5 -255q0 -108 -29 -214t-81.5 -199t-130 -172.5t-170.5 -136.5t-207 -89.5t-236 -32.5z" />
    <glyph glyph-name="uni1ED7" unicode="&#x1ed7;" horiz-adv-x="1318" 
d="M639 1612l-162 74q53 128 128.5 194t164.5 66q70 0 152 -54q62 -45 94 -45q65 0 119 103l161 -72q-50 -127 -126.5 -194.5t-165.5 -67.5q-72 0 -152 53q-62 47 -94 47q-65 0 -119 -104zM352 1202l353 338h315l172 -338h-231l-140 125l-207 -125h-262zM627 297
q111 0 184.5 95.5t73.5 211.5q0 93 -53 149t-140 56q-74 0 -135 -47.5t-92 -116.5t-31 -141q0 -96 53 -151.5t140 -55.5zM604 -27q-248 0 -395.5 145.5t-147.5 370.5q0 167 84.5 314.5t236 238.5t331.5 91q125 0 228 -40t172 -109.5t106.5 -163.5t37.5 -202
q0 -125 -50.5 -242.5t-136.5 -206t-208 -142.5t-258 -54z" />
    <glyph glyph-name="uni1ED8" unicode="&#x1ed8;" 
d="M506 -412l80 289h293l-80 -289h-293zM606 1530l352 338h316l172 -338h-232l-139 125l-207 -125h-262zM825 330q91 0 170.5 41t131.5 107t82 147t30 161q0 141 -82.5 229.5t-230.5 88.5q-90 0 -169.5 -41.5t-132 -107.5t-82.5 -147t-30 -161q0 -141 82.5 -229t230.5 -88z
M791 -27q-151 0 -279.5 49t-217 134.5t-138.5 204.5t-50 255q0 130 40.5 255t117.5 230.5t180.5 186.5t237 126.5t279.5 45.5q151 0 279.5 -49t217 -134.5t138 -204.5t49.5 -255q0 -108 -29 -214t-81.5 -199t-130 -172.5t-170.5 -136.5t-207 -89.5t-236 -32.5z" />
    <glyph glyph-name="uni1ED9" unicode="&#x1ed9;" horiz-adv-x="1318" 
d="M328 -412l80 289h292l-79 -289h-293zM352 1202l353 338h315l172 -338h-231l-140 125l-207 -125h-262zM627 297q111 0 184.5 95.5t73.5 211.5q0 93 -53 149t-140 56q-74 0 -135 -47.5t-92 -116.5t-31 -141q0 -96 53 -151.5t140 -55.5zM604 -27q-248 0 -395.5 145.5
t-147.5 370.5q0 167 84.5 314.5t236 238.5t331.5 91q125 0 228 -40t172 -109.5t106.5 -163.5t37.5 -202q0 -125 -50.5 -242.5t-136.5 -206t-208 -142.5t-258 -54z" />
    <glyph glyph-name="uni1EDA" unicode="&#x1eda;" 
d="M807 1530l317 379l355 -117l-371 -262h-301zM791 -27q-151 0 -279.5 49t-217 134.5t-138.5 204.5t-50 255q0 130 40.5 255t117.5 230.5t180.5 186.5t237 126.5t279.5 45.5q153 0 278 -49q15 -6 39.5 -17t30.5 -14q72 3 114 21q32 14 43 39q38 79 -2 229h316
q18 -189 -39 -309q-50 -130 -178 -191q-6 -3 -15 -6q25 -41 47 -92q50 -118 50 -254q0 -108 -29 -214t-81.5 -199t-130 -172.5t-170.5 -136.5t-207 -89.5t-236 -32.5zM825 330q91 0 170.5 41t131.5 107t82 147t30 161q0 141 -82.5 229.5t-230.5 88.5q-90 0 -169.5 -41.5
t-132 -107.5t-82.5 -147t-30 -161q0 -141 82.5 -229t230.5 -88z" />
    <glyph glyph-name="uni1EDB" unicode="&#x1edb;" horiz-adv-x="1343" 
d="M575 1202l318 379l354 -117l-370 -262h-302zM604 -27q-248 0 -395.5 145.5t-147.5 370.5q0 167 84.5 314.5t236 238.5t331.5 91q124 0 227 -41q35 -13 78 -37q76 6 104 20q32 14 43 39q38 79 -2 229h316q18 -189 -39 -309q-49 -129 -178 -190l-43 -19q0 -2 2 -4
q36 -91 36 -203q0 -125 -50.5 -242.5t-136.5 -206t-208 -142.5t-258 -54zM627 297q111 0 184.5 95.5t73.5 211.5q0 93 -53 149t-140 56q-74 0 -135 -47.5t-92 -116.5t-31 -141q0 -96 53 -151.5t140 -55.5z" />
    <glyph glyph-name="uni1EDC" unicode="&#x1edc;" 
d="M932 1530l-227 262l366 117l113 -379h-252zM791 -27q-151 0 -279.5 49t-217 134.5t-138.5 204.5t-50 255q0 130 40.5 255t117.5 230.5t180.5 186.5t237 126.5t279.5 45.5q153 0 278 -49q15 -6 39.5 -17t30.5 -14q72 3 114 21q32 14 43 39q38 79 -2 229h316
q18 -189 -39 -309q-50 -130 -178 -191q-6 -3 -15 -6q25 -41 47 -92q50 -118 50 -254q0 -108 -29 -214t-81.5 -199t-130 -172.5t-170.5 -136.5t-207 -89.5t-236 -32.5zM825 330q91 0 170.5 41t131.5 107t82 147t30 161q0 141 -82.5 229.5t-230.5 88.5q-90 0 -169.5 -41.5
t-132 -107.5t-82.5 -147t-30 -161q0 -141 82.5 -229t230.5 -88z" />
    <glyph glyph-name="uni1EDD" unicode="&#x1edd;" horiz-adv-x="1343" 
d="M694 1202l-227 262l367 117l112 -379h-252zM604 -27q-248 0 -395.5 145.5t-147.5 370.5q0 167 84.5 314.5t236 238.5t331.5 91q124 0 227 -41q35 -13 78 -37q76 6 104 20q32 14 43 39q38 79 -2 229h316q18 -189 -39 -309q-49 -129 -178 -190l-43 -19q0 -2 2 -4
q36 -91 36 -203q0 -125 -50.5 -242.5t-136.5 -206t-208 -142.5t-258 -54zM627 297q111 0 184.5 95.5t73.5 211.5q0 93 -53 149t-140 56q-74 0 -135 -47.5t-92 -116.5t-31 -141q0 -96 53 -151.5t140 -55.5z" />
    <glyph glyph-name="uni1EDE" unicode="&#x1ede;" 
d="M938 1552l53 215q140 9 180 93q-2 24 -11 34.5t-32 10.5q-58 15 -133 -72l-135 100q86 93 182 133q74 31 162 31q113 0 169 -68t20 -165q-49 -151 -236 -224q-16 -35 -37 -88h-182zM791 -27q-151 0 -279.5 49t-217 134.5t-138.5 204.5t-50 255q0 130 40.5 255
t117.5 230.5t180.5 186.5t237 126.5t279.5 45.5q153 0 278 -49q15 -6 39.5 -17t30.5 -14q72 3 114 21q32 14 43 39q38 79 -2 229h316q18 -189 -39 -309q-50 -130 -178 -191q-6 -3 -15 -6q25 -41 47 -92q50 -118 50 -254q0 -108 -29 -214t-81.5 -199t-130 -172.5
t-170.5 -136.5t-207 -89.5t-236 -32.5zM825 330q91 0 170.5 41t131.5 107t82 147t30 161q0 141 -82.5 229.5t-230.5 88.5q-90 0 -169.5 -41.5t-132 -107.5t-82.5 -147t-30 -161q0 -141 82.5 -229t230.5 -88z" />
    <glyph glyph-name="uni1EDF" unicode="&#x1edf;" horiz-adv-x="1343" 
d="M700 1202l54 215q141 9 180 92q-2 24 -11 34.5t-32 10.5q-59 15 -133 -71l-135 100q86 93 182 133q74 31 162 31q113 0 169 -68t19 -166q-49 -150 -235 -223q-16 -35 -37 -88h-183zM604 -27q-248 0 -395.5 145.5t-147.5 370.5q0 167 84.5 314.5t236 238.5t331.5 91
q124 0 227 -41q35 -13 78 -37q76 6 104 20q32 14 43 39q38 79 -2 229h316q18 -189 -39 -309q-49 -129 -178 -190l-43 -19q0 -2 2 -4q36 -91 36 -203q0 -125 -50.5 -242.5t-136.5 -206t-208 -142.5t-258 -54zM627 297q111 0 184.5 95.5t73.5 211.5q0 93 -53 149t-140 56
q-74 0 -135 -47.5t-92 -116.5t-31 -141q0 -96 53 -151.5t140 -55.5z" />
    <glyph glyph-name="uni1EE0" unicode="&#x1ee0;" 
d="M831 1530l-161 74q53 128 128.5 194t164.5 66q69 0 151 -54q62 -45 94 -45q65 0 119 103l162 -72q-50 -127 -127 -194.5t-166 -67.5q-72 0 -152 53q-62 47 -94 47q-65 0 -119 -104zM791 -27q-151 0 -279.5 49t-217 134.5t-138.5 204.5t-50 255q0 130 40.5 255
t117.5 230.5t180.5 186.5t237 126.5t279.5 45.5q153 0 278 -49q15 -6 39.5 -17t30.5 -14q72 3 114 21q32 14 43 39q38 79 -2 229h316q18 -189 -39 -309q-50 -130 -178 -191q-6 -3 -15 -6q25 -41 47 -92q50 -118 50 -254q0 -108 -29 -214t-81.5 -199t-130 -172.5
t-170.5 -136.5t-207 -89.5t-236 -32.5zM825 330q91 0 170.5 41t131.5 107t82 147t30 161q0 141 -82.5 229.5t-230.5 88.5q-90 0 -169.5 -41.5t-132 -107.5t-82.5 -147t-30 -161q0 -141 82.5 -229t230.5 -88z" />
    <glyph glyph-name="uni1EE1" unicode="&#x1ee1;" horiz-adv-x="1343" 
d="M565 1212l-151 74q49 128 119 194t153 66q64 0 141 -53q60 -45 88 -45q61 0 111 102l152 -71q-47 -127 -118.5 -194.5t-154.5 -67.5q-64 0 -141 53q-59 47 -88 47q-33 0 -59.5 -27t-51.5 -78zM604 -27q-248 0 -395.5 145.5t-147.5 370.5q0 167 84.5 314.5t236 238.5
t331.5 91q124 0 227 -41q35 -13 78 -37q76 6 104 20q32 14 43 39q38 79 -2 229h316q18 -189 -39 -309q-49 -129 -178 -190l-43 -19q0 -2 2 -4q36 -91 36 -203q0 -125 -50.5 -242.5t-136.5 -206t-208 -142.5t-258 -54zM627 297q111 0 184.5 95.5t73.5 211.5q0 93 -53 149
t-140 56q-74 0 -135 -47.5t-92 -116.5t-31 -141q0 -96 53 -151.5t140 -55.5z" />
    <glyph glyph-name="uni1EE2" unicode="&#x1ee2;" 
d="M506 -412l80 289h293l-80 -289h-293zM791 -27q-151 0 -279.5 49t-217 134.5t-138.5 204.5t-50 255q0 130 40.5 255t117.5 230.5t180.5 186.5t237 126.5t279.5 45.5q153 0 278 -49q15 -6 39.5 -17t30.5 -14q72 3 114 21q32 14 43 39q38 79 -2 229h316q18 -189 -39 -309
q-50 -130 -178 -191q-6 -3 -15 -6q25 -41 47 -92q50 -118 50 -254q0 -108 -29 -214t-81.5 -199t-130 -172.5t-170.5 -136.5t-207 -89.5t-236 -32.5zM825 330q91 0 170.5 41t131.5 107t82 147t30 161q0 141 -82.5 229.5t-230.5 88.5q-90 0 -169.5 -41.5t-132 -107.5
t-82.5 -147t-30 -161q0 -141 82.5 -229t230.5 -88z" />
    <glyph glyph-name="uni1EE3" unicode="&#x1ee3;" horiz-adv-x="1343" 
d="M328 -412l80 289h292l-79 -289h-293zM604 -27q-248 0 -395.5 145.5t-147.5 370.5q0 167 84.5 314.5t236 238.5t331.5 91q124 0 227 -41q35 -13 78 -37q76 6 104 20q32 14 43 39q38 79 -2 229h316q18 -189 -39 -309q-49 -129 -178 -190l-43 -19q0 -2 2 -4q36 -91 36 -203
q0 -125 -50.5 -242.5t-136.5 -206t-208 -142.5t-258 -54zM627 297q111 0 184.5 95.5t73.5 211.5q0 93 -53 149t-140 56q-74 0 -135 -47.5t-92 -116.5t-31 -141q0 -96 53 -151.5t140 -55.5z" />
    <glyph glyph-name="uni1EE4" unicode="&#x1ee4;" horiz-adv-x="1556" 
d="M393 -412l80 289h293l-80 -289h-293zM700 -27q-277 0 -428 131.5t-151 370.5q0 115 33 230l196 729h402l-203 -758q-21 -70 -21 -135q0 -99 58 -154t166 -55q116 0 192 76q76 71 121 237l213 789h401l-227 -848q-77 -282 -223 -428q-185 -185 -529 -185z" />
    <glyph glyph-name="uni1EE5" unicode="&#x1ee5;" horiz-adv-x="1294" 
d="M266 -412l80 289h293l-80 -289h-293zM375 -25q-151 0 -236.5 88.5t-85.5 243.5q0 75 31 199l162 602h389l-156 -580q-14 -54 -14 -90q0 -56 32 -86t93 -30q154 0 205 200l157 586h389l-294 -1108h-390l33 127q-144 -152 -315 -152z" />
    <glyph glyph-name="uni1EE6" unicode="&#x1ee6;" horiz-adv-x="1556" 
d="M934 1552l53 215q140 9 180 93q-2 24 -11 34.5t-32 10.5q-58 15 -133 -72l-135 100q86 93 182 133q74 31 162 31q113 0 169 -68t20 -165q-49 -151 -236 -224q-16 -35 -37 -88h-182zM700 -27q-277 0 -428 131.5t-151 370.5q0 115 33 230l196 729h402l-203 -758
q-21 -70 -21 -135q0 -99 58 -154t166 -55q116 0 192 76q76 71 121 237l213 789h401l-227 -848q-77 -282 -223 -428q-185 -185 -529 -185z" />
    <glyph glyph-name="uni1EE7" unicode="&#x1ee7;" horiz-adv-x="1294" 
d="M717 1202l53 215q141 9 180 92q-2 24 -11 34.5t-32 10.5q-59 15 -133 -71l-135 100q86 93 182 133q74 31 162 31q113 0 169 -68t19 -166q-49 -150 -235 -223q-16 -35 -37 -88h-182zM375 -25q-151 0 -236.5 88.5t-85.5 243.5q0 75 31 199l162 602h389l-156 -580
q-14 -54 -14 -90q0 -56 32 -86t93 -30q154 0 205 200l157 586h389l-294 -1108h-390l33 127q-144 -152 -315 -152z" />
    <glyph glyph-name="uni1EE8" unicode="&#x1ee8;" horiz-adv-x="1681" 
d="M831 1526l318 379l354 -117l-370 -262h-302zM700 -27q-277 0 -428 131.5t-151 370.5q0 115 33 230l196 729h402l-203 -758q-21 -70 -21 -135q0 -99 58 -154t166 -55q116 0 192 76q76 71 121 237l213 789h242q26 3 41 12q32 14 43 39q38 79 -2 229h315q18 -189 -39 -309
q-50 -130 -178 -191q-30 -13 -88 -32l-160 -596q-77 -282 -223 -428q-185 -185 -529 -185z" />
    <glyph glyph-name="uni1EE9" unicode="&#x1ee9;" horiz-adv-x="1445" 
d="M608 1202l318 379l354 -117l-371 -262h-301zM375 -25q-151 0 -236.5 88.5t-85.5 243.5q0 75 31 199l162 602h389l-156 -580q-14 -54 -14 -90q0 -56 32 -86t93 -30q154 0 205 200l157 586h242q42 6 66 16q32 14 43 39q38 78 -3 230h316q18 -190 -39 -310
q-49 -129 -178 -190q-58 -28 -127 -43l-225 -850h-390l33 127q-144 -152 -315 -152z" />
    <glyph glyph-name="uni1EEA" unicode="&#x1eea;" horiz-adv-x="1681" 
d="M928 1526l-228 262l367 117l113 -379h-252zM700 -27q-277 0 -428 131.5t-151 370.5q0 115 33 230l196 729h402l-203 -758q-21 -70 -21 -135q0 -99 58 -154t166 -55q116 0 192 76q76 71 121 237l213 789h242q26 3 41 12q32 14 43 39q38 79 -2 229h315q18 -189 -39 -309
q-50 -130 -178 -191q-30 -13 -88 -32l-160 -596q-77 -282 -223 -428q-185 -185 -529 -185z" />
    <glyph glyph-name="uni1EEB" unicode="&#x1eeb;" horiz-adv-x="1445" 
d="M750 1202l-228 262l367 117l112 -379h-251zM375 -25q-151 0 -236.5 88.5t-85.5 243.5q0 75 31 199l162 602h389l-156 -580q-14 -54 -14 -90q0 -56 32 -86t93 -30q154 0 205 200l157 586h242q42 6 66 16q32 14 43 39q38 78 -3 230h316q18 -190 -39 -310
q-49 -129 -178 -190q-58 -28 -127 -43l-225 -850h-390l33 127q-144 -152 -315 -152z" />
    <glyph glyph-name="uni1EEC" unicode="&#x1eec;" horiz-adv-x="1681" 
d="M934 1552l53 215q140 9 180 93q-2 24 -11 34.5t-32 10.5q-58 15 -133 -72l-135 100q86 93 182 133q74 31 162 31q113 0 169 -68t20 -165q-49 -151 -236 -224q-16 -35 -37 -88h-182zM700 -27q-277 0 -428 131.5t-151 370.5q0 115 33 230l196 729h402l-203 -758
q-21 -70 -21 -135q0 -99 58 -154t166 -55q116 0 192 76q76 71 121 237l213 789h242q26 3 41 12q32 14 43 39q38 79 -2 229h315q18 -189 -39 -309q-50 -130 -178 -191q-30 -13 -88 -32l-160 -596q-77 -282 -223 -428q-185 -185 -529 -185z" />
    <glyph glyph-name="uni1EED" unicode="&#x1eed;" horiz-adv-x="1445" 
d="M717 1202l53 215q141 9 180 92q-2 24 -11 34.5t-32 10.5q-59 15 -133 -71l-135 100q86 93 182 133q74 31 162 31q113 0 169 -68t19 -166q-49 -150 -235 -223q-16 -35 -37 -88h-182zM375 -25q-151 0 -236.5 88.5t-85.5 243.5q0 75 31 199l162 602h389l-156 -580
q-14 -54 -14 -90q0 -56 32 -86t93 -30q154 0 205 200l157 586h242q42 6 66 16q32 14 43 39q38 78 -3 230h316q18 -190 -39 -310q-49 -129 -178 -190q-58 -28 -127 -43l-225 -850h-390l33 127q-144 -152 -315 -152z" />
    <glyph glyph-name="uni1EEE" unicode="&#x1eee;" horiz-adv-x="1681" 
d="M819 1530l-162 74q53 128 128.5 194t164.5 66q70 0 152 -54q62 -45 94 -45q65 0 119 103l162 -72q-50 -127 -127 -194.5t-166 -67.5q-72 0 -152 53q-62 47 -94 47q-65 0 -119 -104zM700 -27q-277 0 -428 131.5t-151 370.5q0 115 33 230l196 729h402l-203 -758
q-21 -70 -21 -135q0 -99 58 -154t166 -55q116 0 192 76q76 71 121 237l213 789h242q26 3 41 12q32 14 43 39q38 79 -2 229h315q18 -189 -39 -309q-50 -130 -178 -191q-30 -13 -88 -32l-160 -596q-77 -282 -223 -428q-185 -185 -529 -185z" />
    <glyph glyph-name="uni1EEF" unicode="&#x1eef;" horiz-adv-x="1445" 
d="M594 1212l-162 74q53 128 128.5 194t164.5 66q72 0 152 -53q62 -45 94 -45q66 0 119 102l161 -71q-50 -127 -127 -194.5t-166 -67.5q-71 0 -151 53q-62 47 -94 47q-64 0 -119 -105zM375 -25q-151 0 -236.5 88.5t-85.5 243.5q0 75 31 199l162 602h389l-156 -580
q-14 -54 -14 -90q0 -56 32 -86t93 -30q154 0 205 200l157 586h242q42 6 66 16q32 14 43 39q38 78 -3 230h316q18 -190 -39 -310q-49 -129 -178 -190q-58 -28 -127 -43l-225 -850h-390l33 127q-144 -152 -315 -152z" />
    <glyph glyph-name="uni1EF0" unicode="&#x1ef0;" horiz-adv-x="1681" 
d="M393 -412l80 289h293l-80 -289h-293zM700 -27q-277 0 -428 131.5t-151 370.5q0 115 33 230l196 729h402l-203 -758q-21 -70 -21 -135q0 -99 58 -154t166 -55q116 0 192 76q76 71 121 237l213 789h242q26 3 41 12q32 14 43 39q38 79 -2 229h315q18 -189 -39 -309
q-50 -130 -178 -191q-30 -13 -88 -32l-160 -596q-77 -282 -223 -428q-185 -185 -529 -185z" />
    <glyph glyph-name="uni1EF1" unicode="&#x1ef1;" horiz-adv-x="1445" 
d="M266 -412l80 289h293l-80 -289h-293zM375 -25q-151 0 -236.5 88.5t-85.5 243.5q0 75 31 199l162 602h389l-156 -580q-14 -54 -14 -90q0 -56 32 -86t93 -30q154 0 205 200l157 586h242q42 6 66 16q32 14 43 39q38 78 -3 230h316q18 -190 -39 -310q-49 -129 -178 -190
q-58 -28 -127 -43l-225 -850h-390l33 127q-144 -152 -315 -152z" />
    <glyph glyph-name="Ygrave" unicode="&#x1ef2;" horiz-adv-x="1386" 
d="M805 1526l-227 262l366 117l113 -379h-252zM326 0l149 555l-289 879h428l142 -537l432 537h475l-801 -922l-137 -512h-399z" />
    <glyph glyph-name="ygrave" unicode="&#x1ef3;" horiz-adv-x="1273" 
d="M692 1202l-227 262l366 117l113 -379h-252zM193 -334q-171 0 -295 80l174 285q77 -56 153 -56q31 0 52 8.5t45 32.5l-144 1092h395l45 -666l373 666h410l-686 -1102q-117 -185 -238 -262.5t-284 -77.5z" />
    <glyph glyph-name="uni1EF4" unicode="&#x1ef4;" horiz-adv-x="1386" 
d="M268 -412l80 289h293l-80 -289h-293zM326 0l149 555l-289 879h428l142 -537l432 537h475l-801 -922l-137 -512h-399z" />
    <glyph glyph-name="uni1EF5" unicode="&#x1ef5;" horiz-adv-x="1273" 
d="M692 -412l80 289h293l-80 -289h-293zM193 -334q-171 0 -295 80l174 285q77 -56 153 -56q31 0 52 8.5t45 32.5l-144 1092h395l45 -666l373 666h410l-686 -1102q-117 -185 -238 -262.5t-284 -77.5z" />
    <glyph glyph-name="uni1EF6" unicode="&#x1ef6;" horiz-adv-x="1386" 
d="M807 1552l53 215q140 9 180 93q-2 24 -11 34.5t-32 10.5q-58 15 -133 -72l-135 100q86 93 182 133q74 31 162 31q113 0 169 -68t20 -165q-49 -151 -236 -224q-16 -35 -37 -88h-182zM326 0l149 555l-289 879h428l142 -537l432 537h475l-801 -922l-137 -512h-399z" />
    <glyph glyph-name="uni1EF7" unicode="&#x1ef7;" horiz-adv-x="1273" 
d="M694 1202l54 215q141 9 180 92q-2 24 -11 34.5t-32 10.5q-59 15 -133 -71l-136 100q85 92 183 133q74 31 162 31q113 0 169 -68t19 -166q-49 -150 -236 -223q-7 -15 -36 -88h-183zM193 -334q-171 0 -295 80l174 285q77 -56 153 -56q31 0 52 8.5t45 32.5l-144 1092h395
l45 -666l373 666h410l-686 -1102q-117 -185 -238 -262.5t-284 -77.5z" />
    <glyph glyph-name="uni1EF8" unicode="&#x1ef8;" horiz-adv-x="1386" 
d="M705 1530l-162 74q53 128 128.5 194t164.5 66q69 0 151 -54q62 -45 94 -45q65 0 119 103l162 -72q-50 -127 -127 -194.5t-166 -67.5q-71 0 -151 53q-62 47 -95 47q-64 0 -118 -104zM326 0l149 555l-289 879h428l142 -537l432 537h475l-801 -922l-137 -512h-399z" />
    <glyph glyph-name="uni1EF9" unicode="&#x1ef9;" horiz-adv-x="1273" 
d="M569 1212l-161 74q54 128 128.5 194t163.5 66q72 0 152 -53q62 -45 94 -45q66 0 119 102l162 -71q-50 -127 -127 -194.5t-166 -67.5q-72 0 -152 53q-62 47 -94 47q-64 0 -119 -105zM193 -334q-171 0 -295 80l174 285q77 -56 153 -56q31 0 52 8.5t45 32.5l-144 1092h395
l45 -666l373 666h410l-686 -1102q-117 -185 -238 -262.5t-284 -77.5z" />
    <glyph glyph-name="endash" unicode="&#x2013;" horiz-adv-x="1077" 
d="M68 473l90 334h897l-90 -334h-897z" />
    <glyph glyph-name="emdash" unicode="&#x2014;" horiz-adv-x="1835" 
d="M68 473l90 334h1654l-90 -334h-1654z" />
    <glyph glyph-name="quoteleft" unicode="&#x2018;" horiz-adv-x="618" 
d="M129 705l92 346q55 201 171 293t343 104l17 -152q-121 -12 -185.5 -59t-83.5 -133h158l-109 -399h-403z" />
    <glyph glyph-name="quoteright" unicode="&#x2019;" horiz-adv-x="618" 
d="M135 692l-16 150q121 12 185 59t83 133h-158l109 400h403l-92 -347q-54 -200 -171.5 -294t-342.5 -101z" />
    <glyph glyph-name="quotesinglbase" unicode="&#x201a;" horiz-adv-x="618" 
d="M-135 -342l-17 149q120 12 184 59.5t83 133.5h-156l107 399h405l-92 -344q-55 -201 -173 -295.5t-341 -101.5z" />
    <glyph glyph-name="quotedblleft" unicode="&#x201c;" horiz-adv-x="1157" 
d="M131 702l92 347q55 202 168.5 293.5t339.5 103.5l17 -152q-119 -12 -181.5 -59t-81.5 -133h152l-107 -400h-399zM676 702l92 347q55 202 168.5 293.5t339.5 103.5l16 -152q-119 -12 -181 -58.5t-81 -133.5h152l-107 -400h-399z" />
    <glyph glyph-name="quotedblright" unicode="&#x201d;" horiz-adv-x="1157" 
d="M137 692l-16 150q119 12 181 58.5t81 133.5h-152l107 400h399l-92 -347q-36 -134 -95.5 -217t-160.5 -128t-252 -50zM682 692l-16 150q119 12 181 58.5t81 133.5h-152l107 400h399l-92 -347q-36 -134 -95.5 -217t-160.5 -128t-252 -50z" />
    <glyph glyph-name="quotedblbase" unicode="&#x201e;" horiz-adv-x="1157" 
d="M-135 -342l-17 149q119 12 181.5 59t81.5 134h-152l107 399h399l-92 -344q-37 -135 -96.5 -218t-160 -128.5t-251.5 -50.5zM410 -342l-17 149q119 12 181 59t81 134h-151l106 399h400l-92 -344q-37 -135 -96.5 -218t-160 -128.5t-251.5 -50.5z" />
    <glyph glyph-name="dagger" unicode="&#x2020;" horiz-adv-x="843" 
d="M293 457l170 553l-264 -27l57 213l248 -27l39 265h229l-102 -265l262 27l-58 -213l-249 27l-127 -553h-205z" />
    <glyph glyph-name="daggerdbl" unicode="&#x2021;" horiz-adv-x="864" 
d="M168 0l102 264l-260 -26l56 213l249 -27l54 293l104 293l-264 -27l57 213l248 -27l39 265h229l-102 -265l260 27l-57 -213l-248 27l-53 -293l-107 -293l266 27l-57 -213l-248 26l-39 -264h-229z" />
    <glyph glyph-name="bullet" unicode="&#x2022;" horiz-adv-x="1026" 
d="M504 369q-129 0 -202 74.5t-73 199.5q0 106 47 204t136.5 163t199.5 65q128 0 201.5 -75t73.5 -199q0 -106 -47 -204t-136.5 -163t-199.5 -65z" />
    <glyph glyph-name="ellipsis" unicode="&#x2026;" horiz-adv-x="1757" 
d="M-41 0l104 393h400l-107 -393h-397zM532 0l105 393h399l-106 -393h-398zM1106 0l104 393h400l-107 -393h-397z" />
    <glyph glyph-name="perthousand" unicode="&#x2030;" horiz-adv-x="2762" 
d="M1409 195q73 0 120.5 68t47.5 151q0 58 -31 93.5t-84 35.5q-73 0 -120.5 -67.5t-47.5 -151.5q0 -58 31 -93.5t84 -35.5zM2281 195q70 0 118 68.5t48 150.5q0 58 -30.5 93.5t-83.5 35.5q-71 0 -118.5 -67.5t-47.5 -151.5q0 -58 30.5 -93.5t83.5 -35.5zM516 891
q71 0 118.5 67.5t47.5 151.5q0 58 -31 93.5t-84 35.5q-70 0 -118 -68.5t-48 -150.5q0 -58 31 -93.5t84 -35.5zM1399 -20q-160 0 -251 93t-91 240q0 112 50.5 213t147.5 166.5t218 65.5q160 0 251 -93.5t91 -240.5q0 -112 -50.5 -212.5t-147.5 -166t-218 -65.5zM2271 -20
q-160 0 -251 93t-91 240q0 83 30.5 163t83 142.5t131.5 101t169 38.5q160 0 251 -93.5t91 -240.5q0 -83 -30.5 -162.5t-83 -142t-131.5 -101t-169 -38.5zM139 0l1411 1434h289l-1413 -1434h-287zM506 676q-162 0 -253 92.5t-91 241.5q0 112 50.5 212.5t147.5 166t218 65.5
q160 0 251 -93.5t91 -240.5q0 -83 -30.5 -162.5t-83 -142t-131.5 -101t-169 -38.5z" />
    <glyph glyph-name="guilsinglleft" unicode="&#x2039;" horiz-adv-x="731" 
d="M272 51l-215 449l27 100l446 438l213 -196l-344 -334l162 -328z" />
    <glyph glyph-name="guilsinglright" unicode="&#x203a;" horiz-adv-x="731" 
d="M197 51l-215 197l344 336l-162 327l289 127l217 -448l-29 -98z" />
    <glyph glyph-name="fraction" unicode="&#x2044;" horiz-adv-x="1118" 
d="M-287 -201l1422 1753h325l-1423 -1753h-324z" />
    <glyph glyph-name="fraction" unicode="&#x2215;" horiz-adv-x="1118" 
d="M-287 -201l1422 1753h325l-1423 -1753h-324z" />
    <glyph glyph-name="trademark" unicode="&#x2122;" horiz-adv-x="1423" 
d="M266 803l129 477h-188l41 154h553l-41 -154h-189l-127 -477h-178zM731 803l168 631h178l84 -244l215 244h195l-168 -631h-174l98 368l-227 -249h-6l-93 249l-98 -368h-172z" />
    <glyph glyph-name="radical" unicode="&#x221a;" horiz-adv-x="2328" 
d="M1677 0l402 1495h389l-402 -1495h-389zM883 0l215 795h-131l84 313h129l6 22q50 199 165.5 289t309.5 90q141 0 248 -36l-72 -273q-73 25 -131 25q-59 0 -92 -25.5t-47 -79.5l-6 -18h249l-81 -307h-242l-215 -795h-389zM27 0l215 795h-131l84 313h129l6 22
q50 199 165.5 289t309.5 90q141 0 248 -36l-72 -273q-73 25 -131 25q-59 0 -92 -25.5t-47 -79.5l-6 -18h249l-82 -307h-241l-215 -795h-389z" />
    <glyph glyph-name="approxequal" unicode="&#x2248;" horiz-adv-x="2328" 
d="M1677 0l297 1108h389l-297 -1108h-389zM1995 1208l78 287h405l-78 -287h-405zM883 0l215 795h-131l84 313h129l6 22q50 199 165.5 289t309.5 90q141 0 248 -36l-72 -273q-73 25 -131 25q-59 0 -92 -25.5t-47 -79.5l-6 -18h249l-81 -307h-242l-215 -795h-389zM27 0
l215 795h-131l84 313h129l6 22q50 199 165.5 289t309.5 90q141 0 248 -36l-72 -273q-73 25 -131 25q-59 0 -92 -25.5t-47 -79.5l-6 -18h249l-82 -307h-241l-215 -795h-389z" />
    <glyph glyph-name="NUL" horiz-adv-x="0" 
 />
    <glyph glyph-name="CR" horiz-adv-x="567" 
 />
    <glyph glyph-name="apple" horiz-adv-x="1980" 
d="M854 131q0 -35 -25 -35q-24 0 -24 35q0 33 24 33q25 0 25 -33zM721 152v-21h-6q-17 0 -17 16q0 13 15 13q8 0 8 -8zM1133 162q9 0 0 -19q-9 19 0 19zM786 444l19 -71q0 -15 -8 -15h-11q-22 0 -37.5 20t-15.5 46q0 35 29 35h12q6 -1 6.5 -2t5.5 -13zM1466 383
q0 -27 -22 -27q-19 0 -35 24t-16 54q0 29 22 29q19 0 35 -24t16 -56zM573 410h-10q-16 0 -23.5 9t-7.5 21q0 19 17 19q15 0 18 -10zM803 786h-23q-26 0 -26 23q0 22 26 22h23v-45zM1401 1096q0 -27 -23 -27q-19 0 -35 24t-16 54q0 29 23 29q19 0 35 -24t16 -56zM557 1133
q-6 -9 -14 -9t-8 4q0 7 8 7q12 0 14 -2zM1159 1133q-6 -9 -14 -9t-8 4q0 7 8 7q12 0 14 -2zM360 1122h-10q-16 0 -23.5 9.5t-7.5 21.5q0 18 17 18q15 0 18 -10zM903 -180q0 26 -22 26q-23 0 -23 -24q0 -27 23 -27q22 0 22 25zM1638 -180q0 26 -22 26q-23 0 -23 -24
q0 -27 23 -27q22 0 22 25zM1155 -188l-10 24l-10 -24h20zM807 -170q0 17 -23 14v-26q23 0 23 12zM1075 -168q0 15 -22 12v-24q22 -3 22 12zM1241 -170q0 17 -22 14v-26q22 0 22 12zM633 94v4q-4 0 -6 2q-6 3 -6 11v41q0 5 6 8q2 2 6 2v4h-37v-4q4 0 6 -2q6 -6 6 -8v-19
q-4 0 -8 4l-16 17q-5 3 -2 6q2 2 4 2v4h-29v-4q4 0 6 -2q3 -1 5 -3t5 -3l21 -19l-27 -26q-1 -1 -4 -3.5t-4 -3.5t-3 -2t-3 -2v-4h35v4q-4 0 -6 2t2 9l16 16q4 4 8 4v-18q0 -5 -6 -11q-2 -2 -6 -2v-4h37zM745 94v4q-4 0 -6 2q-4 4 -4 9v41q0 6 4 10q2 2 6 2v4h-36
q-27 0 -27 -19q0 -9 18 -18l-14 -20l-8 -6l-4 -3l-4 -2v-4h22l15 25q5 8 14 8v-18q0 -3 -6 -9q-2 -2 -4 -2v-4h34zM870 131q0 37 -41 37t-41 -37q0 -39 41 -39t41 39zM983 162v4h-31v-4q2 0 4 -2q1 -1 -2 -8l-12 -19l-12 19q-4 4 0 8q2 2 6 2v4h-31v-4q4 0 6 -2q1 -1 5 -3.5
t6 -4.5l16 -25v-16q0 -5 -6 -11q-2 -2 -4 -2v-4h35v4q-5 0 -7 2q-4 4 -4 11v16l17 25q1 4 5 6l5 2q2 2 4 2zM1194 166h-31v-4q2 0 4 -2q3 -3 0 -8l-18 -39l-10 20l8 17q1 3 2.5 4.5t3 2t2.5 1.5l4 4v4h-53l2 -4q2 0 4 -2l10 -10l6 -11l-14 -26l-16 37q-3 7 0 10q2 2 4 2v4
h-27v-4q2 0 4 -2t4.5 -5.5t3.5 -4.5l27 -56h2q2 -2 2 0l17 33l18 -33h2l25 56q1 3 3 5t4 3t3 2q2 2 4 2v4zM1296 94v4q-3 -3 -6 0q-4 0 -4 11v43q0 6 4 10h6v4h-59l-4 -21l4 -2q0 5 4 9q3 8 14 8h9q8 0 8 -6v-21h-8q-7 0 -11 4q-2 2 -2 6h-4v-26h4q0 4 2 6q6 6 11 6h8v-23
q0 -6 -8 -6h-9q-7 0 -16 9q-4 4 -4 10l-4 -2l4 -23h61zM1421 94v4q-4 0 -6 2q-6 3 -6 9v41q0 5 6 8q1 1 3 2t3 2v4h-20l-49 -53v37q0 7 6 10q2 2 6 2v4h-31v-4q4 0 6 -2q7 -7 7 -10v-58h6l51 58v-41q0 -3 -6 -9q-2 -2 -4 -2v-4h28zM1694 260v12h-1403v-12h1403zM629 350
l-2 6q-7 0 -9 2q-10 3 -12 15l-14 71q-4 12 6 15q2 2 8 2l-2 6h-55q-41 0 -41 -31q0 -12 11 -20t28 -10l-19 -33q-7 -11 -18 -15q-4 -2 -10 -2l2 -6h39l24 47q3 6 10 6l7 -30q4 -11 -7 -15q-2 -2 -8 -2l2 -6h60zM848 350l-2 8q-4 -4 -8 0q-10 3 -13 19l-16 63q-6 18 16 21
l-2 6h-61q-21 0 -36 -11.5t-15 -33.5q0 -31 21.5 -51.5t49.5 -20.5h66zM1071 350l-2 6q-4 0 -6 2q-9 3 -12 19l-15 65q-3 14 6 17q2 2 11 2l-2 6h-29l-59 -86l-11 61q-3 14 6 17q2 2 9 2l-2 6h-43l2 -6q6 0 8 -2q7 -3 10 -17l16 -92l7 -2l61 90l12 -61q3 -15 -4 -19
q-2 -2 -8 -2l2 -6h43zM1272 461l-2 6h-60l2 -6q7 0 9 -2q8 -3 12 -17l10 -43q4 -16 4 -23t-5.5 -12.5t-20.5 -5.5q-30 0 -41 45l-9 39q-3 16 7 19q4 4 8 0v6h-49l2 -6q6 0 10 -2q8 -3 12 -17l8 -39q14 -55 58 -55q52 0 39 49l-11 45q-8 14 7 19q3 3 10 0zM1686 350l-3 6
q-6 0 -8 2q-10 3 -12 15l-14 71q-4 12 6 15q2 2 8 2l-2 6h-92v-21v-14h8q-2 4 2 12q3 15 25 15h8q9 0 12 -13l6 -32h-8q-10 0 -18 8q-4 4 -7 10h-6l11 -47h6q0 6 2 10q3 13 14 13h8l6 -35q4 -12 -6 -15q-2 -2 -8 -2l2 -6h60zM412 440l4 4q-5 8 -6.5 10.5t-6 7.5t-10.5 7
t-14 2q-32 0 -29 -47q-14 47 -43 47q-24 0 -24 -25l6 -2q0 13 16 13q33 0 49 -68q6 -19 -4 -29q-5 -5 -8 -2l2 -8h57l-2 8q-4 -4 -8 0q-9 3 -12 19q-10 38 -10 51q0 27 18 27q10 0 25 -15zM1491 393q0 31 -23.5 54.5t-52.5 23.5q-17 0 -32 -11.5t-15 -33.5q0 -32 23 -55
t53 -23q17 0 32 11.5t15 33.5zM1694 555v12h-1403v-12h1403zM580 631v67h-29v133h29v70h-289v-127h84v57h67v-40h-49v-50h49v-43h-67v58h-84v-125h289zM938 631v67h-29v133h29v70h-197q-44 0 -70 -23t-26 -59t26 -59t70 -23h62v-39h-31v-67h166zM1327 831v70h-166v-70h23
l-31 -47l-31 47h21v70h-127v-70h24l76 -94v-39h-29v-67h166v67h-30v41l75 92h29zM1694 774v127h-301v-127h73v57h23v-133h-29v-67h166v67h-29v133h23v-57h74zM1694 973v12h-1403v-12h1403zM819 1067q0 5 -7 11t-19 7q-6 4 -9 21t-5 34t-13 30.5t-33 13.5q-10 0 -18 -7
t-8 -14q0 -10 10 -10q8 0 8 12q0 13 10 13t14 -15.5t9.5 -39.5t19.5 -38q-18 0 -30 -13t-17 -13q-10 0 -10 8q0 3 2 5t2 5q0 10 -10 10t-10 -14q0 -10 9.5 -17t20.5 -7q19 0 30 13t21 13q6 -14 25 -14q8 0 8 6zM416 1063l-2 6q-6 0 -8 2q-11 4 -13 14l-14 72q-4 11 6 14
q3 3 8 3l-2 6h-55q-41 0 -41 -31q0 -12 11 -21t28 -10l-19 -33q-6 -10 -18 -14q-4 -2 -10 -2l2 -6h39l24 47q3 6 10 6l7 -31q3 -11 -7 -14q-2 -2 -8 -2l2 -6h60zM1020 1063l-2 6q-6 0 -8 2q-11 4 -13 14l-14 72q-4 11 6 14q3 3 8 3l-2 6h-92v-21v-14h8q-2 4 2 12q3 14 25 14
h8q9 0 12 -12l7 -33h-9q-9 0 -18 9q-2 2 -6 10h-6l10 -47h6q0 6 2 10q3 12 14 12h9l6 -35q4 -11 -6 -14q-2 -2 -9 -2l3 -6h59zM1681 1063l-2 6q-6 0 -8 2q-10 3 -12 14l-14 72q-4 11 6 14q3 3 8 3l-2 6h-58l3 -6q5 0 8 -3q6 -2 10 -14l6 -31h-49l-6 31q-4 11 6 14q3 3 8 3
l-2 6h-59l2 -6q5 0 8 -3q8 -3 12 -14l15 -72q3 -11 -7 -14q-2 -2 -8 -2l2 -6h60l-2 6q-7 0 -9 2q-10 3 -12 14l-6 33h49l6 -33q4 -11 -6 -14q-2 -2 -8 -2l2 -6h59zM604 1100q0 25 -29 35q11 7 11 18q0 12 -11 21.5t-32 9.5q-27 0 -27 -23q0 -12 10 -12q9 0 9 6q0 4 -3.5 6.5
t-3.5 5.5q0 11 15 11q20 0 20 -25q0 -8 -4 -12q-33 3 -33 -13q0 -12 17 -12q12 0 22 10q13 -10 13 -30q0 -29 -25 -29t-25 18q0 7 7 7q1 0 4 -2.5t6 -2.5q8 0 8 11q0 10 -14 10q-19 0 -19 -21q0 -26 33 -26q51 0 51 39zM1206 1100q0 26 -28 35q10 7 10 18q0 12 -11 21.5
t-32 9.5q-27 0 -27 -23q0 -12 10 -12q9 0 9 6q0 4 -3.5 6.5t-3.5 5.5q0 11 15 11q20 0 20 -25q0 -8 -4 -12q-33 3 -33 -13q0 -12 17 -12q12 0 22 10q13 -10 13 -30q0 -29 -25 -29t-25 18q0 7 7 7q1 0 4 -2.5t6 -2.5q8 0 8 11q0 10 -14 10q-19 0 -19 -21q0 -26 33 -26
q51 0 51 39zM1425 1106q0 31 -23 54.5t-52 23.5q-17 0 -32 -11.5t-15 -33.5q0 -32 22.5 -55t52.5 -23q17 0 32 11.5t15 33.5zM1694 1266v12h-1403v-12h1403zM899 1356v4q-3 -3 -6 0q-4 0 -4 10v43q0 6 4 10h6v4h-59l-4 -20l4 -2q0 4 4 8q3 8 14 8h8q8 0 8 -6v-20h-8
q-6 0 -10 4q-2 2 -2 6h-4v-27h4q0 4 2 6q7 7 10 7h8v-23q0 -6 -8 -6h-8q-8 0 -16 8q-4 4 -4 10l-4 -2l4 -22h61zM1032 1356v4q-3 -3 -6 0q-6 0 -6 10v43q0 7 6 10h6v4h-37v-2v-2h4q7 -7 7 -10v-18h-35v18q0 6 4 10h6v2v2h-35v-4h4q6 -6 6 -10v-43q0 -2 -6 -8q-2 -2 -4 -2v-4
h35v4q-4 0 -6 2q-4 4 -4 8v21h35v-21q0 -10 -7 -10q-2 -2 -4 0v-4h37zM1141 1405h4v8q0 3 -1 8.5t-1 8.5q-3 -3 -35 -3q-31 0 -37 3q0 -3 -1 -8.5t-1 -8.5v-8h4q1 1 3 4t3 4q10 10 15 10q6 0 6 -6v-47q0 -10 -6 -10q-2 -2 -4 0v-4h34v4q-3 -3 -6 0q-4 0 -4 10v47q0 6 6 6
q7 0 17 -10q4 -4 4 -8zM582 -207q0 -8 -9 -8q-8 0 -8 8t8 8q9 0 9 -8zM1466 -207q0 -8 -8 -8t-8 8t8 8t8 -8zM317 -145l-24 -70h-2l-23 47l-20 -47h-2l-25 70l12 2l15 -47l20 47h2l21 -47l14 45h12zM432 -145l-24 -70h-2l-23 47l-21 -47h-2l-24 70l12 2l14 -47l21 47h2
l21 -47l14 45h12zM547 -145l-25 -70h-2l-22 47l-21 -47h-2l-24 70l12 2l14 -47l21 47h2l20 -47l15 45h12zM662 -145v-11h-25v-57h-12v57h-25v11h62zM745 -145l-26 -39v-29h-12v29l-29 39l12 2l23 -31l18 29h14zM819 -168q0 -25 -35 -25v-20h-12v68q47 7 47 -23zM915 -178
q0 -37 -34 -37q-16 0 -25.5 10.5t-9.5 24.5q0 37 37 37q13 0 22.5 -10.5t9.5 -24.5zM1006 -176v-31q-11 -8 -27 -8q-37 0 -37 35q0 17 11 27t28 10q13 0 25 -9l-5 -10q-8 8 -22 8q-25 0 -25 -26q0 -25 27 -25l12 4v15h-18v10h31zM1094 -213h-15l-16 23h-10v-23h-13v68
q47 7 47 -21q0 -14 -14 -20zM1180 -213h-13l-8 16h-29l-6 -16h-12l31 70h4zM1253 -168q0 -25 -34 -25v-20h-13v68q47 7 47 -23zM1343 -213h-12v31h-33v-31h-12v68h12v-27h33v27h12v-68zM1438 -145l-27 -39v-29h-12v29l-29 39l12 2l23 -31l18 29h15zM1552 -197l-2 -12
q-6 -6 -20 -6q-37 0 -37 35q0 37 37 37q11 0 22 -7l-4 -10q-6 6 -18 6q-11 0 -18 -7t-7 -17q0 -27 27 -27q9 0 20 8zM1651 -178q0 -37 -35 -37q-16 0 -25.5 10.5t-9.5 24.5q0 37 37 37q13 0 23 -10.5t10 -24.5zM1759 -213h-12l-6 41l-21 -43h-4l-20 43l-6 -41h-13l13 70h2
l26 -54l27 54h2zM1778 0h-1571v1536h1571v-1536z" />
    </font>
</defs>
</svg>
