<?xml version="1.0" standalone="no"?>
<!DOCTYPE svg PUBLIC "-//W3C//DTD SVG 1.1//EN" "http://www.w3.org/Graphics/SVG/1.1/DTD/svg11.dtd" >
<svg xmlns="http://www.w3.org/2000/svg" xmlns:xlink="http://www.w3.org/1999/xlink" version="1.1">
<metadata>
Created by FontForge 20201107 at Sun Nov  3 14:32:22 2024
 By 
HTF Gotham  Copr. 2003 The Hoefler Type Foundry, Inc. Info: www.typography.com
</metadata>
<defs>
<font id="SVN-GothamUltraItalic" horiz-adv-x="1628" >
  <font-face 
    font-family="SVN-Gotham Ultra"
    font-weight="950"
    font-style="italic"
    font-stretch="normal"
    units-per-em="2048"
    panose-1="2 0 6 3 4 0 0 9 0 4"
    ascent="1638"
    descent="-410"
    x-height="1118"
    cap-height="1434"
    bbox="-315 -391 2816 2423.4"
    underline-thickness="40"
    underline-position="-271"
    slope="-12"
    unicode-range="U+0020-FB02"
  />
<missing-glyph horiz-adv-x="1024" 
 />
    <glyph glyph-name="fi" unicode="fi" horiz-adv-x="1484" 
d="M795 0l299 1118h465l-299 -1118h-465zM8 0l203 760h-131l96 358h131q56 211 175 301t327 90q156 0 283 -41l-78 -288q-64 22 -127 22q-57 0 -85 -20t-40 -68l-2 -8h235l-92 -346h-227l-203 -760h-465zM1108 1198l80 297h481l-80 -297h-481z" />
    <glyph glyph-name="fl" unicode="fl" horiz-adv-x="1484" 
d="M795 0l401 1495h465l-401 -1495h-465zM8 0l203 760h-131l96 358h131q56 211 175 301t327 90q156 0 283 -41l-78 -288q-64 22 -127 22q-57 0 -85 -20t-40 -68l-2 -8h235l-92 -346h-227l-203 -760h-465z" />
    <glyph glyph-name=".notdef" horiz-adv-x="1024" 
 />
    <glyph glyph-name=".null" horiz-adv-x="0" 
 />
    <glyph glyph-name="nonmarkingreturn" horiz-adv-x="682" 
 />
    <glyph glyph-name="space" unicode=" " horiz-adv-x="520" 
 />
    <glyph glyph-name="exclam" unicode="!" horiz-adv-x="655" 
d="M-59 0l98 369h475l-98 -369h-475zM180 446l39 680l84 308h520l-84 -308l-325 -680h-234z" />
    <glyph glyph-name="quotedbl" unicode="&#x22;" horiz-adv-x="1128" 
d="M72 616l219 818h485v-11l-454 -807h-250zM639 616l219 818h485v-11l-454 -807h-250z" />
    <glyph glyph-name="numbersign" unicode="#" horiz-adv-x="1437" 
d="M600 625h256l68 192h-256zM74 0l88 246h-170l78 395h231l57 160h-196l78 395h258l84 238h321l-84 -238h223l84 238h322l-84 -238h168l-78 -395h-229l-58 -160h195l-78 -395h-256l-88 -246h-322l89 246h-226l-86 -246h-321z" />
    <glyph glyph-name="dollar" unicode="$" horiz-adv-x="1384" 
d="M797 522l-49 -172q151 -3 151 86q0 29 -20 48t-82 38zM737 926l45 159q-75 6 -114 -15t-39 -60q0 -32 23 -49t85 -35zM393 -201l62 219q-303 50 -523 218l246 303q204 -134 387 -166l56 182q-232 64 -338.5 154.5t-106.5 244.5q0 99 44.5 185.5t127.5 152.5t211.5 104
t286.5 38h22l33 118h213l-39 -139q241 -47 412 -172l-225 -323q-122 93 -299 137l-50 -168q109 -33 184 -66.5t134.5 -80t88 -108.5t28.5 -143q0 -217 -180.5 -353t-487.5 -136h-18l-56 -201h-213z" />
    <glyph glyph-name="percent" unicode="%" horiz-adv-x="1978" 
d="M1485 225q65 0 107 60.5t42 140.5q0 49 -28 82t-74 33q-65 0 -107.5 -60.5t-42.5 -140.5q0 -49 28.5 -82t74.5 -33zM530 893q65 0 107.5 60.5t42.5 140.5q0 49 -28 81.5t-74 32.5q-65 0 -107.5 -60t-42.5 -140q0 -49 28 -82t74 -33zM1477 -23q-177 0 -273 98.5t-96 252.5
q0 86 31.5 168.5t86.5 147.5t137.5 104.5t176.5 39.5q177 0 273 -98t96 -252q0 -86 -31.5 -168.5t-86.5 -147.5t-137.5 -105t-176.5 -40zM154 0l1445 1434h310l-1446 -1434h-309zM522 645q-177 0 -272.5 98t-95.5 252q0 86 31.5 168.5t86.5 147.5t137.5 105t176.5 40
q177 0 272.5 -98t95.5 -252q0 -86 -31.5 -168.5t-86.5 -147.5t-137.5 -105t-176.5 -40z" />
    <glyph glyph-name="ampersand" unicode="&#x26;" horiz-adv-x="1439" 
d="M602 307q74 0 160 47l-170 250q-135 -64 -135 -180q0 -54 39.5 -85.5t105.5 -31.5zM774 915q73 32 111.5 69t38.5 89q0 46 -24 70t-62 24q-43 0 -71 -33.5t-28 -86.5q0 -67 35 -132zM1061 -29l-84 125q-207 -121 -440 -121q-253 0 -392 109t-139 297q0 324 420 463
q-55 113 -55 225q0 169 126 281t326 112t326.5 -108t126.5 -273q0 -263 -322 -389l90 -125q105 127 121 148l271 -189q-82 -122 -176 -219l92 -129z" />
    <glyph glyph-name="quotesingle" unicode="'" horiz-adv-x="571" 
d="M72 616l219 818h495v-11l-454 -807h-260z" />
    <glyph glyph-name="parenleft" unicode="(" horiz-adv-x="952" 
d="M743 -41l-247 -252q-212 153 -321 336.5t-109 415.5q0 155 46 295t127 250.5t192 201.5t239.5 153.5t271.5 100.5l117 -297q-143 -60 -252 -141.5t-174.5 -172.5t-98 -186t-32.5 -192q0 -135 55 -252t186 -260z" />
    <glyph glyph-name="parenright" unicode=")" horiz-adv-x="952" 
d="M23 -289l-117 297q143 60 252 141.5t174.5 172.5t98 186t32.5 192q0 135 -55.5 252t-186.5 260l248 252q212 -153 321 -336t109 -415q0 -154 -46 -294.5t-127 -251.5t-192 -202.5t-239.5 -154t-271.5 -99.5z" />
    <glyph glyph-name="asterisk" unicode="*" horiz-adv-x="903" 
d="M598 596l-254 68l143 268l-268 -146l-72 261l306 8l-260 162l192 186l160 -258l8 303l254 -68l-143 -268l268 145l72 -260l-306 -8l260 -162l-192 -186l-160 258z" />
    <glyph glyph-name="plus" unicode="+" horiz-adv-x="1331" 
d="M354 182l90 336h-319l108 406h320l90 336h422l-90 -336h319l-108 -406h-320l-90 -336h-422z" />
    <glyph glyph-name="comma" unicode="," horiz-adv-x="583" 
d="M-164 -344l-12 170q225 27 268 182h-186l127 471h475l-111 -413q-29 -100 -67.5 -169t-102.5 -123.5t-160 -83t-231 -34.5z" />
    <glyph glyph-name="hyphen" unicode="-" horiz-adv-x="864" 
d="M47 455l103 381h712l-102 -381h-713z" />
    <glyph glyph-name="hyphen" unicode="&#xad;" horiz-adv-x="864" 
d="M47 455l103 381h712l-102 -381h-713z" />
    <glyph glyph-name="period" unicode="." horiz-adv-x="583" 
d="M-96 0l127 471h475l-127 -471h-475z" />
    <glyph glyph-name="slash" unicode="/" horiz-adv-x="1105" 
d="M-315 -262l1398 1896h383l-1398 -1896h-383z" />
    <glyph glyph-name="zero" unicode="0" horiz-adv-x="1478" 
d="M711 383q67 0 124 45t93 115t56 151.5t20 159.5q0 98 -42.5 146.5t-109.5 48.5t-124 -45t-93 -115t-56 -151.5t-20 -159.5q0 -98 42.5 -146.5t109.5 -48.5zM668 -33q-138 0 -251.5 46t-186.5 124.5t-112.5 180.5t-39.5 217q0 146 39 285t112.5 255t172.5 203.5
t226.5 136.5t266.5 49q138 0 251.5 -46t186.5 -124t112.5 -180t39.5 -217q0 -183 -61.5 -352.5t-168 -297t-260 -204t-327.5 -76.5z" />
    <glyph glyph-name="one" unicode="1" horiz-adv-x="872" 
d="M150 0l270 1010l-219 -56l-13 373l459 117h361l-387 -1444h-471z" />
    <glyph glyph-name="two" unicode="2" horiz-adv-x="1310" 
d="M-72 0l97 356l733 451q77 48 101 83.5t24 76.5t-24.5 64.5t-76.5 23.5q-60 0 -142.5 -48.5t-166.5 -129.5l-270 284q131 141 285.5 219t353.5 78q240 0 378 -118t138 -306q0 -69 -19 -129.5t-64.5 -125t-128 -130t-202.5 -131.5l-260 -143h541l-101 -375h-1196z" />
    <glyph glyph-name="three" unicode="3" horiz-adv-x="1263" 
d="M553 -31q-401 0 -616 279l305 272q124 -155 297 -155q95 0 153 41t58 98q0 46 -38.5 70t-131.5 24h-183l-6 213l383 250h-532l100 373h1102l-90 -330l-416 -260q134 -41 206.5 -131t72.5 -209q0 -250 -180 -392.5t-484 -142.5z" />
    <glyph glyph-name="four" unicode="4" horiz-adv-x="1429" 
d="M481 580h312l96 360zM637 0l65 248h-649l-55 348l958 848h533l-229 -858h172l-93 -338h-170l-67 -248h-465z" />
    <glyph glyph-name="five" unicode="5" horiz-adv-x="1257" 
d="M557 -29q-188 0 -356.5 73t-272.5 177l279 281q80 -74 163 -110t183 -36t156.5 46t56.5 120q0 57 -41.5 91t-122.5 34q-112 0 -211 -74l-244 152l230 709h1024l-103 -379h-667l-49 -152q98 39 219 39q201 0 319.5 -104.5t118.5 -282.5q0 -259 -188 -421.5t-494 -162.5z
" />
    <glyph glyph-name="six" unicode="6" horiz-adv-x="1359" 
d="M655 307q77 0 130 62.5t53 144.5q0 56 -37 93.5t-96 37.5q-77 0 -130 -62.5t-53 -144.5q0 -57 35 -92q39 -39 98 -39zM657 -29q-133 0 -243.5 41t-184.5 115q-149 149 -149 385q0 191 73 382t209 327q241 241 605 241q296 0 481 -147l-213 -330q-57 49 -132 80t-142 31
q-166 0 -281 -115q-59 -59 -94 -143q135 104 325 104q104 0 191 -43.5t141.5 -131t54.5 -202.5q0 -124 -51 -235t-137 -189.5t-204.5 -124t-248.5 -45.5z" />
    <glyph glyph-name="seven" unicode="7" horiz-adv-x="1265" 
d="M-35 0l840 1038h-635l106 396h1176l-98 -361l-850 -1073h-539z" />
    <glyph glyph-name="eight" unicode="8" horiz-adv-x="1363" 
d="M664 309q69 0 120.5 44t51.5 110q0 63 -46.5 98t-105.5 35q-70 0 -122 -44t-52 -110q0 -63 47.5 -98t106.5 -35zM780 854q68 0 117 41.5t49 105.5q0 60 -44.5 93.5t-100.5 33.5q-68 0 -116 -41.5t-48 -105.5q0 -60 44 -93.5t99 -33.5zM635 -20q-165 0 -301 47t-218.5 139
t-82.5 211q0 142 85.5 242t248.5 147q-138 99 -138 262q0 82 40 157.5t114 136t191.5 96.5t259.5 36q246 0 398 -114t152 -281q0 -127 -78.5 -216t-222.5 -134q203 -93 203 -287q0 -197 -181.5 -319.5t-469.5 -122.5z" />
    <glyph glyph-name="nine" unicode="9" horiz-adv-x="1359" 
d="M739 791q78 0 130.5 62t52.5 144q0 58 -35 93q-38 38 -99 38q-77 0 -129.5 -62t-52.5 -144q0 -56 37 -93.5t96 -37.5zM477 -27q-294 0 -481 148l213 330q57 -49 132 -80t142 -31q166 0 281 115q59 59 94 143q-135 -104 -326 -104q-104 0 -191 43.5t-141.5 130.5
t-54.5 202q0 124 51 235t137 189.5t204.5 124t248.5 45.5q134 0 244 -40.5t184 -114.5q150 -150 150 -385q0 -192 -73.5 -382.5t-209.5 -326.5q-242 -242 -604 -242z" />
    <glyph glyph-name="colon" unicode=":" horiz-adv-x="604" 
d="M-86 0l127 471h475l-127 -471h-475zM86 647l127 471h475l-127 -471h-475z" />
    <glyph glyph-name="semicolon" unicode=";" horiz-adv-x="604" 
d="M-156 -352l-12 170q225 27 268 182h-186l127 471h475l-110 -414q-29 -100 -67.5 -169t-103 -123t-160.5 -82.5t-231 -34.5zM86 647l127 471h475l-127 -471h-475z" />
    <glyph glyph-name="semicolon" unicode="&#x37e;" horiz-adv-x="604" 
d="M-156 -352l-12 170q225 27 268 182h-186l127 471h475l-110 -414q-29 -100 -67.5 -169t-103 -123t-160.5 -82.5t-231 -34.5zM86 647l127 471h475l-127 -471h-475z" />
    <glyph glyph-name="less" unicode="&#x3c;" horiz-adv-x="1327" 
d="M1077 123l-944 377l119 438l1145 377l-123 -453l-690 -164l604 -163z" />
    <glyph glyph-name="equal" unicode="=" horiz-adv-x="1306" 
d="M47 236l107 401h1040l-107 -401h-1040zM199 805l108 401h1041l-109 -401h-1040z" />
    <glyph glyph-name="greater" unicode="&#x3e;" horiz-adv-x="1327" 
d="M16 123l123 452l690 164l-604 164l111 412l944 -377l-119 -438z" />
    <glyph glyph-name="question" unicode="?" horiz-adv-x="1099" 
d="M98 0l101 369h475l-101 -369h-475zM328 446l30 357l27 22q334 34 334 150q0 76 -103 76q-121 0 -262 -101l-155 346q222 160 510 160q212 0 341.5 -104t129.5 -271q0 -179 -122.5 -305t-383.5 -168l-64 -162h-282z" />
    <glyph glyph-name="at" unicode="@" horiz-adv-x="1945" 
d="M940 442q71 0 118.5 58t47.5 141q0 49 -31.5 80t-79.5 31q-72 0 -119 -58.5t-47 -140.5q0 -49 30.5 -80t80.5 -31zM930 -315q-250 0 -443 99t-299 279.5t-106 415.5q0 198 77 379t209 314.5t321 212.5t403 79q192 0 347.5 -53t257.5 -147t157 -222t55 -278
q0 -135 -30 -247.5t-80 -188.5t-116.5 -128.5t-138.5 -76t-147 -23.5q-117 0 -204 50.5t-134 130.5q-143 -170 -324 -170q-130 0 -217.5 99t-87.5 259q0 168 65 309.5t177 223t246 81.5q93 0 157.5 -42t100.5 -109l49 147l370 -102l-165 -526q-27 -88 1.5 -139.5
t116.5 -51.5q45 0 93 34.5t89.5 96.5t68 163t26.5 220q0 129 -49 239.5t-140.5 192.5t-231.5 129t-312 47q-131 0 -254 -33t-224 -92t-185 -143t-142 -183.5t-89.5 -215t-31.5 -236.5q0 -213 95.5 -374.5t269.5 -249.5t401 -88q114 0 211 21t209 69l32 -76
q-212 -96 -454 -96z" />
    <glyph glyph-name="A" unicode="A" horiz-adv-x="1605" 
d="M676 532h262l-39 349zM-184 0l991 1444h475l217 -1444h-510l-24 193h-502l-125 -193h-522z" />
    <glyph glyph-name="B" unicode="B" horiz-adv-x="1458" 
d="M492 362h231q86 0 136 34t50 89q0 90 -153 90h-207zM629 870h221q88 0 133 33t45 84q0 44 -34.5 64t-112.5 20h-199zM-72 0l385 1434h635q547 0 547 -338q0 -134 -87 -234.5t-249 -142.5q106 -27 170 -101.5t64 -181.5q0 -94 -38.5 -171t-118 -137.5t-214 -94
t-313.5 -33.5h-781z" />
    <glyph glyph-name="C" unicode="C" horiz-adv-x="1488" 
d="M752 -31q-303 0 -491.5 171.5t-188.5 457.5q0 100 25.5 201t75 198t128 181.5t177 148.5t231 100.5t282.5 36.5q230 0 386 -112.5t202 -304.5l-428 -187q-23 86 -81 130t-142 44q-103 0 -185.5 -57.5t-126 -147t-43.5 -188.5q0 -115 63 -180.5t163 -65.5q153 0 278 150
l332 -262q-242 -314 -657 -314z" />
    <glyph glyph-name="D" unicode="D" horiz-adv-x="1527" 
d="M520 418h84q110 0 199 30.5t145 86.5q45 45 74 111.5t29 131.5q0 106 -60 166q-72 72 -231 72h-80zM-72 0l385 1434h508q376 0 561 -185q156 -156 156 -420q0 -330 -235 -565q-264 -264 -752 -264h-623z" />
    <glyph glyph-name="E" unicode="E" horiz-adv-x="1378" 
d="M-72 0l385 1434h1223l-106 -394h-752l-39 -145h700l-92 -346h-700l-43 -156h762l-105 -393h-1233z" />
    <glyph glyph-name="F" unicode="F" horiz-adv-x="1312" 
d="M-72 0l385 1434h1200l-110 -410h-721l-49 -182h670l-101 -373h-670l-124 -469h-480z" />
    <glyph glyph-name="G" unicode="G" horiz-adv-x="1523" 
d="M778 -31q-109 0 -210.5 22.5t-192.5 73t-158.5 123.5t-107 181t-39.5 239q0 175 67 331.5t187.5 272.5t300 184t391.5 68q192 0 356.5 -70t243.5 -167l-299 -307q-64 59 -151 94t-181 35q-198 0 -316 -119.5t-118 -298.5q0 -128 79.5 -197t198.5 -69q70 0 125 22l47 154
h-235l78 307h690l-205 -731q-111 -66 -256.5 -107t-294.5 -41z" />
    <glyph glyph-name="H" unicode="H" horiz-adv-x="1552" 
d="M-72 0l385 1434h480l-138 -506h439l137 506h479l-385 -1434h-479l137 514h-438l-137 -514h-480z" />
    <glyph glyph-name="I" unicode="I" horiz-adv-x="643" 
d="M-68 0l385 1434h480l-385 -1434h-480z" />
    <glyph glyph-name="J" unicode="J" horiz-adv-x="1150" 
d="M420 -29q-164 0 -297.5 69.5t-208.5 192.5l315 277q48 -73 96 -104t105 -31q66 0 115 49q52 52 92 199l219 811h467l-238 -887q-75 -276 -215 -416q-160 -160 -450 -160z" />
    <glyph glyph-name="K" unicode="K" horiz-adv-x="1470" 
d="M-72 0l385 1434h480l-140 -514l477 514h584l-653 -656l299 -778h-510l-172 461l-201 -201l-69 -260h-480z" />
    <glyph glyph-name="L" unicode="L" horiz-adv-x="1247" 
d="M-72 0l385 1434h480l-275 -1024h653l-110 -410h-1133z" />
    <glyph glyph-name="M" unicode="M" horiz-adv-x="1769" 
d="M-72 0l385 1434h473l172 -504l443 504h526l-385 -1434h-477l190 711l-467 -510h-8l-192 510l-191 -711h-469z" />
    <glyph glyph-name="N" unicode="N" horiz-adv-x="1589" 
d="M-72 0l385 1434h449l325 -684l185 684h475l-385 -1434h-426l-340 713l-193 -713h-475z" />
    <glyph glyph-name="O" unicode="O" 
d="M823 393q73 0 136 33.5t104.5 87.5t65.5 121t24 135q0 120 -69.5 195t-194.5 75q-96 0 -173.5 -57t-117 -142t-39.5 -177q0 -120 69.5 -195.5t194.5 -75.5zM791 -29q-206 0 -369.5 85.5t-253.5 234t-90 330.5q0 165 65 318.5t176 268.5t269 184.5t334 69.5q155 0 288 -50
t226 -136.5t145.5 -206.5t52.5 -256q0 -165 -65 -318.5t-175.5 -269t-268.5 -185t-334 -69.5z" />
    <glyph glyph-name="P" unicode="P" horiz-adv-x="1361" 
d="M604 731h86q131 0 198.5 52.5t67.5 138.5q0 50 -34 84q-45 45 -144 45h-90zM-72 0l385 1434h482q196 0 323.5 -38.5t208.5 -119.5q113 -113 113 -289q0 -272 -193.5 -435t-531.5 -163h-203l-104 -389h-480z" />
    <glyph glyph-name="Q" unicode="Q" 
d="M819 377h25l-131 176l307 201l102 -152q31 79 31 160q0 125 -69 201.5t-195 76.5q-74 0 -138 -33.5t-106 -88.5t-66 -123.5t-24 -139.5q0 -125 69 -201.5t195 -76.5zM1204 -94l-90 133q-158 -68 -323 -68q-206 0 -369.5 85.5t-253.5 234t-90 330.5q0 165 65 318.5
t176 268.5t269 184.5t334 69.5q155 0 288 -50t226 -136.5t145.5 -206.5t52.5 -256q0 -155 -59.5 -300.5t-167.5 -264.5l104 -142z" />
    <glyph glyph-name="R" unicode="R" horiz-adv-x="1460" 
d="M608 752h174q117 0 180.5 46t63.5 117q0 45 -31 76q-41 41 -141 41h-170zM-72 0l385 1434h559q375 0 529 -154q112 -112 112 -299q0 -115 -39.5 -210.5t-130.5 -173t-229 -120.5l199 -477h-516l-160 410h-119l-110 -410h-480z" />
    <glyph glyph-name="S" unicode="S" horiz-adv-x="1337" 
d="M633 -29q-210 0 -391 69t-316 191l275 328q240 -203 483 -203q48 0 76 17t28 47q0 24 -17 40t-61.5 35.5t-156.5 61.5q-211 77 -301 164.5t-90 239.5q0 103 46.5 194.5t129 159.5t204.5 107.5t265 39.5q189 0 354.5 -57t284.5 -158l-275 -327q-88 71 -195.5 115
t-217.5 44q-105 0 -105 -57q0 -29 37 -48.5t193 -76.5q100 -38 167.5 -73t123 -83t82 -111t26.5 -145q0 -108 -44.5 -202t-126 -163.5t-205 -109t-273.5 -39.5z" />
    <glyph glyph-name="T" unicode="T" horiz-adv-x="1372" 
d="M295 0l276 1028h-421l108 406h1323l-108 -406h-422l-277 -1028h-479z" />
    <glyph glyph-name="U" unicode="U" horiz-adv-x="1548" 
d="M698 -29q-303 0 -461.5 134.5t-158.5 381.5q0 111 31 232l192 715h487l-200 -746q-17 -73 -17 -113q0 -180 197 -180q94 0 154 60q33 33 56 79.5t46 129.5l207 770h487l-227 -844q-77 -282 -225 -430q-189 -189 -568 -189z" />
    <glyph glyph-name="V" unicode="V" horiz-adv-x="1544" 
d="M387 -10l-194 1444h526l61 -805l496 805h539l-969 -1444h-459z" />
    <glyph glyph-name="W" unicode="W" horiz-adv-x="2244" 
d="M297 -10l-82 1444h492l18 -689l416 693h413l48 -693l387 689h503l-856 -1444h-417l-62 712l-442 -712h-418z" />
    <glyph glyph-name="X" unicode="X" horiz-adv-x="1484" 
d="M-201 0l705 754l-289 680h518l133 -349l310 349h555l-656 -701l314 -733h-519l-153 406l-363 -406h-555z" />
    <glyph glyph-name="Y" unicode="Y" horiz-adv-x="1441" 
d="M307 0l146 547l-281 887h504l117 -480l372 480h568l-815 -947l-132 -487h-479z" />
    <glyph glyph-name="Z" unicode="Z" horiz-adv-x="1378" 
d="M-109 0l91 336l817 704h-604l106 394h1272l-90 -336l-819 -705h628l-104 -393h-1297z" />
    <glyph glyph-name="bracketleft" unicode="[" horiz-adv-x="964" 
d="M-86 -266l457 1700h753l-77 -285h-359l-303 -1131h358l-75 -284h-754z" />
    <glyph glyph-name="backslash" unicode="\" horiz-adv-x="1105" 
d="M627 -262l-420 1896h366l420 -1896h-366z" />
    <glyph glyph-name="bracketright" unicode="]" horiz-adv-x="964" 
d="M-147 -266l77 284h359l303 1131h-359l76 285h754l-457 -1700h-753z" />
    <glyph glyph-name="asciicircum" unicode="^" horiz-adv-x="1024" 
d="M190 1010l400 420h311l174 -420h-299l-82 157l-168 -157h-336z" />
    <glyph glyph-name="underscore" unicode="_" horiz-adv-x="1228" 
d="M-242 -328l64 238h1237l-64 -238h-1237z" />
    <glyph glyph-name="grave" unicode="`" horiz-adv-x="1024" 
d="M657 1188l-262 276l459 117l90 -393h-287z" />
    <glyph glyph-name="a" unicode="a" horiz-adv-x="1239" 
d="M514 240q56 0 108 51.5t72 128.5l13 47q-46 12 -86 12q-88 0 -135.5 -39.5t-47.5 -111.5q0 -41 21.5 -64.5t54.5 -23.5zM289 -25q-132 0 -215.5 81.5t-83.5 224.5q0 180 131.5 284.5t367.5 104.5q130 0 254 -37l5 12q8 19 8 55q0 109 -172 109q-80 0 -164.5 -13
t-140.5 -36l-62 315q189 60 461 60q271 0 407 -96.5t136 -268.5q0 -76 -21 -156l-164 -614h-465l31 113q-84 -71 -153.5 -104.5t-159.5 -33.5z" />
    <glyph glyph-name="b" unicode="b" horiz-adv-x="1374" 
d="M659 354q92 0 156 76t64 176q0 72 -42 116t-108 44q-93 0 -156 -75.5t-63 -176.5q0 -72 41.5 -116t107.5 -44zM754 -27q-219 0 -328 170l-39 -143h-465l400 1495h464l-131 -491q62 64 147 102.5t173 38.5q154 0 260 -118t106 -318q0 -150 -46 -286.5t-124 -235
t-187 -156.5t-230 -58z" />
    <glyph glyph-name="c" unicode="c" horiz-adv-x="1157" 
d="M553 -29q-230 0 -377 128t-147 350q0 142 53.5 270.5t144.5 221.5t218.5 147.5t269.5 54.5q196 0 324.5 -102t162.5 -263l-368 -147q-30 135 -144 135q-95 0 -157 -86t-62 -193q0 -62 35.5 -99.5t91.5 -37.5q48 0 87.5 22.5t82.5 71.5l313 -208q-90 -129 -217 -197
t-311 -68z" />
    <glyph glyph-name="d" unicode="d" horiz-adv-x="1374" 
d="M645 352q92 0 155.5 76t63.5 176q0 72 -41.5 116t-107.5 44q-93 0 -156 -75.5t-63 -176.5q0 -72 41.5 -116t107.5 -44zM399 -27q-154 0 -260 118.5t-106 318.5q0 201 78 370t213.5 267t296.5 98q218 0 327 -170l139 520h465l-399 -1495h-465l31 115q-62 -64 -147 -103
t-173 -39z" />
    <glyph glyph-name="e" unicode="e" horiz-adv-x="1220" 
d="M481 655h316q8 19 8 50q0 49 -33 83.5t-88 34.5q-61 0 -117 -40.5t-86 -127.5zM1171 451h-718q5 -69 48.5 -109.5t119.5 -40.5q103 0 225 90l215 -235q-205 -183 -479 -183q-253 0 -401 135t-148 357q0 128 47 249.5t132 217.5t216 154.5t285 58.5q107 0 192.5 -28
t140.5 -74.5t91.5 -110.5t51.5 -131.5t15 -141.5q0 -118 -33 -208z" />
    <glyph glyph-name="f" unicode="f" horiz-adv-x="868" 
d="M8 0l203 760h-131l96 358h131q56 211 175 301t327 90q156 0 283 -41l-78 -288q-64 22 -127 22q-57 0 -85 -20t-40 -68l-2 -8h235l-92 -346h-227l-203 -760h-465z" />
    <glyph glyph-name="g" unicode="g" horiz-adv-x="1361" 
d="M651 418q90 0 146.5 67t56.5 154q0 62 -42 105.5t-112 43.5q-90 0 -146 -66.5t-56 -156.5q0 -62 41.5 -104.5t111.5 -42.5zM463 -332q-153 0 -315 42.5t-271 109.5l184 270q189 -108 390 -108q78 0 130 18t93 59q55 55 82 158l4 16q-133 -127 -330 -127q-72 0 -139 25.5
t-121.5 72.5t-87.5 121t-33 164q0 121 38.5 237t108.5 209.5t178 150.5t236 57q108 0 197 -47t141 -123l39 145h465l-235 -878q-36 -137 -84.5 -233.5t-118.5 -166.5q-91 -91 -221.5 -131.5t-329.5 -40.5z" />
    <glyph glyph-name="h" unicode="h" horiz-adv-x="1312" 
d="M-78 0l402 1495h464l-139 -516q60 73 147.5 119.5t186.5 46.5q152 0 236 -91t84 -251q0 -90 -27 -189l-164 -614h-465l150 557q12 47 12 84q0 46 -24.5 72t-73.5 26q-68 0 -108.5 -44t-65.5 -138l-150 -557h-465z" />
    <glyph glyph-name="i" unicode="i" horiz-adv-x="616" 
d="M-74 0l299 1118h465l-299 -1118h-465zM240 1198l79 297h482l-80 -297h-481z" />
    <glyph glyph-name="j" unicode="j" horiz-adv-x="622" 
d="M-123 -334q-67 0 -162 15l72 268h20q69 0 99.5 33t58.5 137l266 999h465l-284 -1061q-32 -116 -76.5 -191.5t-111 -120t-148.5 -62t-199 -17.5zM246 1198l80 297h481l-80 -297h-481z" />
    <glyph glyph-name="k" unicode="k" horiz-adv-x="1243" 
d="M-78 0l402 1495h464l-186 -690l299 313h531l-490 -479l197 -639h-484l-84 324l-133 -134l-51 -190h-465z" />
    <glyph glyph-name="l" unicode="l" horiz-adv-x="616" 
d="M-74 0l402 1495h465l-402 -1495h-465z" />
    <glyph glyph-name="m" unicode="m" horiz-adv-x="2021" 
d="M-78 0l299 1118h465l-35 -131q61 69 145.5 113.5t182.5 44.5q112 0 184 -49.5t105 -134.5q175 184 409 184q166 0 251 -90t85 -248q0 -84 -28 -193l-164 -614h-465l149 557q13 50 13 84q0 98 -95 98q-120 0 -170 -182l-149 -557h-465l149 557q13 50 13 84q0 98 -94 98
q-120 0 -170 -182l-150 -557h-465z" />
    <glyph glyph-name="n" unicode="n" horiz-adv-x="1312" 
d="M-78 0l299 1118h465l-37 -139q60 73 147.5 119.5t186.5 46.5q152 0 236 -91t84 -251q0 -90 -27 -189l-164 -614h-465l150 557q12 47 12 84q0 46 -24.5 72t-73.5 26q-68 0 -108.5 -44t-65.5 -138l-150 -557h-465z" />
    <glyph glyph-name="o" unicode="o" horiz-adv-x="1302" 
d="M625 352q86 0 144 75t58 177q0 72 -41 117t-108 45q-86 0 -144.5 -75t-58.5 -177q0 -72 41.5 -117t108.5 -45zM596 -27q-129 0 -235.5 40.5t-176.5 111t-108.5 165.5t-38.5 204q0 128 51 246.5t138.5 208t213 143t267.5 53.5q129 0 235.5 -40.5t176.5 -110.5t108.5 -165
t38.5 -204q0 -128 -51 -247t-138.5 -208.5t-213 -143t-267.5 -53.5z" />
    <glyph glyph-name="p" unicode="p" horiz-adv-x="1374" 
d="M659 354q92 0 156 76t64 176q0 72 -42 116t-108 44q-93 0 -156 -75.5t-63 -176.5q0 -72 41.5 -116t107.5 -44zM-166 -328l387 1446h465l-31 -114q62 64 147 102.5t173 38.5q154 0 260 -118t106 -318q0 -150 -46 -286.5t-124 -235t-187 -156.5t-230 -58q-219 0 -328 170
l-127 -471h-465z" />
    <glyph glyph-name="q" unicode="q" horiz-adv-x="1374" 
d="M645 352q92 0 155.5 76t63.5 176q0 72 -41.5 116t-107.5 44q-93 0 -156 -75.5t-63 -176.5q0 -72 41.5 -116t107.5 -44zM600 -328l119 443q-62 -64 -147 -103t-173 -39q-154 0 -260 118.5t-106 318.5q0 201 78 370t213.5 267t296.5 98q218 0 327 -170l39 143h465
l-387 -1446h-465z" />
    <glyph glyph-name="r" unicode="r" horiz-adv-x="903" 
d="M-78 0l299 1118h465l-59 -225q171 253 413 242l-131 -494h-49q-164 0 -257.5 -87t-141.5 -275l-74 -279h-465z" />
    <glyph glyph-name="s" unicode="s" horiz-adv-x="1069" 
d="M496 -27q-348 0 -598 187l204 266q73 -62 191 -107t211 -45q65 0 65 39q0 28 -34.5 49t-139.5 58q-151 55 -228 127.5t-77 195.5q0 83 35 156t100.5 128t165.5 86.5t223 31.5q163 0 300.5 -42t228.5 -112l-205 -266q-70 48 -165.5 83.5t-174.5 35.5q-74 0 -74 -37
q0 -23 28.5 -38.5t133.5 -53.5q61 -22 102.5 -41.5t85.5 -48.5t70 -62t43 -80.5t17 -105.5t-16 -113.5t-54.5 -109t-95.5 -93t-145 -64t-197 -24.5z" />
    <glyph glyph-name="t" unicode="t" horiz-adv-x="909" 
d="M481 -25q-389 0 -389 306q0 58 23 155l86 324h-131l96 358h131l76 281h465l-76 -281h258l-96 -358h-258l-64 -240q-14 -49 -14 -86q0 -72 94 -72q43 0 135 25l-100 -379q-115 -33 -236 -33z" />
    <glyph glyph-name="u" unicode="u" horiz-adv-x="1312" 
d="M342 -27q-152 0 -235.5 91t-83.5 251q0 94 26 189l164 614h465l-150 -557q-12 -47 -12 -84q0 -46 24.5 -72t73.5 -26q68 0 108.5 44t65.5 138l150 557h465l-299 -1118h-465l37 139q-60 -73 -147.5 -119.5t-186.5 -46.5z" />
    <glyph glyph-name="v" unicode="v" horiz-adv-x="1331" 
d="M311 -8l-151 1126h477l31 -561l331 561h492l-754 -1126h-426z" />
    <glyph glyph-name="w" unicode="w" horiz-adv-x="1763" 
d="M199 -8l-37 1126h434l-6 -450l258 454h371l14 -458l240 454h448l-643 -1126h-383l-21 479l-282 -479h-393z" />
    <glyph glyph-name="x" unicode="x" horiz-adv-x="1226" 
d="M-152 0l525 575l-219 543h473l71 -229l189 229h506l-519 -567l224 -551h-473l-76 238l-195 -238h-506z" />
    <glyph glyph-name="y" unicode="y" horiz-adv-x="1335" 
d="M211 -334q-204 0 -332 84l180 342q94 -65 187 -65q36 0 73 12l-153 1079h471l39 -588l334 588h483l-690 -1079q-133 -206 -268 -289.5t-324 -83.5z" />
    <glyph glyph-name="z" unicode="z" horiz-adv-x="1144" 
d="M-106 0l77 291l584 463h-440l96 364h1059l-78 -291l-584 -462h461l-98 -365h-1077z" />
    <glyph glyph-name="braceleft" unicode="{" horiz-adv-x="1032" 
d="M801 -57l-113 -232q-116 7 -204 25.5t-141.5 44.5t-87 61.5t-46 72.5t-12.5 81q0 60 26 162q31 128 31 166q0 63 -42.5 94t-148.5 31h-43l74 278h43q62 0 107.5 8t78.5 27t54.5 42t37 62t24.5 77t18 97q9 60 21 103.5t34.5 90.5t55 79.5t84 62.5t119.5 48.5t162.5 29
t213.5 10.5l31 -247q-59 -3 -106.5 -14t-81 -26t-59 -39t-41 -47t-27.5 -56.5t-17.5 -61.5t-11.5 -68q-7 -45 -12.5 -72t-17.5 -64t-27 -59.5t-40.5 -49t-59.5 -43.5t-83 -31.5t-111 -22.5q179 -40 179 -207q0 -68 -21 -133q-27 -95 -27 -137q0 -63 41 -96.5t146 -46.5z" />
    <glyph glyph-name="bar" unicode="|" horiz-adv-x="739" 
d="M231 -262v1896h344v-1896h-344z" />
    <glyph glyph-name="braceright" unicode="}" horiz-adv-x="1032" 
d="M-98 -289l-31 248q59 3 106 14t80 25.5t58.5 39t41 46.5t27.5 56.5t18 61.5t13 68q7 45 12.5 71.5t17 64t26.5 60t41 49t59.5 43t82.5 31.5t111 23q-98 22 -138 75t-40 132q0 69 21 133q26 91 26 138q0 61 -41 95.5t-145 47.5l112 231q144 -8 244 -33.5t152.5 -65.5
t74 -84.5t21.5 -100.5t-27 -162q-30 -124 -30 -166q0 -63 42 -94t148 -31h43l-74 -278h-43q-74 0 -125.5 -13.5t-84 -35.5t-54.5 -64.5t-33 -86t-22 -114.5q-9 -60 -21 -103.5t-34.5 -90.5t-55 -79.5t-84 -62.5t-119.5 -48.5t-162.5 -29t-213.5 -10.5z" />
    <glyph glyph-name="asciitilde" unicode="~" horiz-adv-x="1024" 
d="M254 436l-199 84q64 160 153.5 238t190.5 78q89 0 183 -66q68 -47 102 -47q37 0 66.5 28t60.5 85l199 -84q-64 -160 -153.5 -238t-190.5 -78q-89 0 -183 66q-68 47 -102 47q-37 0 -66.5 -28t-60.5 -85z" />
    <glyph glyph-name="nbspace" unicode="&#xa0;" horiz-adv-x="520" 
 />
    <glyph glyph-name="exclamdown" unicode="&#xa1;" horiz-adv-x="655" 
d="M-82 0l84 307l326 680h233l-39 -680l-84 -307h-520zM227 1065l99 369h475l-99 -369h-475z" />
    <glyph glyph-name="cent" unicode="&#xa2;" horiz-adv-x="1198" 
d="M510 532l180 461q-100 -7 -165.5 -107.5t-65.5 -215.5q0 -97 51 -138zM281 -12l84 215q-132 58 -204.5 171t-72.5 265q0 139 51.5 265t141 218t217.5 146.5t274 54.5h33l24 61l25 62h238l-68 -174q197 -93 246 -314l-324 -129q-12 84 -63 123l-183 -469q88 11 170 117
l275 -182q-188 -266 -512 -266q-33 0 -49 2l-66 -166h-237z" />
    <glyph glyph-name="sterling" unicode="&#xa3;" horiz-adv-x="1267" 
d="M-63 0l71 266l168 66l57 209h-151l78 288h151l11 43q36 144 86 244.5t127 177.5q166 166 456 166q134 0 257 -50.5t186 -127.5l-283 -309q-77 80 -170 80q-71 0 -123 -52q-42 -42 -63 -124l-13 -48h383l-78 -288h-382l-50 -185h543l-96 -356h-1165z" />
    <glyph glyph-name="currency" unicode="&#xa4;" horiz-adv-x="1300" 
d="M768 -31q-235 0 -395.5 136.5t-177.5 363.5h-164l57 217h123q3 12 8 35t8 35h-121l58 217h119q91 226 268.5 358.5t437.5 132.5q169 0 293 -72t197 -196l-314 -252q-82 125 -221 125q-126 0 -205 -102h297l-55 -209h-319q-3 -13 -8.5 -37.5t-8.5 -36.5h318l-56 -209h-272
q32 -110 158 -110q121 0 227 100l244 -301q-207 -195 -496 -195z" />
    <glyph glyph-name="yen" unicode="&#xa5;" horiz-adv-x="1482" 
d="M350 0l51 193h-376l71 268h377l21 80h-375l71 268h279l-244 625h498l127 -414l313 414h561l-569 -625h268l-71 -268h-375l-23 -80h375l-72 -268h-376l-52 -193h-479z" />
    <glyph glyph-name="section" unicode="&#xa7;" horiz-adv-x="1267" 
d="M836 604q79 0 79 51q0 28 -38.5 51.5t-141.5 61.5q-163 61 -219 61q-80 0 -80 -51q0 -28 38 -51t142 -61q165 -62 220 -62zM569 -31q-169 0 -324.5 54.5t-246.5 140.5l209 256q71 -62 177 -107t185 -45q72 0 72 43q0 24 -36.5 42t-153.5 57q-165 55 -252.5 121t-87.5 163
q0 199 235 262q-59 71 -59 164q0 69 31 130t90.5 109.5t156 76.5t217.5 28q169 0 325 -54t247 -140l-209 -256q-69 62 -176.5 106.5t-186.5 44.5q-71 0 -71 -43q0 -23 36 -41t154 -57q164 -55 252 -121.5t88 -163.5q0 -199 -235 -262q59 -71 59 -164q0 -69 -31 -130
t-91 -109.5t-156.5 -76.5t-217.5 -28z" />
    <glyph glyph-name="dieresis" unicode="&#xa8;" horiz-adv-x="1024" 
d="M262 1188l84 307h377l-84 -307h-377zM721 1188l84 307h377l-84 -307h-377z" />
    <glyph glyph-name="copyright" unicode="&#xa9;" horiz-adv-x="1699" 
d="M911 319q-183 0 -301 115.5t-118 288.5v4q0 170 119 289t304 119q241 0 353 -203l-217 -129q-26 47 -59 71.5t-85 24.5q-65 0 -106 -48.5t-41 -121.5v-4q0 -75 40.5 -122.5t106.5 -47.5q53 0 87.5 25t62.5 73l217 -123q-123 -211 -363 -211zM897 51q138 0 260.5 53.5
t209 143.5t137 212.5t50.5 256.5v4q0 179 -85 330.5t-235.5 241t-332.5 89.5q-183 0 -335 -90.5t-237 -243t-85 -331.5v-4q0 -134 50 -256t136 -211t208 -142t259 -53zM897 -31q-153 0 -290.5 60t-235.5 160.5t-155.5 237.5t-57.5 286v4q0 148 58 285.5t156.5 239t237 162
t291.5 60.5t290.5 -60t235.5 -160t155.5 -237t57.5 -286v-4q0 -148 -58 -285.5t-156.5 -239t-237 -162.5t-291.5 -61z" />
    <glyph glyph-name="ordfeminine" unicode="&#xaa;" horiz-adv-x="819" 
d="M485 956q30 0 59.5 27.5t39.5 69.5l6 24q-30 10 -53 10q-39 0 -66 -22.5t-27 -58.5q0 -23 11.5 -36.5t29.5 -13.5zM82 541l49 178h631l-49 -178h-631zM360 811q-73 0 -118 45t-45 123q0 99 73 157t201 58q57 0 139 -25l4 11q4 5 4 30q0 60 -90 60q-84 0 -163 -27l-33 172
q95 33 248 33q148 0 221 -52t73 -147q0 -39 -12 -86l-90 -338h-256l19 62q-45 -39 -84.5 -57.5t-90.5 -18.5z" />
    <glyph glyph-name="guillemotleft" unicode="&#xab;" horiz-adv-x="1263" 
d="M774 41l-239 500l4 16l501 494l250 -228l-340 -329l152 -308zM250 53l-221 459l49 180l397 391l250 -227l-319 -309l172 -348z" />
    <glyph glyph-name="registered" unicode="&#xae;" horiz-adv-x="1699" 
d="M817 758h113q48 0 75 20t27 56v4q0 36 -27 54.5t-73 18.5h-115v-153zM553 344v789h385q194 0 285 -91q71 -71 71 -188v-4q0 -162 -155 -238l184 -268h-299l-152 225h-4h-51v-225h-264zM897 51q138 0 260.5 53.5t209 143.5t137 212.5t50.5 256.5v4q0 179 -85 330.5
t-235.5 241t-332.5 89.5q-183 0 -335 -90.5t-237 -243t-85 -331.5v-4q0 -134 50 -256t136 -211t208 -142t259 -53zM897 -31q-153 0 -290.5 60t-235.5 160.5t-155.5 237.5t-57.5 286v4q0 148 58 285.5t156.5 239t237 162t291.5 60.5t290.5 -60t235.5 -160t155.5 -237
t57.5 -286v-4q0 -148 -58 -285.5t-156.5 -239t-237 -162.5t-291.5 -61z" />
    <glyph glyph-name="macron" unicode="&#xaf;" horiz-adv-x="1024" 
d="M285 1198l67 256h799l-68 -256h-798z" />
    <glyph glyph-name="macron" unicode="&#x2c9;" horiz-adv-x="1024" 
d="M285 1198l67 256h799l-68 -256h-798z" />
    <glyph glyph-name="degree" unicode="&#xb0;" horiz-adv-x="940" 
d="M567 899q75 0 118.5 58.5t43.5 132.5q0 60 -36 98.5t-93 38.5q-75 0 -118.5 -58.5t-43.5 -132.5q0 -60 36 -98.5t93 -38.5zM555 674q-166 0 -266.5 101t-100.5 247q0 183 122 306.5t302 123.5q166 0 266.5 -101t100.5 -247q0 -183 -122 -306.5t-302 -123.5z" />
    <glyph glyph-name="plusminus" unicode="&#xb1;" horiz-adv-x="1282" 
d="M561 -31q-427 0 -624 271l294 280q71 -90 146 -127t170 -37q83 0 131.5 34.5t48.5 84.5q0 80 -127 80h-141l90 336h113q182 0 182 104q0 36 -30 59t-75 23q-145 0 -315 -129l-227 297q109 96 265 157.5t341 61.5q120 0 219 -30.5t162.5 -82t98 -117t34.5 -136.5
q0 -292 -348 -385q117 -39 174 -110t57 -185q0 -133 -86.5 -236.5t-231.5 -158t-321 -54.5z" />
    <glyph glyph-name="acute" unicode="&#xb4;" horiz-adv-x="1024" 
d="M395 1188l303 393l447 -117l-414 -276h-336z" />
    <glyph glyph-name="mu" unicode="&#xb5;" 
d="M819 377h25l-131 176l307 201l102 -152q31 79 31 160q0 125 -69 201.5t-195 76.5q-74 0 -138 -33.5t-106 -88.5t-66 -123.5t-24 -139.5q0 -125 69 -201.5t195 -76.5zM1204 -94l-90 133q-158 -68 -323 -68q-206 0 -369.5 85.5t-253.5 234t-90 330.5q0 165 65 318.5
t176 268.5t269 184.5t334 69.5q155 0 288 -50t226 -136.5t145.5 -206.5t52.5 -256q0 -155 -59.5 -300.5t-167.5 -264.5l104 -142z" />
    <glyph glyph-name="mu" unicode="&#x3bc;" 
d="M819 377h25l-131 176l307 201l102 -152q31 79 31 160q0 125 -69 201.5t-195 76.5q-74 0 -138 -33.5t-106 -88.5t-66 -123.5t-24 -139.5q0 -125 69 -201.5t195 -76.5zM1204 -94l-90 133q-158 -68 -323 -68q-206 0 -369.5 85.5t-253.5 234t-90 330.5q0 165 65 318.5
t176 268.5t269 184.5t334 69.5q155 0 288 -50t226 -136.5t145.5 -206.5t52.5 -256q0 -155 -59.5 -300.5t-167.5 -264.5l104 -142z" />
    <glyph glyph-name="paragraph" unicode="&#xb6;" horiz-adv-x="1218" 
d="M514 0l115 434q-276 19 -399.5 129t-123.5 295q0 263 190.5 419.5t532.5 156.5h547l-383 -1434h-479z" />
    <glyph glyph-name="periodcentered" unicode="&#xb7;" horiz-adv-x="583" 
d="M12 410l127 471h475l-127 -471h-475z" />
    <glyph glyph-name="periodcentered" unicode="&#x2219;" horiz-adv-x="583" 
d="M12 410l127 471h475l-127 -471h-475z" />
    <glyph glyph-name="cedilla" unicode="&#xb8;" horiz-adv-x="1024" 
d="M332 -354l-336 153l258 242h301z" />
    <glyph glyph-name="ordmasculine" unicode="&#xba;" horiz-adv-x="823" 
d="M530 1012q47 0 79 40.5t32 96.5q0 39 -23 64.5t-59 25.5q-46 0 -78 -41.5t-32 -97.5q0 -39 22.5 -63.5t58.5 -24.5zM94 541l47 178h590l-47 -178h-590zM514 803q-141 0 -224 82.5t-83 210.5q0 139 106 244.5t262 105.5q143 0 225.5 -81.5t82.5 -209.5
q0 -139 -106.5 -245.5t-262.5 -106.5z" />
    <glyph glyph-name="guillemotright" unicode="&#xbb;" horiz-adv-x="1263" 
d="M795 53l-250 228l319 309l-172 348l328 145l221 -458l-49 -181zM229 86l-249 227l339 330l-151 307l328 146l239 -500l-4 -16z" />
    <glyph glyph-name="questiondown" unicode="&#xbf;" horiz-adv-x="1099" 
d="M477 -23q-215 0 -343 104t-128 271q0 179 122.5 305t383.5 168l63 162h283l-31 -356l-26 -23q-334 -34 -334 -149q0 -76 102 -76q123 0 262 100l156 -346q-222 -160 -510 -160zM512 1065l100 369h475l-100 -369h-475z" />
    <glyph glyph-name="Agrave" unicode="&#xc0;" horiz-adv-x="1605" 
d="M930 1516l-262 276l458 117l91 -393h-287zM676 532h262l-39 349zM-184 0l991 1444h475l217 -1444h-510l-24 193h-502l-125 -193h-522z" />
    <glyph glyph-name="Aacute" unicode="&#xc1;" horiz-adv-x="1605" 
d="M868 1516l303 393l447 -117l-414 -276h-336zM676 532h262l-39 349zM-184 0l991 1444h475l217 -1444h-510l-24 193h-502l-125 -193h-522z" />
    <glyph glyph-name="Acircumflex" unicode="&#xc2;" horiz-adv-x="1605" 
d="M612 1516l367 352h336l178 -352h-240l-151 114l-213 -114h-277zM676 532h262l-39 349zM-184 0l991 1444h475l217 -1444h-510l-24 193h-502l-125 -193h-522z" />
    <glyph glyph-name="Atilde" unicode="&#xc3;" horiz-adv-x="1605" 
d="M676 532h262l-39 349zM-184 0l991 1444h475l217 -1444h-510l-24 193h-502l-125 -193h-522zM850 1516l-180 77q54 141 137 211t174 70q73 0 164 -57q62 -43 94 -43q33 0 59 24t58 76l176 -76q-55 -142 -136.5 -212t-172.5 -70q-75 0 -166 57q-56 43 -92 43q-35 0 -62 -25
t-53 -75z" />
    <glyph glyph-name="Adieresis" unicode="&#xc4;" horiz-adv-x="1605" 
d="M635 1516l84 307h377l-84 -307h-377zM1094 1516l84 307h376l-84 -307h-376zM676 532h262l-39 349zM-184 0l991 1444h475l217 -1444h-510l-24 193h-502l-125 -193h-522z" />
    <glyph glyph-name="Aring" unicode="&#xc5;" horiz-adv-x="1605" 
d="M676 532h262l-39 349zM1032 1397q68 0 113 54.5t45 125.5q0 49 -30.5 82t-82.5 33q-68 0 -112.5 -55t-44.5 -126q0 -49 30 -81.5t82 -32.5zM338 0h-522q91 136 481 702l483 701q-22 55 -22 104q0 131 95.5 225.5t229.5 94.5q121 0 195 -70t74 -176q0 -103 -62 -186
l209 -1395h-510l-24 193h-502z" />
    <glyph glyph-name="AE" unicode="&#xc6;" horiz-adv-x="2254" 
d="M729 532h270l144 537h-17zM-186 0l1097 1434h1502l-107 -394h-711l-39 -145h660l-92 -346h-660l-43 -156h721l-104 -393h-1182l51 193h-430l-141 -193h-522z" />
    <glyph glyph-name="Ccedilla" unicode="&#xc7;" horiz-adv-x="1488" 
d="M616 -354l-335 153l223 209q-201 61 -316.5 215.5t-115.5 374.5q0 98 26 198.5t75 197t126.5 181t174 148t224.5 100.5t271 37q237 0 403 -114t207 -304l-422 -186q-49 174 -229 174q-102 0 -185 -58t-126.5 -146.5t-43.5 -184.5q0 -114 63 -178t163 -64q153 0 278 150
l332 -262q-223 -293 -606 -312z" />
    <glyph glyph-name="Egrave" unicode="&#xc8;" horiz-adv-x="1378" 
d="M877 1516l-263 276l459 117l90 -393h-286zM-72 0l385 1434h1223l-106 -394h-752l-39 -145h700l-92 -346h-700l-43 -156h762l-105 -393h-1233z" />
    <glyph glyph-name="Eacute" unicode="&#xc9;" horiz-adv-x="1378" 
d="M729 1516l303 393l447 -117l-414 -276h-336zM-72 0l385 1434h1223l-106 -394h-752l-39 -145h700l-92 -346h-700l-43 -156h762l-105 -393h-1233z" />
    <glyph glyph-name="Ecircumflex" unicode="&#xca;" horiz-adv-x="1378" 
d="M494 1516l366 352h336l178 -352h-239l-152 114l-213 -114h-276zM-72 0l385 1434h1223l-106 -394h-752l-39 -145h700l-92 -346h-700l-43 -156h762l-105 -393h-1233z" />
    <glyph glyph-name="Edieresis" unicode="&#xcb;" horiz-adv-x="1378" 
d="M518 1516l84 307h377l-84 -307h-377zM977 1516l84 307h377l-84 -307h-377zM-72 0l385 1434h1223l-106 -394h-752l-39 -145h700l-92 -346h-700l-43 -156h762l-105 -393h-1233z" />
    <glyph glyph-name="Igrave" unicode="&#xcc;" horiz-adv-x="643" 
d="M461 1516l-262 276l458 117l91 -393h-287zM-68 0l385 1434h480l-385 -1434h-480z" />
    <glyph glyph-name="Iacute" unicode="&#xcd;" horiz-adv-x="643" 
d="M385 1516l303 393l447 -117l-414 -276h-336zM-68 0l385 1434h480l-385 -1434h-480z" />
    <glyph glyph-name="Icircumflex" unicode="&#xce;" horiz-adv-x="643" 
d="M123 1516l366 352h336l179 -352h-240l-152 114l-213 -114h-276zM-68 0l385 1434h480l-385 -1434h-480z" />
    <glyph glyph-name="Idieresis" unicode="&#xcf;" horiz-adv-x="643" 
d="M158 1516l84 307h376l-83 -307h-377zM616 1516l84 307h377l-84 -307h-377zM-68 0l385 1434h480l-385 -1434h-480z" />
    <glyph glyph-name="Eth" unicode="&#xd0;" horiz-adv-x="1642" 
d="M637 395h90q111 0 207.5 33t155.5 92q51 51 82.5 121.5t31.5 140.5q0 113 -63 176q-78 78 -248 78h-86l-37 -141h176l-92 -346h-176zM72 0l147 549h-174l92 346h174l146 539h487q376 0 561 -185q156 -156 156 -420q0 -329 -236 -565q-264 -264 -751 -264h-602z" />
    <glyph glyph-name="Ntilde" unicode="&#xd1;" horiz-adv-x="1589" 
d="M793 1516l-199 83q64 160 153.5 238t190.5 78q88 0 182 -66q68 -47 103 -47q37 0 66.5 28t60.5 85l198 -84q-64 -160 -153.5 -237.5t-190.5 -77.5q-89 0 -182 65q-68 47 -102 47q-37 0 -66.5 -27.5t-60.5 -84.5zM-72 0l385 1434h449l325 -684l185 684h475l-385 -1434
h-426l-340 713l-193 -713h-475z" />
    <glyph glyph-name="Ograve" unicode="&#xd2;" 
d="M897 1516l-262 276l459 117l90 -393h-287zM823 393q73 0 136 33.5t104.5 87.5t65.5 121t24 135q0 120 -69.5 195t-194.5 75q-96 0 -173.5 -57t-117 -142t-39.5 -177q0 -120 69.5 -195.5t194.5 -75.5zM791 -29q-206 0 -369.5 85.5t-253.5 234t-90 330.5q0 165 65 318.5
t176 268.5t269 184.5t334 69.5q155 0 288 -50t226 -136.5t145.5 -206.5t52.5 -256q0 -165 -65 -318.5t-175.5 -269t-268.5 -185t-334 -69.5z" />
    <glyph glyph-name="Oacute" unicode="&#xd3;" 
d="M768 1516l303 393l447 -117l-414 -276h-336zM823 393q73 0 136 33.5t104.5 87.5t65.5 121t24 135q0 120 -69.5 195t-194.5 75q-96 0 -173.5 -57t-117 -142t-39.5 -177q0 -120 69.5 -195.5t194.5 -75.5zM791 -29q-206 0 -369.5 85.5t-253.5 234t-90 330.5q0 165 65 318.5
t176 268.5t269 184.5t334 69.5q155 0 288 -50t226 -136.5t145.5 -206.5t52.5 -256q0 -165 -65 -318.5t-175.5 -269t-268.5 -185t-334 -69.5z" />
    <glyph glyph-name="Ocircumflex" unicode="&#xd4;" 
d="M559 1516l367 352h336l178 -352h-240l-151 114l-213 -114h-277zM823 393q73 0 136 33.5t104.5 87.5t65.5 121t24 135q0 120 -69.5 195t-194.5 75q-96 0 -173.5 -57t-117 -142t-39.5 -177q0 -120 69.5 -195.5t194.5 -75.5zM791 -29q-206 0 -369.5 85.5t-253.5 234
t-90 330.5q0 165 65 318.5t176 268.5t269 184.5t334 69.5q155 0 288 -50t226 -136.5t145.5 -206.5t52.5 -256q0 -165 -65 -318.5t-175.5 -269t-268.5 -185t-334 -69.5z" />
    <glyph glyph-name="Otilde" unicode="&#xd5;" 
d="M823 393q73 0 136 33.5t104.5 87.5t65.5 121t24 135q0 120 -69.5 195t-194.5 75q-96 0 -173.5 -57t-117 -142t-39.5 -177q0 -120 69.5 -195.5t194.5 -75.5zM791 -29q-206 0 -369.5 85.5t-253.5 234t-90 330.5q0 165 65 318.5t176 268.5t269 184.5t334 69.5q155 0 288 -50
t226 -136.5t145.5 -206.5t52.5 -256q0 -165 -65 -318.5t-175.5 -269t-268.5 -185t-334 -69.5zM819 1516l-180 77q54 141 137 211t174 70q73 0 164 -57q62 -43 94 -43q33 0 59 24t58 76l176 -76q-55 -142 -136.5 -212t-172.5 -70q-75 0 -166 57q-56 43 -92 43q-35 0 -62 -25
t-53 -75z" />
    <glyph glyph-name="Odieresis" unicode="&#xd6;" 
d="M602 1516l84 307h377l-84 -307h-377zM1061 1516l84 307h377l-84 -307h-377zM823 393q73 0 136 33.5t104.5 87.5t65.5 121t24 135q0 120 -69.5 195t-194.5 75q-96 0 -173.5 -57t-117 -142t-39.5 -177q0 -120 69.5 -195.5t194.5 -75.5zM791 -29q-206 0 -369.5 85.5
t-253.5 234t-90 330.5q0 165 65 318.5t176 268.5t269 184.5t334 69.5q155 0 288 -50t226 -136.5t145.5 -206.5t52.5 -256q0 -165 -65 -318.5t-175.5 -269t-268.5 -185t-334 -69.5z" />
    <glyph glyph-name="Oslash" unicode="&#xd8;" 
d="M823 383q74 0 139 34.5t108 90t68 125t25 139.5q0 45 -8 72l-477 -428q59 -33 145 -33zM561 573l486 435q-61 43 -158 43q-74 0 -139 -34.5t-108 -90t-68 -125t-25 -139.5q0 -48 12 -89zM791 -29q-263 0 -453 138l-131 -119h-301l289 260q-117 160 -117 371
q0 165 65 318.5t176 268.5t269 184.5t334 69.5q270 0 464 -145l142 127h301l-303 -273q108 -150 108 -358q0 -165 -65 -318.5t-175.5 -269t-268.5 -185t-334 -69.5z" />
    <glyph glyph-name="Ugrave" unicode="&#xd9;" horiz-adv-x="1548" 
d="M907 1505l-262 277l459 116l90 -393h-287zM698 -29q-303 0 -461.5 134.5t-158.5 381.5q0 111 31 232l192 715h487l-200 -746q-17 -73 -17 -113q0 -180 197 -180q94 0 154 60q33 33 56 79.5t46 129.5l207 770h487l-227 -844q-77 -282 -225 -430q-189 -189 -568 -189z" />
    <glyph glyph-name="Uacute" unicode="&#xda;" horiz-adv-x="1548" 
d="M807 1505l303 393l446 -116l-413 -277h-336zM698 -29q-303 0 -461.5 134.5t-158.5 381.5q0 111 31 232l192 715h487l-200 -746q-17 -73 -17 -113q0 -180 197 -180q94 0 154 60q33 33 56 79.5t46 129.5l207 770h487l-227 -844q-77 -282 -225 -430q-189 -189 -568 -189z
" />
    <glyph glyph-name="Ucircumflex" unicode="&#xdb;" horiz-adv-x="1548" 
d="M582 1516l366 352h336l178 -352h-239l-152 114l-213 -114h-276zM698 -29q-303 0 -461.5 134.5t-158.5 381.5q0 111 31 232l192 715h487l-200 -746q-17 -73 -17 -113q0 -180 197 -180q94 0 154 60q33 33 56 79.5t46 129.5l207 770h487l-227 -844q-77 -282 -225 -430
q-189 -189 -568 -189z" />
    <glyph glyph-name="Udieresis" unicode="&#xdc;" horiz-adv-x="1548" 
d="M610 1516l84 307h377l-84 -307h-377zM1069 1516l84 307h377l-84 -307h-377zM698 -29q-303 0 -461.5 134.5t-158.5 381.5q0 111 31 232l192 715h487l-200 -746q-17 -73 -17 -113q0 -180 197 -180q94 0 154 60q33 33 56 79.5t46 129.5l207 770h487l-227 -844
q-77 -282 -225 -430q-189 -189 -568 -189z" />
    <glyph glyph-name="Yacute" unicode="&#xdd;" horiz-adv-x="1441" 
d="M729 1516l303 393l447 -117l-414 -276h-336zM307 0l146 547l-281 887h504l117 -480l372 480h568l-815 -947l-132 -487h-479z" />
    <glyph glyph-name="Thorn" unicode="&#xde;" horiz-adv-x="1382" 
d="M559 561h86q131 0 198.5 52.5t67.5 138.5q0 50 -34 84q-45 45 -144 45h-90zM-72 0l385 1434h480l-52 -201h15q193 0 318 -37.5t204 -116.5q111 -111 111 -282q0 -267 -190.5 -427.5t-520.5 -160.5h-217l-53 -209h-480z" />
    <glyph glyph-name="germandbls" unicode="&#xdf;" horiz-adv-x="1323" 
d="M496 -6l84 319q115 6 172 51.5t57 110.5q0 50 -39 83.5t-115 37.5l58 209q112 22 163.5 77.5t51.5 133.5q0 54 -30.5 85.5t-74.5 31.5q-64 0 -108 -54t-74 -161l-246 -918h-465l250 932q76 283 209 416q87 87 194 126t259 39q231 0 373.5 -112.5t142.5 -302.5
q0 -155 -82 -267t-248 -155q107 -35 165 -106t58 -160q0 -73 -28.5 -139.5t-89.5 -123t-148 -95t-213 -55t-276 -3.5z" />
    <glyph glyph-name="agrave" unicode="&#xe0;" horiz-adv-x="1239" 
d="M690 1188l-262 276l459 117l90 -393h-287zM514 240q56 0 108 51.5t72 128.5l13 47q-46 12 -86 12q-88 0 -135.5 -39.5t-47.5 -111.5q0 -41 21.5 -64.5t54.5 -23.5zM289 -25q-132 0 -215.5 81.5t-83.5 224.5q0 180 131.5 284.5t367.5 104.5q130 0 254 -37l5 12q8 19 8 55
q0 109 -172 109q-80 0 -164.5 -13t-140.5 -36l-62 315q189 60 461 60q271 0 407 -96.5t136 -268.5q0 -76 -21 -156l-164 -614h-465l31 113q-84 -71 -153.5 -104.5t-159.5 -33.5z" />
    <glyph glyph-name="aacute" unicode="&#xe1;" horiz-adv-x="1239" 
d="M563 1188l303 393l447 -117l-414 -276h-336zM514 240q56 0 108 51.5t72 128.5l13 47q-46 12 -86 12q-88 0 -135.5 -39.5t-47.5 -111.5q0 -41 21.5 -64.5t54.5 -23.5zM289 -25q-132 0 -215.5 81.5t-83.5 224.5q0 180 131.5 284.5t367.5 104.5q130 0 254 -37l5 12
q8 19 8 55q0 109 -172 109q-80 0 -164.5 -13t-140.5 -36l-62 315q189 60 461 60q271 0 407 -96.5t136 -268.5q0 -76 -21 -156l-164 -614h-465l31 113q-84 -71 -153.5 -104.5t-159.5 -33.5z" />
    <glyph glyph-name="acircumflex" unicode="&#xe2;" horiz-adv-x="1239" 
d="M354 1188l367 352h336l178 -352h-240l-151 115l-213 -115h-277zM514 240q56 0 108 51.5t72 128.5l13 47q-46 12 -86 12q-88 0 -135.5 -39.5t-47.5 -111.5q0 -41 21.5 -64.5t54.5 -23.5zM289 -25q-132 0 -215.5 81.5t-83.5 224.5q0 180 131.5 284.5t367.5 104.5
q130 0 254 -37l5 12q8 19 8 55q0 109 -172 109q-80 0 -164.5 -13t-140.5 -36l-62 315q189 60 461 60q271 0 407 -96.5t136 -268.5q0 -76 -21 -156l-164 -614h-465l31 113q-84 -71 -153.5 -104.5t-159.5 -33.5z" />
    <glyph glyph-name="atilde" unicode="&#xe3;" horiz-adv-x="1239" 
d="M514 240q56 0 108 51.5t72 128.5l13 47q-46 12 -86 12q-88 0 -135.5 -39.5t-47.5 -111.5q0 -41 21.5 -64.5t54.5 -23.5zM289 -25q-132 0 -215.5 81.5t-83.5 224.5q0 180 131.5 284.5t367.5 104.5q130 0 254 -37l5 12q8 19 8 55q0 109 -172 109q-80 0 -164.5 -13
t-140.5 -36l-62 315q189 60 461 60q271 0 407 -96.5t136 -268.5q0 -76 -21 -156l-164 -614h-465l31 113q-84 -71 -153.5 -104.5t-159.5 -33.5zM592 1188l-180 78q54 141 136.5 210.5t174.5 69.5q73 0 164 -57q62 -43 94 -43q33 0 59 24t58 76l176 -76q-55 -142 -136.5 -212
t-172.5 -70q-75 0 -166 57q-56 43 -92 43q-35 0 -62 -25t-53 -75z" />
    <glyph glyph-name="adieresis" unicode="&#xe4;" horiz-adv-x="1239" 
d="M381 1190l84 307h377l-84 -307h-377zM840 1190l84 307h376l-83 -307h-377zM514 240q56 0 108 51.5t72 128.5l13 47q-46 12 -86 12q-88 0 -135.5 -39.5t-47.5 -111.5q0 -41 21.5 -64.5t54.5 -23.5zM289 -25q-132 0 -215.5 81.5t-83.5 224.5q0 180 131.5 284.5t367.5 104.5
q130 0 254 -37l5 12q8 19 8 55q0 109 -172 109q-80 0 -164.5 -13t-140.5 -36l-62 315q189 60 461 60q271 0 407 -96.5t136 -268.5q0 -76 -21 -156l-164 -614h-465l31 113q-84 -71 -153.5 -104.5t-159.5 -33.5z" />
    <glyph glyph-name="aring" unicode="&#xe5;" horiz-adv-x="1239" 
d="M852 1346q68 0 113 54.5t45 125.5q0 49 -30.5 81.5t-82.5 32.5q-68 0 -113 -54.5t-45 -125.5q0 -49 30.5 -81.5t82.5 -32.5zM846 1210q-121 0 -194.5 70t-73.5 176q0 131 95.5 225.5t229.5 94.5q121 0 194.5 -70t73.5 -176q0 -131 -95.5 -225.5t-229.5 -94.5zM514 240
q56 0 108 51.5t72 128.5l13 47q-46 12 -86 12q-88 0 -135.5 -39.5t-47.5 -111.5q0 -41 21.5 -64.5t54.5 -23.5zM289 -25q-132 0 -215.5 81.5t-83.5 224.5q0 180 131.5 284.5t367.5 104.5q130 0 254 -37l5 12q8 19 8 55q0 109 -172 109q-80 0 -164.5 -13t-140.5 -36l-62 315
q189 60 461 60q271 0 407 -96.5t136 -268.5q0 -76 -21 -156l-164 -614h-465l31 113q-84 -71 -153.5 -104.5t-159.5 -33.5z" />
    <glyph glyph-name="ae" unicode="&#xe6;" horiz-adv-x="1890" 
d="M702 467q-46 12 -81 12q-88 0 -135.5 -39.5t-47.5 -111.5q0 -42 26 -66t73 -24q95 0 188 81q-23 77 -23 148zM1151 655h315q9 21 9 50q0 49 -33 83.5t-88 34.5q-61 0 -117 -40.5t-86 -127.5zM811 162q-112 -103 -220.5 -145t-240.5 -42q-163 0 -261.5 81t-98.5 225
q0 180 131.5 284.5t367.5 104.5q130 0 254 -37l5 12q8 19 8 55q0 109 -172 109q-80 0 -164.5 -13t-140.5 -36l-62 315q189 60 461 60q245 0 360 -103q171 113 365 113q101 0 183 -28t134.5 -74.5t88 -110.5t50.5 -131.5t15 -141.5q0 -118 -33 -208h-719q5 -69 48.5 -109.5
t119.5 -40.5q104 0 226 90l215 -235q-205 -183 -494 -183q-268 0 -426 189z" />
    <glyph glyph-name="ccedilla" unicode="&#xe7;" horiz-adv-x="1157" 
d="M414 -354l-336 153l231 217q-132 55 -206 166t-74 267q0 142 53.5 270.5t144.5 221.5t218.5 147.5t269.5 54.5q196 0 324.5 -102t162.5 -263l-368 -147q-30 135 -144 135q-95 0 -157 -86t-62 -193q0 -61 34 -99t83 -38q55 0 96 20.5t84 73.5l313 -208
q-173 -249 -483 -263z" />
    <glyph glyph-name="egrave" unicode="&#xe8;" horiz-adv-x="1220" 
d="M657 1188l-262 276l459 117l90 -393h-287zM481 655h316q8 19 8 50q0 49 -33 83.5t-88 34.5q-61 0 -117 -40.5t-86 -127.5zM1171 451h-718q5 -69 48.5 -109.5t119.5 -40.5q103 0 225 90l215 -235q-205 -183 -479 -183q-253 0 -401 135t-148 357q0 128 47 249.5t132 217.5
t216 154.5t285 58.5q107 0 192.5 -28t140.5 -74.5t91.5 -110.5t51.5 -131.5t15 -141.5q0 -118 -33 -208z" />
    <glyph glyph-name="eacute" unicode="&#xe9;" horiz-adv-x="1220" 
d="M537 1188l303 393l446 -117l-414 -276h-335zM481 655h316q8 19 8 50q0 49 -33 83.5t-88 34.5q-61 0 -117 -40.5t-86 -127.5zM1171 451h-718q5 -69 48.5 -109.5t119.5 -40.5q103 0 225 90l215 -235q-205 -183 -479 -183q-253 0 -401 135t-148 357q0 128 47 249.5
t132 217.5t216 154.5t285 58.5q107 0 192.5 -28t140.5 -74.5t91.5 -110.5t51.5 -131.5t15 -141.5q0 -118 -33 -208z" />
    <glyph glyph-name="ecircumflex" unicode="&#xea;" horiz-adv-x="1220" 
d="M313 1188l367 352h336l178 -352h-240l-151 115l-213 -115h-277zM481 655h316q8 19 8 50q0 49 -33 83.5t-88 34.5q-61 0 -117 -40.5t-86 -127.5zM1171 451h-718q5 -69 48.5 -109.5t119.5 -40.5q103 0 225 90l215 -235q-205 -183 -479 -183q-253 0 -401 135t-148 357
q0 128 47 249.5t132 217.5t216 154.5t285 58.5q107 0 192.5 -28t140.5 -74.5t91.5 -110.5t51.5 -131.5t15 -141.5q0 -118 -33 -208z" />
    <glyph glyph-name="edieresis" unicode="&#xeb;" horiz-adv-x="1220" 
d="M344 1188l84 307h377l-84 -307h-377zM803 1188l84 307h377l-84 -307h-377zM481 655h316q8 19 8 50q0 49 -33 83.5t-88 34.5q-61 0 -117 -40.5t-86 -127.5zM1171 451h-718q5 -69 48.5 -109.5t119.5 -40.5q103 0 225 90l215 -235q-205 -183 -479 -183q-253 0 -401 135
t-148 357q0 128 47 249.5t132 217.5t216 154.5t285 58.5q107 0 192.5 -28t140.5 -74.5t91.5 -110.5t51.5 -131.5t15 -141.5q0 -118 -33 -208z" />
    <glyph glyph-name="igrave" unicode="&#xec;" horiz-adv-x="616" 
d="M391 1188l-262 276l459 117l90 -393h-287zM-74 0l299 1118h465l-299 -1118h-465z" />
    <glyph glyph-name="iacute" unicode="&#xed;" horiz-adv-x="616" 
d="M262 1188l303 393l447 -117l-414 -276h-336zM-74 0l299 1118h465l-299 -1118h-465z" />
    <glyph glyph-name="icircumflex" unicode="&#xee;" horiz-adv-x="616" 
d="M20 1188l367 352h336l178 -352h-239l-152 115l-213 -115h-277zM-74 0l299 1118h465l-299 -1118h-465z" />
    <glyph glyph-name="idieresis" unicode="&#xef;" horiz-adv-x="616" 
d="M53 1188l84 307h377l-84 -307h-377zM512 1188l84 307h377l-84 -307h-377zM-74 0l299 1118h465l-299 -1118h-465z" />
    <glyph glyph-name="eth" unicode="&#xf0;" horiz-adv-x="1323" 
d="M629 360q85 0 141.5 52t56.5 127q0 59 -42.5 95t-104.5 36q-85 0 -142 -52t-57 -126q0 -59 43 -95.5t105 -36.5zM592 -25q-250 0 -406.5 136t-156.5 338q0 102 40.5 196.5t113.5 166.5t182.5 115.5t238.5 43.5q139 0 225 -47l-86 190l-260 -82l-96 209l264 72l-82 182
h435l28 -68l254 80l96 -209l-262 -71l82 -187q90 -201 90 -397q0 -144 -49.5 -267t-139.5 -211.5t-221.5 -139t-289.5 -50.5z" />
    <glyph glyph-name="ntilde" unicode="&#xf1;" horiz-adv-x="1312" 
d="M559 1188l-199 84q63 159 153 237t192 78q89 0 182 -65q68 -47 102 -47q37 0 66.5 27.5t60.5 84.5l199 -84q-64 -160 -153.5 -237.5t-190.5 -77.5q-90 0 -183 65q-68 47 -102 47q-37 0 -66.5 -27.5t-60.5 -84.5zM-78 0l299 1118h465l-37 -139q60 73 147.5 119.5
t186.5 46.5q152 0 236 -91t84 -251q0 -90 -27 -189l-164 -614h-465l150 557q12 47 12 84q0 46 -24.5 72t-73.5 26q-68 0 -108.5 -44t-65.5 -138l-150 -557h-465z" />
    <glyph glyph-name="ograve" unicode="&#xf2;" horiz-adv-x="1302" 
d="M674 1188l-262 276l458 117l91 -393h-287zM625 352q86 0 144 75t58 177q0 72 -41 117t-108 45q-86 0 -144.5 -75t-58.5 -177q0 -72 41.5 -117t108.5 -45zM596 -27q-129 0 -235.5 40.5t-176.5 111t-108.5 165.5t-38.5 204q0 128 51 246.5t138.5 208t213 143t267.5 53.5
q129 0 235.5 -40.5t176.5 -110.5t108.5 -165t38.5 -204q0 -128 -51 -247t-138.5 -208.5t-213 -143t-267.5 -53.5z" />
    <glyph glyph-name="oacute" unicode="&#xf3;" horiz-adv-x="1302" 
d="M563 1188l303 393l447 -117l-414 -276h-336zM625 352q86 0 144 75t58 177q0 72 -41 117t-108 45q-86 0 -144.5 -75t-58.5 -177q0 -72 41.5 -117t108.5 -45zM596 -27q-129 0 -235.5 40.5t-176.5 111t-108.5 165.5t-38.5 204q0 128 51 246.5t138.5 208t213 143t267.5 53.5
q129 0 235.5 -40.5t176.5 -110.5t108.5 -165t38.5 -204q0 -128 -51 -247t-138.5 -208.5t-213 -143t-267.5 -53.5z" />
    <glyph glyph-name="ocircumflex" unicode="&#xf4;" horiz-adv-x="1302" 
d="M317 1188l367 352h336l178 -352h-240l-151 115l-213 -115h-277zM625 352q86 0 144 75t58 177q0 72 -41 117t-108 45q-86 0 -144.5 -75t-58.5 -177q0 -72 41.5 -117t108.5 -45zM596 -27q-129 0 -235.5 40.5t-176.5 111t-108.5 165.5t-38.5 204q0 128 51 246.5t138.5 208
t213 143t267.5 53.5q129 0 235.5 -40.5t176.5 -110.5t108.5 -165t38.5 -204q0 -128 -51 -247t-138.5 -208.5t-213 -143t-267.5 -53.5z" />
    <glyph glyph-name="otilde" unicode="&#xf5;" horiz-adv-x="1302" 
d="M625 352q86 0 144 75t58 177q0 72 -41 117t-108 45q-86 0 -144.5 -75t-58.5 -177q0 -72 41.5 -117t108.5 -45zM596 -27q-129 0 -235.5 40.5t-176.5 111t-108.5 165.5t-38.5 204q0 128 51 246.5t138.5 208t213 143t267.5 53.5q129 0 235.5 -40.5t176.5 -110.5t108.5 -165
t38.5 -204q0 -128 -51 -247t-138.5 -208.5t-213 -143t-267.5 -53.5zM573 1188l-180 78q54 141 137 210.5t175 69.5q72 0 163 -57q62 -43 95 -43t58 23.5t58 76.5l176 -76q-55 -142 -136.5 -212t-172.5 -70q-75 0 -166 57q-56 43 -92 43q-35 0 -62 -25t-53 -75z" />
    <glyph glyph-name="odieresis" unicode="&#xf6;" horiz-adv-x="1302" 
d="M344 1188l84 307h377l-84 -307h-377zM803 1188l84 307h377l-84 -307h-377zM625 352q86 0 144 75t58 177q0 72 -41 117t-108 45q-86 0 -144.5 -75t-58.5 -177q0 -72 41.5 -117t108.5 -45zM596 -27q-129 0 -235.5 40.5t-176.5 111t-108.5 165.5t-38.5 204q0 128 51 246.5
t138.5 208t213 143t267.5 53.5q129 0 235.5 -40.5t176.5 -110.5t108.5 -165t38.5 -204q0 -128 -51 -247t-138.5 -208.5t-213 -143t-267.5 -53.5z" />
    <glyph glyph-name="oslash" unicode="&#xf8;" horiz-adv-x="1302" 
d="M623 334q93 0 159 82t66 192v10l-303 -266q35 -18 78 -18zM457 477l319 281q-42 28 -96 28q-93 0 -159 -82t-66 -192q0 -21 2 -35zM596 -25q-204 0 -348 101l-96 -86h-273l242 215q-84 128 -84 301q0 121 51 237t138 205t213.5 143t267.5 54q222 0 364 -111l107 94h272
l-260 -229q76 -122 76 -285q0 -123 -51 -239t-138.5 -204.5t-213.5 -142t-267 -53.5z" />
    <glyph glyph-name="ugrave" unicode="&#xf9;" horiz-adv-x="1312" 
d="M745 1188l-262 276l459 117l90 -393h-287zM342 -27q-152 0 -235.5 91t-83.5 251q0 94 26 189l164 614h465l-150 -557q-12 -47 -12 -84q0 -46 24.5 -72t73.5 -26q68 0 108.5 44t65.5 138l150 557h465l-299 -1118h-465l37 139q-60 -73 -147.5 -119.5t-186.5 -46.5z" />
    <glyph glyph-name="uacute" unicode="&#xfa;" horiz-adv-x="1312" 
d="M604 1188l303 393l447 -117l-414 -276h-336zM342 -27q-152 0 -235.5 91t-83.5 251q0 94 26 189l164 614h465l-150 -557q-12 -47 -12 -84q0 -46 24.5 -72t73.5 -26q68 0 108.5 44t65.5 138l150 557h465l-299 -1118h-465l37 139q-60 -73 -147.5 -119.5t-186.5 -46.5z" />
    <glyph glyph-name="ucircumflex" unicode="&#xfb;" horiz-adv-x="1312" 
d="M377 1188l366 352h336l178 -352h-239l-152 115l-213 -115h-276zM342 -27q-152 0 -235.5 91t-83.5 251q0 94 26 189l164 614h465l-150 -557q-12 -47 -12 -84q0 -46 24.5 -72t73.5 -26q68 0 108.5 44t65.5 138l150 557h465l-299 -1118h-465l37 139q-60 -73 -147.5 -119.5
t-186.5 -46.5z" />
    <glyph glyph-name="udieresis" unicode="&#xfc;" horiz-adv-x="1312" 
d="M416 1188l84 307h377l-84 -307h-377zM874 1188l84 307h377l-84 -307h-377zM342 -27q-152 0 -235.5 91t-83.5 251q0 94 26 189l164 614h465l-150 -557q-12 -47 -12 -84q0 -46 24.5 -72t73.5 -26q68 0 108.5 44t65.5 138l150 557h465l-299 -1118h-465l37 139
q-60 -73 -147.5 -119.5t-186.5 -46.5z" />
    <glyph glyph-name="yacute" unicode="&#xfd;" horiz-adv-x="1335" 
d="M623 1188l303 393l446 -117l-414 -276h-335zM211 -334q-204 0 -332 84l180 342q94 -65 187 -65q36 0 73 12l-153 1079h471l39 -588l334 588h483l-690 -1079q-133 -206 -268 -289.5t-324 -83.5z" />
    <glyph glyph-name="thorn" unicode="&#xfe;" horiz-adv-x="1374" 
d="M659 354q92 0 156 76t64 176q0 72 -42 116t-108 44q-93 0 -156 -75.5t-63 -176.5q0 -72 41.5 -116t107.5 -44zM-166 -328l488 1823h464l-131 -491q62 64 147 102.5t173 38.5q154 0 260 -118t106 -318q0 -150 -46 -286.5t-124 -235t-187 -156.5t-230 -58q-219 0 -328 170
l-127 -471h-465z" />
    <glyph glyph-name="ydieresis" unicode="&#xff;" horiz-adv-x="1335" 
d="M412 1188l84 307h376l-84 -307h-376zM870 1188l84 307h377l-84 -307h-377zM211 -334q-204 0 -332 84l180 342q94 -65 187 -65q36 0 73 12l-153 1079h471l39 -588l334 588h483l-690 -1079q-133 -206 -268 -289.5t-324 -83.5z" />
    <glyph glyph-name="Abreve" unicode="&#x102;" horiz-adv-x="1605" 
d="M676 532h262l-39 349zM-184 0l991 1444h475l217 -1444h-510l-24 193h-502l-125 -193h-522zM1090 1520q-177 0 -281 88.5t-104 257.5v8h249q6 -53 43.5 -84t102.5 -31q142 0 203 115h249q-44 -167 -168.5 -260.5t-293.5 -93.5z" />
    <glyph glyph-name="abreve" unicode="&#x103;" horiz-adv-x="1239" 
d="M838 1186q-177 0 -281 88.5t-104 257.5v8h249q6 -53 43.5 -84t102.5 -31q142 0 203 115h249q-44 -167 -168.5 -260.5t-293.5 -93.5zM514 240q56 0 108 51.5t72 128.5l13 47q-46 12 -86 12q-88 0 -135.5 -39.5t-47.5 -111.5q0 -41 21.5 -64.5t54.5 -23.5zM289 -25
q-132 0 -215.5 81.5t-83.5 224.5q0 180 131.5 284.5t367.5 104.5q130 0 254 -37l5 12q8 19 8 55q0 109 -172 109q-80 0 -164.5 -13t-140.5 -36l-62 315q189 60 461 60q271 0 407 -96.5t136 -268.5q0 -76 -21 -156l-164 -614h-465l31 113q-84 -71 -153.5 -104.5t-159.5 -33.5
z" />
    <glyph glyph-name="Dcroat" unicode="&#x110;" horiz-adv-x="1527" 
d="M-29 621l76 272h121l145 541h508q376 0 561 -185q156 -156 156 -420q0 -330 -235 -565q-264 -264 -752 -264h-623l166 621h-123zM520 418h84q110 0 199 30.5t145 86.5q45 45 74 111.5t29 131.5q0 106 -60 166q-72 72 -231 72h-80l-33 -123h223l-75 -272h-222z" />
    <glyph glyph-name="dcroat" unicode="&#x111;" horiz-adv-x="1374" 
d="M399 -27q-154 0 -260 118.5t-106 318.5q0 201 78 370t213.5 267t296.5 98q218 0 327 -170l66 244h-240l51 194h240l22 82h465l-22 -82h127l-51 -194h-127l-326 -1219h-465l31 115q-62 -64 -147 -103t-173 -39zM645 352q92 0 155.5 76t63.5 176q0 72 -41.5 116t-107.5 44
q-93 0 -156 -75.5t-63 -176.5q0 -72 41.5 -116t107.5 -44z" />
    <glyph glyph-name="Itilde" unicode="&#x128;" horiz-adv-x="643" 
d="M360 1516l-180 77q54 141 137 211t175 70q72 0 163 -57q62 -43 95 -43t58 23.5t58 76.5l176 -76q-55 -142 -136.5 -212t-172.5 -70q-75 0 -166 57q-56 43 -92 43q-35 0 -62 -25t-53 -75zM-68 0l385 1434h480l-385 -1434h-480z" />
    <glyph glyph-name="itilde" unicode="&#x129;" horiz-adv-x="616" 
d="M-74 0l299 1118h465l-299 -1118h-465zM250 1188l-180 78q54 141 136.5 210.5t174.5 69.5q73 0 164 -57q62 -43 94 -43q33 0 59 24t58 76l176 -76q-55 -142 -136.5 -212t-172.5 -70q-75 0 -166 57q-56 43 -92 43q-35 0 -62 -25t-53 -75z" />
    <glyph glyph-name="dotlessi" unicode="&#x131;" horiz-adv-x="616" 
d="M-74 0l299 1118h465l-299 -1118h-465z" />
    <glyph glyph-name="Lslash" unicode="&#x141;" horiz-adv-x="1366" 
d="M57 0l125 467l-170 -45l113 416l170 45l147 551h480l-111 -410l358 96l-112 -415l-357 -97l-53 -198h643l-110 -410h-1123z" />
    <glyph glyph-name="lslash" unicode="&#x142;" horiz-adv-x="892" 
d="M63 0l136 508l-193 -51l109 403l192 51l158 584h465l-123 -455l194 52l-108 -406l-195 -51l-170 -635h-465z" />
    <glyph glyph-name="OE" unicode="&#x152;" horiz-adv-x="2228" 
d="M852 418h80l160 598h-84q-110 0 -199 -30.5t-145 -86.5q-45 -45 -74 -112t-29 -132q0 -106 60 -166q71 -71 231 -71zM2011 0h-1220q-378 0 -562 184q-155 155 -155 420q0 330 235 565q265 265 752 265h1325l-107 -394h-710l-39 -145h659l-92 -346h-659l-43 -156h721z" />
    <glyph glyph-name="oe" unicode="&#x153;" horiz-adv-x="1998" 
d="M625 354q86 0 144 74t58 176q0 72 -41 117t-108 45q-86 0 -144.5 -74t-58.5 -176q0 -72 41.5 -117t108.5 -45zM1260 655h315q8 19 8 50q0 49 -33 83.5t-88 34.5q-61 0 -116.5 -40.5t-85.5 -127.5zM1950 451h-719q5 -69 48.5 -109.5t119.5 -40.5q103 0 225 90l215 -235
q-205 -183 -493 -183q-211 0 -357 146q-173 -144 -393 -144q-172 0 -300 70.5t-193.5 190t-65.5 270.5q0 121 51 237t138 205t213.5 143t267.5 54q231 0 378 -150q182 150 416 150q103 0 185.5 -28t137 -75t91 -110.5t52 -131t15.5 -141.5q0 -120 -32 -208z" />
    <glyph glyph-name="Scaron" unicode="&#x160;" horiz-adv-x="1337" 
d="M735 1516l-178 352h240l151 -115l213 115h277l-367 -352h-336zM633 -29q-210 0 -391 69t-316 191l275 328q240 -203 483 -203q48 0 76 17t28 47q0 24 -17 40t-61.5 35.5t-156.5 61.5q-211 77 -301 164.5t-90 239.5q0 103 46.5 194.5t129 159.5t204.5 107.5t265 39.5
q189 0 354.5 -57t284.5 -158l-275 -327q-88 71 -195.5 115t-217.5 44q-105 0 -105 -57q0 -29 37 -48.5t193 -76.5q100 -38 167.5 -73t123 -83t82 -111t26.5 -145q0 -108 -44.5 -202t-126 -163.5t-205 -109t-273.5 -39.5z" />
    <glyph glyph-name="scaron" unicode="&#x161;" horiz-adv-x="1069" 
d="M551 1188l-178 352h239l152 -115l213 115h276l-366 -352h-336zM496 -27q-348 0 -598 187l204 266q73 -62 191 -107t211 -45q65 0 65 39q0 28 -34.5 49t-139.5 58q-151 55 -228 127.5t-77 195.5q0 83 35 156t100.5 128t165.5 86.5t223 31.5q163 0 300.5 -42t228.5 -112
l-205 -266q-70 48 -165.5 83.5t-174.5 35.5q-74 0 -74 -37q0 -23 28.5 -38.5t133.5 -53.5q61 -22 102.5 -41.5t85.5 -48.5t70 -62t43 -80.5t17 -105.5t-16 -113.5t-54.5 -109t-95.5 -93t-145 -64t-197 -24.5z" />
    <glyph glyph-name="Utilde" unicode="&#x168;" horiz-adv-x="1548" 
d="M850 1511l-162 74q52 135 125.5 201.5t155.5 66.5q70 0 149 -55q54 -41 84 -41t54 23.5t51 72.5l161 -71q-52 -136 -125.5 -203.5t-154.5 -67.5q-69 0 -150 56q-54 41 -84 41t-53 -23.5t-51 -73.5zM698 -29q-303 0 -461.5 134.5t-158.5 381.5q0 111 31 232l192 715h487
l-200 -746q-17 -73 -17 -113q0 -180 197 -180q94 0 154 60q33 33 56 79.5t46 129.5l207 770h487l-227 -844q-77 -282 -225 -430q-189 -189 -568 -189z" />
    <glyph glyph-name="utilde" unicode="&#x169;" horiz-adv-x="1312" 
d="M586 1188l-180 78q54 141 136.5 210.5t174.5 69.5q73 0 164 -57q62 -43 94 -43q33 0 59 24t58 76l176 -76q-55 -141 -137 -211.5t-173 -70.5q-74 0 -165 57q-56 43 -93 43q-35 0 -61 -24.5t-53 -75.5zM342 -27q-152 0 -235.5 91t-83.5 251q0 94 26 189l164 614h465
l-150 -557q-12 -47 -12 -84q0 -46 24.5 -72t73.5 -26q68 0 108.5 44t65.5 138l150 557h465l-299 -1118h-465l37 139q-60 -73 -147.5 -119.5t-186.5 -46.5z" />
    <glyph glyph-name="Ydieresis" unicode="&#x178;" horiz-adv-x="1441" 
d="M524 1516l84 307h377l-84 -307h-377zM983 1516l84 307h377l-84 -307h-377zM307 0l146 547l-281 887h504l117 -480l372 480h568l-815 -947l-132 -487h-479z" />
    <glyph glyph-name="Zcaron" unicode="&#x17d;" horiz-adv-x="1378" 
d="M770 1516l-178 352h239l152 -115l213 115h277l-367 -352h-336zM-109 0l91 336l817 704h-604l106 394h1272l-90 -336l-819 -705h628l-104 -393h-1297z" />
    <glyph glyph-name="zcaron" unicode="&#x17e;" horiz-adv-x="1144" 
d="M571 1188l-178 352h240l151 -115l213 115h277l-367 -352h-336zM-106 0l77 291l584 463h-440l96 364h1059l-78 -291l-584 -462h461l-98 -365h-1077z" />
    <glyph glyph-name="florin" unicode="&#x192;" horiz-adv-x="1177" 
d="M102 -31q-108 0 -221 25l62 317q54 -16 108 -16q64 0 104 32.5t83 127.5l86 190h-111l63 330h195l64 139q86 190 220.5 270t362.5 80q134 0 242 -24l-62 -318q-80 17 -129 17q-77 0 -124.5 -31t-77.5 -98l-17 -35h236l-64 -330h-319l-125 -283q-96 -218 -228.5 -305.5
t-347.5 -87.5z" />
    <glyph glyph-name="Ohorn" unicode="&#x1a0;" 
d="M791 -29q-206 0 -369.5 85.5t-253.5 234t-90 330.5q0 165 65 318.5t176 268.5t269 184.5t334 69.5q160 0 288 -51q8 -3 25 -10t25 -10q68 3 106 14q34 9 41 33q11 -1 20.5 31.5t4.5 92t-31 117.5h350q14 -207 -39 -321q-53 -134 -182 -195q32 -50 51 -94q53 -121 53 -256
q0 -165 -65 -318.5t-175.5 -269t-268.5 -185t-334 -69.5zM823 393q73 0 136 33.5t104.5 87.5t65.5 121t24 135q0 120 -69.5 195t-194.5 75q-96 0 -173.5 -57t-117 -142t-39.5 -177q0 -120 69.5 -195.5t194.5 -75.5z" />
    <glyph glyph-name="ohorn" unicode="&#x1a1;" horiz-adv-x="1333" 
d="M596 -27q-129 0 -235.5 40.5t-176.5 111t-108.5 165.5t-38.5 204q0 128 51 246.5t138.5 208t213 143t267.5 53.5q129 0 235 -41l43 -19q59 6 86 15q34 9 41 33q11 -1 20.5 31.5t4.5 92t-31 117.5h350q14 -207 -39 -321q-52 -134 -188 -199q-2 -1 -5.5 -2t-4.5 -2
q0 -1 3.5 -9.5t4.5 -13.5q39 -91 39 -202q0 -128 -51 -247t-138.5 -208.5t-213 -143t-267.5 -53.5zM625 352q86 0 144 75t58 177q0 72 -41 117t-108 45q-86 0 -144.5 -75t-58.5 -177q0 -72 41.5 -117t108.5 -45z" />
    <glyph glyph-name="Uhorn" unicode="&#x1af;" horiz-adv-x="1710" 
d="M698 -29q-303 0 -461.5 134.5t-158.5 381.5q0 111 31 232l192 715h487l-200 -746q-17 -73 -17 -113q0 -180 197 -180q94 0 154 60q33 33 56 79.5t46 129.5l207 770h317q7 1 14.5 2.5t14.5 3t10 2.5q34 9 41 33q11 -1 20.5 31.5t4.5 92t-31 117.5h350q14 -207 -39 -321
q-52 -134 -188 -199q-44 -20 -100 -35l-154 -571q-77 -282 -225 -430q-189 -189 -568 -189z" />
    <glyph glyph-name="uhorn" unicode="&#x1b0;" horiz-adv-x="1509" 
d="M342 -27q-152 0 -235.5 91t-83.5 251q0 94 26 189l164 614h465l-150 -557q-12 -47 -12 -84q0 -46 24.5 -72t73.5 -26q68 0 108.5 44t65.5 138l150 557h274q32 3 54 10q34 9 41 33q11 -1 20 32t4 92.5t-31 117.5h351q14 -208 -39 -322q-51 -132 -189 -198q-46 -19 -92 -33
l-227 -850h-465l37 139q-60 -73 -147.5 -119.5t-186.5 -46.5z" />
    <glyph glyph-name="circumflex" unicode="&#x2c6;" horiz-adv-x="1024" 
d="M240 1188l366 352h336l178 -352h-239l-152 115l-213 -115h-276z" />
    <glyph glyph-name="caron" unicode="&#x2c7;" horiz-adv-x="1024" 
d="M512 1188l-178 352h239l152 -115l213 115h276l-366 -352h-336z" />
    <glyph glyph-name="breve" unicode="&#x2d8;" horiz-adv-x="1024" 
d="M735 1186q-177 0 -281 88.5t-104 257.5v8h250q6 -53 43 -84t102 -31q142 0 203 115h250q-44 -167 -169 -260.5t-294 -93.5z" />
    <glyph glyph-name="dotaccent" unicode="&#x2d9;" horiz-adv-x="1024" 
d="M485 1188l84 307h385l-84 -307h-385z" />
    <glyph glyph-name="ring" unicode="&#x2da;" horiz-adv-x="1024" 
d="M735 1346q68 0 113 54.5t45 125.5q0 49 -30.5 81.5t-82.5 32.5q-68 0 -112.5 -54.5t-44.5 -125.5q0 -49 30 -81.5t82 -32.5zM729 1210q-121 0 -194.5 70t-73.5 176q0 131 95.5 225.5t229.5 94.5q121 0 195 -70t74 -176q0 -131 -95.5 -225.5t-230.5 -94.5z" />
    <glyph glyph-name="ogonek" unicode="&#x2db;" horiz-adv-x="1024" 
d="M608 -141l-53 -195q-223 -28 -337 15.5t-114 144.5q0 97 105 196h272q-39 -59 -39 -94q0 -33 42 -52t124 -15z" />
    <glyph glyph-name="tilde" unicode="&#x2dc;" horiz-adv-x="1024" 
d="M457 1188l-199 84q64 160 153.5 237.5t190.5 77.5q89 0 182 -65q68 -47 103 -47q37 0 66.5 27.5t60.5 84.5l198 -84q-64 -160 -153.5 -237.5t-190.5 -77.5q-89 0 -182 65q-68 47 -102 47q-37 0 -66.5 -27.5t-60.5 -84.5z" />
    <glyph glyph-name="hungarumlaut" unicode="&#x2dd;" horiz-adv-x="1024" 
d="M764 1370l-252 -182h-309l282 393l353 -100l67 100l410 -117l-363 -276h-309z" />
    <glyph glyph-name="Omega" unicode="&#x3a9;" horiz-adv-x="1736" 
d="M8 0l203 760h-131l96 358h131q56 211 175 301t327 90q156 0 283 -41l-78 -288q-64 22 -127 22q-57 0 -85 -20t-40 -68l-2 -8h235l-92 -346h-227l-203 -760h-465zM877 0l202 760h-131l96 358h132q56 212 174.5 301.5t326.5 89.5q156 0 283 -41l-78 -288q-64 22 -127 22
q-57 0 -85 -20t-40 -68l-2 -8h236l-92 -346h-228l-203 -760h-464z" />
    <glyph glyph-name="Omega" unicode="&#x2126;" horiz-adv-x="1736" 
d="M8 0l203 760h-131l96 358h131q56 211 175 301t327 90q156 0 283 -41l-78 -288q-64 22 -127 22q-57 0 -85 -20t-40 -68l-2 -8h235l-92 -346h-227l-203 -760h-465zM877 0l202 760h-131l96 358h132q56 212 174.5 301.5t326.5 89.5q156 0 283 -41l-78 -288q-64 22 -127 22
q-57 0 -85 -20t-40 -68l-2 -8h236l-92 -346h-228l-203 -760h-464z" />
    <glyph glyph-name="pi" unicode="&#x3c0;" horiz-adv-x="1699" 
d="M854 737h70q52 0 82 22.5t30 63.5v4q0 86 -110 86h-72v-176zM590 336v788h354q164 0 258 -72t94 -210v-4q0 -138 -96.5 -213.5t-259.5 -75.5h-86v-213h-264zM897 51q138 0 260.5 53.5t209 143.5t137 212.5t50.5 256.5v4q0 179 -85 330.5t-235.5 241t-332.5 89.5
q-183 0 -335 -90.5t-237 -243t-85 -331.5v-4q0 -134 50 -256t136 -211t208 -142t259 -53zM897 -31q-153 0 -290.5 60t-235.5 160.5t-155.5 237.5t-57.5 286v4q0 148 58 285.5t156.5 239t237 162t291.5 60.5t290.5 -60t235.5 -160t155.5 -237t57.5 -286v-4q0 -148 -58 -285.5
t-156.5 -239t-237 -162.5t-291.5 -61z" />
    <glyph glyph-name="uni1EA0" unicode="&#x1ea0;" horiz-adv-x="1605" 
d="M387 -391l68 270h358l-68 -270h-358zM676 532h262l-39 349zM-184 0l991 1444h475l217 -1444h-510l-24 193h-502l-125 -193h-522z" />
    <glyph glyph-name="uni1EA1" unicode="&#x1ea1;" horiz-adv-x="1239" 
d="M240 -391l67 270h359l-68 -270h-358zM514 240q56 0 108 51.5t72 128.5l13 47q-46 12 -86 12q-88 0 -135.5 -39.5t-47.5 -111.5q0 -41 21.5 -64.5t54.5 -23.5zM289 -25q-132 0 -215.5 81.5t-83.5 224.5q0 180 131.5 284.5t367.5 104.5q130 0 254 -37l5 12q8 19 8 55
q0 109 -172 109q-80 0 -164.5 -13t-140.5 -36l-62 315q189 60 461 60q271 0 407 -96.5t136 -268.5q0 -76 -21 -156l-164 -614h-465l31 113q-84 -71 -153.5 -104.5t-159.5 -33.5z" />
    <glyph glyph-name="uni1EA2" unicode="&#x1ea2;" horiz-adv-x="1605" 
d="M971 1536l59 219q172 0 197 92q4 18 -12.5 29t-36.5 6q-43 0 -119 -45l-170 115q187 156 373 147q131 0 188.5 -67t28.5 -183q-34 -102 -106.5 -158t-160.5 -73l-41 -82h-200zM676 532h262l-39 349zM-184 0l991 1444h475l217 -1444h-510l-24 193h-502l-125 -193h-522z
" />
    <glyph glyph-name="uni1EA3" unicode="&#x1ea3;" horiz-adv-x="1239" 
d="M725 1186l59 219q172 0 197 92q4 18 -12.5 29t-36.5 6q-43 0 -119 -45l-170 115q187 156 373 147q131 0 188.5 -67t28.5 -183q-34 -102 -106 -158t-160 -73l-41 -82h-201zM514 240q56 0 108 51.5t72 128.5l13 47q-46 12 -86 12q-88 0 -135.5 -39.5t-47.5 -111.5
q0 -41 21.5 -64.5t54.5 -23.5zM289 -25q-132 0 -215.5 81.5t-83.5 224.5q0 180 131.5 284.5t367.5 104.5q130 0 254 -37l5 12q8 19 8 55q0 109 -172 109q-80 0 -164.5 -13t-140.5 -36l-62 315q189 60 461 60q271 0 407 -96.5t136 -268.5q0 -76 -21 -156l-164 -614h-465
l31 113q-84 -71 -153.5 -104.5t-159.5 -33.5z" />
    <glyph glyph-name="uni1EA4" unicode="&#x1ea4;" horiz-adv-x="1605" 
d="M1417 1788l303 393l447 -117l-414 -276h-336zM612 1516l367 352h336l178 -352h-240l-151 114l-213 -114h-277zM676 532h262l-39 349zM-184 0l991 1444h475l217 -1444h-510l-24 193h-502l-125 -193h-522z" />
    <glyph glyph-name="uni1EA5" unicode="&#x1ea5;" horiz-adv-x="1239" 
d="M1159 1460l303 393l447 -116l-414 -277h-336zM354 1188l367 352h336l178 -352h-240l-151 115l-213 -115h-277zM514 240q56 0 108 51.5t72 128.5l13 47q-46 12 -86 12q-88 0 -135.5 -39.5t-47.5 -111.5q0 -41 21.5 -64.5t54.5 -23.5zM289 -25q-132 0 -215.5 81.5
t-83.5 224.5q0 180 131.5 284.5t367.5 104.5q130 0 254 -37l5 12q8 19 8 55q0 109 -172 109q-80 0 -164.5 -13t-140.5 -36l-62 315q189 60 461 60q271 0 407 -96.5t136 -268.5q0 -76 -21 -156l-164 -614h-465l31 113q-84 -71 -153.5 -104.5t-159.5 -33.5z" />
    <glyph glyph-name="uni1EA6" unicode="&#x1ea6;" horiz-adv-x="1605" 
d="M1485 1786l-262 276l458 117l91 -393h-287zM612 1516l367 352h336l178 -352h-240l-151 114l-213 -114h-277zM676 532h262l-39 349zM-184 0l991 1444h475l217 -1444h-510l-24 193h-502l-125 -193h-522z" />
    <glyph glyph-name="uni1EA7" unicode="&#x1ea7;" horiz-adv-x="1239" 
d="M1225 1458l-262 277l458 116l90 -393h-286zM354 1188l367 352h336l178 -352h-240l-151 115l-213 -115h-277zM514 240q56 0 108 51.5t72 128.5l13 47q-46 12 -86 12q-88 0 -135.5 -39.5t-47.5 -111.5q0 -41 21.5 -64.5t54.5 -23.5zM289 -25q-132 0 -215.5 81.5
t-83.5 224.5q0 180 131.5 284.5t367.5 104.5q130 0 254 -37l5 12q8 19 8 55q0 109 -172 109q-80 0 -164.5 -13t-140.5 -36l-62 315q189 60 461 60q271 0 407 -96.5t136 -268.5q0 -76 -21 -156l-164 -614h-465l31 113q-84 -71 -153.5 -104.5t-159.5 -33.5z" />
    <glyph glyph-name="uni1EA8" unicode="&#x1ea8;" horiz-adv-x="1605" 
d="M1425 1763l58 207q170 0 196 84q1 18 -14 27.5t-37 7.5q-41 0 -117 -45l-168 108q95 75 184.5 108.5t184.5 29.5q131 0 187.5 -62t27.5 -172q-64 -176 -262 -215l-43 -78h-197zM612 1516l367 352h336l178 -352h-240l-151 114l-213 -114h-277zM676 532h262l-39 349z
M-184 0l991 1444h475l217 -1444h-510l-24 193h-502l-125 -193h-522z" />
    <glyph glyph-name="uni1EA9" unicode="&#x1ea9;" horiz-adv-x="1239" 
d="M1167 1436l58 206q170 0 196 84q1 18 -14 27.5t-37 7.5q-41 0 -117 -45l-168 109q186 146 369 137q131 0 187.5 -61.5t27.5 -171.5q-64 -177 -262 -216l-43 -77h-197zM354 1188l367 352h336l178 -352h-240l-151 115l-213 -115h-277zM514 240q56 0 108 51.5t72 128.5
l13 47q-46 12 -86 12q-88 0 -135.5 -39.5t-47.5 -111.5q0 -41 21.5 -64.5t54.5 -23.5zM289 -25q-132 0 -215.5 81.5t-83.5 224.5q0 180 131.5 284.5t367.5 104.5q130 0 254 -37l5 12q8 19 8 55q0 109 -172 109q-80 0 -164.5 -13t-140.5 -36l-62 315q189 60 461 60
q271 0 407 -96.5t136 -268.5q0 -76 -21 -156l-164 -614h-465l31 113q-84 -71 -153.5 -104.5t-159.5 -33.5z" />
    <glyph glyph-name="uni1EAA" unicode="&#x1eaa;" horiz-adv-x="1605" 
d="M952 1960l-180 78q54 141 136.5 210.5t174.5 69.5q73 0 164 -57q62 -43 94 -43q33 0 59 24t58 76l176 -75q-55 -142 -136.5 -212.5t-172.5 -70.5q-75 0 -166 57q-56 43 -92 43q-35 0 -62 -25t-53 -75zM612 1516l367 352h336l178 -352h-240l-151 114l-213 -114h-277z
M676 532h262l-39 349zM-184 0l991 1444h475l217 -1444h-510l-24 193h-502l-125 -193h-522z" />
    <glyph glyph-name="uni1EAB" unicode="&#x1eab;" horiz-adv-x="1239" 
d="M694 1632l-180 78q54 141 137 211t174 70q72 0 164 -58q62 -43 94 -43q33 0 58.5 24t58.5 77l176 -76q-55 -142 -136.5 -212.5t-172.5 -70.5q-74 0 -166 58q-56 43 -92 43q-35 0 -61.5 -25t-53.5 -76zM354 1188l367 352h336l178 -352h-240l-151 115l-213 -115h-277z
M514 240q56 0 108 51.5t72 128.5l13 47q-46 12 -86 12q-88 0 -135.5 -39.5t-47.5 -111.5q0 -41 21.5 -64.5t54.5 -23.5zM289 -25q-132 0 -215.5 81.5t-83.5 224.5q0 180 131.5 284.5t367.5 104.5q130 0 254 -37l5 12q8 19 8 55q0 109 -172 109q-80 0 -164.5 -13t-140.5 -36
l-62 315q189 60 461 60q271 0 407 -96.5t136 -268.5q0 -76 -21 -156l-164 -614h-465l31 113q-84 -71 -153.5 -104.5t-159.5 -33.5z" />
    <glyph glyph-name="uni1EAC" unicode="&#x1eac;" horiz-adv-x="1605" 
d="M387 -391l68 270h358l-68 -270h-358zM612 1516l367 352h336l178 -352h-240l-151 114l-213 -114h-277zM676 532h262l-39 349zM-184 0l991 1444h475l217 -1444h-510l-24 193h-502l-125 -193h-522z" />
    <glyph glyph-name="uni1EAD" unicode="&#x1ead;" horiz-adv-x="1239" 
d="M240 -391l67 270h359l-68 -270h-358zM354 1188l367 352h336l178 -352h-240l-151 115l-213 -115h-277zM514 240q56 0 108 51.5t72 128.5l13 47q-46 12 -86 12q-88 0 -135.5 -39.5t-47.5 -111.5q0 -41 21.5 -64.5t54.5 -23.5zM289 -25q-132 0 -215.5 81.5t-83.5 224.5
q0 180 131.5 284.5t367.5 104.5q130 0 254 -37l5 12q8 19 8 55q0 109 -172 109q-80 0 -164.5 -13t-140.5 -36l-62 315q189 60 461 60q271 0 407 -96.5t136 -268.5q0 -76 -21 -156l-164 -614h-465l31 113q-84 -71 -153.5 -104.5t-159.5 -33.5z" />
    <glyph glyph-name="uni1EAE" unicode="&#x1eae;" horiz-adv-x="1605" 
d="M926 1927l303 393l446 -116l-413 -277h-336zM676 532h262l-39 349zM-184 0l991 1444h475l217 -1444h-510l-24 193h-502l-125 -193h-522zM1090 1520q-177 0 -281 88.5t-104 257.5v8h249q6 -53 43.5 -84t102.5 -31q142 0 203 115h249q-44 -167 -168.5 -260.5t-293.5 -93.5z
" />
    <glyph glyph-name="uni1EAF" unicode="&#x1eaf;" horiz-adv-x="1239" 
d="M674 1593l303 394l446 -117l-413 -277h-336zM838 1186q-177 0 -281 88.5t-104 257.5v8h249q6 -53 43.5 -84t102.5 -31q142 0 203 115h249q-44 -167 -168.5 -260.5t-293.5 -93.5zM514 240q56 0 108 51.5t72 128.5l13 47q-46 12 -86 12q-88 0 -135.5 -39.5t-47.5 -111.5
q0 -41 21.5 -64.5t54.5 -23.5zM289 -25q-132 0 -215.5 81.5t-83.5 224.5q0 180 131.5 284.5t367.5 104.5q130 0 254 -37l5 12q8 19 8 55q0 109 -172 109q-80 0 -164.5 -13t-140.5 -36l-62 315q189 60 461 60q271 0 407 -96.5t136 -268.5q0 -76 -21 -156l-164 -614h-465
l31 113q-84 -71 -153.5 -104.5t-159.5 -33.5z" />
    <glyph glyph-name="uni1EB0" unicode="&#x1eb0;" horiz-adv-x="1605" 
d="M1001 1929l-262 277l459 116l90 -393h-287zM676 532h262l-39 349zM-184 0l991 1444h475l217 -1444h-510l-24 193h-502l-125 -193h-522zM1090 1520q-177 0 -281 88.5t-104 257.5v8h249q6 -53 43.5 -84t102.5 -31q142 0 203 115h249q-44 -167 -168.5 -260.5t-293.5 -93.5z
" />
    <glyph glyph-name="uni1EB1" unicode="&#x1eb1;" horiz-adv-x="1239" 
d="M750 1595l-263 277l459 117l90 -394h-286zM838 1186q-177 0 -281 88.5t-104 257.5v8h249q6 -53 43.5 -84t102.5 -31q142 0 203 115h249q-44 -167 -168.5 -260.5t-293.5 -93.5zM514 240q56 0 108 51.5t72 128.5l13 47q-46 12 -86 12q-88 0 -135.5 -39.5t-47.5 -111.5
q0 -41 21.5 -64.5t54.5 -23.5zM289 -25q-132 0 -215.5 81.5t-83.5 224.5q0 180 131.5 284.5t367.5 104.5q130 0 254 -37l5 12q8 19 8 55q0 109 -172 109q-80 0 -164.5 -13t-140.5 -36l-62 315q189 60 461 60q271 0 407 -96.5t136 -268.5q0 -76 -21 -156l-164 -614h-465
l31 113q-84 -71 -153.5 -104.5t-159.5 -33.5z" />
    <glyph glyph-name="uni1EB2" unicode="&#x1eb2;" horiz-adv-x="1605" 
d="M1024 1866l57 217q77 0 129.5 22.5t65.5 67.5q4 18 -12.5 29t-36.5 6q-41 0 -117 -45l-168 114q193 154 369 146q130 0 187 -66t28 -182q-67 -190 -264 -227l-39 -82h-199zM676 532h262l-39 349zM-184 0l991 1444h475l217 -1444h-510l-24 193h-502l-125 -193h-522z
M1090 1520q-177 0 -281 88.5t-104 257.5v8h249q6 -53 43.5 -84t102.5 -31q142 0 203 115h249q-44 -167 -168.5 -260.5t-293.5 -93.5z" />
    <glyph glyph-name="uni1EB3" unicode="&#x1eb3;" horiz-adv-x="1239" 
d="M772 1532l57 217q77 0 129.5 22.5t65.5 67.5q4 18 -12.5 29t-36.5 6q-41 0 -117 -45l-168 115q192 154 369 145q130 0 187 -66t28 -182q-67 -190 -264 -227l-39 -82h-199zM838 1186q-177 0 -281 88.5t-104 257.5v8h249q6 -53 43.5 -84t102.5 -31q142 0 203 115h249
q-44 -167 -168.5 -260.5t-293.5 -93.5zM514 240q56 0 108 51.5t72 128.5l13 47q-46 12 -86 12q-88 0 -135.5 -39.5t-47.5 -111.5q0 -41 21.5 -64.5t54.5 -23.5zM289 -25q-132 0 -215.5 81.5t-83.5 224.5q0 180 131.5 284.5t367.5 104.5q130 0 254 -37l5 12q8 19 8 55
q0 109 -172 109q-80 0 -164.5 -13t-140.5 -36l-62 315q189 60 461 60q271 0 407 -96.5t136 -268.5q0 -76 -21 -156l-164 -614h-465l31 113q-84 -71 -153.5 -104.5t-159.5 -33.5z" />
    <glyph glyph-name="uni1EB4" unicode="&#x1eb4;" horiz-adv-x="1605" 
d="M899 1927l-180 78q54 141 137 211t174 70q72 0 164 -58q62 -43 94 -43q33 0 58.5 24t58.5 77l176 -76q-55 -142 -136.5 -212.5t-172.5 -70.5q-74 0 -166 58q-56 43 -92 43q-35 0 -61.5 -25t-53.5 -76zM676 532h262l-39 349zM-184 0l991 1444h475l217 -1444h-510l-24 193
h-502l-125 -193h-522zM1090 1520q-177 0 -281 88.5t-104 257.5v8h249q6 -53 43.5 -84t102.5 -31q142 0 203 115h249q-44 -167 -168.5 -260.5t-293.5 -93.5z" />
    <glyph glyph-name="uni1EB5" unicode="&#x1eb5;" horiz-adv-x="1239" 
d="M647 1593l-180 78q54 141 137 211t174 70q72 0 164 -58q62 -43 94 -43q33 0 58.5 24t58.5 77l176 -76q-55 -142 -136.5 -212.5t-172.5 -70.5q-74 0 -166 58q-56 43 -92 43q-35 0 -61.5 -25t-53.5 -76zM838 1186q-177 0 -281 88.5t-104 257.5v8h249q6 -53 43.5 -84
t102.5 -31q142 0 203 115h249q-44 -167 -168.5 -260.5t-293.5 -93.5zM514 240q56 0 108 51.5t72 128.5l13 47q-46 12 -86 12q-88 0 -135.5 -39.5t-47.5 -111.5q0 -41 21.5 -64.5t54.5 -23.5zM289 -25q-132 0 -215.5 81.5t-83.5 224.5q0 180 131.5 284.5t367.5 104.5
q130 0 254 -37l5 12q8 19 8 55q0 109 -172 109q-80 0 -164.5 -13t-140.5 -36l-62 315q189 60 461 60q271 0 407 -96.5t136 -268.5q0 -76 -21 -156l-164 -614h-465l31 113q-84 -71 -153.5 -104.5t-159.5 -33.5z" />
    <glyph glyph-name="uni1EB6" unicode="&#x1eb6;" horiz-adv-x="1605" 
d="M387 -391l68 270h358l-68 -270h-358zM676 532h262l-39 349zM-184 0l991 1444h475l217 -1444h-510l-24 193h-502l-125 -193h-522zM1090 1520q-177 0 -281 88.5t-104 257.5v8h249q6 -53 43.5 -84t102.5 -31q142 0 203 115h249q-44 -167 -168.5 -260.5t-293.5 -93.5z" />
    <glyph glyph-name="uni1EB7" unicode="&#x1eb7;" horiz-adv-x="1239" 
d="M240 -391l67 270h359l-68 -270h-358zM838 1186q-177 0 -281 88.5t-104 257.5v8h249q6 -53 43.5 -84t102.5 -31q142 0 203 115h249q-44 -167 -168.5 -260.5t-293.5 -93.5zM514 240q56 0 108 51.5t72 128.5l13 47q-46 12 -86 12q-88 0 -135.5 -39.5t-47.5 -111.5
q0 -41 21.5 -64.5t54.5 -23.5zM289 -25q-132 0 -215.5 81.5t-83.5 224.5q0 180 131.5 284.5t367.5 104.5q130 0 254 -37l5 12q8 19 8 55q0 109 -172 109q-80 0 -164.5 -13t-140.5 -36l-62 315q189 60 461 60q271 0 407 -96.5t136 -268.5q0 -76 -21 -156l-164 -614h-465
l31 113q-84 -71 -153.5 -104.5t-159.5 -33.5z" />
    <glyph glyph-name="uni1EB8" unicode="&#x1eb8;" horiz-adv-x="1378" 
d="M303 -391l68 270h358l-67 -270h-359zM-72 0l385 1434h1223l-106 -394h-752l-39 -145h700l-92 -346h-700l-43 -156h762l-105 -393h-1233z" />
    <glyph glyph-name="uni1EB9" unicode="&#x1eb9;" horiz-adv-x="1220" 
d="M287 -391l67 270h359l-68 -270h-358zM481 655h316q8 19 8 50q0 49 -33 83.5t-88 34.5q-61 0 -117 -40.5t-86 -127.5zM1171 451h-718q5 -69 48.5 -109.5t119.5 -40.5q103 0 225 90l215 -235q-205 -183 -479 -183q-253 0 -401 135t-148 357q0 128 47 249.5t132 217.5
t216 154.5t285 58.5q107 0 192.5 -28t140.5 -74.5t91.5 -110.5t51.5 -131.5t15 -141.5q0 -118 -33 -208z" />
    <glyph glyph-name="uni1EBA" unicode="&#x1eba;" horiz-adv-x="1378" 
d="M827 1536l60 219q171 0 196 92q4 18 -12.5 29t-36.5 6q-43 0 -119 -45l-170 115q187 156 373 147q131 0 188.5 -67t28.5 -183q-34 -102 -106 -158t-160 -73l-41 -82h-201zM-72 0l385 1434h1223l-106 -394h-752l-39 -145h700l-92 -346h-700l-43 -156h762l-105 -393h-1233z
" />
    <glyph glyph-name="uni1EBB" unicode="&#x1ebb;" horiz-adv-x="1220" 
d="M690 1186l60 219q171 0 196 92q4 18 -12.5 29t-36.5 6q-43 0 -119 -45l-170 115q187 156 373 147q131 0 188.5 -67t28.5 -183q-34 -102 -106 -158t-160 -73l-41 -82h-201zM481 655h316q8 19 8 50q0 49 -33 83.5t-88 34.5q-61 0 -117 -40.5t-86 -127.5zM1171 451h-718
q5 -69 48.5 -109.5t119.5 -40.5q103 0 225 90l215 -235q-205 -183 -479 -183q-253 0 -401 135t-148 357q0 128 47 249.5t132 217.5t216 154.5t285 58.5q107 0 192.5 -28t140.5 -74.5t91.5 -110.5t51.5 -131.5t15 -141.5q0 -118 -33 -208z" />
    <glyph glyph-name="uni1EBC" unicode="&#x1ebc;" horiz-adv-x="1378" 
d="M731 1511l-162 74q52 135 125.5 201.5t155.5 66.5q70 0 149 -55q54 -41 84 -41t54 23.5t51 72.5l162 -71q-52 -136 -125.5 -203.5t-155.5 -67.5q-68 0 -149 56q-54 41 -84 41t-53.5 -24t-51.5 -73zM-72 0l385 1434h1223l-106 -394h-752l-39 -145h700l-92 -346h-700
l-43 -156h762l-105 -393h-1233z" />
    <glyph glyph-name="uni1EBD" unicode="&#x1ebd;" horiz-adv-x="1220" 
d="M557 1188l-180 78q54 141 136.5 210.5t174.5 69.5q73 0 164 -57q62 -43 94 -43q33 0 59 24t58 76l176 -76q-55 -142 -136.5 -212t-172.5 -70q-75 0 -166 57q-56 43 -92 43q-35 0 -62 -25t-53 -75zM481 655h316q8 19 8 50q0 49 -33 83.5t-88 34.5q-61 0 -117 -40.5
t-86 -127.5zM1171 451h-718q5 -69 48.5 -109.5t119.5 -40.5q103 0 225 90l215 -235q-205 -183 -479 -183q-253 0 -401 135t-148 357q0 128 47 249.5t132 217.5t216 154.5t285 58.5q107 0 192.5 -28t140.5 -74.5t91.5 -110.5t51.5 -131.5t15 -141.5q0 -118 -33 -208z" />
    <glyph glyph-name="uni1EBE" unicode="&#x1ebe;" horiz-adv-x="1378" 
d="M1298 1788l304 393l446 -117l-414 -276h-336zM494 1516l366 352h336l178 -352h-239l-152 114l-213 -114h-276zM-72 0l385 1434h1223l-106 -394h-752l-39 -145h700l-92 -346h-700l-43 -156h762l-105 -393h-1233z" />
    <glyph glyph-name="uni1EBF" unicode="&#x1ebf;" horiz-adv-x="1220" 
d="M1118 1460l303 393l447 -116l-414 -277h-336zM313 1188l367 352h336l178 -352h-240l-151 115l-213 -115h-277zM481 655h316q8 19 8 50q0 49 -33 83.5t-88 34.5q-61 0 -117 -40.5t-86 -127.5zM1171 451h-718q5 -69 48.5 -109.5t119.5 -40.5q103 0 225 90l215 -235
q-205 -183 -479 -183q-253 0 -401 135t-148 357q0 128 47 249.5t132 217.5t216 154.5t285 58.5q107 0 192.5 -28t140.5 -74.5t91.5 -110.5t51.5 -131.5t15 -141.5q0 -118 -33 -208z" />
    <glyph glyph-name="uni1EC0" unicode="&#x1ec0;" horiz-adv-x="1378" 
d="M1368 1786l-262 276l459 117l90 -393h-287zM494 1516l366 352h336l178 -352h-239l-152 114l-213 -114h-276zM-72 0l385 1434h1223l-106 -394h-752l-39 -145h700l-92 -346h-700l-43 -156h762l-105 -393h-1233z" />
    <glyph glyph-name="uni1EC1" unicode="&#x1ec1;" horiz-adv-x="1220" 
d="M1184 1458l-262 277l458 116l90 -393h-286zM313 1188l367 352h336l178 -352h-240l-151 115l-213 -115h-277zM481 655h316q8 19 8 50q0 49 -33 83.5t-88 34.5q-61 0 -117 -40.5t-86 -127.5zM1171 451h-718q5 -69 48.5 -109.5t119.5 -40.5q103 0 225 90l215 -235
q-205 -183 -479 -183q-253 0 -401 135t-148 357q0 128 47 249.5t132 217.5t216 154.5t285 58.5q107 0 192.5 -28t140.5 -74.5t91.5 -110.5t51.5 -131.5t15 -141.5q0 -118 -33 -208z" />
    <glyph glyph-name="uni1EC2" unicode="&#x1ec2;" horiz-adv-x="1378" 
d="M1307 1763l57 207q78 0 131 21t66 63q1 18 -14.5 27.5t-37.5 7.5q-40 0 -116 -45l-168 108q95 75 184 108.5t184 29.5q131 0 187.5 -62t27.5 -172q-64 -176 -262 -215l-43 -78h-196zM494 1516l366 352h336l178 -352h-239l-152 114l-213 -114h-276zM-72 0l385 1434h1223
l-106 -394h-752l-39 -145h700l-92 -346h-700l-43 -156h762l-105 -393h-1233z" />
    <glyph glyph-name="uni1EC3" unicode="&#x1ec3;" horiz-adv-x="1220" 
d="M1126 1436l58 206q170 0 196 84q1 18 -14 27.5t-37 7.5q-41 0 -117 -45l-168 109q186 146 369 137q131 0 187.5 -61.5t27.5 -171.5q-64 -177 -262 -216l-43 -77h-197zM313 1188l367 352h336l178 -352h-240l-151 115l-213 -115h-277zM481 655h316q8 19 8 50q0 49 -33 83.5
t-88 34.5q-61 0 -117 -40.5t-86 -127.5zM1171 451h-718q5 -69 48.5 -109.5t119.5 -40.5q103 0 225 90l215 -235q-205 -183 -479 -183q-253 0 -401 135t-148 357q0 128 47 249.5t132 217.5t216 154.5t285 58.5q107 0 192.5 -28t140.5 -74.5t91.5 -110.5t51.5 -131.5
t15 -141.5q0 -118 -33 -208z" />
    <glyph glyph-name="uni1EC4" unicode="&#x1ec4;" horiz-adv-x="1378" 
d="M834 1960l-181 78q54 141 137 210.5t175 69.5q72 0 163 -57q62 -43 95 -43t58 23.5t58 76.5l177 -75q-55 -142 -137 -212.5t-173 -70.5q-75 0 -166 57q-56 43 -92 43q-35 0 -61 -24.5t-53 -75.5zM494 1516l366 352h336l178 -352h-239l-152 114l-213 -114h-276zM-72 0
l385 1434h1223l-106 -394h-752l-39 -145h700l-92 -346h-700l-43 -156h762l-105 -393h-1233z" />
    <glyph glyph-name="uni1EC5" unicode="&#x1ec5;" horiz-adv-x="1220" 
d="M653 1632l-180 78q54 141 137 211t174 70q72 0 164 -58q62 -43 94 -43q33 0 58.5 24t58.5 77l176 -76q-55 -142 -136.5 -212.5t-172.5 -70.5q-74 0 -166 58q-56 43 -92 43q-35 0 -61.5 -25t-53.5 -76zM313 1188l367 352h336l178 -352h-240l-151 115l-213 -115h-277z
M481 655h316q8 19 8 50q0 49 -33 83.5t-88 34.5q-61 0 -117 -40.5t-86 -127.5zM1171 451h-718q5 -69 48.5 -109.5t119.5 -40.5q103 0 225 90l215 -235q-205 -183 -479 -183q-253 0 -401 135t-148 357q0 128 47 249.5t132 217.5t216 154.5t285 58.5q107 0 192.5 -28
t140.5 -74.5t91.5 -110.5t51.5 -131.5t15 -141.5q0 -118 -33 -208z" />
    <glyph glyph-name="uni1EC6" unicode="&#x1ec6;" horiz-adv-x="1378" 
d="M303 -391l68 270h358l-67 -270h-359zM494 1516l366 352h336l178 -352h-239l-152 114l-213 -114h-276zM-72 0l385 1434h1223l-106 -394h-752l-39 -145h700l-92 -346h-700l-43 -156h762l-105 -393h-1233z" />
    <glyph glyph-name="uni1EC7" unicode="&#x1ec7;" horiz-adv-x="1220" 
d="M287 -391l67 270h359l-68 -270h-358zM313 1188l367 352h336l178 -352h-240l-151 115l-213 -115h-277zM481 655h316q8 19 8 50q0 49 -33 83.5t-88 34.5q-61 0 -117 -40.5t-86 -127.5zM1171 451h-718q5 -69 48.5 -109.5t119.5 -40.5q103 0 225 90l215 -235
q-205 -183 -479 -183q-253 0 -401 135t-148 357q0 128 47 249.5t132 217.5t216 154.5t285 58.5q107 0 192.5 -28t140.5 -74.5t91.5 -110.5t51.5 -131.5t15 -141.5q0 -118 -33 -208z" />
    <glyph glyph-name="uni1EC8" unicode="&#x1ec8;" horiz-adv-x="647" 
d="M481 1536l60 219q171 0 196 92q4 18 -12.5 29t-36.5 6q-43 0 -119 -45l-170 115q187 156 373 147q131 0 188.5 -67t28.5 -183q-34 -102 -106 -158t-160 -73l-41 -82h-201zM-68 0l385 1434h480l-385 -1434h-480z" />
    <glyph glyph-name="uni1EC9" unicode="&#x1ec9;" horiz-adv-x="616" 
d="M-74 0l299 1118h465l-299 -1118h-465zM371 1186l59 219q172 0 197 92q4 18 -12.5 29t-36.5 6q-43 0 -119 -45l-170 115q187 156 373 147q131 0 188.5 -67t28.5 -183q-34 -102 -106.5 -158t-160.5 -73l-41 -82h-200z" />
    <glyph glyph-name="uni1ECA" unicode="&#x1eca;" horiz-adv-x="643" 
d="M-96 -391l67 270h359l-68 -270h-358zM-68 0l385 1434h480l-385 -1434h-480z" />
    <glyph glyph-name="uni1ECB" unicode="&#x1ecb;" horiz-adv-x="616" 
d="M-117 -391l68 270h358l-67 -270h-359zM-74 0l299 1118h465l-299 -1118h-465zM240 1198l79 297h482l-80 -297h-481z" />
    <glyph glyph-name="uni1ECC" unicode="&#x1ecc;" 
d="M498 -391l67 270h359l-68 -270h-358zM823 393q73 0 136 33.5t104.5 87.5t65.5 121t24 135q0 120 -69.5 195t-194.5 75q-96 0 -173.5 -57t-117 -142t-39.5 -177q0 -120 69.5 -195.5t194.5 -75.5zM791 -29q-206 0 -369.5 85.5t-253.5 234t-90 330.5q0 165 65 318.5
t176 268.5t269 184.5t334 69.5q155 0 288 -50t226 -136.5t145.5 -206.5t52.5 -256q0 -165 -65 -318.5t-175.5 -269t-268.5 -185t-334 -69.5z" />
    <glyph glyph-name="uni1ECD" unicode="&#x1ecd;" horiz-adv-x="1302" 
d="M313 -391l68 270h358l-67 -270h-359zM625 352q86 0 144 75t58 177q0 72 -41 117t-108 45q-86 0 -144.5 -75t-58.5 -177q0 -72 41.5 -117t108.5 -45zM596 -27q-129 0 -235.5 40.5t-176.5 111t-108.5 165.5t-38.5 204q0 128 51 246.5t138.5 208t213 143t267.5 53.5
q129 0 235.5 -40.5t176.5 -110.5t108.5 -165t38.5 -204q0 -128 -51 -247t-138.5 -208.5t-213 -143t-267.5 -53.5z" />
    <glyph glyph-name="uni1ECE" unicode="&#x1ece;" 
d="M920 1536l59 219q172 0 197 92q4 18 -13 29t-37 6q-42 0 -118 -45l-170 115q187 156 372 147q131 0 188.5 -67t28.5 -183q-34 -102 -106 -158t-160 -73l-41 -82h-200zM823 393q73 0 136 33.5t104.5 87.5t65.5 121t24 135q0 120 -69.5 195t-194.5 75q-96 0 -173.5 -57
t-117 -142t-39.5 -177q0 -120 69.5 -195.5t194.5 -75.5zM791 -29q-206 0 -369.5 85.5t-253.5 234t-90 330.5q0 165 65 318.5t176 268.5t269 184.5t334 69.5q155 0 288 -50t226 -136.5t145.5 -206.5t52.5 -256q0 -165 -65 -318.5t-175.5 -269t-268.5 -185t-334 -69.5z" />
    <glyph glyph-name="uni1ECF" unicode="&#x1ecf;" horiz-adv-x="1302" 
d="M692 1186l60 219q171 0 196 92q4 18 -12.5 29t-36.5 6q-43 0 -119 -45l-170 115q187 156 373 147q131 0 188.5 -67t28.5 -183q-34 -102 -106 -158t-160 -73l-41 -82h-201zM625 352q86 0 144 75t58 177q0 72 -41 117t-108 45q-86 0 -144.5 -75t-58.5 -177q0 -72 41.5 -117
t108.5 -45zM596 -27q-129 0 -235.5 40.5t-176.5 111t-108.5 165.5t-38.5 204q0 128 51 246.5t138.5 208t213 143t267.5 53.5q129 0 235.5 -40.5t176.5 -110.5t108.5 -165t38.5 -204q0 -128 -51 -247t-138.5 -208.5t-213 -143t-267.5 -53.5z" />
    <glyph glyph-name="uni1ED0" unicode="&#x1ed0;" 
d="M1364 1788l303 393l447 -117l-414 -276h-336zM559 1516l367 352h336l178 -352h-240l-151 114l-213 -114h-277zM823 393q73 0 136 33.5t104.5 87.5t65.5 121t24 135q0 120 -69.5 195t-194.5 75q-96 0 -173.5 -57t-117 -142t-39.5 -177q0 -120 69.5 -195.5t194.5 -75.5z
M791 -29q-206 0 -369.5 85.5t-253.5 234t-90 330.5q0 165 65 318.5t176 268.5t269 184.5t334 69.5q155 0 288 -50t226 -136.5t145.5 -206.5t52.5 -256q0 -165 -65 -318.5t-175.5 -269t-268.5 -185t-334 -69.5z" />
    <glyph glyph-name="uni1ED1" unicode="&#x1ed1;" horiz-adv-x="1302" 
d="M1122 1460l303 393l447 -116l-414 -277h-336zM317 1188l367 352h336l178 -352h-240l-151 115l-213 -115h-277zM625 352q86 0 144 75t58 177q0 72 -41 117t-108 45q-86 0 -144.5 -75t-58.5 -177q0 -72 41.5 -117t108.5 -45zM596 -27q-129 0 -235.5 40.5t-176.5 111
t-108.5 165.5t-38.5 204q0 128 51 246.5t138.5 208t213 143t267.5 53.5q129 0 235.5 -40.5t176.5 -110.5t108.5 -165t38.5 -204q0 -128 -51 -247t-138.5 -208.5t-213 -143t-267.5 -53.5z" />
    <glyph glyph-name="uni1ED2" unicode="&#x1ed2;" 
d="M1432 1786l-263 276l459 117l90 -393h-286zM559 1516l367 352h336l178 -352h-240l-151 114l-213 -114h-277zM823 393q73 0 136 33.5t104.5 87.5t65.5 121t24 135q0 120 -69.5 195t-194.5 75q-96 0 -173.5 -57t-117 -142t-39.5 -177q0 -120 69.5 -195.5t194.5 -75.5z
M791 -29q-206 0 -369.5 85.5t-253.5 234t-90 330.5q0 165 65 318.5t176 268.5t269 184.5t334 69.5q155 0 288 -50t226 -136.5t145.5 -206.5t52.5 -256q0 -165 -65 -318.5t-175.5 -269t-268.5 -185t-334 -69.5z" />
    <glyph glyph-name="uni1ED3" unicode="&#x1ed3;" horiz-adv-x="1302" 
d="M1188 1458l-262 277l458 116l91 -393h-287zM317 1188l367 352h336l178 -352h-240l-151 115l-213 -115h-277zM625 352q86 0 144 75t58 177q0 72 -41 117t-108 45q-86 0 -144.5 -75t-58.5 -177q0 -72 41.5 -117t108.5 -45zM596 -27q-129 0 -235.5 40.5t-176.5 111
t-108.5 165.5t-38.5 204q0 128 51 246.5t138.5 208t213 143t267.5 53.5q129 0 235.5 -40.5t176.5 -110.5t108.5 -165t38.5 -204q0 -128 -51 -247t-138.5 -208.5t-213 -143t-267.5 -53.5z" />
    <glyph glyph-name="uni1ED4" unicode="&#x1ed4;" 
d="M1372 1763l58 207q170 0 196 84q1 18 -14 27.5t-37 7.5q-41 0 -117 -45l-168 108q95 75 184.5 108.5t184.5 29.5q131 0 187.5 -62t27.5 -172q-64 -176 -262 -215l-43 -78h-197zM559 1516l367 352h336l178 -352h-240l-151 114l-213 -114h-277zM823 393q73 0 136 33.5
t104.5 87.5t65.5 121t24 135q0 120 -69.5 195t-194.5 75q-96 0 -173.5 -57t-117 -142t-39.5 -177q0 -120 69.5 -195.5t194.5 -75.5zM791 -29q-206 0 -369.5 85.5t-253.5 234t-90 330.5q0 165 65 318.5t176 268.5t269 184.5t334 69.5q155 0 288 -50t226 -136.5t145.5 -206.5
t52.5 -256q0 -165 -65 -318.5t-175.5 -269t-268.5 -185t-334 -69.5z" />
    <glyph glyph-name="uni1ED5" unicode="&#x1ed5;" horiz-adv-x="1302" 
d="M1130 1436l58 206q170 0 196 84q1 18 -14 27.5t-37 7.5q-40 0 -116 -45l-168 109q95 74 183.5 107.5t184.5 29.5q131 0 187.5 -61.5t27.5 -171.5q-64 -177 -262 -216l-43 -77h-197zM317 1188l367 352h336l178 -352h-240l-151 115l-213 -115h-277zM625 352q86 0 144 75
t58 177q0 72 -41 117t-108 45q-86 0 -144.5 -75t-58.5 -177q0 -72 41.5 -117t108.5 -45zM596 -27q-129 0 -235.5 40.5t-176.5 111t-108.5 165.5t-38.5 204q0 128 51 246.5t138.5 208t213 143t267.5 53.5q129 0 235.5 -40.5t176.5 -110.5t108.5 -165t38.5 -204
q0 -128 -51 -247t-138.5 -208.5t-213 -143t-267.5 -53.5z" />
    <glyph glyph-name="uni1ED6" unicode="&#x1ed6;" 
d="M899 1960l-180 78q54 141 136.5 210.5t174.5 69.5q73 0 164 -57q62 -43 94 -43q33 0 59 24t58 76l176 -75q-55 -142 -136.5 -212.5t-172.5 -70.5q-75 0 -166 57q-56 43 -92 43q-35 0 -62 -25t-53 -75zM559 1516l367 352h336l178 -352h-240l-151 114l-213 -114h-277z
M823 393q73 0 136 33.5t104.5 87.5t65.5 121t24 135q0 120 -69.5 195t-194.5 75q-96 0 -173.5 -57t-117 -142t-39.5 -177q0 -120 69.5 -195.5t194.5 -75.5zM791 -29q-206 0 -369.5 85.5t-253.5 234t-90 330.5q0 165 65 318.5t176 268.5t269 184.5t334 69.5q155 0 288 -50
t226 -136.5t145.5 -206.5t52.5 -256q0 -165 -65 -318.5t-175.5 -269t-268.5 -185t-334 -69.5z" />
    <glyph glyph-name="uni1ED7" unicode="&#x1ed7;" horiz-adv-x="1302" 
d="M657 1632l-180 78q54 141 137 211t174 70q72 0 164 -58q62 -43 95 -43t58 24t58 77l176 -76q-55 -142 -136.5 -212.5t-172.5 -70.5q-74 0 -166 58q-56 43 -92 43q-35 0 -61.5 -25t-53.5 -76zM317 1188l367 352h336l178 -352h-240l-151 115l-213 -115h-277zM625 352
q86 0 144 75t58 177q0 72 -41 117t-108 45q-86 0 -144.5 -75t-58.5 -177q0 -72 41.5 -117t108.5 -45zM596 -27q-129 0 -235.5 40.5t-176.5 111t-108.5 165.5t-38.5 204q0 128 51 246.5t138.5 208t213 143t267.5 53.5q129 0 235.5 -40.5t176.5 -110.5t108.5 -165t38.5 -204
q0 -128 -51 -247t-138.5 -208.5t-213 -143t-267.5 -53.5z" />
    <glyph glyph-name="uni1ED8" unicode="&#x1ed8;" 
d="M498 -391l67 270h359l-68 -270h-358zM559 1516l367 352h336l178 -352h-240l-151 114l-213 -114h-277zM823 393q73 0 136 33.5t104.5 87.5t65.5 121t24 135q0 120 -69.5 195t-194.5 75q-96 0 -173.5 -57t-117 -142t-39.5 -177q0 -120 69.5 -195.5t194.5 -75.5zM791 -29
q-206 0 -369.5 85.5t-253.5 234t-90 330.5q0 165 65 318.5t176 268.5t269 184.5t334 69.5q155 0 288 -50t226 -136.5t145.5 -206.5t52.5 -256q0 -165 -65 -318.5t-175.5 -269t-268.5 -185t-334 -69.5z" />
    <glyph glyph-name="uni1ED9" unicode="&#x1ed9;" horiz-adv-x="1302" 
d="M313 -391l68 270h358l-67 -270h-359zM317 1188l367 352h336l178 -352h-240l-151 115l-213 -115h-277zM625 352q86 0 144 75t58 177q0 72 -41 117t-108 45q-86 0 -144.5 -75t-58.5 -177q0 -72 41.5 -117t108.5 -45zM596 -27q-129 0 -235.5 40.5t-176.5 111t-108.5 165.5
t-38.5 204q0 128 51 246.5t138.5 208t213 143t267.5 53.5q129 0 235.5 -40.5t176.5 -110.5t108.5 -165t38.5 -204q0 -128 -51 -247t-138.5 -208.5t-213 -143t-267.5 -53.5z" />
    <glyph glyph-name="uni1EDA" unicode="&#x1eda;" 
d="M768 1516l303 393l447 -117l-414 -276h-336zM791 -29q-206 0 -369.5 85.5t-253.5 234t-90 330.5q0 165 65 318.5t176 268.5t269 184.5t334 69.5q160 0 288 -51q8 -3 25 -10t25 -10q68 3 106 14q34 9 41 33q11 -1 20.5 31.5t4.5 92t-31 117.5h350q14 -207 -39 -321
q-53 -134 -182 -195q32 -50 51 -94q53 -121 53 -256q0 -165 -65 -318.5t-175.5 -269t-268.5 -185t-334 -69.5zM823 393q73 0 136 33.5t104.5 87.5t65.5 121t24 135q0 120 -69.5 195t-194.5 75q-96 0 -173.5 -57t-117 -142t-39.5 -177q0 -120 69.5 -195.5t194.5 -75.5z" />
    <glyph glyph-name="uni1EDB" unicode="&#x1edb;" horiz-adv-x="1333" 
d="M479 1188l287 393l422 -117l-391 -276h-318zM596 -27q-129 0 -235.5 40.5t-176.5 111t-108.5 165.5t-38.5 204q0 128 51 246.5t138.5 208t213 143t267.5 53.5q129 0 235 -41l43 -19q59 6 86 15q34 9 41 33q11 -1 20.5 31.5t4.5 92t-31 117.5h350q14 -207 -39 -321
q-52 -134 -188 -199q-2 -1 -5.5 -2t-4.5 -2q0 -1 3.5 -9.5t4.5 -13.5q39 -91 39 -202q0 -128 -51 -247t-138.5 -208.5t-213 -143t-267.5 -53.5zM625 352q86 0 144 75t58 177q0 72 -41 117t-108 45q-86 0 -144.5 -75t-58.5 -177q0 -72 41.5 -117t108.5 -45z" />
    <glyph glyph-name="uni1EDC" unicode="&#x1edc;" 
d="M897 1516l-262 276l459 117l90 -393h-287zM791 -29q-206 0 -369.5 85.5t-253.5 234t-90 330.5q0 165 65 318.5t176 268.5t269 184.5t334 69.5q160 0 288 -51q8 -3 25 -10t25 -10q68 3 106 14q34 9 41 33q11 -1 20.5 31.5t4.5 92t-31 117.5h350q14 -207 -39 -321
q-53 -134 -182 -195q32 -50 51 -94q53 -121 53 -256q0 -165 -65 -318.5t-175.5 -269t-268.5 -185t-334 -69.5zM823 393q73 0 136 33.5t104.5 87.5t65.5 121t24 135q0 120 -69.5 195t-194.5 75q-96 0 -173.5 -57t-117 -142t-39.5 -177q0 -120 69.5 -195.5t194.5 -75.5z" />
    <glyph glyph-name="uni1EDD" unicode="&#x1edd;" horiz-adv-x="1333" 
d="M674 1188l-262 276l458 117l91 -393h-287zM596 -27q-129 0 -235.5 40.5t-176.5 111t-108.5 165.5t-38.5 204q0 128 51 246.5t138.5 208t213 143t267.5 53.5q129 0 235 -41l43 -19q59 6 86 15q34 9 41 33q11 -1 20.5 31.5t4.5 92t-31 117.5h350q14 -207 -39 -321
q-52 -134 -188 -199q-2 -1 -5.5 -2t-4.5 -2q0 -1 3.5 -9.5t4.5 -13.5q39 -91 39 -202q0 -128 -51 -247t-138.5 -208.5t-213 -143t-267.5 -53.5zM625 352q86 0 144 75t58 177q0 72 -41 117t-108 45q-86 0 -144.5 -75t-58.5 -177q0 -72 41.5 -117t108.5 -45z" />
    <glyph glyph-name="uni1EDE" unicode="&#x1ede;" 
d="M920 1536l59 219q172 0 197 92q4 18 -13 29t-37 6q-42 0 -118 -45l-170 115q187 156 372 147q131 0 188.5 -67t28.5 -183q-34 -102 -106 -158t-160 -73l-41 -82h-200zM791 -29q-206 0 -369.5 85.5t-253.5 234t-90 330.5q0 165 65 318.5t176 268.5t269 184.5t334 69.5
q160 0 288 -51q8 -3 25 -10t25 -10q68 3 106 14q34 9 41 33q11 -1 20.5 31.5t4.5 92t-31 117.5h350q14 -207 -39 -321q-53 -134 -182 -195q32 -50 51 -94q53 -121 53 -256q0 -165 -65 -318.5t-175.5 -269t-268.5 -185t-334 -69.5zM823 393q73 0 136 33.5t104.5 87.5
t65.5 121t24 135q0 120 -69.5 195t-194.5 75q-96 0 -173.5 -57t-117 -142t-39.5 -177q0 -120 69.5 -195.5t194.5 -75.5z" />
    <glyph glyph-name="uni1EDF" unicode="&#x1edf;" horiz-adv-x="1333" 
d="M647 1186l60 219q171 0 196 92q4 18 -12.5 29t-36.5 6q-43 0 -119 -45l-170 115q187 156 373 147q131 0 188.5 -67t28.5 -183q-34 -102 -106 -158t-160 -73l-41 -82h-201zM596 -27q-129 0 -235.5 40.5t-176.5 111t-108.5 165.5t-38.5 204q0 128 51 246.5t138.5 208
t213 143t267.5 53.5q129 0 235 -41l43 -19q59 6 86 15q34 9 41 33q11 -1 20.5 31.5t4.5 92t-31 117.5h350q14 -207 -39 -321q-52 -134 -188 -199q-2 -1 -5.5 -2t-4.5 -2q0 -1 3.5 -9.5t4.5 -13.5q39 -91 39 -202q0 -128 -51 -247t-138.5 -208.5t-213 -143t-267.5 -53.5z
M625 352q86 0 144 75t58 177q0 72 -41 117t-108 45q-86 0 -144.5 -75t-58.5 -177q0 -72 41.5 -117t108.5 -45z" />
    <glyph glyph-name="uni1EE0" unicode="&#x1ee0;" 
d="M791 1516l-164 77q49 141 124 211t158 70q61 0 148 -57q56 -43 86 -43q29 0 53 24.5t51 75.5l160 -76q-49 -141 -123.5 -211.5t-157.5 -70.5q-62 0 -149 57q-53 43 -84 43q-59 0 -102 -100zM791 -29q-206 0 -369.5 85.5t-253.5 234t-90 330.5q0 165 65 318.5t176 268.5
t269 184.5t334 69.5q160 0 288 -51q8 -3 25 -10t25 -10q68 3 106 14q34 9 41 33q11 -1 20.5 31.5t4.5 92t-31 117.5h350q14 -207 -39 -321q-53 -134 -182 -195q32 -50 51 -94q53 -121 53 -256q0 -165 -65 -318.5t-175.5 -269t-268.5 -185t-334 -69.5zM823 393q73 0 136 33.5
t104.5 87.5t65.5 121t24 135q0 120 -69.5 195t-194.5 75q-96 0 -173.5 -57t-117 -142t-39.5 -177q0 -120 69.5 -195.5t194.5 -75.5z" />
    <glyph glyph-name="uni1EE1" unicode="&#x1ee1;" horiz-adv-x="1333" 
d="M508 1188l-158 78q47 141 120.5 210.5t156.5 69.5q61 0 143 -57q53 -43 84 -43q29 0 52 24.5t50 75.5l156 -76q-48 -142 -120 -212t-154 -70q-64 0 -146 57q-49 43 -82 43q-30 0 -53.5 -24.5t-48.5 -75.5zM596 -27q-129 0 -235.5 40.5t-176.5 111t-108.5 165.5t-38.5 204
q0 128 51 246.5t138.5 208t213 143t267.5 53.5q129 0 235 -41l43 -19q59 6 86 15q34 9 41 33q11 -1 20.5 31.5t4.5 92t-31 117.5h350q14 -207 -39 -321q-52 -134 -188 -199q-2 -1 -5.5 -2t-4.5 -2q0 -1 3.5 -9.5t4.5 -13.5q39 -91 39 -202q0 -128 -51 -247t-138.5 -208.5
t-213 -143t-267.5 -53.5zM625 352q86 0 144 75t58 177q0 72 -41 117t-108 45q-86 0 -144.5 -75t-58.5 -177q0 -72 41.5 -117t108.5 -45z" />
    <glyph glyph-name="uni1EE2" unicode="&#x1ee2;" 
d="M498 -391l67 270h359l-68 -270h-358zM791 -29q-206 0 -369.5 85.5t-253.5 234t-90 330.5q0 165 65 318.5t176 268.5t269 184.5t334 69.5q160 0 288 -51q8 -3 25 -10t25 -10q68 3 106 14q34 9 41 33q11 -1 20.5 31.5t4.5 92t-31 117.5h350q14 -207 -39 -321
q-53 -134 -182 -195q32 -50 51 -94q53 -121 53 -256q0 -165 -65 -318.5t-175.5 -269t-268.5 -185t-334 -69.5zM823 393q73 0 136 33.5t104.5 87.5t65.5 121t24 135q0 120 -69.5 195t-194.5 75q-96 0 -173.5 -57t-117 -142t-39.5 -177q0 -120 69.5 -195.5t194.5 -75.5z" />
    <glyph glyph-name="uni1EE3" unicode="&#x1ee3;" horiz-adv-x="1333" 
d="M313 -391l68 270h358l-67 -270h-359zM596 -27q-129 0 -235.5 40.5t-176.5 111t-108.5 165.5t-38.5 204q0 128 51 246.5t138.5 208t213 143t267.5 53.5q129 0 235 -41l43 -19q59 6 86 15q34 9 41 33q11 -1 20.5 31.5t4.5 92t-31 117.5h350q14 -207 -39 -321
q-52 -134 -188 -199q-2 -1 -5.5 -2t-4.5 -2q0 -1 3.5 -9.5t4.5 -13.5q39 -91 39 -202q0 -128 -51 -247t-138.5 -208.5t-213 -143t-267.5 -53.5zM625 352q86 0 144 75t58 177q0 72 -41 117t-108 45q-86 0 -144.5 -75t-58.5 -177q0 -72 41.5 -117t108.5 -45z" />
    <glyph glyph-name="uni1EE4" unicode="&#x1ee4;" horiz-adv-x="1548" 
d="M391 -391l68 270h358l-67 -270h-359zM698 -29q-303 0 -461.5 134.5t-158.5 381.5q0 111 31 232l192 715h487l-200 -746q-17 -73 -17 -113q0 -180 197 -180q94 0 154 60q33 33 56 79.5t46 129.5l207 770h487l-227 -844q-77 -282 -225 -430q-189 -189 -568 -189z" />
    <glyph glyph-name="uni1EE5" unicode="&#x1ee5;" horiz-adv-x="1312" 
d="M260 -391l68 270h358l-68 -270h-358zM342 -27q-152 0 -235.5 91t-83.5 251q0 94 26 189l164 614h465l-150 -557q-12 -47 -12 -84q0 -46 24.5 -72t73.5 -26q68 0 108.5 44t65.5 138l150 557h465l-299 -1118h-465l37 139q-60 -73 -147.5 -119.5t-186.5 -46.5z" />
    <glyph glyph-name="uni1EE6" unicode="&#x1ee6;" horiz-adv-x="1548" 
d="M911 1536l60 219q171 0 196 92q4 18 -12.5 29t-36.5 6q-43 0 -119 -45l-170 115q187 156 373 147q131 0 188.5 -67t28.5 -183q-34 -102 -106 -158t-160 -73l-41 -82h-201zM698 -29q-303 0 -461.5 134.5t-158.5 381.5q0 111 31 232l192 715h487l-200 -746
q-17 -73 -17 -113q0 -180 197 -180q94 0 154 60q33 33 56 79.5t46 129.5l207 770h487l-227 -844q-77 -282 -225 -430q-189 -189 -568 -189z" />
    <glyph glyph-name="uni1EE7" unicode="&#x1ee7;" horiz-adv-x="1312" 
d="M709 1186l59 219q172 0 197 92q4 18 -13 29t-37 6q-42 0 -118 -45l-170 115q187 156 372 147q132 0 189.5 -67t28.5 -183q-34 -102 -106.5 -158t-160.5 -73l-41 -82h-200zM342 -27q-152 0 -235.5 91t-83.5 251q0 94 26 189l164 614h465l-150 -557q-12 -47 -12 -84
q0 -46 24.5 -72t73.5 -26q68 0 108.5 44t65.5 138l150 557h465l-299 -1118h-465l37 139q-60 -73 -147.5 -119.5t-186.5 -46.5z" />
    <glyph glyph-name="uni1EE8" unicode="&#x1ee8;" horiz-adv-x="1710" 
d="M807 1505l303 393l446 -116l-413 -277h-336zM698 -29q-303 0 -461.5 134.5t-158.5 381.5q0 111 31 232l192 715h487l-200 -746q-17 -73 -17 -113q0 -180 197 -180q94 0 154 60q33 33 56 79.5t46 129.5l207 770h317q7 1 14.5 2.5t14.5 3t10 2.5q34 9 41 33
q11 -1 20.5 31.5t4.5 92t-31 117.5h350q14 -207 -39 -321q-52 -134 -188 -199q-44 -20 -100 -35l-154 -571q-77 -282 -225 -430q-189 -189 -568 -189z" />
    <glyph glyph-name="uni1EE9" unicode="&#x1ee9;" horiz-adv-x="1509" 
d="M604 1188l303 393l447 -117l-414 -276h-336zM342 -27q-152 0 -235.5 91t-83.5 251q0 94 26 189l164 614h465l-150 -557q-12 -47 -12 -84q0 -46 24.5 -72t73.5 -26q68 0 108.5 44t65.5 138l150 557h274q32 3 54 10q34 9 41 33q11 -1 20 32t4 92.5t-31 117.5h351
q14 -208 -39 -322q-51 -132 -189 -198q-46 -19 -92 -33l-227 -850h-465l37 139q-60 -73 -147.5 -119.5t-186.5 -46.5z" />
    <glyph glyph-name="uni1EEA" unicode="&#x1eea;" horiz-adv-x="1710" 
d="M907 1505l-262 277l459 116l90 -393h-287zM698 -29q-303 0 -461.5 134.5t-158.5 381.5q0 111 31 232l192 715h487l-200 -746q-17 -73 -17 -113q0 -180 197 -180q94 0 154 60q33 33 56 79.5t46 129.5l207 770h317q7 1 14.5 2.5t14.5 3t10 2.5q34 9 41 33q11 -1 20.5 31.5
t4.5 92t-31 117.5h350q14 -207 -39 -321q-52 -134 -188 -199q-44 -20 -100 -35l-154 -571q-77 -282 -225 -430q-189 -189 -568 -189z" />
    <glyph glyph-name="uni1EEB" unicode="&#x1eeb;" horiz-adv-x="1509" 
d="M745 1188l-262 276l459 117l90 -393h-287zM342 -27q-152 0 -235.5 91t-83.5 251q0 94 26 189l164 614h465l-150 -557q-12 -47 -12 -84q0 -46 24.5 -72t73.5 -26q68 0 108.5 44t65.5 138l150 557h274q32 3 54 10q34 9 41 33q11 -1 20 32t4 92.5t-31 117.5h351
q14 -208 -39 -322q-51 -132 -189 -198q-46 -19 -92 -33l-227 -850h-465l37 139q-60 -73 -147.5 -119.5t-186.5 -46.5z" />
    <glyph glyph-name="uni1EEC" unicode="&#x1eec;" horiz-adv-x="1710" 
d="M911 1536l60 219q171 0 196 92q4 18 -12.5 29t-36.5 6q-43 0 -119 -45l-170 115q187 156 373 147q131 0 188.5 -67t28.5 -183q-34 -102 -106 -158t-160 -73l-41 -82h-201zM698 -29q-303 0 -461.5 134.5t-158.5 381.5q0 111 31 232l192 715h487l-200 -746
q-17 -73 -17 -113q0 -180 197 -180q94 0 154 60q33 33 56 79.5t46 129.5l207 770h317q7 1 14.5 2.5t14.5 3t10 2.5q34 9 41 33q11 -1 20.5 31.5t4.5 92t-31 117.5h350q14 -207 -39 -321q-52 -134 -188 -199q-44 -20 -100 -35l-154 -571q-77 -282 -225 -430
q-189 -189 -568 -189z" />
    <glyph glyph-name="uni1EED" unicode="&#x1eed;" horiz-adv-x="1509" 
d="M709 1186l59 219q172 0 197 92q4 18 -13 29t-37 6q-42 0 -118 -45l-170 115q187 156 372 147q132 0 189.5 -67t28.5 -183q-34 -102 -106.5 -158t-160.5 -73l-41 -82h-200zM342 -27q-152 0 -235.5 91t-83.5 251q0 94 26 189l164 614h465l-150 -557q-12 -47 -12 -84
q0 -46 24.5 -72t73.5 -26q68 0 108.5 44t65.5 138l150 557h274q32 3 54 10q34 9 41 33q11 -1 20 32t4 92.5t-31 117.5h351q14 -208 -39 -322q-51 -132 -189 -198q-46 -19 -92 -33l-227 -850h-465l37 139q-60 -73 -147.5 -119.5t-186.5 -46.5z" />
    <glyph glyph-name="uni1EEE" unicode="&#x1eee;" horiz-adv-x="1710" 
d="M850 1511l-162 74q52 135 125.5 201.5t155.5 66.5q70 0 149 -55q54 -41 84 -41t54 23.5t51 72.5l161 -71q-52 -136 -125.5 -203.5t-154.5 -67.5q-69 0 -150 56q-54 41 -84 41t-53 -23.5t-51 -73.5zM698 -29q-303 0 -461.5 134.5t-158.5 381.5q0 111 31 232l192 715h487
l-200 -746q-17 -73 -17 -113q0 -180 197 -180q94 0 154 60q33 33 56 79.5t46 129.5l207 770h317q7 1 14.5 2.5t14.5 3t10 2.5q34 9 41 33q11 -1 20.5 31.5t4.5 92t-31 117.5h350q14 -207 -39 -321q-52 -134 -188 -199q-44 -20 -100 -35l-154 -571q-77 -282 -225 -430
q-189 -189 -568 -189z" />
    <glyph glyph-name="uni1EEF" unicode="&#x1eef;" horiz-adv-x="1509" 
d="M586 1188l-180 78q54 141 136.5 210.5t174.5 69.5q73 0 164 -57q62 -43 94 -43q33 0 59 24t58 76l176 -76q-55 -141 -137 -211.5t-173 -70.5q-74 0 -165 57q-56 43 -93 43q-35 0 -61 -24.5t-53 -75.5zM342 -27q-152 0 -235.5 91t-83.5 251q0 94 26 189l164 614h465
l-150 -557q-12 -47 -12 -84q0 -46 24.5 -72t73.5 -26q68 0 108.5 44t65.5 138l150 557h274q32 3 54 10q34 9 41 33q11 -1 20 32t4 92.5t-31 117.5h351q14 -208 -39 -322q-51 -132 -189 -198q-46 -19 -92 -33l-227 -850h-465l37 139q-60 -73 -147.5 -119.5t-186.5 -46.5z" />
    <glyph glyph-name="uni1EF0" unicode="&#x1ef0;" horiz-adv-x="1710" 
d="M391 -391l68 270h358l-67 -270h-359zM698 -29q-303 0 -461.5 134.5t-158.5 381.5q0 111 31 232l192 715h487l-200 -746q-17 -73 -17 -113q0 -180 197 -180q94 0 154 60q33 33 56 79.5t46 129.5l207 770h317q7 1 14.5 2.5t14.5 3t10 2.5q34 9 41 33q11 -1 20.5 31.5
t4.5 92t-31 117.5h350q14 -207 -39 -321q-52 -134 -188 -199q-44 -20 -100 -35l-154 -571q-77 -282 -225 -430q-189 -189 -568 -189z" />
    <glyph glyph-name="uni1EF1" unicode="&#x1ef1;" horiz-adv-x="1509" 
d="M260 -391l68 270h358l-68 -270h-358zM342 -27q-152 0 -235.5 91t-83.5 251q0 94 26 189l164 614h465l-150 -557q-12 -47 -12 -84q0 -46 24.5 -72t73.5 -26q68 0 108.5 44t65.5 138l150 557h274q32 3 54 10q34 9 41 33q11 -1 20 32t4 92.5t-31 117.5h351q14 -208 -39 -322
q-51 -132 -189 -198q-46 -19 -92 -33l-227 -850h-465l37 139q-60 -73 -147.5 -119.5t-186.5 -46.5z" />
    <glyph glyph-name="Ygrave" unicode="&#x1ef2;" horiz-adv-x="1441" 
d="M819 1505l-262 277l459 116l90 -393h-287zM307 0l146 547l-281 887h504l117 -480l372 480h568l-815 -947l-132 -487h-479z" />
    <glyph glyph-name="ygrave" unicode="&#x1ef3;" horiz-adv-x="1335" 
d="M717 1188l-262 276l458 117l91 -393h-287zM211 -334q-204 0 -332 84l180 342q94 -65 187 -65q36 0 73 12l-153 1079h471l39 -588l334 588h483l-690 -1079q-133 -206 -268 -289.5t-324 -83.5z" />
    <glyph glyph-name="uni1EF4" unicode="&#x1ef4;" horiz-adv-x="1441" 
d="M279 -391l67 270h359l-68 -270h-358zM307 0l146 547l-281 887h504l117 -480l372 480h568l-815 -947l-132 -487h-479z" />
    <glyph glyph-name="uni1EF5" unicode="&#x1ef5;" horiz-adv-x="1335" 
d="M764 -391l67 270h359l-68 -270h-358zM211 -334q-204 0 -332 84l180 342q94 -65 187 -65q36 0 73 12l-153 1079h471l39 -588l334 588h483l-690 -1079q-133 -206 -268 -289.5t-324 -83.5z" />
    <glyph glyph-name="uni1EF6" unicode="&#x1ef6;" horiz-adv-x="1441" 
d="M838 1536l59 219q172 0 197 92q4 18 -13 29t-37 6q-42 0 -118 -45l-170 115q187 156 372 147q132 0 189.5 -67t28.5 -183q-34 -102 -106.5 -158t-160.5 -73l-41 -82h-200zM307 0l146 547l-281 887h504l117 -480l372 480h568l-815 -947l-132 -487h-479z" />
    <glyph glyph-name="uni1EF7" unicode="&#x1ef7;" horiz-adv-x="1335" 
d="M709 1186l59 219q172 0 197 92q4 18 -13 29t-37 6q-42 0 -118 -45l-170 115q187 156 372 147q132 0 189.5 -67t28.5 -183q-34 -102 -106.5 -158t-160.5 -73l-41 -82h-200zM211 -334q-204 0 -332 84l180 342q94 -65 187 -65q36 0 73 12l-153 1079h471l39 -588l334 588h483
l-690 -1079q-133 -206 -268 -289.5t-324 -83.5z" />
    <glyph glyph-name="uni1EF8" unicode="&#x1ef8;" horiz-adv-x="1441" 
d="M750 1511l-162 74q52 136 125 202t155 66q71 0 150 -55q54 -41 84 -41t53 23.5t51 72.5l162 -71q-52 -136 -125.5 -203.5t-155.5 -67.5q-68 0 -149 56q-54 41 -84 41t-53 -23.5t-51 -73.5zM307 0l146 547l-281 887h504l117 -480l372 480h568l-815 -947l-132 -487h-479z
" />
    <glyph glyph-name="uni1EF9" unicode="&#x1ef9;" horiz-adv-x="1335" 
d="M594 1188l-180 78q54 141 136.5 210.5t174.5 69.5q73 0 164 -57q62 -43 94 -43q33 0 59 24t58 76l176 -76q-55 -142 -136.5 -212t-172.5 -70q-75 0 -166 57q-56 43 -92 43q-35 0 -62 -25t-53 -75zM211 -334q-204 0 -332 84l180 342q94 -65 187 -65q36 0 73 12l-153 1079
h471l39 -588l334 588h483l-690 -1079q-133 -206 -268 -289.5t-324 -83.5z" />
    <glyph glyph-name="endash" unicode="&#x2013;" horiz-adv-x="1067" 
d="M47 459l100 372h918l-100 -372h-918z" />
    <glyph glyph-name="emdash" unicode="&#x2014;" horiz-adv-x="1824" 
d="M47 459l100 372h1676l-101 -372h-1675z" />
    <glyph glyph-name="quoteleft" unicode="&#x2018;" horiz-adv-x="583" 
d="M68 625l110 413q26 99 64.5 169t103 124t161.5 82.5t232 34.5l13 -170q-226 -27 -269 -182h187l-127 -471h-475z" />
    <glyph glyph-name="quoteright" unicode="&#x2019;" horiz-adv-x="583" 
d="M94 610l-12 170q224 27 268 183h-186l127 471h475l-111 -414q-29 -100 -67.5 -169t-102.5 -123.5t-160 -83t-231 -34.5z" />
    <glyph glyph-name="quotesinglbase" unicode="&#x201a;" horiz-adv-x="583" 
d="M-166 -352l-12 170q225 27 268 182h-186l127 471h475l-111 -414q-29 -100 -67.5 -169t-102.5 -123t-160 -82.5t-231 -34.5z" />
    <glyph glyph-name="quotedblleft" unicode="&#x201c;" horiz-adv-x="1142" 
d="M70 623l110 413q26 100 63 169t99.5 123.5t158 83t230.5 34.5l12 -170q-114 -13 -174 -57.5t-84 -124.5h177l-127 -471h-465zM639 623l111 413q26 100 63 169t99.5 123.5t157.5 83t230 34.5l13 -170q-114 -13 -174 -57.5t-84 -124.5h176l-127 -471h-465z" />
    <glyph glyph-name="quotedblright" unicode="&#x201d;" horiz-adv-x="1142" 
d="M94 610l-12 170q114 13 174 57.5t84 125.5h-176l127 471h465l-111 -414q-23 -81 -50 -138.5t-69.5 -109.5t-100 -84t-140 -52.5t-191.5 -25.5zM664 610l-13 170q114 13 174 57.5t84 125.5h-176l127 471h465l-111 -414q-23 -81 -49.5 -138.5t-69 -109.5t-100 -84
t-140 -52.5t-191.5 -25.5z" />
    <glyph glyph-name="quotedblbase" unicode="&#x201e;" horiz-adv-x="1142" 
d="M-166 -352l-12 170q114 13 174 57.5t84 124.5h-176l127 471h465l-111 -414q-29 -101 -65.5 -169t-98.5 -123t-157 -83t-230 -34zM403 -352l-12 170q114 13 174 57.5t84 124.5h-176l127 471h465l-111 -414q-29 -101 -65.5 -169t-98.5 -123t-157 -83t-230 -34z" />
    <glyph glyph-name="dagger" unicode="&#x2020;" horiz-adv-x="843" 
d="M268 426l170 553l-274 -31l67 252l256 -31l33 265h271l-107 -265l272 31l-67 -252l-258 31l-129 -553h-234z" />
    <glyph glyph-name="daggerdbl" unicode="&#x2021;" horiz-adv-x="884" 
d="M156 0l106 264l-270 -31l67 252l260 -30l37 262l107 262l-281 -31l68 252l258 -31l33 265h270l-106 -265l270 31l-68 -252l-260 31l-37 -262l-106 -262l280 30l-67 -252l-258 31l-33 -264h-270z" />
    <glyph glyph-name="bullet" unicode="&#x2022;" horiz-adv-x="1028" 
d="M504 328q-145 0 -228 87.5t-83 225.5q0 115 50.5 222.5t148.5 179t220 71.5q145 0 228.5 -87.5t83.5 -225.5q0 -85 -30.5 -169.5t-83.5 -152t-133.5 -109.5t-172.5 -42z" />
    <glyph glyph-name="ellipsis" unicode="&#x2026;" horiz-adv-x="1730" 
d="M-96 0l125 467h471l-125 -467h-471zM479 0l125 467h471l-125 -467h-471zM1055 0l125 467h471l-125 -467h-471z" />
    <glyph glyph-name="perthousand" unicode="&#x2030;" horiz-adv-x="2885" 
d="M1485 225q65 0 107 60.5t42 140.5q0 49 -28 82t-74 33q-65 0 -107.5 -60.5t-42.5 -140.5q0 -49 28.5 -82t74.5 -33zM2392 225q65 0 107.5 60.5t42.5 140.5q0 49 -28.5 82t-74.5 33q-65 0 -107 -60.5t-42 -140.5q0 -49 28 -82t74 -33zM530 893q65 0 107.5 60.5t42.5 140.5
q0 49 -28 81.5t-74 32.5q-65 0 -107.5 -60t-42.5 -140q0 -49 28 -82t74 -33zM1477 -23q-177 0 -273 98.5t-96 252.5q0 86 31.5 168.5t86.5 147.5t137.5 104.5t176.5 39.5q177 0 273 -98t96 -252q0 -86 -31.5 -168.5t-86.5 -147.5t-137.5 -105t-176.5 -40zM2384 -23
q-177 0 -273 98.5t-96 252.5q0 86 31.5 168.5t86.5 147.5t137.5 104.5t176.5 39.5q177 0 273 -98t96 -252q0 -86 -31.5 -168.5t-86.5 -147.5t-137.5 -105t-176.5 -40zM154 0l1445 1434h310l-1446 -1434h-309zM522 645q-177 0 -272.5 98t-95.5 252q0 86 31.5 168.5
t86.5 147.5t137.5 105t176.5 40q177 0 272.5 -98t95.5 -252q0 -86 -31.5 -168.5t-86.5 -147.5t-137.5 -105t-176.5 -40z" />
    <glyph glyph-name="guilsinglleft" unicode="&#x2039;" horiz-adv-x="698" 
d="M231 41l-211 438l50 180l407 402l250 -227l-330 -320l162 -328z" />
    <glyph glyph-name="guilsinglright" unicode="&#x203a;" horiz-adv-x="698" 
d="M215 41l-250 227l330 320l-162 327l328 146l211 -438l-49 -181z" />
    <glyph glyph-name="fraction" unicode="&#x2044;" horiz-adv-x="1171" 
d="M-291 -201l1421 1753h373l-1421 -1753h-373z" />
    <glyph glyph-name="fraction" unicode="&#x2215;" horiz-adv-x="1171" 
d="M-291 -201l1421 1753h373l-1421 -1753h-373z" />
    <glyph glyph-name="trademark" unicode="&#x2122;" horiz-adv-x="1413" 
d="M252 803l121 450h-187l47 181h582l-47 -181h-186l-121 -450h-209zM715 803l168 631h209l75 -222l195 222h231l-168 -631h-211l84 313l-206 -225h-2l-84 225l-84 -313h-207z" />
    <glyph glyph-name="radical" unicode="&#x221a;" horiz-adv-x="2353" 
d="M1663 0l401 1495h465l-401 -1495h-465zM8 0l203 760h-131l96 358h131q56 211 175 301t327 90q156 0 283 -41l-78 -288q-64 22 -127 22q-57 0 -85 -20t-40 -68l-2 -8h235l-92 -346h-227l-203 -760h-465zM877 0l202 760h-131l96 358h132q56 212 174.5 301.5t326.5 89.5
q156 0 283 -41l-78 -288q-64 22 -127 22q-57 0 -85 -20t-40 -68l-2 -8h236l-92 -346h-228l-203 -760h-464z" />
    <glyph glyph-name="approxequal" unicode="&#x2248;" horiz-adv-x="2353" 
d="M1663 0l299 1118h465l-299 -1118h-465zM8 0l203 760h-131l96 358h131q56 211 175 301t327 90q156 0 283 -41l-78 -288q-64 22 -127 22q-57 0 -85 -20t-40 -68l-2 -8h235l-92 -346h-227l-203 -760h-465zM877 0l202 760h-131l96 358h132q56 212 174.5 301.5t326.5 89.5
q156 0 283 -41l-78 -288q-64 22 -127 22q-57 0 -85 -20t-40 -68l-2 -8h236l-92 -346h-228l-203 -760h-464zM1976 1198l80 297h481l-79 -297h-482z" />
    <glyph glyph-name="NUL" horiz-adv-x="0" 
 />
    <glyph glyph-name="CR" horiz-adv-x="520" 
 />
    <glyph glyph-name="apple" horiz-adv-x="1980" 
d="M854 131q0 -35 -25 -35q-24 0 -24 35q0 33 24 33q25 0 25 -33zM721 152v-21h-6q-17 0 -17 16q0 13 15 13q8 0 8 -8zM1133 162q9 0 0 -19q-9 19 0 19zM786 444l19 -71q0 -15 -8 -15h-11q-22 0 -37.5 20t-15.5 46q0 35 29 35h12q6 -1 6.5 -2t5.5 -13zM1466 383
q0 -27 -22 -27q-19 0 -35 24t-16 54q0 29 22 29q19 0 35 -24t16 -56zM573 410h-10q-16 0 -23.5 9t-7.5 21q0 19 17 19q15 0 18 -10zM803 786h-23q-26 0 -26 23q0 22 26 22h23v-45zM1401 1096q0 -27 -23 -27q-19 0 -35 24t-16 54q0 29 23 29q19 0 35 -24t16 -56zM557 1133
q-6 -9 -14 -9t-8 4q0 7 8 7q12 0 14 -2zM1159 1133q-6 -9 -14 -9t-8 4q0 7 8 7q12 0 14 -2zM360 1122h-10q-16 0 -23.5 9.5t-7.5 21.5q0 18 17 18q15 0 18 -10zM903 -180q0 26 -22 26q-23 0 -23 -24q0 -27 23 -27q22 0 22 25zM1638 -180q0 26 -22 26q-23 0 -23 -24
q0 -27 23 -27q22 0 22 25zM1155 -188l-10 24l-10 -24h20zM807 -170q0 17 -23 14v-26q23 0 23 12zM1075 -168q0 15 -22 12v-24q22 -3 22 12zM1241 -170q0 17 -22 14v-26q22 0 22 12zM633 94v4q-4 0 -6 2q-6 3 -6 11v41q0 5 6 8q2 2 6 2v4h-37v-4q4 0 6 -2q6 -6 6 -8v-19
q-4 0 -8 4l-16 17q-5 3 -2 6q2 2 4 2v4h-29v-4q4 0 6 -2q3 -1 5 -3t5 -3l21 -19l-27 -26q-1 -1 -4 -3.5t-4 -3.5t-3 -2t-3 -2v-4h35v4q-4 0 -6 2t2 9l16 16q4 4 8 4v-18q0 -5 -6 -11q-2 -2 -6 -2v-4h37zM745 94v4q-4 0 -6 2q-4 4 -4 9v41q0 6 4 10q2 2 6 2v4h-36
q-27 0 -27 -19q0 -9 18 -18l-14 -20l-8 -6l-4 -3l-4 -2v-4h22l15 25q5 8 14 8v-18q0 -3 -6 -9q-2 -2 -4 -2v-4h34zM870 131q0 37 -41 37t-41 -37q0 -39 41 -39t41 39zM983 162v4h-31v-4q2 0 4 -2q1 -1 -2 -8l-12 -19l-12 19q-4 4 0 8q2 2 6 2v4h-31v-4q4 0 6 -2q1 -1 5 -3.5
t6 -4.5l16 -25v-16q0 -5 -6 -11q-2 -2 -4 -2v-4h35v4q-5 0 -7 2q-4 4 -4 11v16l17 25q1 4 5 6l5 2q2 2 4 2zM1194 166h-31v-4q2 0 4 -2q3 -3 0 -8l-18 -39l-10 20l8 17q1 3 2.5 4.5t3 2t2.5 1.5l4 4v4h-53l2 -4q2 0 4 -2l10 -10l6 -11l-14 -26l-16 37q-3 7 0 10q2 2 4 2v4
h-27v-4q2 0 4 -2t4.5 -5.5t3.5 -4.5l27 -56h2q2 -2 2 0l17 33l18 -33h2l25 56q1 3 3 5t4 3t3 2q2 2 4 2v4zM1296 94v4q-3 -3 -6 0q-4 0 -4 11v43q0 6 4 10h6v4h-59l-4 -21l4 -2q0 5 4 9q3 8 14 8h9q8 0 8 -6v-21h-8q-7 0 -11 4q-2 2 -2 6h-4v-26h4q0 4 2 6q6 6 11 6h8v-23
q0 -6 -8 -6h-9q-7 0 -16 9q-4 4 -4 10l-4 -2l4 -23h61zM1421 94v4q-4 0 -6 2q-6 3 -6 9v41q0 5 6 8q1 1 3 2t3 2v4h-20l-49 -53v37q0 7 6 10q2 2 6 2v4h-31v-4q4 0 6 -2q7 -7 7 -10v-58h6l51 58v-41q0 -3 -6 -9q-2 -2 -4 -2v-4h28zM1694 260v12h-1403v-12h1403zM629 350
l-2 6q-7 0 -9 2q-10 3 -12 15l-14 71q-4 12 6 15q2 2 8 2l-2 6h-55q-41 0 -41 -31q0 -12 11 -20t28 -10l-19 -33q-7 -11 -18 -15q-4 -2 -10 -2l2 -6h39l24 47q3 6 10 6l7 -30q4 -11 -7 -15q-2 -2 -8 -2l2 -6h60zM848 350l-2 8q-4 -4 -8 0q-10 3 -13 19l-16 63q-6 18 16 21
l-2 6h-61q-21 0 -36 -11.5t-15 -33.5q0 -31 21.5 -51.5t49.5 -20.5h66zM1071 350l-2 6q-4 0 -6 2q-9 3 -12 19l-15 65q-3 14 6 17q2 2 11 2l-2 6h-29l-59 -86l-11 61q-3 14 6 17q2 2 9 2l-2 6h-43l2 -6q6 0 8 -2q7 -3 10 -17l16 -92l7 -2l61 90l12 -61q3 -15 -4 -19
q-2 -2 -8 -2l2 -6h43zM1272 461l-2 6h-60l2 -6q7 0 9 -2q8 -3 12 -17l10 -43q4 -16 4 -23t-5.5 -12.5t-20.5 -5.5q-30 0 -41 45l-9 39q-3 16 7 19q4 4 8 0v6h-49l2 -6q6 0 10 -2q8 -3 12 -17l8 -39q14 -55 58 -55q52 0 39 49l-11 45q-8 14 7 19q3 3 10 0zM1686 350l-3 6
q-6 0 -8 2q-10 3 -12 15l-14 71q-4 12 6 15q2 2 8 2l-2 6h-92v-21v-14h8q-2 4 2 12q3 15 25 15h8q9 0 12 -13l6 -32h-8q-10 0 -18 8q-4 4 -7 10h-6l11 -47h6q0 6 2 10q3 13 14 13h8l6 -35q4 -12 -6 -15q-2 -2 -8 -2l2 -6h60zM412 440l4 4q-5 8 -6.5 10.5t-6 7.5t-10.5 7
t-14 2q-32 0 -29 -47q-14 47 -43 47q-24 0 -24 -25l6 -2q0 13 16 13q33 0 49 -68q6 -19 -4 -29q-5 -5 -8 -2l2 -8h57l-2 8q-4 -4 -8 0q-9 3 -12 19q-10 38 -10 51q0 27 18 27q10 0 25 -15zM1491 393q0 31 -23.5 54.5t-52.5 23.5q-17 0 -32 -11.5t-15 -33.5q0 -32 23 -55
t53 -23q17 0 32 11.5t15 33.5zM1694 555v12h-1403v-12h1403zM580 631v67h-29v133h29v70h-289v-127h84v57h67v-40h-49v-50h49v-43h-67v58h-84v-125h289zM938 631v67h-29v133h29v70h-197q-44 0 -70 -23t-26 -59t26 -59t70 -23h62v-39h-31v-67h166zM1327 831v70h-166v-70h23
l-31 -47l-31 47h21v70h-127v-70h24l76 -94v-39h-29v-67h166v67h-30v41l75 92h29zM1694 774v127h-301v-127h73v57h23v-133h-29v-67h166v67h-29v133h23v-57h74zM1694 973v12h-1403v-12h1403zM819 1067q0 5 -7 11t-19 7q-6 4 -9 21t-5 34t-13 30.5t-33 13.5q-10 0 -18 -7
t-8 -14q0 -10 10 -10q8 0 8 12q0 13 10 13t14 -15.5t9.5 -39.5t19.5 -38q-18 0 -30 -13t-17 -13q-10 0 -10 8q0 3 2 5t2 5q0 10 -10 10t-10 -14q0 -10 9.5 -17t20.5 -7q19 0 30 13t21 13q6 -14 25 -14q8 0 8 6zM416 1063l-2 6q-6 0 -8 2q-11 4 -13 14l-14 72q-4 11 6 14
q3 3 8 3l-2 6h-55q-41 0 -41 -31q0 -12 11 -21t28 -10l-19 -33q-6 -10 -18 -14q-4 -2 -10 -2l2 -6h39l24 47q3 6 10 6l7 -31q3 -11 -7 -14q-2 -2 -8 -2l2 -6h60zM1020 1063l-2 6q-6 0 -8 2q-11 4 -13 14l-14 72q-4 11 6 14q3 3 8 3l-2 6h-92v-21v-14h8q-2 4 2 12q3 14 25 14
h8q9 0 12 -12l7 -33h-9q-9 0 -18 9q-2 2 -6 10h-6l10 -47h6q0 6 2 10q3 12 14 12h9l6 -35q4 -11 -6 -14q-2 -2 -9 -2l3 -6h59zM1681 1063l-2 6q-6 0 -8 2q-10 3 -12 14l-14 72q-4 11 6 14q3 3 8 3l-2 6h-58l3 -6q5 0 8 -3q6 -2 10 -14l6 -31h-49l-6 31q-4 11 6 14q3 3 8 3
l-2 6h-59l2 -6q5 0 8 -3q8 -3 12 -14l15 -72q3 -11 -7 -14q-2 -2 -8 -2l2 -6h60l-2 6q-7 0 -9 2q-10 3 -12 14l-6 33h49l6 -33q4 -11 -6 -14q-2 -2 -8 -2l2 -6h59zM604 1100q0 25 -29 35q11 7 11 18q0 12 -11 21.5t-32 9.5q-27 0 -27 -23q0 -12 10 -12q9 0 9 6q0 4 -3.5 6.5
t-3.5 5.5q0 11 15 11q20 0 20 -25q0 -8 -4 -12q-33 3 -33 -13q0 -12 17 -12q12 0 22 10q13 -10 13 -30q0 -29 -25 -29t-25 18q0 7 7 7q1 0 4 -2.5t6 -2.5q8 0 8 11q0 10 -14 10q-19 0 -19 -21q0 -26 33 -26q51 0 51 39zM1206 1100q0 26 -28 35q10 7 10 18q0 12 -11 21.5
t-32 9.5q-27 0 -27 -23q0 -12 10 -12q9 0 9 6q0 4 -3.5 6.5t-3.5 5.5q0 11 15 11q20 0 20 -25q0 -8 -4 -12q-33 3 -33 -13q0 -12 17 -12q12 0 22 10q13 -10 13 -30q0 -29 -25 -29t-25 18q0 7 7 7q1 0 4 -2.5t6 -2.5q8 0 8 11q0 10 -14 10q-19 0 -19 -21q0 -26 33 -26
q51 0 51 39zM1425 1106q0 31 -23 54.5t-52 23.5q-17 0 -32 -11.5t-15 -33.5q0 -32 22.5 -55t52.5 -23q17 0 32 11.5t15 33.5zM1694 1266v12h-1403v-12h1403zM899 1356v4q-3 -3 -6 0q-4 0 -4 10v43q0 6 4 10h6v4h-59l-4 -20l4 -2q0 4 4 8q3 8 14 8h8q8 0 8 -6v-20h-8
q-6 0 -10 4q-2 2 -2 6h-4v-27h4q0 4 2 6q7 7 10 7h8v-23q0 -6 -8 -6h-8q-8 0 -16 8q-4 4 -4 10l-4 -2l4 -22h61zM1032 1356v4q-3 -3 -6 0q-6 0 -6 10v43q0 7 6 10h6v4h-37v-2v-2h4q7 -7 7 -10v-18h-35v18q0 6 4 10h6v2v2h-35v-4h4q6 -6 6 -10v-43q0 -2 -6 -8q-2 -2 -4 -2v-4
h35v4q-4 0 -6 2q-4 4 -4 8v21h35v-21q0 -10 -7 -10q-2 -2 -4 0v-4h37zM1141 1405h4v8q0 3 -1 8.5t-1 8.5q-3 -3 -35 -3q-31 0 -37 3q0 -3 -1 -8.5t-1 -8.5v-8h4q1 1 3 4t3 4q10 10 15 10q6 0 6 -6v-47q0 -10 -6 -10q-2 -2 -4 0v-4h34v4q-3 -3 -6 0q-4 0 -4 10v47q0 6 6 6
q7 0 17 -10q4 -4 4 -8zM582 -207q0 -8 -9 -8q-8 0 -8 8t8 8q9 0 9 -8zM1466 -207q0 -8 -8 -8t-8 8t8 8t8 -8zM317 -145l-24 -70h-2l-23 47l-20 -47h-2l-25 70l12 2l15 -47l20 47h2l21 -47l14 45h12zM432 -145l-24 -70h-2l-23 47l-21 -47h-2l-24 70l12 2l14 -47l21 47h2
l21 -47l14 45h12zM547 -145l-25 -70h-2l-22 47l-21 -47h-2l-24 70l12 2l14 -47l21 47h2l20 -47l15 45h12zM662 -145v-11h-25v-57h-12v57h-25v11h62zM745 -145l-26 -39v-29h-12v29l-29 39l12 2l23 -31l18 29h14zM819 -168q0 -25 -35 -25v-20h-12v68q47 7 47 -23zM915 -178
q0 -37 -34 -37q-16 0 -25.5 10.5t-9.5 24.5q0 37 37 37q13 0 22.5 -10.5t9.5 -24.5zM1006 -176v-31q-11 -8 -27 -8q-37 0 -37 35q0 17 11 27t28 10q13 0 25 -9l-5 -10q-8 8 -22 8q-25 0 -25 -26q0 -25 27 -25l12 4v15h-18v10h31zM1094 -213h-15l-16 23h-10v-23h-13v68
q47 7 47 -21q0 -14 -14 -20zM1180 -213h-13l-8 16h-29l-6 -16h-12l31 70h4zM1253 -168q0 -25 -34 -25v-20h-13v68q47 7 47 -23zM1343 -213h-12v31h-33v-31h-12v68h12v-27h33v27h12v-68zM1438 -145l-27 -39v-29h-12v29l-29 39l12 2l23 -31l18 29h15zM1552 -197l-2 -12
q-6 -6 -20 -6q-37 0 -37 35q0 37 37 37q11 0 22 -7l-4 -10q-6 6 -18 6q-11 0 -18 -7t-7 -17q0 -27 27 -27q9 0 20 8zM1651 -178q0 -37 -35 -37q-16 0 -25.5 10.5t-9.5 24.5q0 37 37 37q13 0 23 -10.5t10 -24.5zM1759 -213h-12l-6 41l-21 -43h-4l-20 43l-6 -41h-13l13 70h2
l26 -54l27 54h2zM1778 0h-1571v1536h1571v-1536z" />
    </font>
</defs>
</svg>
