<?xml version="1.0" standalone="no"?>
<!DOCTYPE svg PUBLIC "-//W3C//DTD SVG 1.1//EN" "http://www.w3.org/Graphics/SVG/1.1/DTD/svg11.dtd" >
<svg xmlns="http://www.w3.org/2000/svg" xmlns:xlink="http://www.w3.org/1999/xlink" version="1.1">
<metadata>
Created by FontForge 20201107 at Sun Nov  3 14:32:22 2024
 By 
HTF Gotham  Copr. 2002 The Hoefler Type Foundry, Inc. Info: www.typography.com
</metadata>
<defs>
<font id="SVN-GothamLightItalic" horiz-adv-x="1732" >
  <font-face 
    font-family="SVN-Gotham Light"
    font-weight="300"
    font-style="italic"
    font-stretch="normal"
    units-per-em="2048"
    panose-1="2 0 6 3 4 0 0 9 0 4"
    ascent="1638"
    descent="-410"
    x-height="1044"
    cap-height="1434"
    bbox="-248 -410 2470 2189"
    underline-thickness="40"
    underline-position="-271"
    slope="-12"
    unicode-range="U+0020-FB02"
  />
<missing-glyph horiz-adv-x="1024" 
 />
    <glyph glyph-name="fi" unicode="fi" horiz-adv-x="1253" 
d="M807 0l280 1044h101l-281 -1044h-100zM113 0l256 952h-152l25 92h151l41 152q80 299 334 299q119 0 209 -49l-25 -90q-107 49 -188 49q-178 0 -236 -231l-34 -130h376l-24 -92h-377l-256 -952h-100zM1149 1317l37 137h125l-37 -137h-125z" />
    <glyph glyph-name="fl" unicode="fl" horiz-adv-x="1253" 
d="M113 0l256 952h-152l25 92h151l41 152q80 299 334 299q119 0 209 -49l-25 -90q-107 49 -188 49q-178 0 -236 -231l-34 -130h376l-24 -92h-377l-256 -952h-100zM807 0l401 1495h101l-402 -1495h-100z" />
    <glyph glyph-name=".notdef" horiz-adv-x="1024" 
 />
    <glyph glyph-name=".null" horiz-adv-x="0" 
 />
    <glyph glyph-name="nonmarkingreturn" horiz-adv-x="682" 
 />
    <glyph glyph-name="space" unicode=" " horiz-adv-x="614" 
 />
    <glyph glyph-name="exclam" unicode="!" horiz-adv-x="514" 
d="M49 0l47 174h135l-47 -174h-135zM188 375l215 915l39 144h119l-39 -144l-276 -915h-58z" />
    <glyph glyph-name="quotedbl" unicode="&#x22;" horiz-adv-x="839" 
d="M207 913l190 521h129v-11l-260 -510h-59zM575 913l191 521h129v-11l-260 -510h-60z" />
    <glyph glyph-name="numbersign" unicode="#" horiz-adv-x="1388" 
d="M453 479h421l170 484h-423zM186 0l133 383h-247l24 96h256l170 484h-272l24 96h281l131 375h98l-131 -375h424l131 375h99l-131 -375h247l-24 -96h-256l-170 -484h272l-24 -96h-281l-133 -383h-98l133 383h-424l-133 -383h-99z" />
    <glyph glyph-name="dollar" unicode="$" horiz-adv-x="1265" 
d="M723 666l-154 -570q185 -8 305.5 76.5t120.5 222.5q0 87 -61 149.5t-211 121.5zM666 797l145 536q-176 24 -303 -58t-127 -214q0 -90 64.5 -147.5t220.5 -116.5zM389 -201l57 211q-139 23 -254 85.5t-194 154.5l78 67q147 -176 405 -213l158 590q-200 75 -283.5 154
t-83.5 203q0 165 136.5 274t339.5 109q28 0 90 -4l32 122h101l-37 -137q214 -44 352 -182l-74 -74q-125 125 -313 164l-149 -557q188 -68 271 -151t83 -209q0 -176 -145.5 -291t-376.5 -115h-39l-54 -201h-100z" />
    <glyph glyph-name="percent" unicode="%" horiz-adv-x="1681" 
d="M1212 74q76 0 142.5 52t103.5 132.5t37 165.5q0 100 -48.5 157.5t-139.5 57.5q-76 0 -142.5 -52t-103.5 -132.5t-37 -165.5q0 -100 48.5 -157.5t139.5 -57.5zM479 797q76 0 142.5 52t103.5 132.5t37 165.5q0 100 -49 157.5t-140 57.5q-76 0 -142 -52t-103 -132.5
t-37 -165.5q0 -100 48.5 -157.5t139.5 -57.5zM1204 -14q-123 0 -201.5 84t-78.5 209q0 114 51.5 217t142.5 167t197 64q123 0 201.5 -84t78.5 -209q0 -114 -51.5 -217t-142.5 -167t-197 -64zM133 0l1397 1434h123l-1397 -1434h-123zM471 709q-123 0 -202 83.5t-79 208.5
q0 114 51.5 217t143 167.5t197.5 64.5q123 0 201.5 -84t78.5 -209q0 -114 -51.5 -217t-142.5 -167t-197 -64z" />
    <glyph glyph-name="ampersand" unicode="&#x26;" horiz-adv-x="1413" 
d="M485 74q126 0 235.5 53t221.5 162l-326 461q-223 -53 -333.5 -159.5t-110.5 -240.5q0 -128 85 -202t228 -74zM668 842q409 106 409 315q0 95 -63.5 153t-171.5 58q-109 0 -189 -78.5t-80 -189.5q0 -64 22 -122.5t73 -135.5zM1171 -29l-174 248q-124 -124 -245 -181.5
t-279 -57.5q-178 0 -294 95.5t-116 262.5q0 175 127 300t375 187q-96 155 -96 273q0 152 111.5 256t265.5 104t245 -81t91 -216q0 -61 -23 -114t-75 -103.5t-144 -95t-221 -80.5l291 -412q116 130 237 342l80 -47q-134 -223 -260 -364l184 -262z" />
    <glyph glyph-name="quotesingle" unicode="'" horiz-adv-x="471" 
d="M207 913l190 521h129v-11l-260 -510h-59z" />
    <glyph glyph-name="parenleft" unicode="(" horiz-adv-x="880" 
d="M616 -227l-57 -60q-356 315 -356 733q0 153 49 298t146 279t254 250t362 200l35 -76q-157 -67 -282.5 -153t-210 -179t-141 -197.5t-81.5 -207.5t-25 -211q0 -111 23 -209t68.5 -181t95.5 -148.5t120 -137.5z" />
    <glyph glyph-name="parenright" unicode=")" horiz-adv-x="880" 
d="M-96 -285l-35 76q157 67 282.5 153t210 179t140.5 197.5t81 207.5t25 211q0 111 -23 209t-68.5 181t-95.5 148.5t-120 137.5l57 60q357 -330 357 -734q0 -153 -49 -298t-146 -278.5t-254 -249.5t-362 -200z" />
    <glyph glyph-name="asterisk" unicode="*" horiz-adv-x="880" 
d="M553 831l-84 21l86 248l-248 -86l-24 84l264 49l-205 172l64 61l172 -198l49 256l84 -21l-86 -248l247 86l25 -84l-264 -49l205 -172l-64 -61l-172 198z" />
    <glyph glyph-name="plus" unicode="+" horiz-adv-x="1308" 
d="M524 231l119 441h-444l26 98h445l116 440h103l-117 -440h445l-27 -98h-445l-118 -441h-103z" />
    <glyph glyph-name="comma" unicode="," horiz-adv-x="473" 
d="M-66 -217l-14 49q75 26 114 67t50 101h-55l47 174h135l-41 -151q-33 -107 -83.5 -159t-152.5 -81z" />
    <glyph glyph-name="hyphen" unicode="-" horiz-adv-x="837" 
d="M152 551l30 115h549l-31 -115h-548z" />
    <glyph glyph-name="hyphen" unicode="&#xad;" horiz-adv-x="837" 
d="M152 551l30 115h549l-31 -115h-548z" />
    <glyph glyph-name="period" unicode="." horiz-adv-x="473" 
d="M29 0l47 174h135l-47 -174h-135z" />
    <glyph glyph-name="slash" unicode="/" horiz-adv-x="1024" 
d="M-248 -262l1467 1896h110l-1466 -1896h-111z" />
    <glyph glyph-name="zero" unicode="0" horiz-adv-x="1452" 
d="M655 72q122 0 238 74t199 193t133.5 273.5t50.5 309.5q0 125 -40.5 222.5t-127.5 157.5t-209 60q-98 0 -193 -47.5t-171 -131t-134 -190.5t-90 -232t-32 -249q0 -193 97.5 -316.5t278.5 -123.5zM649 -25q-154 0 -264.5 71.5t-163.5 191t-53 274.5q0 174 56.5 344.5
t153 303.5t235.5 215.5t292 82.5q154 0 264.5 -71t163.5 -190.5t53 -274.5q0 -174 -56 -344.5t-152 -304t-235 -216t-294 -82.5z" />
    <glyph glyph-name="one" unicode="1" horiz-adv-x="684" 
d="M190 0l355 1321l-301 -94l-4 96l360 121h84l-387 -1444h-107z" />
    <glyph glyph-name="two" unicode="2" horiz-adv-x="1204" 
d="M-39 0l19 80l856 665q132 104 191.5 186.5t59.5 178.5q0 109 -81.5 178.5t-225.5 69.5q-213 0 -409 -205l-76 66q228 235 489 235q184 0 299 -94.5t115 -247.5q0 -120 -73.5 -220t-223.5 -216l-741 -574h827l-26 -102h-1000z" />
    <glyph glyph-name="three" unicode="3" horiz-adv-x="1241" 
d="M512 -25q-180 0 -305 74t-187 207l89 49q120 -233 409 -233q190 0 315 101.5t125 258.5q0 136 -106 204.5t-295 68.5h-59l-23 53l639 575h-768l29 101h921l-20 -76l-629 -567q118 -5 212 -45t153 -119.5t59 -186.5q0 -132 -77 -239.5t-204.5 -166.5t-277.5 -59z" />
    <glyph glyph-name="four" unicode="4" horiz-adv-x="1320" 
d="M203 442h671l224 832zM756 0l94 350h-776l-17 80l1092 1014h98l-268 -1002h233l-24 -92h-234l-94 -350h-104z" />
    <glyph glyph-name="five" unicode="5" horiz-adv-x="1230" 
d="M516 -25q-314 0 -483 256l88 56q148 -219 401 -219q102 0 190 33.5t147 89.5t92.5 128t33.5 150q0 144 -96.5 225.5t-247.5 81.5q-166 0 -330 -90l-67 53l227 695h774l-28 -103h-680l-177 -526q45 25 132 46t149 21q210 0 332.5 -107.5t122.5 -291.5q0 -80 -26.5 -154.5
t-77.5 -136.5t-121 -108.5t-161.5 -72.5t-193.5 -26z" />
    <glyph glyph-name="six" unicode="6" horiz-adv-x="1310" 
d="M655 70q122 0 221 56t153 148t54 199q0 59 -21.5 114.5t-63.5 102t-111.5 75t-157.5 28.5q-95 0 -178.5 -33t-139.5 -86.5t-88 -122t-32 -139.5q0 -148 94 -242q100 -100 270 -100zM649 -25q-102 0 -190.5 35t-149.5 96q-139 139 -139 396q0 229 79 425.5t208 325.5
q205 205 458 205q259 0 418 -190l-78 -68q-142 162 -346 162q-202 0 -370 -168q-101 -101 -169.5 -248t-80.5 -297q71 106 185 174t261 68q106 0 194 -34.5t145 -92.5t88.5 -133t31.5 -158q0 -99 -41.5 -190.5t-112.5 -159t-173.5 -108t-217.5 -40.5z" />
    <glyph glyph-name="seven" unicode="7" horiz-adv-x="1183" 
d="M164 0l964 1331h-825l29 103h950l-22 -78l-973 -1356h-123z" />
    <glyph glyph-name="eight" unicode="8" horiz-adv-x="1312" 
d="M610 76q201 0 324 89t123 230q0 122 -114 208.5t-300 86.5q-204 0 -327 -94.5t-123 -228.5q0 -129 114 -210t303 -81zM768 778q97 0 177 26.5t129 70t75.5 97t26.5 109.5q0 122 -102 199.5t-263 77.5q-177 0 -288 -86t-111 -215q0 -120 99 -199.5t257 -79.5zM604 -20
q-232 0 -377 108t-145 266q0 166 121.5 270.5t316.5 135.5q-96 34 -157.5 113.5t-61.5 191.5q0 109 67.5 198.5t184.5 140t258 50.5q207 0 341 -103t134 -264q0 -98 -51.5 -177.5t-134 -127.5t-185.5 -67q103 -35 177.5 -122t74.5 -202q0 -118 -74 -212.5t-202.5 -146.5
t-286.5 -52z" />
    <glyph glyph-name="nine" unicode="9" horiz-adv-x="1310" 
d="M686 623q93 0 175 34t138 89.5t88.5 128.5t32.5 149q0 142 -94 236q-102 102 -270 102q-122 0 -221.5 -57.5t-154 -151.5t-54.5 -203q0 -62 21 -118.5t63 -104t113.5 -76t162.5 -28.5zM498 -27q-133 0 -242.5 54t-187.5 149l77 68q77 -85 162.5 -129.5t196.5 -44.5
q200 0 368 168q101 101 169.5 244.5t80.5 293.5q-171 -252 -450 -252q-107 0 -194.5 35t-144 94.5t-87.5 136t-31 160.5q0 100 42 192.5t114 161.5t175 110.5t218 41.5q102 0 189.5 -35t148.5 -96q139 -139 139 -395q0 -229 -79 -426t-208 -326q-205 -205 -456 -205z" />
    <glyph glyph-name="colon" unicode=":" horiz-adv-x="493" 
d="M39 0l47 174h135l-47 -174h-135zM272 870l47 174h136l-47 -174h-136z" />
    <glyph glyph-name="semicolon" unicode=";" horiz-adv-x="493" 
d="M-55 -217l-15 49q75 26 114 67t50 101h-55l47 174h135l-41 -151q-33 -107 -83 -159t-152 -81zM272 870l47 174h136l-47 -174h-136z" />
    <glyph glyph-name="semicolon" unicode="&#x37e;" horiz-adv-x="493" 
d="M-55 -217l-15 49q75 26 114 67t50 101h-55l47 174h135l-41 -151q-33 -107 -83 -159t-152 -81zM272 870l47 174h136l-47 -174h-136z" />
    <glyph glyph-name="less" unicode="&#x3c;" horiz-adv-x="1310" 
d="M979 186l-819 494l22 82l1084 493l-31 -120l-938 -422l711 -426z" />
    <glyph glyph-name="equal" unicode="=" horiz-adv-x="1310" 
d="M166 438l29 105h929l-28 -105h-930zM291 899l26 105h930l-26 -105h-930z" />
    <glyph glyph-name="greater" unicode="&#x3e;" horiz-adv-x="1310" 
d="M104 186l31 121l938 422l-711 426l29 100l819 -493l-22 -82z" />
    <glyph glyph-name="question" unicode="?" horiz-adv-x="1093" 
d="M262 0l47 174h135l-47 -174h-135zM397 375l62 332l14 10q232 18 372 116.5t140 258.5q0 125 -88 194.5t-223 69.5q-116 0 -220 -51t-182 -129l-65 69q207 207 475 207q188 0 300 -100t112 -258q0 -97 -44 -179t-120 -139t-172 -93.5t-207 -51.5l-88 -256h-66z" />
    <glyph glyph-name="at" unicode="@" horiz-adv-x="2007" 
d="M911 242q102 0 200 60.5t160 159.5t62 204q0 119 -70.5 192.5t-191.5 73.5q-104 0 -193.5 -60.5t-141.5 -163t-52 -219.5q0 -116 63 -181.5t164 -65.5zM995 -330q-194 0 -354.5 58t-271.5 162.5t-172.5 254t-61.5 328.5q0 130 36.5 256t101.5 234t158 200t203 157
t240.5 101.5t266.5 36.5q186 0 338.5 -56t253 -154t155 -230t54.5 -283q0 -112 -26.5 -209t-69.5 -164.5t-98.5 -116.5t-113.5 -72t-114 -23q-108 0 -171 54t-77 150q-164 -209 -381 -209q-137 0 -229.5 93t-92.5 247q0 109 43 210.5t112.5 173.5t160 115.5t182.5 43.5
q122 0 200.5 -62.5t114.5 -158.5l62 201l96 -27l-154 -496q-33 -110 5 -185t139 -75q54 0 111.5 31.5t109.5 91t85.5 161t33.5 226.5q0 110 -31.5 209.5t-93.5 181t-149 141.5t-203.5 93t-251.5 33q-189 0 -362.5 -75t-298 -200t-199 -294.5t-74.5 -350.5
q0 -332 215.5 -534.5t572.5 -202.5q221 0 424 92l29 -59q-214 -99 -453 -99z" />
    <glyph glyph-name="A" unicode="A" horiz-adv-x="1554" 
d="M410 498h755l-153 829zM-70 0l1055 1444h102l281 -1444h-108l-74 401h-846l-291 -401h-119z" />
    <glyph glyph-name="B" unicode="B" horiz-adv-x="1468" 
d="M207 98h518q222 0 351.5 86.5t129.5 237.5q0 123 -104.5 187.5t-274.5 64.5h-467zM387 772h442q217 0 348.5 90t131.5 236q0 117 -86.5 177t-243.5 60h-440zM74 0l385 1434h530q197 0 313.5 -87t116.5 -239t-107 -254t-272 -133q124 -32 199.5 -105.5t75.5 -193.5
q0 -187 -161.5 -304.5t-434.5 -117.5h-645z" />
    <glyph glyph-name="C" unicode="C" horiz-adv-x="1511" 
d="M774 -27q-119 0 -225.5 40.5t-186.5 114t-127 184.5t-47 243q0 172 68 337t182 289.5t273.5 200.5t332.5 76q187 0 322 -85t205 -224l-92 -49q-76 130 -178 196t-263 66q-122 0 -236.5 -44.5t-204 -122.5t-157.5 -179t-104.5 -219t-36.5 -238q0 -222 136 -354.5
t349 -132.5q151 0 265.5 54.5t220.5 160.5l71 -66q-112 -115 -248 -181.5t-319 -66.5z" />
    <glyph glyph-name="D" unicode="D" horiz-adv-x="1579" 
d="M207 98h350q389 0 635 246q192 192 192 479q0 221 -133 351q-161 161 -477 161h-235zM74 0l385 1434h321q172 0 316.5 -48.5t240.5 -144.5q158 -158 158 -410q0 -332 -223 -555q-131 -131 -320 -203.5t-409 -72.5h-469z" />
    <glyph glyph-name="E" unicode="E" horiz-adv-x="1329" 
d="M74 0l385 1434h1009l-26 -99h-903l-152 -563h811l-27 -98h-811l-153 -576h913l-26 -98h-1020z" />
    <glyph glyph-name="F" unicode="F" horiz-adv-x="1343" 
d="M74 0l385 1434h1009l-26 -99h-903l-158 -587h811l-27 -99h-811l-174 -649h-106z" />
    <glyph glyph-name="G" unicode="G" horiz-adv-x="1609" 
d="M811 -27q-178 0 -318 73.5t-220 212t-80 319.5q0 131 42.5 260.5t122 240.5t185.5 196.5t242 134t282 48.5q106 0 192.5 -21.5t148.5 -61t104.5 -83t78.5 -100.5l-84 -55q-34 51 -70.5 88.5t-89.5 70t-126 49.5t-164 17q-157 0 -299 -67.5t-240.5 -177t-156.5 -250.5
t-58 -285q0 -236 142 -374t372 -138q237 0 414 116l131 459h-477l26 98h582l-176 -616q-121 -78 -242 -116t-264 -38z" />
    <glyph glyph-name="H" unicode="H" horiz-adv-x="1548" 
d="M74 0l385 1434h106l-178 -664h907l179 664h106l-385 -1434h-107l181 672h-908l-180 -672h-106z" />
    <glyph glyph-name="I" unicode="I" horiz-adv-x="561" 
d="M88 0l385 1434h107l-385 -1434h-107z" />
    <glyph glyph-name="J" unicode="J" horiz-adv-x="1101" 
d="M401 -20q-169 0 -270 90t-141 239l94 33q42 -134 117 -200t196 -66q154 0 260 106q99 99 160 314l252 938h107l-256 -953q-62 -237 -191 -366q-65 -65 -152 -100t-176 -35z" />
    <glyph glyph-name="K" unicode="K" horiz-adv-x="1462" 
d="M74 0l385 1434h106l-250 -932l1147 932h158l-797 -641l434 -793h-122l-400 731l-459 -373l-96 -358h-106z" />
    <glyph glyph-name="L" unicode="L" horiz-adv-x="1228" 
d="M74 0l385 1434h106l-358 -1336h842l-27 -98h-948z" />
    <glyph glyph-name="M" unicode="M" horiz-adv-x="1779" 
d="M74 0l385 1434h88l348 -848l803 848h112l-385 -1434h-106l334 1245l-789 -825h-8l-346 825l-334 -1245h-102z" />
    <glyph glyph-name="N" unicode="N" horiz-adv-x="1609" 
d="M74 0l385 1434h98l645 -1256l338 1256h102l-385 -1434h-77l-660 1282l-344 -1282h-102z" />
    <glyph glyph-name="O" unicode="O" 
d="M815 70q146 0 280 65.5t228.5 172.5t150.5 247.5t56 286.5q0 223 -142 371.5t-366 148.5q-146 0 -280 -65.5t-228.5 -172.5t-150.5 -247.5t-56 -286.5q0 -223 142 -371.5t366 -148.5zM815 -27q-132 0 -248 48.5t-196.5 131t-127 196t-46.5 241.5q0 166 65.5 324.5
t175 278t263.5 192.5t321 73q176 0 318.5 -82t221 -222.5t78.5 -311.5q0 -166 -65.5 -325t-175 -278.5t-263.5 -192.5t-321 -73z" />
    <glyph glyph-name="P" unicode="P" horiz-adv-x="1357" 
d="M350 633h344q290 0 444 106.5t154 304.5q0 118 -73 191q-100 100 -316 100h-364zM74 0l385 1434h446q266 0 395 -129q99 -99 99 -256q0 -243 -190.5 -377.5t-518.5 -134.5h-364l-146 -537h-106z" />
    <glyph glyph-name="Q" unicode="Q" 
d="M815 70q207 0 389 129l-239 266l77 67l234 -274q119 111 186.5 265t67.5 319q0 223 -142 371.5t-366 148.5q-146 0 -280 -65.5t-228.5 -172.5t-150.5 -247.5t-56 -286.5q0 -223 142 -371.5t366 -148.5zM1417 -49l-147 174q-207 -152 -455 -152q-132 0 -248 48.5
t-196.5 131t-127 196t-46.5 241.5q0 166 65.5 324.5t175 278t263.5 192.5t321 73q176 0 318.5 -82t221 -222.5t78.5 -311.5q0 -186 -80 -359.5t-219 -298.5l154 -168z" />
    <glyph glyph-name="R" unicode="R" horiz-adv-x="1460" 
d="M365 690h430q304 0 450 146q96 96 96 231q0 107 -63 170q-98 98 -309 98h-430zM74 0l385 1434h514q258 0 385 -127q90 -90 90 -234q0 -172 -127 -299q-141 -141 -422 -170l315 -604h-122l-308 594h-444l-160 -594h-106z" />
    <glyph glyph-name="S" unicode="S" horiz-adv-x="1306" 
d="M612 -20q-376 0 -571 274l82 59q94 -121 213 -179t287 -58q177 0 295 89t118 224q0 94 -68.5 155.5t-244.5 133.5q-228 89 -319 170.5t-91 210.5q0 166 143.5 280.5t370.5 114.5q157 0 287 -59.5t211 -159.5l-82 -66q-160 189 -426 189q-178 0 -286.5 -86t-108.5 -205
q0 -95 79 -159.5t263 -133.5q202 -75 291.5 -161.5t89.5 -215.5q0 -176 -152 -296.5t-381 -120.5z" />
    <glyph glyph-name="T" unicode="T" horiz-adv-x="1259" 
d="M428 0l358 1335h-499l26 99h1106l-26 -99h-500l-358 -1335h-107z" />
    <glyph glyph-name="U" unicode="U" horiz-adv-x="1548" 
d="M713 -23q-127 0 -226.5 34.5t-162 96t-95 143t-32.5 177.5q0 109 28 221l209 785h107l-222 -834q-18 -74 -18 -164q0 -162 106.5 -262t313.5 -100q203 0 350 147q134 134 201 381l223 832h107l-230 -854q-72 -267 -227 -422q-181 -181 -432 -181z" />
    <glyph glyph-name="V" unicode="V" horiz-adv-x="1462" 
d="M530 -10l-239 1444h110l203 -1319l914 1319h120l-1013 -1444h-95z" />
    <glyph glyph-name="W" unicode="W" horiz-adv-x="2199" 
d="M440 -10l-133 1444h111l108 -1276l762 1280h82l78 -1280l793 1276h118l-907 -1444h-86l-86 1245l-754 -1245h-86z" />
    <glyph glyph-name="X" unicode="X" horiz-adv-x="1417" 
d="M-47 0l749 741l-380 693h114l342 -631l635 631h137l-721 -711l394 -723h-115l-354 662l-664 -662h-137z" />
    <glyph glyph-name="Y" unicode="Y" horiz-adv-x="1368" 
d="M479 0l156 582l-375 852h117l330 -770l745 770h143l-862 -879l-147 -555h-107z" />
    <glyph glyph-name="Z" unicode="Z" horiz-adv-x="1355" 
d="M-39 0l16 59l1303 1278h-926l27 97h1092l-17 -60l-1302 -1278h966l-26 -96h-1133z" />
    <glyph glyph-name="bracketleft" unicode="[" horiz-adv-x="880" 
d="M33 -266l456 1700h560l-23 -78h-465l-414 -1544h465l-20 -78h-559z" />
    <glyph glyph-name="backslash" unicode="\" horiz-adv-x="1024" 
d="M754 -262l-453 1896h90l453 -1896h-90z" />
    <glyph glyph-name="bracketright" unicode="]" horiz-adv-x="880" 
d="M-137 -266l22 78h465l414 1544h-465l20 78h560l-457 -1700h-559z" />
    <glyph glyph-name="asciicircum" unicode="^" horiz-adv-x="1024" 
d="M264 1010l438 430h91l208 -430h-96l-170 342l-354 -342h-117z" />
    <glyph glyph-name="underscore" unicode="_" horiz-adv-x="1228" 
d="M-233 -328l24 90h1239l-24 -90h-1239z" />
    <glyph glyph-name="grave" unicode="`" horiz-adv-x="1024" 
d="M754 1219l-162 211l127 61l106 -272h-71z" />
    <glyph glyph-name="a" unicode="a" horiz-adv-x="1169" 
d="M408 68q153 0 288 97t178 251l25 92q-192 49 -395 49q-155 0 -252.5 -77t-97.5 -199q0 -98 68.5 -155.5t185.5 -57.5zM389 -25q-90 0 -166 31.5t-126 100t-50 161.5q0 171 131.5 275t339.5 104q204 0 402 -59l8 28q14 54 14 105q0 119 -81 182.5t-234 63.5
q-143 0 -303 -56l-19 90q160 60 330 60q191 0 298 -86.5t107 -239.5q0 -70 -20 -137l-160 -598h-98l47 180q-169 -205 -420 -205z" />
    <glyph glyph-name="b" unicode="b" horiz-adv-x="1339" 
d="M635 68q138 0 250.5 77t173.5 202t61 269q0 161 -90 260t-233 99q-95 0 -191 -46t-168.5 -120.5t-118 -174.5t-45.5 -202q0 -155 101 -259.5t260 -104.5zM639 -27q-85 0 -156 24t-120.5 66.5t-83.5 92.5t-56 110l-71 -266h-101l402 1495h100l-178 -655q191 229 434 229
q181 0 300.5 -124.5t119.5 -315.5q0 -136 -48.5 -258.5t-129.5 -209t-189 -137.5t-223 -51z" />
    <glyph glyph-name="c" unicode="c" horiz-adv-x="1153" 
d="M557 -25q-69 0 -135 19t-124 57.5t-101.5 91.5t-69 126t-25.5 157q0 168 84 316.5t226.5 237.5t304.5 89q150 0 251.5 -70.5t157.5 -181.5l-84 -47q-27 46 -55 79.5t-67.5 64t-92 46t-116.5 15.5q-130 0 -246 -75.5t-185 -201t-69 -266.5q0 -168 104 -265t248 -97
q179 0 338 149l68 -65q-182 -179 -412 -179z" />
    <glyph glyph-name="d" unicode="d" horiz-adv-x="1339" 
d="M543 68q128 0 249 76.5t197 203t76 262.5q0 155 -100.5 260t-259.5 105q-138 0 -251 -77t-174 -202.5t-61 -269.5q0 -160 90.5 -259t233.5 -99zM530 -27q-181 0 -300 125t-119 316q0 136 48.5 258.5t129 209t188.5 137t223 50.5q85 0 156 -24t120.5 -66.5t83.5 -92.5
t56 -110l193 719h100l-399 -1495h-101l54 203q-191 -230 -433 -230z" />
    <glyph glyph-name="e" unicode="e" horiz-adv-x="1193" 
d="M233 578h758q8 24 8 86q0 135 -74.5 224t-219.5 89q-170 0 -297 -114.5t-175 -284.5zM1073 487h-858q-4 -46 -4 -69q0 -157 95.5 -252.5t250.5 -95.5q110 0 191 35t165 104l60 -72q-95 -78 -190.5 -120t-225.5 -42q-200 0 -327.5 123t-127.5 316q0 122 47.5 240.5
t127 210t193 148t237.5 56.5q126 0 217.5 -55.5t134.5 -144.5t43 -199q0 -94 -29 -183z" />
    <glyph glyph-name="f" unicode="f" horiz-adv-x="741" 
d="M113 0l256 952h-152l25 92h151l41 152q80 299 334 299q119 0 209 -49l-25 -90q-107 49 -188 49q-178 0 -236 -231l-34 -130h376l-24 -92h-377l-256 -952h-100z" />
    <glyph glyph-name="g" unicode="g" horiz-adv-x="1339" 
d="M578 172q128 0 244 67t185.5 175.5t69.5 224.5q0 132 -101 233t-265 101q-123 0 -232 -60t-178.5 -172.5t-69.5 -251.5q0 -99 51 -173t128.5 -109t167.5 -35zM483 -332q-139 0 -269 52t-224 143l73 74q190 -175 424 -175q205 0 322 117q51 51 84 116t59 159l37 131
q-194 -207 -430 -207q-84 0 -162 28t-139.5 78.5t-98 128.5t-36.5 170q0 126 51 237.5t134.5 186.5t190 118.5t216.5 43.5q287 0 407 -278l68 253h100l-243 -915q-54 -201 -164 -311q-150 -150 -400 -150z" />
    <glyph glyph-name="h" unicode="h" horiz-adv-x="1247" 
d="M51 0l402 1495h100l-174 -645q92 107 182 163t213 56q156 0 249 -90t93 -242q0 -70 -22 -147l-156 -590h-100l159 598q17 66 17 129q0 117 -72 184.5t-197 67.5q-89 0 -178 -49t-159 -139.5t-99 -200.5l-157 -590h-101z" />
    <glyph glyph-name="i" unicode="i" horiz-adv-x="512" 
d="M66 0l280 1044h100l-280 -1044h-100zM408 1317l36 137h125l-37 -137h-124z" />
    <glyph glyph-name="j" unicode="j" horiz-adv-x="509" 
d="M-106 -334q-66 0 -130 21l25 90q66 -17 96 -17q115 0 154 142l307 1142h100l-309 -1150q-29 -109 -92.5 -168.5t-150.5 -59.5zM408 1317l36 137h125l-37 -137h-124z" />
    <glyph glyph-name="k" unicode="k" horiz-adv-x="1146" 
d="M51 0l402 1495h100l-297 -1108l811 657h145l-581 -466l311 -578h-117l-278 516l-328 -262l-67 -254h-101z" />
    <glyph glyph-name="l" unicode="l" horiz-adv-x="512" 
d="M66 0l401 1495h100l-401 -1495h-100z" />
    <glyph glyph-name="m" unicode="m" horiz-adv-x="1947" 
d="M51 0l279 1044h100l-51 -194q44 53 80 88t82 67.5t98.5 48t114.5 15.5q68 0 123.5 -22t91.5 -59.5t58.5 -81.5t31.5 -93q158 256 438 256q142 0 234 -93t92 -239q0 -53 -27 -147l-156 -590h-100l160 598q16 62 16 129q0 117 -66.5 184.5t-181.5 67.5
q-128 0 -249.5 -112.5t-165.5 -276.5l-156 -590h-100l159 598q17 66 17 129q0 117 -66.5 184.5t-181.5 67.5q-128 0 -250 -112.5t-166 -276.5l-157 -590h-101z" />
    <glyph glyph-name="n" unicode="n" horiz-adv-x="1251" 
d="M51 0l279 1044h100l-51 -194q92 107 182 163t213 56q156 0 249 -90t93 -242q0 -70 -22 -147l-156 -590h-100l159 598q17 66 17 129q0 117 -72 184.5t-197 67.5q-89 0 -178 -49t-159 -139.5t-99 -200.5l-157 -590h-101z" />
    <glyph glyph-name="o" unicode="o" horiz-adv-x="1296" 
d="M580 70q94 0 185.5 43t160.5 114.5t112 170.5t43 204q0 176 -99.5 274.5t-266.5 98.5q-129 0 -245.5 -74.5t-186.5 -198t-70 -260.5q0 -176 100 -274t267 -98zM569 -25q-206 0 -335.5 130.5t-129.5 332.5q0 122 50.5 237.5t134 202t199 139t237.5 52.5
q206 0 335.5 -130.5t129.5 -332.5q0 -124 -52 -241t-137 -202t-199 -136.5t-233 -51.5z" />
    <glyph glyph-name="p" unicode="p" horiz-adv-x="1339" 
d="M635 68q138 0 250.5 77t173.5 202t61 269q0 161 -90 260t-233 99q-95 0 -191 -46t-168.5 -120.5t-118 -174.5t-45.5 -202q0 -155 101 -259.5t260 -104.5zM-37 -328l367 1372h100l-55 -204q191 229 434 229q181 0 300.5 -124.5t119.5 -315.5q0 -136 -48.5 -258.5
t-129.5 -209t-189 -137.5t-223 -51q-85 0 -156 24t-120.5 66.5t-83.5 92.5t-56 110l-160 -594h-100z" />
    <glyph glyph-name="q" unicode="q" horiz-adv-x="1339" 
d="M543 68q95 0 190.5 46t168 120.5t118 175t45.5 202.5q0 154 -100.5 258.5t-259.5 104.5q-138 0 -251 -77t-174 -202.5t-61 -269.5q0 -160 90.5 -259t233.5 -99zM801 -410l164 615q-193 -232 -435 -232q-181 0 -300 125t-119 316q0 136 48.5 258.5t129 209t188.5 137
t223 50.5q164 0 266.5 -82t149.5 -209l72 266h100l-387 -1454h-100z" />
    <glyph glyph-name="r" unicode="r" horiz-adv-x="811" 
d="M51 0l279 1044h100l-78 -296q232 327 537 313l-29 -111h-8q-91 0 -181.5 -35t-169 -100t-141 -165t-94.5 -222l-114 -428h-101z" />
    <glyph glyph-name="s" unicode="s" horiz-adv-x="1013" 
d="M444 -23q-261 0 -442 181l72 71q162 -159 383 -159q105 0 187.5 58t82.5 148q0 64 -49 112t-178 95q-156 58 -224.5 120t-68.5 161q0 128 107 215.5t280 87.5q104 0 205 -39.5t172 -99.5l-66 -76q-65 54 -149.5 88.5t-171.5 34.5q-125 0 -198 -58t-73 -137
q0 -63 47.5 -106.5t188.5 -98.5q155 -62 220 -126t65 -156q0 -135 -114 -225.5t-276 -90.5z" />
    <glyph glyph-name="t" unicode="t" horiz-adv-x="811" 
d="M422 -18q-111 0 -180.5 51.5t-69.5 154.5q0 47 12 101l178 663h-151l25 92h151l90 334h101l-91 -334h361l-25 -92h-360l-178 -665q-11 -50 -11 -88q0 -125 170 -125q73 0 152 32l-27 -98q-62 -26 -147 -26z" />
    <glyph glyph-name="u" unicode="u" horiz-adv-x="1247" 
d="M473 -25q-156 0 -249 90t-93 242q0 67 23 148l155 589h101l-160 -598q-17 -66 -17 -129q0 -117 72 -184t197 -67q89 0 178 49t159 139.5t99 200.5l158 589h100l-278 -1044h-101l51 195q-86 -105 -179 -162.5t-216 -57.5z" />
    <glyph glyph-name="v" unicode="v" horiz-adv-x="1140" 
d="M367 -8l-185 1052h109l145 -931l641 931h121l-745 -1052h-86z" />
    <glyph glyph-name="w" unicode="w" horiz-adv-x="1730" 
d="M303 -8l-100 1052h102l76 -909l559 914h80l72 -914l563 909h110l-665 -1052h-88l-72 895l-553 -895h-84z" />
    <glyph glyph-name="x" unicode="x" horiz-adv-x="1144" 
d="M-59 0l581 541l-276 503h114l230 -440l459 440h135l-549 -512l289 -532h-115l-242 469l-491 -469h-135z" />
    <glyph glyph-name="y" unicode="y" horiz-adv-x="1163" 
d="M41 -334q-117 0 -221 72l55 82q32 -26 84 -43t94 -17q83 0 162 55.5t172 190.5l-213 1038h107l182 -933l629 933h120l-743 -1081q-113 -161 -213 -229t-215 -68z" />
    <glyph glyph-name="z" unicode="z" horiz-adv-x="1118" 
d="M-35 0l17 57l972 897h-704l24 90h869l-17 -57l-972 -897h739l-25 -90h-903z" />
    <glyph glyph-name="braceleft" unicode="{" horiz-adv-x="983" 
d="M668 -225l-29 -64q-87 18 -151.5 53.5t-101 82t-54 98t-17.5 108.5q0 34 6 72t12.5 64t28.5 110q19 68 19 113q0 68 -46 102.5t-149 34.5h-53l21 78h53q156 0 230 84t116 293q18 86 42 150t65.5 121.5t100.5 95t146 62t201 31.5l-6 -75q-111 -6 -191.5 -34.5t-132 -81.5
t-81 -120t-46.5 -160q-40 -212 -108.5 -298t-204.5 -111q141 -43 141 -170q0 -64 -18 -117q-45 -141 -45 -236q0 -107 58.5 -178t193.5 -108z" />
    <glyph glyph-name="bar" unicode="|" horiz-adv-x="585" 
d="M289 -262v1896h90v-1896h-90z" />
    <glyph glyph-name="braceright" unicode="}" horiz-adv-x="983" 
d="M-90 -289l6 76q111 6 191 34.5t131.5 80.5t81.5 119.5t47 160.5q40 212 108 298.5t205 111.5q-141 44 -141 170q0 64 18 117q45 141 45 235q0 218 -252 287l29 63q86 -18 150.5 -53.5t101 -82t54 -98t17.5 -108.5q0 -45 -8 -85t-32 -133q-5 -17 -7 -27q-18 -65 -18 -113
q0 -68 45.5 -102.5t148.5 -34.5h54l-21 -78h-53q-156 0 -230 -84t-116 -293q-21 -108 -56 -184t-97 -138t-161.5 -96.5t-240.5 -42.5z" />
    <glyph glyph-name="asciitilde" unicode="~" horiz-adv-x="942" 
d="M256 502l-78 30q51 103 100 150t113 47q30 0 55.5 -11.5t37 -20.5t44.5 -40q52 -47 68 -55q14 -6 31 -6q31 0 57 28.5t64 94.5l77 -31q-51 -103 -100 -149.5t-113 -46.5q-18 0 -34.5 4t-26 7.5t-27 17t-22.5 18t-27 24.5q-5 5 -16 15t-14.5 13t-11.5 10t-11.5 9.5t-10 6
t-11 5t-10.5 2.5t-13 1q-31 0 -57 -28.5t-64 -94.5z" />
    <glyph glyph-name="nbspace" unicode="&#xa0;" horiz-adv-x="614" 
 />
    <glyph glyph-name="exclamdown" unicode="&#xa1;" horiz-adv-x="514" 
d="M57 0l39 143l277 916h57l-215 -916l-39 -143h-119zM387 1260l47 174h135l-47 -174h-135z" />
    <glyph glyph-name="cent" unicode="&#xa2;" horiz-adv-x="1142" 
d="M457 303l344 875h-29q-140 0 -257.5 -75t-185 -203t-67.5 -277q0 -110 51.5 -194.5t143.5 -125.5zM328 -12l90 227q-122 51 -193 159t-71 247q0 173 83.5 323t227.5 239t313 89q38 0 56 -2l69 176h103l-78 -193q192 -52 276 -231l-84 -47q-41 74 -94.5 121t-138.5 69
l-348 -886q40 -7 73 -7q197 0 367 150l68 -66q-193 -178 -441 -178q-38 0 -96 10l-80 -200h-102z" />
    <glyph glyph-name="sterling" unicode="&#xa3;" horiz-adv-x="1277" 
d="M-4 0l14 51l187 41l143 533h-176l26 98h177l71 268q56 210 164 318q139 139 334 139q257 0 381 -225l-88 -54q-58 93 -126 138t-173 45q-145 0 -248 -103q-93 -93 -143 -276l-68 -250h610l-26 -98h-611l-141 -529h766l-27 -96h-1046z" />
    <glyph glyph-name="currency" unicode="&#xa4;" horiz-adv-x="1400" 
d="M762 -25q-212 0 -349 142t-149 385h-188l26 98h164q6 134 43 252h-141l27 98h149q90 226 266.5 367t399.5 141q171 0 286 -90.5t162 -234.5l-92 -37q-52 130 -141.5 198t-233.5 68q-168 0 -311 -113.5t-223 -298.5h616l-26 -98h-627q-36 -114 -45 -252h606l-27 -98h-579
q8 -193 111.5 -311.5t277.5 -118.5q127 0 223.5 50t188.5 150l71 -61q-105 -114 -218.5 -175t-266.5 -61z" />
    <glyph glyph-name="yen" unicode="&#xa5;" horiz-adv-x="1433" 
d="M514 0l68 256h-430l24 92h430l53 201h-430l25 92h389l-348 793h121l329 -770l746 770h139l-778 -793h377l-25 -92h-438l-53 -201h438l-25 -92h-438l-67 -256h-107z" />
    <glyph glyph-name="section" unicode="&#xa7;" horiz-adv-x="1294" 
d="M803 502q127 0 213 53.5t86 128.5q0 60 -62.5 107t-210.5 98q-117 43 -239 43q-127 0 -213 -53.5t-86 -128.5q0 -60 62 -107t210 -98q114 -43 240 -43zM590 -20q-135 0 -259 48.5t-194 118.5l68 76q67 -65 172 -108t227 -43q106 0 178 44t72 115q0 63 -64.5 108.5
t-220.5 102.5q-204 72 -294.5 138t-90.5 161q0 118 115.5 190.5t290.5 72.5q-70 32 -114 82t-44 114q0 115 107 184.5t264 69.5q135 0 256.5 -48.5t195.5 -119.5l-67 -76q-67 65 -172.5 108.5t-227.5 43.5q-106 0 -177.5 -44.5t-71.5 -115.5q0 -63 64.5 -108.5t219.5 -102.5
q204 -72 294.5 -138t90.5 -161q0 -118 -115 -190t-290 -72q70 -32 114 -82t44 -115q0 -115 -107 -184t-264 -69z" />
    <glyph glyph-name="dieresis" unicode="&#xa8;" horiz-adv-x="1024" 
d="M436 1219l45 163h142l-45 -163h-142zM770 1219l45 163h141l-45 -163h-141z" />
    <glyph glyph-name="copyright" unicode="&#xa9;" horiz-adv-x="1699" 
d="M909 340q-157 0 -264.5 113t-107.5 274t108 275t266 114q92 0 158 -32t131 -93l-61 -63q-110 106 -230 106q-123 0 -202.5 -88.5t-79.5 -216.5q0 -126 83 -216.5t201 -90.5q71 0 124.5 25.5t111.5 80.5l57 -57q-66 -66 -133.5 -98.5t-161.5 -32.5zM899 33q190 0 347 92.5
t246 250t89 343.5t-88 342.5t-244 248t-346 91.5t-347 -92.5t-246 -250t-89 -343.5t88 -342.5t244 -248t346 -91.5zM899 -25q-204 0 -374.5 100t-267.5 270t-97 370q0 149 58 286t156.5 237t236.5 160t292 60q153 0 290.5 -59t235.5 -158t155.5 -235.5t57.5 -286.5
q0 -149 -58 -286t-156.5 -237.5t-237 -160.5t-291.5 -60z" />
    <glyph glyph-name="ordfeminine" unicode="&#xaa;" horiz-adv-x="798" 
d="M412 905q78 0 154 56.5t96 132.5l8 28q-91 25 -185 25q-80 0 -131 -40.5t-51 -105.5q0 -43 30 -69.5t79 -26.5zM119 600l20 82h500l-21 -82h-499zM391 840q-74 0 -124 41.5t-50 111.5q0 97 75 157t193 60q81 0 199 -30l4 12q8 19 8 55q0 119 -159 119q-76 0 -164 -31
l-15 72q87 35 193 35q109 0 168 -47.5t59 -132.5q0 -26 -12 -80l-88 -330h-82l29 102q-102 -114 -234 -114z" />
    <glyph glyph-name="guillemotleft" unicode="&#xab;" horiz-adv-x="1054" 
d="M305 86l-213 428l4 16l443 428l73 -57l-393 -393l170 -377zM723 86l-213 428l4 16l442 428l74 -57l-393 -393l170 -377z" />
    <glyph glyph-name="registered" unicode="&#xae;" horiz-adv-x="1699" 
d="M705 745h233q89 0 144 38t55 108q0 65 -50 101t-139 36h-243v-283zM616 362v750h336q123 0 200 -59t77 -158q0 -89 -54.5 -144t-150.5 -73l250 -316h-115l-237 302h-217v-302h-89zM899 33q190 0 347 92.5t246 250t89 343.5t-88 342.5t-244 248t-346 91.5t-347 -92.5
t-246 -250t-89 -343.5t88 -342.5t244 -248t346 -91.5zM899 -25q-204 0 -374.5 100t-267.5 270t-97 370q0 149 58 286t156.5 237t236.5 160t292 60q153 0 290.5 -59t235.5 -158t155.5 -235.5t57.5 -286.5q0 -149 -58 -286t-156.5 -237.5t-237 -160.5t-291.5 -60z" />
    <glyph glyph-name="macron" unicode="&#xaf;" horiz-adv-x="1024" 
d="M389 1229l29 108h614l-28 -108h-615z" />
    <glyph glyph-name="macron" unicode="&#x2c9;" horiz-adv-x="1024" 
d="M389 1229l29 108h614l-28 -108h-615z" />
    <glyph glyph-name="degree" unicode="&#xb0;" horiz-adv-x="749" 
d="M449 928q94 0 165.5 75t71.5 173q0 85 -48.5 133.5t-127.5 48.5q-94 0 -166 -75t-72 -173q0 -85 49 -133.5t128 -48.5zM438 842q-113 0 -185.5 73.5t-72.5 184.5q0 137 101.5 240.5t238.5 103.5q113 0 185.5 -73.5t72.5 -184.5q0 -137 -101.5 -240.5t-238.5 -103.5z" />
    <glyph glyph-name="plusminus" unicode="&#xb1;" horiz-adv-x="1228" 
d="M532 -25q-179 0 -312.5 70t-205.5 188l92 56q142 -217 433 -217q181 0 297 91t116 224q0 98 -61 164.5t-157.5 95.5t-223.5 29h-61l24 94h82q254 0 398.5 86t144.5 238q0 120 -95 192t-241 72q-117 0 -210 -36t-179 -105l-66 71q97 77 206 121.5t249 44.5
q121 0 221.5 -40t163.5 -122t63 -192q0 -157 -114.5 -254.5t-317.5 -130.5q126 -35 206.5 -117t80.5 -207q0 -116 -71 -211.5t-193 -150t-269 -54.5z" />
    <glyph glyph-name="acute" unicode="&#xb4;" horiz-adv-x="1024" 
d="M514 1219l254 272l127 -61l-277 -211h-104z" />
    <glyph glyph-name="mu" unicode="&#xb5;" 
d="M815 70q207 0 389 129l-239 266l77 67l234 -274q119 111 186.5 265t67.5 319q0 223 -142 371.5t-366 148.5q-146 0 -280 -65.5t-228.5 -172.5t-150.5 -247.5t-56 -286.5q0 -223 142 -371.5t366 -148.5zM1417 -49l-147 174q-207 -152 -455 -152q-132 0 -248 48.5
t-196.5 131t-127 196t-46.5 241.5q0 166 65.5 324.5t175 278t263.5 192.5t321 73q176 0 318.5 -82t221 -222.5t78.5 -311.5q0 -186 -80 -359.5t-219 -298.5l154 -168z" />
    <glyph glyph-name="mu" unicode="&#x3bc;" 
d="M815 70q207 0 389 129l-239 266l77 67l234 -274q119 111 186.5 265t67.5 319q0 223 -142 371.5t-366 148.5q-146 0 -280 -65.5t-228.5 -172.5t-150.5 -247.5t-56 -286.5q0 -223 142 -371.5t366 -148.5zM1417 -49l-147 174q-207 -152 -455 -152q-132 0 -248 48.5
t-196.5 131t-127 196t-46.5 241.5q0 166 65.5 324.5t175 278t263.5 192.5t321 73q176 0 318.5 -82t221 -222.5t78.5 -311.5q0 -186 -80 -359.5t-219 -298.5l154 -168z" />
    <glyph glyph-name="paragraph" unicode="&#xb6;" horiz-adv-x="995" 
d="M532 0l144 539q-99 6 -180 29.5t-147 66.5t-103 113.5t-37 164.5q0 244 178 382.5t490 138.5h149l-385 -1434h-109z" />
    <glyph glyph-name="periodcentered" unicode="&#xb7;" horiz-adv-x="473" 
d="M168 522l47 174h135l-47 -174h-135z" />
    <glyph glyph-name="periodcentered" unicode="&#x2219;" horiz-adv-x="473" 
d="M168 522l47 174h135l-47 -174h-135z" />
    <glyph glyph-name="cedilla" unicode="&#xb8;" horiz-adv-x="1024" 
d="M242 -303l-99 53l256 270h88z" />
    <glyph glyph-name="ordmasculine" unicode="&#xba;" horiz-adv-x="798" 
d="M508 909q102 0 175 80t73 187q0 87 -51.5 139.5t-133.5 52.5q-102 0 -175.5 -80.5t-73.5 -185.5q0 -87 52 -140t134 -53zM123 600l20 82h549l-20 -82h-549zM502 834q-120 0 -193 73.5t-73 190.5q0 138 101 242t241 104q118 0 192 -74.5t74 -189.5q0 -138 -101 -242
t-241 -104z" />
    <glyph glyph-name="guillemotright" unicode="&#xbb;" horiz-adv-x="1054" 
d="M96 84l-73 57l393 394l-170 376l84 45l213 -428l-4 -16zM514 84l-74 57l394 394l-170 376l84 45l213 -428l-5 -16z" />
    <glyph glyph-name="questiondown" unicode="&#xbf;" horiz-adv-x="1093" 
d="M516 -18q-188 0 -300 100t-112 258q0 99 43.5 180.5t120 137.5t172 92t207.5 53l88 256h66l-62 -332l-14 -10q-232 -18 -372 -116.5t-140 -258.5q0 -125 88 -194.5t223 -69.5q116 0 220 51t182 129l65 -70q-206 -206 -475 -206zM754 1260l47 174h135l-47 -174h-135z" />
    <glyph glyph-name="Agrave" unicode="&#xc0;" horiz-adv-x="1554" 
d="M1059 1567l-162 211l127 61l106 -272h-71zM410 498h755l-153 829zM-70 0l1055 1444h102l281 -1444h-108l-74 401h-846l-291 -401h-119z" />
    <glyph glyph-name="Aacute" unicode="&#xc1;" horiz-adv-x="1554" 
d="M1001 1567l254 272l127 -61l-276 -211h-105zM410 498h755l-153 829zM-70 0l1055 1444h102l281 -1444h-108l-74 401h-846l-291 -401h-119z" />
    <glyph glyph-name="Acircumflex" unicode="&#xc2;" horiz-adv-x="1554" 
d="M821 1567l273 250h82l137 -250h-90l-107 139l-196 -139h-99zM410 498h755l-153 829zM-70 0l1055 1444h102l281 -1444h-108l-74 401h-846l-291 -401h-119z" />
    <glyph glyph-name="Atilde" unicode="&#xc3;" horiz-adv-x="1554" 
d="M846 1563l-70 26q46 93 90 135.5t103 42.5q24 0 46.5 -10t34.5 -19.5t44 -37.5q45 -43 59 -49q13 -6 29 -6q29 0 51.5 25t58.5 87l70 -26q-46 -94 -90.5 -136.5t-102.5 -42.5q-12 0 -22 1t-19.5 5t-15 6.5t-15.5 10.5t-13.5 11.5t-16 15.5t-16.5 16q-49 47 -67 55
q-14 6 -28 6q-28 0 -50 -25.5t-60 -90.5zM410 498h755l-153 829zM-70 0l1055 1444h102l281 -1444h-108l-74 401h-846l-291 -401h-119z" />
    <glyph glyph-name="Adieresis" unicode="&#xc4;" horiz-adv-x="1554" 
d="M844 1567l45 164h141l-45 -164h-141zM1178 1567l45 164h141l-45 -164h-141zM410 498h755l-153 829zM-70 0l1055 1444h102l281 -1444h-108l-74 401h-846l-291 -401h-119z" />
    <glyph glyph-name="Aring" unicode="&#xc5;" horiz-adv-x="1554" 
d="M430 498h756l-154 829zM1073 1438q60 0 102 41.5t42 101.5q0 46 -32.5 74t-90.5 28q-60 0 -102 -41.5t-42 -101.5q0 -46 32.5 -74t90.5 -28zM-49 0l1020 1395q-94 46 -94 145q0 87 64 148t153 61q87 0 141.5 -47.5t54.5 -120.5q0 -74 -48.5 -130.5t-121.5 -74.5
l269 -1376h-109l-74 401h-846l-290 -401h-119z" />
    <glyph glyph-name="AE" unicode="&#xc6;" horiz-adv-x="2187" 
d="M496 498h557l225 839h-55zM-66 0l1252 1434h1108l-27 -99h-883l-151 -563h790l-26 -98h-791l-153 -576h893l-27 -98h-999l108 401h-616l-349 -401h-129z" />
    <glyph glyph-name="Ccedilla" unicode="&#xc7;" horiz-adv-x="1511" 
d="M766 -27l-211 -276l-98 53l219 232q-211 30 -349.5 184.5t-138.5 388.5q0 172 68 337t182 289.5t273.5 200.5t332.5 76q187 0 322 -85t205 -224l-92 -49q-76 130 -178 196t-263 66q-122 0 -236.5 -44.5t-204 -122.5t-157.5 -179t-104.5 -219t-36.5 -238
q0 -222 136 -354.5t349 -132.5q151 0 265.5 54.5t220.5 160.5l71 -66q-112 -115 -248 -181.5t-319 -66.5h-8z" />
    <glyph glyph-name="Egrave" unicode="&#xc8;" horiz-adv-x="1329" 
d="M983 1567l-162 211l127 61l107 -272h-72zM74 0l385 1434h1009l-26 -99h-903l-152 -563h811l-27 -98h-811l-153 -576h913l-26 -98h-1020z" />
    <glyph glyph-name="Eacute" unicode="&#xc9;" horiz-adv-x="1329" 
d="M846 1567l254 272l127 -61l-277 -211h-104zM74 0l385 1434h1009l-26 -99h-903l-152 -563h811l-27 -98h-811l-153 -576h913l-26 -98h-1020z" />
    <glyph glyph-name="Ecircumflex" unicode="&#xca;" horiz-adv-x="1329" 
d="M727 1567l272 250h82l138 -250h-91l-106 139l-197 -139h-98zM74 0l385 1434h1009l-26 -99h-903l-152 -563h811l-27 -98h-811l-153 -576h913l-26 -98h-1020z" />
    <glyph glyph-name="Edieresis" unicode="&#xcb;" horiz-adv-x="1329" 
d="M748 1567l45 164h141l-45 -164h-141zM1081 1567l45 164h142l-45 -164h-142zM74 0l385 1434h1009l-26 -99h-903l-152 -563h811l-27 -98h-811l-153 -576h913l-26 -98h-1020z" />
    <glyph glyph-name="Igrave" unicode="&#xcc;" horiz-adv-x="561" 
d="M541 1567l-162 211l127 61l106 -272h-71zM88 0l385 1434h107l-385 -1434h-107z" />
    <glyph glyph-name="Iacute" unicode="&#xcd;" horiz-adv-x="561" 
d="M475 1567l254 272l127 -61l-276 -211h-105zM88 0l385 1434h107l-385 -1434h-107z" />
    <glyph glyph-name="Icircumflex" unicode="&#xce;" horiz-adv-x="561" 
d="M303 1567l272 250h82l138 -250h-90l-107 139l-197 -139h-98zM88 0l385 1434h107l-385 -1434h-107z" />
    <glyph glyph-name="Idieresis" unicode="&#xcf;" horiz-adv-x="561" 
d="M326 1567l45 164h141l-45 -164h-141zM659 1567l46 164h141l-45 -164h-142zM88 0l385 1434h107l-385 -1434h-107z" />
    <glyph glyph-name="Eth" unicode="&#xd0;" horiz-adv-x="1640" 
d="M268 98h350q389 0 635 246q193 193 193 479q0 221 -133 351q-161 161 -477 161h-236l-151 -565h475l-27 -98h-475zM135 0l180 672h-153l26 98h154l178 664h322q172 0 316.5 -48.5t240.5 -144.5q157 -157 157 -410q0 -332 -223 -555q-131 -131 -320 -203.5t-409 -72.5
h-469z" />
    <glyph glyph-name="Ntilde" unicode="&#xd1;" horiz-adv-x="1609" 
d="M834 1563l-78 30q51 103 100 150t113 47q30 0 55.5 -11.5t37 -20.5t44.5 -40q4 -4 13 -12t12 -11t10 -9t10 -8t8.5 -6.5t8.5 -5.5t8 -3.5t9 -3.5t9 -1.5t10 -0.5q30 0 56.5 28.5t64.5 94.5l78 -31q-51 -103 -100 -150t-113 -47q-30 0 -55.5 11.5t-37 20.5t-44.5 40
q-4 4 -13 12t-12 11t-10 9t-10 8.5t-9 6.5t-9 5.5l-8 4t-9 3.5t-9 1.5t-10 0.5q-30 0 -56 -28t-64 -95zM74 0l385 1434h98l645 -1256l338 1256h102l-385 -1434h-77l-660 1282l-344 -1282h-102z" />
    <glyph glyph-name="Ograve" unicode="&#xd2;" 
d="M1118 1567l-162 211l127 61l107 -272h-72zM815 70q146 0 280 65.5t228.5 172.5t150.5 247.5t56 286.5q0 223 -142 371.5t-366 148.5q-146 0 -280 -65.5t-228.5 -172.5t-150.5 -247.5t-56 -286.5q0 -223 142 -371.5t366 -148.5zM815 -27q-132 0 -248 48.5t-196.5 131
t-127 196t-46.5 241.5q0 166 65.5 324.5t175 278t263.5 192.5t321 73q176 0 318.5 -82t221 -222.5t78.5 -311.5q0 -166 -65.5 -325t-175 -278.5t-263.5 -192.5t-321 -73z" />
    <glyph glyph-name="Oacute" unicode="&#xd3;" 
d="M961 1567l253 272l127 -61l-276 -211h-104zM815 70q146 0 280 65.5t228.5 172.5t150.5 247.5t56 286.5q0 223 -142 371.5t-366 148.5q-146 0 -280 -65.5t-228.5 -172.5t-150.5 -247.5t-56 -286.5q0 -223 142 -371.5t366 -148.5zM815 -27q-132 0 -248 48.5t-196.5 131
t-127 196t-46.5 241.5q0 166 65.5 324.5t175 278t263.5 192.5t321 73q176 0 318.5 -82t221 -222.5t78.5 -311.5q0 -166 -65.5 -325t-175 -278.5t-263.5 -192.5t-321 -73z" />
    <glyph glyph-name="Ocircumflex" unicode="&#xd4;" 
d="M860 1567l273 250h81l138 -250h-90l-107 139l-197 -139h-98zM815 70q146 0 280 65.5t228.5 172.5t150.5 247.5t56 286.5q0 223 -142 371.5t-366 148.5q-146 0 -280 -65.5t-228.5 -172.5t-150.5 -247.5t-56 -286.5q0 -223 142 -371.5t366 -148.5zM815 -27
q-132 0 -248 48.5t-196.5 131t-127 196t-46.5 241.5q0 166 65.5 324.5t175 278t263.5 192.5t321 73q176 0 318.5 -82t221 -222.5t78.5 -311.5q0 -166 -65.5 -325t-175 -278.5t-263.5 -192.5t-321 -73z" />
    <glyph glyph-name="Otilde" unicode="&#xd5;" 
d="M815 70q146 0 280 65.5t228.5 172.5t150.5 247.5t56 286.5q0 223 -142 371.5t-366 148.5q-146 0 -280 -65.5t-228.5 -172.5t-150.5 -247.5t-56 -286.5q0 -223 142 -371.5t366 -148.5zM815 -27q-132 0 -248 48.5t-196.5 131t-127 196t-46.5 241.5q0 166 65.5 324.5
t175 278t263.5 192.5t321 73q176 0 318.5 -82t221 -222.5t78.5 -311.5q0 -166 -65.5 -325t-175 -278.5t-263.5 -192.5t-321 -73zM903 1563l-69 26q46 94 90 136t102 42q24 0 46.5 -10t34.5 -19.5t44 -37.5q45 -43 59 -49q13 -6 29 -6q29 0 52 25.5t59 86.5l69 -26
q-46 -94 -90 -136.5t-102 -42.5q-12 0 -21.5 1t-20 5.5t-15.5 6t-16 10.5t-13.5 11t-16 15.5l-16.5 16.5q-48 46 -64 54q-14 7 -30 7q-28 0 -51 -26t-60 -90z" />
    <glyph glyph-name="Odieresis" unicode="&#xd6;" 
d="M862 1567l45 164h142l-45 -164h-142zM1196 1567l45 164h141l-45 -164h-141zM815 70q146 0 280 65.5t228.5 172.5t150.5 247.5t56 286.5q0 223 -142 371.5t-366 148.5q-146 0 -280 -65.5t-228.5 -172.5t-150.5 -247.5t-56 -286.5q0 -223 142 -371.5t366 -148.5zM815 -27
q-132 0 -248 48.5t-196.5 131t-127 196t-46.5 241.5q0 166 65.5 324.5t175 278t263.5 192.5t321 73q176 0 318.5 -82t221 -222.5t78.5 -311.5q0 -166 -65.5 -325t-175 -278.5t-263.5 -192.5t-321 -73z" />
    <glyph glyph-name="Oslash" unicode="&#xd8;" 
d="M815 70q146 0 280 65.5t228.5 172.5t150.5 247.5t56 286.5q0 156 -70 278l-1042 -870q138 -180 397 -180zM369 326l1040 868q-145 168 -387 168q-146 0 -280 -65.5t-228.5 -172.5t-150.5 -247.5t-56 -286.5t62 -264zM815 -27q-146 0 -267 55t-208 156l-234 -194h-141
l322 268q-90 152 -90 332q0 166 65.5 324.5t175 278t263.5 192.5t321 73q283 0 465 -198l219 184h141l-305 -256q98 -152 98 -346q0 -166 -65.5 -325t-175 -278.5t-263.5 -192.5t-321 -73z" />
    <glyph glyph-name="Ugrave" unicode="&#xd9;" horiz-adv-x="1548" 
d="M1036 1567l-162 211l127 61l107 -272h-72zM713 -23q-127 0 -226.5 34.5t-162 96t-95 143t-32.5 177.5q0 109 28 221l209 785h107l-222 -834q-18 -74 -18 -164q0 -162 106.5 -262t313.5 -100q203 0 350 147q134 134 201 381l223 832h107l-230 -854q-72 -267 -227 -422
q-181 -181 -432 -181z" />
    <glyph glyph-name="Uacute" unicode="&#xda;" horiz-adv-x="1548" 
d="M899 1567l254 272l127 -61l-276 -211h-105zM713 -23q-127 0 -226.5 34.5t-162 96t-95 143t-32.5 177.5q0 109 28 221l209 785h107l-222 -834q-18 -74 -18 -164q0 -162 106.5 -262t313.5 -100q203 0 350 147q134 134 201 381l223 832h107l-230 -854q-72 -267 -227 -422
q-181 -181 -432 -181z" />
    <glyph glyph-name="Ucircumflex" unicode="&#xdb;" horiz-adv-x="1548" 
d="M793 1567l272 250h82l137 -250h-90l-107 139l-196 -139h-98zM713 -23q-127 0 -226.5 34.5t-162 96t-95 143t-32.5 177.5q0 109 28 221l209 785h107l-222 -834q-18 -74 -18 -164q0 -162 106.5 -262t313.5 -100q203 0 350 147q134 134 201 381l223 832h107l-230 -854
q-72 -267 -227 -422q-181 -181 -432 -181z" />
    <glyph glyph-name="Udieresis" unicode="&#xdc;" horiz-adv-x="1548" 
d="M803 1567l45 164h141l-45 -164h-141zM1137 1567l45 164h141l-45 -164h-141zM713 -23q-127 0 -226.5 34.5t-162 96t-95 143t-32.5 177.5q0 109 28 221l209 785h107l-222 -834q-18 -74 -18 -164q0 -162 106.5 -262t313.5 -100q203 0 350 147q134 134 201 381l223 832h107
l-230 -854q-72 -267 -227 -422q-181 -181 -432 -181z" />
    <glyph glyph-name="Yacute" unicode="&#xdd;" horiz-adv-x="1368" 
d="M809 1567l254 272l127 -61l-277 -211h-104zM479 0l156 582l-375 852h117l330 -770l745 770h143l-862 -879l-147 -555h-107z" />
    <glyph glyph-name="Thorn" unicode="&#xde;" horiz-adv-x="1368" 
d="M281 373h344q290 0 444 106.5t154 304.5q0 117 -74 191q-100 100 -315 100h-365zM74 0l385 1434h104l-67 -260h340q265 0 395 -130q98 -98 98 -256q0 -243 -190 -377.5t-518 -134.5h-365l-76 -276h-106z" />
    <glyph glyph-name="germandbls" unicode="&#xdf;" horiz-adv-x="1269" 
d="M451 -4l24 90q137 2 242 29.5t167.5 73.5t94 102.5t31.5 122.5q0 114 -93.5 183.5t-277.5 102.5l25 93q237 56 345.5 150.5t108.5 232.5q0 107 -75 173t-207 66q-150 0 -256.5 -110t-161.5 -312l-266 -993h-101l275 1024q64 228 178 342q143 143 340 143
q166 0 274.5 -93.5t108.5 -235.5q0 -89 -33.5 -161t-96 -123t-136 -86.5t-168.5 -61.5q148 -40 236.5 -122.5t88.5 -213.5q0 -183 -180.5 -301.5t-486.5 -114.5z" />
    <glyph glyph-name="agrave" unicode="&#xe0;" horiz-adv-x="1169" 
d="M803 1219l-162 211l127 61l106 -272h-71zM408 68q153 0 288 97t178 251l25 92q-192 49 -395 49q-155 0 -252.5 -77t-97.5 -199q0 -98 68.5 -155.5t185.5 -57.5zM389 -25q-90 0 -166 31.5t-126 100t-50 161.5q0 171 131.5 275t339.5 104q204 0 402 -59l8 28q14 54 14 105
q0 119 -81 182.5t-234 63.5q-143 0 -303 -56l-19 90q160 60 330 60q191 0 298 -86.5t107 -239.5q0 -70 -20 -137l-160 -598h-98l47 180q-169 -205 -420 -205z" />
    <glyph glyph-name="aacute" unicode="&#xe1;" horiz-adv-x="1169" 
d="M700 1219l254 272l127 -61l-276 -211h-105zM408 68q153 0 288 97t178 251l25 92q-192 49 -395 49q-155 0 -252.5 -77t-97.5 -199q0 -98 68.5 -155.5t185.5 -57.5zM389 -25q-90 0 -166 31.5t-126 100t-50 161.5q0 171 131.5 275t339.5 104q204 0 402 -59l8 28
q14 54 14 105q0 119 -81 182.5t-234 63.5q-143 0 -303 -56l-19 90q160 60 330 60q191 0 298 -86.5t107 -239.5q0 -70 -20 -137l-160 -598h-98l47 180q-169 -205 -420 -205z" />
    <glyph glyph-name="acircumflex" unicode="&#xe2;" horiz-adv-x="1169" 
d="M526 1219l273 249h82l137 -249h-90l-107 139l-196 -139h-99zM408 68q153 0 288 97t178 251l25 92q-192 49 -395 49q-155 0 -252.5 -77t-97.5 -199q0 -98 68.5 -155.5t185.5 -57.5zM389 -25q-90 0 -166 31.5t-126 100t-50 161.5q0 171 131.5 275t339.5 104q204 0 402 -59
l8 28q14 54 14 105q0 119 -81 182.5t-234 63.5q-143 0 -303 -56l-19 90q160 60 330 60q191 0 298 -86.5t107 -239.5q0 -70 -20 -137l-160 -598h-98l47 180q-169 -205 -420 -205z" />
    <glyph glyph-name="atilde" unicode="&#xe3;" horiz-adv-x="1169" 
d="M408 68q153 0 288 97t178 251l25 92q-192 49 -395 49q-155 0 -252.5 -77t-97.5 -199q0 -98 68.5 -155.5t185.5 -57.5zM389 -25q-90 0 -166 31.5t-126 100t-50 161.5q0 171 131.5 275t339.5 104q204 0 402 -59l8 28q14 54 14 105q0 119 -81 182.5t-234 63.5
q-143 0 -303 -56l-19 90q160 60 330 60q191 0 298 -86.5t107 -239.5q0 -70 -20 -137l-160 -598h-98l47 180q-169 -205 -420 -205zM557 1229l-70 26q46 94 90.5 136.5t102.5 42.5q24 0 47 -10.5t34 -19.5t44 -38q45 -43 59 -49q13 -6 29 -6q29 0 52 25.5t59 86.5l69 -26
q-46 -94 -90 -136t-102 -42q-11 0 -20.5 1.5t-16 2.5t-15.5 6t-12.5 6.5t-13.5 10t-12 10.5t-14.5 14t-14.5 14q-4 4 -14 13.5t-13.5 12.5t-11.5 10.5t-11.5 9.5t-10 6.5t-11 5.5t-10.5 2.5t-12 1.5q-28 0 -51 -26.5t-60 -90.5z" />
    <glyph glyph-name="adieresis" unicode="&#xe4;" horiz-adv-x="1169" 
d="M508 1219l45 163h141l-45 -163h-141zM842 1219l45 163h141l-45 -163h-141zM408 68q153 0 288 97t178 251l25 92q-192 49 -395 49q-155 0 -252.5 -77t-97.5 -199q0 -98 68.5 -155.5t185.5 -57.5zM389 -25q-90 0 -166 31.5t-126 100t-50 161.5q0 171 131.5 275t339.5 104
q204 0 402 -59l8 28q14 54 14 105q0 119 -81 182.5t-234 63.5q-143 0 -303 -56l-19 90q160 60 330 60q191 0 298 -86.5t107 -239.5q0 -70 -20 -137l-160 -598h-98l47 180q-169 -205 -420 -205z" />
    <glyph glyph-name="aring" unicode="&#xe5;" horiz-adv-x="1169" 
d="M786 1284q60 0 102 41.5t42 101.5q0 46 -32.5 74.5t-90.5 28.5q-60 0 -101.5 -42t-41.5 -102q0 -46 32 -74t90 -28zM786 1219q-87 0 -141.5 47t-54.5 120q0 87 64 148t153 61q87 0 142 -47.5t55 -120.5q0 -87 -64.5 -147.5t-153.5 -60.5zM408 68q153 0 288 97t178 251
l25 92q-192 49 -395 49q-155 0 -252.5 -77t-97.5 -199q0 -98 68.5 -155.5t185.5 -57.5zM389 -25q-90 0 -166 31.5t-126 100t-50 161.5q0 171 131.5 275t339.5 104q204 0 402 -59l8 28q14 54 14 105q0 119 -81 182.5t-234 63.5q-143 0 -303 -56l-19 90q160 60 330 60
q191 0 298 -86.5t107 -239.5q0 -70 -20 -137l-160 -598h-98l47 180q-169 -205 -420 -205z" />
    <glyph glyph-name="ae" unicode="&#xe6;" horiz-adv-x="1976" 
d="M903 510q-167 47 -391 47q-156 0 -257 -75t-101 -191q0 -104 69 -163.5t195 -59.5q255 0 487 256q-8 41 -8 98q0 44 6 88zM1020 578h758q8 24 8 86q0 135 -75 224t-220 89q-170 0 -296.5 -114.5t-174.5 -284.5zM932 231q-112 -117 -246.5 -186.5t-275.5 -69.5
q-160 0 -261.5 80t-101.5 224q0 167 135 267.5t344 100.5q204 0 394 -59l8 28q14 54 14 105q0 119 -81 182.5t-234 63.5q-143 0 -303 -56l-19 90q160 60 330 60q165 0 268 -65t129 -183q86 116 206 186t255 70q126 0 217.5 -55.5t134.5 -144.5t43 -199q0 -97 -28 -183h-859
q-4 -46 -4 -69q0 -157 95.5 -252.5t250.5 -95.5q110 0 191.5 35t165.5 104l59 -72q-196 -162 -409 -162q-155 0 -262 68.5t-156 187.5z" />
    <glyph glyph-name="ccedilla" unicode="&#xe7;" horiz-adv-x="1153" 
d="M242 -250l221 234q-73 15 -137 51t-114.5 91t-80 132.5t-29.5 167.5q0 168 84 316.5t226.5 237.5t304.5 89q150 0 251.5 -70.5t157.5 -181.5l-84 -47q-27 46 -55 79.5t-67.5 64t-92 46t-116.5 15.5q-130 0 -246 -75.5t-185 -201t-69 -266.5q0 -168 104 -265t248 -97
q179 0 338 149l68 -65q-182 -179 -412 -179h-6l-211 -278z" />
    <glyph glyph-name="egrave" unicode="&#xe8;" horiz-adv-x="1193" 
d="M752 1219l-162 211l127 61l106 -272h-71zM233 578h758q8 24 8 86q0 135 -74.5 224t-219.5 89q-170 0 -297 -114.5t-175 -284.5zM1073 487h-858q-4 -46 -4 -69q0 -157 95.5 -252.5t250.5 -95.5q110 0 191 35t165 104l60 -72q-95 -78 -190.5 -120t-225.5 -42
q-200 0 -327.5 123t-127.5 316q0 122 47.5 240.5t127 210t193 148t237.5 56.5q126 0 217.5 -55.5t134.5 -144.5t43 -199q0 -94 -29 -183z" />
    <glyph glyph-name="eacute" unicode="&#xe9;" horiz-adv-x="1193" 
d="M635 1219l254 272l127 -61l-277 -211h-104zM233 578h758q8 24 8 86q0 135 -74.5 224t-219.5 89q-170 0 -297 -114.5t-175 -284.5zM1073 487h-858q-4 -46 -4 -69q0 -157 95.5 -252.5t250.5 -95.5q110 0 191 35t165 104l60 -72q-95 -78 -190.5 -120t-225.5 -42
q-200 0 -327.5 123t-127.5 316q0 122 47.5 240.5t127 210t193 148t237.5 56.5q126 0 217.5 -55.5t134.5 -144.5t43 -199q0 -94 -29 -183z" />
    <glyph glyph-name="ecircumflex" unicode="&#xea;" horiz-adv-x="1193" 
d="M500 1219l272 249h82l137 -249h-90l-106 139l-197 -139h-98zM233 578h758q8 24 8 86q0 135 -74.5 224t-219.5 89q-170 0 -297 -114.5t-175 -284.5zM1073 487h-858q-4 -46 -4 -69q0 -157 95.5 -252.5t250.5 -95.5q110 0 191 35t165 104l60 -72q-95 -78 -190.5 -120
t-225.5 -42q-200 0 -327.5 123t-127.5 316q0 122 47.5 240.5t127 210t193 148t237.5 56.5q126 0 217.5 -55.5t134.5 -144.5t43 -199q0 -94 -29 -183z" />
    <glyph glyph-name="edieresis" unicode="&#xeb;" horiz-adv-x="1193" 
d="M516 1219l45 163h141l-45 -163h-141zM850 1219l45 163h141l-45 -163h-141zM233 578h758q8 24 8 86q0 135 -74.5 224t-219.5 89q-170 0 -297 -114.5t-175 -284.5zM1073 487h-858q-4 -46 -4 -69q0 -157 95.5 -252.5t250.5 -95.5q110 0 191 35t165 104l60 -72
q-95 -78 -190.5 -120t-225.5 -42q-200 0 -327.5 123t-127.5 316q0 122 47.5 240.5t127 210t193 148t237.5 56.5q126 0 217.5 -55.5t134.5 -144.5t43 -199q0 -94 -29 -183z" />
    <glyph glyph-name="igrave" unicode="&#xec;" horiz-adv-x="512" 
d="M410 1219l-162 211l127 61l106 -272h-71zM66 0l280 1044h100l-280 -1044h-100z" />
    <glyph glyph-name="iacute" unicode="&#xed;" horiz-adv-x="512" 
d="M371 1219l254 272l127 -61l-277 -211h-104zM66 0l280 1044h100l-280 -1044h-100z" />
    <glyph glyph-name="icircumflex" unicode="&#xee;" horiz-adv-x="512" 
d="M178 1219l273 249h81l138 -249h-90l-107 139l-197 -139h-98zM66 0l280 1044h100l-280 -1044h-100z" />
    <glyph glyph-name="idieresis" unicode="&#xef;" horiz-adv-x="512" 
d="M197 1219l45 163h141l-45 -163h-141zM530 1219l45 163h142l-45 -163h-142zM66 0l280 1044h100l-280 -1044h-100z" />
    <glyph glyph-name="eth" unicode="&#xf0;" horiz-adv-x="1261" 
d="M565 72q130 0 242.5 65t179 177t66.5 243q0 145 -103.5 245.5t-277.5 100.5q-93 0 -179.5 -39t-149.5 -104.5t-100.5 -154.5t-37.5 -185q0 -158 100.5 -253t259.5 -95zM555 -23q-196 0 -327.5 126t-131.5 311q0 118 48.5 226t127.5 185t184 122.5t214 45.5
q186 0 315 -108l-168 399l-315 -139l-45 82l323 143l-53 125h121l33 -82l227 100l45 -81l-238 -105l150 -377q52 -135 74 -220t22 -169q0 -109 -45.5 -214.5t-124 -187.5t-193 -132t-243.5 -50z" />
    <glyph glyph-name="ntilde" unicode="&#xf1;" horiz-adv-x="1251" 
d="M569 1214l-77 31q51 103 100 150t113 47q30 0 55.5 -11.5t37 -20.5t44.5 -40q4 -4 13 -12t12 -11t10 -9t10 -8t8.5 -6.5t8.5 -5.5t8 -3.5t9 -3.5t9 -1.5t10 -0.5q31 0 57 28.5t64 94.5l78 -31q-51 -103 -100 -150t-113 -47q-30 0 -55.5 11t-38 21t-44.5 40q-4 4 -13 12
t-12 11t-10 9t-10 8t-8.5 6.5t-8.5 5.5t-8 3.5t-9 3.5t-9 1.5t-10 0.5q-30 0 -56.5 -28.5t-64.5 -94.5zM51 0l279 1044h100l-51 -194q92 107 182 163t213 56q156 0 249 -90t93 -242q0 -70 -22 -147l-156 -590h-100l159 598q17 66 17 129q0 117 -72 184.5t-197 67.5
q-89 0 -178 -49t-159 -139.5t-99 -200.5l-157 -590h-101z" />
    <glyph glyph-name="ograve" unicode="&#xf2;" horiz-adv-x="1296" 
d="M774 1219l-162 211l127 61l107 -272h-72zM580 70q94 0 185.5 43t160.5 114.5t112 170.5t43 204q0 176 -99.5 274.5t-266.5 98.5q-129 0 -245.5 -74.5t-186.5 -198t-70 -260.5q0 -176 100 -274t267 -98zM569 -25q-206 0 -335.5 130.5t-129.5 332.5q0 122 50.5 237.5
t134 202t199 139t237.5 52.5q206 0 335.5 -130.5t129.5 -332.5q0 -124 -52 -241t-137 -202t-199 -136.5t-233 -51.5z" />
    <glyph glyph-name="oacute" unicode="&#xf3;" horiz-adv-x="1296" 
d="M682 1219l254 272l127 -61l-277 -211h-104zM580 70q94 0 185.5 43t160.5 114.5t112 170.5t43 204q0 176 -99.5 274.5t-266.5 98.5q-129 0 -245.5 -74.5t-186.5 -198t-70 -260.5q0 -176 100 -274t267 -98zM569 -25q-206 0 -335.5 130.5t-129.5 332.5q0 122 50.5 237.5
t134 202t199 139t237.5 52.5q206 0 335.5 -130.5t129.5 -332.5q0 -124 -52 -241t-137 -202t-199 -136.5t-233 -51.5z" />
    <glyph glyph-name="ocircumflex" unicode="&#xf4;" horiz-adv-x="1296" 
d="M569 1219l273 249h82l137 -249h-90l-107 139l-196 -139h-99zM580 70q94 0 185.5 43t160.5 114.5t112 170.5t43 204q0 176 -99.5 274.5t-266.5 98.5q-129 0 -245.5 -74.5t-186.5 -198t-70 -260.5q0 -176 100 -274t267 -98zM569 -25q-206 0 -335.5 130.5t-129.5 332.5
q0 122 50.5 237.5t134 202t199 139t237.5 52.5q206 0 335.5 -130.5t129.5 -332.5q0 -124 -52 -241t-137 -202t-199 -136.5t-233 -51.5z" />
    <glyph glyph-name="otilde" unicode="&#xf5;" horiz-adv-x="1296" 
d="M580 70q94 0 185.5 43t160.5 114.5t112 170.5t43 204q0 176 -99.5 274.5t-266.5 98.5q-129 0 -245.5 -74.5t-186.5 -198t-70 -260.5q0 -176 100 -274t267 -98zM569 -25q-206 0 -335.5 130.5t-129.5 332.5q0 122 50.5 237.5t134 202t199 139t237.5 52.5
q206 0 335.5 -130.5t129.5 -332.5q0 -124 -52 -241t-137 -202t-199 -136.5t-233 -51.5zM598 1229l-70 26q46 94 90.5 136.5t102.5 42.5q24 0 47 -10.5t34 -19.5t44 -38q45 -43 59 -49q13 -6 29 -6q29 0 51.5 25t58.5 87l70 -26q-46 -94 -90 -136t-102 -42q-11 0 -20.5 1.5
t-16 2.5t-15.5 6t-12.5 6.5t-13.5 10t-12 10.5t-14.5 14t-14.5 14q-4 4 -14 13.5t-13.5 12.5t-11.5 10.5t-11.5 9.5t-10 6.5t-11 5.5t-10.5 2.5t-12 1.5q-28 0 -51 -26.5t-60 -90.5z" />
    <glyph glyph-name="odieresis" unicode="&#xf6;" horiz-adv-x="1296" 
d="M551 1219l45 163h141l-45 -163h-141zM885 1219l45 163h141l-45 -163h-141zM580 70q94 0 185.5 43t160.5 114.5t112 170.5t43 204q0 176 -99.5 274.5t-266.5 98.5q-129 0 -245.5 -74.5t-186.5 -198t-70 -260.5q0 -176 100 -274t267 -98zM569 -25q-206 0 -335.5 130.5
t-129.5 332.5q0 122 50.5 237.5t134 202t199 139t237.5 52.5q206 0 335.5 -130.5t129.5 -332.5q0 -124 -52 -241t-137 -202t-199 -136.5t-233 -51.5z" />
    <glyph glyph-name="oslash" unicode="&#xf8;" horiz-adv-x="1296" 
d="M580 70q94 0 185.5 43t160.5 114.5t112 170.5t43 204q0 103 -39 189l-743 -611q98 -110 281 -110zM252 254l743 610q-102 111 -280 111q-129 0 -245.5 -74.5t-186.5 -198t-70 -260.5q0 -102 39 -188zM569 -25q-212 0 -346 144l-157 -129h-138l242 196q-66 111 -66 252
q0 122 50.5 237.5t134 202t199 139t237.5 52.5q215 0 346 -141l162 131h137l-246 -201q66 -111 66 -252q0 -124 -52 -241t-137 -202t-199 -136.5t-233 -51.5z" />
    <glyph glyph-name="ugrave" unicode="&#xf9;" horiz-adv-x="1247" 
d="M758 1219l-162 211l127 61l106 -272h-71zM473 -25q-156 0 -249 90t-93 242q0 67 23 148l155 589h101l-160 -598q-17 -66 -17 -129q0 -117 72 -184t197 -67q89 0 178 49t159 139.5t99 200.5l158 589h100l-278 -1044h-101l51 195q-86 -105 -179 -162.5t-216 -57.5z" />
    <glyph glyph-name="uacute" unicode="&#xfa;" horiz-adv-x="1247" 
d="M676 1219l254 272l127 -61l-277 -211h-104zM473 -25q-156 0 -249 90t-93 242q0 67 23 148l155 589h101l-160 -598q-17 -66 -17 -129q0 -117 72 -184t197 -67q89 0 178 49t159 139.5t99 200.5l158 589h100l-278 -1044h-101l51 195q-86 -105 -179 -162.5t-216 -57.5z" />
    <glyph glyph-name="ucircumflex" unicode="&#xfb;" horiz-adv-x="1247" 
d="M539 1219l272 249h82l137 -249h-90l-106 139l-197 -139h-98zM473 -25q-156 0 -249 90t-93 242q0 67 23 148l155 589h101l-160 -598q-17 -66 -17 -129q0 -117 72 -184t197 -67q89 0 178 49t159 139.5t99 200.5l158 589h100l-278 -1044h-101l51 195q-86 -105 -179 -162.5
t-216 -57.5z" />
    <glyph glyph-name="udieresis" unicode="&#xfc;" horiz-adv-x="1247" 
d="M549 1219l45 163h141l-45 -163h-141zM883 1219l45 163h141l-45 -163h-141zM473 -25q-156 0 -249 90t-93 242q0 67 23 148l155 589h101l-160 -598q-17 -66 -17 -129q0 -117 72 -184t197 -67q89 0 178 49t159 139.5t99 200.5l158 589h100l-278 -1044h-101l51 195
q-86 -105 -179 -162.5t-216 -57.5z" />
    <glyph glyph-name="yacute" unicode="&#xfd;" horiz-adv-x="1163" 
d="M604 1219l254 272l127 -61l-276 -211h-105zM41 -334q-117 0 -221 72l55 82q32 -26 84 -43t94 -17q83 0 162 55.5t172 190.5l-213 1038h107l182 -933l629 933h120l-743 -1081q-113 -161 -213 -229t-215 -68z" />
    <glyph glyph-name="thorn" unicode="&#xfe;" horiz-adv-x="1339" 
d="M635 68q138 0 250.5 77t173.5 202t61 269q0 161 -90 260t-233 99q-95 0 -191 -46t-168.5 -120.5t-118 -174.5t-45.5 -202q0 -155 101 -259.5t260 -104.5zM-37 -328l490 1823h100l-178 -655q191 229 434 229q181 0 300.5 -124.5t119.5 -315.5q0 -136 -48.5 -258.5
t-129.5 -209t-189 -137.5t-223 -51q-85 0 -156 24t-120.5 66.5t-83.5 92.5t-56 110l-160 -594h-100z" />
    <glyph glyph-name="ydieresis" unicode="&#xff;" horiz-adv-x="1163" 
d="M496 1219l45 163h141l-45 -163h-141zM829 1219l45 163h142l-45 -163h-142zM41 -334q-117 0 -221 72l55 82q32 -26 84 -43t94 -17q83 0 162 55.5t172 190.5l-213 1038h107l182 -933l629 933h120l-743 -1081q-113 -161 -213 -229t-215 -68z" />
    <glyph glyph-name="Abreve" unicode="&#x102;" horiz-adv-x="1554" 
d="M1061 1583q-117 0 -176 61t-39 168h80q-12 -58 26.5 -96.5t116.5 -38.5q77 0 143 38t99 97h80q-36 -108 -124.5 -168.5t-205.5 -60.5zM410 498h755l-153 829zM-70 0l1055 1444h102l281 -1444h-108l-74 401h-846l-291 -401h-119z" />
    <glyph glyph-name="abreve" unicode="&#x103;" horiz-adv-x="1173" 
d="M797 1214q-117 0 -176 61.5t-39 168.5h80q-12 -58 26.5 -96.5t116.5 -38.5q77 0 143 38t99 97h79q-37 -108 -125 -169t-204 -61zM408 68q153 0 288 97t178 251l25 92q-192 49 -395 49q-155 0 -252.5 -77t-97.5 -199q0 -98 68.5 -155.5t185.5 -57.5zM389 -25
q-90 0 -166 31.5t-126 100t-50 161.5q0 171 131.5 275t339.5 104q204 0 402 -59l8 28q14 54 14 105q0 119 -81 182.5t-234 63.5q-143 0 -303 -56l-19 90q160 60 330 60q191 0 298 -86.5t107 -239.5q0 -70 -20 -137l-160 -598h-98l47 180q-169 -205 -420 -205z" />
    <glyph glyph-name="Dcroat" unicode="&#x110;" horiz-adv-x="1579" 
d="M94 670l31 96h154l180 668h321q172 0 316.5 -48.5t240.5 -144.5q158 -158 158 -410q0 -332 -223 -555q-131 -131 -320 -203.5t-409 -72.5h-469l180 670h-160zM207 98h350q389 0 635 246q192 192 192 479q0 221 -133 351q-161 161 -477 161h-235l-154 -569h420l-31 -96
h-414z" />
    <glyph glyph-name="dcroat" unicode="&#x111;" horiz-adv-x="1339" 
d="M530 -27q-181 0 -300 125t-119 316q0 136 48.5 258.5t129 209t188.5 137t223 50.5q85 0 156 -24t120.5 -66.5t83.5 -92.5t56 -110l131 490h-342l31 90h336l37 139h100l-37 -139h180l-30 -90h-174l-338 -1266h-101l54 203q-191 -230 -433 -230zM543 68q128 0 249 76.5
t197 203t76 262.5q0 155 -100.5 260t-259.5 105q-138 0 -251 -77t-174 -202.5t-61 -269.5q0 -160 90.5 -259t233.5 -99z" />
    <glyph glyph-name="Itilde" unicode="&#x128;" horiz-adv-x="561" 
d="M350 1563l-69 26q46 94 90 136t102 42q24 0 46.5 -10t34.5 -19.5t44 -37.5q45 -43 59 -49q13 -6 29 -6q29 0 52 25.5t59 86.5l69 -26q-46 -94 -90 -136.5t-102 -42.5q-12 0 -21.5 1t-20 5.5t-15.5 6t-16 10.5t-13.5 11t-16 15.5l-16.5 16.5q-48 46 -64 54q-14 7 -30 7
q-28 0 -51 -26t-60 -90zM88 0l385 1434h107l-385 -1434h-107z" />
    <glyph glyph-name="itilde" unicode="&#x129;" horiz-adv-x="512" 
d="M66 0l280 1044h100l-280 -1044h-100zM217 1229l-70 26q46 94 90.5 136.5t102.5 42.5q24 0 47 -10.5t34 -19.5t44 -38q45 -43 59 -49q13 -6 29 -6q29 0 52 25.5t59 86.5l69 -26q-46 -94 -90 -136t-102 -42q-11 0 -20.5 1.5t-16 2.5t-15.5 6t-12.5 6.5t-13.5 10t-12 10.5
t-14.5 14t-14.5 14q-4 4 -14 13.5t-13.5 12.5t-11.5 10.5t-11.5 9.5t-10 6.5t-11 5.5t-10.5 2.5t-12 1.5q-28 0 -51 -26.5t-60 -90.5z" />
    <glyph glyph-name="dotlessi" unicode="&#x131;" horiz-adv-x="512" 
d="M66 0l280 1044h100l-280 -1044h-100z" />
    <glyph glyph-name="Lslash" unicode="&#x141;" horiz-adv-x="1331" 
d="M176 0l174 647l-164 -47l25 98l166 47l184 689h107l-176 -656l497 142l-26 -99l-498 -141l-156 -582h842l-27 -98h-948z" />
    <glyph glyph-name="lslash" unicode="&#x142;" horiz-adv-x="632" 
d="M127 0l184 686l-166 -47l27 102l166 47l190 707h101l-183 -676l172 49l-28 -102l-170 -49l-193 -717h-100z" />
    <glyph glyph-name="OE" unicode="&#x152;" horiz-adv-x="2363" 
d="M909 98h215l332 1237h-330q-389 0 -634 -245q-193 -193 -193 -480q0 -217 133 -350q162 -162 477 -162zM2095 0h-1192q-172 0 -316.5 48.5t-240.5 144.5q-158 158 -158 409q0 331 224 555q131 131 320 204t409 73h1329l-27 -99h-880l-152 -563h789l-27 -98h-789
l-153 -576h891z" />
    <glyph glyph-name="oe" unicode="&#x153;" horiz-adv-x="2142" 
d="M580 70q125 0 241 71.5t188 193t72 257.5q0 183 -99 283t-267 100q-129 0 -245.5 -74.5t-186.5 -198t-70 -260.5q0 -176 100 -274t267 -98zM1186 578h758q8 24 8 86q0 135 -75 224t-220 89q-170 0 -296.5 -114.5t-174.5 -284.5zM2025 487h-858q-4 -46 -4 -69
q0 -157 95.5 -252.5t250.5 -95.5q110 0 191.5 35t165.5 104l59 -72q-196 -162 -409 -162q-166 0 -283 87t-150 231q-86 -141 -218 -229.5t-302 -88.5q-201 0 -330 131t-129 332q0 122 50.5 237.5t134 202t199 139t237.5 52.5q172 0 283 -94t147 -240q36 69 83.5 126.5
t109 105.5t141.5 75t170 27q126 0 217.5 -55.5t134.5 -144.5t43 -199q0 -94 -29 -183z" />
    <glyph glyph-name="Scaron" unicode="&#x160;" horiz-adv-x="1306" 
d="M860 1567l-137 250h90l107 -140l196 140h98l-272 -250h-82zM612 -20q-376 0 -571 274l82 59q94 -121 213 -179t287 -58q177 0 295 89t118 224q0 94 -68.5 155.5t-244.5 133.5q-228 89 -319 170.5t-91 210.5q0 166 143.5 280.5t370.5 114.5q157 0 287 -59.5t211 -159.5
l-82 -66q-160 189 -426 189q-178 0 -286.5 -86t-108.5 -205q0 -95 79 -159.5t263 -133.5q202 -75 291.5 -161.5t89.5 -215.5q0 -176 -152 -296.5t-381 -120.5z" />
    <glyph glyph-name="scaron" unicode="&#x161;" horiz-adv-x="1013" 
d="M631 1219l-137 249h90l106 -139l197 139h98l-272 -249h-82zM444 -23q-261 0 -442 181l72 71q162 -159 383 -159q105 0 187.5 58t82.5 148q0 64 -49 112t-178 95q-156 58 -224.5 120t-68.5 161q0 128 107 215.5t280 87.5q104 0 205 -39.5t172 -99.5l-66 -76
q-65 54 -149.5 88.5t-171.5 34.5q-125 0 -198 -58t-73 -137q0 -63 47.5 -106.5t188.5 -98.5q155 -62 220 -126t65 -156q0 -135 -114 -225.5t-276 -90.5z" />
    <glyph glyph-name="Utilde" unicode="&#x168;" horiz-adv-x="1548" 
d="M831 1563l-69 26q46 94 90 136t102 42q24 0 46.5 -10t34.5 -19.5t44 -37.5q45 -43 59 -49q13 -6 29 -6q29 0 52 25.5t59 86.5l70 -26q-46 -94 -90.5 -136.5t-102.5 -42.5q-12 0 -21.5 1t-20 5.5t-15.5 6t-16 10.5t-13.5 11t-16 15.5l-16.5 16.5q-48 46 -64 54
q-14 7 -30 7q-28 0 -51 -26t-60 -90zM713 -23q-127 0 -226.5 34.5t-162 96t-95 143t-32.5 177.5q0 109 28 221l209 785h107l-222 -834q-18 -74 -18 -164q0 -162 106.5 -262t313.5 -100q203 0 350 147q134 134 201 381l223 832h107l-230 -854q-72 -267 -227 -422
q-181 -181 -432 -181z" />
    <glyph glyph-name="utilde" unicode="&#x169;" horiz-adv-x="1247" 
d="M582 1229l-70 26q46 94 90.5 136.5t102.5 42.5q8 0 15.5 -0.5t15.5 -3.5t13 -4.5t13.5 -7t12 -7t13 -10t12 -10.5t14.5 -12.5t15 -12.5q26 -25 35.5 -33t23.5 -15t30 -7q29 0 51.5 25t58.5 87l70 -26q-46 -93 -90 -135.5t-103 -42.5q-11 0 -20.5 1.5t-16 2.5t-15.5 6
t-12.5 6.5t-13.5 10t-12 10.5t-14.5 14t-14.5 14q-4 4 -14 13.5t-13.5 12.5t-11.5 10.5t-11.5 9.5t-10 6.5t-11 5.5t-10.5 2.5t-12 1.5q-28 0 -50 -26t-60 -91zM473 -25q-156 0 -249 90t-93 242q0 67 23 148l155 589h101l-160 -598q-17 -66 -17 -129q0 -117 72 -184t197 -67
q89 0 178 49t159 139.5t99 200.5l158 589h100l-278 -1044h-101l51 195q-86 -105 -179 -162.5t-216 -57.5z" />
    <glyph glyph-name="Ydieresis" unicode="&#x178;" horiz-adv-x="1368" 
d="M702 1567l46 164h141l-45 -164h-142zM1036 1567l45 164h142l-45 -164h-142zM479 0l156 582l-375 852h117l330 -770l745 770h143l-862 -879l-147 -555h-107z" />
    <glyph glyph-name="Zcaron" unicode="&#x17d;" horiz-adv-x="1355" 
d="M872 1567l-137 250h90l107 -140l196 140h99l-273 -250h-82zM-39 0l16 59l1303 1278h-926l27 97h1092l-17 -60l-1302 -1278h966l-26 -96h-1133z" />
    <glyph glyph-name="zcaron" unicode="&#x17e;" horiz-adv-x="1118" 
d="M676 1219l-137 249h90l106 -139l197 139h98l-272 -249h-82zM-35 0l17 57l972 897h-704l24 90h869l-17 -57l-972 -897h739l-25 -90h-903z" />
    <glyph glyph-name="florin" unicode="&#x192;" horiz-adv-x="1077" 
d="M68 -20q-61 0 -115 16l27 88q42 -14 96 -14q72 0 126 51.5t105 167.5l219 497h-219l25 93h233l121 274q66 155 154.5 228t210.5 73q86 0 170 -31l-31 -86q-79 27 -143 27q-86 0 -150.5 -56.5t-118.5 -179.5l-110 -249h331l-24 -93h-346l-230 -522q-68 -156 -146.5 -220
t-184.5 -64z" />
    <glyph glyph-name="Ohorn" unicode="&#x1a0;" 
d="M815 -27q-132 0 -248 48.5t-196.5 131t-127 196t-46.5 241.5q0 166 65.5 324.5t175 278t263.5 192.5t321 73q135 0 248 -49q30 -11 61 -31l2 4q96 5 142 28t63 81q10 33 10.5 60t-6.5 91h111q12 -91 -8 -159q-27 -100 -111 -148q-44 -24 -90 -35q13 -9 22 -22
q83 -83 128.5 -195.5t45.5 -240.5q0 -166 -65.5 -325t-175 -278.5t-263.5 -192.5t-321 -73zM815 70q146 0 280 65.5t228.5 172.5t150.5 247.5t56 286.5q0 223 -142 371.5t-366 148.5q-146 0 -280 -65.5t-228.5 -172.5t-150.5 -247.5t-56 -286.5q0 -223 142 -371.5
t366 -148.5z" />
    <glyph glyph-name="ohorn" unicode="&#x1a1;" horiz-adv-x="1296" 
d="M569 -25q-206 0 -335.5 130.5t-129.5 332.5q0 122 50.5 237.5t134 202t199 139t237.5 52.5q104 0 188 -35q36 -16 52 -24l2 2q96 5 141.5 27.5t62.5 80.5q10 34 10.5 60.5t-5.5 91.5h110q12 -91 -8 -160q-26 -99 -111 -147q-43 -26 -96 -37q54 -60 84 -137
q35 -84 35 -185q0 -124 -52 -241t-137 -202t-199 -136.5t-233 -51.5zM580 70q94 0 185.5 43t160.5 114.5t112 170.5t43 204q0 176 -99.5 274.5t-266.5 98.5q-129 0 -245.5 -74.5t-186.5 -198t-70 -260.5q0 -176 100 -274t267 -98z" />
    <glyph glyph-name="Uhorn" unicode="&#x1af;" horiz-adv-x="1611" 
d="M713 -23q-127 0 -226.5 34.5t-162 96t-95 143t-32.5 177.5q0 109 28 221l209 785h107l-222 -834q-18 -74 -18 -164q0 -162 106.5 -262t313.5 -100q203 0 350 147q134 134 201 381l223 832h96q38 7 58 18q49 21 65 82q10 33 10.5 60.5t-6.5 91.5h111q12 -91 -8 -160
q-27 -100 -111 -148q-55 -31 -135 -43l-203 -755q-72 -267 -227 -422q-181 -181 -432 -181z" />
    <glyph glyph-name="uhorn" unicode="&#x1b0;" horiz-adv-x="1265" 
d="M473 -25q-156 0 -249 90t-93 242q0 67 23 148l155 589h101l-160 -598q-17 -66 -17 -129q0 -117 72 -184t197 -67q89 0 178 49t159 139.5t99 200.5l158 589h82q42 6 69 21q50 21 66 82q10 33 10.5 60t-6.5 91h110q12 -91 -8 -159q-27 -101 -110 -148q-52 -32 -140 -45
l-251 -946h-101l51 195q-86 -105 -179 -162.5t-216 -57.5z" />
    <glyph glyph-name="circumflex" unicode="&#x2c6;" horiz-adv-x="1024" 
d="M455 1219l272 249h82l137 -249h-90l-106 139l-197 -139h-98z" />
    <glyph glyph-name="caron" unicode="&#x2c7;" horiz-adv-x="1024" 
d="M657 1219l-137 249h90l107 -139l196 139h99l-273 -249h-82z" />
    <glyph glyph-name="breve" unicode="&#x2d8;" horiz-adv-x="1024" 
d="M694 1214q-100 0 -156.5 48.5t-56.5 138.5q0 36 8 67h82q0 -75 31.5 -112t114.5 -37q144 0 223 149h94q-41 -120 -132 -187t-208 -67z" />
    <glyph glyph-name="dotaccent" unicode="&#x2d9;" horiz-adv-x="1024" 
d="M629 1214l47 175h135l-47 -175h-135z" />
    <glyph glyph-name="ring" unicode="&#x2da;" horiz-adv-x="1024" 
d="M735 1284q60 0 102 41.5t42 101.5q0 46 -32.5 74.5t-90.5 28.5q-60 0 -102 -42t-42 -102q0 -46 32.5 -74t90.5 -28zM735 1219q-87 0 -141.5 47t-54.5 120q0 87 64 148t153 61q87 0 141.5 -47.5t54.5 -120.5q0 -87 -64 -147.5t-153 -60.5z" />
    <glyph glyph-name="ogonek" unicode="&#x2db;" horiz-adv-x="1024" 
d="M479 -272l-16 -64q-148 -4 -221.5 41t-73.5 127q0 39 21.5 91.5t52.5 96.5h88q-19 -36 -35 -87t-16 -80q0 -116 200 -125z" />
    <glyph glyph-name="tilde" unicode="&#x2dc;" horiz-adv-x="1024" 
d="M477 1214l-78 31q51 103 100 150t113 47q30 0 55.5 -11t38 -21t44.5 -40q4 -4 13 -12t12 -11t10 -9t10 -8t8.5 -6.5t8.5 -5.5t8 -3.5t9 -3.5t9 -1.5t10 -0.5q30 0 56.5 28.5t64.5 94.5l78 -31q-51 -103 -100 -150t-113 -47q-30 0 -55.5 11t-38 21t-44.5 40q-4 4 -13 12
t-12 11t-10 9t-10 8t-8.5 6.5t-8.5 5.5t-8 3.5t-9 3.5t-9 1.5t-10 0.5q-30 0 -56.5 -28.5t-64.5 -94.5z" />
    <glyph glyph-name="hungarumlaut" unicode="&#x2dd;" horiz-adv-x="1024" 
d="M393 1219l256 272l96 -59l-264 -213h-88zM705 1219l256 272l96 -59l-264 -213h-88z" />
    <glyph glyph-name="Omega" unicode="&#x3a9;" horiz-adv-x="1482" 
d="M113 0l256 952h-152l25 92h151l41 152q80 299 334 299q119 0 209 -49l-25 -90q-107 49 -188 49q-178 0 -236 -231l-34 -130h376l-24 -92h-377l-256 -952h-100zM854 0l256 952h-152l25 92h152l41 152q80 299 333 299q119 0 209 -49l-24 -90q-107 49 -189 49
q-174 0 -235 -231l-35 -130h377l-25 -92h-377l-256 -952h-100z" />
    <glyph glyph-name="Omega" unicode="&#x2126;" horiz-adv-x="1482" 
d="M113 0l256 952h-152l25 92h151l41 152q80 299 334 299q119 0 209 -49l-25 -90q-107 49 -188 49q-178 0 -236 -231l-34 -130h376l-24 -92h-377l-256 -952h-100zM854 0l256 952h-152l25 92h152l41 152q80 299 333 299q119 0 209 -49l-24 -90q-107 49 -189 49
q-174 0 -235 -231l-35 -130h377l-25 -92h-377l-256 -952h-100z" />
    <glyph glyph-name="pi" unicode="&#x3c0;" horiz-adv-x="1699" 
d="M748 705h186q99 0 156 42t57 119q0 158 -207 158h-192v-319zM657 358v750h289q136 0 214.5 -61.5t78.5 -176.5q0 -121 -88 -185t-219 -64h-184v-263h-91zM899 33q190 0 347 92.5t246 250t89 343.5t-88 342.5t-244 248t-346 91.5t-347 -92.5t-246 -250t-89 -343.5
t88 -342.5t244 -248t346 -91.5zM899 -25q-204 0 -374.5 100t-267.5 270t-97 370q0 149 58 286t156.5 237t236.5 160t292 60q153 0 290.5 -59t235.5 -158t155.5 -235.5t57.5 -286.5q0 -149 -58 -286t-156.5 -237.5t-237 -160.5t-291.5 -60z" />
    <glyph glyph-name="uni1EA0" unicode="&#x1ea0;" horiz-adv-x="1554" 
d="M516 -365l55 193h105l-55 -193h-105zM410 498h755l-153 829zM-70 0l1055 1444h102l281 -1444h-108l-74 401h-846l-291 -401h-119z" />
    <glyph glyph-name="uni1EA1" unicode="&#x1ea1;" horiz-adv-x="1169" 
d="M299 -365l55 193h105l-56 -193h-104zM408 68q153 0 288 97t178 251l25 92q-192 49 -395 49q-155 0 -252.5 -77t-97.5 -199q0 -98 68.5 -155.5t185.5 -57.5zM389 -25q-90 0 -166 31.5t-126 100t-50 161.5q0 171 131.5 275t339.5 104q204 0 402 -59l8 28q14 54 14 105
q0 119 -81 182.5t-234 63.5q-143 0 -303 -56l-19 90q160 60 330 60q191 0 298 -86.5t107 -239.5q0 -70 -20 -137l-160 -598h-98l47 180q-169 -205 -420 -205z" />
    <glyph glyph-name="uni1EA2" unicode="&#x1ea2;" horiz-adv-x="1554" 
d="M1028 1565l47 149q62 4 109 30t61 62q11 31 -4.5 51.5t-56.5 20.5q-62 0 -146 -70q-7 4 -10 6t-8 8t-10 11q-2 2 -9.5 6.5t-13.5 9.5t-10 9q106 106 240 106q81 0 114 -44.5t8 -113.5q-44 -117 -209 -159q-13 -45 -30 -82h-72zM410 498h755l-153 829zM-70 0l1055 1444
h102l281 -1444h-108l-74 401h-846l-291 -401h-119z" />
    <glyph glyph-name="uni1EA3" unicode="&#x1ea3;" horiz-adv-x="1169" 
d="M754 1217l47 149q62 4 109 30t61 62q11 31 -5 51.5t-57 20.5q-61 0 -145 -70q-6 3 -9.5 5.5t-5 4t-5.5 6t-9 9.5q-3 2 -10 6.5t-13 9t-10 8.5q53 53 116.5 80t123.5 27q81 0 114.5 -45t8.5 -113q-44 -118 -209 -160q-11 -36 -31 -81h-71zM408 68q153 0 288 97t178 251
l25 92q-192 49 -395 49q-155 0 -252.5 -77t-97.5 -199q0 -98 68.5 -155.5t185.5 -57.5zM389 -25q-90 0 -166 31.5t-126 100t-50 161.5q0 171 131.5 275t339.5 104q204 0 402 -59l8 28q14 54 14 105q0 119 -81 182.5t-234 63.5q-143 0 -303 -56l-19 90q160 60 330 60
q191 0 298 -86.5t107 -239.5q0 -70 -20 -137l-160 -598h-98l47 180q-169 -205 -420 -205z" />
    <glyph glyph-name="uni1EA4" unicode="&#x1ea4;" horiz-adv-x="1554" 
d="M1303 1761l253 273l127 -62l-276 -211h-104zM821 1567l273 250h82l137 -250h-90l-107 139l-196 -139h-99zM410 498h755l-153 829zM-70 0l1055 1444h102l281 -1444h-108l-74 401h-846l-291 -401h-119z" />
    <glyph glyph-name="uni1EA5" unicode="&#x1ea5;" horiz-adv-x="1169" 
d="M1008 1415l254 273l127 -62l-277 -211h-104zM526 1219l273 249h82l137 -249h-90l-107 139l-196 -139h-99zM408 68q153 0 288 97t178 251l25 92q-192 49 -395 49q-155 0 -252.5 -77t-97.5 -199q0 -98 68.5 -155.5t185.5 -57.5zM389 -25q-90 0 -166 31.5t-126 100
t-50 161.5q0 171 131.5 275t339.5 104q204 0 402 -59l8 28q14 54 14 105q0 119 -81 182.5t-234 63.5q-143 0 -303 -56l-19 90q160 60 330 60q191 0 298 -86.5t107 -239.5q0 -70 -20 -137l-160 -598h-98l47 180q-169 -205 -420 -205z" />
    <glyph glyph-name="uni1EA6" unicode="&#x1ea6;" horiz-adv-x="1554" 
d="M1343 1761l-161 211l127 62l106 -273h-72zM821 1567l273 250h82l137 -250h-90l-107 139l-196 -139h-99zM410 498h755l-153 829zM-70 0l1055 1444h102l281 -1444h-108l-74 401h-846l-291 -401h-119z" />
    <glyph glyph-name="uni1EA7" unicode="&#x1ea7;" horiz-adv-x="1169" 
d="M1049 1413l-162 211l127 62l106 -273h-71zM526 1219l273 249h82l137 -249h-90l-107 139l-196 -139h-99zM408 68q153 0 288 97t178 251l25 92q-192 49 -395 49q-155 0 -252.5 -77t-97.5 -199q0 -98 68.5 -155.5t185.5 -57.5zM389 -25q-90 0 -166 31.5t-126 100t-50 161.5
q0 171 131.5 275t339.5 104q204 0 402 -59l8 28q14 54 14 105q0 119 -81 182.5t-234 63.5q-143 0 -303 -56l-19 90q160 60 330 60q191 0 298 -86.5t107 -239.5q0 -70 -20 -137l-160 -598h-98l47 180q-169 -205 -420 -205z" />
    <glyph glyph-name="uni1EA8" unicode="&#x1ea8;" horiz-adv-x="1554" 
d="M1282 1761l45 135q56 4 99 28.5t55 55.5q11 27 -4 46.5t-52 19.5q-54 0 -133 -64q-7 4 -10 6t-6.5 7t-9.5 10q-2 2 -13 9.5t-16 13.5q93 96 219 96q72 0 103 -41t8 -103q-43 -111 -191 -143q-9 -29 -26 -76h-68zM821 1567l273 250h82l137 -250h-90l-107 139l-196 -139
h-99zM410 498h755l-153 829zM-70 0l1055 1444h102l281 -1444h-108l-74 401h-846l-291 -401h-119z" />
    <glyph glyph-name="uni1EA9" unicode="&#x1ea9;" horiz-adv-x="1169" 
d="M987 1413l45 135q56 4 99 28.5t55 55.5q11 27 -4 46.5t-52 19.5q-54 0 -133 -64q-7 4 -10 6t-6.5 7t-9.5 10q-2 2 -13 9t-16 13q94 97 219 97q72 0 103 -41t8 -103q-43 -111 -191 -143q-9 -29 -26 -76h-68zM526 1219l273 249h82l137 -249h-90l-107 139l-196 -139h-99z
M408 68q153 0 288 97t178 251l25 92q-192 49 -395 49q-155 0 -252.5 -77t-97.5 -199q0 -98 68.5 -155.5t185.5 -57.5zM389 -25q-90 0 -166 31.5t-126 100t-50 161.5q0 171 131.5 275t339.5 104q204 0 402 -59l8 28q14 54 14 105q0 119 -81 182.5t-234 63.5q-143 0 -303 -56
l-19 90q160 60 330 60q191 0 298 -86.5t107 -239.5q0 -70 -20 -137l-160 -598h-98l47 180q-169 -205 -420 -205z" />
    <glyph glyph-name="uni1EAA" unicode="&#x1eaa;" horiz-adv-x="1554" 
d="M946 1886l-67 25q46 82 90.5 121t99.5 39q11 0 20 -1t19.5 -5t16 -6t17.5 -10l15 -10t18.5 -14t18.5 -14q25 -22 33.5 -29.5t22 -13.5t28.5 -6q30 0 53.5 22.5t59.5 77.5l67 -24q-46 -82 -90.5 -121t-99.5 -39q-14 0 -26.5 2.5t-19.5 4.5t-19 10t-15.5 10.5t-18 15.5
t-18.5 16q-6 5 -17 14t-15 12.5t-12 9.5t-12.5 8t-11 5t-12 4t-12.5 1q-30 0 -53.5 -23.5t-59.5 -81.5zM821 1567l273 250h82l137 -250h-90l-107 139l-196 -139h-99zM410 498h755l-153 829zM-70 0l1055 1444h102l281 -1444h-108l-74 401h-846l-291 -401h-119z" />
    <glyph glyph-name="uni1EAB" unicode="&#x1eab;" horiz-adv-x="1169" 
d="M526 1219l273 249h82l137 -249h-90l-107 139l-196 -139h-99zM408 68q153 0 288 97t178 251l25 92q-192 49 -395 49q-155 0 -252.5 -77t-97.5 -199q0 -98 68.5 -155.5t185.5 -57.5zM389 -25q-90 0 -166 31.5t-126 100t-50 161.5q0 171 131.5 275t339.5 104q204 0 402 -59
l8 28q14 54 14 105q0 119 -81 182.5t-234 63.5q-143 0 -303 -56l-19 90q160 60 330 60q191 0 298 -86.5t107 -239.5q0 -70 -20 -137l-160 -598h-98l47 180q-169 -205 -420 -205zM651 1536l-67 25q46 82 90.5 120.5t99.5 38.5q8 0 15.5 -0.5t15.5 -3t13.5 -4t13.5 -6t12 -6.5
t13.5 -8.5t12.5 -8.5t14.5 -11t14.5 -11q25 -22 33.5 -29.5t22 -13.5t28.5 -6q30 0 53.5 22.5t59.5 77.5l67 -24q-46 -82 -90.5 -121t-99.5 -39q-14 0 -26.5 2.5t-19.5 4.5t-19 10t-15.5 10.5t-18 15.5t-18.5 16q-5 4 -15 12.5t-13.5 11t-11 8.5t-11 8t-10 5.5t-10.5 4.5
t-9.5 2t-11.5 1q-30 0 -53.5 -23.5t-59.5 -80.5z" />
    <glyph glyph-name="uni1EAC" unicode="&#x1eac;" horiz-adv-x="1554" 
d="M516 -365l55 193h105l-55 -193h-105zM821 1567l273 250h82l137 -250h-90l-107 139l-196 -139h-99zM410 498h755l-153 829zM-70 0l1055 1444h102l281 -1444h-108l-74 401h-846l-291 -401h-119z" />
    <glyph glyph-name="uni1EAD" unicode="&#x1ead;" horiz-adv-x="1169" 
d="M299 -365l55 193h105l-56 -193h-104zM526 1219l273 249h82l137 -249h-90l-107 139l-196 -139h-99zM408 68q153 0 288 97t178 251l25 92q-192 49 -395 49q-155 0 -252.5 -77t-97.5 -199q0 -98 68.5 -155.5t185.5 -57.5zM389 -25q-90 0 -166 31.5t-126 100t-50 161.5
q0 171 131.5 275t339.5 104q204 0 402 -59l8 28q14 54 14 105q0 119 -81 182.5t-234 63.5q-143 0 -303 -56l-19 90q160 60 330 60q191 0 298 -86.5t107 -239.5q0 -70 -20 -137l-160 -598h-98l47 180q-169 -205 -420 -205z" />
    <glyph glyph-name="uni1EAE" unicode="&#x1eae;" horiz-adv-x="1554" 
d="M1030 1812l254 273l127 -62l-276 -211h-105zM1061 1583q-117 0 -176 61t-39 168h80q-12 -58 26.5 -96.5t116.5 -38.5q77 0 143 38t99 97h80q-36 -108 -124.5 -168.5t-205.5 -60.5zM410 498h755l-153 829zM-70 0l1055 1444h102l281 -1444h-108l-74 401h-846l-291 -401
h-119z" />
    <glyph glyph-name="uni1EAF" unicode="&#x1eaf;" horiz-adv-x="1173" 
d="M766 1444l254 272l127 -61l-277 -211h-104zM797 1214q-117 0 -176 61.5t-39 168.5h80q-12 -58 26.5 -96.5t116.5 -38.5q77 0 143 38t99 97h79q-37 -108 -125 -169t-204 -61zM408 68q153 0 288 97t178 251l25 92q-192 49 -395 49q-155 0 -252.5 -77t-97.5 -199
q0 -98 68.5 -155.5t185.5 -57.5zM389 -25q-90 0 -166 31.5t-126 100t-50 161.5q0 171 131.5 275t339.5 104q204 0 402 -59l8 28q14 54 14 105q0 119 -81 182.5t-234 63.5q-143 0 -303 -56l-19 90q160 60 330 60q191 0 298 -86.5t107 -239.5q0 -70 -20 -137l-160 -598h-98
l47 180q-169 -205 -420 -205z" />
    <glyph glyph-name="uni1EB0" unicode="&#x1eb0;" horiz-adv-x="1554" 
d="M1102 1812l-162 211l127 62l107 -273h-72zM1061 1583q-117 0 -176 61t-39 168h80q-12 -58 26.5 -96.5t116.5 -38.5q77 0 143 38t99 97h80q-36 -108 -124.5 -168.5t-205.5 -60.5zM410 498h755l-153 829zM-70 0l1055 1444h102l281 -1444h-108l-74 401h-846l-291 -401h-119z
" />
    <glyph glyph-name="uni1EB1" unicode="&#x1eb1;" horiz-adv-x="1173" 
d="M838 1444l-162 211l127 61l106 -272h-71zM797 1214q-117 0 -176 61.5t-39 168.5h80q-12 -58 26.5 -96.5t116.5 -38.5q77 0 143 38t99 97h79q-37 -108 -125 -169t-204 -61zM408 68q153 0 288 97t178 251l25 92q-192 49 -395 49q-155 0 -252.5 -77t-97.5 -199
q0 -98 68.5 -155.5t185.5 -57.5zM389 -25q-90 0 -166 31.5t-126 100t-50 161.5q0 171 131.5 275t339.5 104q204 0 402 -59l8 28q14 54 14 105q0 119 -81 182.5t-234 63.5q-143 0 -303 -56l-19 90q160 60 330 60q191 0 298 -86.5t107 -239.5q0 -70 -20 -137l-160 -598h-98
l47 180q-169 -205 -420 -205z" />
    <glyph glyph-name="uni1EB2" unicode="&#x1eb2;" horiz-adv-x="1554" 
d="M1073 1812l43 142q59 4 103.5 28.5t56.5 57.5q11 28 -3.5 47.5t-53.5 19.5q-58 0 -138 -65q-2 1 -26 22q-27 21 -31 25q49 49 109 74.5t116 25.5q77 0 109 -42.5t8 -106.5q-24 -59 -77 -97.5t-120 -52.5q-4 -12 -28 -78h-68zM1061 1583q-117 0 -176 61t-39 168h80
q-12 -58 26.5 -96.5t116.5 -38.5q77 0 143 38t99 97h80q-36 -108 -124.5 -168.5t-205.5 -60.5zM410 498h755l-153 829zM-70 0l1055 1444h102l281 -1444h-108l-74 401h-846l-291 -401h-119z" />
    <glyph glyph-name="uni1EB3" unicode="&#x1eb3;" horiz-adv-x="1173" 
d="M809 1444l43 141q59 4 103.5 28.5t56.5 57.5q11 28 -4 48t-54 20q-56 0 -137 -66l-9 6t-7 7t-10 10q-2 2 -9 6.5t-12.5 9t-9.5 8.5q49 49 109 75t116 26q77 0 109 -43t8 -107q-24 -59 -77 -97t-120 -52q-4 -12 -28 -78h-68zM797 1214q-117 0 -176 61.5t-39 168.5h80
q-12 -58 26.5 -96.5t116.5 -38.5q77 0 143 38t99 97h79q-37 -108 -125 -169t-204 -61zM408 68q153 0 288 97t178 251l25 92q-192 49 -395 49q-155 0 -252.5 -77t-97.5 -199q0 -98 68.5 -155.5t185.5 -57.5zM389 -25q-90 0 -166 31.5t-126 100t-50 161.5q0 171 131.5 275
t339.5 104q204 0 402 -59l8 28q14 54 14 105q0 119 -81 182.5t-234 63.5q-143 0 -303 -56l-19 90q160 60 330 60q191 0 298 -86.5t107 -239.5q0 -70 -20 -137l-160 -598h-98l47 180q-169 -205 -420 -205z" />
    <glyph glyph-name="uni1EB4" unicode="&#x1eb4;" horiz-adv-x="1554" 
d="M918 1894l-70 27q46 94 90 136t102 42q24 0 46.5 -10t34.5 -19.5t44 -37.5q4 -4 12.5 -12t11.5 -11t9.5 -9t9.5 -7.5t8 -5.5t8.5 -5t8.5 -3t10 -2.5t10 -0.5q29 0 52 25.5t59 87.5l70 -27q-46 -93 -90 -135.5t-103 -42.5q-12 0 -21.5 1t-20 5.5t-15.5 6t-16 10.5
t-13.5 11t-16 15.5l-16.5 16.5q-48 46 -64 54q-14 7 -30 7q-28 0 -50 -26t-60 -91zM1061 1583q-117 0 -176 61t-39 168h80q-12 -58 26.5 -96.5t116.5 -38.5q77 0 143 38t99 97h80q-36 -108 -124.5 -168.5t-205.5 -60.5zM410 498h755l-153 829zM-70 0l1055 1444h102
l281 -1444h-108l-74 401h-846l-291 -401h-119z" />
    <glyph glyph-name="uni1EB5" unicode="&#x1eb5;" horiz-adv-x="1173" 
d="M653 1526l-69 26q46 94 90 136.5t102 42.5q24 0 47 -10.5t34 -19.5t44 -38q45 -43 59 -49q13 -6 29 -6q29 0 52 25.5t59 86.5l69 -26q-46 -94 -90 -136t-102 -42q-11 0 -20.5 1.5t-16 2.5t-15.5 6t-12.5 6.5t-13.5 10t-12 10.5t-14.5 14t-14.5 14q-48 46 -64 54
q-14 7 -30 7q-28 0 -51 -26t-60 -90zM797 1214q-117 0 -176 61.5t-39 168.5h80q-12 -58 26.5 -96.5t116.5 -38.5q77 0 143 38t99 97h79q-37 -108 -125 -169t-204 -61zM408 68q153 0 288 97t178 251l25 92q-192 49 -395 49q-155 0 -252.5 -77t-97.5 -199q0 -98 68.5 -155.5
t185.5 -57.5zM389 -25q-90 0 -166 31.5t-126 100t-50 161.5q0 171 131.5 275t339.5 104q204 0 402 -59l8 28q14 54 14 105q0 119 -81 182.5t-234 63.5q-143 0 -303 -56l-19 90q160 60 330 60q191 0 298 -86.5t107 -239.5q0 -70 -20 -137l-160 -598h-98l47 180
q-169 -205 -420 -205z" />
    <glyph glyph-name="uni1EB6" unicode="&#x1eb6;" horiz-adv-x="1554" 
d="M516 -365l55 193h105l-55 -193h-105zM1061 1583q-117 0 -176 61t-39 168h80q-12 -58 26.5 -96.5t116.5 -38.5q77 0 143 38t99 97h80q-36 -108 -124.5 -168.5t-205.5 -60.5zM410 498h755l-153 829zM-70 0l1055 1444h102l281 -1444h-108l-74 401h-846l-291 -401h-119z" />
    <glyph glyph-name="uni1EB7" unicode="&#x1eb7;" horiz-adv-x="1173" 
d="M299 -365l55 193h105l-56 -193h-104zM797 1214q-117 0 -176 61.5t-39 168.5h80q-12 -58 26.5 -96.5t116.5 -38.5q77 0 143 38t99 97h79q-37 -108 -125 -169t-204 -61zM408 68q153 0 288 97t178 251l25 92q-192 49 -395 49q-155 0 -252.5 -77t-97.5 -199
q0 -98 68.5 -155.5t185.5 -57.5zM389 -25q-90 0 -166 31.5t-126 100t-50 161.5q0 171 131.5 275t339.5 104q204 0 402 -59l8 28q14 54 14 105q0 119 -81 182.5t-234 63.5q-143 0 -303 -56l-19 90q160 60 330 60q191 0 298 -86.5t107 -239.5q0 -70 -20 -137l-160 -598h-98
l47 180q-169 -205 -420 -205z" />
    <glyph glyph-name="uni1EB8" unicode="&#x1eb8;" horiz-adv-x="1329" 
d="M432 -365l55 193h105l-55 -193h-105zM74 0l385 1434h1009l-26 -99h-903l-152 -563h811l-27 -98h-811l-153 -576h913l-26 -98h-1020z" />
    <glyph glyph-name="uni1EB9" unicode="&#x1eb9;" horiz-adv-x="1193" 
d="M393 -365l56 193h104l-55 -193h-105zM233 578h758q8 24 8 86q0 135 -74.5 224t-219.5 89q-170 0 -297 -114.5t-175 -284.5zM1073 487h-858q-4 -46 -4 -69q0 -157 95.5 -252.5t250.5 -95.5q110 0 191 35t165 104l60 -72q-95 -78 -190.5 -120t-225.5 -42q-200 0 -327.5 123
t-127.5 316q0 122 47.5 240.5t127 210t193 148t237.5 56.5q126 0 217.5 -55.5t134.5 -144.5t43 -199q0 -94 -29 -183z" />
    <glyph glyph-name="uni1EBA" unicode="&#x1eba;" horiz-adv-x="1329" 
d="M928 1565l47 149q62 4 109 30t61 62q11 31 -5 51.5t-57 20.5q-61 0 -145 -70q-6 3 -9.5 5.5t-5 4t-5.5 6t-9 9.5q-2 1 -9.5 6t-13 10t-9.5 9q106 106 239 106q81 0 114.5 -45t8.5 -113q-44 -117 -209 -159q-12 -39 -31 -82h-71zM74 0l385 1434h1009l-26 -99h-903
l-152 -563h811l-27 -98h-811l-153 -576h913l-26 -98h-1020z" />
    <glyph glyph-name="uni1EBB" unicode="&#x1ebb;" horiz-adv-x="1193" 
d="M743 1217l48 149q62 4 109 30t61 62q11 31 -5 51.5t-57 20.5q-61 0 -145 -70q-6 3 -9.5 5.5t-5 4t-5.5 6t-9 9.5q-3 2 -10 6.5t-13 9t-10 8.5q53 53 116.5 80t123.5 27q81 0 114.5 -45t8.5 -113q-44 -118 -209 -160q-11 -36 -31 -81h-72zM233 578h758q8 24 8 86
q0 135 -74.5 224t-219.5 89q-170 0 -297 -114.5t-175 -284.5zM1073 487h-858q-4 -46 -4 -69q0 -157 95.5 -252.5t250.5 -95.5q110 0 191 35t165 104l60 -72q-95 -78 -190.5 -120t-225.5 -42q-200 0 -327.5 123t-127.5 316q0 122 47.5 240.5t127 210t193 148t237.5 56.5
q126 0 217.5 -55.5t134.5 -144.5t43 -199q0 -94 -29 -183z" />
    <glyph glyph-name="uni1EBC" unicode="&#x1ebc;" horiz-adv-x="1329" 
d="M766 1563l-70 26q46 93 90 135.5t103 42.5q24 0 46.5 -10t34.5 -19.5t44 -37.5q45 -43 59 -49q13 -6 29 -6q29 0 51.5 25t58.5 87l70 -26q-46 -94 -90 -136.5t-102 -42.5q-12 0 -21.5 1t-20 5.5t-15.5 6t-16 10.5t-13.5 11t-16 15.5l-16.5 16.5q-48 46 -64 54
q-14 7 -30 7q-28 0 -51 -26t-60 -90zM74 0l385 1434h1009l-26 -99h-903l-152 -563h811l-27 -98h-811l-153 -576h913l-26 -98h-1020z" />
    <glyph glyph-name="uni1EBD" unicode="&#x1ebd;" horiz-adv-x="1193" 
d="M616 1229l-69 26q46 94 90 136.5t102 42.5q24 0 47 -10.5t34 -19.5t44 -38q45 -43 59 -49q13 -6 29 -6q29 0 52 25.5t59 86.5l70 -26q-46 -93 -90 -135.5t-103 -42.5q-11 0 -20.5 1.5t-16 2.5t-15.5 6t-12.5 6.5t-13.5 10t-12 10.5t-14.5 14t-14.5 14q-4 4 -14 13.5
t-13.5 12.5t-11.5 10.5t-11.5 9.5t-10 6.5t-11 5.5t-10.5 2.5t-12 1.5q-28 0 -51 -26.5t-60 -90.5zM233 578h758q8 24 8 86q0 135 -74.5 224t-219.5 89q-170 0 -297 -114.5t-175 -284.5zM1073 487h-858q-4 -46 -4 -69q0 -157 95.5 -252.5t250.5 -95.5q110 0 191 35t165 104
l60 -72q-95 -78 -190.5 -120t-225.5 -42q-200 0 -327.5 123t-127.5 316q0 122 47.5 240.5t127 210t193 148t237.5 56.5q126 0 217.5 -55.5t134.5 -144.5t43 -199q0 -94 -29 -183z" />
    <glyph glyph-name="uni1EBE" unicode="&#x1ebe;" horiz-adv-x="1329" 
d="M1208 1761l254 273l127 -62l-276 -211h-105zM727 1567l272 250h82l138 -250h-91l-106 139l-197 -139h-98zM74 0l385 1434h1009l-26 -99h-903l-152 -563h811l-27 -98h-811l-153 -576h913l-26 -98h-1020z" />
    <glyph glyph-name="uni1EBF" unicode="&#x1ebf;" horiz-adv-x="1193" 
d="M981 1415l254 273l127 -62l-277 -211h-104zM500 1219l272 249h82l137 -249h-90l-106 139l-197 -139h-98zM233 578h758q8 24 8 86q0 135 -74.5 224t-219.5 89q-170 0 -297 -114.5t-175 -284.5zM1073 487h-858q-4 -46 -4 -69q0 -157 95.5 -252.5t250.5 -95.5q110 0 191 35
t165 104l60 -72q-95 -78 -190.5 -120t-225.5 -42q-200 0 -327.5 123t-127.5 316q0 122 47.5 240.5t127 210t193 148t237.5 56.5q126 0 217.5 -55.5t134.5 -144.5t43 -199q0 -94 -29 -183z" />
    <glyph glyph-name="uni1EC0" unicode="&#x1ec0;" horiz-adv-x="1329" 
d="M1249 1761l-162 211l127 62l107 -273h-72zM727 1567l272 250h82l138 -250h-91l-106 139l-197 -139h-98zM74 0l385 1434h1009l-26 -99h-903l-152 -563h811l-27 -98h-811l-153 -576h913l-26 -98h-1020z" />
    <glyph glyph-name="uni1EC1" unicode="&#x1ec1;" horiz-adv-x="1193" 
d="M1022 1413l-162 211l127 62l107 -273h-72zM500 1219l272 249h82l137 -249h-90l-106 139l-197 -139h-98zM233 578h758q8 24 8 86q0 135 -74.5 224t-219.5 89q-170 0 -297 -114.5t-175 -284.5zM1073 487h-858q-4 -46 -4 -69q0 -157 95.5 -252.5t250.5 -95.5q110 0 191 35
t165 104l60 -72q-95 -78 -190.5 -120t-225.5 -42q-200 0 -327.5 123t-127.5 316q0 122 47.5 240.5t127 210t193 148t237.5 56.5q126 0 217.5 -55.5t134.5 -144.5t43 -199q0 -94 -29 -183z" />
    <glyph glyph-name="uni1EC2" unicode="&#x1ec2;" horiz-adv-x="1329" 
d="M1188 1761l45 135q56 4 98.5 28t54.5 56q11 27 -3.5 46.5t-51.5 19.5q-54 0 -133 -64q-7 4 -10 6t-7 7t-10 10q-2 2 -12.5 9.5t-15.5 13.5q93 96 219 96q72 0 103 -41t8 -103q-43 -111 -191 -143q-5 -16 -27 -76h-67zM727 1567l272 250h82l138 -250h-91l-106 139
l-197 -139h-98zM74 0l385 1434h1009l-26 -99h-903l-152 -563h811l-27 -98h-811l-153 -576h913l-26 -98h-1020z" />
    <glyph glyph-name="uni1EC3" unicode="&#x1ec3;" horiz-adv-x="1193" 
d="M961 1413l45 135q56 4 98.5 28t54.5 56q11 27 -3.5 46.5t-51.5 19.5q-54 0 -133 -64q-7 4 -10 6t-7 7t-10 10q-2 2 -13 9t-16 13q94 97 220 97q72 0 102.5 -41t7.5 -103q-22 -57 -72.5 -93t-117.5 -50q-5 -16 -27 -76h-67zM500 1219l272 249h82l137 -249h-90l-106 139
l-197 -139h-98zM233 578h758q8 24 8 86q0 135 -74.5 224t-219.5 89q-170 0 -297 -114.5t-175 -284.5zM1073 487h-858q-4 -46 -4 -69q0 -157 95.5 -252.5t250.5 -95.5q110 0 191 35t165 104l60 -72q-95 -78 -190.5 -120t-225.5 -42q-200 0 -327.5 123t-127.5 316
q0 122 47.5 240.5t127 210t193 148t237.5 56.5q126 0 217.5 -55.5t134.5 -144.5t43 -199q0 -94 -29 -183z" />
    <glyph glyph-name="uni1EC4" unicode="&#x1ec4;" horiz-adv-x="1329" 
d="M727 1567l272 250h82l138 -250h-91l-106 139l-197 -139h-98zM74 0l385 1434h1009l-26 -99h-903l-152 -563h811l-27 -98h-811l-153 -576h913l-26 -98h-1020zM852 1886l-68 25q46 82 91 121t100 39q11 0 20 -1t19.5 -5t16 -6t17.5 -10l15 -10t18.5 -14t18.5 -14
q25 -22 33.5 -29.5t22 -13.5t28.5 -6q30 0 53 22.5t59 77.5l68 -24q-46 -82 -90.5 -121t-99.5 -39q-14 0 -26.5 2.5t-19.5 4.5t-19 10t-15.5 10.5t-18 15.5t-18.5 16q-6 5 -17 14t-15 12.5t-12 9.5t-12.5 8t-11 5t-12 4t-12.5 1q-30 0 -53.5 -23.5t-59.5 -81.5z" />
    <glyph glyph-name="uni1EC5" unicode="&#x1ec5;" horiz-adv-x="1193" 
d="M500 1219l272 249h82l137 -249h-90l-106 139l-197 -139h-98zM233 578h758q8 24 8 86q0 135 -74.5 224t-219.5 89q-170 0 -297 -114.5t-175 -284.5zM1073 487h-858q-4 -46 -4 -69q0 -157 95.5 -252.5t250.5 -95.5q110 0 191 35t165 104l60 -72q-95 -78 -190.5 -120
t-225.5 -42q-200 0 -327.5 123t-127.5 316q0 122 47.5 240.5t127 210t193 148t237.5 56.5q126 0 217.5 -55.5t134.5 -144.5t43 -199q0 -94 -29 -183zM625 1534l-68 25q46 82 90.5 120.5t100.5 38.5q9 0 18 -1.5t16 -2.5t16 -5.5t13.5 -6.5t14.5 -9t13.5 -9.5t16 -12
t16.5 -12.5q25 -22 33.5 -29.5t22 -13.5t28.5 -6q30 0 53.5 22.5t59.5 77.5l68 -24q-46 -82 -91 -121t-100 -39q-14 0 -26.5 2.5t-19.5 4.5t-19 10t-15.5 10.5t-18 15.5t-18.5 16q-5 4 -15 12.5t-13.5 11t-11 8.5t-11 8t-10 5.5t-10.5 4.5t-9.5 2t-11.5 1q-30 0 -53 -23
t-59 -81z" />
    <glyph glyph-name="uni1EC6" unicode="&#x1ec6;" horiz-adv-x="1329" 
d="M432 -365l55 193h105l-55 -193h-105zM727 1567l272 250h82l138 -250h-91l-106 139l-197 -139h-98zM74 0l385 1434h1009l-26 -99h-903l-152 -563h811l-27 -98h-811l-153 -576h913l-26 -98h-1020z" />
    <glyph glyph-name="uni1EC7" unicode="&#x1ec7;" horiz-adv-x="1193" 
d="M393 -365l56 193h104l-55 -193h-105zM500 1219l272 249h82l137 -249h-90l-106 139l-197 -139h-98zM233 578h758q8 24 8 86q0 135 -74.5 224t-219.5 89q-170 0 -297 -114.5t-175 -284.5zM1073 487h-858q-4 -46 -4 -69q0 -157 95.5 -252.5t250.5 -95.5q110 0 191 35
t165 104l60 -72q-95 -78 -190.5 -120t-225.5 -42q-200 0 -327.5 123t-127.5 316q0 122 47.5 240.5t127 210t193 148t237.5 56.5q126 0 217.5 -55.5t134.5 -144.5t43 -199q0 -94 -29 -183z" />
    <glyph glyph-name="uni1EC8" unicode="&#x1ec8;" horiz-adv-x="561" 
d="M526 1565l47 149q62 4 109 30t61 62q11 31 -4.5 51.5t-56.5 20.5q-61 0 -145 -70q-6 3 -9.5 5.5t-5 4t-5.5 6t-9 9.5q-2 2 -9.5 6.5t-13.5 9.5t-10 9q106 106 240 106q81 0 114.5 -45t8.5 -113q-44 -117 -209 -159q-12 -39 -31 -82h-72zM88 0l385 1434h107l-385 -1434
h-107z" />
    <glyph glyph-name="uni1EC9" unicode="&#x1ec9;" horiz-adv-x="512" 
d="M66 0l280 1044h100l-280 -1044h-100zM399 1217l47 149q62 4 109 30t61 62q11 31 -4.5 51.5t-56.5 20.5q-61 0 -145 -70q-6 3 -9.5 5.5t-5 4t-5.5 6t-9 9.5q-3 2 -10 6.5t-13 9t-10 8.5q53 53 116.5 80t123.5 27q81 0 114.5 -45t8.5 -113q-44 -118 -209 -160
q-11 -36 -31 -81h-72z" />
    <glyph glyph-name="uni1ECA" unicode="&#x1eca;" horiz-adv-x="561" 
d="M-2 -365l55 193h105l-56 -193h-104zM88 0l385 1434h107l-385 -1434h-107z" />
    <glyph glyph-name="uni1ECB" unicode="&#x1ecb;" horiz-adv-x="512" 
d="M-37 -365l55 193h105l-55 -193h-105zM66 0l280 1044h100l-280 -1044h-100zM408 1317l36 137h125l-37 -137h-124z" />
    <glyph glyph-name="uni1ECC" unicode="&#x1ecc;" 
d="M618 -365l56 193h104l-55 -193h-105zM815 70q146 0 280 65.5t228.5 172.5t150.5 247.5t56 286.5q0 223 -142 371.5t-366 148.5q-146 0 -280 -65.5t-228.5 -172.5t-150.5 -247.5t-56 -286.5q0 -223 142 -371.5t366 -148.5zM815 -27q-132 0 -248 48.5t-196.5 131t-127 196
t-46.5 241.5q0 166 65.5 324.5t175 278t263.5 192.5t321 73q176 0 318.5 -82t221 -222.5t78.5 -311.5q0 -166 -65.5 -325t-175 -278.5t-263.5 -192.5t-321 -73z" />
    <glyph glyph-name="uni1ECD" unicode="&#x1ecd;" horiz-adv-x="1296" 
d="M381 -365l55 193h105l-56 -193h-104zM580 70q94 0 185.5 43t160.5 114.5t112 170.5t43 204q0 176 -99.5 274.5t-266.5 98.5q-129 0 -245.5 -74.5t-186.5 -198t-70 -260.5q0 -176 100 -274t267 -98zM569 -25q-206 0 -335.5 130.5t-129.5 332.5q0 122 50.5 237.5t134 202
t199 139t237.5 52.5q206 0 335.5 -130.5t129.5 -332.5q0 -124 -52 -241t-137 -202t-199 -136.5t-233 -51.5z" />
    <glyph glyph-name="uni1ECE" unicode="&#x1ece;" 
d="M1100 1565l47 149q62 4 109 30t61 62q11 31 -5 51.5t-57 20.5q-61 0 -145 -70q-6 3 -9.5 5.5t-5 4t-5.5 6t-9 9.5q-2 1 -9.5 6t-13 10t-9.5 9q106 106 239 106q81 0 114.5 -45t8.5 -113q-44 -117 -209 -159q-12 -39 -31 -82h-71zM815 70q146 0 280 65.5t228.5 172.5
t150.5 247.5t56 286.5q0 223 -142 371.5t-366 148.5q-146 0 -280 -65.5t-228.5 -172.5t-150.5 -247.5t-56 -286.5q0 -223 142 -371.5t366 -148.5zM815 -27q-132 0 -248 48.5t-196.5 131t-127 196t-46.5 241.5q0 166 65.5 324.5t175 278t263.5 192.5t321 73q176 0 318.5 -82
t221 -222.5t78.5 -311.5q0 -166 -65.5 -325t-175 -278.5t-263.5 -192.5t-321 -73z" />
    <glyph glyph-name="uni1ECF" unicode="&#x1ecf;" horiz-adv-x="1296" 
d="M784 1217l47 149q62 4 109 30t61 62q11 31 -4.5 51.5t-56.5 20.5q-61 0 -145 -70q-6 3 -9.5 5.5t-5 4t-5.5 6t-9 9.5q-3 2 -10 6.5t-13 9t-10 8.5q53 53 116.5 80t123.5 27q81 0 114.5 -45t8.5 -113q-44 -118 -209 -160q-11 -36 -31 -81h-72zM580 70q94 0 185.5 43
t160.5 114.5t112 170.5t43 204q0 176 -99.5 274.5t-266.5 98.5q-129 0 -245.5 -74.5t-186.5 -198t-70 -260.5q0 -176 100 -274t267 -98zM569 -25q-206 0 -335.5 130.5t-129.5 332.5q0 122 50.5 237.5t134 202t199 139t237.5 52.5q206 0 335.5 -130.5t129.5 -332.5
q0 -124 -52 -241t-137 -202t-199 -136.5t-233 -51.5z" />
    <glyph glyph-name="uni1ED0" unicode="&#x1ed0;" 
d="M1341 1761l254 273l127 -62l-276 -211h-105zM860 1567l273 250h81l138 -250h-90l-107 139l-197 -139h-98zM815 70q146 0 280 65.5t228.5 172.5t150.5 247.5t56 286.5q0 223 -142 371.5t-366 148.5q-146 0 -280 -65.5t-228.5 -172.5t-150.5 -247.5t-56 -286.5
q0 -223 142 -371.5t366 -148.5zM815 -27q-132 0 -248 48.5t-196.5 131t-127 196t-46.5 241.5q0 166 65.5 324.5t175 278t263.5 192.5t321 73q176 0 318.5 -82t221 -222.5t78.5 -311.5q0 -166 -65.5 -325t-175 -278.5t-263.5 -192.5t-321 -73z" />
    <glyph glyph-name="uni1ED1" unicode="&#x1ed1;" horiz-adv-x="1296" 
d="M1051 1415l254 273l127 -62l-277 -211h-104zM569 1219l273 249h82l137 -249h-90l-107 139l-196 -139h-99zM580 70q94 0 185.5 43t160.5 114.5t112 170.5t43 204q0 176 -99.5 274.5t-266.5 98.5q-129 0 -245.5 -74.5t-186.5 -198t-70 -260.5q0 -176 100 -274t267 -98z
M569 -25q-206 0 -335.5 130.5t-129.5 332.5q0 122 50.5 237.5t134 202t199 139t237.5 52.5q206 0 335.5 -130.5t129.5 -332.5q0 -124 -52 -241t-137 -202t-199 -136.5t-233 -51.5z" />
    <glyph glyph-name="uni1ED2" unicode="&#x1ed2;" 
d="M1382 1761l-161 211l127 62l106 -273h-72zM860 1567l273 250h81l138 -250h-90l-107 139l-197 -139h-98zM815 70q146 0 280 65.5t228.5 172.5t150.5 247.5t56 286.5q0 223 -142 371.5t-366 148.5q-146 0 -280 -65.5t-228.5 -172.5t-150.5 -247.5t-56 -286.5
q0 -223 142 -371.5t366 -148.5zM815 -27q-132 0 -248 48.5t-196.5 131t-127 196t-46.5 241.5q0 166 65.5 324.5t175 278t263.5 192.5t321 73q176 0 318.5 -82t221 -222.5t78.5 -311.5q0 -166 -65.5 -325t-175 -278.5t-263.5 -192.5t-321 -73z" />
    <glyph glyph-name="uni1ED3" unicode="&#x1ed3;" horiz-adv-x="1296" 
d="M1092 1413l-162 211l127 62l106 -273h-71zM569 1219l273 249h82l137 -249h-90l-107 139l-196 -139h-99zM580 70q94 0 185.5 43t160.5 114.5t112 170.5t43 204q0 176 -99.5 274.5t-266.5 98.5q-129 0 -245.5 -74.5t-186.5 -198t-70 -260.5q0 -176 100 -274t267 -98z
M569 -25q-206 0 -335.5 130.5t-129.5 332.5q0 122 50.5 237.5t134 202t199 139t237.5 52.5q206 0 335.5 -130.5t129.5 -332.5q0 -124 -52 -241t-137 -202t-199 -136.5t-233 -51.5z" />
    <glyph glyph-name="uni1ED4" unicode="&#x1ed4;" 
d="M1321 1761l45 135q56 4 99 28.5t55 55.5q11 27 -4 46.5t-52 19.5q-54 0 -133 -64q-7 4 -10 6t-6.5 7t-9.5 10q-2 2 -13 9.5t-16 13.5q93 96 219 96q72 0 103 -41t8 -103q-43 -111 -191 -143q-9 -29 -26 -76h-68zM860 1567l273 250h81l138 -250h-90l-107 139l-197 -139
h-98zM815 70q146 0 280 65.5t228.5 172.5t150.5 247.5t56 286.5q0 223 -142 371.5t-366 148.5q-146 0 -280 -65.5t-228.5 -172.5t-150.5 -247.5t-56 -286.5q0 -223 142 -371.5t366 -148.5zM815 -27q-132 0 -248 48.5t-196.5 131t-127 196t-46.5 241.5q0 166 65.5 324.5
t175 278t263.5 192.5t321 73q176 0 318.5 -82t221 -222.5t78.5 -311.5q0 -166 -65.5 -325t-175 -278.5t-263.5 -192.5t-321 -73z" />
    <glyph glyph-name="uni1ED5" unicode="&#x1ed5;" horiz-adv-x="1296" 
d="M1030 1413l45 135q56 4 99 28.5t55 55.5q11 27 -3.5 46.5t-51.5 19.5q-55 0 -134 -64q-7 4 -10 6t-6.5 7t-9.5 10q-2 2 -13 9t-16 13q94 97 219 97q72 0 103 -41t8 -103q-43 -111 -191 -143q-9 -29 -26 -76h-68zM569 1219l273 249h82l137 -249h-90l-107 139l-196 -139
h-99zM580 70q94 0 185.5 43t160.5 114.5t112 170.5t43 204q0 176 -99.5 274.5t-266.5 98.5q-129 0 -245.5 -74.5t-186.5 -198t-70 -260.5q0 -176 100 -274t267 -98zM569 -25q-206 0 -335.5 130.5t-129.5 332.5q0 122 50.5 237.5t134 202t199 139t237.5 52.5
q206 0 335.5 -130.5t129.5 -332.5q0 -124 -52 -241t-137 -202t-199 -136.5t-233 -51.5z" />
    <glyph glyph-name="uni1ED6" unicode="&#x1ed6;" 
d="M860 1567l273 250h81l138 -250h-90l-107 139l-197 -139h-98zM815 70q146 0 280 65.5t228.5 172.5t150.5 247.5t56 286.5q0 223 -142 371.5t-366 148.5q-146 0 -280 -65.5t-228.5 -172.5t-150.5 -247.5t-56 -286.5q0 -223 142 -371.5t366 -148.5zM815 -27
q-132 0 -248 48.5t-196.5 131t-127 196t-46.5 241.5q0 166 65.5 324.5t175 278t263.5 192.5t321 73q176 0 318.5 -82t221 -222.5t78.5 -311.5q0 -166 -65.5 -325t-175 -278.5t-263.5 -192.5t-321 -73zM985 1886l-67 25q46 82 90.5 121t99.5 39q11 0 20 -1t19.5 -5t16 -6
t17.5 -10l15 -10t18.5 -14t18.5 -14q25 -22 33.5 -29.5t22 -13.5t28.5 -6q30 0 53.5 22.5t59.5 77.5l67 -24q-46 -82 -90.5 -121t-99.5 -39q-14 0 -26.5 2.5t-19.5 4.5t-19 10t-15.5 10.5t-18 15.5t-18.5 16q-6 5 -17 14t-15 12.5t-12 9.5t-12.5 8t-11 5t-12 4t-12.5 1
q-30 0 -53.5 -23.5t-59.5 -81.5z" />
    <glyph glyph-name="uni1ED7" unicode="&#x1ed7;" horiz-adv-x="1296" 
d="M569 1219l273 249h82l137 -249h-90l-107 139l-196 -139h-99zM580 70q94 0 185.5 43t160.5 114.5t112 170.5t43 204q0 176 -99.5 274.5t-266.5 98.5q-129 0 -245.5 -74.5t-186.5 -198t-70 -260.5q0 -176 100 -274t267 -98zM569 -25q-206 0 -335.5 130.5t-129.5 332.5
q0 122 50.5 237.5t134 202t199 139t237.5 52.5q206 0 335.5 -130.5t129.5 -332.5q0 -124 -52 -241t-137 -202t-199 -136.5t-233 -51.5zM694 1536l-67 25q46 82 90.5 120.5t99.5 38.5q8 0 15.5 -0.5t15.5 -3t13.5 -4t13.5 -6t12 -6.5t13.5 -8.5t12.5 -8.5t14.5 -11t14.5 -11
q25 -22 33.5 -29.5t22 -13.5t28.5 -6q30 0 53.5 22.5t59.5 77.5l67 -24q-46 -82 -90.5 -121t-99.5 -39q-14 0 -26.5 2.5t-19.5 4.5t-19 10t-15.5 10.5t-18 15.5t-18.5 16q-5 4 -15 12.5t-13.5 11t-11 8.5t-11 8t-10 5.5t-10.5 4.5t-9.5 2t-11.5 1q-30 0 -53.5 -23.5
t-59.5 -80.5z" />
    <glyph glyph-name="uni1ED8" unicode="&#x1ed8;" 
d="M618 -365l56 193h104l-55 -193h-105zM860 1567l273 250h81l138 -250h-90l-107 139l-197 -139h-98zM815 70q146 0 280 65.5t228.5 172.5t150.5 247.5t56 286.5q0 223 -142 371.5t-366 148.5q-146 0 -280 -65.5t-228.5 -172.5t-150.5 -247.5t-56 -286.5q0 -223 142 -371.5
t366 -148.5zM815 -27q-132 0 -248 48.5t-196.5 131t-127 196t-46.5 241.5q0 166 65.5 324.5t175 278t263.5 192.5t321 73q176 0 318.5 -82t221 -222.5t78.5 -311.5q0 -166 -65.5 -325t-175 -278.5t-263.5 -192.5t-321 -73z" />
    <glyph glyph-name="uni1ED9" unicode="&#x1ed9;" horiz-adv-x="1296" 
d="M381 -365l55 193h105l-56 -193h-104zM569 1219l273 249h82l137 -249h-90l-107 139l-196 -139h-99zM580 70q94 0 185.5 43t160.5 114.5t112 170.5t43 204q0 176 -99.5 274.5t-266.5 98.5q-129 0 -245.5 -74.5t-186.5 -198t-70 -260.5q0 -176 100 -274t267 -98zM569 -25
q-206 0 -335.5 130.5t-129.5 332.5q0 122 50.5 237.5t134 202t199 139t237.5 52.5q206 0 335.5 -130.5t129.5 -332.5q0 -124 -52 -241t-137 -202t-199 -136.5t-233 -51.5z" />
    <glyph glyph-name="uni1EDA" unicode="&#x1eda;" 
d="M961 1567l253 272l127 -61l-276 -211h-104zM815 -27q-132 0 -248 48.5t-196.5 131t-127 196t-46.5 241.5q0 166 65.5 324.5t175 278t263.5 192.5t321 73q135 0 248 -49q30 -11 61 -31l2 4q96 5 142 28t63 81q10 33 10.5 60t-6.5 91h111q12 -91 -8 -159
q-27 -100 -111 -148q-44 -24 -90 -35q13 -9 22 -22q83 -83 128.5 -195.5t45.5 -240.5q0 -166 -65.5 -325t-175 -278.5t-263.5 -192.5t-321 -73zM815 70q146 0 280 65.5t228.5 172.5t150.5 247.5t56 286.5q0 223 -142 371.5t-366 148.5q-146 0 -280 -65.5t-228.5 -172.5
t-150.5 -247.5t-56 -286.5q0 -223 142 -371.5t366 -148.5z" />
    <glyph glyph-name="uni1EDB" unicode="&#x1edb;" horiz-adv-x="1296" 
d="M682 1219l254 272l127 -61l-277 -211h-104zM569 -25q-206 0 -335.5 130.5t-129.5 332.5q0 122 50.5 237.5t134 202t199 139t237.5 52.5q104 0 188 -35q36 -16 52 -24l2 2q96 5 141.5 27.5t62.5 80.5q10 34 10.5 60.5t-5.5 91.5h110q12 -91 -8 -160q-26 -99 -111 -147
q-43 -26 -96 -37q54 -60 84 -137q35 -84 35 -185q0 -124 -52 -241t-137 -202t-199 -136.5t-233 -51.5zM580 70q94 0 185.5 43t160.5 114.5t112 170.5t43 204q0 176 -99.5 274.5t-266.5 98.5q-129 0 -245.5 -74.5t-186.5 -198t-70 -260.5q0 -176 100 -274t267 -98z" />
    <glyph glyph-name="uni1EDC" unicode="&#x1edc;" 
d="M1118 1567l-162 211l127 61l107 -272h-72zM815 -27q-132 0 -248 48.5t-196.5 131t-127 196t-46.5 241.5q0 166 65.5 324.5t175 278t263.5 192.5t321 73q135 0 248 -49q30 -11 61 -31l2 4q96 5 142 28t63 81q10 33 10.5 60t-6.5 91h111q12 -91 -8 -159q-27 -100 -111 -148
q-44 -24 -90 -35q13 -9 22 -22q83 -83 128.5 -195.5t45.5 -240.5q0 -166 -65.5 -325t-175 -278.5t-263.5 -192.5t-321 -73zM815 70q146 0 280 65.5t228.5 172.5t150.5 247.5t56 286.5q0 223 -142 371.5t-366 148.5q-146 0 -280 -65.5t-228.5 -172.5t-150.5 -247.5
t-56 -286.5q0 -223 142 -371.5t366 -148.5z" />
    <glyph glyph-name="uni1EDD" unicode="&#x1edd;" horiz-adv-x="1296" 
d="M774 1219l-162 211l127 61l107 -272h-72zM569 -25q-206 0 -335.5 130.5t-129.5 332.5q0 122 50.5 237.5t134 202t199 139t237.5 52.5q104 0 188 -35q36 -16 52 -24l2 2q96 5 141.5 27.5t62.5 80.5q10 34 10.5 60.5t-5.5 91.5h110q12 -91 -8 -160q-26 -99 -111 -147
q-43 -26 -96 -37q54 -60 84 -137q35 -84 35 -185q0 -124 -52 -241t-137 -202t-199 -136.5t-233 -51.5zM580 70q94 0 185.5 43t160.5 114.5t112 170.5t43 204q0 176 -99.5 274.5t-266.5 98.5q-129 0 -245.5 -74.5t-186.5 -198t-70 -260.5q0 -176 100 -274t267 -98z" />
    <glyph glyph-name="uni1EDE" unicode="&#x1ede;" 
d="M1100 1565l47 149q62 4 109 30t61 62q11 31 -5 51.5t-57 20.5q-61 0 -145 -70q-6 3 -9.5 5.5t-5 4t-5.5 6t-9 9.5q-2 1 -9.5 6t-13 10t-9.5 9q106 106 239 106q81 0 114.5 -45t8.5 -113q-44 -117 -209 -159q-12 -39 -31 -82h-71zM815 -27q-132 0 -248 48.5t-196.5 131
t-127 196t-46.5 241.5q0 166 65.5 324.5t175 278t263.5 192.5t321 73q135 0 248 -49q30 -11 61 -31l2 4q96 5 142 28t63 81q10 33 10.5 60t-6.5 91h111q12 -91 -8 -159q-27 -100 -111 -148q-44 -24 -90 -35q13 -9 22 -22q83 -83 128.5 -195.5t45.5 -240.5q0 -166 -65.5 -325
t-175 -278.5t-263.5 -192.5t-321 -73zM815 70q146 0 280 65.5t228.5 172.5t150.5 247.5t56 286.5q0 223 -142 371.5t-366 148.5q-146 0 -280 -65.5t-228.5 -172.5t-150.5 -247.5t-56 -286.5q0 -223 142 -371.5t366 -148.5z" />
    <glyph glyph-name="uni1EDF" unicode="&#x1edf;" horiz-adv-x="1296" 
d="M784 1217l47 149q62 4 109 30t61 62q11 31 -4.5 51.5t-56.5 20.5q-61 0 -145 -70q-6 3 -9.5 5.5t-5 4t-5.5 6t-9 9.5q-3 2 -10 6.5t-13 9t-10 8.5q53 53 116.5 80t123.5 27q81 0 114.5 -45t8.5 -113q-44 -118 -209 -160q-11 -36 -31 -81h-72zM569 -25
q-206 0 -335.5 130.5t-129.5 332.5q0 122 50.5 237.5t134 202t199 139t237.5 52.5q104 0 188 -35q36 -16 52 -24l2 2q96 5 141.5 27.5t62.5 80.5q10 34 10.5 60.5t-5.5 91.5h110q12 -91 -8 -160q-26 -99 -111 -147q-43 -26 -96 -37q54 -60 84 -137q35 -84 35 -185
q0 -124 -52 -241t-137 -202t-199 -136.5t-233 -51.5zM580 70q94 0 185.5 43t160.5 114.5t112 170.5t43 204q0 176 -99.5 274.5t-266.5 98.5q-129 0 -245.5 -74.5t-186.5 -198t-70 -260.5q0 -176 100 -274t267 -98z" />
    <glyph glyph-name="uni1EE0" unicode="&#x1ee0;" 
d="M903 1563l-69 26q46 94 90 136t102 42q24 0 46.5 -10t34.5 -19.5t44 -37.5q45 -43 59 -49q13 -6 29 -6q29 0 52 25.5t59 86.5l69 -26q-46 -94 -90 -136.5t-102 -42.5q-12 0 -21.5 1t-20 5.5t-15.5 6t-16 10.5t-13.5 11t-16 15.5l-16.5 16.5q-48 46 -64 54q-14 7 -30 7
q-28 0 -51 -26t-60 -90zM815 -27q-132 0 -248 48.5t-196.5 131t-127 196t-46.5 241.5q0 166 65.5 324.5t175 278t263.5 192.5t321 73q135 0 248 -49q30 -11 61 -31l2 4q96 5 142 28t63 81q10 33 10.5 60t-6.5 91h111q12 -91 -8 -159q-27 -100 -111 -148q-44 -24 -90 -35
q13 -9 22 -22q83 -83 128.5 -195.5t45.5 -240.5q0 -166 -65.5 -325t-175 -278.5t-263.5 -192.5t-321 -73zM815 70q146 0 280 65.5t228.5 172.5t150.5 247.5t56 286.5q0 223 -142 371.5t-366 148.5q-146 0 -280 -65.5t-228.5 -172.5t-150.5 -247.5t-56 -286.5
q0 -223 142 -371.5t366 -148.5z" />
    <glyph glyph-name="uni1EE1" unicode="&#x1ee1;" horiz-adv-x="1296" 
d="M598 1229l-70 26q46 94 90.5 136.5t102.5 42.5q24 0 47 -10.5t34 -19.5t44 -38q45 -43 59 -49q13 -6 29 -6q29 0 51.5 25t58.5 87l70 -26q-46 -94 -90 -136t-102 -42q-11 0 -20.5 1.5t-16 2.5t-15.5 6t-12.5 6.5t-13.5 10t-12 10.5t-14.5 14t-14.5 14q-4 4 -14 13.5
t-13.5 12.5t-11.5 10.5t-11.5 9.5t-10 6.5t-11 5.5t-10.5 2.5t-12 1.5q-28 0 -51 -26.5t-60 -90.5zM569 -25q-206 0 -335.5 130.5t-129.5 332.5q0 122 50.5 237.5t134 202t199 139t237.5 52.5q104 0 188 -35q36 -16 52 -24l2 2q96 5 141.5 27.5t62.5 80.5q10 34 10.5 60.5
t-5.5 91.5h110q12 -91 -8 -160q-26 -99 -111 -147q-43 -26 -96 -37q54 -60 84 -137q35 -84 35 -185q0 -124 -52 -241t-137 -202t-199 -136.5t-233 -51.5zM580 70q94 0 185.5 43t160.5 114.5t112 170.5t43 204q0 176 -99.5 274.5t-266.5 98.5q-129 0 -245.5 -74.5
t-186.5 -198t-70 -260.5q0 -176 100 -274t267 -98z" />
    <glyph glyph-name="uni1EE2" unicode="&#x1ee2;" 
d="M618 -365l56 193h104l-55 -193h-105zM815 -27q-132 0 -248 48.5t-196.5 131t-127 196t-46.5 241.5q0 166 65.5 324.5t175 278t263.5 192.5t321 73q135 0 248 -49q30 -11 61 -31l2 4q96 5 142 28t63 81q10 33 10.5 60t-6.5 91h111q12 -91 -8 -159q-27 -100 -111 -148
q-44 -24 -90 -35q13 -9 22 -22q83 -83 128.5 -195.5t45.5 -240.5q0 -166 -65.5 -325t-175 -278.5t-263.5 -192.5t-321 -73zM815 70q146 0 280 65.5t228.5 172.5t150.5 247.5t56 286.5q0 223 -142 371.5t-366 148.5q-146 0 -280 -65.5t-228.5 -172.5t-150.5 -247.5
t-56 -286.5q0 -223 142 -371.5t366 -148.5z" />
    <glyph glyph-name="uni1EE3" unicode="&#x1ee3;" horiz-adv-x="1296" 
d="M381 -365l55 193h105l-56 -193h-104zM569 -25q-206 0 -335.5 130.5t-129.5 332.5q0 122 50.5 237.5t134 202t199 139t237.5 52.5q104 0 188 -35q36 -16 52 -24l2 2q96 5 141.5 27.5t62.5 80.5q10 34 10.5 60.5t-5.5 91.5h110q12 -91 -8 -160q-26 -99 -111 -147
q-43 -26 -96 -37q54 -60 84 -137q35 -84 35 -185q0 -124 -52 -241t-137 -202t-199 -136.5t-233 -51.5zM580 70q94 0 185.5 43t160.5 114.5t112 170.5t43 204q0 176 -99.5 274.5t-266.5 98.5q-129 0 -245.5 -74.5t-186.5 -198t-70 -260.5q0 -176 100 -274t267 -98z" />
    <glyph glyph-name="uni1EE4" unicode="&#x1ee4;" horiz-adv-x="1548" 
d="M483 -365l56 193h104l-55 -193h-105zM713 -23q-127 0 -226.5 34.5t-162 96t-95 143t-32.5 177.5q0 109 28 221l209 785h107l-222 -834q-18 -74 -18 -164q0 -162 106.5 -262t313.5 -100q203 0 350 147q134 134 201 381l223 832h107l-230 -854q-72 -267 -227 -422
q-181 -181 -432 -181z" />
    <glyph glyph-name="uni1EE5" unicode="&#x1ee5;" horiz-adv-x="1247" 
d="M330 -365l55 193h104l-55 -193h-104zM473 -25q-156 0 -249 90t-93 242q0 67 23 148l155 589h101l-160 -598q-17 -66 -17 -129q0 -117 72 -184t197 -67q89 0 178 49t159 139.5t99 200.5l158 589h100l-278 -1044h-101l51 195q-86 -105 -179 -162.5t-216 -57.5z" />
    <glyph glyph-name="uni1EE6" unicode="&#x1ee6;" horiz-adv-x="1548" 
d="M1008 1565l47 149q62 4 109 30t61 62q11 31 -5 51.5t-57 20.5q-61 0 -145 -70q-6 3 -9.5 5.5t-5 4t-5.5 6t-9 9.5q-33 24 -33 25q106 106 240 106q81 0 114.5 -45t8.5 -113q-44 -117 -209 -159q-12 -39 -31 -82h-71zM713 -23q-127 0 -226.5 34.5t-162 96t-95 143
t-32.5 177.5q0 109 28 221l209 785h107l-222 -834q-18 -74 -18 -164q0 -162 106.5 -262t313.5 -100q203 0 350 147q134 134 201 381l223 832h107l-230 -854q-72 -267 -227 -422q-181 -181 -432 -181z" />
    <glyph glyph-name="uni1EE7" unicode="&#x1ee7;" horiz-adv-x="1247" 
d="M737 1217l47 149q62 4 109 30t61 62q11 31 -4.5 51.5t-56.5 20.5q-61 0 -145 -70q-6 3 -9.5 5.5t-5 4t-5.5 6t-9 9.5q-3 2 -10 6.5t-13 9t-10 8.5q53 53 116.5 80t123.5 27q81 0 114.5 -45t8.5 -113q-44 -118 -209 -160q-11 -36 -31 -81h-72zM473 -25q-156 0 -249 90
t-93 242q0 67 23 148l155 589h101l-160 -598q-17 -66 -17 -129q0 -117 72 -184t197 -67q89 0 178 49t159 139.5t99 200.5l158 589h100l-278 -1044h-101l51 195q-86 -105 -179 -162.5t-216 -57.5z" />
    <glyph glyph-name="uni1EE8" unicode="&#x1ee8;" horiz-adv-x="1611" 
d="M899 1567l254 272l127 -61l-276 -211h-105zM713 -23q-127 0 -226.5 34.5t-162 96t-95 143t-32.5 177.5q0 109 28 221l209 785h107l-222 -834q-18 -74 -18 -164q0 -162 106.5 -262t313.5 -100q203 0 350 147q134 134 201 381l223 832h96q38 7 58 18q49 21 65 82
q10 33 10.5 60.5t-6.5 91.5h111q12 -91 -8 -160q-27 -100 -111 -148q-55 -31 -135 -43l-203 -755q-72 -267 -227 -422q-181 -181 -432 -181z" />
    <glyph glyph-name="uni1EE9" unicode="&#x1ee9;" horiz-adv-x="1265" 
d="M676 1219l254 272l127 -61l-277 -211h-104zM473 -25q-156 0 -249 90t-93 242q0 67 23 148l155 589h101l-160 -598q-17 -66 -17 -129q0 -117 72 -184t197 -67q89 0 178 49t159 139.5t99 200.5l158 589h82q42 6 69 21q50 21 66 82q10 33 10.5 60t-6.5 91h110
q12 -91 -8 -159q-27 -101 -110 -148q-52 -32 -140 -45l-251 -946h-101l51 195q-86 -105 -179 -162.5t-216 -57.5z" />
    <glyph glyph-name="uni1EEA" unicode="&#x1eea;" horiz-adv-x="1611" 
d="M1036 1567l-162 211l127 61l107 -272h-72zM713 -23q-127 0 -226.5 34.5t-162 96t-95 143t-32.5 177.5q0 109 28 221l209 785h107l-222 -834q-18 -74 -18 -164q0 -162 106.5 -262t313.5 -100q203 0 350 147q134 134 201 381l223 832h96q38 7 58 18q49 21 65 82
q10 33 10.5 60.5t-6.5 91.5h111q12 -91 -8 -160q-27 -100 -111 -148q-55 -31 -135 -43l-203 -755q-72 -267 -227 -422q-181 -181 -432 -181z" />
    <glyph glyph-name="uni1EEB" unicode="&#x1eeb;" horiz-adv-x="1265" 
d="M758 1219l-162 211l127 61l106 -272h-71zM473 -25q-156 0 -249 90t-93 242q0 67 23 148l155 589h101l-160 -598q-17 -66 -17 -129q0 -117 72 -184t197 -67q89 0 178 49t159 139.5t99 200.5l158 589h82q42 6 69 21q50 21 66 82q10 33 10.5 60t-6.5 91h110q12 -91 -8 -159
q-27 -101 -110 -148q-52 -32 -140 -45l-251 -946h-101l51 195q-86 -105 -179 -162.5t-216 -57.5z" />
    <glyph glyph-name="uni1EEC" unicode="&#x1eec;" horiz-adv-x="1611" 
d="M1008 1565l47 149q62 4 109 30t61 62q11 31 -5 51.5t-57 20.5q-61 0 -145 -70q-6 3 -9.5 5.5t-5 4t-5.5 6t-9 9.5q-33 24 -33 25q106 106 240 106q81 0 114.5 -45t8.5 -113q-44 -117 -209 -159q-12 -39 -31 -82h-71zM713 -23q-127 0 -226.5 34.5t-162 96t-95 143
t-32.5 177.5q0 109 28 221l209 785h107l-222 -834q-18 -74 -18 -164q0 -162 106.5 -262t313.5 -100q203 0 350 147q134 134 201 381l223 832h96q38 7 58 18q49 21 65 82q10 33 10.5 60.5t-6.5 91.5h111q12 -91 -8 -160q-27 -100 -111 -148q-55 -31 -135 -43l-203 -755
q-72 -267 -227 -422q-181 -181 -432 -181z" />
    <glyph glyph-name="uni1EED" unicode="&#x1eed;" horiz-adv-x="1265" 
d="M737 1217l47 149q62 4 109 30t61 62q11 31 -4.5 51.5t-56.5 20.5q-61 0 -145 -70q-6 3 -9.5 5.5t-5 4t-5.5 6t-9 9.5q-3 2 -10 6.5t-13 9t-10 8.5q53 53 116.5 80t123.5 27q81 0 114.5 -45t8.5 -113q-44 -118 -209 -160q-11 -36 -31 -81h-72zM473 -25q-156 0 -249 90
t-93 242q0 67 23 148l155 589h101l-160 -598q-17 -66 -17 -129q0 -117 72 -184t197 -67q89 0 178 49t159 139.5t99 200.5l158 589h82q42 6 69 21q50 21 66 82q10 33 10.5 60t-6.5 91h110q12 -91 -8 -159q-27 -101 -110 -148q-52 -32 -140 -45l-251 -946h-101l51 195
q-86 -105 -179 -162.5t-216 -57.5z" />
    <glyph glyph-name="uni1EEE" unicode="&#x1eee;" horiz-adv-x="1611" 
d="M831 1563l-69 26q46 94 90 136t102 42q24 0 46.5 -10t34.5 -19.5t44 -37.5q45 -43 59 -49q13 -6 29 -6q29 0 52 25.5t59 86.5l70 -26q-46 -94 -90.5 -136.5t-102.5 -42.5q-12 0 -21.5 1t-20 5.5t-15.5 6t-16 10.5t-13.5 11t-16 15.5l-16.5 16.5q-48 46 -64 54
q-14 7 -30 7q-28 0 -51 -26t-60 -90zM713 -23q-127 0 -226.5 34.5t-162 96t-95 143t-32.5 177.5q0 109 28 221l209 785h107l-222 -834q-18 -74 -18 -164q0 -162 106.5 -262t313.5 -100q203 0 350 147q134 134 201 381l223 832h96q38 7 58 18q49 21 65 82q10 33 10.5 60.5
t-6.5 91.5h111q12 -91 -8 -160q-27 -100 -111 -148q-55 -31 -135 -43l-203 -755q-72 -267 -227 -422q-181 -181 -432 -181z" />
    <glyph glyph-name="uni1EEF" unicode="&#x1eef;" horiz-adv-x="1265" 
d="M582 1229l-70 26q46 94 90.5 136.5t102.5 42.5q8 0 15.5 -0.5t15.5 -3.5t13 -4.5t13.5 -7t12 -7t13 -10t12 -10.5t14.5 -12.5t15 -12.5q26 -25 35.5 -33t23.5 -15t30 -7q29 0 51.5 25t58.5 87l70 -26q-46 -93 -90 -135.5t-103 -42.5q-11 0 -20.5 1.5t-16 2.5t-15.5 6
t-12.5 6.5t-13.5 10t-12 10.5t-14.5 14t-14.5 14q-4 4 -14 13.5t-13.5 12.5t-11.5 10.5t-11.5 9.5t-10 6.5t-11 5.5t-10.5 2.5t-12 1.5q-28 0 -50 -26t-60 -91zM473 -25q-156 0 -249 90t-93 242q0 67 23 148l155 589h101l-160 -598q-17 -66 -17 -129q0 -117 72 -184t197 -67
q89 0 178 49t159 139.5t99 200.5l158 589h82q42 6 69 21q50 21 66 82q10 33 10.5 60t-6.5 91h110q12 -91 -8 -159q-27 -101 -110 -148q-52 -32 -140 -45l-251 -946h-101l51 195q-86 -105 -179 -162.5t-216 -57.5z" />
    <glyph glyph-name="uni1EF0" unicode="&#x1ef0;" horiz-adv-x="1611" 
d="M483 -365l56 193h104l-55 -193h-105zM713 -23q-127 0 -226.5 34.5t-162 96t-95 143t-32.5 177.5q0 109 28 221l209 785h107l-222 -834q-18 -74 -18 -164q0 -162 106.5 -262t313.5 -100q203 0 350 147q134 134 201 381l223 832h96q38 7 58 18q49 21 65 82q10 33 10.5 60.5
t-6.5 91.5h111q12 -91 -8 -160q-27 -100 -111 -148q-55 -31 -135 -43l-203 -755q-72 -267 -227 -422q-181 -181 -432 -181z" />
    <glyph glyph-name="uni1EF1" unicode="&#x1ef1;" horiz-adv-x="1265" 
d="M330 -365l55 193h104l-55 -193h-104zM473 -25q-156 0 -249 90t-93 242q0 67 23 148l155 589h101l-160 -598q-17 -66 -17 -129q0 -117 72 -184t197 -67q89 0 178 49t159 139.5t99 200.5l158 589h82q42 6 69 21q50 21 66 82q10 33 10.5 60t-6.5 91h110q12 -91 -8 -159
q-27 -101 -110 -148q-52 -32 -140 -45l-251 -946h-101l51 195q-86 -105 -179 -162.5t-216 -57.5z" />
    <glyph glyph-name="Ygrave" unicode="&#x1ef2;" horiz-adv-x="1368" 
d="M905 1567l-162 211l127 61l107 -272h-72zM479 0l156 582l-375 852h117l330 -770l745 770h143l-862 -879l-147 -555h-107z" />
    <glyph glyph-name="ygrave" unicode="&#x1ef3;" horiz-adv-x="1163" 
d="M702 1219l-161 211l127 61l106 -272h-72zM41 -334q-117 0 -221 72l55 82q32 -26 84 -43t94 -17q83 0 162 55.5t172 190.5l-213 1038h107l182 -933l629 933h120l-743 -1081q-113 -161 -213 -229t-215 -68z" />
    <glyph glyph-name="uni1EF4" unicode="&#x1ef4;" horiz-adv-x="1368" 
d="M385 -365l55 193h105l-56 -193h-104zM479 0l156 582l-375 852h117l330 -770l745 770h143l-862 -879l-147 -555h-107z" />
    <glyph glyph-name="uni1EF5" unicode="&#x1ef5;" horiz-adv-x="1163" 
d="M485 -365l56 193h104l-55 -193h-105zM41 -334q-117 0 -221 72l55 82q32 -26 84 -43t94 -17q83 0 162 55.5t172 190.5l-213 1038h107l182 -933l629 933h120l-743 -1081q-113 -161 -213 -229t-215 -68z" />
    <glyph glyph-name="uni1EF6" unicode="&#x1ef6;" horiz-adv-x="1368" 
d="M879 1565l47 149q62 4 109 30t61 62q11 31 -5 51.5t-57 20.5q-61 0 -145 -70q-6 3 -9.5 5.5t-5 4t-5.5 6t-9 9.5q-2 2 -9.5 6.5t-13.5 9.5t-10 9q106 106 240 106q81 0 114.5 -45t8.5 -113q-44 -117 -209 -159q-12 -39 -31 -82h-71zM479 0l156 582l-375 852h117l330 -770
l745 770h143l-862 -879l-147 -555h-107z" />
    <glyph glyph-name="uni1EF7" unicode="&#x1ef7;" horiz-adv-x="1163" 
d="M651 1217l47 149q62 4 109 30t61 62q11 31 -4.5 51.5t-56.5 20.5q-61 0 -145 -70q-6 3 -9.5 5.5t-5 4t-5.5 6t-9 9.5q-3 2 -10 6.5t-13 9t-10 8.5q53 53 116.5 80t123.5 27q81 0 114.5 -45t8.5 -113q-44 -118 -209 -160q-11 -36 -31 -81h-72zM41 -334q-117 0 -221 72
l55 82q32 -26 84 -43t94 -17q83 0 162 55.5t172 190.5l-213 1038h107l182 -933l629 933h120l-743 -1081q-113 -161 -213 -229t-215 -68z" />
    <glyph glyph-name="uni1EF8" unicode="&#x1ef8;" horiz-adv-x="1368" 
d="M733 1563l-69 26q46 94 90 136t102 42q24 0 46.5 -10t34.5 -19.5t44 -37.5q45 -43 59 -49q13 -6 29 -6q29 0 52 25.5t59 86.5l69 -26q-46 -94 -90 -136.5t-102 -42.5q-12 0 -21.5 1t-20 5.5t-15.5 6t-16 10.5t-13.5 11t-16 15.5l-16.5 16.5q-48 46 -64 54q-14 7 -30 7
q-28 0 -51 -26t-60 -90zM479 0l156 582l-375 852h117l330 -770l745 770h143l-862 -879l-147 -555h-107z" />
    <glyph glyph-name="uni1EF9" unicode="&#x1ef9;" horiz-adv-x="1163" 
d="M510 1229l-70 26q46 94 90.5 136.5t102.5 42.5q24 0 47 -10.5t34 -19.5t44 -38q45 -43 59 -49q13 -6 29 -6q29 0 51.5 25t58.5 87l70 -26q-46 -94 -90 -136t-102 -42q-11 0 -20.5 1.5t-16 2.5t-15.5 6t-12.5 6.5t-13.5 10t-12 10.5t-14.5 14t-14.5 14q-4 4 -14 13.5
t-13.5 12.5t-11.5 10.5t-11.5 9.5t-10 6.5t-11 5.5t-10.5 2.5t-12 1.5q-28 0 -51 -26.5t-60 -90.5zM41 -334q-117 0 -221 72l55 82q32 -26 84 -43t94 -17q83 0 162 55.5t172 190.5l-213 1038h107l182 -933l629 933h120l-743 -1081q-113 -161 -213 -229t-215 -68z" />
    <glyph glyph-name="endash" unicode="&#x2013;" horiz-adv-x="1081" 
d="M152 555l28 107h795l-29 -107h-794z" />
    <glyph glyph-name="emdash" unicode="&#x2014;" horiz-adv-x="1839" 
d="M152 555l28 107h1553l-29 -107h-1552z" />
    <glyph glyph-name="quoteleft" unicode="&#x2018;" horiz-adv-x="473" 
d="M301 1051l41 151q29 105 81 158t155 82l14 -49q-75 -26 -114 -67t-50 -101h55l-47 -174h-135z" />
    <glyph glyph-name="quoteright" unicode="&#x2019;" horiz-adv-x="473" 
d="M283 1042l-15 50q75 26 114 67t50 101h-55l47 174h135l-41 -152q-33 -107 -83 -159t-152 -81z" />
    <glyph glyph-name="quotesinglbase" unicode="&#x201a;" horiz-adv-x="473" 
d="M-66 -217l-14 49q75 26 114 67t50 101h-55l47 174h135l-41 -151q-33 -107 -83.5 -159t-152.5 -81z" />
    <glyph glyph-name="quotedblleft" unicode="&#x201c;" horiz-adv-x="841" 
d="M299 1051l41 151q29 106 80.5 158.5t154.5 81.5l15 -49q-75 -26 -114 -67t-50 -101h55l-47 -174h-135zM668 1051l41 151q29 106 80.5 158.5t154.5 81.5l14 -49q-74 -26 -113 -66.5t-50 -101.5h55l-47 -174h-135z" />
    <glyph glyph-name="quotedblright" unicode="&#x201d;" horiz-adv-x="841" 
d="M260 1042l-14 50q75 26 114 67t50 101h-56l47 174h136l-41 -152q-33 -107 -83.5 -159t-152.5 -81zM629 1042l-15 50q75 26 114 67t50 101h-55l47 174h135l-41 -152q-33 -107 -83 -159t-152 -81z" />
    <glyph glyph-name="quotedblbase" unicode="&#x201e;" horiz-adv-x="843" 
d="M-66 -217l-14 49q75 26 114 67t50 101h-55l47 174h135l-41 -151q-33 -107 -83.5 -159t-152.5 -81zM305 -217l-14 49q75 26 114 67t50 101h-56l47 174h136l-41 -151q-33 -107 -83.5 -159t-152.5 -81z" />
    <glyph glyph-name="dagger" unicode="&#x2020;" horiz-adv-x="839" 
d="M328 487l166 586l-258 -14l24 92l250 -14l65 297h103l-94 -297l258 14l-25 -92l-254 14l-145 -586h-90z" />
    <glyph glyph-name="daggerdbl" unicode="&#x2021;" horiz-adv-x="880" 
d="M211 0l94 297l-258 -14l25 92l252 -15l86 357l104 356l-258 -14l25 92l249 -14l66 297h102l-94 -297l258 14l-24 -92l-254 14l-84 -356l-107 -357l260 15l-24 -92l-250 14l-66 -297h-102z" />
    <glyph glyph-name="bullet" unicode="&#x2022;" horiz-adv-x="962" 
d="M475 455q-95 0 -155 60t-60 163q0 125 87.5 217t205.5 92q95 0 155 -60t60 -163q0 -125 -87.5 -217t-205.5 -92z" />
    <glyph glyph-name="ellipsis" unicode="&#x2026;" horiz-adv-x="1398" 
d="M29 0l47 174h135l-47 -174h-135zM492 0l47 174h135l-47 -174h-135zM954 0l47 174h136l-47 -174h-136z" />
    <glyph glyph-name="perthousand" unicode="&#x2030;" horiz-adv-x="2463" 
d="M1212 74q76 0 142.5 52t103.5 132.5t37 165.5q0 100 -48.5 157.5t-139.5 57.5q-76 0 -142.5 -52t-103.5 -132.5t-37 -165.5q0 -100 48.5 -157.5t139.5 -57.5zM1995 74q76 0 142 52t103 132.5t37 165.5q0 100 -48.5 157.5t-139.5 57.5q-76 0 -142.5 -52t-103.5 -132.5
t-37 -165.5q0 -100 49 -157.5t140 -57.5zM479 797q76 0 142.5 52t103.5 132.5t37 165.5q0 100 -49 157.5t-140 57.5q-76 0 -142 -52t-103 -132.5t-37 -165.5q0 -100 48.5 -157.5t139.5 -57.5zM1204 -14q-123 0 -201.5 84t-78.5 209q0 114 51.5 217t142.5 167t197 64
q123 0 201.5 -84t78.5 -209q0 -114 -51.5 -217t-142.5 -167t-197 -64zM1987 -14q-123 0 -202 84t-79 209q0 114 51.5 217t142.5 167t197 64q123 0 202 -84t79 -209q0 -114 -51.5 -217t-142.5 -167t-197 -64zM133 0l1397 1434h123l-1397 -1434h-123zM471 709
q-123 0 -202 83.5t-79 208.5q0 114 51.5 217t143 167.5t197.5 64.5q123 0 201.5 -84t78.5 -209q0 -114 -51.5 -217t-142.5 -167t-197 -64z" />
    <glyph glyph-name="guilsinglleft" unicode="&#x2039;" horiz-adv-x="636" 
d="M305 86l-213 428l4 16l443 428l73 -57l-393 -393l170 -377z" />
    <glyph glyph-name="guilsinglright" unicode="&#x203a;" horiz-adv-x="636" 
d="M96 84l-73 57l393 394l-170 376l84 45l213 -428l-4 -16z" />
    <glyph glyph-name="fraction" unicode="&#x2044;" horiz-adv-x="1126" 
d="M-170 -201l1427 1753h121l-1427 -1753h-121z" />
    <glyph glyph-name="fraction" unicode="&#x2215;" horiz-adv-x="1126" 
d="M-170 -201l1427 1753h121l-1427 -1753h-121z" />
    <glyph glyph-name="trademark" unicode="&#x2122;" horiz-adv-x="1413" 
d="M315 803l160 561h-207l21 70h485l-20 -70h-207l-160 -561h-72zM737 803l181 631h65l147 -375l345 375h84l-181 -631h-71l145 504l-342 -365h-10l-146 365l-145 -504h-72z" />
    <glyph glyph-name="radical" unicode="&#x221a;" horiz-adv-x="1994" 
d="M113 0l256 952h-152l25 92h151l41 152q80 299 334 299q119 0 209 -49l-25 -90q-107 49 -188 49q-178 0 -236 -231l-34 -130h376l-24 -92h-377l-256 -952h-100zM854 0l256 952h-152l25 92h152l41 152q80 299 333 299q119 0 209 -49l-24 -90q-107 49 -189 49
q-174 0 -235 -231l-35 -130h377l-25 -92h-377l-256 -952h-100zM1548 0l402 1495h100l-401 -1495h-101z" />
    <glyph glyph-name="approxequal" unicode="&#x2248;" horiz-adv-x="1994" 
d="M1548 0l281 1044h100l-280 -1044h-101zM113 0l256 952h-152l25 92h151l41 152q80 299 334 299q119 0 209 -49l-25 -90q-107 49 -188 49q-178 0 -236 -231l-34 -130h376l-24 -92h-377l-256 -952h-100zM854 0l256 952h-152l25 92h152l41 152q80 299 333 299q119 0 209 -49
l-24 -90q-107 49 -189 49q-174 0 -235 -231l-35 -130h377l-25 -92h-377l-256 -952h-100zM1890 1317l37 137h125l-37 -137h-125z" />
    <glyph glyph-name="NUL" horiz-adv-x="0" 
 />
    <glyph glyph-name="CR" horiz-adv-x="614" 
 />
    <glyph glyph-name="apple" horiz-adv-x="1980" 
d="M854 131q0 -35 -25 -35q-24 0 -24 35q0 33 24 33q25 0 25 -33zM721 152v-21h-6q-17 0 -17 16q0 13 15 13q8 0 8 -8zM1133 162q9 0 0 -19q-9 19 0 19zM786 444l19 -71q0 -15 -8 -15h-11q-22 0 -37.5 20t-15.5 46q0 35 29 35h12q6 -1 6.5 -2t5.5 -13zM1466 383
q0 -27 -22 -27q-19 0 -35 24t-16 54q0 29 22 29q19 0 35 -24t16 -56zM573 410h-10q-16 0 -23.5 9t-7.5 21q0 19 17 19q15 0 18 -10zM803 786h-23q-26 0 -26 23q0 22 26 22h23v-45zM1401 1096q0 -27 -23 -27q-19 0 -35 24t-16 54q0 29 23 29q19 0 35 -24t16 -56zM557 1133
q-6 -9 -14 -9t-8 4q0 7 8 7q12 0 14 -2zM1159 1133q-6 -9 -14 -9t-8 4q0 7 8 7q12 0 14 -2zM360 1122h-10q-16 0 -23.5 9.5t-7.5 21.5q0 18 17 18q15 0 18 -10zM903 -180q0 26 -22 26q-23 0 -23 -24q0 -27 23 -27q22 0 22 25zM1638 -180q0 26 -22 26q-23 0 -23 -24
q0 -27 23 -27q22 0 22 25zM1155 -188l-10 24l-10 -24h20zM807 -170q0 17 -23 14v-26q23 0 23 12zM1075 -168q0 15 -22 12v-24q22 -3 22 12zM1241 -170q0 17 -22 14v-26q22 0 22 12zM633 94v4q-4 0 -6 2q-6 3 -6 11v41q0 5 6 8q2 2 6 2v4h-37v-4q4 0 6 -2q6 -6 6 -8v-19
q-4 0 -8 4l-16 17q-5 3 -2 6q2 2 4 2v4h-29v-4q4 0 6 -2q3 -1 5 -3t5 -3l21 -19l-27 -26q-1 -1 -4 -3.5t-4 -3.5t-3 -2t-3 -2v-4h35v4q-4 0 -6 2t2 9l16 16q4 4 8 4v-18q0 -5 -6 -11q-2 -2 -6 -2v-4h37zM745 94v4q-4 0 -6 2q-4 4 -4 9v41q0 6 4 10q2 2 6 2v4h-36
q-27 0 -27 -19q0 -9 18 -18l-14 -20l-8 -6l-4 -3l-4 -2v-4h22l15 25q5 8 14 8v-18q0 -3 -6 -9q-2 -2 -4 -2v-4h34zM870 131q0 37 -41 37t-41 -37q0 -39 41 -39t41 39zM983 162v4h-31v-4q2 0 4 -2q1 -1 -2 -8l-12 -19l-12 19q-4 4 0 8q2 2 6 2v4h-31v-4q4 0 6 -2q1 -1 5 -3.5
t6 -4.5l16 -25v-16q0 -5 -6 -11q-2 -2 -4 -2v-4h35v4q-5 0 -7 2q-4 4 -4 11v16l17 25q1 4 5 6l5 2q2 2 4 2zM1194 166h-31v-4q2 0 4 -2q3 -3 0 -8l-18 -39l-10 20l8 17q1 3 2.5 4.5t3 2t2.5 1.5l4 4v4h-53l2 -4q2 0 4 -2l10 -10l6 -11l-14 -26l-16 37q-3 7 0 10q2 2 4 2v4
h-27v-4q2 0 4 -2t4.5 -5.5t3.5 -4.5l27 -56h2q2 -2 2 0l17 33l18 -33h2l25 56q1 3 3 5t4 3t3 2q2 2 4 2v4zM1296 94v4q-3 -3 -6 0q-4 0 -4 11v43q0 6 4 10h6v4h-59l-4 -21l4 -2q0 5 4 9q3 8 14 8h9q8 0 8 -6v-21h-8q-7 0 -11 4q-2 2 -2 6h-4v-26h4q0 4 2 6q6 6 11 6h8v-23
q0 -6 -8 -6h-9q-7 0 -16 9q-4 4 -4 10l-4 -2l4 -23h61zM1421 94v4q-4 0 -6 2q-6 3 -6 9v41q0 5 6 8q1 1 3 2t3 2v4h-20l-49 -53v37q0 7 6 10q2 2 6 2v4h-31v-4q4 0 6 -2q7 -7 7 -10v-58h6l51 58v-41q0 -3 -6 -9q-2 -2 -4 -2v-4h28zM1694 260v12h-1403v-12h1403zM629 350
l-2 6q-7 0 -9 2q-10 3 -12 15l-14 71q-4 12 6 15q2 2 8 2l-2 6h-55q-41 0 -41 -31q0 -12 11 -20t28 -10l-19 -33q-7 -11 -18 -15q-4 -2 -10 -2l2 -6h39l24 47q3 6 10 6l7 -30q4 -11 -7 -15q-2 -2 -8 -2l2 -6h60zM848 350l-2 8q-4 -4 -8 0q-10 3 -13 19l-16 63q-6 18 16 21
l-2 6h-61q-21 0 -36 -11.5t-15 -33.5q0 -31 21.5 -51.5t49.5 -20.5h66zM1071 350l-2 6q-4 0 -6 2q-9 3 -12 19l-15 65q-3 14 6 17q2 2 11 2l-2 6h-29l-59 -86l-11 61q-3 14 6 17q2 2 9 2l-2 6h-43l2 -6q6 0 8 -2q7 -3 10 -17l16 -92l7 -2l61 90l12 -61q3 -15 -4 -19
q-2 -2 -8 -2l2 -6h43zM1272 461l-2 6h-60l2 -6q7 0 9 -2q8 -3 12 -17l10 -43q4 -16 4 -23t-5.5 -12.5t-20.5 -5.5q-30 0 -41 45l-9 39q-3 16 7 19q4 4 8 0v6h-49l2 -6q6 0 10 -2q8 -3 12 -17l8 -39q14 -55 58 -55q52 0 39 49l-11 45q-8 14 7 19q3 3 10 0zM1686 350l-3 6
q-6 0 -8 2q-10 3 -12 15l-14 71q-4 12 6 15q2 2 8 2l-2 6h-92v-21v-14h8q-2 4 2 12q3 15 25 15h8q9 0 12 -13l6 -32h-8q-10 0 -18 8q-4 4 -7 10h-6l11 -47h6q0 6 2 10q3 13 14 13h8l6 -35q4 -12 -6 -15q-2 -2 -8 -2l2 -6h60zM412 440l4 4q-5 8 -6.5 10.5t-6 7.5t-10.5 7
t-14 2q-32 0 -29 -47q-14 47 -43 47q-24 0 -24 -25l6 -2q0 13 16 13q33 0 49 -68q6 -19 -4 -29q-5 -5 -8 -2l2 -8h57l-2 8q-4 -4 -8 0q-9 3 -12 19q-10 38 -10 51q0 27 18 27q10 0 25 -15zM1491 393q0 31 -23.5 54.5t-52.5 23.5q-17 0 -32 -11.5t-15 -33.5q0 -32 23 -55
t53 -23q17 0 32 11.5t15 33.5zM1694 555v12h-1403v-12h1403zM580 631v67h-29v133h29v70h-289v-127h84v57h67v-40h-49v-50h49v-43h-67v58h-84v-125h289zM938 631v67h-29v133h29v70h-197q-44 0 -70 -23t-26 -59t26 -59t70 -23h62v-39h-31v-67h166zM1327 831v70h-166v-70h23
l-31 -47l-31 47h21v70h-127v-70h24l76 -94v-39h-29v-67h166v67h-30v41l75 92h29zM1694 774v127h-301v-127h73v57h23v-133h-29v-67h166v67h-29v133h23v-57h74zM1694 973v12h-1403v-12h1403zM819 1067q0 5 -7 11t-19 7q-6 4 -9 21t-5 34t-13 30.5t-33 13.5q-10 0 -18 -7
t-8 -14q0 -10 10 -10q8 0 8 12q0 13 10 13t14 -15.5t9.5 -39.5t19.5 -38q-18 0 -30 -13t-17 -13q-10 0 -10 8q0 3 2 5t2 5q0 10 -10 10t-10 -14q0 -10 9.5 -17t20.5 -7q19 0 30 13t21 13q6 -14 25 -14q8 0 8 6zM416 1063l-2 6q-6 0 -8 2q-11 4 -13 14l-14 72q-4 11 6 14
q3 3 8 3l-2 6h-55q-41 0 -41 -31q0 -12 11 -21t28 -10l-19 -33q-6 -10 -18 -14q-4 -2 -10 -2l2 -6h39l24 47q3 6 10 6l7 -31q3 -11 -7 -14q-2 -2 -8 -2l2 -6h60zM1020 1063l-2 6q-6 0 -8 2q-11 4 -13 14l-14 72q-4 11 6 14q3 3 8 3l-2 6h-92v-21v-14h8q-2 4 2 12q3 14 25 14
h8q9 0 12 -12l7 -33h-9q-9 0 -18 9q-2 2 -6 10h-6l10 -47h6q0 6 2 10q3 12 14 12h9l6 -35q4 -11 -6 -14q-2 -2 -9 -2l3 -6h59zM1681 1063l-2 6q-6 0 -8 2q-10 3 -12 14l-14 72q-4 11 6 14q3 3 8 3l-2 6h-58l3 -6q5 0 8 -3q6 -2 10 -14l6 -31h-49l-6 31q-4 11 6 14q3 3 8 3
l-2 6h-59l2 -6q5 0 8 -3q8 -3 12 -14l15 -72q3 -11 -7 -14q-2 -2 -8 -2l2 -6h60l-2 6q-7 0 -9 2q-10 3 -12 14l-6 33h49l6 -33q4 -11 -6 -14q-2 -2 -8 -2l2 -6h59zM604 1100q0 25 -29 35q11 7 11 18q0 12 -11 21.5t-32 9.5q-27 0 -27 -23q0 -12 10 -12q9 0 9 6q0 4 -3.5 6.5
t-3.5 5.5q0 11 15 11q20 0 20 -25q0 -8 -4 -12q-33 3 -33 -13q0 -12 17 -12q12 0 22 10q13 -10 13 -30q0 -29 -25 -29t-25 18q0 7 7 7q1 0 4 -2.5t6 -2.5q8 0 8 11q0 10 -14 10q-19 0 -19 -21q0 -26 33 -26q51 0 51 39zM1206 1100q0 26 -28 35q10 7 10 18q0 12 -11 21.5
t-32 9.5q-27 0 -27 -23q0 -12 10 -12q9 0 9 6q0 4 -3.5 6.5t-3.5 5.5q0 11 15 11q20 0 20 -25q0 -8 -4 -12q-33 3 -33 -13q0 -12 17 -12q12 0 22 10q13 -10 13 -30q0 -29 -25 -29t-25 18q0 7 7 7q1 0 4 -2.5t6 -2.5q8 0 8 11q0 10 -14 10q-19 0 -19 -21q0 -26 33 -26
q51 0 51 39zM1425 1106q0 31 -23 54.5t-52 23.5q-17 0 -32 -11.5t-15 -33.5q0 -32 22.5 -55t52.5 -23q17 0 32 11.5t15 33.5zM1694 1266v12h-1403v-12h1403zM899 1356v4q-3 -3 -6 0q-4 0 -4 10v43q0 6 4 10h6v4h-59l-4 -20l4 -2q0 4 4 8q3 8 14 8h8q8 0 8 -6v-20h-8
q-6 0 -10 4q-2 2 -2 6h-4v-27h4q0 4 2 6q7 7 10 7h8v-23q0 -6 -8 -6h-8q-8 0 -16 8q-4 4 -4 10l-4 -2l4 -22h61zM1032 1356v4q-3 -3 -6 0q-6 0 -6 10v43q0 7 6 10h6v4h-37v-2v-2h4q7 -7 7 -10v-18h-35v18q0 6 4 10h6v2v2h-35v-4h4q6 -6 6 -10v-43q0 -2 -6 -8q-2 -2 -4 -2v-4
h35v4q-4 0 -6 2q-4 4 -4 8v21h35v-21q0 -10 -7 -10q-2 -2 -4 0v-4h37zM1141 1405h4v8q0 3 -1 8.5t-1 8.5q-3 -3 -35 -3q-31 0 -37 3q0 -3 -1 -8.5t-1 -8.5v-8h4q1 1 3 4t3 4q10 10 15 10q6 0 6 -6v-47q0 -10 -6 -10q-2 -2 -4 0v-4h34v4q-3 -3 -6 0q-4 0 -4 10v47q0 6 6 6
q7 0 17 -10q4 -4 4 -8zM582 -207q0 -8 -9 -8q-8 0 -8 8t8 8q9 0 9 -8zM1466 -207q0 -8 -8 -8t-8 8t8 8t8 -8zM317 -145l-24 -70h-2l-23 47l-20 -47h-2l-25 70l12 2l15 -47l20 47h2l21 -47l14 45h12zM432 -145l-24 -70h-2l-23 47l-21 -47h-2l-24 70l12 2l14 -47l21 47h2
l21 -47l14 45h12zM547 -145l-25 -70h-2l-22 47l-21 -47h-2l-24 70l12 2l14 -47l21 47h2l20 -47l15 45h12zM662 -145v-11h-25v-57h-12v57h-25v11h62zM745 -145l-26 -39v-29h-12v29l-29 39l12 2l23 -31l18 29h14zM819 -168q0 -25 -35 -25v-20h-12v68q47 7 47 -23zM915 -178
q0 -37 -34 -37q-16 0 -25.5 10.5t-9.5 24.5q0 37 37 37q13 0 22.5 -10.5t9.5 -24.5zM1006 -176v-31q-11 -8 -27 -8q-37 0 -37 35q0 17 11 27t28 10q13 0 25 -9l-5 -10q-8 8 -22 8q-25 0 -25 -26q0 -25 27 -25l12 4v15h-18v10h31zM1094 -213h-15l-16 23h-10v-23h-13v68
q47 7 47 -21q0 -14 -14 -20zM1180 -213h-13l-8 16h-29l-6 -16h-12l31 70h4zM1253 -168q0 -25 -34 -25v-20h-13v68q47 7 47 -23zM1343 -213h-12v31h-33v-31h-12v68h12v-27h33v27h12v-68zM1438 -145l-27 -39v-29h-12v29l-29 39l12 2l23 -31l18 29h15zM1552 -197l-2 -12
q-6 -6 -20 -6q-37 0 -37 35q0 37 37 37q11 0 22 -7l-4 -10q-6 6 -18 6q-11 0 -18 -7t-7 -17q0 -27 27 -27q9 0 20 8zM1651 -178q0 -37 -35 -37q-16 0 -25.5 10.5t-9.5 24.5q0 37 37 37q13 0 23 -10.5t10 -24.5zM1759 -213h-12l-6 41l-21 -43h-4l-20 43l-6 -41h-13l13 70h2
l26 -54l27 54h2zM1778 0h-1571v1536h1571v-1536z" />
    </font>
</defs>
</svg>
