<?xml version="1.0" standalone="no"?>
<!DOCTYPE svg PUBLIC "-//W3C//DTD SVG 1.1//EN" "http://www.w3.org/Graphics/SVG/1.1/DTD/svg11.dtd" >
<svg xmlns="http://www.w3.org/2000/svg" xmlns:xlink="http://www.w3.org/1999/xlink" version="1.1">
<metadata>
Created by FontForge 20201107 at Sun Nov  3 14:32:21 2024
 By 
Copyright (C) 2000, 2007 Hoefler &#38; Frere-Jones. http://www.typography.com
</metadata>
<defs>
<font id="SVN-GothamBold" horiz-adv-x="1024" >
  <font-face 
    font-family="SVN-Gotham"
    font-weight="700"
    font-stretch="normal"
    units-per-em="2048"
    panose-1="0 0 0 0 0 0 0 0 0 0"
    ascent="1638"
    descent="-410"
    x-height="1098"
    cap-height="1434"
    bbox="-111 -608 2447 2384"
    underline-thickness="102"
    underline-position="-204"
    unicode-range="U+0020-FB04"
  />
<missing-glyph 
d="M0 -410v2048h1024v-2048h-1024zM145 1536l367 -799l367 799h-734zM102 -156l353 770l-353 770v-1540zM922 1384l-353 -770l353 -770v1540zM512 492l-367 -799h734z" />
    <glyph glyph-name=".notdef" 
d="M0 -410v2048h1024v-2048h-1024zM145 1536l367 -799l367 799h-734zM102 -156l353 770l-353 770v-1540zM922 1384l-353 -770l353 -770v1540zM512 492l-367 -799h734z" />
    <glyph glyph-name=".null" horiz-adv-x="0" 
 />
    <glyph glyph-name="nonmarkingreturn" horiz-adv-x="682" 
 />
    <glyph glyph-name="space" unicode=" " horiz-adv-x="614" 
 />
    <glyph glyph-name="exclam" unicode="!" horiz-adv-x="663" 
d="M246 487l-96 906v41h364v-41l-96 -906h-172zM166 0v328h332v-328h-332z" />
    <glyph glyph-name="quotedbl" unicode="&#x22;" horiz-adv-x="1064" 
d="M600 780l37 654h344v-11l-223 -643h-158zM117 780l37 654h344v-11l-224 -643h-157z" />
    <glyph glyph-name="numbersign" unicode="#" horiz-adv-x="1433" 
d="M1290 569v-262h-227l-51 -307h-271l52 307h-295l-54 -307h-270l51 307h-153v262h198l54 303h-181v263h226l51 299h270l-51 -299h297l51 299h270l-51 -299h156v-263h-201l-53 -303h182zM588 881l-53 -320h309l53 320h-309z" />
    <glyph glyph-name="dollar" unicode="$" horiz-adv-x="1323" 
d="M573 -201v207q-273 35 -483 195l160 233q92 -68 169.5 -108t164.5 -58v326q-116 32 -194.5 68t-136 87t-84 119.5t-26.5 159.5v4q0 167 117 274.5t313 127.5v118h213v-125q202 -25 381 -149l-137 -240q-130 87 -254 121v-311q235 -64 340 -166t105 -272v-4
q0 -169 -119.5 -276t-315.5 -128v-203h-213zM922 389v4q0 53 -32 87.5t-114 64.5v-287q146 21 146 131zM442 1051v-4q0 -52 30 -85t112 -63v279q-142 -20 -142 -127z" />
    <glyph glyph-name="percent" unicode="%" horiz-adv-x="1761" 
d="M438 717q-153 0 -249.5 104t-96.5 258v4q0 155 98.5 261t251.5 106t249.5 -104.5t96.5 -258.5v-4q0 -155 -98.5 -260.5t-251.5 -105.5zM573 1079v4q0 75 -37.5 128t-97.5 53q-63 0 -97 -50.5t-34 -126.5v-4q0 -74 37.5 -127t97.5 -53q63 0 97 51t34 125zM809 772l473 662
h244l-574 -772l-473 -662h-243zM1319 -16q-153 0 -249.5 104t-96.5 258v4q0 155 98.5 261t251.5 106t249.5 -104.5t96.5 -258.5v-4q0 -155 -98.5 -260.5t-251.5 -105.5zM1323 170q63 0 97 51t34 125v4q0 74 -37.5 127t-97.5 53q-63 0 -97 -50t-34 -126v-4q0 -74 37.5 -127
t97.5 -53z" />
    <glyph glyph-name="ampersand" unicode="&#x26;" horiz-adv-x="1425" 
d="M1137 -29l-166 168q-194 -159 -420 -159q-208 0 -344.5 113t-136.5 300v4q0 267 278 394q-100 136 -100 286v4q0 74 29 141.5t82.5 120t137.5 84t185 31.5q180 0 291.5 -102.5t111.5 -257.5v-4q0 -137 -78 -227t-223 -148l191 -191q48 75 139 246l232 -127
q-105 -191 -189 -303l211 -211zM621 885q98 37 144 81t46 109v4q0 61 -37 97t-98 36q-63 0 -101 -39.5t-38 -105.5v-4q0 -46 19 -86t65 -92zM588 238q102 0 207 81l-275 279q-133 -68 -133 -188v-4q0 -75 56.5 -121.5t144.5 -46.5z" />
    <glyph glyph-name="quotesingle" unicode="'" horiz-adv-x="585" 
d="M117 780l37 654h348v-11l-223 -643h-162z" />
    <glyph glyph-name="parenleft" unicode="(" horiz-adv-x="911" 
d="M825 -82l-137 -207q-287 155 -427 369t-140 508t140 507.5t427 368.5l137 -207q-210 -143 -302.5 -298t-92.5 -371t92.5 -371.5t302.5 -298.5z" />
    <glyph glyph-name="parenright" unicode=")" horiz-adv-x="911" 
d="M223 -289l-137 207q210 143 302.5 298.5t92.5 371.5t-92.5 371t-302.5 298l137 207q287 -155 427.5 -369t140.5 -507t-140.5 -507.5t-427.5 -369.5z" />
    <glyph glyph-name="asterisk" unicode="*" horiz-adv-x="880" 
d="M356 762l33 246l-199 -152l-86 148l230 96l-230 96l86 147l199 -151l-33 246h168l-32 -246l198 151l86 -147l-229 -96l229 -96l-86 -148l-198 152l32 -246h-168z" />
    <glyph glyph-name="plus" unicode="+" horiz-adv-x="1310" 
d="M510 211v369h-371v282h371v369h291v-369h370v-282h-370v-369h-291z" />
    <glyph glyph-name="comma" unicode="," horiz-adv-x="585" 
d="M80 -332l-27 129q216 21 201 203h-127v328h332v-277q0 -198 -95.5 -289.5t-283.5 -93.5z" />
    <glyph glyph-name="hyphen" unicode="-" horiz-adv-x="835" 
d="M102 485v299h631v-299h-631z" />
    <glyph glyph-name="period" unicode="." horiz-adv-x="585" 
d="M127 0v328h332v-328h-332z" />
    <glyph glyph-name="slash" unicode="/" horiz-adv-x="1085" 
d="M-57 -262l907 1896h264l-907 -1896h-264z" />
    <glyph glyph-name="zero" unicode="0" horiz-adv-x="1495" 
d="M745 -25q-188 0 -333.5 97.5t-223 264.5t-77.5 376v4q0 207 79 375.5t226 267t334 98.5q186 0 331.5 -97t224 -264.5t78.5 -375.5v-4q0 -207 -79 -376t-226 -267.5t-334 -98.5zM750 260q141 0 226 127t85 326v4q0 197 -88 327t-228 130t-225.5 -127t-85.5 -326v-4
q0 -199 87.5 -328t228.5 -129z" />
    <glyph glyph-name="one" unicode="1" horiz-adv-x="864" 
d="M365 0v1124l-250 -61l-66 258l412 123h215v-1444h-311z" />
    <glyph glyph-name="two" unicode="2" horiz-adv-x="1275" 
d="M100 0v250l478 391q141 115 194 186.5t53 157.5q0 90 -52 138t-140 48q-81 0 -145 -44t-148 -148l-221 178q114 154 233 225.5t301 71.5q222 0 358 -121t136 -321v-4q0 -72 -16 -132.5t-42 -109t-78 -103t-103 -98.5t-138 -112l-233 -181h624v-272h-1061z" />
    <glyph glyph-name="three" unicode="3" horiz-adv-x="1271" 
d="M637 -25q-351 0 -559 248l217 207q76 -88 157.5 -130t188.5 -42q91 0 147 47.5t56 126.5v4q0 87 -73.5 134.5t-207.5 47.5h-131l-49 201l342 344h-563v271h968v-238l-362 -346q79 -13 143.5 -39.5t121 -72t88.5 -119.5t32 -170v-5q0 -206 -140.5 -337.5t-375.5 -131.5z
" />
    <glyph glyph-name="four" unicode="4" horiz-adv-x="1411" 
d="M815 0v309h-700l-52 223l787 912h266v-879h193v-256h-193v-309h-301zM434 565h381v447z" />
    <glyph glyph-name="five" unicode="5" horiz-adv-x="1290" 
d="M625 -25q-312 0 -537 215l191 228q87 -78 168 -117t174 -39q112 0 175.5 51.5t63.5 147.5v4q0 91 -69.5 142.5t-184.5 51.5q-123 0 -239 -53l-183 121l41 707h881v-277h-610l-17 -248q102 25 189 25q85 0 159 -16.5t137.5 -52.5t108.5 -89t70.5 -130t25.5 -171v-4
q0 -227 -148 -361.5t-396 -134.5z" />
    <glyph glyph-name="six" unicode="6" horiz-adv-x="1355" 
d="M694 -25q-137 0 -236.5 38.5t-176.5 115.5q-83 83 -126.5 211t-43.5 332v4q0 134 24 251t74 215t123.5 168t177 109t229.5 39q140 0 243.5 -39t205.5 -119l-166 -243q-75 59 -140.5 86.5t-152.5 27.5q-128 0 -199.5 -90t-89.5 -241q67 43 134.5 67.5t162.5 24.5
q222 0 363 -120t141 -337v-4q0 -145 -71.5 -258.5t-196 -175.5t-279.5 -62zM682 246q115 0 180.5 58.5t65.5 152.5v4q0 94 -67.5 151.5t-182.5 57.5t-180.5 -56.5t-65.5 -150.5v-4q0 -94 67.5 -153.5t182.5 -59.5z" />
    <glyph glyph-name="seven" unicode="7" horiz-adv-x="1267" 
d="M172 0l641 1161h-674v273h1032v-238l-643 -1196h-356z" />
    <glyph glyph-name="eight" unicode="8" horiz-adv-x="1290" 
d="M645 -20q-241 0 -397 114t-156 299v4q0 127 56.5 209t175.5 137q-90 54 -136.5 128t-46.5 186v4q0 167 140.5 280t363.5 113q224 0 364 -112.5t140 -280.5v-4q0 -112 -46 -186t-136 -128q116 -61 173.5 -138.5t57.5 -198.5v-5q0 -195 -154.5 -308t-398.5 -113zM645 848
q92 0 148.5 49t56.5 125v4q0 70 -55.5 119t-149.5 49t-149.5 -48.5t-55.5 -117.5v-4q0 -76 56.5 -126t148.5 -50zM645 240q114 0 181 50.5t67 127.5v4q0 83 -68.5 129.5t-179.5 46.5t-179.5 -46.5t-68.5 -129.5v-4q0 -76 67 -127t181 -51z" />
    <glyph glyph-name="nine" unicode="9" horiz-adv-x="1355" 
d="M618 -25q-148 0 -258.5 43.5t-212.5 126.5l166 240q80 -65 152 -94t162 -29q129 0 201 86.5t90 239.5q-121 -99 -291 -99q-235 0 -373.5 124t-138.5 339v4q0 218 153 360t394 142q141 0 235.5 -36t177.5 -119q82 -82 126 -211t44 -330v-4q0 -234 -70.5 -409
t-213.5 -274.5t-343 -99.5zM678 752q115 0 180.5 59.5t65.5 153.5v4q0 98 -67.5 158.5t-184.5 60.5q-115 0 -179.5 -59t-64.5 -158v-4q0 -98 67 -156.5t183 -58.5z" />
    <glyph glyph-name="colon" unicode=":" horiz-adv-x="606" 
d="M137 770v328h332v-328h-332zM137 0v328h332v-328h-332z" />
    <glyph glyph-name="semicolon" unicode=";" horiz-adv-x="606" 
d="M137 770v328h332v-328h-332zM90 -332l-27 129q216 21 201 203h-127v328h332v-277q0 -198 -95.5 -289.5t-283.5 -93.5z" />
    <glyph glyph-name="less" unicode="&#x3c;" horiz-adv-x="1310" 
d="M1130 145l-991 435v282l991 434v-288l-692 -285l692 -285v-293z" />
    <glyph glyph-name="equal" unicode="=" horiz-adv-x="1310" 
d="M150 846v282h1011v-282h-1011zM150 313v283h1011v-283h-1011z" />
    <glyph glyph-name="greater" unicode="&#x3e;" horiz-adv-x="1310" 
d="M180 145v289l692 285l-692 285v292l991 -434v-282z" />
    <glyph glyph-name="question" unicode="?" horiz-adv-x="1114" 
d="M403 487l-47 332l11 10q189 7 273.5 54.5t84.5 132.5v4q0 69 -49 107t-139 38q-167 0 -308 -141l-188 207q204 221 502 221q225 0 360 -111.5t135 -312.5v-4q0 -334 -403 -412l-23 -125h-209zM336 0v328h332v-328h-332z" />
    <glyph glyph-name="at" unicode="@" horiz-adv-x="2007" 
d="M1022 -332q-129 0 -249.5 32.5t-220.5 90.5t-183 140.5t-140 180.5t-88.5 213t-31.5 236q0 181 70 346t189.5 286t286 193t351.5 72q183 0 350 -68t285 -179.5t187.5 -259.5t69.5 -304q0 -126 -32 -225t-87.5 -161.5t-128.5 -95t-159 -32.5q-207 0 -313 123
q-141 -123 -304 -123q-161 0 -267.5 108t-106.5 287q0 141 64.5 260t169.5 186.5t224 67.5q184 0 283 -139l23 109l241 -39l-96 -551q-6 -23 -6 -64q0 -57 39.5 -93t109.5 -36q113 0 186.5 110.5t73.5 307.5q0 141 -62 273.5t-167.5 233t-257 161.5t-319.5 61
q-171 0 -322.5 -64.5t-258 -174t-168.5 -260t-62 -316.5q0 -167 62 -316.5t170 -258.5t262.5 -172.5t332.5 -63.5q148 0 263.5 33t238.5 104l41 -65q-253 -154 -543 -154zM946 344q100 0 172 85.5t72 209.5q0 87 -53 139.5t-138 52.5q-101 0 -173 -83t-72 -205
q0 -95 52 -147t140 -52z" />
    <glyph glyph-name="A" unicode="A" horiz-adv-x="1617" 
d="M49 0l615 1444h290l615 -1444h-330l-131 322h-606l-131 -322h-322zM614 600h381l-190 465z" />
    <glyph glyph-name="B" unicode="B" horiz-adv-x="1478" 
d="M172 0v1434h666q247 0 374 -127q99 -99 99 -244v-4q0 -211 -189 -309q132 -50 200.5 -133.5t68.5 -219.5v-4q0 -192 -144 -292.5t-393 -100.5h-682zM479 854h291q227 0 227 152v4q0 72 -53 109.5t-153 37.5h-312v-303zM479 276h375q107 0 165 39t58 117v4q0 156 -233 156
h-365v-316z" />
    <glyph glyph-name="C" unicode="C" horiz-adv-x="1511" 
d="M844 -25q-207 0 -376 98t-264 267t-95 373v4q0 203 94 372t266 269t387 100q190 0 324 -57t241 -164l-200 -231q-91 80 -177.5 120.5t-189.5 40.5q-179 0 -297.5 -129.5t-118.5 -316.5v-4q0 -188 117.5 -319.5t298.5 -131.5q115 0 199 41t178 127l201 -203
q-119 -128 -254.5 -192t-333.5 -64z" />
    <glyph glyph-name="D" unicode="D" horiz-adv-x="1601" 
d="M172 0v1434h559q166 0 309 -55t242 -150t155 -226.5t56 -281.5v-4q0 -150 -56 -282t-155 -228t-242 -151.5t-309 -55.5h-559zM487 285h244q192 0 312 119t120 309v4q0 191 -120 311.5t-312 120.5h-244v-864z" />
    <glyph glyph-name="E" unicode="E" horiz-adv-x="1372" 
d="M172 0v1434h1081v-281h-768v-291h676v-280h-676v-301h779v-281h-1092z" />
    <glyph glyph-name="F" unicode="F" horiz-adv-x="1343" 
d="M172 0v1434h1092v-287h-777v-305h684v-287h-684v-555h-315z" />
    <glyph glyph-name="G" unicode="G" horiz-adv-x="1605" 
d="M862 -25q-220 0 -392 95.5t-266.5 263.5t-94.5 379v4q0 151 57 287.5t155.5 236.5t239 158.5t299.5 58.5q185 0 316.5 -48t246.5 -148l-198 -240q-88 74 -173 109.5t-202 35.5q-171 0 -291.5 -131t-120.5 -315v-4q0 -197 122 -326t312 -129q176 0 297 86v205h-317v272
h623v-622q-268 -228 -613 -228z" />
    <glyph glyph-name="H" unicode="H" horiz-adv-x="1556" 
d="M172 0v1434h315v-568h582v568h315v-1434h-315v575h-582v-575h-315z" />
    <glyph glyph-name="I" unicode="I" horiz-adv-x="688" 
d="M186 0v1434h316v-1434h-316z" />
    <glyph glyph-name="J" unicode="J" horiz-adv-x="1155" 
d="M498 -20q-289 0 -469 215l198 221q65 -72 127.5 -108t134.5 -36q193 0 193 238v924h324v-938q0 -247 -136 -383q-133 -133 -372 -133z" />
    <glyph glyph-name="K" unicode="K" horiz-adv-x="1495" 
d="M172 0v1434h315v-627l582 627h381l-584 -609l611 -825h-379l-445 610l-166 -172v-438h-315z" />
    <glyph glyph-name="L" unicode="L" horiz-adv-x="1267" 
d="M172 0v1434h315v-1147h715v-287h-1030z" />
    <glyph glyph-name="M" unicode="M" horiz-adv-x="1777" 
d="M172 0v1434h340l377 -607l377 607h340v-1434h-314v936l-403 -612h-8l-400 606v-930h-309z" />
    <glyph glyph-name="N" unicode="N" horiz-adv-x="1617" 
d="M172 0v1434h291l672 -883v883h311v-1434h-268l-695 911v-911h-311z" />
    <glyph glyph-name="O" unicode="O" horiz-adv-x="1740" 
d="M868 -25q-162 0 -304.5 58t-241.5 157.5t-156 235.5t-57 287v4q0 151 57.5 287.5t157.5 236.5t243 158.5t305 58.5q216 0 391 -99t272 -267.5t97 -370.5v-4q0 -151 -58 -287.5t-158 -236.5t-243 -159t-305 -59zM872 266q124 0 223.5 60.5t153.5 162.5t54 224v4
q0 187 -123.5 318.5t-311.5 131.5q-124 0 -223 -60t-153 -162t-54 -224v-4q0 -122 55 -225t155 -164.5t224 -61.5z" />
    <glyph glyph-name="P" unicode="P" horiz-adv-x="1368" 
d="M172 0v1434h586q254 0 401.5 -136t147.5 -360v-4q0 -162 -79 -278t-208 -171t-293 -55h-240v-430h-315zM487 711h250q116 0 183 61t67 156v4q0 104 -68 160.5t-188 56.5h-244v-438z" />
    <glyph glyph-name="Q" unicode="Q" horiz-adv-x="1740" 
d="M1653 180l-201 -223l-158 141q-189 -123 -426 -123q-162 0 -304.5 58t-241.5 157.5t-156 235.5t-57 287v4q0 151 57.5 287.5t157.5 236.5t243 158.5t305 58.5q216 0 391 -99t272 -267.5t97 -370.5v-4q0 -220 -127 -412zM872 266q112 0 189 39l-234 199l201 225l236 -213
q39 85 39 197v4q0 187 -123.5 318.5t-311.5 131.5q-124 0 -223 -60t-153 -162t-54 -224v-4q0 -122 55 -225t155 -164.5t224 -61.5z" />
    <glyph glyph-name="R" unicode="R" horiz-adv-x="1480" 
d="M172 0v1434h655q272 0 418 -146q123 -123 123 -327v-5q0 -167 -82 -279t-225 -165l350 -512h-369l-307 459h-248v-459h-315zM487 737h320q115 0 178.5 54.5t63.5 148.5v4q0 101 -64.5 153t-183.5 52h-314v-412z" />
    <glyph glyph-name="S" unicode="S" horiz-adv-x="1310" 
d="M682 -20q-169 0 -325.5 57.5t-282.5 171.5l186 223q105 -85 208 -129.5t220 -44.5q98 0 152.5 36t54.5 99v4q0 42 -22 70.5t-85 56t-182 56.5q-96 24 -162 46.5t-130 57.5t-101 78.5t-59.5 108t-22.5 147.5v4q0 194 139.5 313t362.5 119q303 0 532 -182l-164 -238
q-208 142 -372 142q-89 0 -137 -34.5t-48 -90.5v-4q0 -70 58.5 -104t251.5 -85q116 -31 195 -65.5t140 -84.5t90 -119t29 -161v-4q0 -209 -144.5 -326.5t-381.5 -117.5z" />
    <glyph glyph-name="T" unicode="T" horiz-adv-x="1327" 
d="M506 0v1143h-436v291h1187v-291h-436v-1143h-315z" />
    <glyph glyph-name="U" unicode="U" horiz-adv-x="1548" 
d="M770 -23q-294 0 -457 162t-163 475v820h315v-811q0 -175 80.5 -265t228.5 -90t228.5 87t80.5 257v822h316v-809q0 -319 -166.5 -483.5t-462.5 -164.5z" />
    <glyph glyph-name="V" unicode="V" horiz-adv-x="1536" 
d="M629 -10l-580 1444h348l375 -1010l375 1010h340l-580 -1444h-278z" />
    <glyph glyph-name="W" unicode="W" horiz-adv-x="2297" 
d="M551 -10l-490 1444h338l297 -971l322 975h270l322 -975l297 971h329l-489 -1444h-274l-324 938l-324 -938h-274z" />
    <glyph glyph-name="X" unicode="X" horiz-adv-x="1499" 
d="M63 0l500 729l-479 705h369l299 -465l305 465h358l-479 -701l500 -733h-369l-322 492l-323 -492h-359z" />
    <glyph glyph-name="Y" unicode="Y" horiz-adv-x="1466" 
d="M575 0v565l-550 869h368l342 -576l348 576h359l-551 -863v-571h-316z" />
    <glyph glyph-name="Z" unicode="Z" horiz-adv-x="1449" 
d="M129 0v240l789 917h-764v277h1169v-240l-788 -918h788v-276h-1194z" />
    <glyph glyph-name="bracketleft" unicode="[" horiz-adv-x="952" 
d="M170 -266v1700h661v-244h-362v-1213h362v-243h-661z" />
    <glyph glyph-name="backslash" unicode="\" horiz-adv-x="1085" 
d="M879 -262l-908 1896h265l907 -1896h-264z" />
    <glyph glyph-name="bracketright" unicode="]" horiz-adv-x="952" 
d="M121 -266v243h362v1213h-362v244h661v-1700h-661z" />
    <glyph glyph-name="asciicircum" unicode="^" 
d="M102 1010l304 424h212l304 -424h-226l-186 239l-186 -239h-222z" />
    <glyph glyph-name="underscore" unicode="_" horiz-adv-x="1228" 
d="M-4 -328v238h1237v-238h-1237z" />
    <glyph glyph-name="grave" unicode="`" 
d="M492 1219l-267 245l269 117l227 -362h-229z" />
    <glyph glyph-name="a" unicode="a" horiz-adv-x="1212" 
d="M451 -20q-163 0 -270 88.5t-107 246.5v4q0 173 119.5 262t322.5 89q135 0 268 -45v18q0 99 -59.5 150t-175.5 51q-149 0 -303 -60l-78 238q103 44 200 66t226 22q248 0 371 -123q118 -118 118 -350v-637h-301v119q-126 -139 -331 -139zM545 195q110 0 176.5 53t66.5 139
v55q-90 41 -198 41q-101 0 -158 -39t-57 -112v-4q0 -62 47 -97.5t123 -35.5z" />
    <glyph glyph-name="b" unicode="b" horiz-adv-x="1382" 
d="M793 -20q-205 0 -342 163v-143h-312v1495h312v-555q130 178 342 178q97 0 186 -37.5t159 -107.5t112 -179.5t42 -242.5v-4q0 -133 -41 -242.5t-111 -179.5t-159 -107.5t-188 -37.5zM713 244q112 0 190 84t78 219v4q0 133 -78 218t-190 85q-111 0 -189 -84.5t-78 -218.5
v-4q0 -134 78 -218.5t189 -84.5z" />
    <glyph glyph-name="c" unicode="c" horiz-adv-x="1169" 
d="M657 -25q-161 0 -293 77t-205 207t-73 284v4q0 156 73 286t206 207.5t297 77.5q148 0 251.5 -46.5t186.5 -137.5l-191 -205q-60 62 -115.5 91.5t-134.5 29.5q-115 0 -190.5 -87t-75.5 -212v-4q0 -130 77 -216.5t202 -86.5q74 0 132 29t120 87l182 -184
q-89 -98 -192.5 -149.5t-256.5 -51.5z" />
    <glyph glyph-name="d" unicode="d" horiz-adv-x="1382" 
d="M590 -20q-97 0 -186 37.5t-159.5 107.5t-112.5 179.5t-42 242.5v4q0 133 41.5 242.5t111.5 179.5t159 107.5t188 37.5q204 0 342 -164v541h311v-1495h-311v158q-130 -178 -342 -178zM670 244q111 0 188.5 84.5t77.5 218.5v4q0 134 -77.5 218.5t-188.5 84.5
q-112 0 -190.5 -84.5t-78.5 -218.5v-4q0 -133 78.5 -218t190.5 -85z" />
    <glyph glyph-name="e" unicode="e" horiz-adv-x="1255" 
d="M659 -25q-249 0 -411 159t-162 409v4q0 156 68.5 286t193.5 207.5t281 77.5q133 0 237.5 -49t168 -133t96 -189.5t32.5 -224.5q0 -20 -4 -82h-764q23 -105 93.5 -160t175.5 -55q77 0 138 26t128 87l178 -158q-165 -205 -449 -205zM391 635h469q-14 107 -74.5 170
t-156.5 63t-157.5 -62.5t-80.5 -170.5z" />
    <glyph glyph-name="f" unicode="f" horiz-adv-x="782" 
d="M193 0v831h-130v256h130v70q0 178 88 266q86 86 251 86q127 0 222 -30v-258q-76 26 -142 26q-112 0 -112 -119v-43h252v-254h-248v-831h-311z" />
    <glyph glyph-name="g" unicode="g" horiz-adv-x="1382" 
d="M631 -332q-270 0 -486 115l107 233q92 -50 179 -75t192 -25q313 0 313 299v53q-73 -90 -156 -134t-202 -44q-97 0 -184.5 34.5t-155.5 98t-108 162t-40 217.5v4q0 119 40.5 217.5t109 162t156 98t182.5 34.5q118 0 200 -42.5t154 -121.5v144h311v-850q0 -293 -139 -432
q-148 -148 -473 -148zM668 348q116 0 192 71t76 183v4q0 112 -76 183t-192 71q-115 0 -191 -71t-76 -183v-4q0 -114 75 -184t192 -70z" />
    <glyph glyph-name="h" unicode="h" horiz-adv-x="1275" 
d="M139 0v1495h312v-553q64 82 139 129t182 47q178 0 275.5 -107.5t97.5 -299.5v-711h-311v612q0 110 -49 167t-140 57q-92 0 -143 -57.5t-51 -166.5v-612h-312z" />
    <glyph glyph-name="i" unicode="i" horiz-adv-x="618" 
d="M145 1219v276h328v-276h-328zM154 0v1098h311v-1098h-311z" />
    <glyph glyph-name="j" unicode="j" horiz-adv-x="618" 
d="M145 1219v276h328v-276h-328zM113 -334q-71 0 -136 12v244q37 -6 66 -6q111 0 111 127v1055h311v-1080q0 -181 -88 -266.5t-264 -85.5z" />
    <glyph glyph-name="k" unicode="k" horiz-adv-x="1212" 
d="M139 0v1495h312v-797l364 400h373l-418 -432l432 -666h-356l-287 449l-108 -115v-334h-312z" />
    <glyph glyph-name="l" unicode="l" horiz-adv-x="618" 
d="M154 0v1495h311v-1495h-311z" />
    <glyph glyph-name="m" unicode="m" horiz-adv-x="1945" 
d="M139 0v1098h312v-156q64 82 139.5 129t183.5 47q221 0 309 -174q145 174 361 174q175 0 273 -103.5t98 -299.5v-715h-312v612q0 110 -47 167t-135 57q-89 0 -138.5 -57.5t-49.5 -166.5v-612h-312v612q0 110 -47 167t-135 57q-89 0 -138.5 -57.5t-49.5 -166.5v-612h-312z
" />
    <glyph glyph-name="n" unicode="n" horiz-adv-x="1275" 
d="M139 0v1098h312v-156q64 82 139 129t182 47q178 0 275.5 -107.5t97.5 -299.5v-711h-311v612q0 110 -49 167t-140 57q-92 0 -143 -57.5t-51 -166.5v-612h-312z" />
    <glyph glyph-name="o" unicode="o" horiz-adv-x="1359" 
d="M678 -25q-166 0 -302 75.5t-213 205.5t-77 287v4q0 117 45.5 222t124 182t189.5 122t237 45q166 0 302 -75t213 -205t77 -287v-4q0 -156 -77 -287t-214 -208t-305 -77zM682 244q130 0 207.5 86t77.5 213v4q0 125 -81.5 214t-207.5 89q-130 0 -207.5 -86t-77.5 -213v-4
q0 -125 81.5 -214t207.5 -89z" />
    <glyph glyph-name="p" unicode="p" horiz-adv-x="1382" 
d="M139 -328v1426h312v-158q130 178 342 178q97 0 186 -37.5t159 -107.5t112 -179.5t42 -242.5v-4q0 -133 -41 -242.5t-111 -179.5t-159 -107.5t-188 -37.5q-205 0 -342 163v-471h-312zM713 244q112 0 190 84t78 219v4q0 133 -78 218t-190 85q-111 0 -189 -84.5t-78 -218.5
v-4q0 -134 78 -218.5t189 -84.5z" />
    <glyph glyph-name="q" unicode="q" horiz-adv-x="1382" 
d="M932 -328v486q-130 -178 -342 -178q-97 0 -186 37.5t-159.5 107.5t-112.5 179.5t-42 242.5v4q0 133 41.5 242.5t111.5 179.5t159 107.5t188 37.5q204 0 342 -164v144h311v-1426h-311zM670 244q111 0 188.5 84.5t77.5 218.5v4q0 134 -77.5 218.5t-188.5 84.5
q-112 0 -190.5 -84.5t-78.5 -218.5v-4q0 -133 78.5 -218t190.5 -85z" />
    <glyph glyph-name="r" unicode="r" horiz-adv-x="856" 
d="M139 0v1098h312v-221q51 121 134.5 184t215.5 57v-325h-17q-159 0 -246 -96.5t-87 -290.5v-406h-312z" />
    <glyph glyph-name="s" unicode="s" horiz-adv-x="1028" 
d="M524 -20q-260 0 -471 165l133 205q180 -131 346 -131q66 0 99 22t33 60v4q0 14 -5.5 26t-19 22t-26.5 18t-37 16.5t-41 14t-48.5 15t-50.5 15.5q-53 15 -94 30.5t-87 43t-76 61t-50 84t-20 111.5v4q0 162 114.5 255t286.5 93q104 0 211.5 -33.5t198.5 -93.5l-119 -215
q-176 102 -297 102q-55 0 -85 -21t-30 -54v-4q0 -27 34 -52t75.5 -41t113.5 -38q54 -17 94.5 -33.5t88 -44.5t78 -60.5t51 -81t20.5 -106.5v-4q0 -175 -116 -264.5t-304 -89.5z" />
    <glyph glyph-name="t" unicode="t" horiz-adv-x="849" 
d="M510 -18q-153 0 -236.5 74.5t-83.5 254.5v520h-131v267h131v280h312v-280h258v-267h-258v-469q0 -106 100 -106q86 0 154 39v-250q-107 -63 -246 -63z" />
    <glyph glyph-name="u" unicode="u" horiz-adv-x="1275" 
d="M504 -20q-178 0 -275.5 107.5t-97.5 299.5v711h311v-613q0 -109 49 -166t140 -57q92 0 143 57t51 166v613h312v-1098h-312v156q-64 -82 -139 -129t-182 -47z" />
    <glyph glyph-name="v" unicode="v" horiz-adv-x="1228" 
d="M473 -8l-432 1106h330l245 -736l248 736h324l-432 -1106h-283z" />
    <glyph glyph-name="w" unicode="w" horiz-adv-x="1763" 
d="M387 -8l-338 1106h316l176 -666l207 670h268l209 -672l180 668h309l-342 -1106h-280l-211 674l-215 -674h-279z" />
    <glyph glyph-name="x" unicode="x" horiz-adv-x="1196" 
d="M815 0l-221 342l-221 -342h-326l385 557l-371 541h334l205 -322l207 322h326l-371 -537l387 -561h-334z" />
    <glyph glyph-name="y" unicode="y" horiz-adv-x="1228" 
d="M401 -334q-147 0 -276 76l104 225q71 -43 133 -43q42 0 65.5 15.5t43.5 56.5l-430 1102h330l250 -748l239 748h324l-422 -1125q-62 -168 -143 -237.5t-218 -69.5z" />
    <glyph glyph-name="z" unicode="z" horiz-adv-x="1153" 
d="M102 0v219l568 627h-549v252h936v-219l-570 -627h570v-252h-955z" />
    <glyph glyph-name="braceleft" unicode="{" horiz-adv-x="1003" 
d="M907 -82l-55 -207q-139 24 -233 61t-147.5 89t-76 113t-22.5 143q0 15 3 69.5t3 71.5q0 120 -50.5 165.5t-174.5 45.5h-54v238h54q124 0 174.5 45.5t50.5 165.5q0 17 -3 71.5t-3 69.5q0 82 22.5 143t76 112.5t147.5 88.5t233 61l55 -207q-82 -22 -131.5 -45t-75.5 -53.5
t-34.5 -62.5t-8.5 -82q0 -20 3.5 -75t3.5 -77q0 -109 -52.5 -173t-160.5 -101q108 -36 160.5 -101t52.5 -174q0 -22 -3.5 -76.5t-3.5 -74.5q0 -50 8.5 -82.5t34.5 -63t76 -53.5t131 -45z" />
    <glyph glyph-name="bar" unicode="|" horiz-adv-x="716" 
d="M236 -262v1896h245v-1896h-245z" />
    <glyph glyph-name="braceright" unicode="}" horiz-adv-x="1003" 
d="M152 -289l-56 207q81 22 131 45t76 53.5t34.5 63t8.5 82.5q0 20 -3 74.5t-3 76.5q0 109 52.5 174t160.5 101q-108 37 -160.5 101t-52.5 173q0 22 3 77t3 75q0 50 -8.5 82t-34.5 62.5t-75.5 53.5t-131.5 45l56 207q139 -24 233 -61t147.5 -88.5t76 -112.5t22.5 -143
q0 -15 -3 -69.5t-3 -71.5q0 -120 50.5 -165.5t174.5 -45.5h53v-238h-53q-124 0 -174.5 -45.5t-50.5 -165.5q0 -17 3 -71.5t3 -69.5q0 -82 -22.5 -143t-76 -113t-147.5 -89t-233 -61z" />
    <glyph glyph-name="asciitilde" unicode="~" horiz-adv-x="1044" 
d="M266 459l-166 51q41 141 97.5 212t156.5 71q54 0 115.5 -20t112.5 -40t80 -20q44 0 67 22.5t49 77.5l166 -51q-38 -140 -96 -211.5t-158 -71.5q-54 0 -115.5 20t-112.5 40t-79 20q-44 0 -67.5 -22.5t-49.5 -77.5z" />
    <glyph glyph-name="uni00A0" unicode="&#xa0;" horiz-adv-x="614" 
 />
    <glyph glyph-name="exclamdown" unicode="&#xa1;" horiz-adv-x="663" 
d="M166 1106v328h332v-328h-332zM150 0v41l96 905h172l96 -905v-41h-364z" />
    <glyph glyph-name="cent" unicode="&#xa2;" horiz-adv-x="1189" 
d="M639 -12h-213l39 200q-163 63 -266 208t-103 327v4q0 156 73.5 286.5t205.5 207.5t295 77h12l29 148h213l-37 -180q134 -47 223 -152l-184 -199q-57 53 -101 76l-110 -565q119 20 219 115l176 -179q-173 -198 -438 -206zM397 731v-4q0 -88 34 -158t97 -108l111 567
q-105 -7 -173.5 -92.5t-68.5 -204.5z" />
    <glyph glyph-name="sterling" unicode="&#xa3;" horiz-adv-x="1318" 
d="M123 0v207l156 51v289h-156v260h156v166q0 228 122 350q131 131 363 131q161 0 269.5 -62t191.5 -173l-240 -193q-57 71 -105.5 103t-111.5 32q-72 0 -117 -45q-53 -53 -53 -151v-158h467v-260h-467v-275h623v-272h-1098z" />
    <glyph glyph-name="yen" unicode="&#xa5;" horiz-adv-x="1404" 
d="M174 537v221h293l-438 676h362l314 -531l319 531h352l-440 -676h295v-221h-377v-127h377v-222h-377v-188h-303v188h-377v222h377v127h-377z" />
    <glyph glyph-name="section" unicode="&#xa7;" horiz-adv-x="1294" 
d="M666 -20q-300 0 -478 194l168 168q75 -69 146 -102t155 -33q67 0 101.5 20t34.5 54v4q0 36 -46.5 59.5t-179.5 52.5q-246 55 -350 123t-104 182v5q0 96 48.5 150.5t133.5 88.5q-86 69 -86 187v4q0 148 111.5 232.5t308.5 84.5q299 0 477 -194l-168 -168q-75 69 -146 102
t-155 33q-66 0 -100.5 -19.5t-34.5 -54.5v-4q0 -35 43.5 -59t181.5 -54q248 -55 351.5 -122t103.5 -183v-4q0 -95 -49 -150.5t-134 -89.5q41 -32 63.5 -81.5t22.5 -104.5v-4q0 -148 -110 -232.5t-309 -84.5zM797 592q49 0 80.5 24t31.5 66v4q0 40 -47.5 65.5t-159.5 53.5
q-145 37 -204 37q-49 0 -81 -24t-32 -66v-4q0 -40 47.5 -65.5t159.5 -53.5q145 -37 205 -37z" />
    <glyph glyph-name="dieresis" unicode="&#xa8;" 
d="M575 1219v276h299v-276h-299zM150 1219v276h299v-276h-299z" />
    <glyph glyph-name="copyright" unicode="&#xa9;" horiz-adv-x="1699" 
d="M848 -25q-153 0 -290.5 59t-235.5 158.5t-155.5 235.5t-57.5 285v4q0 148 58 284.5t156.5 237t237 160t291.5 59.5t290.5 -59t235.5 -158t155.5 -235t57.5 -285v-4q0 -148 -58 -284.5t-156.5 -237t-237 -160.5t-291.5 -60zM848 57q138 0 260.5 52.5t209 141.5t137 210.5
t50.5 255.5v4q0 179 -85 329t-235.5 238t-332.5 88q-138 0 -260.5 -52.5t-209 -141t-137 -210t-50.5 -255.5v-4q0 -134 50 -255t136 -209t208 -140t259 -52zM858 319q-172 0 -287.5 117.5t-115.5 286.5v4q0 169 115.5 288.5t293.5 119.5q106 0 178.5 -31t133.5 -90
l-113 -131q-94 88 -199 88q-97 0 -161 -71t-64 -171v-4q0 -100 63.5 -171t161.5 -71q61 0 104.5 22t98.5 70l115 -114q-67 -71 -141 -106.5t-183 -35.5z" />
    <glyph glyph-name="ordfeminine" unicode="&#xaa;" horiz-adv-x="798" 
d="M313 817q-90 0 -148.5 48.5t-58.5 135.5v5q0 95 65.5 143.5t178.5 48.5q74 0 148 -24v10q0 110 -131 110q-89 0 -166 -32l-43 129q107 49 233 49q137 0 205 -68q66 -66 66 -192v-351h-166v66q-68 -78 -183 -78zM100 567v135h570v-135h-570zM365 936q60 0 97.5 29.5
t37.5 76.5v31q-51 23 -111 23q-55 0 -86 -21t-31 -61v-4q0 -35 25.5 -54.5t67.5 -19.5z" />
    <glyph glyph-name="guillemotleft" unicode="&#xab;" horiz-adv-x="1320" 
d="M985 82l-344 459v16l344 459l238 -115l-267 -350l267 -350zM428 82l-344 459v16l344 459l238 -115l-267 -350l267 -350z" />
    <glyph glyph-name="registered" unicode="&#xae;" horiz-adv-x="753" 
d="M377 737q-150 0 -253.5 105t-103.5 252v2q0 147 104.5 252.5t252.5 105.5q150 0 253 -104.5t103 -251.5v-2q0 -147 -104 -253t-252 -106zM377 776q132 0 223.5 94t91.5 226v2q0 131 -91 224t-224 93t-224.5 -94t-91.5 -225v-2q0 -131 91.5 -224.5t224.5 -93.5zM221 913
v377h180q72 0 115 -31.5t43 -95.5q0 -43 -21 -74t-57 -45l90 -131h-122l-76 113h-45v-113h-107zM328 1110h67q58 0 58 45t-58 45h-67v-90z" />
    <glyph glyph-name="macron" unicode="&#xaf;" 
d="M143 1229v215h738v-215h-738z" />
    <glyph glyph-name="degree" unicode="&#xb0;" horiz-adv-x="983" 
d="M492 754q-142 0 -248.5 102.5t-106.5 241.5v4q0 139 106.5 241.5t248.5 102.5t248 -102.5t106 -241.5v-4q0 -139 -106 -241.5t-248 -102.5zM492 907q81 0 134.5 56t53.5 135v4q0 79 -53.5 134.5t-134.5 55.5t-135 -55.5t-54 -134.5v-4q0 -79 54 -135t135 -56z" />
    <glyph glyph-name="plusminus" unicode="&#xb1;" horiz-adv-x="1310" 
d="M1161 776l-368 2l2 -362h-279l2 362l-368 -2v271l368 -3l-2 363h279l-2 -363l368 3v-271zM1161 0h-1011v258h1011v-258z" />
    <glyph glyph-name="acute" unicode="&#xb4;" 
d="M303 1219l227 362l269 -117l-267 -245h-229z" />
    <glyph glyph-name="paragraph" unicode="&#xb6;" horiz-adv-x="1208" 
d="M721 0v471h-49q-175 0 -308.5 52t-212.5 161.5t-79 263.5v4q0 223 155 352.5t410 129.5h399v-1434h-315z" />
    <glyph glyph-name="periodcentered" unicode="&#xb7;" horiz-adv-x="585" 
d="M127 471v328h332v-328h-332z" />
    <glyph glyph-name="cedilla" unicode="&#xb8;" 
d="M502 -354l-260 108l196 287h224z" />
    <glyph glyph-name="ordmasculine" unicode="&#xba;" horiz-adv-x="798" 
d="M397 815q-134 0 -223.5 90.5t-89.5 220.5v4q0 131 91.5 222.5t225.5 91.5t224 -90.5t90 -220.5v-5q0 -131 -92 -222t-226 -91zM104 567v135h590v-135h-590zM401 963q66 0 106 47.5t40 115.5v4q0 68 -42 117t-108 49q-65 0 -105 -47.5t-40 -115.5v-5q0 -68 41.5 -116.5
t107.5 -48.5z" />
    <glyph glyph-name="guillemotright" unicode="&#xbb;" horiz-adv-x="1320" 
d="M893 82l-238 115l267 350l-267 350l238 119l344 -459v-16zM336 82l-238 115l267 350l-267 350l238 119l344 -459v-16z" />
    <glyph glyph-name="questiondown" unicode="&#xbf;" horiz-adv-x="1114" 
d="M446 1106v328h332v-328h-332zM571 -18q-225 0 -360 111.5t-135 312.5v4q0 94 31 167t88 120.5t126 77t158 46.5l23 125h209l47 -332l-10 -10q-189 -7 -274 -54t-85 -132v-4q0 -69 49.5 -107.5t139.5 -38.5q165 0 307 142l188 -207q-204 -221 -502 -221z" />
    <glyph glyph-name="Agrave" unicode="&#xc0;" horiz-adv-x="1617" 
d="M49 0l615 1444h290l615 -1444h-330l-131 322h-606l-131 -322h-322zM614 600h381l-190 465zM723 1565l-266 245l268 117l227 -362h-229z" />
    <glyph glyph-name="Aacute" unicode="&#xc1;" horiz-adv-x="1617" 
d="M49 0l615 1444h290l615 -1444h-330l-131 322h-606l-131 -322h-322zM614 600h381l-190 465zM664 1567l227 362l268 -117l-266 -245h-229z" />
    <glyph glyph-name="Acircumflex" unicode="&#xc2;" horiz-adv-x="1617" 
d="M49 0l615 1444h290l615 -1444h-330l-131 322h-606l-131 -322h-322zM614 600h381l-190 465zM410 1556l252 322h294l252 -322h-239l-162 136l-162 -136h-235z" />
    <glyph glyph-name="Atilde" unicode="&#xc3;" horiz-adv-x="1617" 
d="M49 0l615 1444h290l615 -1444h-330l-131 322h-606l-131 -322h-322zM614 600h381l-190 465zM578 1556l-146 46q33 122 84 183.5t139 61.5q61 0 157 -34.5t122 -34.5q39 0 60 20.5t42 67.5l146 -45q-33 -122 -84.5 -184t-139.5 -62q-62 0 -157 35t-121 35q-39 0 -60 -21
t-42 -68z" />
    <glyph glyph-name="Adieresis" unicode="&#xc4;" horiz-adv-x="1617" 
d="M49 0l615 1444h290l615 -1444h-330l-131 322h-606l-131 -322h-322zM614 600h381l-190 465zM883 1567v260h299v-260h-299zM436 1567v260h299v-260h-299z" />
    <glyph glyph-name="Aring" unicode="&#xc5;" horiz-adv-x="1617" 
d="M555 1520q0 98 74.5 161.5t179.5 63.5t179.5 -63.5t74.5 -161.5q0 -95 -72 -160l578 -1360h-330l-131 322h-606l-131 -322h-322l578 1360q-72 63 -72 160zM614 600h381l-190 465zM680 1520q0 -49 35.5 -82t93.5 -33t93.5 33t35.5 82t-35.5 81.5t-93.5 32.5t-93.5 -32.5
t-35.5 -81.5z" />
    <glyph glyph-name="AE" unicode="&#xc6;" horiz-adv-x="2140" 
d="M18 0l773 1434h1230v-281h-716v-291h624v-280h-624v-301h727v-281h-1041v322h-481l-170 -322h-322zM657 600h334v561h-37z" />
    <glyph glyph-name="Ccedilla" unicode="&#xc7;" horiz-adv-x="1511" 
d="M764 -354l-260 108l164 242q-248 54 -403.5 253.5t-155.5 463.5v4q0 203 94 372t266 269t387 100q190 0 324 -57t241 -164l-200 -231q-91 80 -177.5 120.5t-189.5 40.5q-179 0 -297.5 -129.5t-118.5 -316.5v-4q0 -188 117.5 -319.5t298.5 -131.5q115 0 199 41t178 127
l201 -203q-111 -119 -236.5 -183t-298.5 -71z" />
    <glyph glyph-name="Egrave" unicode="&#xc8;" horiz-adv-x="1372" 
d="M172 0v1434h1081v-281h-768v-291h676v-280h-676v-301h779v-281h-1092zM680 1546l-266 246l268 117l227 -363h-229z" />
    <glyph glyph-name="Eacute" unicode="&#xc9;" horiz-adv-x="1372" 
d="M172 0v1434h1081v-281h-768v-291h676v-280h-676v-301h779v-281h-1092zM530 1546l228 363l268 -117l-266 -246h-230z" />
    <glyph glyph-name="Ecircumflex" unicode="&#xca;" horiz-adv-x="1372" 
d="M172 0v1434h1081v-281h-768v-291h676v-280h-676v-301h779v-281h-1092zM317 1546l252 322h295l252 -322h-239l-162 135l-162 -135h-236z" />
    <glyph glyph-name="Edieresis" unicode="&#xcb;" horiz-adv-x="1372" 
d="M172 0v1434h1081v-281h-768v-291h676v-280h-676v-301h779v-281h-1092zM791 1546v260h299v-260h-299zM344 1546v260h299v-260h-299z" />
    <glyph glyph-name="Igrave" unicode="&#xcc;" horiz-adv-x="688" 
d="M186 0v1434h316v-1434h-316zM270 1546l-266 246l268 117l228 -363h-230z" />
    <glyph glyph-name="Iacute" unicode="&#xcd;" horiz-adv-x="688" 
d="M186 0v1434h316v-1434h-316zM180 1546l228 363l268 -117l-266 -246h-230z" />
    <glyph glyph-name="Icircumflex" unicode="&#xce;" horiz-adv-x="688" 
d="M186 0v1434h316v-1434h-316zM-66 1546l263 301h295l262 -301h-250l-162 115l-162 -115h-246z" />
    <glyph glyph-name="Idieresis" unicode="&#xcf;" horiz-adv-x="688" 
d="M186 0v1434h316v-1434h-316zM418 1546v260h299v-260h-299zM-29 1546v260h299v-260h-299z" />
    <glyph glyph-name="Eth" unicode="&#xd0;" horiz-adv-x="1662" 
d="M233 0v582h-153v278h153v574h560q166 0 308.5 -55t241.5 -150t155 -226.5t56 -281.5v-4q0 -150 -56 -282t-155 -228t-241.5 -151.5t-308.5 -55.5h-560zM545 285h248q192 0 312 119t120 309v4q0 191 -120 311.5t-312 120.5h-248v-289h311v-278h-311v-297z" />
    <glyph glyph-name="Ntilde" unicode="&#xd1;" horiz-adv-x="1617" 
d="M172 0v1434h291l672 -883v883h311v-1434h-268l-695 911v-911h-311zM555 1526l-166 51q41 141 98.5 212t157.5 71q54 0 118.5 -20t118.5 -40t83 -20q44 0 68 22.5t50 77.5l166 -51q-38 -140 -97 -211.5t-159 -71.5q-54 0 -118.5 20t-118.5 40t-82 20q-44 0 -69 -23
t-50 -77z" />
    <glyph glyph-name="Ograve" unicode="&#xd2;" horiz-adv-x="1740" 
d="M868 -25q-162 0 -304.5 58t-241.5 157.5t-156 235.5t-57 287v4q0 151 57.5 287.5t157.5 236.5t243 158.5t305 58.5q216 0 391 -99t272 -267.5t97 -370.5v-4q0 -151 -58 -287.5t-158 -236.5t-243 -159t-305 -59zM872 266q124 0 223.5 60.5t153.5 162.5t54 224v4
q0 187 -123.5 318.5t-311.5 131.5q-124 0 -223 -60t-153 -162t-54 -224v-4q0 -122 55 -225t155 -164.5t224 -61.5zM870 1565l-266 245l268 117l228 -362h-230z" />
    <glyph glyph-name="Oacute" unicode="&#xd3;" horiz-adv-x="1740" 
d="M868 -25q-162 0 -304.5 58t-241.5 157.5t-156 235.5t-57 287v4q0 151 57.5 287.5t157.5 236.5t243 158.5t305 58.5q216 0 391 -99t272 -267.5t97 -370.5v-4q0 -151 -58 -287.5t-158 -236.5t-243 -159t-305 -59zM872 266q124 0 223.5 60.5t153.5 162.5t54 224v4
q0 187 -123.5 318.5t-311.5 131.5q-124 0 -223 -60t-153 -162t-54 -224v-4q0 -122 55 -225t155 -164.5t224 -61.5zM639 1567l227 362l269 -117l-267 -245h-229z" />
    <glyph glyph-name="Ocircumflex" unicode="&#xd4;" horiz-adv-x="1740" 
d="M868 -25q-162 0 -304.5 58t-241.5 157.5t-156 235.5t-57 287v4q0 151 57.5 287.5t157.5 236.5t243 158.5t305 58.5q216 0 391 -99t272 -267.5t97 -370.5v-4q0 -151 -58 -287.5t-158 -236.5t-243 -159t-305 -59zM872 266q124 0 223.5 60.5t153.5 162.5t54 224v4
q0 187 -123.5 318.5t-311.5 131.5q-124 0 -223 -60t-153 -162t-54 -224v-4q0 -122 55 -225t155 -164.5t224 -61.5zM471 1565l252 321h295l252 -321h-240l-162 135l-161 -135h-236z" />
    <glyph glyph-name="Otilde" unicode="&#xd5;" horiz-adv-x="1740" 
d="M868 -25q-162 0 -304.5 58t-241.5 157.5t-156 235.5t-57 287v4q0 151 57.5 287.5t157.5 236.5t243 158.5t305 58.5q216 0 391 -99t272 -267.5t97 -370.5v-4q0 -151 -58 -287.5t-158 -236.5t-243 -159t-305 -59zM872 266q124 0 223.5 60.5t153.5 162.5t54 224v4
q0 187 -123.5 318.5t-311.5 131.5q-124 0 -223 -60t-153 -162t-54 -224v-4q0 -122 55 -225t155 -164.5t224 -61.5zM635 1556l-146 46q33 122 84 183.5t140 61.5q61 0 157 -34.5t121 -34.5q39 0 61 20.5t42 67.5l145 -45q-33 -122 -84 -184t-139 -62q-62 0 -158 35t-121 35
q-39 0 -60 -21t-42 -68z" />
    <glyph glyph-name="Odieresis" unicode="&#xd6;" horiz-adv-x="1740" 
d="M868 -25q-162 0 -304.5 58t-241.5 157.5t-156 235.5t-57 287v4q0 151 57.5 287.5t157.5 236.5t243 158.5t305 58.5q216 0 391 -99t272 -267.5t97 -370.5v-4q0 -151 -58 -287.5t-158 -236.5t-243 -159t-305 -59zM872 266q124 0 223.5 60.5t153.5 162.5t54 224v4
q0 187 -123.5 318.5t-311.5 131.5q-124 0 -223 -60t-153 -162t-54 -224v-4q0 -122 55 -225t155 -164.5t224 -61.5zM944 1567v260h299v-260h-299zM498 1567v260h299v-260h-299z" />
    <glyph glyph-name="multiply" unicode="&#xd7;" horiz-adv-x="1310" 
d="M971 211l-318 326l-317 -326l-191 190l326 318l-326 317l195 195l317 -326l318 326l190 -191l-325 -317l325 -317z" />
    <glyph glyph-name="Oslash" unicode="&#xd8;" horiz-adv-x="1740" 
d="M1348 1444h301l-201 -234q184 -206 184 -489v-4q0 -151 -58 -287.5t-158 -236.5t-243 -159t-305 -59q-216 0 -395 103l-80 -88h-301l201 233q-184 206 -184 490v4q0 151 57.5 287.5t157.5 236.5t243 158.5t305 58.5q210 0 396 -102zM872 260q189 0 313 132t124 321v4
q0 141 -72 254l-567 -662q93 -49 202 -49zM432 721v-4q0 -138 72 -254l567 661q-95 50 -203 50q-189 0 -312.5 -132t-123.5 -321z" />
    <glyph glyph-name="Ugrave" unicode="&#xd9;" horiz-adv-x="1548" 
d="M770 -23q-294 0 -457 162t-163 475v820h315v-811q0 -175 80.5 -265t228.5 -90t228.5 87t80.5 257v822h316v-809q0 -319 -166.5 -483.5t-462.5 -164.5zM731 1546l-266 246l268 117l228 -363h-230z" />
    <glyph glyph-name="Uacute" unicode="&#xda;" horiz-adv-x="1548" 
d="M770 -23q-294 0 -457 162t-163 475v820h315v-811q0 -175 80.5 -265t228.5 -90t228.5 87t80.5 257v822h316v-809q0 -319 -166.5 -483.5t-462.5 -164.5zM602 1546l227 363l269 -117l-267 -246h-229z" />
    <glyph glyph-name="Ucircumflex" unicode="&#xdb;" horiz-adv-x="1548" 
d="M770 -23q-294 0 -457 162t-163 475v820h315v-811q0 -175 80.5 -265t228.5 -90t228.5 87t80.5 257v822h316v-809q0 -319 -166.5 -483.5t-462.5 -164.5zM365 1546l262 301h295l262 -301h-250l-162 115l-162 -115h-245z" />
    <glyph glyph-name="Udieresis" unicode="&#xdc;" horiz-adv-x="1548" 
d="M770 -23q-294 0 -457 162t-163 475v820h315v-811q0 -175 80.5 -265t228.5 -90t228.5 87t80.5 257v822h316v-809q0 -319 -166.5 -483.5t-462.5 -164.5zM848 1546v260h299v-260h-299zM401 1546v260h299v-260h-299z" />
    <glyph glyph-name="Yacute" unicode="&#xdd;" horiz-adv-x="1466" 
d="M575 0v565l-550 869h368l342 -576l348 576h359l-551 -863v-571h-316zM575 1546l228 363l268 -117l-266 -246h-230z" />
    <glyph glyph-name="Thorn" unicode="&#xde;" horiz-adv-x="1378" 
d="M172 0v1434h315v-209h271q254 0 401.5 -136t147.5 -360v-4q0 -162 -79 -278t-208 -171t-293 -55h-240v-221h-315zM487 502h250q116 0 183 61t67 156v4q0 104 -68 160.5t-188 56.5h-244v-438z" />
    <glyph glyph-name="germandbls" unicode="&#xdf;" horiz-adv-x="1269" 
d="M612 -4v233q128 6 195 54t67 135v4q0 81 -71 131t-191 68v204q85 54 133 114t48 140v4q0 77 -44 120.5t-120 43.5q-80 0 -130 -56t-50 -149v-1042h-310v1030q0 224 136.5 351.5t367.5 127.5q215 0 336 -112t121 -285v-4q0 -64 -14 -115.5t-41.5 -91.5t-58 -68.5
t-73.5 -58.5q269 -116 269 -362v-4q0 -202 -155 -313t-415 -99z" />
    <glyph glyph-name="agrave" unicode="&#xe0;" horiz-adv-x="1212" 
d="M451 -20q-163 0 -270 88.5t-107 246.5v4q0 173 119.5 262t322.5 89q135 0 268 -45v18q0 99 -59.5 150t-175.5 51q-149 0 -303 -60l-78 238q103 44 200 66t226 22q248 0 371 -123q118 -118 118 -350v-637h-301v119q-126 -139 -331 -139zM545 195q110 0 176.5 53t66.5 139
v55q-90 41 -198 41q-101 0 -158 -39t-57 -112v-4q0 -62 47 -97.5t123 -35.5zM590 1219l-266 245l268 117l227 -362h-229z" />
    <glyph glyph-name="aacute" unicode="&#xe1;" horiz-adv-x="1212" 
d="M451 -20q-163 0 -270 88.5t-107 246.5v4q0 173 119.5 262t322.5 89q135 0 268 -45v18q0 99 -59.5 150t-175.5 51q-149 0 -303 -60l-78 238q103 44 200 66t226 22q248 0 371 -123q118 -118 118 -350v-637h-301v119q-126 -139 -331 -139zM545 195q110 0 176.5 53t66.5 139
v55q-90 41 -198 41q-101 0 -158 -39t-57 -112v-4q0 -62 47 -97.5t123 -35.5zM453 1219l227 362l268 -117l-266 -245h-229z" />
    <glyph glyph-name="acircumflex" unicode="&#xe2;" horiz-adv-x="1212" 
d="M451 -20q-163 0 -270 88.5t-107 246.5v4q0 173 119.5 262t322.5 89q135 0 268 -45v18q0 99 -59.5 150t-175.5 51q-149 0 -303 -60l-78 238q103 44 200 66t226 22q248 0 371 -123q118 -118 118 -350v-637h-301v119q-126 -139 -331 -139zM545 195q110 0 176.5 53t66.5 139
v55q-90 41 -198 41q-101 0 -158 -39t-57 -112v-4q0 -62 47 -97.5t123 -35.5zM231 1219l252 321h295l252 -321h-239l-162 135l-162 -135h-236z" />
    <glyph glyph-name="atilde" unicode="&#xe3;" horiz-adv-x="1212" 
d="M451 -20q-163 0 -270 88.5t-107 246.5v4q0 173 119.5 262t322.5 89q135 0 268 -45v18q0 99 -59.5 150t-175.5 51q-149 0 -303 -60l-78 238q103 44 200 66t226 22q248 0 371 -123q118 -118 118 -350v-637h-301v119q-126 -139 -331 -139zM545 195q110 0 176.5 53t66.5 139
v55q-90 41 -198 41q-101 0 -158 -39t-57 -112v-4q0 -62 47 -97.5t123 -35.5zM397 1198l-145 45q33 122 84 184t139 62q61 0 157 -35t122 -35q39 0 60 20.5t42 67.5l145 -45q-33 -122 -84 -183.5t-139 -61.5q-62 0 -157 34.5t-121 34.5q-39 0 -61 -20.5t-42 -67.5z" />
    <glyph glyph-name="adieresis" unicode="&#xe4;" horiz-adv-x="1212" 
d="M451 -20q-163 0 -270 88.5t-107 246.5v4q0 173 119.5 262t322.5 89q135 0 268 -45v18q0 99 -59.5 150t-175.5 51q-149 0 -303 -60l-78 238q103 44 200 66t226 22q248 0 371 -123q118 -118 118 -350v-637h-301v119q-126 -139 -331 -139zM545 195q110 0 176.5 53t66.5 139
v55q-90 41 -198 41q-101 0 -158 -39t-57 -112v-4q0 -62 47 -97.5t123 -35.5zM674 1219v276h299v-276h-299zM248 1219v276h299v-276h-299z" />
    <glyph glyph-name="aring" unicode="&#xe5;" horiz-adv-x="1212" 
d="M451 -20q-163 0 -270 88.5t-107 246.5v4q0 173 119.5 262t322.5 89q135 0 268 -45v18q0 99 -59.5 150t-175.5 51q-149 0 -303 -60l-78 238q103 44 200 66t226 22q248 0 371 -123q118 -118 118 -350v-637h-301v119q-126 -139 -331 -139zM545 195q110 0 176.5 53t66.5 139
v55q-90 41 -198 41q-101 0 -158 -39t-57 -112v-4q0 -62 47 -97.5t123 -35.5zM362 1454q0 100 72.5 170t175.5 70t175.5 -70t72.5 -170t-72.5 -170t-175.5 -70t-175.5 70t-72.5 170zM475 1454q0 -56 39.5 -95.5t95.5 -39.5t95.5 39.5t39.5 95.5t-39.5 95.5t-95.5 39.5
t-95.5 -39.5t-39.5 -95.5z" />
    <glyph glyph-name="ae" unicode="&#xe6;" horiz-adv-x="1947" 
d="M487 -20q-184 0 -298.5 89t-114.5 246v4q0 173 119.5 262t322.5 89q135 0 268 -45v18q0 99 -59.5 150t-175.5 51q-149 0 -303 -60l-78 238q103 44 200 66t226 22q259 0 373 -139q144 147 362 147q129 0 231.5 -49t165.5 -133t96 -189.5t33 -224.5q0 -20 -4 -82h-764
q23 -105 93.5 -160t175.5 -55q77 0 138 26t128 87l178 -158q-165 -205 -448 -205q-252 0 -418 166q-219 -161 -447 -161zM1083 635h469q-14 107 -74.5 170t-156.5 63t-157.5 -62.5t-80.5 -170.5zM545 199q147 0 280 104q-31 74 -39 141q-93 39 -196 39q-101 0 -158 -39
t-57 -112v-4q0 -59 48 -94t122 -35z" />
    <glyph glyph-name="ccedilla" unicode="&#xe7;" horiz-adv-x="1169" 
d="M575 -354l-260 108l168 246q-179 53 -288 202t-109 341v4q0 156 73 286t206 207.5t297 77.5q148 0 251.5 -46.5t186.5 -137.5l-191 -205q-60 62 -115.5 91.5t-134.5 29.5q-115 0 -190.5 -87t-75.5 -212v-4q0 -130 77 -216.5t202 -86.5q74 0 132 29t120 87l182 -184
q-80 -89 -172.5 -139t-224.5 -60z" />
    <glyph glyph-name="egrave" unicode="&#xe8;" horiz-adv-x="1255" 
d="M659 -25q-249 0 -411 159t-162 409v4q0 156 68.5 286t193.5 207.5t281 77.5q133 0 237.5 -49t168 -133t96 -189.5t32.5 -224.5q0 -20 -4 -82h-764q23 -105 93.5 -160t175.5 -55q77 0 138 26t128 87l178 -158q-165 -205 -449 -205zM391 635h469q-14 107 -74.5 170
t-156.5 63t-157.5 -62.5t-80.5 -170.5zM627 1219l-267 245l269 117l227 -362h-229z" />
    <glyph glyph-name="eacute" unicode="&#xe9;" horiz-adv-x="1255" 
d="M659 -25q-249 0 -411 159t-162 409v4q0 156 68.5 286t193.5 207.5t281 77.5q133 0 237.5 -49t168 -133t96 -189.5t32.5 -224.5q0 -20 -4 -82h-764q23 -105 93.5 -160t175.5 -55q77 0 138 26t128 87l178 -158q-165 -205 -449 -205zM391 635h469q-14 107 -74.5 170
t-156.5 63t-157.5 -62.5t-80.5 -170.5zM446 1219l228 362l268 -117l-266 -245h-230z" />
    <glyph glyph-name="ecircumflex" unicode="&#xea;" horiz-adv-x="1255" 
d="M659 -25q-249 0 -411 159t-162 409v4q0 156 68.5 286t193.5 207.5t281 77.5q133 0 237.5 -49t168 -133t96 -189.5t32.5 -224.5q0 -20 -4 -82h-764q23 -105 93.5 -160t175.5 -55q77 0 138 26t128 87l178 -158q-165 -205 -449 -205zM391 635h469q-14 107 -74.5 170
t-156.5 63t-157.5 -62.5t-80.5 -170.5zM225 1219l252 321h295l252 -321h-240l-161 135l-162 -135h-236z" />
    <glyph glyph-name="edieresis" unicode="&#xeb;" horiz-adv-x="1255" 
d="M659 -25q-249 0 -411 159t-162 409v4q0 156 68.5 286t193.5 207.5t281 77.5q133 0 237.5 -49t168 -133t96 -189.5t32.5 -224.5q0 -20 -4 -82h-764q23 -105 93.5 -160t175.5 -55q77 0 138 26t128 87l178 -158q-165 -205 -449 -205zM391 635h469q-14 107 -74.5 170
t-156.5 63t-157.5 -62.5t-80.5 -170.5zM688 1219v276h299v-276h-299zM262 1219v276h299v-276h-299z" />
    <glyph glyph-name="igrave" unicode="&#xec;" horiz-adv-x="618" 
d="M154 0v1098h311v-1098h-311zM231 1219l-266 245l268 117l228 -362h-230z" />
    <glyph glyph-name="iacute" unicode="&#xed;" horiz-adv-x="618" 
d="M154 0v1098h311v-1098h-311zM145 1219l228 362l268 -117l-266 -245h-230z" />
    <glyph glyph-name="icircumflex" unicode="&#xee;" horiz-adv-x="618" 
d="M154 0v1098h311v-1098h-311zM-90 1219l252 321h295l252 -321h-240l-162 135l-162 -135h-235z" />
    <glyph glyph-name="idieresis" unicode="&#xef;" horiz-adv-x="618" 
d="M154 0v1098h311v-1098h-311zM373 1219v276h299v-276h-299zM-53 1219v276h299v-276h-299z" />
    <glyph glyph-name="eth" unicode="&#xf0;" horiz-adv-x="1361" 
d="M1102 1337l-152 -39q322 -333 322 -698v-4q0 -126 -40.5 -238t-115 -197.5t-188 -135.5t-250.5 -50q-167 0 -302.5 76t-212.5 209.5t-77 298.5v4q0 146 64.5 268t176.5 192.5t246 70.5q74 0 130 -17t122 -55q-68 100 -172 201l-254 -64l-53 164l156 39q-64 51 -178 133
h411l70 -57l246 61zM682 244q130 0 207.5 84.5t77.5 210.5v4q0 125 -81 212t-208 87q-130 0 -207.5 -84.5t-77.5 -210.5v-4q0 -125 81 -212t208 -87z" />
    <glyph glyph-name="ntilde" unicode="&#xf1;" horiz-adv-x="1275" 
d="M139 0v1098h312v-156q64 82 139 129t182 47q178 0 275.5 -107.5t97.5 -299.5v-711h-311v612q0 110 -49 167t-140 57q-92 0 -143 -57.5t-51 -166.5v-612h-312zM395 1198l-166 51q41 141 97.5 212t156.5 71q54 0 115.5 -20t112.5 -40t80 -20q44 0 67 22.5t49 77.5l166 -51
q-38 -140 -96 -211t-158 -71q-54 0 -115.5 19.5t-112.5 39.5t-79 20q-44 0 -67.5 -22.5t-49.5 -77.5z" />
    <glyph glyph-name="ograve" unicode="&#xf2;" horiz-adv-x="1359" 
d="M678 -25q-166 0 -302 75.5t-213 205.5t-77 287v4q0 117 45.5 222t124 182t189.5 122t237 45q166 0 302 -75t213 -205t77 -287v-4q0 -156 -77 -287t-214 -208t-305 -77zM682 244q130 0 207.5 86t77.5 213v4q0 125 -81.5 214t-207.5 89q-130 0 -207.5 -86t-77.5 -213v-4
q0 -125 81.5 -214t207.5 -89zM659 1219l-266 245l269 117l227 -362h-230z" />
    <glyph glyph-name="oacute" unicode="&#xf3;" horiz-adv-x="1359" 
d="M678 -25q-166 0 -302 75.5t-213 205.5t-77 287v4q0 117 45.5 222t124 182t189.5 122t237 45q166 0 302 -75t213 -205t77 -287v-4q0 -156 -77 -287t-214 -208t-305 -77zM682 244q130 0 207.5 86t77.5 213v4q0 125 -81.5 214t-207.5 89q-130 0 -207.5 -86t-77.5 -213v-4
q0 -125 81.5 -214t207.5 -89zM487 1219l228 362l268 -117l-266 -245h-230z" />
    <glyph glyph-name="ocircumflex" unicode="&#xf4;" horiz-adv-x="1359" 
d="M678 -25q-166 0 -302 75.5t-213 205.5t-77 287v4q0 117 45.5 222t124 182t189.5 122t237 45q166 0 302 -75t213 -205t77 -287v-4q0 -156 -77 -287t-214 -208t-305 -77zM682 244q130 0 207.5 86t77.5 213v4q0 125 -81.5 214t-207.5 89q-130 0 -207.5 -86t-77.5 -213v-4
q0 -125 81.5 -214t207.5 -89zM281 1219l251 321h295l252 -321h-239l-162 135l-162 -135h-235z" />
    <glyph glyph-name="otilde" unicode="&#xf5;" horiz-adv-x="1359" 
d="M678 -25q-166 0 -302 75.5t-213 205.5t-77 287v4q0 117 45.5 222t124 182t189.5 122t237 45q166 0 302 -75t213 -205t77 -287v-4q0 -156 -77 -287t-214 -208t-305 -77zM682 244q130 0 207.5 86t77.5 213v4q0 125 -81.5 214t-207.5 89q-130 0 -207.5 -86t-77.5 -213v-4
q0 -125 81.5 -214t207.5 -89zM451 1198l-146 45q33 122 84 184t139 62q62 0 158 -35t121 -35q39 0 60 20.5t42 67.5l146 -45q-33 -122 -84 -183.5t-140 -61.5q-61 0 -157 34.5t-121 34.5q-39 0 -60 -20.5t-42 -67.5z" />
    <glyph glyph-name="odieresis" unicode="&#xf6;" horiz-adv-x="1359" 
d="M678 -25q-166 0 -302 75.5t-213 205.5t-77 287v4q0 117 45.5 222t124 182t189.5 122t237 45q166 0 302 -75t213 -205t77 -287v-4q0 -156 -77 -287t-214 -208t-305 -77zM682 244q130 0 207.5 86t77.5 213v4q0 125 -81.5 214t-207.5 89q-130 0 -207.5 -86t-77.5 -213v-4
q0 -125 81.5 -214t207.5 -89zM743 1219v276h299v-276h-299zM317 1219v276h299v-276h-299z" />
    <glyph glyph-name="divide" unicode="&#xf7;" horiz-adv-x="1310" 
d="M496 1014v295h319v-295h-319zM1171 590h-1032v262h1032v-262zM496 133v295h319v-295h-319z" />
    <glyph glyph-name="oslash" unicode="&#xf8;" horiz-adv-x="1359" 
d="M1032 1108h273l-166 -190q135 -158 135 -367v-4q0 -156 -77 -287t-214 -208t-305 -77q-160 0 -295 72l-55 -57h-273l164 188q-133 155 -133 365v4q0 117 45.5 222t124 182t189.5 122t237 45q166 0 293 -71zM385 551v-4q0 -81 33 -148l377 435q-60 24 -117 24
q-135 0 -214 -88.5t-79 -218.5zM682 236q135 0 214 88.5t79 218.5v4q0 75 -35 147l-375 -436q58 -22 117 -22z" />
    <glyph glyph-name="ugrave" unicode="&#xf9;" horiz-adv-x="1275" 
d="M504 -20q-178 0 -275.5 107.5t-97.5 299.5v711h311v-613q0 -109 49 -166t140 -57q92 0 143 57t51 166v613h312v-1098h-312v156q-64 -82 -139 -129t-182 -47zM590 1219l-266 245l268 117l227 -362h-229z" />
    <glyph glyph-name="uacute" unicode="&#xfa;" horiz-adv-x="1275" 
d="M504 -20q-178 0 -275.5 107.5t-97.5 299.5v711h311v-613q0 -109 49 -166t140 -57q92 0 143 57t51 166v613h312v-1098h-312v156q-64 -82 -139 -129t-182 -47zM438 1219l228 362l268 -117l-266 -245h-230z" />
    <glyph glyph-name="ucircumflex" unicode="&#xfb;" horiz-adv-x="1275" 
d="M504 -20q-178 0 -275.5 107.5t-97.5 299.5v711h311v-613q0 -109 49 -166t140 -57q92 0 143 57t51 166v613h312v-1098h-312v156q-64 -82 -139 -129t-182 -47zM233 1219l252 321h295l252 -321h-239l-162 135l-162 -135h-236z" />
    <glyph glyph-name="udieresis" unicode="&#xfc;" horiz-adv-x="1275" 
d="M504 -20q-178 0 -275.5 107.5t-97.5 299.5v711h311v-613q0 -109 49 -166t140 -57q92 0 143 57t51 166v613h312v-1098h-312v156q-64 -82 -139 -129t-182 -47zM696 1219v276h299v-276h-299zM270 1219v276h299v-276h-299z" />
    <glyph glyph-name="yacute" unicode="&#xfd;" horiz-adv-x="1228" 
d="M401 -334q-147 0 -276 76l104 225q71 -43 133 -43q42 0 65.5 15.5t43.5 56.5l-430 1102h330l250 -748l239 748h324l-422 -1125q-62 -168 -143 -237.5t-218 -69.5zM428 1219l227 362l269 -117l-267 -245h-229z" />
    <glyph glyph-name="thorn" unicode="&#xfe;" horiz-adv-x="1382" 
d="M139 -328v1823h312v-555q130 178 342 178q97 0 186 -37.5t159 -107.5t112 -179.5t42 -242.5v-4q0 -133 -41 -242.5t-111 -179.5t-159 -107.5t-188 -37.5q-205 0 -342 163v-471h-312zM713 244q112 0 190 84t78 219v4q0 133 -78 218t-190 85q-111 0 -189 -84.5t-78 -218.5
v-4q0 -134 78 -218.5t189 -84.5z" />
    <glyph glyph-name="ydieresis" unicode="&#xff;" horiz-adv-x="1228" 
d="M401 -334q-147 0 -276 76l104 225q71 -43 133 -43q42 0 65.5 15.5t43.5 56.5l-430 1102h330l250 -748l239 748h324l-422 -1125q-62 -168 -143 -237.5t-218 -69.5zM676 1219v276h299v-276h-299zM250 1219v276h299v-276h-299z" />
    <glyph glyph-name="Amacron" unicode="&#x100;" horiz-adv-x="1617" 
d="M49 0l615 1444h290l615 -1444h-330l-131 322h-606l-131 -322h-322zM614 600h381l-190 465zM420 1577v219h778v-219h-778z" />
    <glyph glyph-name="amacron" unicode="&#x101;" horiz-adv-x="1212" 
d="M451 -20q-163 0 -270 88.5t-107 246.5v4q0 173 119.5 262t322.5 89q135 0 268 -45v18q0 99 -59.5 150t-175.5 51q-149 0 -303 -60l-78 238q103 44 200 66t226 22q248 0 371 -123q118 -118 118 -350v-637h-301v119q-126 -139 -331 -139zM545 195q110 0 176.5 53t66.5 139
v55q-90 41 -198 41q-101 0 -158 -39t-57 -112v-4q0 -62 47 -97.5t123 -35.5zM242 1229v215h737v-215h-737z" />
    <glyph glyph-name="Abreve" unicode="&#x102;" horiz-adv-x="1617" 
d="M49 0l615 1444h290l615 -1444h-330l-131 322h-606l-131 -322h-322zM614 600h381l-190 465zM811 1542q-166 0 -269 86t-116 240h209q20 -60 61 -91.5t115 -31.5t115 31.5t61 91.5h209q-13 -154 -116 -240t-269 -86z" />
    <glyph glyph-name="abreve" unicode="&#x103;" horiz-adv-x="1212" 
d="M451 -20q-163 0 -270 88.5t-107 246.5v4q0 173 119.5 262t322.5 89q135 0 268 -45v18q0 99 -59.5 150t-175.5 51q-149 0 -303 -60l-78 238q103 44 200 66t226 22q248 0 371 -123q118 -118 118 -350v-637h-301v119q-126 -139 -331 -139zM545 195q110 0 176.5 53t66.5 139
v55q-90 41 -198 41q-101 0 -158 -39t-57 -112v-4q0 -62 47 -97.5t123 -35.5zM635 1214q-166 0 -269 86t-116 240h209q20 -60 61 -91.5t115 -31.5t115 31.5t61 91.5h209q-13 -154 -116 -240t-269 -86z" />
    <glyph glyph-name="Aogonek" unicode="&#x104;" horiz-adv-x="1617" 
d="M1583 -199v-137q-169 -24 -267.5 28t-98.5 144q0 74 67 164h-45l-131 322h-606l-131 -322h-322l615 1444h290l615 -1444h-78q-51 -56 -51 -115q0 -44 37.5 -66.5t105.5 -17.5zM614 600h381l-190 465z" />
    <glyph glyph-name="aogonek" unicode="&#x105;" horiz-adv-x="1212" 
d="M1090 -199v-137q-169 -24 -268 28t-99 144q0 73 68 164h-9v119q-126 -139 -331 -139q-163 0 -270 88.5t-107 246.5v4q0 173 119.5 262t322.5 89q135 0 268 -45v18q0 99 -59.5 150t-175.5 51q-149 0 -303 -60l-78 238q103 44 200 66t226 22q248 0 371 -123
q118 -118 118 -350v-637h-86q-51 -56 -51 -115q0 -44 38 -66.5t106 -17.5zM545 195q110 0 176.5 53t66.5 139v55q-90 41 -198 41q-101 0 -158 -39t-57 -112v-4q0 -62 47 -97.5t123 -35.5z" />
    <glyph glyph-name="Cacute" unicode="&#x106;" horiz-adv-x="1511" 
d="M844 -25q-207 0 -376 98t-264 267t-95 373v4q0 203 94 372t266 269t387 100q190 0 324 -57t241 -164l-200 -231q-91 80 -177.5 120.5t-189.5 40.5q-179 0 -297.5 -129.5t-118.5 -316.5v-4q0 -188 117.5 -319.5t298.5 -131.5q115 0 199 41t178 127l201 -203
q-119 -128 -254.5 -192t-333.5 -64zM702 1567l248 321l269 -116l-279 -205h-238z" />
    <glyph glyph-name="cacute" unicode="&#x107;" horiz-adv-x="1169" 
d="M657 -25q-161 0 -293 77t-205 207t-73 284v4q0 156 73 286t206 207.5t297 77.5q148 0 251.5 -46.5t186.5 -137.5l-191 -205q-60 62 -115.5 91.5t-134.5 29.5q-115 0 -190.5 -87t-75.5 -212v-4q0 -130 77 -216.5t202 -86.5q74 0 132 29t120 87l182 -184
q-89 -98 -192.5 -149.5t-256.5 -51.5zM526 1219l228 362l268 -117l-266 -245h-230z" />
    <glyph glyph-name="Cdotaccent" unicode="&#x10a;" horiz-adv-x="1511" 
d="M844 -25q-207 0 -376 98t-264 267t-95 373v4q0 203 94 372t266 269t387 100q190 0 324 -57t241 -164l-200 -231q-91 80 -177.5 120.5t-189.5 40.5q-179 0 -297.5 -129.5t-118.5 -316.5v-4q0 -188 117.5 -319.5t298.5 -131.5q115 0 199 41t178 127l201 -203
q-119 -128 -254.5 -192t-333.5 -64zM676 1567v260h307v-260h-307z" />
    <glyph glyph-name="cdotaccent" unicode="&#x10b;" horiz-adv-x="1169" 
d="M657 -25q-161 0 -293 77t-205 207t-73 284v4q0 156 73 286t206 207.5t297 77.5q148 0 251.5 -46.5t186.5 -137.5l-191 -205q-60 62 -115.5 91.5t-134.5 29.5q-115 0 -190.5 -87t-75.5 -212v-4q0 -130 77 -216.5t202 -86.5q74 0 132 29t120 87l182 -184
q-89 -98 -192.5 -149.5t-256.5 -51.5zM496 1219v276h307v-276h-307z" />
    <glyph glyph-name="Ccaron" unicode="&#x10c;" horiz-adv-x="1511" 
d="M844 -25q-207 0 -376 98t-264 267t-95 373v4q0 203 94 372t266 269t387 100q190 0 324 -57t241 -164l-200 -231q-91 80 -177.5 120.5t-189.5 40.5q-179 0 -297.5 -129.5t-118.5 -316.5v-4q0 -188 117.5 -319.5t298.5 -131.5q115 0 199 41t178 127l201 -203
q-119 -128 -254.5 -192t-333.5 -64zM1239 1868l-262 -301h-295l-262 301h250l161 -115l162 115h246z" />
    <glyph glyph-name="ccaron" unicode="&#x10d;" horiz-adv-x="1169" 
d="M657 -25q-161 0 -293 77t-205 207t-73 284v4q0 156 73 286t206 207.5t297 77.5q148 0 251.5 -46.5t186.5 -137.5l-191 -205q-60 62 -115.5 91.5t-134.5 29.5q-115 0 -190.5 -87t-75.5 -212v-4q0 -130 77 -216.5t202 -86.5q74 0 132 29t120 87l182 -184
q-89 -98 -192.5 -149.5t-256.5 -51.5zM1049 1540l-252 -321h-295l-252 321h239l162 -135l162 135h236z" />
    <glyph glyph-name="Dcaron" unicode="&#x10e;" horiz-adv-x="1601" 
d="M172 0v1434h559q166 0 309 -55t242 -150t155 -226.5t56 -281.5v-4q0 -150 -56 -282t-155 -228t-242 -151.5t-309 -55.5h-559zM487 285h244q192 0 312 119t120 309v4q0 191 -120 311.5t-312 120.5h-244v-864zM1184 1847l-262 -301h-295l-262 301h249l162 -114l162 114h246
z" />
    <glyph glyph-name="dcaron" unicode="&#x10f;" horiz-adv-x="1382" 
d="M590 -20q-97 0 -186 37.5t-159.5 107.5t-112.5 179.5t-42 242.5v4q0 133 41.5 242.5t111.5 179.5t159 107.5t188 37.5q204 0 342 -164v541h311v-1495h-311v158q-130 -178 -342 -178zM670 244q111 0 188.5 84.5t77.5 218.5v4q0 134 -77.5 218.5t-188.5 84.5
q-112 0 -190.5 -84.5t-78.5 -218.5v-4q0 -133 78.5 -218t190.5 -85zM1346 1069l20 426h223v-6l-121 -420h-122z" />
    <glyph glyph-name="Dcroat" unicode="&#x110;" horiz-adv-x="1662" 
d="M233 0v582h-153v278h153v574h560q166 0 308.5 -55t241.5 -150t155 -226.5t56 -281.5v-4q0 -150 -56 -282t-155 -228t-241.5 -151.5t-308.5 -55.5h-560zM545 285h248q192 0 312 119t120 309v4q0 191 -120 311.5t-312 120.5h-248v-289h311v-278h-311v-297z" />
    <glyph glyph-name="dcroat" unicode="&#x111;" horiz-adv-x="1382" 
d="M614 1214v175h318v106h311v-106h139v-175h-139v-1214h-311v158q-130 -178 -342 -178q-97 0 -186 37.5t-159.5 107.5t-112.5 179.5t-42 242.5v4q0 133 41.5 242.5t111.5 179.5t159 107.5t188 37.5q204 0 342 -164v260h-318zM670 244q111 0 188.5 84.5t77.5 218.5v4
q0 134 -77.5 218.5t-188.5 84.5q-112 0 -190.5 -84.5t-78.5 -218.5v-4q0 -133 78.5 -218t190.5 -85z" />
    <glyph glyph-name="Emacron" unicode="&#x112;" horiz-adv-x="1372" 
d="M172 0v1434h1081v-281h-768v-291h676v-280h-676v-301h779v-281h-1092zM328 1556v220h778v-220h-778z" />
    <glyph glyph-name="emacron" unicode="&#x113;" horiz-adv-x="1255" 
d="M659 -25q-249 0 -411 159t-162 409v4q0 156 68.5 286t193.5 207.5t281 77.5q133 0 237.5 -49t168 -133t96 -189.5t32.5 -224.5q0 -20 -4 -82h-764q23 -105 93.5 -160t175.5 -55q77 0 138 26t128 87l178 -158q-165 -205 -449 -205zM391 635h469q-14 107 -74.5 170
t-156.5 63t-157.5 -62.5t-80.5 -170.5zM256 1229v215h737v-215h-737z" />
    <glyph glyph-name="Ebreve" unicode="&#x114;" horiz-adv-x="1372" 
d="M172 0v1434h1081v-281h-768v-291h676v-280h-676v-301h779v-281h-1092zM717 1542q-167 0 -271.5 79.5t-117.5 225.5h213q20 -50 60.5 -75t115.5 -25t115.5 25t60.5 75h213q-13 -146 -117.5 -225.5t-271.5 -79.5z" />
    <glyph glyph-name="ebreve" unicode="&#x115;" horiz-adv-x="1255" 
d="M659 -25q-249 0 -411 159t-162 409v4q0 156 68.5 286t193.5 207.5t281 77.5q133 0 237.5 -49t168 -133t96 -189.5t32.5 -224.5q0 -20 -4 -82h-764q23 -105 93.5 -160t175.5 -55q77 0 138 26t128 87l178 -158q-165 -205 -449 -205zM391 635h469q-14 107 -74.5 170
t-156.5 63t-157.5 -62.5t-80.5 -170.5zM625 1214q-166 0 -269 86t-116 240h209q20 -60 61 -91.5t115 -31.5t115 31.5t61 91.5h209q-13 -154 -116 -240t-269 -86z" />
    <glyph glyph-name="Edotaccent" unicode="&#x116;" horiz-adv-x="1372" 
d="M172 0v1434h1081v-281h-768v-291h676v-280h-676v-301h779v-281h-1092zM563 1546v260h307v-260h-307z" />
    <glyph glyph-name="edotaccent" unicode="&#x117;" horiz-adv-x="1255" 
d="M659 -25q-249 0 -411 159t-162 409v4q0 156 68.5 286t193.5 207.5t281 77.5q133 0 237.5 -49t168 -133t96 -189.5t32.5 -224.5q0 -20 -4 -82h-764q23 -105 93.5 -160t175.5 -55q77 0 138 26t128 87l178 -158q-165 -205 -449 -205zM391 635h469q-14 107 -74.5 170
t-156.5 63t-157.5 -62.5t-80.5 -170.5zM471 1219v276h307v-276h-307z" />
    <glyph glyph-name="Eogonek" unicode="&#x118;" horiz-adv-x="1372" 
d="M172 0v1434h1081v-281h-768v-291h676v-280h-676v-301h779v-281h-93q-51 -56 -51 -115q0 -44 38 -66.5t106 -17.5v-137q-169 -24 -268 28t-99 144q0 73 68 164h-793z" />
    <glyph glyph-name="eogonek" unicode="&#x119;" horiz-adv-x="1255" 
d="M391 635h469q-14 107 -74.5 170t-156.5 63t-157.5 -62.5t-80.5 -170.5zM983 53q-94 -88 -94 -157q0 -105 143 -95v-137q-168 -23 -267 27t-99 135q0 67 65 154q-45 -5 -72 -5q-249 0 -411 159t-162 409v4q0 156 68.5 286t193.5 207.5t281 77.5q133 0 237.5 -49t168 -133
t96 -189.5t32.5 -224.5q0 -20 -4 -82h-764q23 -105 93.5 -160t175.5 -55q77 0 138 26t128 87l178 -158q-74 -81 -125 -127z" />
    <glyph glyph-name="Ecaron" unicode="&#x11a;" horiz-adv-x="1372" 
d="M172 0v1434h1081v-281h-768v-291h676v-280h-676v-301h779v-281h-1092zM1126 1847l-262 -301h-295l-262 301h250l162 -114l162 114h245z" />
    <glyph glyph-name="ecaron" unicode="&#x11b;" horiz-adv-x="1255" 
d="M659 -25q-249 0 -411 159t-162 409v4q0 156 68.5 286t193.5 207.5t281 77.5q133 0 237.5 -49t168 -133t96 -189.5t32.5 -224.5q0 -20 -4 -82h-764q23 -105 93.5 -160t175.5 -55q77 0 138 26t128 87l178 -158q-165 -205 -449 -205zM391 635h469q-14 107 -74.5 170
t-156.5 63t-157.5 -62.5t-80.5 -170.5zM1024 1540l-252 -321h-295l-252 321h240l162 -135l161 135h236z" />
    <glyph glyph-name="Gbreve" unicode="&#x11e;" horiz-adv-x="1605" 
d="M862 -25q-220 0 -392 95.5t-266.5 263.5t-94.5 379v4q0 151 57 287.5t155.5 236.5t239 158.5t299.5 58.5q185 0 316.5 -48t246.5 -148l-198 -240q-88 74 -173 109.5t-202 35.5q-171 0 -291.5 -131t-120.5 -315v-4q0 -197 122 -326t312 -129q176 0 297 86v205h-317v272
h623v-622q-268 -228 -613 -228zM844 1563q-167 0 -271.5 79.5t-117.5 225.5h213q20 -50 60.5 -75.5t115.5 -25.5t115.5 25.5t60.5 75.5h213q-13 -146 -117.5 -225.5t-271.5 -79.5z" />
    <glyph glyph-name="gbreve" unicode="&#x11f;" horiz-adv-x="1382" 
d="M631 -332q-270 0 -486 115l107 233q92 -50 179 -75t192 -25q313 0 313 299v53q-73 -90 -156 -134t-202 -44q-97 0 -184.5 34.5t-155.5 98t-108 162t-40 217.5v4q0 119 40.5 217.5t109 162t156 98t182.5 34.5q118 0 200 -42.5t154 -121.5v144h311v-850q0 -293 -139 -432
q-148 -148 -473 -148zM668 348q116 0 192 71t76 183v4q0 112 -76 183t-192 71q-115 0 -191 -71t-76 -183v-4q0 -114 75 -184t192 -70zM707 1214q-166 0 -269 86t-116 240h208q20 -60 61.5 -91.5t115.5 -31.5t115 31.5t61 91.5h209q-13 -154 -116 -240t-269 -86z" />
    <glyph glyph-name="Gdotaccent" unicode="&#x120;" horiz-adv-x="1605" 
d="M862 -25q-220 0 -392 95.5t-266.5 263.5t-94.5 379v4q0 151 57 287.5t155.5 236.5t239 158.5t299.5 58.5q185 0 316.5 -48t246.5 -148l-198 -240q-88 74 -173 109.5t-202 35.5q-171 0 -291.5 -131t-120.5 -315v-4q0 -197 122 -326t312 -129q176 0 297 86v205h-317v272
h623v-622q-268 -228 -613 -228zM690 1567v260h307v-260h-307z" />
    <glyph glyph-name="gdotaccent" unicode="&#x121;" horiz-adv-x="1382" 
d="M631 -332q-270 0 -486 115l107 233q92 -50 179 -75t192 -25q313 0 313 299v53q-73 -90 -156 -134t-202 -44q-97 0 -184.5 34.5t-155.5 98t-108 162t-40 217.5v4q0 119 40.5 217.5t109 162t156 98t182.5 34.5q118 0 200 -42.5t154 -121.5v144h311v-850q0 -293 -139 -432
q-148 -148 -473 -148zM668 348q116 0 192 71t76 183v4q0 112 -76 183t-192 71q-115 0 -191 -71t-76 -183v-4q0 -114 75 -184t192 -70zM553 1219v276h307v-276h-307z" />
    <glyph glyph-name="Gcommaaccent" unicode="&#x122;" horiz-adv-x="1605" 
d="M862 -25q-220 0 -392 95.5t-266.5 263.5t-94.5 379v4q0 151 57 287.5t155.5 236.5t239 158.5t299.5 58.5q185 0 316.5 -48t246.5 -148l-198 -240q-88 74 -173 109.5t-202 35.5q-171 0 -291.5 -131t-120.5 -315v-4q0 -197 122 -326t312 -129q176 0 297 86v205h-317v272
h623v-622q-268 -228 -613 -228zM694 -608l-16 94q83 7 122 44t34 103h-132v236h283v-199q0 -143 -72.5 -208t-218.5 -70z" />
    <glyph glyph-name="gcommaaccent" unicode="&#x123;" horiz-adv-x="1382" 
d="M631 -332q-270 0 -486 115l107 233q92 -50 179 -75t192 -25q313 0 313 299v53q-73 -90 -156 -134t-202 -44q-97 0 -184.5 34.5t-155.5 98t-108 162t-40 217.5v4q0 119 40.5 217.5t109 162t156 98t182.5 34.5q118 0 200 -42.5t154 -121.5v144h311v-850q0 -293 -139 -432
q-148 -148 -473 -148zM668 348q116 0 192 71t76 183v4q0 112 -76 183t-192 71q-115 0 -191 -71t-76 -183v-4q0 -114 75 -184t192 -70zM850 1696l16 -94q-83 -7 -121.5 -44.5t-33.5 -103.5h131v-235h-283v198q0 144 72.5 209t218.5 70z" />
    <glyph glyph-name="Hbar" unicode="&#x126;" horiz-adv-x="1556" 
d="M29 1049v215h143v170h315v-170h582v170h315v-170h144v-215h-144v-1049h-315v575h-582v-575h-315v1049h-143zM487 866h582v187h-582v-187z" />
    <glyph glyph-name="hbar" unicode="&#x127;" horiz-adv-x="1275" 
d="M768 1214h-317v-272q64 82 139 129t182 47q178 0 275.5 -107.5t97.5 -299.5v-711h-311v612q0 110 -49 167t-140 57q-92 0 -143 -57.5t-51 -166.5v-612h-312v1214h-139v175h139v106h312v-106h317v-175z" />
    <glyph glyph-name="Itilde" unicode="&#x128;" horiz-adv-x="688" 
d="M125 1556l-145 46q33 122 84 183.5t139 61.5q61 0 157 -34.5t121 -34.5q39 0 61 20.5t42 67.5l145 -45q-33 -122 -84 -184t-139 -62q-62 0 -158 35t-121 35q-39 0 -60 -21t-42 -68zM186 0v1434h316v-1434h-316z" />
    <glyph glyph-name="itilde" unicode="&#x129;" horiz-adv-x="618" 
d="M154 0v1098h311v-1098h-311zM88 1198l-145 45q33 122 84 184t139 62q62 0 157 -35t121 -35q39 0 61 20.5t42 67.5l145 -45q-33 -122 -84 -183.5t-139 -61.5q-61 0 -157 34.5t-122 34.5q-39 0 -60 -20.5t-42 -67.5z" />
    <glyph glyph-name="Imacron" unicode="&#x12a;" horiz-adv-x="688" 
d="M186 0v1434h316v-1434h-316zM-45 1556v220h778v-220h-778z" />
    <glyph glyph-name="imacron" unicode="&#x12b;" horiz-adv-x="618" 
d="M154 0v1098h311v-1098h-311zM-59 1229v215h737v-215h-737z" />
    <glyph glyph-name="Ibreve" unicode="&#x12c;" horiz-adv-x="688" 
d="M186 0v1434h316v-1434h-316zM344 1542q-167 0 -271.5 79.5t-117.5 225.5h213q20 -50 60.5 -75t115.5 -25t115.5 25t60.5 75h213q-13 -146 -117.5 -225.5t-271.5 -79.5z" />
    <glyph glyph-name="ibreve" unicode="&#x12d;" horiz-adv-x="618" 
d="M154 0v1098h311v-1098h-311zM309 1214q-166 0 -269 86t-116 240h209q20 -60 61 -91.5t115 -31.5t115 31.5t61 91.5h209q-13 -154 -116 -240t-269 -86z" />
    <glyph glyph-name="Iogonek" unicode="&#x12e;" horiz-adv-x="688" 
d="M186 0v1434h316v-1434h-60q-51 -56 -51 -115q0 -44 38 -66.5t106 -17.5v-137q-169 -24 -268 28t-99 144q0 73 68 164h-50z" />
    <glyph glyph-name="iogonek" unicode="&#x12f;" horiz-adv-x="618" 
d="M154 0v1098h311v-1098h-57q-52 -57 -52 -115q0 -44 38 -66.5t106 -17.5v-137q-169 -24 -268 28t-99 144q0 73 68 164h-47zM145 1219v276h328v-276h-328z" />
    <glyph glyph-name="Idotaccent" unicode="&#x130;" horiz-adv-x="688" 
d="M186 0v1434h316v-1434h-316zM190 1546v260h308v-260h-308z" />
    <glyph glyph-name="dotlessi" unicode="&#x131;" horiz-adv-x="618" 
d="M154 0v1098h311v-1098h-311z" />
    <glyph glyph-name="Kcommaaccent" unicode="&#x136;" horiz-adv-x="1495" 
d="M172 0v1434h315v-627l582 627h381l-584 -609l611 -825h-379l-445 610l-166 -172v-438h-315zM600 -588l-16 94q83 7 121.5 44.5t33.5 103.5h-131v235h283v-198q0 -144 -72.5 -209t-218.5 -70z" />
    <glyph glyph-name="kcommaaccent" unicode="&#x137;" horiz-adv-x="1212" 
d="M139 0v1495h312v-797l364 400h373l-418 -432l432 -666h-356l-287 449l-108 -115v-334h-312zM479 -598l-16 94q83 7 121.5 44.5t33.5 103.5h-131v235h283v-198q0 -144 -72.5 -209t-218.5 -70z" />
    <glyph glyph-name="Lacute" unicode="&#x139;" horiz-adv-x="1267" 
d="M172 0v1434h315v-1147h715v-287h-1030zM244 1546l248 322l268 -117l-279 -205h-237z" />
    <glyph glyph-name="lacute" unicode="&#x13a;" horiz-adv-x="618" 
d="M154 0v1495h311v-1495h-311zM190 1577l248 321l269 -116l-279 -205h-238z" />
    <glyph glyph-name="Lcommaaccent" unicode="&#x13b;" horiz-adv-x="1267" 
d="M172 0v1434h315v-1147h715v-287h-1030zM537 -598l-17 94q83 7 122 44.5t34 103.5h-131v235h282v-198q0 -144 -72 -209t-218 -70z" />
    <glyph glyph-name="lcommaaccent" unicode="&#x13c;" horiz-adv-x="618" 
d="M154 0v1495h311v-1495h-311zM160 -598l-17 94q83 7 122 44.5t34 103.5h-131v235h283v-198q0 -144 -72.5 -209t-218.5 -70z" />
    <glyph glyph-name="Lcaron" unicode="&#x13d;" horiz-adv-x="1267" 
d="M172 0v1434h315v-1147h715v-287h-1030zM629 1008l20 426h223v-7l-120 -419h-123z" />
    <glyph glyph-name="lcaron" unicode="&#x13e;" horiz-adv-x="618" 
d="M154 0v1495h311v-1495h-311zM567 1069l21 426h223v-6l-121 -420h-123z" />
    <glyph glyph-name="Ldot" unicode="&#x13f;" horiz-adv-x="1267" 
d="M842 645v277h295v-277h-295zM172 0v1434h315v-1147h715v-287h-1030z" />
    <glyph glyph-name="ldot" unicode="&#x140;" horiz-adv-x="802" 
d="M588 647v256h246v-256h-246zM154 0v1495h311v-1495h-311z" />
    <glyph glyph-name="Lslash" unicode="&#x141;" horiz-adv-x="1329" 
d="M850 770l-305 -135v-348h719v-287h-1031v498l-153 -68v295l153 68v641h312v-504l305 135v-295z" />
    <glyph glyph-name="lslash" unicode="&#x142;" horiz-adv-x="741" 
d="M680 772l-156 -78v-694h-307v541l-156 -76v293l156 76v661h307v-508l156 78v-293z" />
    <glyph glyph-name="Nacute" unicode="&#x143;" horiz-adv-x="1617" 
d="M172 0v1434h291l672 -883v883h311v-1434h-268l-695 911v-911h-311zM682 1546l248 322l268 -117l-278 -205h-238z" />
    <glyph glyph-name="nacute" unicode="&#x144;" horiz-adv-x="1275" 
d="M139 0v1098h312v-156q64 82 139 129t182 47q178 0 275.5 -107.5t97.5 -299.5v-711h-311v612q0 110 -49 167t-140 57q-92 0 -143 -57.5t-51 -166.5v-612h-312zM518 1219l227 362l269 -117l-266 -245h-230z" />
    <glyph glyph-name="Ncommaaccent" unicode="&#x145;" horiz-adv-x="1617" 
d="M172 0v1434h291l672 -883v883h311v-1434h-268l-695 911v-911h-311zM659 -588l-16 94q83 7 122 44.5t34 103.5h-131v235h282v-198q0 -144 -72.5 -209t-218.5 -70z" />
    <glyph glyph-name="ncommaaccent" unicode="&#x146;" horiz-adv-x="1275" 
d="M139 0v1098h312v-156q64 82 139 129t182 47q178 0 275.5 -107.5t97.5 -299.5v-711h-311v612q0 110 -49 167t-140 57q-92 0 -143 -57.5t-51 -166.5v-612h-312zM492 -598l-17 94q83 7 122 44.5t34 103.5h-131v235h282v-198q0 -144 -72 -209t-218 -70z" />
    <glyph glyph-name="Ncaron" unicode="&#x147;" horiz-adv-x="1617" 
d="M172 0v1434h291l672 -883v883h311v-1434h-268l-695 911v-911h-311zM1219 1847l-263 -301h-294l-263 301h250l162 -114l162 114h246z" />
    <glyph glyph-name="ncaron" unicode="&#x148;" horiz-adv-x="1275" 
d="M139 0v1098h312v-156q64 82 139 129t182 47q178 0 275.5 -107.5t97.5 -299.5v-711h-311v612q0 110 -49 167t-140 57q-92 0 -143 -57.5t-51 -166.5v-612h-312zM1040 1540l-252 -321h-294l-252 321h239l162 -135l162 135h235z" />
    <glyph glyph-name="Omacron" unicode="&#x14c;" horiz-adv-x="1740" 
d="M868 -25q-162 0 -304.5 58t-241.5 157.5t-156 235.5t-57 287v4q0 151 57.5 287.5t157.5 236.5t243 158.5t305 58.5q216 0 391 -99t272 -267.5t97 -370.5v-4q0 -151 -58 -287.5t-158 -236.5t-243 -159t-305 -59zM872 266q124 0 223.5 60.5t153.5 162.5t54 224v4
q0 187 -123.5 318.5t-311.5 131.5q-124 0 -223 -60t-153 -162t-54 -224v-4q0 -122 55 -225t155 -164.5t224 -61.5zM481 1577v219h779v-219h-779z" />
    <glyph glyph-name="omacron" unicode="&#x14d;" horiz-adv-x="1359" 
d="M678 -25q-166 0 -302 75.5t-213 205.5t-77 287v4q0 117 45.5 222t124 182t189.5 122t237 45q166 0 302 -75t213 -205t77 -287v-4q0 -156 -77 -287t-214 -208t-305 -77zM682 244q130 0 207.5 86t77.5 213v4q0 125 -81.5 214t-207.5 89q-130 0 -207.5 -86t-77.5 -213v-4
q0 -125 81.5 -214t207.5 -89zM311 1229v215h738v-215h-738z" />
    <glyph glyph-name="Obreve" unicode="&#x14e;" horiz-adv-x="1740" 
d="M868 -25q-162 0 -304.5 58t-241.5 157.5t-156 235.5t-57 287v4q0 151 57.5 287.5t157.5 236.5t243 158.5t305 58.5q216 0 391 -99t272 -267.5t97 -370.5v-4q0 -151 -58 -287.5t-158 -236.5t-243 -159t-305 -59zM872 266q124 0 223.5 60.5t153.5 162.5t54 224v4
q0 187 -123.5 318.5t-311.5 131.5q-124 0 -223 -60t-153 -162t-54 -224v-4q0 -122 55 -225t155 -164.5t224 -61.5zM870 1563q-167 0 -271.5 79.5t-117.5 225.5h213q20 -50 60.5 -75.5t115.5 -25.5t116 25.5t61 75.5h213q-13 -146 -118 -225.5t-272 -79.5z" />
    <glyph glyph-name="obreve" unicode="&#x14f;" horiz-adv-x="1359" 
d="M678 -25q-166 0 -302 75.5t-213 205.5t-77 287v4q0 117 45.5 222t124 182t189.5 122t237 45q166 0 302 -75t213 -205t77 -287v-4q0 -156 -77 -287t-214 -208t-305 -77zM682 244q130 0 207.5 86t77.5 213v4q0 125 -81.5 214t-207.5 89q-130 0 -207.5 -86t-77.5 -213v-4
q0 -125 81.5 -214t207.5 -89zM680 1214q-166 0 -269 86t-116 240h209q20 -60 61 -91.5t115 -31.5t115 31.5t61 91.5h209q-13 -154 -116 -240t-269 -86z" />
    <glyph glyph-name="Ohungarumlaut" unicode="&#x150;" horiz-adv-x="1740" 
d="M868 -25q-162 0 -304.5 58t-241.5 157.5t-156 235.5t-57 287v4q0 151 57.5 287.5t157.5 236.5t243 158.5t305 58.5q216 0 391 -99t272 -267.5t97 -370.5v-4q0 -151 -58 -287.5t-158 -236.5t-243 -159t-305 -59zM872 266q124 0 223.5 60.5t153.5 162.5t54 224v4
q0 187 -123.5 318.5t-311.5 131.5q-124 0 -223 -60t-153 -162t-54 -224v-4q0 -122 55 -225t155 -164.5t224 -61.5zM537 1567l247 321l258 -116l-278 -205h-227zM926 1567l248 321l258 -116l-279 -205h-227z" />
    <glyph glyph-name="ohungarumlaut" unicode="&#x151;" horiz-adv-x="1359" 
d="M678 -25q-166 0 -302 75.5t-213 205.5t-77 287v4q0 117 45.5 222t124 182t189.5 122t237 45q166 0 302 -75t213 -205t77 -287v-4q0 -156 -77 -287t-214 -208t-305 -77zM682 244q130 0 207.5 86t77.5 213v4q0 125 -81.5 214t-207.5 89q-130 0 -207.5 -86t-77.5 -213v-4
q0 -125 81.5 -214t207.5 -89zM735 1219l228 362l262 -117l-271 -245h-219zM356 1219l224 362l262 -117l-267 -245h-219z" />
    <glyph glyph-name="OE" unicode="&#x152;" horiz-adv-x="2201" 
d="M2093 0h-1223q-166 0 -308.5 55t-241.5 150t-155 226.5t-56 281.5v4q0 150 56 282t155 228t241.5 151.5t308.5 55.5h1213v-281h-717v-291h625v-280h-625v-301h727v-281zM870 285h183v864h-183q-193 0 -312.5 -118.5t-119.5 -309.5v-4q0 -191 119.5 -311.5t312.5 -120.5z
" />
    <glyph glyph-name="oe" unicode="&#x153;" horiz-adv-x="2115" 
d="M659 -25q-154 0 -286 75t-209.5 206.5t-77.5 286.5v4q0 155 78 286.5t213 208t295 76.5q127 0 232.5 -47.5t180.5 -134.5q73 87 177 134.5t227 47.5q133 0 237.5 -49t168 -133t96 -189.5t32.5 -224.5q0 -20 -4 -82h-764q23 -105 93.5 -160t175.5 -55q77 0 138 26t128 87
l178 -158q-165 -205 -448 -205q-133 0 -246.5 49t-192.5 138q-76 -88 -185.5 -137.5t-236.5 -49.5zM1251 635h469q-14 107 -74.5 170t-156.5 63t-157.5 -62.5t-80.5 -170.5zM672 244q125 0 199.5 86t74.5 213v4q0 124 -79 213.5t-199 89.5q-124 0 -199.5 -87.5t-75.5 -211.5
v-4q0 -124 79.5 -213.5t199.5 -89.5z" />
    <glyph glyph-name="Racute" unicode="&#x154;" horiz-adv-x="1480" 
d="M172 0v1434h655q272 0 418 -146q123 -123 123 -327v-5q0 -167 -82 -279t-225 -165l350 -512h-369l-307 459h-248v-459h-315zM487 737h320q115 0 178.5 54.5t63.5 148.5v4q0 101 -64.5 153t-183.5 52h-314v-412zM596 1546l248 322l268 -117l-278 -205h-238z" />
    <glyph glyph-name="racute" unicode="&#x155;" horiz-adv-x="856" 
d="M139 0v1098h312v-221q51 121 134.5 184t215.5 57v-325h-17q-159 0 -246 -96.5t-87 -290.5v-406h-312zM346 1219l227 362l269 -117l-267 -245h-229z" />
    <glyph glyph-name="Rcommaaccent" unicode="&#x156;" horiz-adv-x="1480" 
d="M172 0v1434h655q272 0 418 -146q123 -123 123 -327v-5q0 -167 -82 -279t-225 -165l350 -512h-369l-307 459h-248v-459h-315zM487 737h320q115 0 178.5 54.5t63.5 148.5v4q0 101 -64.5 153t-183.5 52h-314v-412zM573 -588l-16 94q83 7 122 44.5t34 103.5h-131v235h282
v-198q0 -144 -72.5 -209t-218.5 -70z" />
    <glyph glyph-name="rcommaaccent" unicode="&#x157;" horiz-adv-x="856" 
d="M139 0v1098h312v-221q51 121 134.5 184t215.5 57v-325h-17q-159 0 -246 -96.5t-87 -290.5v-406h-312zM158 -598l-17 94q83 7 122 44.5t34 103.5h-131v235h283v-198q0 -144 -72.5 -209t-218.5 -70z" />
    <glyph glyph-name="Rcaron" unicode="&#x158;" horiz-adv-x="1480" 
d="M172 0v1434h655q272 0 418 -146q123 -123 123 -327v-5q0 -167 -82 -279t-225 -165l350 -512h-369l-307 459h-248v-459h-315zM487 737h320q115 0 178.5 54.5t63.5 148.5v4q0 101 -64.5 153t-183.5 52h-314v-412zM1133 1847l-263 -301h-295l-262 301h250l162 -114l162 114
h246z" />
    <glyph glyph-name="rcaron" unicode="&#x159;" horiz-adv-x="856" 
d="M139 0v1098h312v-221q51 121 134.5 184t215.5 57v-325h-17q-159 0 -246 -96.5t-87 -290.5v-406h-312zM868 1540l-252 -321h-294l-252 321h239l162 -135l162 135h235z" />
    <glyph glyph-name="Sacute" unicode="&#x15a;" horiz-adv-x="1310" 
d="M682 -20q-169 0 -325.5 57.5t-282.5 171.5l186 223q105 -85 208 -129.5t220 -44.5q98 0 152.5 36t54.5 99v4q0 42 -22 70.5t-85 56t-182 56.5q-96 24 -162 46.5t-130 57.5t-101 78.5t-59.5 108t-22.5 147.5v4q0 194 139.5 313t362.5 119q303 0 532 -182l-164 -238
q-208 142 -372 142q-89 0 -137 -34.5t-48 -90.5v-4q0 -70 58.5 -104t251.5 -85q116 -31 195 -65.5t140 -84.5t90 -119t29 -161v-4q0 -209 -144.5 -326.5t-381.5 -117.5zM537 1567l247 321l269 -116l-279 -205h-237z" />
    <glyph glyph-name="sacute" unicode="&#x15b;" horiz-adv-x="1028" 
d="M524 -20q-260 0 -471 165l133 205q180 -131 346 -131q66 0 99 22t33 60v4q0 14 -5.5 26t-19 22t-26.5 18t-37 16.5t-41 14t-48.5 15t-50.5 15.5q-53 15 -94 30.5t-87 43t-76 61t-50 84t-20 111.5v4q0 162 114.5 255t286.5 93q104 0 211.5 -33.5t198.5 -93.5l-119 -215
q-176 102 -297 102q-55 0 -85 -21t-30 -54v-4q0 -27 34 -52t75.5 -41t113.5 -38q54 -17 94.5 -33.5t88 -44.5t78 -60.5t51 -81t20.5 -106.5v-4q0 -175 -116 -264.5t-304 -89.5zM397 1219l228 362l268 -117l-266 -245h-230z" />
    <glyph glyph-name="Scedilla" unicode="&#x15e;" horiz-adv-x="1310" 
d="M645 -354l-260 108l160 236q-271 39 -471 219l186 223q105 -85 208 -129.5t220 -44.5q98 0 152.5 36t54.5 99v4q0 42 -22 70.5t-85 56t-182 56.5q-96 24 -162 46.5t-130 57.5t-101 78.5t-59.5 108t-22.5 147.5v4q0 194 139.5 313t362.5 119q303 0 532 -182l-164 -238
q-208 142 -372 142q-89 0 -137 -34.5t-48 -90.5v-4q0 -70 58.5 -104t251.5 -85q116 -31 195 -65.5t140 -84.5t90 -119t29 -161v-4q0 -187 -115 -299.5t-311 -138.5z" />
    <glyph glyph-name="scedilla" unicode="&#x15f;" horiz-adv-x="1028" 
d="M483 -354l-260 108l164 240q-191 38 -334 151l133 205q180 -131 346 -131q66 0 99 22t33 60v4q0 14 -5.5 26t-19 22t-26.5 18t-37 16.5t-41 14t-48.5 15t-50.5 15.5q-53 15 -94 30.5t-87 43t-76 61t-50 84t-20 111.5v4q0 162 114.5 255t286.5 93q104 0 211.5 -33.5
t198.5 -93.5l-119 -215q-176 102 -297 102q-55 0 -85 -21t-30 -54v-4q0 -27 34 -52t75.5 -41t113.5 -38q54 -17 94.5 -33.5t88 -44.5t78 -60.5t51 -81t20.5 -106.5v-4q0 -152 -87.5 -239.5t-235.5 -108.5z" />
    <glyph glyph-name="Scaron" unicode="&#x160;" horiz-adv-x="1310" 
d="M682 -20q-169 0 -325.5 57.5t-282.5 171.5l186 223q105 -85 208 -129.5t220 -44.5q98 0 152.5 36t54.5 99v4q0 42 -22 70.5t-85 56t-182 56.5q-96 24 -162 46.5t-130 57.5t-101 78.5t-59.5 108t-22.5 147.5v4q0 194 139.5 313t362.5 119q303 0 532 -182l-164 -238
q-208 142 -372 142q-89 0 -137 -34.5t-48 -90.5v-4q0 -70 58.5 -104t251.5 -85q116 -31 195 -65.5t140 -84.5t90 -119t29 -161v-4q0 -209 -144.5 -326.5t-381.5 -117.5zM1073 1868l-262 -301h-295l-262 301h250l162 -115l161 115h246z" />
    <glyph glyph-name="scaron" unicode="&#x161;" horiz-adv-x="1028" 
d="M524 -20q-260 0 -471 165l133 205q180 -131 346 -131q66 0 99 22t33 60v4q0 14 -5.5 26t-19 22t-26.5 18t-37 16.5t-41 14t-48.5 15t-50.5 15.5q-53 15 -94 30.5t-87 43t-76 61t-50 84t-20 111.5v4q0 162 114.5 255t286.5 93q104 0 211.5 -33.5t198.5 -93.5l-119 -215
q-176 102 -297 102q-55 0 -85 -21t-30 -54v-4q0 -27 34 -52t75.5 -41t113.5 -38q54 -17 94.5 -33.5t88 -44.5t78 -60.5t51 -81t20.5 -106.5v-4q0 -175 -116 -264.5t-304 -89.5zM920 1540l-252 -321h-295l-252 321h239l162 -135l162 135h236z" />
    <glyph glyph-name="Tcommaaccent" unicode="&#x162;" horiz-adv-x="1327" 
d="M506 0v1143h-436v291h1187v-291h-436v-1143h-315zM514 -598l-16 94q83 7 121.5 44.5t33.5 103.5h-131v235h283v-198q0 -144 -72.5 -209t-218.5 -70z" />
    <glyph glyph-name="tcommaaccent" unicode="&#x163;" horiz-adv-x="849" 
d="M510 -18q-153 0 -236.5 74.5t-83.5 254.5v520h-131v267h131v280h312v-280h258v-267h-258v-469q0 -106 100 -106q86 0 154 39v-250q-107 -63 -246 -63zM305 -598l-16 94q83 7 121.5 44.5t33.5 103.5h-131v235h283v-198q0 -144 -72.5 -209t-218.5 -70z" />
    <glyph glyph-name="Tcaron" unicode="&#x164;" horiz-adv-x="1327" 
d="M506 0v1143h-436v291h1187v-291h-436v-1143h-315zM1073 1847l-262 -301h-295l-262 301h250l162 -114l161 114h246z" />
    <glyph glyph-name="tcaron" unicode="&#x165;" horiz-adv-x="849" 
d="M510 -18q-153 0 -236.5 74.5t-83.5 254.5v520h-131v267h131v280h312v-280h258v-267h-258v-469q0 -106 100 -106q86 0 154 39v-250q-107 -63 -246 -63zM633 1212l20 426h224v-6l-121 -420h-123z" />
    <glyph glyph-name="Utilde" unicode="&#x168;" horiz-adv-x="1548" 
d="M559 1556l-145 46q33 122 84 183.5t139 61.5q61 0 157 -34.5t121 -34.5q39 0 61 20.5t42 67.5l145 -45q-33 -122 -84 -184t-139 -62q-62 0 -157 35t-121 35q-39 0 -60.5 -21t-42.5 -68zM770 -23q-294 0 -457 162t-163 475v820h315v-811q0 -175 80.5 -265t228.5 -90
t228.5 87t80.5 257v822h316v-809q0 -319 -166.5 -483.5t-462.5 -164.5z" />
    <glyph glyph-name="utilde" unicode="&#x169;" horiz-adv-x="1275" 
d="M397 1198l-145 45q33 122 84 184t139 62q61 0 157 -35t122 -35q39 0 60 20.5t42 67.5l145 -45q-33 -122 -84 -183.5t-139 -61.5q-62 0 -157 34.5t-121 34.5q-39 0 -61 -20.5t-42 -67.5zM504 -20q-178 0 -275.5 107.5t-97.5 299.5v711h311v-613q0 -109 49 -166t140 -57
q92 0 143 57t51 166v613h312v-1098h-312v156q-64 -82 -139 -129t-182 -47z" />
    <glyph glyph-name="Umacron" unicode="&#x16a;" horiz-adv-x="1548" 
d="M770 -23q-294 0 -457 162t-163 475v820h315v-811q0 -175 80.5 -265t228.5 -90t228.5 87t80.5 257v822h316v-809q0 -319 -166.5 -483.5t-462.5 -164.5zM385 1556v220h778v-220h-778z" />
    <glyph glyph-name="umacron" unicode="&#x16b;" horiz-adv-x="1275" 
d="M504 -20q-178 0 -275.5 107.5t-97.5 299.5v711h311v-613q0 -109 49 -166t140 -57q92 0 143 57t51 166v613h312v-1098h-312v156q-64 -82 -139 -129t-182 -47zM264 1229v215h737v-215h-737z" />
    <glyph glyph-name="Ubreve" unicode="&#x16c;" horiz-adv-x="1548" 
d="M770 -23q-294 0 -457 162t-163 475v820h315v-811q0 -175 80.5 -265t228.5 -90t228.5 87t80.5 257v822h316v-809q0 -319 -166.5 -483.5t-462.5 -164.5zM774 1522q-167 0 -271.5 79.5t-117.5 225.5h213q20 -50 60.5 -75.5t115.5 -25.5t115.5 25.5t60.5 75.5h213
q-13 -146 -117.5 -225.5t-271.5 -79.5z" />
    <glyph glyph-name="ubreve" unicode="&#x16d;" horiz-adv-x="1275" 
d="M504 -20q-178 0 -275.5 107.5t-97.5 299.5v711h311v-613q0 -109 49 -166t140 -57q92 0 143 57t51 166v613h312v-1098h-312v156q-64 -82 -139 -129t-182 -47zM633 1214q-166 0 -269 86t-116 240h209q20 -60 61 -91.5t115 -31.5t115 31.5t61 91.5h209q-13 -154 -116 -240
t-269 -86z" />
    <glyph glyph-name="Uring" unicode="&#x16e;" horiz-adv-x="1548" 
d="M770 -23q-294 0 -457 162t-163 475v820h315v-811q0 -175 80.5 -265t228.5 -90t228.5 87t80.5 257v822h316v-809q0 -319 -166.5 -483.5t-462.5 -164.5zM520 1716q0 98 74.5 162t179.5 64t179.5 -64t74.5 -162t-74.5 -161.5t-179.5 -63.5t-179.5 63.5t-74.5 161.5z
M645 1716q0 -49 35.5 -81.5t93.5 -32.5t93.5 32.5t35.5 81.5t-35.5 82t-93.5 33t-93.5 -33t-35.5 -82z" />
    <glyph glyph-name="uring" unicode="&#x16f;" horiz-adv-x="1275" 
d="M504 -20q-178 0 -275.5 107.5t-97.5 299.5v711h311v-613q0 -109 49 -166t140 -57q92 0 143 57t51 166v613h312v-1098h-312v156q-64 -82 -139 -129t-182 -47zM385 1423q0 100 72.5 170t175.5 70t175.5 -70t72.5 -170t-72.5 -169.5t-175.5 -69.5t-175.5 69.5t-72.5 169.5z
M498 1423q0 -55 40 -95t95 -40t95 40t40 95q0 56 -40 96t-95 40t-95 -40t-40 -96z" />
    <glyph glyph-name="Uhungarumlaut" unicode="&#x170;" horiz-adv-x="1548" 
d="M770 -23q-294 0 -457 162t-163 475v820h315v-811q0 -175 80.5 -265t228.5 -90t228.5 87t80.5 257v822h316v-809q0 -319 -166.5 -483.5t-462.5 -164.5zM440 1546l248 322l258 -117l-278 -205h-228zM829 1546l248 322l258 -117l-278 -205h-228z" />
    <glyph glyph-name="uhungarumlaut" unicode="&#x171;" horiz-adv-x="1275" 
d="M504 -20q-178 0 -275.5 107.5t-97.5 299.5v711h311v-613q0 -109 49 -166t140 -57q92 0 143 57t51 166v613h312v-1098h-312v156q-64 -82 -139 -129t-182 -47zM688 1219l227 362l263 -117l-271 -245h-219zM309 1219l223 362l263 -117l-267 -245h-219z" />
    <glyph glyph-name="Uogonek" unicode="&#x172;" horiz-adv-x="1548" 
d="M956 -199v-137q-169 -24 -267.5 28t-98.5 144q0 70 57 150q-238 31 -367.5 190t-129.5 438v820h315v-811q0 -175 80.5 -265t228.5 -90t228.5 87t80.5 257v822h316v-809q0 -296 -145 -459t-406 -184q-35 -51 -35 -97q0 -44 37.5 -66.5t105.5 -17.5z" />
    <glyph glyph-name="uogonek" unicode="&#x173;" horiz-adv-x="1275" 
d="M1157 -199v-137q-169 -24 -267.5 28t-98.5 144q0 74 67 164h-33v156q-64 -82 -139 -129t-182 -47q-178 0 -275.5 107.5t-97.5 299.5v711h311v-613q0 -109 49 -166t140 -57q92 0 143 57t51 166v613h312v-1098h-72q-51 -56 -51 -115q0 -44 37.5 -66.5t105.5 -17.5z" />
    <glyph glyph-name="Wcircumflex" unicode="&#x174;" horiz-adv-x="2297" 
d="M551 -10l-490 1444h338l297 -971l322 975h270l322 -975l297 971h329l-489 -1444h-274l-324 938l-324 -938h-274zM739 1546l262 301h295l263 -301h-250l-162 115l-162 -115h-246z" />
    <glyph glyph-name="wcircumflex" unicode="&#x175;" horiz-adv-x="1763" 
d="M387 -8l-338 1106h316l176 -666l207 670h268l209 -672l180 668h309l-342 -1106h-280l-211 674l-215 -674h-279zM481 1219l252 321h295l252 -321h-240l-161 135l-162 -135h-236z" />
    <glyph glyph-name="Ycircumflex" unicode="&#x176;" horiz-adv-x="1466" 
d="M575 0v565l-550 869h368l342 -576l348 576h359l-551 -863v-571h-316zM324 1546l262 301h295l262 -301h-250l-162 115l-162 -115h-245z" />
    <glyph glyph-name="ycircumflex" unicode="&#x177;" horiz-adv-x="1228" 
d="M401 -334q-147 0 -276 76l104 225q71 -43 133 -43q42 0 65.5 15.5t43.5 56.5l-430 1102h330l250 -748l239 748h324l-422 -1125q-62 -168 -143 -237.5t-218 -69.5zM213 1219l252 321h295l252 -321h-240l-162 135l-161 -135h-236z" />
    <glyph glyph-name="Ydieresis" unicode="&#x178;" horiz-adv-x="1466" 
d="M575 0v565l-550 869h368l342 -576l348 576h359l-551 -863v-571h-316zM807 1546v260h299v-260h-299zM360 1546v260h299v-260h-299z" />
    <glyph glyph-name="Zacute" unicode="&#x179;" horiz-adv-x="1449" 
d="M129 0v240l789 917h-764v277h1169v-240l-788 -918h788v-276h-1194zM610 1546l248 322l268 -117l-278 -205h-238z" />
    <glyph glyph-name="zacute" unicode="&#x17a;" horiz-adv-x="1153" 
d="M102 0v219l568 627h-549v252h936v-219l-570 -627h570v-252h-955zM457 1219l227 362l268 -117l-266 -245h-229z" />
    <glyph glyph-name="Zdotaccent" unicode="&#x17b;" horiz-adv-x="1449" 
d="M129 0v240l789 917h-764v277h1169v-240l-788 -918h788v-276h-1194zM584 1546v260h307v-260h-307z" />
    <glyph glyph-name="zdotaccent" unicode="&#x17c;" horiz-adv-x="1153" 
d="M102 0v219l568 627h-549v252h936v-219l-570 -627h570v-252h-955zM426 1219v276h307v-276h-307z" />
    <glyph glyph-name="Zcaron" unicode="&#x17d;" horiz-adv-x="1449" 
d="M129 0v240l789 917h-764v277h1169v-240l-788 -918h788v-276h-1194zM1147 1847l-262 -301h-295l-262 301h250l161 -114l162 114h246z" />
    <glyph glyph-name="zcaron" unicode="&#x17e;" horiz-adv-x="1153" 
d="M102 0v219l568 627h-549v252h936v-219l-570 -627h570v-252h-955zM979 1540l-252 -321h-295l-252 321h240l162 -135l161 135h236z" />
    <glyph glyph-name="florin" unicode="&#x192;" horiz-adv-x="1097" 
d="M205 -10q-72 0 -121 10v252q41 -6 76 -6q66 0 98.5 28.5t44.5 96.5l57 334h-137v256h183l28 151q31 164 120.5 248t266.5 84q123 0 203 -25v-258q-74 21 -139 21q-67 0 -104.5 -34t-49.5 -106l-14 -81h235v-256h-280l-68 -383q-32 -180 -125.5 -256t-273.5 -76z" />
    <glyph glyph-name="Ohorn" unicode="&#x1a0;" horiz-adv-x="1740" 
d="M868 -25q-162 0 -304.5 58t-241.5 157.5t-156 235.5t-57 287v4q0 151 57.5 287.5t157.5 236.5t243 158.5t305 58.5q203 0 375 -90q66 4 91.5 16.5t25.5 38.5q0 70 -74 205h309q43 -136 43 -248q-12 -149 -151 -223q141 -193 141 -436v-4q0 -151 -58 -287.5t-158 -236.5
t-243 -159t-305 -59zM872 266q124 0 223.5 60.5t153.5 162.5t54 224v4q0 187 -123.5 318.5t-311.5 131.5q-124 0 -223 -60t-153 -162t-54 -224v-4q0 -122 55 -225t155 -164.5t224 -61.5z" />
    <glyph glyph-name="ohorn" unicode="&#x1a1;" horiz-adv-x="1359" 
d="M678 -25q-166 0 -302 75.5t-213 205.5t-77 287v4q0 117 45.5 222t124 182t189.5 122t237 45q150 0 283 -65q46 4 64 15.5t18 35.5q0 72 -72 203h305q43 -123 43 -244q-9 -142 -135 -215q86 -133 86 -297v-4q0 -156 -77 -287t-214 -208t-305 -77zM682 244q130 0 207.5 86
t77.5 213v4q0 125 -81.5 214t-207.5 89q-130 0 -207.5 -86t-77.5 -213v-4q0 -125 81.5 -214t207.5 -89z" />
    <glyph glyph-name="Uhorn" unicode="&#x1af;" horiz-adv-x="1662" 
d="M1290 1688h309q43 -136 43 -248q-16 -197 -243 -260v-555q0 -319 -166.5 -483.5t-462.5 -164.5q-294 0 -457 162t-163 475v820h315v-811q0 -175 80.5 -265t228.5 -90t228.5 87t80.5 257v822h224q32 6 44.5 17t12.5 32q0 70 -74 205z" />
    <glyph glyph-name="uhorn" unicode="&#x1b0;" horiz-adv-x="1363" 
d="M504 -20q-178 0 -275.5 107.5t-97.5 299.5v711h311v-613q0 -109 49 -166t140 -57q92 0 143 57t51 166v613h217q41 9 41 43q0 72 -71 202h305q43 -123 43 -243q-15 -184 -223 -254v-846h-312v156q-64 -82 -139 -129t-182 -47z" />
    <glyph glyph-name="Aringacute" unicode="&#x1fa;" horiz-adv-x="1617" 
d="M555 1520q0 98 74.5 161.5t179.5 63.5t179.5 -63.5t74.5 -161.5q0 -95 -72 -160l578 -1360h-330l-131 322h-606l-131 -322h-322l578 1360q-72 63 -72 160zM614 600h381l-190 465zM670 1802l260 281l268 -117l-291 -164h-237zM680 1520q0 -49 35.5 -82t93.5 -33t93.5 33
t35.5 82t-35.5 81.5t-93.5 32.5t-93.5 -32.5t-35.5 -81.5z" />
    <glyph glyph-name="aringacute" unicode="&#x1fb;" horiz-adv-x="1212" 
d="M485 1763l244 301l264 -116l-278 -185h-230zM451 -20q-163 0 -270 88.5t-107 246.5v4q0 173 119.5 262t322.5 89q135 0 268 -45v18q0 99 -59.5 150t-175.5 51q-149 0 -303 -60l-78 238q103 44 200 66t226 22q248 0 371 -123q118 -118 118 -350v-637h-301v119
q-126 -139 -331 -139zM545 195q110 0 176.5 53t66.5 139v55q-90 41 -198 41q-101 0 -158 -39t-57 -112v-4q0 -62 47 -97.5t123 -35.5zM362 1454q0 100 72.5 170t175.5 70t175.5 -70t72.5 -170t-72.5 -170t-175.5 -70t-175.5 70t-72.5 170zM475 1454q0 -56 39.5 -95.5
t95.5 -39.5t95.5 39.5t39.5 95.5t-39.5 95.5t-95.5 39.5t-95.5 -39.5t-39.5 -95.5z" />
    <glyph glyph-name="AEacute" unicode="&#x1fc;" horiz-adv-x="2140" 
d="M18 0l773 1434h1230v-281h-716v-291h624v-280h-624v-301h727v-281h-1041v322h-481l-170 -322h-322zM657 600h334v561h-37zM1135 1546l247 322l269 -117l-279 -205h-237z" />
    <glyph glyph-name="aeacute" unicode="&#x1fd;" horiz-adv-x="1947" 
d="M487 -20q-184 0 -298.5 89t-114.5 246v4q0 173 119.5 262t322.5 89q135 0 268 -45v18q0 99 -59.5 150t-175.5 51q-149 0 -303 -60l-78 238q103 44 200 66t226 22q259 0 373 -139q144 147 362 147q129 0 231.5 -49t165.5 -133t96 -189.5t33 -224.5q0 -20 -4 -82h-764
q23 -105 93.5 -160t175.5 -55q77 0 138 26t128 87l178 -158q-165 -205 -448 -205q-252 0 -418 166q-219 -161 -447 -161zM1083 635h469q-14 107 -74.5 170t-156.5 63t-157.5 -62.5t-80.5 -170.5zM545 199q147 0 280 104q-31 74 -39 141q-93 39 -196 39q-101 0 -158 -39
t-57 -112v-4q0 -59 48 -94t122 -35zM842 1219l227 362l268 -117l-266 -245h-229z" />
    <glyph glyph-name="Oslashacute" unicode="&#x1fe;" horiz-adv-x="1740" 
d="M1348 1444h301l-201 -234q184 -206 184 -489v-4q0 -151 -58 -287.5t-158 -236.5t-243 -159t-305 -59q-216 0 -395 103l-80 -88h-301l201 233q-184 206 -184 490v4q0 151 57.5 287.5t157.5 236.5t243 158.5t305 58.5q210 0 396 -102zM872 260q189 0 313 132t124 321v4
q0 141 -72 254l-567 -662q93 -49 202 -49zM432 721v-4q0 -138 72 -254l567 661q-95 50 -203 50q-189 0 -312.5 -132t-123.5 -321zM743 1567l248 321l269 -116l-279 -205h-238z" />
    <glyph glyph-name="oslashacute" unicode="&#x1ff;" horiz-adv-x="1359" 
d="M1032 1108h273l-166 -190q135 -158 135 -367v-4q0 -156 -77 -287t-214 -208t-305 -77q-160 0 -295 72l-55 -57h-273l164 188q-133 155 -133 365v4q0 117 45.5 222t124 182t189.5 122t237 45q166 0 293 -71zM557 1219l227 362l269 -117l-267 -245h-229zM385 551v-4
q0 -81 33 -148l377 435q-60 24 -117 24q-135 0 -214 -88.5t-79 -218.5zM682 236q135 0 214 88.5t79 218.5v4q0 75 -35 147l-375 -436q58 -22 117 -22z" />
    <glyph glyph-name="Scommaaccent" unicode="&#x218;" horiz-adv-x="1310" 
d="M682 -20q-169 0 -325.5 57.5t-282.5 171.5l186 223q105 -85 208 -129.5t220 -44.5q98 0 152.5 36t54.5 99v4q0 42 -22 70.5t-85 56t-182 56.5q-96 24 -162 46.5t-130 57.5t-101 78.5t-59.5 108t-22.5 147.5v4q0 194 139.5 313t362.5 119q303 0 532 -182l-164 -238
q-208 142 -372 142q-89 0 -137 -34.5t-48 -90.5v-4q0 -70 58.5 -104t251.5 -85q116 -31 195 -65.5t140 -84.5t90 -119t29 -161v-4q0 -209 -144.5 -326.5t-381.5 -117.5zM514 -608l-16 94q83 7 121.5 44t33.5 103h-131v236h283v-199q0 -143 -72.5 -208t-218.5 -70z" />
    <glyph glyph-name="scommaaccent" unicode="&#x219;" horiz-adv-x="1028" 
d="M524 -20q-260 0 -471 165l133 205q180 -131 346 -131q66 0 99 22t33 60v4q0 14 -5.5 26t-19 22t-26.5 18t-37 16.5t-41 14t-48.5 15t-50.5 15.5q-53 15 -94 30.5t-87 43t-76 61t-50 84t-20 111.5v4q0 162 114.5 255t286.5 93q104 0 211.5 -33.5t198.5 -93.5l-119 -215
q-176 102 -297 102q-55 0 -85 -21t-30 -54v-4q0 -27 34 -52t75.5 -41t113.5 -38q54 -17 94.5 -33.5t88 -44.5t78 -60.5t51 -81t20.5 -106.5v-4q0 -175 -116 -264.5t-304 -89.5zM371 -598l-17 94q83 7 122 44.5t34 103.5h-131v235h283v-198q0 -144 -72.5 -209t-218.5 -70z
" />
    <glyph glyph-name="schwa" unicode="&#x259;" horiz-adv-x="1255" 
d="M596 1122q249 0 411 -158.5t162 -408.5v-4q0 -156 -68 -286t-193 -207.5t-281 -77.5q-133 0 -237.5 49t-168.5 132.5t-96.5 189t-32.5 224.5q0 20 4 82h764q-23 105 -93 160t-175 55q-78 0 -139 -26t-127 -86l-179 158q164 204 449 204zM864 463h-469q14 -107 75 -170.5
t157 -63.5t157 62.5t80 171.5z" />
    <glyph glyph-name="circumflex" unicode="&#x2c6;" 
d="M113 1219l252 321h294l252 -321h-239l-162 135l-162 -135h-235z" />
    <glyph glyph-name="caron" unicode="&#x2c7;" 
d="M911 1540l-252 -321h-294l-252 321h239l162 -135l162 135h235z" />
    <glyph glyph-name="breve" unicode="&#x2d8;" 
d="M512 1214q-166 0 -269 86t-116 240h209q20 -60 61 -91.5t115 -31.5t115 31.5t61 91.5h209q-13 -154 -116 -240t-269 -86z" />
    <glyph glyph-name="dotaccent" unicode="&#x2d9;" 
d="M358 1219v276h308v-276h-308z" />
    <glyph glyph-name="ring" unicode="&#x2da;" 
d="M264 1454q0 100 72.5 170t175.5 70t175.5 -70t72.5 -170t-72.5 -170t-175.5 -70t-175.5 70t-72.5 170zM377 1454q0 -56 39.5 -95.5t95.5 -39.5t95.5 39.5t39.5 95.5t-39.5 95.5t-95.5 39.5t-95.5 -39.5t-39.5 -95.5z" />
    <glyph glyph-name="ogonek" unicode="&#x2db;" 
d="M729 -199v-137q-169 -24 -268 28t-99 144q0 46 21.5 88t65.5 96h206q-69 -74 -69 -135q0 -44 37.5 -66.5t105.5 -17.5z" />
    <glyph glyph-name="tilde" unicode="&#x2dc;" 
d="M256 1198l-166 51q41 141 97.5 212t156.5 71q54 0 115 -20t112 -40t80 -20q44 0 67.5 22.5t49.5 77.5l166 -51q-38 -140 -96 -211t-158 -71q-54 0 -115.5 19.5t-112.5 39.5t-79 20q-44 0 -67.5 -22.5t-49.5 -77.5z" />
    <glyph glyph-name="hungarumlaut" unicode="&#x2dd;" 
d="M467 1219l227 362l262 -117l-270 -245h-219zM88 1219l223 362l262 -117l-266 -245h-219z" />
    <glyph glyph-name="commaaccent" unicode="&#x326;" 
d="M362 -598l-16 94q83 7 122 44.5t34 103.5h-131v235h282v-198q0 -144 -72.5 -209t-218.5 -70z" />
    <glyph glyph-name="Wgrave" unicode="&#x1e80;" horiz-adv-x="2297" 
d="M551 -10l-490 1444h338l297 -971l322 975h270l322 -975l297 971h329l-489 -1444h-274l-324 938l-324 -938h-274zM1028 1868l248 -322h-238l-278 205z" />
    <glyph glyph-name="wgrave" unicode="&#x1e81;" horiz-adv-x="1763" 
d="M387 -8l-338 1106h316l176 -666l207 670h268l209 -672l180 668h309l-342 -1106h-280l-211 674l-215 -674h-279zM774 1219l-266 245l268 117l228 -362h-230z" />
    <glyph glyph-name="Wacute" unicode="&#x1e82;" horiz-adv-x="2297" 
d="M551 -10l-490 1444h338l297 -971l322 975h270l322 -975l297 971h329l-489 -1444h-274l-324 938l-324 -938h-274zM1022 1546l248 322l268 -117l-278 -205h-238z" />
    <glyph glyph-name="wacute" unicode="&#x1e83;" horiz-adv-x="1763" 
d="M387 -8l-338 1106h316l176 -666l207 670h268l209 -672l180 668h309l-342 -1106h-280l-211 674l-215 -674h-279zM758 1219l227 362l268 -117l-266 -245h-229z" />
    <glyph glyph-name="Wdieresis" unicode="&#x1e84;" horiz-adv-x="2297" 
d="M551 -10l-490 1444h338l297 -971l322 975h270l322 -975l297 971h329l-489 -1444h-274l-324 938l-324 -938h-274zM1223 1546v260h299v-260h-299zM776 1546v260h299v-260h-299z" />
    <glyph glyph-name="wdieresis" unicode="&#x1e85;" horiz-adv-x="1763" 
d="M387 -8l-338 1106h316l176 -666l207 670h268l209 -672l180 668h309l-342 -1106h-280l-211 674l-215 -674h-279zM944 1219v276h299v-276h-299zM518 1219v276h299v-276h-299z" />
    <glyph glyph-name="uni1EA0" unicode="&#x1ea0;" horiz-adv-x="1617" 
d="M647 -408v271h293v-271h-293zM49 0l615 1444h290l615 -1444h-330l-131 322h-606l-131 -322h-322zM614 600h381l-190 465z" />
    <glyph glyph-name="uni1EA1" unicode="&#x1ea1;" horiz-adv-x="1212" 
d="M440 -408v271h293v-271h-293zM451 -20q-163 0 -270 88.5t-107 246.5v4q0 173 119.5 262t322.5 89q135 0 268 -45v18q0 99 -59.5 150t-175.5 51q-149 0 -303 -60l-78 238q103 44 200 66t226 22q248 0 371 -123q118 -118 118 -350v-637h-301v119q-126 -139 -331 -139z
M545 195q110 0 176.5 53t66.5 139v55q-90 41 -198 41q-101 0 -158 -39t-57 -112v-4q0 -62 47 -97.5t123 -35.5z" />
    <glyph glyph-name="uni1EA2" unicode="&#x1ea2;" horiz-adv-x="1617" 
d="M733 1565l-18 202q72 5 104.5 27t32.5 76q0 13 -13.5 27t-37.5 14t-53.5 -22t-47.5 -70l-157 84q54 115 117 155.5t147 40.5q106 0 174 -64t66 -161q-2 -162 -148 -221l-8 -88h-158zM49 0l615 1444h290l615 -1444h-330l-131 322h-606l-131 -322h-322zM614 600h381
l-190 465z" />
    <glyph glyph-name="uni1EA3" unicode="&#x1ea3;" horiz-adv-x="1212" 
d="M575 1219l-18 202q72 5 104.5 27t32.5 76q0 13 -13.5 27t-37.5 14t-53 -22t-47 -70l-158 83q54 115 117 156t147 41q106 0 174 -64t66 -161q-2 -162 -148 -221l-8 -88h-158zM451 -20q-163 0 -270 88.5t-107 246.5v4q0 173 119.5 262t322.5 89q135 0 268 -45v18
q0 99 -59.5 150t-175.5 51q-149 0 -303 -60l-78 238q103 44 200 66t226 22q248 0 371 -123q118 -118 118 -350v-637h-301v119q-126 -139 -331 -139zM545 195q110 0 176.5 53t66.5 139v55q-90 41 -198 41q-101 0 -158 -39t-57 -112v-4q0 -62 47 -97.5t123 -35.5z" />
    <glyph glyph-name="uni1EA4" unicode="&#x1ea4;" horiz-adv-x="1617" 
d="M49 0l615 1444h290l615 -1444h-330l-131 322h-606l-131 -322h-322zM614 600h381l-190 465zM410 1556l252 322h294l252 -322h-239l-162 136l-162 -136h-235zM1096 1800l227 363l268 -117l-266 -246h-229z" />
    <glyph glyph-name="uni1EA5" unicode="&#x1ea5;" horiz-adv-x="1212" 
d="M451 -20q-163 0 -270 88.5t-107 246.5v4q0 173 119.5 262t322.5 89q135 0 268 -45v18q0 99 -59.5 150t-175.5 51q-149 0 -303 -60l-78 238q103 44 200 66t226 22q248 0 371 -123q118 -118 118 -350v-637h-301v119q-126 -139 -331 -139zM545 195q110 0 176.5 53t66.5 139
v55q-90 41 -198 41q-101 0 -158 -39t-57 -112v-4q0 -62 47 -97.5t123 -35.5zM231 1219l252 321h295l252 -321h-239l-162 135l-162 -135h-236zM918 1462l227 363l268 -117l-266 -246h-229z" />
    <glyph glyph-name="uni1EA6" unicode="&#x1ea6;" horiz-adv-x="1617" 
d="M49 0l615 1444h290l615 -1444h-330l-131 322h-606l-131 -322h-322zM614 600h381l-190 465zM410 1556l252 322h294l252 -322h-239l-162 136l-162 -136h-235zM1157 1802l-266 246l268 117l227 -363h-229z" />
    <glyph glyph-name="uni1EA7" unicode="&#x1ea7;" horiz-adv-x="1212" 
d="M451 -20q-163 0 -270 88.5t-107 246.5v4q0 173 119.5 262t322.5 89q135 0 268 -45v18q0 99 -59.5 150t-175.5 51q-149 0 -303 -60l-78 238q103 44 200 66t226 22q248 0 371 -123q118 -118 118 -350v-637h-301v119q-126 -139 -331 -139zM545 195q110 0 176.5 53t66.5 139
v55q-90 41 -198 41q-101 0 -158 -39t-57 -112v-4q0 -62 47 -97.5t123 -35.5zM231 1219l252 321h295l252 -321h-239l-162 135l-162 -135h-236zM979 1464l-266 246l268 117l227 -363h-229z" />
    <glyph glyph-name="uni1EA8" unicode="&#x1ea8;" horiz-adv-x="1617" 
d="M49 0l615 1444h290l615 -1444h-330l-131 322h-606l-131 -322h-322zM614 600h381l-190 465zM410 1556l252 322h294l252 -322h-239l-162 136l-162 -136h-235zM1108 1788l-18 203q72 5 104.5 26.5t32.5 75.5q0 13 -13.5 27t-37.5 14t-53.5 -22t-47.5 -70l-157 84
q54 115 117 155.5t147 40.5q105 0 173 -64t66 -161q-2 -162 -147 -221l-8 -88h-158z" />
    <glyph glyph-name="uni1EA9" unicode="&#x1ea9;" horiz-adv-x="1212" 
d="M451 -20q-163 0 -270 88.5t-107 246.5v4q0 173 119.5 262t322.5 89q135 0 268 -45v18q0 99 -59.5 150t-175.5 51q-149 0 -303 -60l-78 238q103 44 200 66t226 22q248 0 371 -123q118 -118 118 -350v-637h-301v119q-126 -139 -331 -139zM545 195q110 0 176.5 53t66.5 139
v55q-90 41 -198 41q-101 0 -158 -39t-57 -112v-4q0 -62 47 -97.5t123 -35.5zM231 1219l252 321h295l252 -321h-239l-162 135l-162 -135h-236zM930 1450l-19 203q72 5 105 26.5t33 75.5q0 13 -14 27t-38 14t-53 -22t-47 -70l-158 84q54 115 117.5 156t147.5 41
q105 0 173 -64.5t66 -161.5q-2 -162 -147 -221l-9 -88h-157z" />
    <glyph glyph-name="uni1EAA" unicode="&#x1eaa;" horiz-adv-x="1617" 
d="M49 0l615 1444h290l615 -1444h-330l-131 322h-606l-131 -322h-322zM614 600h381l-190 465zM410 1556l252 322h294l252 -322h-239l-162 136l-162 -136h-235zM578 1933l-146 45q33 122 84 184t139 62q61 0 157 -35t122 -35q39 0 60 21t42 68l146 -45q-33 -122 -84.5 -184
t-139.5 -62q-62 0 -157 34.5t-121 34.5q-39 0 -60 -20.5t-42 -67.5z" />
    <glyph glyph-name="uni1EAB" unicode="&#x1eab;" horiz-adv-x="1212" 
d="M451 -20q-163 0 -270 88.5t-107 246.5v4q0 173 119.5 262t322.5 89q135 0 268 -45v18q0 99 -59.5 150t-175.5 51q-149 0 -303 -60l-78 238q103 44 200 66t226 22q248 0 371 -123q118 -118 118 -350v-637h-301v119q-126 -139 -331 -139zM545 195q110 0 176.5 53t66.5 139
v55q-90 41 -198 41q-101 0 -158 -39t-57 -112v-4q0 -62 47 -97.5t123 -35.5zM231 1219l252 321h295l252 -321h-239l-162 135l-162 -135h-236zM399 1595l-145 45q33 122 84 184t139 62q61 0 157 -34.5t122 -34.5q39 0 60 20.5t42 67.5l146 -45q-33 -122 -84.5 -184
t-139.5 -62q-62 0 -157 34.5t-121 34.5q-39 0 -61 -20.5t-42 -67.5z" />
    <glyph glyph-name="uni1EAC" unicode="&#x1eac;" horiz-adv-x="1617" 
d="M49 0l615 1444h290l615 -1444h-330l-131 322h-606l-131 -322h-322zM614 600h381l-190 465zM410 1556l252 322h294l252 -322h-239l-162 136l-162 -136h-235zM647 -408v271h293v-271h-293z" />
    <glyph glyph-name="uni1EAD" unicode="&#x1ead;" horiz-adv-x="1212" 
d="M451 -20q-163 0 -270 88.5t-107 246.5v4q0 173 119.5 262t322.5 89q135 0 268 -45v18q0 99 -59.5 150t-175.5 51q-149 0 -303 -60l-78 238q103 44 200 66t226 22q248 0 371 -123q118 -118 118 -350v-637h-301v119q-126 -139 -331 -139zM545 195q110 0 176.5 53t66.5 139
v55q-90 41 -198 41q-101 0 -158 -39t-57 -112v-4q0 -62 47 -97.5t123 -35.5zM231 1219l252 321h295l252 -321h-239l-162 135l-162 -135h-236zM440 -408v271h293v-271h-293z" />
    <glyph glyph-name="uni1EAE" unicode="&#x1eae;" horiz-adv-x="1617" 
d="M49 0l615 1444h290l615 -1444h-330l-131 322h-606l-131 -322h-322zM614 600h381l-190 465zM811 1542q-166 0 -269 86t-116 240h209q20 -60 61 -91.5t115 -31.5t115 31.5t61 91.5h209q-13 -154 -116 -240t-269 -86zM682 1868l227 362l269 -116l-267 -246h-229z" />
    <glyph glyph-name="uni1EAF" unicode="&#x1eaf;" horiz-adv-x="1212" 
d="M451 -20q-163 0 -270 88.5t-107 246.5v4q0 173 119.5 262t322.5 89q135 0 268 -45v18q0 99 -59.5 150t-175.5 51q-149 0 -303 -60l-78 238q103 44 200 66t226 22q248 0 371 -123q118 -118 118 -350v-637h-301v119q-126 -139 -331 -139zM545 195q110 0 176.5 53t66.5 139
v55q-90 41 -198 41q-101 0 -158 -39t-57 -112v-4q0 -62 47 -97.5t123 -35.5zM635 1214q-166 0 -269 86t-116 240h209q20 -60 61 -91.5t115 -31.5t115 31.5t61 91.5h209q-13 -154 -116 -240t-269 -86zM506 1540l227 363l268 -117l-266 -246h-229z" />
    <glyph glyph-name="uni1EB0" unicode="&#x1eb0;" horiz-adv-x="1617" 
d="M49 0l615 1444h290l615 -1444h-330l-131 322h-606l-131 -322h-322zM614 600h381l-190 465zM811 1542q-166 0 -269 86t-116 240h209q20 -60 61 -91.5t115 -31.5t115 31.5t61 91.5h209q-13 -154 -116 -240t-269 -86zM719 1868l-266 246l268 116l227 -362h-229z" />
    <glyph glyph-name="uni1EB1" unicode="&#x1eb1;" horiz-adv-x="1212" 
d="M451 -20q-163 0 -270 88.5t-107 246.5v4q0 173 119.5 262t322.5 89q135 0 268 -45v18q0 99 -59.5 150t-175.5 51q-149 0 -303 -60l-78 238q103 44 200 66t226 22q248 0 371 -123q118 -118 118 -350v-637h-301v119q-126 -139 -331 -139zM545 195q110 0 176.5 53t66.5 139
v55q-90 41 -198 41q-101 0 -158 -39t-57 -112v-4q0 -62 47 -97.5t123 -35.5zM635 1214q-166 0 -269 86t-116 240h209q20 -60 61 -91.5t115 -31.5t115 31.5t61 91.5h209q-13 -154 -116 -240t-269 -86zM543 1540l-267 246l269 117l227 -363h-229z" />
    <glyph glyph-name="uni1EB2" unicode="&#x1eb2;" horiz-adv-x="1617" 
d="M49 0l615 1444h290l615 -1444h-330l-131 322h-606l-131 -322h-322zM614 600h381l-190 465zM811 1542q-166 0 -269 86t-116 240h209q20 -60 61 -91.5t115 -31.5t115 31.5t61 91.5h209q-13 -154 -116 -240t-269 -86zM737 1849l-18 203q72 5 104.5 26.5t32.5 75.5
q0 13 -13.5 27t-37.5 14t-53 -22t-47 -70l-158 84q54 115 117 156t147 41q106 0 174 -64t66 -161q-2 -163 -148 -222l-8 -88h-158z" />
    <glyph glyph-name="uni1EB3" unicode="&#x1eb3;" horiz-adv-x="1212" 
d="M451 -20q-163 0 -270 88.5t-107 246.5v4q0 173 119.5 262t322.5 89q135 0 268 -45v18q0 99 -59.5 150t-175.5 51q-149 0 -303 -60l-78 238q103 44 200 66t226 22q248 0 371 -123q118 -118 118 -350v-637h-301v119q-126 -139 -331 -139zM545 195q110 0 176.5 53t66.5 139
v55q-90 41 -198 41q-101 0 -158 -39t-57 -112v-4q0 -62 47 -97.5t123 -35.5zM635 1214q-166 0 -269 86t-116 240h209q20 -60 61 -91.5t115 -31.5t115 31.5t61 91.5h209q-13 -154 -116 -240t-269 -86zM561 1522l-18 202q72 5 104.5 27t32.5 76q0 13 -13.5 27t-37.5 14
t-53.5 -22t-47.5 -70l-157 84q54 115 117 155.5t147 40.5q105 0 173 -64t66 -161q-2 -162 -147 -221l-8 -88h-158z" />
    <glyph glyph-name="uni1EB4" unicode="&#x1eb4;" horiz-adv-x="1617" 
d="M49 0l615 1444h290l615 -1444h-330l-131 322h-606l-131 -322h-322zM614 600h381l-190 465zM811 1542q-166 0 -269 86t-116 240h209q20 -60 61 -91.5t115 -31.5t115 31.5t61 91.5h209q-13 -154 -116 -240t-269 -86zM578 1933l-146 45q33 122 84 184t139 62q61 0 157 -35
t122 -35q39 0 60 21t42 68l146 -45q-33 -122 -84.5 -184t-139.5 -62q-62 0 -157 34.5t-121 34.5q-39 0 -60 -20.5t-42 -67.5z" />
    <glyph glyph-name="uni1EB5" unicode="&#x1eb5;" horiz-adv-x="1212" 
d="M451 -20q-163 0 -270 88.5t-107 246.5v4q0 173 119.5 262t322.5 89q135 0 268 -45v18q0 99 -59.5 150t-175.5 51q-149 0 -303 -60l-78 238q103 44 200 66t226 22q248 0 371 -123q118 -118 118 -350v-637h-301v119q-126 -139 -331 -139zM545 195q110 0 176.5 53t66.5 139
v55q-90 41 -198 41q-101 0 -158 -39t-57 -112v-4q0 -62 47 -97.5t123 -35.5zM635 1214q-166 0 -269 86t-116 240h209q20 -60 61 -91.5t115 -31.5t115 31.5t61 91.5h209q-13 -154 -116 -240t-269 -86zM401 1606l-145 45q33 122 84 183.5t139 61.5q61 0 157 -34.5t122 -34.5
q39 0 60 20.5t42 67.5l146 -45q-33 -122 -84.5 -184t-139.5 -62q-62 0 -157 35t-121 35q-39 0 -61 -20.5t-42 -67.5z" />
    <glyph glyph-name="uni1EB6" unicode="&#x1eb6;" horiz-adv-x="1617" 
d="M49 0l615 1444h290l615 -1444h-330l-131 322h-606l-131 -322h-322zM614 600h381l-190 465zM811 1542q-166 0 -269 86t-116 240h209q20 -60 61 -91.5t115 -31.5t115 31.5t61 91.5h209q-13 -154 -116 -240t-269 -86zM647 -408v271h293v-271h-293z" />
    <glyph glyph-name="uni1EB7" unicode="&#x1eb7;" horiz-adv-x="1212" 
d="M451 -20q-163 0 -270 88.5t-107 246.5v4q0 173 119.5 262t322.5 89q135 0 268 -45v18q0 99 -59.5 150t-175.5 51q-149 0 -303 -60l-78 238q103 44 200 66t226 22q248 0 371 -123q118 -118 118 -350v-637h-301v119q-126 -139 -331 -139zM545 195q110 0 176.5 53t66.5 139
v55q-90 41 -198 41q-101 0 -158 -39t-57 -112v-4q0 -62 47 -97.5t123 -35.5zM635 1214q-166 0 -269 86t-116 240h209q20 -60 61 -91.5t115 -31.5t115 31.5t61 91.5h209q-13 -154 -116 -240t-269 -86zM440 -408v271h293v-271h-293z" />
    <glyph glyph-name="uni1EB8" unicode="&#x1eb8;" horiz-adv-x="1372" 
d="M567 -408v271h293v-271h-293zM172 0v1434h1081v-281h-768v-291h676v-280h-676v-301h779v-281h-1092z" />
    <glyph glyph-name="uni1EB9" unicode="&#x1eb9;" horiz-adv-x="1255" 
d="M475 -408v271h293v-271h-293zM659 -25q-249 0 -411 159t-162 409v4q0 156 68.5 286t193.5 207.5t281 77.5q133 0 237.5 -49t168 -133t96 -189.5t32.5 -224.5q0 -20 -4 -82h-764q23 -105 93.5 -160t175.5 -55q77 0 138 26t128 87l178 -158q-165 -205 -449 -205zM391 635
h469q-14 107 -74.5 170t-156.5 63t-157.5 -62.5t-80.5 -170.5z" />
    <glyph glyph-name="uni1EBA" unicode="&#x1eba;" horiz-adv-x="1372" 
d="M655 1565l-18 202q72 5 104.5 27t32.5 76q0 13 -13.5 27t-37.5 14t-53 -22t-47 -70l-158 84q54 115 117 155.5t147 40.5q106 0 174 -64t66 -161q-2 -162 -148 -221l-8 -88h-158zM172 0v1434h1081v-281h-768v-291h676v-280h-676v-301h779v-281h-1092z" />
    <glyph glyph-name="uni1EBB" unicode="&#x1ebb;" horiz-adv-x="1255" 
d="M565 1219l-18 202q72 5 104.5 27t32.5 76q0 13 -13.5 27t-37.5 14t-53.5 -22t-47.5 -70l-157 83q54 115 117 156t147 41q106 0 174 -64t66 -161q-2 -162 -148 -221l-8 -88h-158zM659 -25q-249 0 -411 159t-162 409v4q0 156 68.5 286t193.5 207.5t281 77.5
q133 0 237.5 -49t168 -133t96 -189.5t32.5 -224.5q0 -20 -4 -82h-764q23 -105 93.5 -160t175.5 -55q77 0 138 26t128 87l178 -158q-165 -205 -449 -205zM391 635h469q-14 107 -74.5 170t-156.5 63t-157.5 -62.5t-80.5 -170.5z" />
    <glyph glyph-name="uni1EBC" unicode="&#x1ebc;" horiz-adv-x="1372" 
d="M475 1556l-145 46q33 122 84 183.5t139 61.5q61 0 157 -34.5t121 -34.5q39 0 61 20.5t42 67.5l145 -45q-33 -122 -84 -184t-139 -62q-62 0 -157 35t-121 35q-39 0 -60.5 -21t-42.5 -68zM172 0v1434h1081v-281h-768v-291h676v-280h-676v-301h779v-281h-1092z" />
    <glyph glyph-name="uni1EBD" unicode="&#x1ebd;" horiz-adv-x="1255" 
d="M397 1198l-145 45q33 122 84 184t139 62q61 0 157 -35t122 -35q39 0 60 20.5t42 67.5l145 -45q-33 -122 -84 -183.5t-139 -61.5q-62 0 -157 34.5t-121 34.5q-39 0 -61 -20.5t-42 -67.5zM659 -25q-249 0 -411 159t-162 409v4q0 156 68.5 286t193.5 207.5t281 77.5
q133 0 237.5 -49t168 -133t96 -189.5t32.5 -224.5q0 -20 -4 -82h-764q23 -105 93.5 -160t175.5 -55q77 0 138 26t128 87l178 -158q-165 -205 -449 -205zM391 635h469q-14 107 -74.5 170t-156.5 63t-157.5 -62.5t-80.5 -170.5z" />
    <glyph glyph-name="uni1EBE" unicode="&#x1ebe;" horiz-adv-x="1372" 
d="M172 0v1434h1081v-281h-768v-291h676v-280h-676v-301h779v-281h-1092zM317 1546l252 322h295l252 -322h-239l-162 135l-162 -135h-236zM1004 1790l227 362l268 -116l-266 -246h-229z" />
    <glyph glyph-name="uni1EBF" unicode="&#x1ebf;" horiz-adv-x="1255" 
d="M659 -25q-249 0 -411 159t-162 409v4q0 156 68.5 286t193.5 207.5t281 77.5q133 0 237.5 -49t168 -133t96 -189.5t32.5 -224.5q0 -20 -4 -82h-764q23 -105 93.5 -160t175.5 -55q77 0 138 26t128 87l178 -158q-165 -205 -449 -205zM391 635h469q-14 107 -74.5 170
t-156.5 63t-157.5 -62.5t-80.5 -170.5zM225 1219l252 321h295l252 -321h-240l-161 135l-162 -135h-236zM911 1462l228 363l268 -117l-266 -246h-230z" />
    <glyph glyph-name="uni1EC0" unicode="&#x1ec0;" horiz-adv-x="1372" 
d="M172 0v1434h1081v-281h-768v-291h676v-280h-676v-301h779v-281h-1092zM317 1546l252 322h295l252 -322h-239l-162 135l-162 -135h-236zM1065 1792l-266 246l268 116l227 -362h-229z" />
    <glyph glyph-name="uni1EC1" unicode="&#x1ec1;" horiz-adv-x="1255" 
d="M659 -25q-249 0 -411 159t-162 409v4q0 156 68.5 286t193.5 207.5t281 77.5q133 0 237.5 -49t168 -133t96 -189.5t32.5 -224.5q0 -20 -4 -82h-764q23 -105 93.5 -160t175.5 -55q77 0 138 26t128 87l178 -158q-165 -205 -449 -205zM391 635h469q-14 107 -74.5 170
t-156.5 63t-157.5 -62.5t-80.5 -170.5zM225 1219l252 321h295l252 -321h-240l-161 135l-162 -135h-236zM973 1464l-266 246l268 117l227 -363h-229z" />
    <glyph glyph-name="uni1EC2" unicode="&#x1ec2;" horiz-adv-x="1372" 
d="M172 0v1434h1081v-281h-768v-291h676v-280h-676v-301h779v-281h-1092zM317 1546l252 322h295l252 -322h-239l-162 135l-162 -135h-236zM1016 1778l-19 202q72 5 105 27t33 76q0 13 -14 27t-38 14t-53 -22t-47 -70l-158 84q54 115 117.5 155.5t147.5 40.5q105 0 173 -64
t66 -161q-2 -162 -147 -221l-8 -88h-158z" />
    <glyph glyph-name="uni1EC3" unicode="&#x1ec3;" horiz-adv-x="1255" 
d="M659 -25q-249 0 -411 159t-162 409v4q0 156 68.5 286t193.5 207.5t281 77.5q133 0 237.5 -49t168 -133t96 -189.5t32.5 -224.5q0 -20 -4 -82h-764q23 -105 93.5 -160t175.5 -55q77 0 138 26t128 87l178 -158q-165 -205 -449 -205zM391 635h469q-14 107 -74.5 170
t-156.5 63t-157.5 -62.5t-80.5 -170.5zM225 1219l252 321h295l252 -321h-240l-161 135l-162 -135h-236zM924 1450l-19 203q72 5 104.5 26.5t32.5 75.5q0 13 -13.5 27t-37.5 14t-53 -22t-47 -70l-158 84q54 115 117 156t147 41q105 0 173.5 -64.5t66.5 -161.5
q-2 -162 -147 -221l-9 -88h-157z" />
    <glyph glyph-name="uni1EC4" unicode="&#x1ec4;" horiz-adv-x="1372" 
d="M172 0v1434h1081v-281h-768v-291h676v-280h-676v-301h779v-281h-1092zM317 1546l252 322h295l252 -322h-239l-162 135l-162 -135h-236zM485 1923l-145 45q33 122 84 184t139 62q61 0 157 -35t122 -35q39 0 60 20.5t42 67.5l146 -45q-33 -122 -84 -183.5t-140 -61.5
q-62 0 -157.5 34.5t-120.5 34.5q-39 0 -61 -20.5t-42 -67.5z" />
    <glyph glyph-name="uni1EC5" unicode="&#x1ec5;" horiz-adv-x="1255" 
d="M659 -25q-249 0 -411 159t-162 409v4q0 156 68.5 286t193.5 207.5t281 77.5q133 0 237.5 -49t168 -133t96 -189.5t32.5 -224.5q0 -20 -4 -82h-764q23 -105 93.5 -160t175.5 -55q77 0 138 26t128 87l178 -158q-165 -205 -449 -205zM391 635h469q-14 107 -74.5 170
t-156.5 63t-157.5 -62.5t-80.5 -170.5zM225 1219l252 321h295l252 -321h-240l-161 135l-162 -135h-236zM393 1595l-145 45q33 122 84 184t139 62q61 0 157 -34.5t122 -34.5q39 0 60 20.5t42 67.5l145 -45q-33 -122 -84 -184t-139 -62q-61 0 -156.5 34.5t-121.5 34.5
q-39 0 -61 -20.5t-42 -67.5z" />
    <glyph glyph-name="uni1EC6" unicode="&#x1ec6;" horiz-adv-x="1372" 
d="M172 0v1434h1081v-281h-768v-291h676v-280h-676v-301h779v-281h-1092zM317 1546l252 322h295l252 -322h-239l-162 135l-162 -135h-236zM567 -408v271h293v-271h-293z" />
    <glyph glyph-name="uni1EC7" unicode="&#x1ec7;" horiz-adv-x="1255" 
d="M659 -25q-249 0 -411 159t-162 409v4q0 156 68.5 286t193.5 207.5t281 77.5q133 0 237.5 -49t168 -133t96 -189.5t32.5 -224.5q0 -20 -4 -82h-764q23 -105 93.5 -160t175.5 -55q77 0 138 26t128 87l178 -158q-165 -205 -449 -205zM391 635h469q-14 107 -74.5 170
t-156.5 63t-157.5 -62.5t-80.5 -170.5zM225 1219l252 321h295l252 -321h-240l-161 135l-162 -135h-236zM475 -408v271h293v-271h-293z" />
    <glyph glyph-name="uni1EC8" unicode="&#x1ec8;" horiz-adv-x="688" 
d="M264 1565l-18 202q72 5 104.5 27t32.5 76q0 13 -13.5 27t-37.5 14t-53.5 -22t-47.5 -70l-157 84q54 115 117 155.5t147 40.5q106 0 174 -64t66 -161q-2 -162 -148 -221l-8 -88h-158zM186 0v1434h316v-1434h-316z" />
    <glyph glyph-name="uni1EC9" unicode="&#x1ec9;" horiz-adv-x="618" 
d="M154 0v1098h311v-1098h-311zM233 1219l-18 202q72 5 104.5 27t32.5 76q0 13 -13.5 27t-37.5 14t-53 -22t-47 -70l-158 83q54 115 117 156t147 41q106 0 174 -64t66 -161q-2 -162 -148 -221l-8 -88h-158z" />
    <glyph glyph-name="uni1ECA" unicode="&#x1eca;" horiz-adv-x="688" 
d="M197 -408v271h292v-271h-292zM186 0v1434h316v-1434h-316z" />
    <glyph glyph-name="uni1ECB" unicode="&#x1ecb;" horiz-adv-x="618" 
d="M166 -408v271h293v-271h-293zM145 1219v276h328v-276h-328zM154 0v1098h311v-1098h-311z" />
    <glyph glyph-name="uni1ECC" unicode="&#x1ecc;" horiz-adv-x="1740" 
d="M725 -408v271h293v-271h-293zM868 -25q-162 0 -304.5 58t-241.5 157.5t-156 235.5t-57 287v4q0 151 57.5 287.5t157.5 236.5t243 158.5t305 58.5q216 0 391 -99t272 -267.5t97 -370.5v-4q0 -151 -58 -287.5t-158 -236.5t-243 -159t-305 -59zM872 266q124 0 223.5 60.5
t153.5 162.5t54 224v4q0 187 -123.5 318.5t-311.5 131.5q-124 0 -223 -60t-153 -162t-54 -224v-4q0 -122 55 -225t155 -164.5t224 -61.5z" />
    <glyph glyph-name="uni1ECD" unicode="&#x1ecd;" horiz-adv-x="1359" 
d="M535 -408v271h292v-271h-292zM678 -25q-166 0 -302 75.5t-213 205.5t-77 287v4q0 117 45.5 222t124 182t189.5 122t237 45q166 0 302 -75t213 -205t77 -287v-4q0 -156 -77 -287t-214 -208t-305 -77zM682 244q130 0 207.5 86t77.5 213v4q0 125 -81.5 214t-207.5 89
q-130 0 -207.5 -86t-77.5 -213v-4q0 -125 81.5 -214t207.5 -89z" />
    <glyph glyph-name="uni1ECE" unicode="&#x1ece;" horiz-adv-x="1740" 
d="M868 -25q-162 0 -304.5 58t-241.5 157.5t-156 235.5t-57 287v4q0 151 57.5 287.5t157.5 236.5t243 158.5t305 58.5q216 0 391 -99t272 -267.5t97 -370.5v-4q0 -151 -58 -287.5t-158 -236.5t-243 -159t-305 -59zM872 266q124 0 223.5 60.5t153.5 162.5t54 224v4
q0 187 -123.5 318.5t-311.5 131.5q-124 0 -223 -60t-153 -162t-54 -224v-4q0 -122 55 -225t155 -164.5t224 -61.5zM793 1565l-19 202q72 5 104.5 27t32.5 76q0 13 -13.5 27t-37.5 14t-53 -22t-47 -70l-158 84q54 115 117 155.5t147 40.5q106 0 174 -64t66 -161
q-2 -162 -148 -221l-8 -88h-157z" />
    <glyph glyph-name="uni1ECF" unicode="&#x1ecf;" horiz-adv-x="1359" 
d="M678 -25q-166 0 -302 75.5t-213 205.5t-77 287v4q0 117 45.5 222t124 182t189.5 122t237 45q166 0 302 -75t213 -205t77 -287v-4q0 -156 -77 -287t-214 -208t-305 -77zM682 244q130 0 207.5 86t77.5 213v4q0 125 -81.5 214t-207.5 89q-130 0 -207.5 -86t-77.5 -213v-4
q0 -125 81.5 -214t207.5 -89zM604 1219l-18 202q72 5 104.5 27t32.5 76q0 13 -13.5 27t-37.5 14t-53.5 -22t-47.5 -70l-157 83q54 115 117 156t147 41q106 0 174 -64t66 -161q-2 -162 -148 -221l-8 -88h-158z" />
    <glyph glyph-name="uni1ED0" unicode="&#x1ed0;" horiz-adv-x="1740" 
d="M868 -25q-162 0 -304.5 58t-241.5 157.5t-156 235.5t-57 287v4q0 151 57.5 287.5t157.5 236.5t243 158.5t305 58.5q216 0 391 -99t272 -267.5t97 -370.5v-4q0 -151 -58 -287.5t-158 -236.5t-243 -159t-305 -59zM872 266q124 0 223.5 60.5t153.5 162.5t54 224v4
q0 187 -123.5 318.5t-311.5 131.5q-124 0 -223 -60t-153 -162t-54 -224v-4q0 -122 55 -225t155 -164.5t224 -61.5zM471 1565l252 321h295l252 -321h-240l-162 135l-161 -135h-236zM1157 1810l227 363l269 -117l-267 -246h-229z" />
    <glyph glyph-name="uni1ED1" unicode="&#x1ed1;" horiz-adv-x="1359" 
d="M678 -25q-166 0 -302 75.5t-213 205.5t-77 287v4q0 117 45.5 222t124 182t189.5 122t237 45q166 0 302 -75t213 -205t77 -287v-4q0 -156 -77 -287t-214 -208t-305 -77zM682 244q130 0 207.5 86t77.5 213v4q0 125 -81.5 214t-207.5 89q-130 0 -207.5 -86t-77.5 -213v-4
q0 -125 81.5 -214t207.5 -89zM281 1219l251 321h295l252 -321h-239l-162 135l-162 -135h-235zM967 1462l227 363l268 -117l-266 -246h-229z" />
    <glyph glyph-name="uni1ED2" unicode="&#x1ed2;" horiz-adv-x="1740" 
d="M868 -25q-162 0 -304.5 58t-241.5 157.5t-156 235.5t-57 287v4q0 151 57.5 287.5t157.5 236.5t243 158.5t305 58.5q216 0 391 -99t272 -267.5t97 -370.5v-4q0 -151 -58 -287.5t-158 -236.5t-243 -159t-305 -59zM872 266q124 0 223.5 60.5t153.5 162.5t54 224v4
q0 187 -123.5 318.5t-311.5 131.5q-124 0 -223 -60t-153 -162t-54 -224v-4q0 -122 55 -225t155 -164.5t224 -61.5zM471 1565l252 321h295l252 -321h-240l-162 135l-161 -135h-236zM1219 1810l-267 246l269 117l227 -363h-229z" />
    <glyph glyph-name="uni1ED3" unicode="&#x1ed3;" horiz-adv-x="1359" 
d="M678 -25q-166 0 -302 75.5t-213 205.5t-77 287v4q0 117 45.5 222t124 182t189.5 122t237 45q166 0 302 -75t213 -205t77 -287v-4q0 -156 -77 -287t-214 -208t-305 -77zM682 244q130 0 207.5 86t77.5 213v4q0 125 -81.5 214t-207.5 89q-130 0 -207.5 -86t-77.5 -213v-4
q0 -125 81.5 -214t207.5 -89zM281 1219l251 321h295l252 -321h-239l-162 135l-162 -135h-235zM1028 1464l-266 246l268 117l227 -363h-229z" />
    <glyph glyph-name="uni1ED4" unicode="&#x1ed4;" horiz-adv-x="1740" 
d="M868 -25q-162 0 -304.5 58t-241.5 157.5t-156 235.5t-57 287v4q0 151 57.5 287.5t157.5 236.5t243 158.5t305 58.5q216 0 391 -99t272 -267.5t97 -370.5v-4q0 -151 -58 -287.5t-158 -236.5t-243 -159t-305 -59zM872 266q124 0 223.5 60.5t153.5 162.5t54 224v4
q0 187 -123.5 318.5t-311.5 131.5q-124 0 -223 -60t-153 -162t-54 -224v-4q0 -122 55 -225t155 -164.5t224 -61.5zM471 1565l252 321h295l252 -321h-240l-162 135l-161 -135h-236zM1169 1798l-18 203q72 5 104.5 26.5t32.5 75.5q0 13 -13.5 27t-37.5 14t-53 -22t-47 -70
l-158 84q54 115 117 156t147 41q105 0 173.5 -64.5t66.5 -161.5q-2 -162 -148 -221l-8 -88h-158z" />
    <glyph glyph-name="uni1ED5" unicode="&#x1ed5;" horiz-adv-x="1359" 
d="M678 -25q-166 0 -302 75.5t-213 205.5t-77 287v4q0 117 45.5 222t124 182t189.5 122t237 45q166 0 302 -75t213 -205t77 -287v-4q0 -156 -77 -287t-214 -208t-305 -77zM682 244q130 0 207.5 86t77.5 213v4q0 125 -81.5 214t-207.5 89q-130 0 -207.5 -86t-77.5 -213v-4
q0 -125 81.5 -214t207.5 -89zM281 1219l251 321h295l252 -321h-239l-162 135l-162 -135h-235zM979 1450l-18 203q72 5 104.5 26.5t32.5 75.5q0 13 -13.5 27t-37.5 14t-53.5 -22t-47.5 -70l-158 84q54 115 117.5 156t147.5 41q105 0 173 -64.5t66 -161.5q-2 -162 -147 -221
l-8 -88h-158z" />
    <glyph glyph-name="uni1ED6" unicode="&#x1ed6;" horiz-adv-x="1740" 
d="M868 -25q-162 0 -304.5 58t-241.5 157.5t-156 235.5t-57 287v4q0 151 57.5 287.5t157.5 236.5t243 158.5t305 58.5q216 0 391 -99t272 -267.5t97 -370.5v-4q0 -151 -58 -287.5t-158 -236.5t-243 -159t-305 -59zM872 266q124 0 223.5 60.5t153.5 162.5t54 224v4
q0 187 -123.5 318.5t-311.5 131.5q-124 0 -223 -60t-153 -162t-54 -224v-4q0 -122 55 -225t155 -164.5t224 -61.5zM471 1565l252 321h295l252 -321h-240l-162 135l-161 -135h-236zM639 1942l-145 45q33 122 84 183.5t139 61.5q61 0 157 -34.5t121 -34.5q39 0 61 20.5
t42 67.5l145 -45q-33 -122 -84 -184t-139 -62q-62 0 -158 35t-121 35q-39 0 -60 -20.5t-42 -67.5z" />
    <glyph glyph-name="uni1ED7" unicode="&#x1ed7;" horiz-adv-x="1359" 
d="M678 -25q-166 0 -302 75.5t-213 205.5t-77 287v4q0 117 45.5 222t124 182t189.5 122t237 45q166 0 302 -75t213 -205t77 -287v-4q0 -156 -77 -287t-214 -208t-305 -77zM682 244q130 0 207.5 86t77.5 213v4q0 125 -81.5 214t-207.5 89q-130 0 -207.5 -86t-77.5 -213v-4
q0 -125 81.5 -214t207.5 -89zM281 1219l251 321h295l252 -321h-239l-162 135l-162 -135h-235zM449 1595l-146 45q33 122 84 184t139 62q62 0 158 -34.5t121 -34.5q39 0 60 20.5t42 67.5l146 -45q-33 -122 -84.5 -184t-139.5 -62q-61 0 -157 34.5t-121 34.5q-39 0 -60 -20.5
t-42 -67.5z" />
    <glyph glyph-name="uni1ED8" unicode="&#x1ed8;" horiz-adv-x="1740" 
d="M868 -25q-162 0 -304.5 58t-241.5 157.5t-156 235.5t-57 287v4q0 151 57.5 287.5t157.5 236.5t243 158.5t305 58.5q216 0 391 -99t272 -267.5t97 -370.5v-4q0 -151 -58 -287.5t-158 -236.5t-243 -159t-305 -59zM872 266q124 0 223.5 60.5t153.5 162.5t54 224v4
q0 187 -123.5 318.5t-311.5 131.5q-124 0 -223 -60t-153 -162t-54 -224v-4q0 -122 55 -225t155 -164.5t224 -61.5zM471 1565l252 321h295l252 -321h-240l-162 135l-161 -135h-236zM725 -408v271h293v-271h-293z" />
    <glyph glyph-name="uni1ED9" unicode="&#x1ed9;" horiz-adv-x="1359" 
d="M678 -25q-166 0 -302 75.5t-213 205.5t-77 287v4q0 117 45.5 222t124 182t189.5 122t237 45q166 0 302 -75t213 -205t77 -287v-4q0 -156 -77 -287t-214 -208t-305 -77zM682 244q130 0 207.5 86t77.5 213v4q0 125 -81.5 214t-207.5 89q-130 0 -207.5 -86t-77.5 -213v-4
q0 -125 81.5 -214t207.5 -89zM281 1219l251 321h295l252 -321h-239l-162 135l-162 -135h-235zM535 -408v271h292v-271h-292z" />
    <glyph glyph-name="uni1EDA" unicode="&#x1eda;" horiz-adv-x="1740" 
d="M868 -25q-162 0 -304.5 58t-241.5 157.5t-156 235.5t-57 287v4q0 151 57.5 287.5t157.5 236.5t243 158.5t305 58.5q203 0 375 -90q66 4 91.5 16.5t25.5 38.5q0 70 -74 205h309q43 -136 43 -248q-12 -149 -151 -223q141 -193 141 -436v-4q0 -151 -58 -287.5t-158 -236.5
t-243 -159t-305 -59zM872 266q124 0 223.5 60.5t153.5 162.5t54 224v4q0 187 -123.5 318.5t-311.5 131.5q-124 0 -223 -60t-153 -162t-54 -224v-4q0 -122 55 -225t155 -164.5t224 -61.5zM639 1567l227 362l269 -117l-267 -245h-229z" />
    <glyph glyph-name="uni1EDB" unicode="&#x1edb;" horiz-adv-x="1359" 
d="M678 -25q-166 0 -302 75.5t-213 205.5t-77 287v4q0 117 45.5 222t124 182t189.5 122t237 45q150 0 283 -65q46 4 64 15.5t18 35.5q0 72 -72 203h305q43 -123 43 -244q-9 -142 -135 -215q86 -133 86 -297v-4q0 -156 -77 -287t-214 -208t-305 -77zM682 244q130 0 207.5 86
t77.5 213v4q0 125 -81.5 214t-207.5 89q-130 0 -207.5 -86t-77.5 -213v-4q0 -125 81.5 -214t207.5 -89zM487 1219l228 362l268 -117l-266 -245h-230z" />
    <glyph glyph-name="uni1EDC" unicode="&#x1edc;" horiz-adv-x="1740" 
d="M868 -25q-162 0 -304.5 58t-241.5 157.5t-156 235.5t-57 287v4q0 151 57.5 287.5t157.5 236.5t243 158.5t305 58.5q203 0 375 -90q66 4 91.5 16.5t25.5 38.5q0 70 -74 205h309q43 -136 43 -248q-12 -149 -151 -223q141 -193 141 -436v-4q0 -151 -58 -287.5t-158 -236.5
t-243 -159t-305 -59zM872 266q124 0 223.5 60.5t153.5 162.5t54 224v4q0 187 -123.5 318.5t-311.5 131.5q-124 0 -223 -60t-153 -162t-54 -224v-4q0 -122 55 -225t155 -164.5t224 -61.5zM870 1565l-266 245l268 117l228 -362h-230z" />
    <glyph glyph-name="uni1EDD" unicode="&#x1edd;" horiz-adv-x="1359" 
d="M678 -25q-166 0 -302 75.5t-213 205.5t-77 287v4q0 117 45.5 222t124 182t189.5 122t237 45q150 0 283 -65q46 4 64 15.5t18 35.5q0 72 -72 203h305q43 -123 43 -244q-9 -142 -135 -215q86 -133 86 -297v-4q0 -156 -77 -287t-214 -208t-305 -77zM682 244q130 0 207.5 86
t77.5 213v4q0 125 -81.5 214t-207.5 89q-130 0 -207.5 -86t-77.5 -213v-4q0 -125 81.5 -214t207.5 -89zM659 1219l-266 245l269 117l227 -362h-230z" />
    <glyph glyph-name="uni1EDE" unicode="&#x1ede;" horiz-adv-x="1740" 
d="M868 -25q-162 0 -304.5 58t-241.5 157.5t-156 235.5t-57 287v4q0 151 57.5 287.5t157.5 236.5t243 158.5t305 58.5q203 0 375 -90q66 4 91.5 16.5t25.5 38.5q0 70 -74 205h309q43 -136 43 -248q-12 -149 -151 -223q141 -193 141 -436v-4q0 -151 -58 -287.5t-158 -236.5
t-243 -159t-305 -59zM872 266q124 0 223.5 60.5t153.5 162.5t54 224v4q0 187 -123.5 318.5t-311.5 131.5q-124 0 -223 -60t-153 -162t-54 -224v-4q0 -122 55 -225t155 -164.5t224 -61.5zM793 1565l-19 202q72 5 104.5 27t32.5 76q0 13 -13.5 27t-37.5 14t-53 -22t-47 -70
l-158 84q54 115 117 155.5t147 40.5q106 0 174 -64t66 -161q-2 -162 -148 -221l-8 -88h-157z" />
    <glyph glyph-name="uni1EDF" unicode="&#x1edf;" horiz-adv-x="1359" 
d="M678 -25q-166 0 -302 75.5t-213 205.5t-77 287v4q0 117 45.5 222t124 182t189.5 122t237 45q150 0 283 -65q46 4 64 15.5t18 35.5q0 72 -72 203h305q43 -123 43 -244q-9 -142 -135 -215q86 -133 86 -297v-4q0 -156 -77 -287t-214 -208t-305 -77zM682 244q130 0 207.5 86
t77.5 213v4q0 125 -81.5 214t-207.5 89q-130 0 -207.5 -86t-77.5 -213v-4q0 -125 81.5 -214t207.5 -89zM604 1219l-18 202q72 5 104.5 27t32.5 76q0 13 -13.5 27t-37.5 14t-53.5 -22t-47.5 -70l-157 83q54 115 117 156t147 41q106 0 174 -64t66 -161q-2 -162 -148 -221
l-8 -88h-158z" />
    <glyph glyph-name="uni1EE0" unicode="&#x1ee0;" horiz-adv-x="1740" 
d="M868 -25q-162 0 -304.5 58t-241.5 157.5t-156 235.5t-57 287v4q0 151 57.5 287.5t157.5 236.5t243 158.5t305 58.5q203 0 375 -90q66 4 91.5 16.5t25.5 38.5q0 70 -74 205h309q43 -136 43 -248q-12 -149 -151 -223q141 -193 141 -436v-4q0 -151 -58 -287.5t-158 -236.5
t-243 -159t-305 -59zM872 266q124 0 223.5 60.5t153.5 162.5t54 224v4q0 187 -123.5 318.5t-311.5 131.5q-124 0 -223 -60t-153 -162t-54 -224v-4q0 -122 55 -225t155 -164.5t224 -61.5zM635 1556l-146 46q33 122 84 183.5t140 61.5q61 0 157 -34.5t121 -34.5q39 0 61 20.5
t42 67.5l145 -45q-33 -122 -84 -184t-139 -62q-62 0 -158 35t-121 35q-39 0 -60 -21t-42 -68z" />
    <glyph glyph-name="uni1EE1" unicode="&#x1ee1;" horiz-adv-x="1359" 
d="M678 -25q-166 0 -302 75.5t-213 205.5t-77 287v4q0 117 45.5 222t124 182t189.5 122t237 45q150 0 283 -65q46 4 64 15.5t18 35.5q0 72 -72 203h305q43 -123 43 -244q-9 -142 -135 -215q86 -133 86 -297v-4q0 -156 -77 -287t-214 -208t-305 -77zM682 244q130 0 207.5 86
t77.5 213v4q0 125 -81.5 214t-207.5 89q-130 0 -207.5 -86t-77.5 -213v-4q0 -125 81.5 -214t207.5 -89zM436 1198l-131 43q32 119 76 176.5t125 57.5q53 0 139 -33t111 -33q34 0 52.5 19t37.5 65l131 -43q-32 -119 -76 -176t-125 -57q-54 0 -140.5 32.5t-109.5 32.5
q-34 0 -52.5 -19t-37.5 -65z" />
    <glyph glyph-name="uni1EE2" unicode="&#x1ee2;" horiz-adv-x="1740" 
d="M868 -25q-162 0 -304.5 58t-241.5 157.5t-156 235.5t-57 287v4q0 151 57.5 287.5t157.5 236.5t243 158.5t305 58.5q203 0 375 -90q66 4 91.5 16.5t25.5 38.5q0 70 -74 205h309q43 -136 43 -248q-12 -149 -151 -223q141 -193 141 -436v-4q0 -151 -58 -287.5t-158 -236.5
t-243 -159t-305 -59zM872 266q124 0 223.5 60.5t153.5 162.5t54 224v4q0 187 -123.5 318.5t-311.5 131.5q-124 0 -223 -60t-153 -162t-54 -224v-4q0 -122 55 -225t155 -164.5t224 -61.5zM725 -408v271h293v-271h-293z" />
    <glyph glyph-name="uni1EE3" unicode="&#x1ee3;" horiz-adv-x="1359" 
d="M678 -25q-166 0 -302 75.5t-213 205.5t-77 287v4q0 117 45.5 222t124 182t189.5 122t237 45q150 0 283 -65q46 4 64 15.5t18 35.5q0 72 -72 203h305q43 -123 43 -244q-9 -142 -135 -215q86 -133 86 -297v-4q0 -156 -77 -287t-214 -208t-305 -77zM682 244q130 0 207.5 86
t77.5 213v4q0 125 -81.5 214t-207.5 89q-130 0 -207.5 -86t-77.5 -213v-4q0 -125 81.5 -214t207.5 -89zM535 -408v271h292v-271h-292z" />
    <glyph glyph-name="uni1EE4" unicode="&#x1ee4;" horiz-adv-x="1548" 
d="M770 -23q-294 0 -457 162t-163 475v820h315v-811q0 -175 80.5 -265t228.5 -90t228.5 87t80.5 257v822h316v-809q0 -319 -166.5 -483.5t-462.5 -164.5zM627 -408v271h293v-271h-293z" />
    <glyph glyph-name="uni1EE5" unicode="&#x1ee5;" horiz-adv-x="1275" 
d="M481 -408v271h293v-271h-293zM504 -20q-178 0 -275.5 107.5t-97.5 299.5v711h311v-613q0 -109 49 -166t140 -57q92 0 143 57t51 166v613h312v-1098h-312v156q-64 -82 -139 -129t-182 -47z" />
    <glyph glyph-name="uni1EE6" unicode="&#x1ee6;" horiz-adv-x="1548" 
d="M705 1565l-19 202q72 5 104.5 27t32.5 76q0 13 -13.5 27t-37.5 14t-53 -22t-47 -70l-158 84q54 115 117 155.5t147 40.5q106 0 174 -64t66 -161q-2 -162 -148 -221l-8 -88h-157zM770 -23q-294 0 -457 162t-163 475v820h315v-811q0 -175 80.5 -265t228.5 -90t228.5 87
t80.5 257v822h316v-809q0 -319 -166.5 -483.5t-462.5 -164.5z" />
    <glyph glyph-name="uni1EE7" unicode="&#x1ee7;" horiz-adv-x="1275" 
d="M559 1219l-18 202q72 5 104.5 27t32.5 76q0 13 -13.5 27t-37.5 14t-53.5 -22t-47.5 -70l-157 83q54 115 117 156t147 41q105 0 173 -64t66 -161q-2 -162 -147 -221l-8 -88h-158zM504 -20q-178 0 -275.5 107.5t-97.5 299.5v711h311v-613q0 -109 49 -166t140 -57
q92 0 143 57t51 166v613h312v-1098h-312v156q-64 -82 -139 -129t-182 -47z" />
    <glyph glyph-name="uni1EE8" unicode="&#x1ee8;" horiz-adv-x="1662" 
d="M1290 1688h309q43 -136 43 -248q-16 -197 -243 -260v-555q0 -319 -166.5 -483.5t-462.5 -164.5q-294 0 -457 162t-163 475v820h315v-811q0 -175 80.5 -265t228.5 -90t228.5 87t80.5 257v822h224q32 6 44.5 17t12.5 32q0 70 -74 205zM602 1546l227 363l269 -117l-267 -246
h-229z" />
    <glyph glyph-name="uni1EE9" unicode="&#x1ee9;" horiz-adv-x="1363" 
d="M504 -20q-178 0 -275.5 107.5t-97.5 299.5v711h311v-613q0 -109 49 -166t140 -57q92 0 143 57t51 166v613h217q41 9 41 43q0 72 -71 202h305q43 -123 43 -243q-15 -184 -223 -254v-846h-312v156q-64 -82 -139 -129t-182 -47zM438 1219l228 362l268 -117l-266 -245h-230z
" />
    <glyph glyph-name="uni1EEA" unicode="&#x1eea;" horiz-adv-x="1662" 
d="M1290 1688h309q43 -136 43 -248q-16 -197 -243 -260v-555q0 -319 -166.5 -483.5t-462.5 -164.5q-294 0 -457 162t-163 475v820h315v-811q0 -175 80.5 -265t228.5 -90t228.5 87t80.5 257v822h224q32 6 44.5 17t12.5 32q0 70 -74 205zM731 1546l-266 246l268 117l228 -363
h-230z" />
    <glyph glyph-name="uni1EEB" unicode="&#x1eeb;" horiz-adv-x="1363" 
d="M504 -20q-178 0 -275.5 107.5t-97.5 299.5v711h311v-613q0 -109 49 -166t140 -57q92 0 143 57t51 166v613h217q41 9 41 43q0 72 -71 202h305q43 -123 43 -243q-15 -184 -223 -254v-846h-312v156q-64 -82 -139 -129t-182 -47zM590 1219l-266 245l268 117l227 -362h-229z
" />
    <glyph glyph-name="uni1EEC" unicode="&#x1eec;" horiz-adv-x="1662" 
d="M1290 1688h309q43 -136 43 -248q-16 -197 -243 -260v-555q0 -319 -166.5 -483.5t-462.5 -164.5q-294 0 -457 162t-163 475v820h315v-811q0 -175 80.5 -265t228.5 -90t228.5 87t80.5 257v822h224q32 6 44.5 17t12.5 32q0 70 -74 205zM705 1565l-19 202q72 5 104.5 27
t32.5 76q0 13 -13.5 27t-37.5 14t-53 -22t-47 -70l-158 84q54 115 117 155.5t147 40.5q106 0 174 -64t66 -161q-2 -162 -148 -221l-8 -88h-157z" />
    <glyph glyph-name="uni1EED" unicode="&#x1eed;" horiz-adv-x="1363" 
d="M504 -20q-178 0 -275.5 107.5t-97.5 299.5v711h311v-613q0 -109 49 -166t140 -57q92 0 143 57t51 166v613h217q41 9 41 43q0 72 -71 202h305q43 -123 43 -243q-15 -184 -223 -254v-846h-312v156q-64 -82 -139 -129t-182 -47zM559 1219l-18 202q72 5 104.5 27t32.5 76
q0 13 -13.5 27t-37.5 14t-53.5 -22t-47.5 -70l-157 83q54 115 117 156t147 41q105 0 173 -64t66 -161q-2 -162 -147 -221l-8 -88h-158z" />
    <glyph glyph-name="uni1EEE" unicode="&#x1eee;" horiz-adv-x="1662" 
d="M1290 1688h309q43 -136 43 -248q-16 -197 -243 -260v-555q0 -319 -166.5 -483.5t-462.5 -164.5q-294 0 -457 162t-163 475v820h315v-811q0 -175 80.5 -265t228.5 -90t228.5 87t80.5 257v822h224q32 6 44.5 17t12.5 32q0 70 -74 205zM559 1556l-145 46q33 122 84 183.5
t139 61.5q61 0 157 -34.5t121 -34.5q39 0 61 20.5t42 67.5l145 -45q-33 -122 -84 -184t-139 -62q-62 0 -157 35t-121 35q-39 0 -60.5 -21t-42.5 -68z" />
    <glyph glyph-name="uni1EEF" unicode="&#x1eef;" horiz-adv-x="1363" 
d="M504 -20q-178 0 -275.5 107.5t-97.5 299.5v711h311v-613q0 -109 49 -166t140 -57q92 0 143 57t51 166v613h217q41 9 41 43q0 72 -71 202h305q43 -123 43 -243q-15 -184 -223 -254v-846h-312v156q-64 -82 -139 -129t-182 -47zM397 1198l-145 45q33 122 84 184t139 62
q61 0 157 -35t122 -35q39 0 60 20.5t42 67.5l145 -45q-33 -122 -84 -183.5t-139 -61.5q-62 0 -157 34.5t-121 34.5q-39 0 -61 -20.5t-42 -67.5z" />
    <glyph glyph-name="uni1EF0" unicode="&#x1ef0;" horiz-adv-x="1662" 
d="M1290 1688h309q43 -136 43 -248q-16 -197 -243 -260v-555q0 -319 -166.5 -483.5t-462.5 -164.5q-294 0 -457 162t-163 475v820h315v-811q0 -175 80.5 -265t228.5 -90t228.5 87t80.5 257v822h224q32 6 44.5 17t12.5 32q0 70 -74 205zM627 -408v271h293v-271h-293z" />
    <glyph glyph-name="uni1EF1" unicode="&#x1ef1;" horiz-adv-x="1363" 
d="M504 -20q-178 0 -275.5 107.5t-97.5 299.5v711h311v-613q0 -109 49 -166t140 -57q92 0 143 57t51 166v613h217q41 9 41 43q0 72 -71 202h305q43 -123 43 -243q-15 -184 -223 -254v-846h-312v156q-64 -82 -139 -129t-182 -47zM481 -408v271h293v-271h-293z" />
    <glyph glyph-name="Ygrave" unicode="&#x1ef2;" horiz-adv-x="1466" 
d="M575 0v565l-550 869h368l342 -576l348 576h359l-551 -863v-571h-316zM694 1546l-266 246l268 117l228 -363h-230z" />
    <glyph glyph-name="ygrave" unicode="&#x1ef3;" horiz-adv-x="1228" 
d="M401 -334q-147 0 -276 76l104 225q71 -43 133 -43q42 0 65.5 15.5t43.5 56.5l-430 1102h330l250 -748l239 748h324l-422 -1125q-62 -168 -143 -237.5t-218 -69.5zM557 1219l-266 245l268 117l227 -362h-229z" />
    <glyph glyph-name="uni1EF4" unicode="&#x1ef4;" horiz-adv-x="1466" 
d="M588 -408v271h293v-271h-293zM575 0v565l-550 869h368l342 -576l348 576h359l-551 -863v-571h-316z" />
    <glyph glyph-name="uni1EF5" unicode="&#x1ef5;" horiz-adv-x="1228" 
d="M862 -408v271h293v-271h-293zM401 -334q-147 0 -276 76l104 225q71 -43 133 -43q42 0 65.5 15.5t43.5 56.5l-430 1102h330l250 -748l239 748h324l-422 -1125q-62 -168 -143 -237.5t-218 -69.5z" />
    <glyph glyph-name="uni1EF6" unicode="&#x1ef6;" horiz-adv-x="1466" 
d="M676 1565l-19 202q72 5 105 27t33 76q0 13 -14 27t-38 14t-53 -22t-47 -70l-158 84q54 115 117.5 155.5t147.5 40.5q105 0 173 -64t66 -161q-2 -162 -147 -221l-8 -88h-158zM575 0v565l-550 869h368l342 -576l348 576h359l-551 -863v-571h-316z" />
    <glyph glyph-name="uni1EF7" unicode="&#x1ef7;" horiz-adv-x="1228" 
d="M547 1219l-19 202q72 5 105 27t33 76q0 13 -14 27t-38 14t-53 -22t-47 -70l-158 83q54 115 117.5 156t147.5 41q105 0 173 -64t66 -161q-2 -162 -147 -221l-8 -88h-158zM401 -334q-147 0 -276 76l104 225q71 -43 133 -43q42 0 65.5 15.5t43.5 56.5l-430 1102h330
l250 -748l239 748h324l-422 -1125q-62 -168 -143 -237.5t-218 -69.5z" />
    <glyph glyph-name="uni1EF8" unicode="&#x1ef8;" horiz-adv-x="1466" 
d="M508 1556l-146 46q33 122 84 183.5t140 61.5q62 0 157 -34.5t121 -34.5q39 0 61 20.5t42 67.5l145 -45q-33 -122 -84 -184t-139 -62q-61 0 -157 35t-122 35q-39 0 -60 -21t-42 -68zM575 0v565l-550 869h368l342 -576l348 576h359l-551 -863v-571h-316z" />
    <glyph glyph-name="uni1EF9" unicode="&#x1ef9;" horiz-adv-x="1228" 
d="M389 1198l-145 45q33 122 84 184t139 62q61 0 157 -35t121 -35q39 0 61 20.5t42 67.5l145 -45q-33 -122 -84 -183.5t-139 -61.5q-62 0 -157 34.5t-121 34.5q-39 0 -61 -20.5t-42 -67.5zM401 -334q-147 0 -276 76l104 225q71 -43 133 -43q42 0 65.5 15.5t43.5 56.5
l-430 1102h330l250 -748l239 748h324l-422 -1125q-62 -168 -143 -237.5t-218 -69.5z" />
    <glyph glyph-name="uni1EFA" unicode="&#x1efa;" horiz-adv-x="0" 
d="M1260 1688h309q43 -136 43 -248q-11 -130 -120 -205.5t-312 -81.5v272q90 4 121.5 16.5t31.5 41.5q0 72 -73 205z" />
    <glyph glyph-name="uni1EFB" unicode="&#x1efb;" horiz-adv-x="0" 
d="M625 1360l-19 203q137 9 137 106q0 13 -13.5 25t-37.5 12t-53 -22t-47 -70l-158 84q54 115 117 155.5t147 40.5q106 0 174 -64t66 -161q-2 -162 -147 -221l-9 -88h-157z" />
    <glyph glyph-name="enspace" unicode="&#x2002;" 
 />
    <glyph glyph-name="emspace" unicode="&#x2003;" horiz-adv-x="2048" 
 />
    <glyph glyph-name="threeperemspace" unicode="&#x2004;" horiz-adv-x="681" 
 />
    <glyph glyph-name="fourperemspace" unicode="&#x2005;" horiz-adv-x="512" 
 />
    <glyph glyph-name="thinspace" unicode="&#x2009;" horiz-adv-x="272" 
 />
    <glyph glyph-name="hairspace" unicode="&#x200a;" horiz-adv-x="153" 
 />
    <glyph glyph-name="endash" unicode="&#x2013;" horiz-adv-x="1081" 
d="M102 489v291h877v-291h-877z" />
    <glyph glyph-name="emdash" unicode="&#x2014;" horiz-adv-x="1839" 
d="M102 489v291h1635v-291h-1635z" />
    <glyph glyph-name="quoteleft" unicode="&#x2018;" horiz-adv-x="585" 
d="M117 784v277q0 197 95 287.5t284 95.5l26 -129q-215 -21 -200 -203h127v-328h-332z" />
    <glyph glyph-name="quoteright" unicode="&#x2019;" horiz-adv-x="585" 
d="M90 774l-27 129q216 21 201 203h-127v328h332v-277q0 -198 -95.5 -289.5t-283.5 -93.5z" />
    <glyph glyph-name="quotesinglbase" unicode="&#x201a;" horiz-adv-x="585" 
d="M80 -332l-27 129q216 21 201 203h-127v328h332v-277q0 -198 -95.5 -289.5t-283.5 -93.5z" />
    <glyph glyph-name="quotedblleft" unicode="&#x201c;" horiz-adv-x="1105" 
d="M637 784v277q0 197 95 287.5t284 95.5l26 -129q-215 -21 -200 -203h127v-328h-332zM117 784v277q0 197 95 287.5t284 95.5l26 -129q-215 -21 -200 -203h127v-328h-332z" />
    <glyph glyph-name="quotedblright" unicode="&#x201d;" horiz-adv-x="1105" 
d="M610 774l-26 129q215 21 200 203h-127v328h332v-277q0 -198 -95.5 -289.5t-283.5 -93.5zM90 774l-27 129q216 21 201 203h-127v328h332v-277q0 -198 -95.5 -289.5t-283.5 -93.5z" />
    <glyph glyph-name="quotedblbase" unicode="&#x201e;" horiz-adv-x="1105" 
d="M600 -332l-27 129q216 21 201 203h-127v328h332v-277q0 -198 -95.5 -289.5t-283.5 -93.5zM80 -332l-27 129q216 21 201 203h-127v328h332v-277q0 -198 -95.5 -289.5t-283.5 -93.5z" />
    <glyph glyph-name="dagger" unicode="&#x2020;" horiz-adv-x="839" 
d="M334 487l20 553l-245 -20v170l243 -21l-26 265h188l-27 -265l244 21v-170l-246 20l21 -553h-172z" />
    <glyph glyph-name="daggerdbl" unicode="&#x2021;" horiz-adv-x="880" 
d="M346 0l27 264l-244 -20v170l244 -21l-19 324l19 323l-244 -20v170l244 -21l-27 265h189l-27 -265l244 21v-170l-244 20l18 -323l-18 -324l244 21v-170l-244 20l27 -264h-189z" />
    <glyph glyph-name="bullet" unicode="&#x2022;" 
d="M512 416q-128 0 -216.5 88t-88.5 215v4q0 127 88.5 215t216.5 88q127 0 216 -88t89 -215v-4q0 -127 -89 -215t-216 -88z" />
    <glyph glyph-name="ellipsis" unicode="&#x2026;" horiz-adv-x="1720" 
d="M1270 0v319h323v-319h-323zM698 0v319h324v-319h-324zM127 0v319h324v-319h-324z" />
    <glyph glyph-name="perthousand" unicode="&#x2030;" horiz-adv-x="2539" 
d="M438 717q-153 0 -249.5 104t-96.5 258v4q0 155 98.5 261t251.5 106t249.5 -104.5t96.5 -258.5v-4q0 -155 -98.5 -260.5t-251.5 -105.5zM2097 -16q-153 0 -249.5 104t-96.5 258v4q0 155 98.5 261t251.5 106t249.5 -104.5t96.5 -258.5v-4q0 -155 -98.5 -260.5
t-251.5 -105.5zM1319 -16q-153 0 -249.5 104t-96.5 258v4q0 155 98.5 261t251.5 106t249.5 -104.5t96.5 -258.5v-4q0 -155 -98.5 -260.5t-251.5 -105.5zM442 903q63 0 97 51t34 125v4q0 75 -37.5 128t-97.5 53q-63 0 -97 -50.5t-34 -126.5v-4q0 -74 37.5 -127t97.5 -53z
M2101 170q63 0 97 51t34 125v4q0 74 -37.5 127t-97.5 53q-63 0 -97 -50t-34 -126v-4q0 -74 37.5 -127t97.5 -53zM1323 170q63 0 97 51t34 125v4q0 74 -37.5 127t-97.5 53q-63 0 -97 -50t-34 -126v-4q0 -74 37.5 -127t97.5 -53zM809 772l473 662h244l-574 -772l-473 -662
h-243z" />
    <glyph glyph-name="guilsinglleft" unicode="&#x2039;" horiz-adv-x="763" 
d="M428 82l-344 459v16l344 459l238 -115l-267 -350l267 -350z" />
    <glyph glyph-name="guilsinglright" unicode="&#x203a;" horiz-adv-x="763" 
d="M336 82l-238 115l267 350l-267 350l238 119l344 -459v-16z" />
    <glyph glyph-name="fraction" unicode="&#x2044;" horiz-adv-x="921" 
d="M-111 0l521 752l452 682h170l-520 -752l-453 -682h-170z" />
    <glyph glyph-name="Euro" unicode="&#x20ac;" horiz-adv-x="1474" 
d="M1393 1196l-238 -180q-65 84 -125.5 123t-146.5 39q-180 0 -260 -181h376v-206h-426q-2 -23 -2 -72q0 -45 2 -68h426v-207h-381q84 -188 277 -188q84 0 144 39t132 129l226 -166q-98 -138 -216.5 -210.5t-285.5 -72.5q-229 0 -386 126t-220 343h-189v207h154q-2 23 -2 64
q0 51 2 76h-154v206h193q64 209 219.5 335t376.5 126q179 0 296.5 -67.5t207.5 -194.5z" />
    <glyph glyph-name="published" unicode="&#x2117;" horiz-adv-x="1699" 
d="M848 -25q-153 0 -290.5 59t-235.5 158.5t-155.5 235.5t-57.5 285v4q0 148 58 284.5t156.5 237t237 160t291.5 59.5t290.5 -59t235.5 -158t155.5 -235t57.5 -285v-4q0 -148 -58 -284.5t-156.5 -237t-237 -160.5t-291.5 -60zM848 57q138 0 260.5 52.5t209 141.5t137 210.5
t50.5 255.5v4q0 179 -85 329t-235.5 238t-332.5 88q-138 0 -260.5 -52.5t-209 -141t-137 -210t-50.5 -255.5v-4q0 -134 50 -255t136 -209t208 -140t259 -52zM578 336v788h323q140 0 221.5 -74t81.5 -198v-4q0 -130 -91 -202.5t-228 -72.5h-131v-237h-176zM754 727h135
q64 0 100.5 33t36.5 86v4q0 57 -37.5 88t-103.5 31h-131v-242z" />
    <glyph glyph-name="servicemark" unicode="&#x2120;" horiz-adv-x="1439" 
d="M733 803v631h152l166 -267l166 267h147v-631h-135v426l-174 -277h-13l-174 277v-426h-135zM348 791q-77 0 -155 28t-136 76l76 94q111 -86 223 -86q53 0 82 18.5t29 49.5t-28.5 48.5t-112.5 37.5q-59 14 -96 27t-72 34.5t-51.5 53t-16.5 75.5q0 89 64.5 144t175.5 55
q155 0 254 -86l-74 -98q-94 67 -184 67q-50 0 -75.5 -17.5t-25.5 -47.5q0 -31 31 -49t113 -37q114 -26 173.5 -69t59.5 -122q0 -92 -69 -144t-185 -52z" />
    <glyph glyph-name="trademark" unicode="&#x2122;" horiz-adv-x="1413" 
d="M707 803v631h151l166 -267l166 267h147v-631h-135v426l-174 -277h-12l-174 277v-426h-135zM242 803v504h-189v127h520v-127h-188v-504h-143z" />
    <glyph glyph-name="minus" unicode="&#x2212;" horiz-adv-x="1310" 
d="M1171 578h-1032v286h1032v-286z" />
    <glyph glyph-name="f_f" unicode="&#xfb00;" horiz-adv-x="1564" 
d="M975 0v831h-129v256h129v70q0 178 88 266q86 86 252 86q126 0 221 -30v-258q-76 26 -141 26q-113 0 -113 -119v-43h252v-254h-248v-831h-311zM193 0v831h-130v256h130v70q0 178 88 266q86 86 251 86q127 0 222 -30v-258q-76 26 -142 26q-112 0 -112 -119v-43h252v-254
h-248v-831h-311z" />
    <glyph glyph-name="fi" unicode="&#xfb01;" horiz-adv-x="1400" 
d="M193 0v831h-130v256h130v70q0 178 88 266q86 86 251 86q127 0 222 -30v-258q-76 26 -142 26q-112 0 -112 -119v-43h252v-254h-248v-831h-311zM936 0v1098h311v-1098h-311zM928 1219v276h327v-276h-327z" />
    <glyph glyph-name="fl" unicode="&#xfb02;" horiz-adv-x="1400" 
d="M193 0v831h-130v256h130v70q0 178 88 266q86 86 251 86q127 0 222 -30v-258q-76 26 -142 26q-112 0 -112 -119v-43h252v-254h-248v-831h-311zM936 0v1495h311v-1495h-311z" />
    <glyph glyph-name="f_f_i" unicode="&#xfb03;" horiz-adv-x="2183" 
d="M975 0v831h-129v256h129v70q0 178 88 266q86 86 252 86q126 0 221 -30v-258q-76 26 -141 26q-113 0 -113 -119v-43h252v-254h-248v-831h-311zM193 0v831h-130v256h130v70q0 178 88 266q86 86 251 86q127 0 222 -30v-258q-76 26 -142 26q-112 0 -112 -119v-43h252v-254
h-248v-831h-311zM1718 0v1098h312v-1098h-312zM1710 1219v276h328v-276h-328z" />
    <glyph glyph-name="f_f_l" unicode="&#xfb04;" horiz-adv-x="2183" 
d="M975 0v831h-129v256h129v70q0 178 88 266q86 86 252 86q126 0 221 -30v-258q-76 26 -141 26q-113 0 -113 -119v-43h252v-254h-248v-831h-311zM193 0v831h-130v256h130v70q0 178 88 266q86 86 251 86q127 0 222 -30v-258q-76 26 -142 26q-112 0 -112 -119v-43h252v-254
h-248v-831h-311zM1718 0v1495h312v-1495h-312z" />
    <glyph glyph-name="NUL" horiz-adv-x="0" 
 />
    <glyph glyph-name="CR" horiz-adv-x="614" 
 />
    <glyph glyph-name="Q.alt" horiz-adv-x="1740" 
d="M1300 -207l-215 211q-113 -29 -217 -29q-162 0 -304.5 58t-241.5 157.5t-156 235.5t-57 287v4q0 151 57.5 287.5t157.5 236.5t243 158.5t305 58.5q216 0 391 -99t272 -267.5t97 -370.5v-4q0 -158 -60 -296.5t-171 -242.5l373 -375v-10h-474zM872 266q124 0 223.5 60.5
t153.5 162.5t54 224v4q0 187 -123.5 318.5t-311.5 131.5q-124 0 -223 -60t-153 -162t-54 -224v-4q0 -122 55 -225t155 -164.5t224 -61.5z" />
    <glyph glyph-name="a.alt" horiz-adv-x="1382" 
d="M590 -20q-97 0 -186 37.5t-159.5 107.5t-112.5 179.5t-42 242.5v4q0 133 41.5 242.5t111.5 179.5t159 107.5t188 37.5q204 0 342 -164v144h311v-1098h-311v158q-130 -178 -342 -178zM670 244q111 0 188.5 84.5t77.5 218.5v4q0 134 -77.5 218.5t-188.5 84.5
q-112 0 -190.5 -84.5t-78.5 -218.5v-4q0 -133 78.5 -218t190.5 -85z" />
    <glyph glyph-name="aacute.alt" horiz-adv-x="1382" 
d="M590 -20q-97 0 -186 37.5t-159.5 107.5t-112.5 179.5t-42 242.5v4q0 133 41.5 242.5t111.5 179.5t159 107.5t188 37.5q204 0 342 -164v144h311v-1098h-311v158q-130 -178 -342 -178zM670 244q111 0 188.5 84.5t77.5 218.5v4q0 134 -77.5 218.5t-188.5 84.5
q-112 0 -190.5 -84.5t-78.5 -218.5v-4q0 -133 78.5 -218t190.5 -85zM584 1219l227 362l268 -117l-266 -245h-229z" />
    <glyph glyph-name="abreve.alt" horiz-adv-x="1382" 
d="M590 -20q-97 0 -186 37.5t-159.5 107.5t-112.5 179.5t-42 242.5v4q0 133 41.5 242.5t111.5 179.5t159 107.5t188 37.5q204 0 342 -164v144h311v-1098h-311v158q-130 -178 -342 -178zM670 244q111 0 188.5 84.5t77.5 218.5v4q0 134 -77.5 218.5t-188.5 84.5
q-112 0 -190.5 -84.5t-78.5 -218.5v-4q0 -133 78.5 -218t190.5 -85zM707 1214q-166 0 -269 86t-116 240h208q20 -60 61.5 -91.5t115.5 -31.5t115 31.5t61 91.5h209q-13 -154 -116 -240t-269 -86z" />
    <glyph glyph-name="acircumflex.alt" horiz-adv-x="1382" 
d="M590 -20q-97 0 -186 37.5t-159.5 107.5t-112.5 179.5t-42 242.5v4q0 133 41.5 242.5t111.5 179.5t159 107.5t188 37.5q204 0 342 -164v144h311v-1098h-311v158q-130 -178 -342 -178zM670 244q111 0 188.5 84.5t77.5 218.5v4q0 134 -77.5 218.5t-188.5 84.5
q-112 0 -190.5 -84.5t-78.5 -218.5v-4q0 -133 78.5 -218t190.5 -85zM307 1219l252 321h295l252 -321h-240l-161 135l-162 -135h-236z" />
    <glyph glyph-name="adieresis.alt" horiz-adv-x="1382" 
d="M590 -20q-97 0 -186 37.5t-159.5 107.5t-112.5 179.5t-42 242.5v4q0 133 41.5 242.5t111.5 179.5t159 107.5t188 37.5q204 0 342 -164v144h311v-1098h-311v158q-130 -178 -342 -178zM670 244q111 0 188.5 84.5t77.5 218.5v4q0 134 -77.5 218.5t-188.5 84.5
q-112 0 -190.5 -84.5t-78.5 -218.5v-4q0 -133 78.5 -218t190.5 -85zM770 1219v276h299v-276h-299zM344 1219v276h299v-276h-299z" />
    <glyph glyph-name="agrave.alt" horiz-adv-x="1382" 
d="M590 -20q-97 0 -186 37.5t-159.5 107.5t-112.5 179.5t-42 242.5v4q0 133 41.5 242.5t111.5 179.5t159 107.5t188 37.5q204 0 342 -164v144h311v-1098h-311v158q-130 -178 -342 -178zM670 244q111 0 188.5 84.5t77.5 218.5v4q0 134 -77.5 218.5t-188.5 84.5
q-112 0 -190.5 -84.5t-78.5 -218.5v-4q0 -133 78.5 -218t190.5 -85zM600 1219l-266 245l268 117l227 -362h-229z" />
    <glyph glyph-name="amacron.alt" horiz-adv-x="1382" 
d="M590 -20q-97 0 -186 37.5t-159.5 107.5t-112.5 179.5t-42 242.5v4q0 133 41.5 242.5t111.5 179.5t159 107.5t188 37.5q204 0 342 -164v144h311v-1098h-311v158q-130 -178 -342 -178zM670 244q111 0 188.5 84.5t77.5 218.5v4q0 134 -77.5 218.5t-188.5 84.5
q-112 0 -190.5 -84.5t-78.5 -218.5v-4q0 -133 78.5 -218t190.5 -85zM338 1229v215h737v-215h-737z" />
    <glyph glyph-name="aogonek.alt" horiz-adv-x="1382" 
d="M1264 -199v-137q-169 -24 -268 28t-99 144q0 73 68 164h-33v158q-130 -178 -342 -178q-97 0 -186 37.5t-159.5 107.5t-112.5 179.5t-42 242.5v4q0 133 41.5 242.5t111.5 179.5t159 107.5t188 37.5q204 0 342 -164v144h311v-1098h-72q-51 -56 -51 -115q0 -44 38 -66.5
t106 -17.5zM670 244q111 0 188.5 84.5t77.5 218.5v4q0 134 -77.5 218.5t-188.5 84.5q-112 0 -190.5 -84.5t-78.5 -218.5v-4q0 -133 78.5 -218t190.5 -85z" />
    <glyph glyph-name="aring.alt" horiz-adv-x="1382" 
d="M590 -20q-97 0 -186 37.5t-159.5 107.5t-112.5 179.5t-42 242.5v4q0 133 41.5 242.5t111.5 179.5t159 107.5t188 37.5q204 0 342 -164v144h311v-1098h-311v158q-130 -178 -342 -178zM670 244q111 0 188.5 84.5t77.5 218.5v4q0 134 -77.5 218.5t-188.5 84.5
q-112 0 -190.5 -84.5t-78.5 -218.5v-4q0 -133 78.5 -218t190.5 -85zM459 1454q0 100 72.5 170t175.5 70t175 -70t72 -170t-72 -170t-175 -70t-175.5 70t-72.5 170zM571 1454q0 -55 40 -95t96 -40q55 0 95 39.5t40 95.5t-40 95.5t-95 39.5q-56 0 -96 -40t-40 -95z" />
    <glyph glyph-name="aring.alt2" horiz-adv-x="1212" 
d="M362 1247q0 100 72.5 170t175.5 70t175.5 -70t72.5 -170q0 -93 -72 -162q109 -34 179 -98q118 -118 118 -350v-637h-301v119q-126 -139 -331 -139q-163 0 -270 88.5t-107 246.5v4q0 173 119.5 262t322.5 89q135 0 268 -45v18q0 99 -59.5 150t-175.5 51q-149 0 -303 -60
l-78 238q135 59 252 76q-58 64 -58 149zM545 195q110 0 176.5 53t66.5 139v55q-90 41 -198 41q-101 0 -158 -39t-57 -112v-4q0 -62 47 -97.5t123 -35.5zM475 1247q0 -55 39.5 -95t95.5 -40t95.5 40t39.5 95t-39.5 95t-95.5 40t-95.5 -40t-39.5 -95z" />
    <glyph glyph-name="aringacute.alt" horiz-adv-x="1382" 
d="M582 1763l243 301l265 -116l-279 -185h-229zM590 -20q-97 0 -186 37.5t-159.5 107.5t-112.5 179.5t-42 242.5v4q0 133 41.5 242.5t111.5 179.5t159 107.5t188 37.5q204 0 342 -164v144h311v-1098h-311v158q-130 -178 -342 -178zM670 244q111 0 188.5 84.5t77.5 218.5v4
q0 134 -77.5 218.5t-188.5 84.5q-112 0 -190.5 -84.5t-78.5 -218.5v-4q0 -133 78.5 -218t190.5 -85zM459 1454q0 100 72.5 170t175.5 70t175 -70t72 -170t-72 -170t-175 -70t-175.5 70t-72.5 170zM571 1454q0 -55 40 -95t96 -40q55 0 95 39.5t40 95.5t-40 95.5t-95 39.5
q-56 0 -96 -40t-40 -95z" />
    <glyph glyph-name="aringacute.alt2" horiz-adv-x="1212" 
d="M485 1559l244 301l264 -117l-278 -184h-230zM362 1247q0 100 72.5 170t175.5 70t175.5 -70t72.5 -170q0 -93 -72 -162q109 -34 179 -98q118 -118 118 -350v-637h-301v119q-126 -139 -331 -139q-163 0 -270 88.5t-107 246.5v4q0 173 119.5 262t322.5 89q135 0 268 -45v18
q0 99 -59.5 150t-175.5 51q-149 0 -303 -60l-78 238q135 59 252 76q-58 64 -58 149zM545 195q110 0 176.5 53t66.5 139v55q-90 41 -198 41q-101 0 -158 -39t-57 -112v-4q0 -62 47 -97.5t123 -35.5zM475 1247q0 -55 39.5 -95t95.5 -40t95.5 40t39.5 95t-39.5 95t-95.5 40
t-95.5 -40t-39.5 -95z" />
    <glyph glyph-name="atilde.alt" horiz-adv-x="1382" 
d="M590 -20q-97 0 -186 37.5t-159.5 107.5t-112.5 179.5t-42 242.5v4q0 133 41.5 242.5t111.5 179.5t159 107.5t188 37.5q204 0 342 -164v144h311v-1098h-311v158q-130 -178 -342 -178zM670 244q111 0 188.5 84.5t77.5 218.5v4q0 134 -77.5 218.5t-188.5 84.5
q-112 0 -190.5 -84.5t-78.5 -218.5v-4q0 -133 78.5 -218t190.5 -85zM461 1198l-166 51q41 141 97.5 212t156.5 71q54 0 115 -20t112 -40t80 -20q44 0 67.5 22.5t49.5 77.5l166 -51q-38 -140 -96 -211t-158 -71q-54 0 -115.5 19.5t-112.5 39.5t-79 20q-44 0 -67.5 -22.5
t-49.5 -77.5z" />
    <glyph glyph-name="three.alt" horiz-adv-x="1257" 
d="M643 -25q-341 0 -567 244l211 205q78 -81 163.5 -123.5t196.5 -42.5q102 0 156.5 44.5t54.5 123.5v4q0 79 -70 120.5t-200 41.5h-158v262h166q107 0 165 45.5t58 120.5v4q0 67 -55.5 109.5t-151.5 42.5q-86 0 -152 -41.5t-141 -124.5l-217 184q105 132 222.5 198
t291.5 66q231 0 371.5 -108t140.5 -277v-4q0 -123 -48.5 -202t-139.5 -130q108 -47 167.5 -120.5t59.5 -190.5v-4q0 -197 -139.5 -322t-384.5 -125z" />
    <glyph glyph-name="registered.alt" horiz-adv-x="1699" 
d="M848 -25q-153 0 -290.5 59t-235.5 158.5t-155.5 235.5t-57.5 285v4q0 148 58 284.5t156.5 237t237 160t291.5 59.5t290.5 -59t235.5 -158t155.5 -235t57.5 -285v-4q0 -148 -58 -284.5t-156.5 -237t-237 -160.5t-291.5 -60zM848 57q138 0 260.5 52.5t209 141.5t137 210.5
t50.5 255.5v4q0 179 -85 329t-235.5 238t-332.5 88q-138 0 -260.5 -52.5t-209 -141t-137 -210t-50.5 -255.5v-4q0 -134 50 -255t136 -209t208 -140t259 -52zM545 344v789h350q158 0 244 -86q65 -65 65 -173v-4q0 -177 -170 -243l193 -283h-203l-168 254h-137v-254h-174z
M719 748h174q65 0 100 30.5t35 81.5v4q0 56 -36 85.5t-103 29.5h-170v-231z" />
    <glyph glyph-name="hfjslug" horiz-adv-x="1421" 
d="M1319 -410h-426l-16 29h-334l-17 -29h-424v621q29 0 47.5 18t18.5 47q0 27 -18.5 46.5t-47.5 19.5v1135h205l62 161h684l59 -161h207v-1887zM819 1153v-352h31v160h78v28h-78v135h88v29h-119zM377 1153v-352h31v162h96v-162h31v352h-31v-162h-96v162h-31zM942 838v-31
q19 -8 43 -8q64 0 64 73v281h-33v-281q0 -45 -33 -45q-23 0 -41 11zM760 952l-27 6q-3 -9 -8 -30.5t-8 -30.5h-2l-33 64q47 44 47 86q0 63 -55 63q-26 0 -42 -18t-16 -45q0 -9 1 -16.5t4.5 -16.5t6 -13.5t9 -16.5t8.5 -17q-47 -38 -47 -97q0 -35 16 -55t43 -20q39 0 60 49h2
l24 -49l25 12l-35 65q18 45 27 80zM1071 662v-95h16v25l17 16l31 -41h20l-41 54l37 41h-21l-40 -50h-3v50h-16zM999 598l21 -31h18l-24 35q20 9 20 29q0 31 -35 31h-41v-95h17v31h24zM872 565q23 0 36.5 14t13.5 35q0 20 -14 35t-36 15t-35.5 -15t-13.5 -35q0 -21 13 -35
t36 -14zM758 616l-27 46h-18l37 -60v-35h16v35l37 60h-19zM395 662v-95h70v15h-53v26h47v15h-47v24h53v15h-70zM270 662v-95h17v66l51 -66h14v95h-16v-66l-51 66h-15zM494 662l28 -97h17l22 70h2l23 -70h16l29 97h-17l-20 -72h-2l-23 72h-14l-23 -72h-2l-20 72h-16zM670 981
q-25 48 -25 66q0 38 29 38q26 0 26 -38q0 -31 -30 -66zM659 946l41 -80q-15 -43 -41 -43q-32 0 -32 51q0 40 32 72zM997 612h-22v35h22q21 0 21 -16q0 -19 -21 -19zM872 580q-32 0 -32 34q0 14 8 24.5t24 10.5t24.5 -10.5t8.5 -24.5q0 -34 -33 -34z" />
    <glyph glyph-name="i.dot" horiz-adv-x="618" 
d="M145 1219v276h328v-276h-328zM154 0v1098h311v-1098h-311z" />
    <glyph glyph-name="caron.alt" 
d="M408 1069l20 426h223v-6l-121 -420h-122z" />
    <glyph glyph-name="acute.cap" 
d="M291 1546l248 322l268 -117l-279 -205h-237z" />
    <glyph glyph-name="hungarumlaut.cap" 
d="M70 1546l247 322l258 -117l-278 -205h-227zM459 1546l248 322l258 -117l-279 -205h-227z" />
    <glyph glyph-name="grave.cap" 
d="M481 1868l248 -322h-237l-279 205z" />
    <glyph glyph-name="circumflex.cap" 
d="M102 1546l263 301h294l263 -301h-250l-162 115l-162 -115h-246z" />
    <glyph glyph-name="caron.cap" 
d="M922 1847l-263 -301h-294l-263 301h250l162 -114l162 114h246z" />
    <glyph glyph-name="breve.cap" 
d="M512 1542q-167 0 -271.5 79.5t-117.5 225.5h213q20 -50 60.5 -75t115.5 -25t115.5 25t60.5 75h213q-13 -146 -117.5 -225.5t-271.5 -79.5z" />
    <glyph glyph-name="tilde.cap" 
d="M248 1526l-166 51q41 141 98.5 212t157.5 71q54 0 118 -20t118 -40t83 -20q44 0 69 23t50 77l166 -51q-38 -140 -97 -211.5t-159 -71.5q-54 0 -118.5 20t-118.5 40t-82 20q-44 0 -69 -23t-50 -77z" />
    <glyph glyph-name="macron.cap" 
d="M123 1556v220h778v-220h-778z" />
    <glyph glyph-name="dieresis.cap" 
d="M586 1546v260h299v-260h-299zM139 1546v260h299v-260h-299z" />
    <glyph glyph-name="dotaccent.cap" 
d="M358 1546v260h308v-260h-308z" />
    <glyph glyph-name="ring.cap" 
d="M258 1767q0 98 74.5 162t179.5 64t179.5 -64t74.5 -162t-74.5 -161.5t-179.5 -63.5t-179.5 63.5t-74.5 161.5zM383 1767q0 -49 35.5 -81.5t93.5 -32.5t93.5 32.5t35.5 81.5t-35.5 82t-93.5 33t-93.5 -33t-35.5 -82z" />
    </font>
</defs>
</svg>
