<?xml version="1.0" standalone="no"?>
<!DOCTYPE svg PUBLIC "-//W3C//DTD SVG 1.1//EN" "http://www.w3.org/Graphics/SVG/1.1/DTD/svg11.dtd" >
<svg xmlns="http://www.w3.org/2000/svg" xmlns:xlink="http://www.w3.org/1999/xlink" version="1.1">
<metadata>
Created by FontForge 20201107 at Sun Nov  3 14:32:22 2024
 By 
Copyright (C) 2000, 2007 Hoefler &#38; Frere-Jones. http://www.typography.com
</metadata>
<defs>
<font id="SVN-GothamXLight" horiz-adv-x="1589" >
  <font-face 
    font-family="SVN-Gotham XLight"
    font-weight="200"
    font-stretch="normal"
    units-per-em="2048"
    panose-1="2 0 6 4 3 0 0 2 0 4"
    ascent="1638"
    descent="-410"
    x-height="1032"
    cap-height="1434"
    bbox="-61 -414 2304 2163"
    underline-thickness="40"
    underline-position="-271"
    unicode-range="U+0020-FB04"
  />
<missing-glyph horiz-adv-x="1024" 
d="M0 -410v2048h1024v-2048h-1024zM145 1536l367 -799l367 799h-734zM102 -156l353 770l-353 770v-1540zM922 1384l-353 -770l353 -770v1540zM512 492l-367 -799h734z" />
    <glyph glyph-name=".notdef" horiz-adv-x="1024" 
d="M0 -410v2048h1024v-2048h-1024zM145 1536l367 -799l367 799h-734zM102 -156l353 770l-353 770v-1540zM922 1384l-353 -770l353 -770v1540zM512 492l-367 -799h734z" />
    <glyph glyph-name=".null" horiz-adv-x="0" 
 />
    <glyph glyph-name="nonmarkingreturn" horiz-adv-x="682" 
 />
    <glyph glyph-name="space" unicode=" " horiz-adv-x="589" 
 />
    <glyph glyph-name="exclam" unicode="!" horiz-adv-x="444" 
d="M205 375l-21 868v191h76v-191l-20 -868h-35zM174 0v133h98v-133h-98z" />
    <glyph glyph-name="quotedbl" unicode="&#x22;" horiz-adv-x="708" 
d="M434 913l72 521h84v-7l-117 -514h-39zM129 913l72 521h84v-7l-117 -514h-39z" />
    <glyph glyph-name="numbersign" unicode="#" horiz-adv-x="1384" 
d="M272 0l68 399h-240v64h250l90 520h-258v61h269l67 390h64l-66 -390h463l68 390h63l-68 -390h240v-61h-250l-88 -520h256v-64h-268l-68 -399h-63l67 399h-462l-70 -399h-64zM416 461h463l90 522h-463z" />
    <glyph glyph-name="dollar" unicode="$" horiz-adv-x="1282" 
d="M614 -201v203q-272 20 -483 219l45 51q194 -191 440 -211v639q-226 51 -329 135.5t-103 233.5v4q0 151 120.5 255t309.5 104v120h64v-120q222 -13 407 -168l-43 -54q-89 76 -174.5 115.5t-191.5 46.5v-620q235 -51 344.5 -138t109.5 -237v-4q0 -163 -124.5 -268
t-327.5 -105v-201h-64zM616 768v606q-161 0 -261.5 -86.5t-100.5 -210.5v-4q0 -120 81 -187.5t281 -117.5zM676 686v-627q176 0 280.5 87.5t104.5 222.5v4q0 126 -87 194t-298 119z" />
    <glyph glyph-name="percent" unicode="%" horiz-adv-x="1650" 
d="M428 715q-139 0 -228 107.5t-89 256.5v4q0 148 89.5 257.5t227.5 109.5t227.5 -108.5t89.5 -256.5v-4q0 -151 -89 -258.5t-228 -107.5zM264 0l1053 1434h69l-1052 -1434h-70zM1223 -16q-139 0 -228.5 107.5t-89.5 256.5v4q0 148 90 257.5t228 109.5t227.5 -108.5
t89.5 -256.5v-4q0 -151 -89 -258.5t-228 -107.5zM430 772q109 0 177.5 89t68.5 216v4q0 127 -71 218.5t-179 91.5t-177 -90t-69 -216v-4q0 -129 71.5 -219t178.5 -90zM1225 43q110 0 177.5 88.5t67.5 216.5v4q0 128 -70.5 219t-178.5 91t-177 -90t-69 -216v-4
q0 -129 71.5 -219t178.5 -90z" />
    <glyph glyph-name="ampersand" unicode="&#x26;" horiz-adv-x="1388" 
d="M1266 -25l-246 263q-209 -258 -485 -258q-187 0 -309 109.5t-122 270.5v5q0 82 28.5 149t85 118t119 88.5t152.5 76.5q-97 103 -138.5 184t-41.5 164v4q0 123 94 216t246 93q139 0 230.5 -88.5t91.5 -208.5v-4q0 -123 -86 -211t-283 -168l416 -440q106 149 194 379
l62 -23q-100 -247 -213 -403l256 -271zM559 821q185 74 264.5 152.5t79.5 181.5v4q0 97 -72 168.5t-184 71.5q-120 0 -194 -73.5t-74 -172.5v-4q0 -73 40 -148.5t140 -179.5zM535 41q240 0 442 242l-445 469q-169 -67 -263.5 -159.5t-94.5 -225.5v-5q0 -134 101.5 -227.5
t259.5 -93.5z" />
    <glyph glyph-name="quotesingle" unicode="'" horiz-adv-x="405" 
d="M129 913l72 521h84v-7l-117 -514h-39z" />
    <glyph glyph-name="parenleft" unicode="(" horiz-adv-x="831" 
d="M719 -242l-29 -45q-270 154 -409.5 376t-139.5 499t139.5 498.5t409.5 375.5l29 -45q-251 -148 -379.5 -357.5t-128.5 -471.5t128.5 -472t379.5 -358z" />
    <glyph glyph-name="parenright" unicode=")" horiz-adv-x="831" 
d="M141 -287l-28 45q251 148 379.5 358t128.5 472t-128.5 471.5t-379.5 357.5l28 45q270 -154 409.5 -375.5t139.5 -498.5t-139.5 -499t-409.5 -376z" />
    <glyph glyph-name="asterisk" unicode="*" horiz-adv-x="880" 
d="M410 831l14 277l-231 -154l-33 56l252 125l-252 125l33 55l231 -154l-14 277h61l-14 -277l231 154l33 -55l-252 -125l252 -125l-33 -56l-231 154l14 -277h-61z" />
    <glyph glyph-name="plus" unicode="+" horiz-adv-x="1245" 
d="M590 231v459h-447v62h447v458h65v-458h447v-62h-447v-459h-65z" />
    <glyph glyph-name="comma" unicode="," horiz-adv-x="389" 
d="M131 -186l-18 34q47 23 64.5 58.5t12.5 93.5h-45v133h99v-117q0 -90 -25.5 -134t-87.5 -68z" />
    <glyph glyph-name="hyphen" unicode="-" horiz-adv-x="811" 
d="M143 573v72h525v-72h-525z" />
    <glyph glyph-name="period" unicode="." horiz-adv-x="389" 
d="M145 0v133h99v-133h-99z" />
    <glyph glyph-name="slash" unicode="/" horiz-adv-x="989" 
d="M-37 -262l965 1896h67l-964 -1896h-68z" />
    <glyph glyph-name="zero" unicode="0" horiz-adv-x="1454" 
d="M727 -25q-135 0 -248 60.5t-187 162.5t-114.5 235.5t-40.5 281.5v4q0 147 41 280.5t115 235.5t187 162.5t247 60.5q109 0 203.5 -39t164.5 -108t120.5 -162t76 -202.5t25.5 -227.5v-4q0 -147 -41 -280.5t-115 -236t-187 -163t-247 -60.5zM729 39q119 0 217.5 55.5
t163 149.5t100 215t35.5 254v4q0 133 -36 254.5t-101 216t-164.5 151t-218.5 56.5t-217.5 -55.5t-163 -149t-100 -214.5t-35.5 -255v-4q0 -133 36 -254.5t101 -216t164.5 -151t218.5 -56.5z" />
    <glyph glyph-name="one" unicode="1" horiz-adv-x="661" 
d="M358 0v1368l-270 -108l-22 55l307 129h53v-1444h-68z" />
    <glyph glyph-name="two" unicode="2" horiz-adv-x="1179" 
d="M88 0v47l604 571q162 151 221.5 254t59.5 203q0 134 -102.5 226t-254.5 92q-271 0 -436 -281l-55 35q175 307 496 307q186 0 304.5 -107.5t118.5 -265.5v-4q0 -119 -65 -227t-242 -277l-536 -507h862v-66h-975z" />
    <glyph glyph-name="three" unicode="3" horiz-adv-x="1159" 
d="M575 -25q-165 0 -296 68.5t-222 187.5l54 45q84 -112 203 -174.5t264 -62.5q163 0 278 95.5t115 242.5v4q0 113 -65 190.5t-175 112.5t-260 35h-59l-21 41l533 608h-791v66h885v-50l-526 -602q250 -5 399 -106t149 -293v-4q0 -116 -64 -209.5t-170 -144t-231 -50.5z" />
    <glyph glyph-name="four" unicode="4" horiz-adv-x="1306" 
d="M922 0v365h-818l-22 49l846 1030h59v-1018h236v-61h-236v-365h-65zM172 426h750v915z" />
    <glyph glyph-name="five" unicode="5" horiz-adv-x="1222" 
d="M608 -25q-140 0 -272.5 65t-220.5 165l51 49q90 -98 205.5 -156.5t240.5 -58.5q185 0 303.5 109.5t118.5 277.5v4q0 163 -119.5 265t-302.5 102q-180 0 -356 -95l-49 29l41 703h780v-66h-717l-37 -588q162 78 347 78q208 0 345.5 -119t137.5 -307v-4
q0 -198 -139.5 -325.5t-356.5 -127.5z" />
    <glyph glyph-name="six" unicode="6" horiz-adv-x="1294" 
d="M674 -25q-222 0 -361 146q-89 89 -131.5 219t-42.5 334v4q0 222 68 398t199 279t305 103q212 0 405 -166l-45 -53q-169 156 -366 156q-149 0 -263 -93.5t-173.5 -255.5t-59.5 -368v-4q0 -88 2 -131q34 141 161.5 239.5t299.5 98.5q137 0 250.5 -56t180 -157.5
t66.5 -225.5v-4q0 -192 -143 -327.5t-352 -135.5zM678 39q179 0 299.5 117.5t120.5 279.5v4q0 163 -122 271t-306 108q-87 0 -166.5 -31.5t-135.5 -84t-89 -122t-33 -143.5v-4q0 -164 126 -279.5t306 -115.5z" />
    <glyph glyph-name="seven" unicode="7" horiz-adv-x="1136" 
d="M297 0l684 1368h-862v66h940v-48l-686 -1386h-76z" />
    <glyph glyph-name="eight" unicode="8" horiz-adv-x="1286" 
d="M643 -20q-235 0 -381.5 112.5t-146.5 280.5v4q0 131 98.5 227.5t253.5 134.5q-136 44 -216.5 130t-80.5 210v4q0 105 64.5 190.5t173 133t235.5 47.5t235.5 -47.5t173 -133t64.5 -190.5v-4q0 -124 -80.5 -210t-216.5 -130q154 -38 252 -135.5t98 -226.5v-4
q0 -167 -146 -280t-380 -113zM643 768q170 0 285.5 86.5t115.5 224.5v4q0 130 -117.5 219t-285.5 89q-170 0 -285.5 -87.5t-115.5 -218.5v-4q0 -138 116.5 -225.5t286.5 -87.5zM643 43q207 0 332 94.5t125 231.5v4q0 144 -133 239t-326 95q-192 0 -323.5 -94t-131.5 -238v-4
q0 -136 126 -232t331 -96z" />
    <glyph glyph-name="nine" unicode="9" horiz-adv-x="1294" 
d="M586 -25q-224 0 -422 179l45 53q182 -168 379 -168q148 0 262.5 93.5t175.5 256t61 365.5v4q0 20 -1 65t-1 64q-33 -147 -160.5 -247.5t-301.5 -100.5q-215 0 -356.5 125.5t-141.5 318.5v4q0 129 64.5 236.5t179 171t254.5 63.5q208 0 360 -145q87 -87 130.5 -220
t43.5 -335v-4q0 -223 -70.5 -400t-201 -278t-299.5 -101zM627 602q177 0 299.5 115.5t122.5 271.5v4q0 167 -125 284.5t-308 117.5q-88 0 -166.5 -33t-133.5 -88t-87 -129.5t-32 -155.5v-4q0 -168 122 -275.5t308 -107.5z" />
    <glyph glyph-name="colon" unicode=":" horiz-adv-x="403" 
d="M152 899v133h98v-133h-98zM152 0v133h98v-133h-98z" />
    <glyph glyph-name="semicolon" unicode=";" horiz-adv-x="403" 
d="M152 899v133h98v-133h-98zM137 -186l-18 34q47 23 65 58.5t13 93.5h-45v133h98v-117q0 -91 -25 -134.5t-88 -67.5z" />
    <glyph glyph-name="less" unicode="&#x3c;" horiz-adv-x="1245" 
d="M1067 213l-946 485v45l946 486v-72l-856 -436l856 -436v-72z" />
    <glyph glyph-name="equal" unicode="=" horiz-adv-x="1245" 
d="M182 926v65h881v-65h-881zM182 453v65h881v-65h-881z" />
    <glyph glyph-name="greater" unicode="&#x3e;" horiz-adv-x="1245" 
d="M178 213v72l856 436l-856 436v72l946 -486v-45z" />
    <glyph glyph-name="question" unicode="?" horiz-adv-x="1050" 
d="M449 375l-21 325l8 9q197 8 317.5 101t120.5 245v4q0 142 -102.5 237t-265.5 95q-121 0 -221.5 -61t-175.5 -169l-52 39q175 252 451 252q194 0 315 -112t121 -277v-4q0 -91 -36 -165.5t-98.5 -124t-140 -79.5t-165.5 -39l-17 -276h-38zM420 0v133h98v-133h-98z" />
    <glyph glyph-name="at" unicode="@" horiz-adv-x="1968" 
d="M1010 -334q-186 0 -350 66.5t-282 182t-186.5 280t-68.5 352.5q0 180 66.5 346.5t180.5 291t277 199t346 74.5q177 0 336.5 -65.5t272.5 -174.5t179 -256t66 -305q0 -126 -32.5 -225t-85.5 -156.5t-113 -86.5t-121 -29q-109 0 -171.5 64t-70.5 161q-60 -103 -151 -164
t-203 -61q-151 0 -249.5 95.5t-98.5 252.5q0 102 38 194.5t100.5 157t143 102t164.5 37.5q118 0 200.5 -61.5t109.5 -161.5l34 185l64 -11l-74 -407q-14 -77 -14 -129q0 -95 45.5 -149t136.5 -54q54 0 104.5 26t94 78t70 140.5t26.5 201.5q0 146 -61.5 283t-166.5 240.5
t-256 166t-319 62.5q-173 0 -326.5 -70t-260 -187.5t-168.5 -275.5t-62 -329q0 -179 64 -334t175.5 -264t266.5 -171.5t332 -62.5q264 0 489 138l25 -39q-227 -148 -516 -148zM905 223q100 0 187 59.5t137.5 155.5t50.5 201q0 128 -81 212.5t-202 84.5q-152 0 -264 -123.5
t-112 -300.5q0 -134 78.5 -211.5t205.5 -77.5z" />
    <glyph glyph-name="A" unicode="A" 
d="M82 0l680 1444h65l680 -1444h-75l-195 418h-887l-196 -418h-72zM381 481h825l-413 881z" />
    <glyph glyph-name="B" unicode="B" horiz-adv-x="1482" 
d="M213 0v1434h590q250 0 375 -125q92 -92 92 -232v-4q0 -131 -74 -220t-190 -120q148 -26 245 -118.5t97 -231.5v-4q0 -180 -136 -279.5t-378 -99.5h-621zM283 756h534q168 0 275.5 81t107.5 230v4q0 137 -105.5 218t-293.5 81h-518v-614zM283 63h553q209 0 324.5 83
t115.5 231v4q0 148 -118.5 229.5t-313.5 81.5h-561v-629z" />
    <glyph glyph-name="C" unicode="C" horiz-adv-x="1497" 
d="M854 -25q-148 0 -279.5 58.5t-224 157.5t-146.5 235t-54 287v4q0 199 90.5 368.5t254 271t363.5 101.5q97 0 178 -16.5t147.5 -49.5t117 -70t108.5 -91l-49 -51q-50 48 -97 83t-108.5 67t-136.5 48.5t-162 16.5q-179 0 -325 -91.5t-228 -246t-82 -338.5v-4
q0 -183 83 -338.5t230 -246.5t324 -91q157 0 280 60.5t230 168.5l49 -47q-246 -246 -563 -246z" />
    <glyph glyph-name="D" unicode="D" horiz-adv-x="1591" 
d="M213 0v1434h467q166 0 309 -55.5t242 -151.5t155 -227.5t56 -280.5v-4q0 -149 -56 -280.5t-155 -227.5t-242 -151.5t-309 -55.5h-467zM283 63h399q151 0 280.5 51t218.5 138.5t139 206.5t50 254v4q0 135 -50 254.5t-139 207.5t-219 139.5t-282 51.5h-397v-1307z" />
    <glyph glyph-name="E" unicode="E" horiz-adv-x="1361" 
d="M213 0v1434h1010v-64h-940v-616h850v-64h-850v-627h950v-63h-1020z" />
    <glyph glyph-name="F" unicode="F" horiz-adv-x="1304" 
d="M213 0v1434h999v-64h-929v-635h839v-63h-839v-672h-70z" />
    <glyph glyph-name="G" unicode="G" horiz-adv-x="1599" 
d="M862 -25q-165 0 -301 59t-225 160t-137.5 234.5t-48.5 284.5v4q0 115 31.5 224.5t93.5 202.5t146.5 163.5t197.5 110.5t239 40q161 0 279 -45.5t229 -140.5l-45 -53q-104 87 -211.5 131.5t-255.5 44.5q-140 0 -260 -56t-201 -150t-126.5 -216t-45.5 -254v-4
q0 -139 44.5 -262t126 -215.5t203.5 -146.5t269 -54q141 0 268.5 52t221.5 132v441h-510v67h577v-534q-107 -99 -251 -159.5t-308 -60.5z" />
    <glyph glyph-name="H" unicode="H" horiz-adv-x="1546" 
d="M213 0v1434h70v-680h981v680h69v-1434h-69v690h-981v-690h-70z" />
    <glyph glyph-name="I" unicode="I" horiz-adv-x="524" 
d="M227 0v1434h70v-1434h-70z" />
    <glyph glyph-name="J" unicode="J" horiz-adv-x="1105" 
d="M487 -23q-144 0 -250.5 74t-168.5 207l59 33q114 -250 365 -250q155 0 253.5 111.5t98.5 322.5v959h69v-951q0 -255 -133 -391q-121 -115 -293 -115z" />
    <glyph glyph-name="K" unicode="K" horiz-adv-x="1452" 
d="M213 0v1434h70v-959l960 959h96l-624 -617l649 -817h-90l-608 770l-383 -379v-391h-70z" />
    <glyph glyph-name="L" unicode="L" horiz-adv-x="1224" 
d="M213 0v1434h70v-1371h864v-63h-934z" />
    <glyph glyph-name="M" unicode="M" horiz-adv-x="1767" 
d="M213 0v1434h66l606 -873l604 873h65v-1434h-69v1313l-600 -860h-4l-600 860v-1313h-68z" />
    <glyph glyph-name="N" unicode="N" horiz-adv-x="1605" 
d="M213 0v1434h63l1049 -1315v1315h68v-1434h-56l-1056 1325v-1325h-68z" />
    <glyph glyph-name="O" unicode="O" horiz-adv-x="1730" 
d="M864 -25q-127 0 -240.5 39t-199 109t-148 162.5t-94.5 202.5t-32 227v4q0 146 51.5 280t143 236t227.5 162.5t294 60.5t294 -60.5t227 -162.5t142.5 -236t51.5 -280v-4q0 -146 -51.5 -280.5t-143.5 -236.5t-228 -162.5t-294 -60.5zM868 39q139 0 260 54.5t204 146.5
t130 215t47 258v4q0 134 -47.5 257.5t-130.5 216.5t-205 148.5t-262 55.5t-261.5 -54.5t-204.5 -146.5t-130 -215t-47 -258v-4q0 -134 48 -257.5t131.5 -216.5t205.5 -148.5t262 -55.5z" />
    <glyph glyph-name="P" unicode="P" horiz-adv-x="1368" 
d="M211 0v1434h512q253 0 398 -116t145 -319v-4q0 -140 -71.5 -241.5t-197 -152t-290.5 -50.5h-426v-551h-70zM281 616h428q225 0 356 99.5t131 277.5v4q0 177 -127.5 275t-351.5 98h-436v-754z" />
    <glyph glyph-name="Q" unicode="Q" horiz-adv-x="1730" 
d="M1546 -29l-205 183q-202 -179 -477 -179q-127 0 -240.5 39t-199 109t-148 162.5t-94.5 202.5t-32 227v4q0 146 51.5 280t143 236t227.5 162.5t294 60.5t294 -60.5t227 -162.5t142.5 -236t51.5 -280v-4q0 -145 -49.5 -277t-142.5 -237l204 -176zM868 39q244 0 422 160
l-301 260l47 53l301 -266q84 92 128 212t44 255v4q0 134 -47.5 257.5t-130.5 216.5t-205 148.5t-262 55.5t-261.5 -54.5t-204.5 -146.5t-130 -215t-47 -258v-4q0 -134 48 -257.5t131.5 -216.5t205.5 -148.5t262 -55.5z" />
    <glyph glyph-name="R" unicode="R" horiz-adv-x="1482" 
d="M213 0v1434h592q271 0 409 -138q105 -108 105 -266v-4q0 -175 -123.5 -281t-327.5 -124l478 -621h-89l-466 612h-508v-612h-70zM283 676h503q217 0 340 95.5t123 250.5v4q0 162 -117.5 253t-330.5 91h-518v-694z" />
    <glyph glyph-name="S" unicode="S" horiz-adv-x="1312" 
d="M692 -20q-321 0 -571 229l47 51q117 -110 244.5 -163.5t283.5 -53.5q184 0 297 89t113 226v4q0 87 -38 145t-135 103.5t-269 81.5q-265 54 -376.5 142.5t-111.5 244.5v4q0 156 132.5 263.5t332.5 107.5q270 0 487 -168l-43 -55q-201 160 -448 160q-173 0 -282 -89
t-109 -212v-5q0 -86 37.5 -143.5t135.5 -103.5t271 -82q264 -53 375 -143.5t111 -243.5v-4q0 -168 -133.5 -276.5t-350.5 -108.5z" />
    <glyph glyph-name="T" unicode="T" horiz-adv-x="1245" 
d="M588 0v1370h-510v64h1091v-64h-512v-1370h-69z" />
    <glyph glyph-name="U" unicode="U" horiz-adv-x="1546" 
d="M774 -23q-130 0 -236.5 41t-184.5 120t-120.5 201.5t-42.5 278.5v816h70v-811q0 -281 138.5 -431.5t377.5 -150.5t374.5 147t135.5 430v816h70v-809q0 -313 -157.5 -480.5t-424.5 -167.5z" />
    <glyph glyph-name="V" unicode="V" horiz-adv-x="1507" 
d="M725 -10l-643 1444h76l598 -1356l598 1356h71l-643 -1444h-57z" />
    <glyph glyph-name="W" unicode="W" horiz-adv-x="2152" 
d="M590 -10l-496 1444h76l451 -1334l430 1338h53l432 -1340l451 1336h71l-495 -1444h-58l-430 1317l-428 -1317h-57z" />
    <glyph glyph-name="X" unicode="X" horiz-adv-x="1417" 
d="M88 0l580 729l-559 705h81l519 -658l518 658h82l-557 -703l577 -731h-82l-538 684l-539 -684h-82z" />
    <glyph glyph-name="Y" unicode="Y" horiz-adv-x="1394" 
d="M664 0v588l-611 846h86l561 -785l557 785h84l-608 -846v-588h-69z" />
    <glyph glyph-name="Z" unicode="Z" horiz-adv-x="1396" 
d="M137 0v39l1016 1331h-981v64h1079v-39l-1015 -1332h1011v-63h-1110z" />
    <glyph glyph-name="bracketleft" unicode="[" horiz-adv-x="856" 
d="M201 -266v1700h547v-52h-482v-1597h482v-51h-547z" />
    <glyph glyph-name="backslash" unicode="\" horiz-adv-x="989" 
d="M956 -262l-964 1896h69l965 -1896h-70z" />
    <glyph glyph-name="bracketright" unicode="]" horiz-adv-x="856" 
d="M109 -266v51h481v1597h-481v52h546v-1700h-546z" />
    <glyph glyph-name="asciicircum" unicode="^" horiz-adv-x="1024" 
d="M166 1012l321 428h50l321 -428h-63l-283 360l-285 -360h-61z" />
    <glyph glyph-name="underscore" unicode="_" horiz-adv-x="1167" 
d="M-4 -313v59h1175v-59h-1175z" />
    <glyph glyph-name="grave" unicode="`" horiz-adv-x="1024" 
d="M559 1219l-207 208l80 39l178 -247h-51z" />
    <glyph glyph-name="a" unicode="a" horiz-adv-x="1165" 
d="M496 -25q-76 0 -145.5 20.5t-125 58.5t-88.5 99.5t-33 137.5v4q0 157 127 244.5t330 87.5q193 0 369 -58v70q0 174 -96 261t-273 87q-161 0 -336 -86l-24 57q190 91 364 91q215 0 328 -113q102 -105 102 -293v-643h-65v215q-46 -97 -158.5 -168.5t-275.5 -71.5zM500 37
q185 0 308.5 101t123.5 243v127q-173 57 -373 57q-174 0 -279.5 -70t-105.5 -196v-4q0 -122 94.5 -190t231.5 -68z" />
    <glyph glyph-name="b" unicode="b" horiz-adv-x="1345" 
d="M713 -25q-163 0 -281 85.5t-176 220.5v-281h-66v1495h66v-747q57 137 176.5 223t280.5 86q104 0 197.5 -40.5t162.5 -110.5t109.5 -171t40.5 -217v-4q0 -115 -40.5 -216t-109.5 -171.5t-162.5 -111t-197.5 -40.5zM707 39q196 0 321 133t125 340v4q0 204 -127 340.5
t-319 136.5q-126 0 -230.5 -63t-164.5 -172t-60 -240v-4q0 -199 133 -337t322 -138z" />
    <glyph glyph-name="c" unicode="c" horiz-adv-x="1157" 
d="M645 -25q-145 0 -266 73.5t-190.5 197t-69.5 268.5v4q0 144 69 267.5t191 197.5t268 74q132 0 230 -51t182 -140l-47 -47q-165 176 -367 176q-193 0 -325 -139t-132 -336v-4q0 -197 135 -338t326 -141q205 0 371 184l47 -41q-83 -97 -184 -151t-238 -54z" />
    <glyph glyph-name="d" unicode="d" horiz-adv-x="1345" 
d="M633 -25q-104 0 -197.5 40.5t-162.5 110.5t-109.5 171t-40.5 217v4q0 115 40.5 216t109.5 171.5t162.5 111t197.5 40.5q163 0 281 -85t176 -220v743h65v-1495h-65v285q-55 -136 -176 -223t-281 -87zM639 39q189 0 322 138t133 337v4q0 199 -133 337t-322 138
q-196 0 -321 -133t-125 -340v-4q0 -204 127 -340.5t319 -136.5z" />
    <glyph glyph-name="e" unicode="e" horiz-adv-x="1193" 
d="M631 -25q-104 0 -197.5 38.5t-163 107.5t-110.5 171.5t-41 223.5v4q0 150 63.5 273t176.5 193.5t253 70.5q113 0 204.5 -45.5t149 -122.5t88.5 -173.5t31 -201.5v-22h-895q5 -136 68 -241.5t161.5 -159.5t213.5 -54t210 52t161 138l49 -39q-166 -213 -422 -213zM190 551
h824q-4 85 -32 163.5t-77.5 142t-126.5 101t-170 37.5q-176 0 -293 -126t-125 -318z" />
    <glyph glyph-name="f" unicode="f" horiz-adv-x="696" 
d="M258 0v973h-158v59h158v129q0 182 88 264q76 76 203 76q79 0 149 -26v-64q-67 27 -149 27q-225 0 -225 -283v-123h370v-59h-370v-973h-66z" />
    <glyph glyph-name="g" unicode="g" horiz-adv-x="1335" 
d="M641 -334q-258 0 -471 160l39 53q195 -149 432 -149q200 0 318 112t118 324v186q-63 -124 -180.5 -200t-269.5 -76q-133 0 -248.5 62.5t-185.5 175.5t-70 249v4q0 137 70 250.5t185.5 176.5t248.5 63q153 0 269 -75t181 -198v248h68v-874q0 -224 -133 -357
q-135 -135 -371 -135zM633 139q119 0 222.5 55.5t165.5 153.5t62 215v4q0 117 -62 215.5t-165.5 154.5t-222.5 56q-182 0 -310 -121.5t-128 -302.5v-4q0 -179 128.5 -302.5t309.5 -123.5z" />
    <glyph glyph-name="h" unicode="h" horiz-adv-x="1249" 
d="M190 0v1495h66v-709q20 49 52 94t79.5 86.5t116.5 66t149 24.5q199 0 312.5 -124.5t113.5 -328.5v-604h-65v594q0 184 -96 292.5t-273 108.5q-164 0 -276.5 -118.5t-112.5 -294.5v-582h-66z" />
    <glyph glyph-name="i" unicode="i" horiz-adv-x="473" 
d="M193 1317v125h88v-125h-88zM203 0v1032h67v-1032h-67z" />
    <glyph glyph-name="j" unicode="j" horiz-adv-x="475" 
d="M195 1317v125h88v-125h-88zM61 -338q-41 0 -77 8v60q30 -9 75 -9q68 0 108 46.5t40 132.5v1132h65v-1128q0 -120 -56 -181t-155 -61z" />
    <glyph glyph-name="k" unicode="k" horiz-adv-x="1126" 
d="M190 0v1495h66v-1130l686 667h88l-475 -457l500 -575h-82l-463 530l-254 -243v-287h-66z" />
    <glyph glyph-name="l" unicode="l" horiz-adv-x="473" 
d="M203 0v1495h67v-1495h-67z" />
    <glyph glyph-name="m" unicode="m" horiz-adv-x="1912" 
d="M190 0v1032h66v-231q38 104 131 180t221 76q146 0 238 -76.5t127 -196.5q41 112 139.5 192.5t230.5 80.5q181 0 286.5 -116.5t105.5 -324.5v-616h-66v610q0 185 -89 285t-241 100q-137 0 -240.5 -112t-103.5 -281v-602h-65v612q0 183 -88.5 283t-239.5 100
q-137 0 -241.5 -116t-104.5 -279v-600h-66z" />
    <glyph glyph-name="n" unicode="n" horiz-adv-x="1249" 
d="M190 0v1032h66v-246q20 49 52 94t79.5 86.5t116.5 66t149 24.5q199 0 312.5 -124.5t113.5 -328.5v-604h-65v594q0 184 -96 292.5t-273 108.5q-164 0 -276.5 -118.5t-112.5 -294.5v-582h-66z" />
    <glyph glyph-name="o" unicode="o" horiz-adv-x="1302" 
d="M651 -25q-154 0 -277.5 74t-190 196.5t-66.5 266.5v4q0 145 66.5 268t190.5 198t279 75q153 0 276.5 -74t190 -196.5t66.5 -266.5v-4q0 -144 -66.5 -267.5t-190.5 -198.5t-278 -75zM653 37q133 0 239.5 65t165 174t58.5 238v4q0 129 -59.5 238t-167.5 174t-240 65
q-200 0 -330.5 -139t-130.5 -338v-4q0 -129 59.5 -238t167 -174t238.5 -65z" />
    <glyph glyph-name="p" unicode="p" horiz-adv-x="1345" 
d="M190 -328v1360h66v-284q57 137 176.5 223t280.5 86q104 0 197.5 -40.5t162.5 -110.5t109.5 -171t40.5 -217v-4q0 -115 -40.5 -216t-109.5 -171.5t-162.5 -111t-197.5 -40.5q-163 0 -281 85.5t-176 220.5v-609h-66zM707 39q196 0 321 133t125 340v4q0 204 -127 340.5
t-319 136.5q-126 0 -230.5 -63t-164.5 -172t-60 -240v-4q0 -199 133 -337t322 -138z" />
    <glyph glyph-name="q" unicode="q" horiz-adv-x="1345" 
d="M1090 -328v613q-55 -136 -176 -223t-281 -87q-104 0 -197.5 40.5t-162.5 110.5t-109.5 171t-40.5 217v4q0 115 40.5 216t109.5 171.5t162.5 111t197.5 40.5q163 0 281 -85t176 -220v280h65v-1360h-65zM639 39q189 0 322 138t133 337v4q0 199 -133 337t-322 138
q-196 0 -321 -133t-125 -340v-4q0 -204 127 -340.5t319 -136.5z" />
    <glyph glyph-name="r" unicode="r" horiz-adv-x="739" 
d="M190 0v1032h66v-315q48 142 165.5 241t272.5 95v-68h-10q-122 0 -221.5 -71t-153 -184.5t-53.5 -240.5v-489h-66z" />
    <glyph glyph-name="s" unicode="s" horiz-adv-x="1009" 
d="M514 -18q-111 0 -222.5 40t-197.5 111l39 51q180 -141 385 -141q126 0 210.5 60.5t84.5 154.5v4q0 27 -6.5 50t-20.5 42t-29.5 34.5t-41 29t-46.5 23.5t-54 21t-56 17.5t-59 16.5q-73 21 -113.5 34t-94.5 38t-82 50.5t-48.5 66t-20.5 91.5v4q0 117 98.5 194t254.5 77
q193 0 362 -115l-37 -55q-147 108 -327 108q-127 0 -205 -57.5t-78 -145.5v-4q0 -27 9.5 -51t22.5 -41.5t39.5 -35t47 -28.5t59.5 -24.5t63.5 -21t71.5 -21.5q53 -14 92.5 -26.5t83.5 -30.5t74.5 -39.5t56.5 -49.5t39 -64.5t13 -80.5v-4q0 -125 -105 -203.5t-262 -78.5z" />
    <glyph glyph-name="t" unicode="t" horiz-adv-x="786" 
d="M520 -18q-128 0 -201 72t-73 210v709h-158v59h158v346h65v-346h375v-59h-375v-703q0 -114 55.5 -170.5t159.5 -56.5q78 0 156 37v-64q-69 -34 -162 -34z" />
    <glyph glyph-name="u" unicode="u" horiz-adv-x="1249" 
d="M596 -25q-199 0 -312.5 124.5t-113.5 328.5v604h66v-594q0 -184 96 -292.5t272 -108.5q164 0 276.5 119t112.5 295v581h66v-1032h-66v246q-20 -50 -52.5 -95t-80.5 -86t-116.5 -65.5t-147.5 -24.5z" />
    <glyph glyph-name="v" unicode="v" horiz-adv-x="1165" 
d="M557 -8l-473 1040h76l424 -960l426 960h71l-471 -1040h-53z" />
    <glyph glyph-name="w" unicode="w" horiz-adv-x="1693" 
d="M467 -8l-369 1040h74l324 -946l325 952h53l326 -952l326 946h67l-366 -1040h-56l-323 942l-326 -942h-55z" />
    <glyph glyph-name="x" unicode="x" horiz-adv-x="1118" 
d="M78 0l440 524l-424 508h82l383 -463l387 463h78l-424 -506l440 -526h-82l-399 481l-403 -481h-78z" />
    <glyph glyph-name="y" unicode="y" horiz-adv-x="1181" 
d="M297 -334q-109 0 -199 51l27 56q82 -45 174 -45q89 0 149 57t132 217l-496 1030h74l454 -960l416 960h70l-465 -1059q-79 -178 -153 -242.5t-183 -64.5z" />
    <glyph glyph-name="z" unicode="z" horiz-adv-x="1052" 
d="M92 0v37l770 936h-743v59h839v-37l-768 -936h773v-59h-871z" />
    <glyph glyph-name="braceleft" unicode="{" horiz-adv-x="933" 
d="M807 -240l-10 -49q-77 15 -136 35t-101 41.5t-71.5 51t-47 58.5t-27 69t-12.5 77t-3 88v162q0 266 -252 266h-45v57h45q252 0 252 267v161q0 51 3 88t12.5 77t27 69t47 58.5t71.5 51t101 41.5t136 35l10 -49q-68 -15 -119.5 -33.5t-87.5 -37t-60.5 -45t-39 -50.5
t-22 -60.5t-9.5 -68t-2 -80.5v-159q0 -255 -221 -293q221 -44 221 -293v-160q0 -49 2 -80.5t9.5 -68t22 -60.5t39 -50.5t60.5 -45t87.5 -37t119.5 -33.5z" />
    <glyph glyph-name="bar" unicode="|" horiz-adv-x="550" 
d="M246 -262v1896h59v-1896h-59z" />
    <glyph glyph-name="braceright" unicode="}" horiz-adv-x="933" 
d="M137 -289l-10 49q68 15 119.5 33.5t87.5 37t60.5 45t39 50.5t22 60.5t9.5 68t2 80.5v160q0 255 221 293q-221 44 -221 293v159q0 49 -2 80.5t-9.5 68t-22 60.5t-39 50.5t-60.5 45t-87.5 37t-119.5 33.5l10 49q77 -15 136 -35t101 -41.5t71.5 -51t47 -58.5t27 -69
t12.5 -77t3 -88v-161q0 -267 251 -267h45v-57h-45q-251 0 -251 -266v-162q0 -51 -3 -88t-12.5 -77t-27 -69t-47 -58.5t-71.5 -51t-101 -41.5t-136 -35z" />
    <glyph glyph-name="asciitilde" unicode="~" horiz-adv-x="917" 
d="M215 510l-45 10q22 94 61.5 134t96.5 40q41 0 135.5 -52t128.5 -52q38 0 62.5 26t47.5 93l46 -13q-22 -94 -61.5 -134t-96.5 -40q-44 0 -137.5 52.5t-126.5 52.5q-38 0 -63 -25.5t-48 -91.5z" />
    <glyph glyph-name="uni00A0" unicode="&#xa0;" horiz-adv-x="589" 
 />
    <glyph glyph-name="exclamdown" unicode="&#xa1;" horiz-adv-x="444" 
d="M174 1300v134h98v-134h-98zM184 0v190l21 869h35l20 -869v-190h-76z" />
    <glyph glyph-name="cent" unicode="&#xa2;" horiz-adv-x="1165" 
d="M461 -12l43 221q-164 49 -266.5 193t-102.5 323v4q0 142 69.5 266t191.5 198.5t266 74.5q31 0 49 -2l34 180h66l-37 -189q91 -22 162 -67t139 -113l-47 -47q-65 65 -127.5 107t-140.5 59l-185 -942q40 -6 84 -6q216 0 377 182l45 -39q-173 -205 -426 -205q-43 0 -90 9
l-41 -207h-63zM518 270l182 936h-41q-124 0 -229.5 -64.5t-166 -174t-60.5 -236.5v-4q0 -155 88 -281t227 -176z" />
    <glyph glyph-name="sterling" unicode="&#xa3;" horiz-adv-x="1263" 
d="M137 0v37l182 26v578h-182v66h182v239q0 253 136 389q119 119 303 119q253 0 405 -223l-53 -41q-68 95 -152.5 148t-201.5 53q-153 0 -252 -99q-115 -115 -115 -342v-243h615v-66h-615v-578h766v-63h-1018z" />
    <glyph glyph-name="yen" unicode="&#xa5;" horiz-adv-x="1320" 
d="M627 0v250h-428v61h428v264h-428v62h399l-545 797h86l525 -783l522 783h82l-545 -797h397v-62h-426v-264h426v-61h-426v-250h-67z" />
    <glyph glyph-name="section" unicode="&#xa7;" horiz-adv-x="1294" 
d="M657 -20q-126 0 -244.5 45t-189.5 116l47 49q70 -63 175 -104t217 -41q137 0 213.5 50.5t76.5 131.5v4q0 86 -96 141t-311 99q-210 43 -306 107t-96 163v4q0 98 96.5 163t262.5 65q-232 75 -232 229v4q0 108 100.5 178t268.5 70q124 0 241.5 -45.5t192.5 -116.5l-49 -49
q-66 63 -171.5 104.5t-217.5 41.5q-137 0 -214 -51t-77 -132v-4q0 -86 96 -140.5t312 -98.5q210 -43 305.5 -107.5t95.5 -163.5v-4q0 -97 -96 -162t-262 -65q229 -74 229 -230v-4q0 -108 -99.5 -177.5t-267.5 -69.5zM791 506q124 0 208 51t84 125v4q0 70 -79.5 121.5
t-262.5 91.5q-121 29 -235 29q-124 0 -208.5 -51t-84.5 -125v-4q0 -74 78.5 -125t263.5 -88q121 -29 236 -29z" />
    <glyph glyph-name="dieresis" unicode="&#xa8;" horiz-adv-x="1024" 
d="M608 1241v127h101v-127h-101zM315 1241v127h101v-127h-101z" />
    <glyph glyph-name="copyright" unicode="&#xa9;" horiz-adv-x="1699" 
d="M850 -25q-204 0 -375 99.5t-268.5 269.5t-97.5 371v4q0 200 99 370t270 269.5t372 99.5q153 0 290.5 -58.5t236 -157.5t156.5 -235.5t58 -287.5v-4q0 -150 -58.5 -286.5t-157.5 -236t-236.5 -158.5t-288.5 -59zM850 18q142 0 271 55.5t221.5 149.5t147 222.5t54.5 269.5
v4q0 141 -54.5 270t-147 222t-221.5 148.5t-271 55.5q-143 0 -272 -55.5t-221.5 -149t-146.5 -222t-54 -269.5v-4q0 -189 91.5 -349t251.5 -254t351 -94zM862 338q-158 0 -265.5 113t-107.5 272v4q0 161 108.5 275t266.5 114q95 0 160.5 -31.5t128.5 -91.5l-43 -43
q-111 111 -248 111q-133 0 -222 -97.5t-89 -234.5q-4 0 0 -4q0 -136 90 -234t223 -98q81 0 139 29t113 86l41 -39q-61 -63 -129.5 -97t-165.5 -34z" />
    <glyph glyph-name="ordfeminine" unicode="&#xaa;" horiz-adv-x="835" 
d="M375 846q-87 0 -153 46.5t-66 129.5v4q0 89 69.5 136.5t184.5 47.5q99 0 188 -26v26q0 89 -49 134t-141 45q-89 0 -181 -50l-20 50q104 49 205 49q120 0 184 -64q55 -55 55 -162v-354h-53v103q-76 -115 -223 -115zM377 895q93 0 157 51t64 125v66q-95 26 -192 26
q-87 0 -140 -36t-53 -97v-4q0 -61 47.5 -96t116.5 -35zM152 631v51h510v-51h-510z" />
    <glyph glyph-name="guillemotleft" unicode="&#xab;" horiz-adv-x="989" 
d="M819 92l-348 424v12l348 424l45 -32l-313 -398l313 -397zM442 92l-346 424v12l346 424l45 -32l-313 -398l313 -397z" />
    <glyph glyph-name="registered" unicode="&#xae;" horiz-adv-x="851" 
d="M426 737q-150 0 -253 105t-103 252v2q0 147 104 252.5t252 105.5q150 0 253 -104.5t103 -251.5v-2q0 -147 -104 -253t-252 -106zM426 772q134 0 226.5 95.5t92.5 228.5q0 134 -92.5 228.5t-226.5 94.5t-227 -95t-93 -228q0 -134 93 -229t227 -95zM295 922v358h156
q59 0 96 -27t37 -79q0 -42 -25.5 -70t-66.5 -39l104 -143h-57l-99 137h-100v-137h-45zM340 1098h104q43 0 68 19.5t25 51.5q0 34 -24.5 52t-66.5 18h-106v-141z" />
    <glyph glyph-name="macron" unicode="&#xaf;" horiz-adv-x="1024" 
d="M231 1272v61h562v-61h-562z" />
    <glyph glyph-name="degree" unicode="&#xb0;" horiz-adv-x="897" 
d="M449 860q-119 0 -209 87t-90 204v4q0 117 90 204t209 87t209 -87t90 -204v-4q0 -117 -90 -204t-209 -87zM449 920q96 0 164.5 68.5t68.5 162.5v4q0 95 -68.5 164.5t-164.5 69.5t-165 -70t-69 -164v-4q0 -94 69 -162.5t165 -68.5z" />
    <glyph glyph-name="plusminus" unicode="&#xb1;" horiz-adv-x="1245" 
d="M1094 752h-439v-428h-65v428h-438v61h438v428h65v-428h439v-61zM1094 0h-942v61h942v-61z" />
    <glyph glyph-name="acute" unicode="&#xb4;" horiz-adv-x="1024" 
d="M414 1219l178 247l80 -39l-207 -208h-51z" />
    <glyph glyph-name="paragraph" unicode="&#xb6;" horiz-adv-x="956" 
d="M680 0v567h-18q-156 0 -281 49.5t-200 149t-75 233.5v5q0 131 68 229.5t186.5 149.5t270.5 51h121v-1434h-72z" />
    <glyph glyph-name="periodcentered" unicode="&#xb7;" horiz-adv-x="389" 
d="M145 537v133h99v-133h-99z" />
    <glyph glyph-name="cedilla" unicode="&#xb8;" horiz-adv-x="1024" 
d="M420 -295l-72 35l178 270h54z" />
    <glyph glyph-name="ordmasculine" unicode="&#xba;" horiz-adv-x="837" 
d="M418 846q-128 0 -210.5 86.5t-82.5 208.5v4q0 125 83.5 212t211.5 87q127 0 210 -86.5t83 -208.5v-4q0 -121 -84.5 -210t-210.5 -89zM131 631v51h576v-51h-576zM422 899q100 0 165.5 71t65.5 171v4q0 102 -68.5 174t-166.5 72q-101 0 -167.5 -71t-66.5 -171v-4
q0 -103 67.5 -174.5t170.5 -71.5z" />
    <glyph glyph-name="guillemotright" unicode="&#xbb;" horiz-adv-x="989" 
d="M547 92l-45 33l313 397l-313 398l45 32l346 -424v-12zM170 92l-45 33l313 397l-313 398l45 32l348 -424v-12z" />
    <glyph glyph-name="questiondown" unicode="&#xbf;" horiz-adv-x="1050" 
d="M532 1300v134h99v-134h-99zM543 -18q-194 0 -315.5 112t-121.5 277v4q0 91 36 165.5t99 123t140 78.5t166 40l16 277h39l21 -326l-9 -8q-197 -8 -317.5 -101t-120.5 -245v-4q0 -142 103 -237t266 -95q121 0 221.5 60.5t175.5 168.5l51 -39q-174 -251 -450 -251z" />
    <glyph glyph-name="Agrave" unicode="&#xc0;" 
d="M82 0l680 1444h65l680 -1444h-75l-195 418h-887l-196 -418h-72zM381 481h825l-413 881zM793 1579l-207 209l80 39l178 -248h-51z" />
    <glyph glyph-name="Aacute" unicode="&#xc1;" 
d="M82 0l680 1444h65l680 -1444h-75l-195 418h-887l-196 -418h-72zM381 481h825l-413 881zM741 1581l179 248l79 -39l-206 -209h-52z" />
    <glyph glyph-name="Acircumflex" unicode="&#xc2;" 
d="M82 0l680 1444h65l680 -1444h-75l-195 418h-887l-196 -418h-72zM381 481h825l-413 881zM557 1575l211 237h49l211 -237h-59l-176 162l-177 -162h-59z" />
    <glyph glyph-name="Atilde" unicode="&#xc3;" 
d="M82 0l680 1444h65l680 -1444h-75l-195 418h-887l-196 -418h-72zM381 481h825l-413 881zM555 1581l-45 10q22 94 61.5 135t96.5 41q41 0 135.5 -53t128.5 -53q37 0 62 26.5t48 92.5l45 -11q-22 -94 -61 -134t-96 -40q-44 0 -137.5 52.5t-126.5 52.5q-38 0 -63 -26t-48 -93
z" />
    <glyph glyph-name="Adieresis" unicode="&#xc4;" 
d="M82 0l680 1444h65l680 -1444h-75l-195 418h-887l-196 -418h-72zM381 481h825l-413 881zM899 1604v125h107v-125h-107zM584 1604v125h106v-125h-106z" />
    <glyph glyph-name="Aring" unicode="&#xc5;" 
d="M584 1556q0 79 61.5 133t149.5 54t149.5 -54t61.5 -133q0 -65 -40.5 -112.5t-107.5 -65.5l649 -1378h-75l-195 418h-887l-196 -418h-72l649 1378q-67 17 -107 65t-40 113zM381 481h825l-413 881zM637 1556q0 -61 45.5 -100t112.5 -39t111 39t44 100t-44.5 101.5
t-110.5 40.5q-67 0 -112.5 -40.5t-45.5 -101.5z" />
    <glyph glyph-name="AE" unicode="&#xc6;" horiz-adv-x="2101" 
d="M16 0l899 1434h1047v-64h-907v-616h819v-64h-819v-627h917v-63h-987v418h-633l-260 -418h-76zM391 481h594v889h-37z" />
    <glyph glyph-name="Ccedilla" unicode="&#xc7;" horiz-adv-x="1497" 
d="M731 -295l-72 35l156 237q-190 11 -342.5 111.5t-237.5 264.5t-85 360v4q0 199 90.5 368.5t254 271t363.5 101.5q97 0 178 -16.5t147.5 -49.5t117 -70t108.5 -91l-49 -51q-50 48 -97 83t-108.5 67t-136.5 48.5t-162 16.5q-179 0 -325 -91.5t-228 -246t-82 -338.5v-4
q0 -183 83 -338.5t230 -246.5t324 -91q157 0 280 60.5t230 168.5l49 -47q-231 -238 -545 -246z" />
    <glyph glyph-name="Egrave" unicode="&#xc8;" horiz-adv-x="1361" 
d="M213 0v1434h1010v-64h-940v-616h850v-64h-850v-627h950v-63h-1020zM739 1567l-207 209l80 39l179 -248h-52z" />
    <glyph glyph-name="Eacute" unicode="&#xc9;" horiz-adv-x="1361" 
d="M213 0v1434h1010v-64h-940v-616h850v-64h-850v-627h950v-63h-1020zM635 1567l178 248l80 -39l-207 -209h-51z" />
    <glyph glyph-name="Ecircumflex" unicode="&#xca;" horiz-adv-x="1361" 
d="M213 0v1434h1010v-64h-940v-616h850v-64h-850v-627h950v-63h-1020zM485 1567l211 237h49l211 -237h-59l-176 162l-176 -162h-60z" />
    <glyph glyph-name="Edieresis" unicode="&#xcb;" horiz-adv-x="1361" 
d="M827 1589v125h107v-125h-107zM512 1589v125h106v-125h-106zM213 0v1434h1010v-64h-940v-616h850v-64h-850v-627h950v-63h-1020z" />
    <glyph glyph-name="Igrave" unicode="&#xcc;" horiz-adv-x="524" 
d="M227 0v1434h70v-1434h-70zM266 1567l-207 209l80 39l178 -248h-51z" />
    <glyph glyph-name="Iacute" unicode="&#xcd;" horiz-adv-x="524" 
d="M227 0v1434h70v-1434h-70zM211 1567l178 248l80 -39l-207 -209h-51z" />
    <glyph glyph-name="Icircumflex" unicode="&#xce;" horiz-adv-x="524" 
d="M227 0v1434h70v-1434h-70zM18 1567l213 207h62l213 -207h-70l-174 141l-176 -141h-68z" />
    <glyph glyph-name="Idieresis" unicode="&#xcf;" horiz-adv-x="524" 
d="M227 0v1434h70v-1434h-70zM369 1589v125h106v-125h-106zM53 1589v125h107v-125h-107z" />
    <glyph glyph-name="Eth" unicode="&#xd0;" horiz-adv-x="1652" 
d="M274 0v688h-153v66h153v680h467q166 0 309 -55.5t242 -151.5t155 -227.5t56 -280.5v-4q0 -149 -56 -280.5t-155 -227.5t-242 -151.5t-309 -55.5h-467zM344 63h399q201 0 359.5 87t244 235t85.5 328v4q0 135 -50.5 254.5t-139.5 207.5t-219 139.5t-282 51.5h-397v-616h500
v-66h-500v-625z" />
    <glyph glyph-name="Ntilde" unicode="&#xd1;" horiz-adv-x="1605" 
d="M575 1556l-47 13q43 162 156 162q41 0 135.5 -47.5t128.5 -47.5q37 0 62.5 24.5t48.5 84.5l45 -12q-43 -162 -156 -162q-42 0 -136.5 47t-125.5 47q-37 0 -62.5 -24.5t-48.5 -84.5zM213 0v1434h63l1049 -1315v1315h68v-1434h-56l-1056 1325v-1325h-68z" />
    <glyph glyph-name="Ograve" unicode="&#xd2;" horiz-adv-x="1730" 
d="M864 -25q-127 0 -240.5 39t-199 109t-148 162.5t-94.5 202.5t-32 227v4q0 146 51.5 280t143 236t227.5 162.5t294 60.5t294 -60.5t227 -162.5t142.5 -236t51.5 -280v-4q0 -146 -51.5 -280.5t-143.5 -236.5t-228 -162.5t-294 -60.5zM868 39q139 0 260 54.5t204 146.5
t130 215t47 258v4q0 134 -47.5 257.5t-130.5 216.5t-205 148.5t-262 55.5t-261.5 -54.5t-204.5 -146.5t-130 -215t-47 -258v-4q0 -134 48 -257.5t131.5 -216.5t205.5 -148.5t262 -55.5zM924 1579l-207 209l80 39l178 -248h-51z" />
    <glyph glyph-name="Oacute" unicode="&#xd3;" horiz-adv-x="1730" 
d="M864 -25q-127 0 -240.5 39t-199 109t-148 162.5t-94.5 202.5t-32 227v4q0 146 51.5 280t143 236t227.5 162.5t294 60.5t294 -60.5t227 -162.5t142.5 -236t51.5 -280v-4q0 -146 -51.5 -280.5t-143.5 -236.5t-228 -162.5t-294 -60.5zM868 39q139 0 260 54.5t204 146.5
t130 215t47 258v4q0 134 -47.5 257.5t-130.5 216.5t-205 148.5t-262 55.5t-261.5 -54.5t-204.5 -146.5t-130 -215t-47 -258v-4q0 -134 48 -257.5t131.5 -216.5t205.5 -148.5t262 -55.5zM741 1581l179 248l79 -39l-206 -209h-52z" />
    <glyph glyph-name="Ocircumflex" unicode="&#xd4;" horiz-adv-x="1730" 
d="M864 -25q-127 0 -240.5 39t-199 109t-148 162.5t-94.5 202.5t-32 227v4q0 146 51.5 280t143 236t227.5 162.5t294 60.5t294 -60.5t227 -162.5t142.5 -236t51.5 -280v-4q0 -146 -51.5 -280.5t-143.5 -236.5t-228 -162.5t-294 -60.5zM868 39q139 0 260 54.5t204 146.5
t130 215t47 258v4q0 134 -47.5 257.5t-130.5 216.5t-205 148.5t-262 55.5t-261.5 -54.5t-204.5 -146.5t-130 -215t-47 -258v-4q0 -134 48 -257.5t131.5 -216.5t205.5 -148.5t262 -55.5zM629 1579l211 238h49l211 -238h-60l-176 162l-176 -162h-59z" />
    <glyph glyph-name="Otilde" unicode="&#xd5;" horiz-adv-x="1730" 
d="M864 -25q-127 0 -240.5 39t-199 109t-148 162.5t-94.5 202.5t-32 227v4q0 146 51.5 280t143 236t227.5 162.5t294 60.5t294 -60.5t227 -162.5t142.5 -236t51.5 -280v-4q0 -146 -51.5 -280.5t-143.5 -236.5t-228 -162.5t-294 -60.5zM868 39q139 0 260 54.5t204 146.5
t130 215t47 258v4q0 134 -47.5 257.5t-130.5 216.5t-205 148.5t-262 55.5t-261.5 -54.5t-204.5 -146.5t-130 -215t-47 -258v-4q0 -134 48 -257.5t131.5 -216.5t205.5 -148.5t262 -55.5zM627 1581l-45 10q22 94 61 135t96 41q41 0 136 -53t129 -53q37 0 62 26.5t48 92.5
l45 -11q-22 -94 -61.5 -134t-96.5 -40q-44 0 -137.5 52.5t-126.5 52.5q-38 0 -62.5 -26t-47.5 -93z" />
    <glyph glyph-name="Odieresis" unicode="&#xd6;" horiz-adv-x="1730" 
d="M971 1604v125h106v-125h-106zM655 1604v125h107v-125h-107zM864 -25q-127 0 -240.5 39t-199 109t-148 162.5t-94.5 202.5t-32 227v4q0 146 51.5 280t143 236t227.5 162.5t294 60.5t294 -60.5t227 -162.5t142.5 -236t51.5 -280v-4q0 -146 -51.5 -280.5t-143.5 -236.5
t-228 -162.5t-294 -60.5zM868 39q139 0 260 54.5t204 146.5t130 215t47 258v4q0 134 -47.5 257.5t-130.5 216.5t-205 148.5t-262 55.5t-261.5 -54.5t-204.5 -146.5t-130 -215t-47 -258v-4q0 -134 48 -257.5t131.5 -216.5t205.5 -148.5t262 -55.5z" />
    <glyph glyph-name="multiply" unicode="&#xd7;" horiz-adv-x="1245" 
d="M1006 291l-385 387l-385 -387l-43 43l387 385l-387 385l47 47l385 -387l385 387l43 -43l-387 -385l387 -385z" />
    <glyph glyph-name="Oslash" unicode="&#xd8;" horiz-adv-x="1730" 
d="M864 -25q-283 0 -479 183l-156 -168h-82l197 209q-194 216 -194 516v4q0 146 51.5 280t143 236t227.5 162.5t294 60.5q285 0 480 -182l155 168h82l-197 -209q195 -217 195 -516v-4q0 -146 -51.5 -280.5t-143.5 -236.5t-228 -162.5t-294 -60.5zM391 250l909 975
q-181 170 -436 170q-140 0 -261.5 -54.5t-204.5 -146.5t-130 -215t-47 -258v-4q0 -275 170 -467zM868 39q139 0 260 54.5t204 146.5t130 215t47 258v4q0 275 -170 467l-909 -975q181 -170 438 -170z" />
    <glyph glyph-name="Ugrave" unicode="&#xd9;" horiz-adv-x="1546" 
d="M774 -23q-130 0 -236.5 41t-184.5 120t-120.5 201.5t-42.5 278.5v816h70v-811q0 -281 138.5 -431.5t377.5 -150.5t374.5 147t135.5 430v816h70v-809q0 -313 -157.5 -480.5t-424.5 -167.5zM803 1556l-207 209l80 39l178 -248h-51z" />
    <glyph glyph-name="Uacute" unicode="&#xda;" horiz-adv-x="1546" 
d="M774 -23q-130 0 -236.5 41t-184.5 120t-120.5 201.5t-42.5 278.5v816h70v-811q0 -281 138.5 -431.5t377.5 -150.5t374.5 147t135.5 430v816h70v-809q0 -313 -157.5 -480.5t-424.5 -167.5zM688 1559l178 247l80 -39l-207 -208h-51z" />
    <glyph glyph-name="Ucircumflex" unicode="&#xdb;" horiz-adv-x="1546" 
d="M774 -23q-130 0 -236.5 41t-184.5 120t-120.5 201.5t-42.5 278.5v816h70v-811q0 -281 138.5 -431.5t377.5 -150.5t374.5 147t135.5 430v816h70v-809q0 -313 -157.5 -480.5t-424.5 -167.5zM528 1556l213 207h62l213 -207h-70l-174 142l-176 -142h-68z" />
    <glyph glyph-name="Udieresis" unicode="&#xdc;" horiz-adv-x="1546" 
d="M879 1579v125h106v-125h-106zM563 1579v125h107v-125h-107zM774 -23q-130 0 -236.5 41t-184.5 120t-120.5 201.5t-42.5 278.5v816h70v-811q0 -281 138.5 -431.5t377.5 -150.5t374.5 147t135.5 430v816h70v-809q0 -313 -157.5 -480.5t-424.5 -167.5z" />
    <glyph glyph-name="Yacute" unicode="&#xdd;" horiz-adv-x="1394" 
d="M664 0v588l-611 846h86l561 -785l557 785h84l-608 -846v-588h-69zM606 1559l178 247l80 -39l-207 -208h-51z" />
    <glyph glyph-name="Thorn" unicode="&#xde;" horiz-adv-x="1372" 
d="M281 346h428q225 0 356 99.5t131 277.5v4q0 177 -127.5 275t-351.5 98h-436v-754zM707 281h-426v-281h-70v1434h70v-271h442q253 0 398 -115.5t145 -318.5v-4q0 -140 -71.5 -241.5t-197 -152t-290.5 -50.5z" />
    <glyph glyph-name="germandbls" unicode="&#xdf;" horiz-adv-x="1210" 
d="M559 -6v61q208 5 333.5 91.5t125.5 242.5v4q0 144 -121.5 227t-337.5 101v57q165 44 266 137t101 232v4q0 122 -91.5 208.5t-228.5 86.5q-164 0 -257 -114t-93 -302v-1030h-66v1032q0 215 110.5 345t307.5 130q169 0 279 -102.5t110 -249.5v-4q0 -140 -90.5 -238
t-240.5 -151q122 -17 214.5 -61.5t149.5 -123.5t57 -182v-4q0 -182 -146 -289.5t-382 -107.5z" />
    <glyph glyph-name="agrave" unicode="&#xe0;" horiz-adv-x="1165" 
d="M496 -25q-76 0 -145.5 20.5t-125 58.5t-88.5 99.5t-33 137.5v4q0 157 127 244.5t330 87.5q193 0 369 -58v70q0 174 -96 261t-273 87q-161 0 -336 -86l-24 57q190 91 364 91q215 0 328 -113q102 -105 102 -293v-643h-65v215q-46 -97 -158.5 -168.5t-275.5 -71.5zM500 37
q185 0 308.5 101t123.5 243v127q-173 57 -373 57q-174 0 -279.5 -70t-105.5 -196v-4q0 -122 94.5 -190t231.5 -68zM639 1219l-207 208l80 39l178 -247h-51z" />
    <glyph glyph-name="aacute" unicode="&#xe1;" horiz-adv-x="1165" 
d="M496 -25q-76 0 -145.5 20.5t-125 58.5t-88.5 99.5t-33 137.5v4q0 157 127 244.5t330 87.5q193 0 369 -58v70q0 174 -96 261t-273 87q-161 0 -336 -86l-24 57q190 91 364 91q215 0 328 -113q102 -105 102 -293v-643h-65v215q-46 -97 -158.5 -168.5t-275.5 -71.5zM500 37
q185 0 308.5 101t123.5 243v127q-173 57 -373 57q-174 0 -279.5 -70t-105.5 -196v-4q0 -122 94.5 -190t231.5 -68zM530 1219l179 247l79 -39l-206 -208h-52z" />
    <glyph glyph-name="acircumflex" unicode="&#xe2;" horiz-adv-x="1165" 
d="M496 -25q-76 0 -145.5 20.5t-125 58.5t-88.5 99.5t-33 137.5v4q0 157 127 244.5t330 87.5q193 0 369 -58v70q0 174 -96 261t-273 87q-161 0 -336 -86l-24 57q190 91 364 91q215 0 328 -113q102 -105 102 -293v-643h-65v215q-46 -97 -158.5 -168.5t-275.5 -71.5zM500 37
q185 0 308.5 101t123.5 243v127q-173 57 -373 57q-174 0 -279.5 -70t-105.5 -196v-4q0 -122 94.5 -190t231.5 -68zM371 1219l211 237h49l211 -237h-60l-176 161l-176 -161h-59z" />
    <glyph glyph-name="atilde" unicode="&#xe3;" horiz-adv-x="1165" 
d="M496 -25q-76 0 -145.5 20.5t-125 58.5t-88.5 99.5t-33 137.5v4q0 157 127 244.5t330 87.5q193 0 369 -58v70q0 174 -96 261t-273 87q-161 0 -336 -86l-24 57q190 91 364 91q215 0 328 -113q102 -105 102 -293v-643h-65v215q-46 -97 -158.5 -168.5t-275.5 -71.5zM500 37
q185 0 308.5 101t123.5 243v127q-173 57 -373 57q-174 0 -279.5 -70t-105.5 -196v-4q0 -122 94.5 -190t231.5 -68zM346 1219l-45 10q22 94 61.5 135t96.5 41q41 0 135.5 -53.5t128.5 -53.5q38 0 63 26.5t48 92.5l45 -10q-22 -94 -61.5 -134t-96.5 -40q-44 0 -137.5 52
t-126.5 52q-38 0 -63 -25.5t-48 -92.5z" />
    <glyph glyph-name="adieresis" unicode="&#xe4;" horiz-adv-x="1165" 
d="M496 -25q-76 0 -145.5 20.5t-125 58.5t-88.5 99.5t-33 137.5v4q0 157 127 244.5t330 87.5q193 0 369 -58v70q0 174 -96 261t-273 87q-161 0 -336 -86l-24 57q190 91 364 91q215 0 328 -113q102 -105 102 -293v-643h-65v215q-46 -97 -158.5 -168.5t-275.5 -71.5zM500 37
q185 0 308.5 101t123.5 243v127q-173 57 -373 57q-174 0 -279.5 -70t-105.5 -196v-4q0 -122 94.5 -190t231.5 -68zM680 1241v127h100v-127h-100zM387 1241v127h100v-127h-100z" />
    <glyph glyph-name="aring" unicode="&#xe5;" horiz-adv-x="1165" 
d="M496 -25q-76 0 -145.5 20.5t-125 58.5t-88.5 99.5t-33 137.5v4q0 157 127 244.5t330 87.5q193 0 369 -58v70q0 174 -96 261t-273 87q-161 0 -336 -86l-24 57q190 91 364 91q215 0 328 -113q102 -105 102 -293v-643h-65v215q-46 -97 -158.5 -168.5t-275.5 -71.5zM500 37
q185 0 308.5 101t123.5 243v127q-173 57 -373 57q-174 0 -279.5 -70t-105.5 -196v-4q0 -122 94.5 -190t231.5 -68zM379 1411q0 82 60 139.5t145 57.5t144.5 -57.5t59.5 -139.5q0 -80 -60 -137t-144 -57q-85 0 -145 57t-60 137zM430 1411q0 -63 44 -107t110 -44t109.5 44
t43.5 107q0 64 -44 109t-109 45t-109.5 -45t-44.5 -109z" />
    <glyph glyph-name="ae" unicode="&#xe6;" horiz-adv-x="1986" 
d="M506 -25q-109 0 -198.5 34.5t-146.5 107.5t-57 174v4q0 156 127 244t326 88q186 0 356 -56l7 72q-1 170 -96.5 257t-268.5 87q-155 0 -330 -86l-24 57q190 91 358 91q169 0 273 -72t133 -217q58 137 173 217t265 80q113 0 205 -46t150 -122.5t89 -173t31 -201.5
q0 -16 -2 -22h-895q5 -135 67 -240.5t160 -160t213 -54.5q233 0 375 180l47 -41q-157 -201 -424 -201q-136 0 -250.5 65t-181.5 181q-76 -102 -200.5 -174t-280.5 -72zM510 37q141 0 262 70t186 174q-44 99 -47 229q-163 55 -356 55q-172 0 -276.5 -70t-104.5 -196v-4
q0 -123 94 -190.5t242 -67.5zM981 551h825q-4 85 -32 163.5t-77.5 142t-126 101t-169.5 37.5q-174 0 -293 -126.5t-127 -317.5z" />
    <glyph glyph-name="ccedilla" unicode="&#xe7;" horiz-adv-x="1157" 
d="M524 -295l-71 35l155 237q-207 12 -348 169t-141 368v4q0 144 69 267.5t191 197.5t268 74q132 0 230 -51t182 -140l-47 -47q-165 176 -367 176q-193 0 -325 -139t-132 -336v-4q0 -197 135 -338t326 -141q205 0 371 184l47 -41q-165 -197 -401 -205z" />
    <glyph glyph-name="egrave" unicode="&#xe8;" horiz-adv-x="1193" 
d="M631 -25q-104 0 -197.5 38.5t-163 107.5t-110.5 171.5t-41 223.5v4q0 150 63.5 273t176.5 193.5t253 70.5q113 0 204.5 -45.5t149 -122.5t88.5 -173.5t31 -201.5v-22h-895q5 -136 68 -241.5t161.5 -159.5t213.5 -54t210 52t161 138l49 -39q-166 -213 -422 -213zM190 551
h824q-4 85 -32 163.5t-77.5 142t-126.5 101t-170 37.5q-176 0 -293 -126t-125 -318zM659 1219l-206 208l79 39l179 -247h-52z" />
    <glyph glyph-name="eacute" unicode="&#xe9;" horiz-adv-x="1193" 
d="M631 -25q-104 0 -197.5 38.5t-163 107.5t-110.5 171.5t-41 223.5v4q0 150 63.5 273t176.5 193.5t253 70.5q113 0 204.5 -45.5t149 -122.5t88.5 -173.5t31 -201.5v-22h-895q5 -136 68 -241.5t161.5 -159.5t213.5 -54t210 52t161 138l49 -39q-166 -213 -422 -213zM190 551
h824q-4 85 -32 163.5t-77.5 142t-126.5 101t-170 37.5q-176 0 -293 -126t-125 -318zM516 1219l178 247l80 -39l-207 -208h-51z" />
    <glyph glyph-name="ecircumflex" unicode="&#xea;" horiz-adv-x="1193" 
d="M631 -25q-104 0 -197.5 38.5t-163 107.5t-110.5 171.5t-41 223.5v4q0 150 63.5 273t176.5 193.5t253 70.5q113 0 204.5 -45.5t149 -122.5t88.5 -173.5t31 -201.5v-22h-895q5 -136 68 -241.5t161.5 -159.5t213.5 -54t210 52t161 138l49 -39q-166 -213 -422 -213zM190 551
h824q-4 85 -32 163.5t-77.5 142t-126.5 101t-170 37.5q-176 0 -293 -126t-125 -318zM375 1219l211 237h49l211 -237h-60l-176 161l-176 -161h-59z" />
    <glyph glyph-name="edieresis" unicode="&#xeb;" horiz-adv-x="1193" 
d="M631 -25q-104 0 -197.5 38.5t-163 107.5t-110.5 171.5t-41 223.5v4q0 150 63.5 273t176.5 193.5t253 70.5q113 0 204.5 -45.5t149 -122.5t88.5 -173.5t31 -201.5v-22h-895q5 -136 68 -241.5t161.5 -159.5t213.5 -54t210 52t161 138l49 -39q-166 -213 -422 -213zM190 551
h824q-4 85 -32 163.5t-77.5 142t-126.5 101t-170 37.5q-176 0 -293 -126t-125 -318zM707 1241v127h100v-127h-100zM414 1241v127h100v-127h-100z" />
    <glyph glyph-name="igrave" unicode="&#xec;" horiz-adv-x="473" 
d="M203 0v1032h67v-1032h-67zM238 1219l-207 208l80 39l178 -247h-51z" />
    <glyph glyph-name="iacute" unicode="&#xed;" horiz-adv-x="473" 
d="M184 1219l178 247l80 -39l-206 -208h-52zM203 0v1032h67v-1032h-67z" />
    <glyph glyph-name="icircumflex" unicode="&#xee;" horiz-adv-x="473" 
d="M0 1219l211 237h49l211 -237h-59l-176 161l-177 -161h-59zM203 0v1032h67v-1032h-67z" />
    <glyph glyph-name="idieresis" unicode="&#xef;" horiz-adv-x="473" 
d="M332 1241v127h100v-127h-100zM39 1241v127h100v-127h-100zM203 0v1032h67v-1032h-67z" />
    <glyph glyph-name="eth" unicode="&#xf0;" horiz-adv-x="1298" 
d="M946 1450l-192 -113q194 -171 310 -370.5t116 -405.5v-4q0 -253 -150.5 -417.5t-382.5 -164.5q-111 0 -209.5 41.5t-168.5 113t-111 171.5t-41 213v4q0 148 70.5 270t190 190.5t259.5 68.5q244 0 412 -187q-99 220 -353 445l-223 -129l-33 49l209 121q-110 89 -198 149
h106q17 -13 48 -36t55.5 -42t46.5 -37l206 121zM651 37q195 0 326 142t131 347v4q0 196 -132.5 325.5t-334.5 129.5q-128 0 -232.5 -63t-162.5 -170t-58 -236v-4q0 -201 133.5 -338t329.5 -137z" />
    <glyph glyph-name="ntilde" unicode="&#xf1;" horiz-adv-x="1249" 
d="M190 0v1032h66v-246q20 49 52 94t79.5 86.5t116.5 66t149 24.5q199 0 312.5 -124.5t113.5 -328.5v-604h-65v594q0 184 -96 292.5t-273 108.5q-164 0 -276.5 -118.5t-112.5 -294.5v-582h-66zM395 1219l-45 10q22 94 61.5 135t96.5 41q41 0 135.5 -53.5t128.5 -53.5
q38 0 63 26.5t48 92.5l45 -10q-22 -94 -61.5 -134t-96.5 -40q-44 0 -137.5 52t-126.5 52q-38 0 -63 -25.5t-48 -92.5z" />
    <glyph glyph-name="ograve" unicode="&#xf2;" horiz-adv-x="1302" 
d="M651 -25q-154 0 -277.5 74t-190 196.5t-66.5 266.5v4q0 145 66.5 268t190.5 198t279 75q153 0 276.5 -74t190 -196.5t66.5 -266.5v-4q0 -144 -66.5 -267.5t-190.5 -198.5t-278 -75zM653 37q133 0 239.5 65t165 174t58.5 238v4q0 129 -59.5 238t-167.5 174t-240 65
q-200 0 -330.5 -139t-130.5 -338v-4q0 -129 59.5 -238t167 -174t238.5 -65zM702 1219l-206 208l79 39l179 -247h-52z" />
    <glyph glyph-name="oacute" unicode="&#xf3;" horiz-adv-x="1302" 
d="M567 1219l178 247l80 -39l-207 -208h-51zM651 -25q-154 0 -277.5 74t-190 196.5t-66.5 266.5v4q0 145 66.5 268t190.5 198t279 75q153 0 276.5 -74t190 -196.5t66.5 -266.5v-4q0 -144 -66.5 -267.5t-190.5 -198.5t-278 -75zM653 37q133 0 239.5 65t165 174t58.5 238v4
q0 129 -59.5 238t-167.5 174t-240 65q-200 0 -330.5 -139t-130.5 -338v-4q0 -129 59.5 -238t167 -174t238.5 -65z" />
    <glyph glyph-name="ocircumflex" unicode="&#xf4;" horiz-adv-x="1302" 
d="M416 1219l211 237h49l211 -237h-60l-176 161l-176 -161h-59zM651 -25q-154 0 -277.5 74t-190 196.5t-66.5 266.5v4q0 145 66.5 268t190.5 198t279 75q153 0 276.5 -74t190 -196.5t66.5 -266.5v-4q0 -144 -66.5 -267.5t-190.5 -198.5t-278 -75zM653 37q133 0 239.5 65
t165 174t58.5 238v4q0 129 -59.5 238t-167.5 174t-240 65q-200 0 -330.5 -139t-130.5 -338v-4q0 -129 59.5 -238t167 -174t238.5 -65z" />
    <glyph glyph-name="otilde" unicode="&#xf5;" horiz-adv-x="1302" 
d="M651 -25q-154 0 -277.5 74t-190 196.5t-66.5 266.5v4q0 145 66.5 268t190.5 198t279 75q153 0 276.5 -74t190 -196.5t66.5 -266.5v-4q0 -144 -66.5 -267.5t-190.5 -198.5t-278 -75zM653 37q133 0 239.5 65t165 174t58.5 238v4q0 129 -59.5 238t-167.5 174t-240 65
q-200 0 -330.5 -139t-130.5 -338v-4q0 -129 59.5 -238t167 -174t238.5 -65zM412 1219l-45 10q22 94 61 135t96 41q41 0 135.5 -53.5t128.5 -53.5q38 0 63 26.5t48 92.5l45 -10q-22 -94 -61.5 -134t-96.5 -40q-44 0 -137.5 52t-126.5 52q-38 0 -62.5 -25.5t-47.5 -92.5z" />
    <glyph glyph-name="odieresis" unicode="&#xf6;" horiz-adv-x="1302" 
d="M748 1241v127h100v-127h-100zM455 1241v127h100v-127h-100zM651 -25q-154 0 -277.5 74t-190 196.5t-66.5 266.5v4q0 145 66.5 268t190.5 198t279 75q153 0 276.5 -74t190 -196.5t66.5 -266.5v-4q0 -144 -66.5 -267.5t-190.5 -198.5t-278 -75zM653 37q133 0 239.5 65
t165 174t58.5 238v4q0 129 -59.5 238t-167.5 174t-240 65q-200 0 -330.5 -139t-130.5 -338v-4q0 -129 59.5 -238t167 -174t238.5 -65z" />
    <glyph glyph-name="divide" unicode="&#xf7;" horiz-adv-x="1245" 
d="M567 1069v137h111v-137h-111zM1102 690h-959v62h959v-62zM567 236v137h111v-137h-111z" />
    <glyph glyph-name="oslash" unicode="&#xf8;" horiz-adv-x="1302" 
d="M651 -25q-207 0 -352 129l-111 -114h-77l147 153q-67 73 -104 169.5t-37 199.5v4q0 145 66.5 268t190.5 198t279 75q206 0 353 -131l124 133h78l-164 -170q142 -155 142 -369v-4q0 -144 -66.5 -267.5t-190.5 -198.5t-278 -75zM305 193l656 684q-128 118 -312 118
q-200 0 -330.5 -139t-130.5 -338v-4q0 -182 117 -321zM653 37q133 0 239.5 65t165 174t58.5 238v4q0 185 -119 320l-655 -684q133 -117 311 -117z" />
    <glyph glyph-name="ugrave" unicode="&#xf9;" horiz-adv-x="1249" 
d="M596 -25q-199 0 -312.5 124.5t-113.5 328.5v604h66v-594q0 -184 96 -292.5t272 -108.5q164 0 276.5 119t112.5 295v581h66v-1032h-66v246q-20 -50 -52.5 -95t-80.5 -86t-116.5 -65.5t-147.5 -24.5zM645 1212l-207 209l80 39l178 -248h-51z" />
    <glyph glyph-name="uacute" unicode="&#xfa;" horiz-adv-x="1249" 
d="M532 1212l179 248l80 -39l-207 -209h-52zM596 -25q-199 0 -312.5 124.5t-113.5 328.5v604h66v-594q0 -184 96 -292.5t272 -108.5q164 0 276.5 119t112.5 295v581h66v-1032h-66v246q-20 -50 -52.5 -95t-80.5 -86t-116.5 -65.5t-147.5 -24.5z" />
    <glyph glyph-name="ucircumflex" unicode="&#xfb;" horiz-adv-x="1249" 
d="M377 1212l211 238h49l211 -238h-60l-176 162l-176 -162h-59zM596 -25q-199 0 -312.5 124.5t-113.5 328.5v604h66v-594q0 -184 96 -292.5t272 -108.5q164 0 276.5 119t112.5 295v581h66v-1032h-66v246q-20 -50 -52.5 -95t-80.5 -86t-116.5 -65.5t-147.5 -24.5z" />
    <glyph glyph-name="udieresis" unicode="&#xfc;" horiz-adv-x="1249" 
d="M709 1235v127h100v-127h-100zM416 1235v127h100v-127h-100zM596 -25q-199 0 -312.5 124.5t-113.5 328.5v604h66v-594q0 -184 96 -292.5t272 -108.5q164 0 276.5 119t112.5 295v581h66v-1032h-66v246q-20 -50 -52.5 -95t-80.5 -86t-116.5 -65.5t-147.5 -24.5z" />
    <glyph glyph-name="yacute" unicode="&#xfd;" horiz-adv-x="1181" 
d="M297 -334q-109 0 -199 51l27 56q82 -45 174 -45q89 0 149 57t132 217l-496 1030h74l454 -960l416 960h70l-465 -1059q-79 -178 -153 -242.5t-183 -64.5zM508 1212l178 248l80 -39l-207 -209h-51z" />
    <glyph glyph-name="thorn" unicode="&#xfe;" horiz-adv-x="1345" 
d="M190 -328v1823h66v-747q57 137 176.5 223t280.5 86q104 0 197.5 -40.5t162.5 -110.5t109.5 -171t40.5 -217v-4q0 -115 -40.5 -216t-109.5 -171.5t-162.5 -111t-197.5 -40.5q-163 0 -281 85.5t-176 220.5v-609h-66zM707 39q196 0 321 133t125 340v4q0 204 -127 340.5
t-319 136.5q-126 0 -230.5 -63t-164.5 -172t-60 -240v-4q0 -199 133 -337t322 -138z" />
    <glyph glyph-name="ydieresis" unicode="&#xff;" horiz-adv-x="1181" 
d="M297 -334q-109 0 -199 51l27 56q82 -45 174 -45q89 0 149 57t132 217l-496 1030h74l454 -960l416 960h70l-465 -1059q-79 -178 -153 -242.5t-183 -64.5zM690 1235v127h101v-127h-101zM397 1235v127h101v-127h-101z" />
    <glyph glyph-name="Amacron" unicode="&#x100;" 
d="M82 0l680 1444h65l680 -1444h-75l-195 418h-887l-196 -418h-72zM381 481h825l-413 881zM498 1634v66h589v-66h-589z" />
    <glyph glyph-name="amacron" unicode="&#x101;" horiz-adv-x="1165" 
d="M496 -25q-76 0 -145.5 20.5t-125 58.5t-88.5 99.5t-33 137.5v4q0 157 127 244.5t330 87.5q193 0 369 -58v70q0 174 -96 261t-273 87q-161 0 -336 -86l-24 57q190 91 364 91q215 0 328 -113q102 -105 102 -293v-643h-65v215q-46 -97 -158.5 -168.5t-275.5 -71.5zM500 37
q185 0 308.5 101t123.5 243v127q-173 57 -373 57q-174 0 -279.5 -70t-105.5 -196v-4q0 -122 94.5 -190t231.5 -68zM303 1272v61h561v-61h-561z" />
    <glyph glyph-name="Abreve" unicode="&#x102;" 
d="M82 0l680 1444h65l680 -1444h-75l-195 418h-887l-196 -418h-72zM381 481h825l-413 881zM793 1579q-114 0 -183 58.5t-80 154.5h52q19 -66 72 -109t139 -43q87 0 139.5 42.5t71.5 109.5h51q-11 -96 -79.5 -154.5t-182.5 -58.5z" />
    <glyph glyph-name="abreve" unicode="&#x103;" horiz-adv-x="1165" 
d="M496 -25q-76 0 -145.5 20.5t-125 58.5t-88.5 99.5t-33 137.5v4q0 157 127 244.5t330 87.5q193 0 369 -58v70q0 174 -96 261t-273 87q-161 0 -336 -86l-24 57q190 91 364 91q215 0 328 -113q102 -105 102 -293v-643h-65v215q-46 -97 -158.5 -168.5t-275.5 -71.5zM500 37
q185 0 308.5 101t123.5 243v127q-173 57 -373 57q-174 0 -279.5 -70t-105.5 -196v-4q0 -122 94.5 -190t231.5 -68zM674 1217q-114 0 -182.5 58.5t-79.5 154.5h51q19 -66 72 -109t139 -43q87 0 139.5 42.5t71.5 109.5h51q-11 -96 -79.5 -154.5t-182.5 -58.5z" />
    <glyph glyph-name="Aogonek" unicode="&#x104;" 
d="M1536 -281v-49q-109 1 -174.5 44.5t-65.5 111.5q0 96 129 186l-188 406h-887l-196 -418h-72l680 1444h65l680 -1444h-24q-117 -82 -117 -166q0 -103 170 -115zM381 481h825l-413 881z" />
    <glyph glyph-name="aogonek" unicode="&#x105;" horiz-adv-x="1165" 
d="M1038 -281v-49q-109 1 -174 44.5t-65 111.5q0 99 131 188v201q-46 -97 -158.5 -168.5t-275.5 -71.5q-76 0 -145.5 20.5t-125 58.5t-88.5 99.5t-33 137.5v4q0 157 127 244.5t330 87.5q193 0 369 -58v70q0 174 -96 261t-273 87q-161 0 -336 -86l-24 57q190 91 364 91
q215 0 328 -113q102 -105 102 -293v-643h-10q-117 -82 -117 -166q0 -103 170 -115zM500 37q185 0 308.5 101t123.5 243v127q-173 57 -373 57q-174 0 -279.5 -70t-105.5 -196v-4q0 -122 94.5 -190t231.5 -68z" />
    <glyph glyph-name="Cacute" unicode="&#x106;" horiz-adv-x="1497" 
d="M854 -25q-148 0 -279.5 58.5t-224 157.5t-146.5 235t-54 287v4q0 199 90.5 368.5t254 271t363.5 101.5q97 0 178 -16.5t147.5 -49.5t117 -70t108.5 -91l-49 -51q-50 48 -97 83t-108.5 67t-136.5 48.5t-162 16.5q-179 0 -325 -91.5t-228 -246t-82 -338.5v-4
q0 -183 83 -338.5t230 -246.5t324 -91q157 0 280 60.5t230 168.5l49 -47q-246 -246 -563 -246zM813 1581l199 219l75 -39l-215 -180h-59z" />
    <glyph glyph-name="cacute" unicode="&#x107;" horiz-adv-x="1157" 
d="M612 1219l179 247l79 -39l-206 -208h-52zM645 -25q-145 0 -266 73.5t-190.5 197t-69.5 268.5v4q0 144 69 267.5t191 197.5t268 74q132 0 230 -51t182 -140l-47 -47q-165 176 -367 176q-193 0 -325 -139t-132 -336v-4q0 -197 135 -338t326 -141q205 0 371 184l47 -41
q-83 -97 -184 -151t-238 -54z" />
    <glyph glyph-name="Cdotaccent" unicode="&#x10a;" horiz-adv-x="1497" 
d="M793 1604v125h110v-125h-110zM854 -25q-148 0 -279.5 58.5t-224 157.5t-146.5 235t-54 287v4q0 199 90.5 368.5t254 271t363.5 101.5q97 0 178 -16.5t147.5 -49.5t117 -70t108.5 -91l-49 -51q-50 48 -97 83t-108.5 67t-136.5 48.5t-162 16.5q-179 0 -325 -91.5t-228 -246
t-82 -338.5v-4q0 -183 83 -338.5t230 -246.5t324 -91q157 0 280 60.5t230 168.5l49 -47q-246 -246 -563 -246z" />
    <glyph glyph-name="cdotaccent" unicode="&#x10b;" horiz-adv-x="1157" 
d="M645 -25q-145 0 -266 73.5t-190.5 197t-69.5 268.5v4q0 144 69 267.5t191 197.5t268 74q132 0 230 -51t182 -140l-47 -47q-165 176 -367 176q-193 0 -325 -139t-132 -336v-4q0 -197 135 -338t326 -141q205 0 371 184l47 -41q-83 -97 -184 -151t-238 -54zM592 1241v129
h102v-129h-102z" />
    <glyph glyph-name="Ccaron" unicode="&#x10c;" horiz-adv-x="1497" 
d="M854 -25q-148 0 -279.5 58.5t-224 157.5t-146.5 235t-54 287v4q0 199 90.5 368.5t254 271t363.5 101.5q97 0 178 -16.5t147.5 -49.5t117 -70t108.5 -91l-49 -51q-50 48 -97 83t-108.5 67t-136.5 48.5t-162 16.5q-179 0 -325 -91.5t-228 -246t-82 -338.5v-4
q0 -183 83 -338.5t230 -246.5t324 -91q157 0 280 60.5t230 168.5l49 -47q-246 -246 -563 -246zM1092 1788l-213 -207h-62l-213 207h70l174 -141l176 141h68z" />
    <glyph glyph-name="ccaron" unicode="&#x10d;" horiz-adv-x="1157" 
d="M879 1456l-211 -237h-50l-210 237h59l176 -162l176 162h60zM645 -25q-145 0 -266 73.5t-190.5 197t-69.5 268.5v4q0 144 69 267.5t191 197.5t268 74q132 0 230 -51t182 -140l-47 -47q-165 176 -367 176q-193 0 -325 -139t-132 -336v-4q0 -197 135 -338t326 -141
q205 0 371 184l47 -41q-83 -97 -184 -151t-238 -54z" />
    <glyph glyph-name="Dcaron" unicode="&#x10e;" horiz-adv-x="1591" 
d="M993 1774l-213 -207h-61l-213 207h69l175 -142l176 142h67zM213 0v1434h467q166 0 309 -55.5t242 -151.5t155 -227.5t56 -280.5v-4q0 -149 -56 -280.5t-155 -227.5t-242 -151.5t-309 -55.5h-467zM283 63h399q151 0 280.5 51t218.5 138.5t139 206.5t50 254v4
q0 135 -50 254.5t-139 207.5t-219 139.5t-282 51.5h-397v-1307z" />
    <glyph glyph-name="dcaron" unicode="&#x10f;" horiz-adv-x="1345" 
d="M1284 1190l35 305h82v-4l-78 -301h-39zM633 -25q-104 0 -197.5 40.5t-162.5 110.5t-109.5 171t-40.5 217v4q0 115 40.5 216t109.5 171.5t162.5 111t197.5 40.5q163 0 281 -85t176 -220v743h65v-1495h-65v285q-55 -136 -176 -223t-281 -87zM639 39q189 0 322 138t133 337
v4q0 199 -133 337t-322 138q-196 0 -321 -133t-125 -340v-4q0 -204 127 -340.5t319 -136.5z" />
    <glyph glyph-name="Dcroat" unicode="&#x110;" horiz-adv-x="1652" 
d="M274 0v688h-153v66h153v680h467q166 0 309 -55.5t242 -151.5t155 -227.5t56 -280.5v-4q0 -149 -56 -280.5t-155 -227.5t-242 -151.5t-309 -55.5h-467zM344 63h399q201 0 359.5 87t244 235t85.5 328v4q0 135 -50.5 254.5t-139.5 207.5t-219 139.5t-282 51.5h-397v-616h500
v-66h-500v-625z" />
    <glyph glyph-name="dcroat" unicode="&#x111;" horiz-adv-x="1345" 
d="M711 1266v59h379v170h65v-170h143v-59h-143v-1266h-65v285q-55 -136 -176 -223t-281 -87q-104 0 -197.5 40.5t-162.5 110.5t-109.5 171t-40.5 217v4q0 115 40.5 216t109.5 171.5t162.5 111t197.5 40.5q163 0 281 -85t176 -220v514h-379zM639 39q189 0 322 138t133 337v4
q0 199 -133 337t-322 138q-196 0 -321 -133t-125 -340v-4q0 -204 127 -340.5t319 -136.5z" />
    <glyph glyph-name="Emacron" unicode="&#x112;" horiz-adv-x="1361" 
d="M426 1620v66h590v-66h-590zM213 0v1434h1010v-64h-940v-616h850v-64h-850v-627h950v-63h-1020z" />
    <glyph glyph-name="emacron" unicode="&#x113;" horiz-adv-x="1193" 
d="M631 -25q-104 0 -197.5 38.5t-163 107.5t-110.5 171.5t-41 223.5v4q0 150 63.5 273t176.5 193.5t253 70.5q113 0 204.5 -45.5t149 -122.5t88.5 -173.5t31 -201.5v-22h-895q5 -136 68 -241.5t161.5 -159.5t213.5 -54t210 52t161 138l49 -39q-166 -213 -422 -213zM190 551
h824q-4 85 -32 163.5t-77.5 142t-126.5 101t-170 37.5q-176 0 -293 -126t-125 -318zM330 1272v61h561v-61h-561z" />
    <glyph glyph-name="Ebreve" unicode="&#x114;" horiz-adv-x="1361" 
d="M721 1565q-114 0 -183 50t-81 134h57q41 -121 207 -121q168 0 207 121h57q-12 -84 -81 -134t-183 -50zM213 0v1434h1010v-64h-940v-616h850v-64h-850v-627h950v-63h-1020z" />
    <glyph glyph-name="ebreve" unicode="&#x115;" horiz-adv-x="1193" 
d="M631 -25q-104 0 -197.5 38.5t-163 107.5t-110.5 171.5t-41 223.5v4q0 150 63.5 273t176.5 193.5t253 70.5q113 0 204.5 -45.5t149 -122.5t88.5 -173.5t31 -201.5v-22h-895q5 -136 68 -241.5t161.5 -159.5t213.5 -54t210 52t161 138l49 -39q-166 -213 -422 -213zM190 551
h824q-4 85 -32 163.5t-77.5 142t-126.5 101t-170 37.5q-176 0 -293 -126t-125 -318zM610 1217q-114 0 -182.5 58.5t-79.5 154.5h51q19 -66 72 -109t139 -43q87 0 139.5 42.5t71.5 109.5h51q-11 -96 -79.5 -154.5t-182.5 -58.5z" />
    <glyph glyph-name="Edotaccent" unicode="&#x116;" horiz-adv-x="1361" 
d="M666 1589v125h110v-125h-110zM213 0v1434h1010v-64h-940v-616h850v-64h-850v-627h950v-63h-1020z" />
    <glyph glyph-name="edotaccent" unicode="&#x117;" horiz-adv-x="1193" 
d="M631 -25q-104 0 -197.5 38.5t-163 107.5t-110.5 171.5t-41 223.5v4q0 150 63.5 273t176.5 193.5t253 70.5q113 0 204.5 -45.5t149 -122.5t88.5 -173.5t31 -201.5v-22h-895q5 -136 68 -241.5t161.5 -159.5t213.5 -54t210 52t161 138l49 -39q-166 -213 -422 -213zM190 551
h824q-4 85 -32 163.5t-77.5 142t-126.5 101t-170 37.5q-176 0 -293 -126t-125 -318zM559 1241v129h103v-129h-103z" />
    <glyph glyph-name="Eogonek" unicode="&#x118;" horiz-adv-x="1361" 
d="M213 0v1434h1010v-64h-940v-616h850v-64h-850v-627h950v-63h-57q-117 -82 -117 -166q0 -103 170 -115v-49q-109 1 -174.5 44.5t-65.5 111.5q0 89 111 174h-887z" />
    <glyph glyph-name="eogonek" unicode="&#x119;" horiz-adv-x="1193" 
d="M190 551h824q-4 85 -32 163.5t-77.5 142t-126.5 101t-170 37.5q-176 0 -293 -126t-125 -318zM903 45q-79 -65 -110 -111t-31 -94q0 -106 170 -121v-49q-109 1 -173.5 44.5t-64.5 113.5q0 47 21.5 85.5t72.5 86.5q-86 -25 -157 -25q-104 0 -197.5 38.5t-163 107.5
t-110.5 171.5t-41 223.5v4q0 150 63.5 273t176.5 193.5t253 70.5q113 0 204.5 -45.5t149 -122.5t88.5 -173.5t31 -201.5v-22h-895q5 -136 68 -241.5t161.5 -159.5t213.5 -54t210 52t161 138l49 -39q-27 -36 -56.5 -64t-93.5 -79z" />
    <glyph glyph-name="Ecaron" unicode="&#x11a;" horiz-adv-x="1361" 
d="M965 1774l-213 -207h-62l-213 207h70l174 -142l176 142h68zM213 0v1434h1010v-64h-940v-616h850v-64h-850v-627h950v-63h-1020z" />
    <glyph glyph-name="ecaron" unicode="&#x11b;" horiz-adv-x="1193" 
d="M631 -25q-104 0 -197.5 38.5t-163 107.5t-110.5 171.5t-41 223.5v4q0 150 63.5 273t176.5 193.5t253 70.5q113 0 204.5 -45.5t149 -122.5t88.5 -173.5t31 -201.5v-22h-895q5 -136 68 -241.5t161.5 -159.5t213.5 -54t210 52t161 138l49 -39q-166 -213 -422 -213zM190 551
h824q-4 85 -32 163.5t-77.5 142t-126.5 101t-170 37.5q-176 0 -293 -126t-125 -318zM846 1456l-211 -237h-49l-211 237h59l176 -162l176 162h60z" />
    <glyph glyph-name="Gbreve" unicode="&#x11e;" horiz-adv-x="1599" 
d="M840 1579q-114 0 -183.5 50t-81.5 134h58q41 -121 207 -121q168 0 207 121h57q-12 -84 -81 -134t-183 -50zM862 -25q-165 0 -301 59t-225 160t-137.5 234.5t-48.5 284.5v4q0 115 31.5 224.5t93.5 202.5t146.5 163.5t197.5 110.5t239 40q161 0 279 -45.5t229 -140.5
l-45 -53q-104 87 -211.5 131.5t-255.5 44.5q-140 0 -260 -56t-201 -150t-126.5 -216t-45.5 -254v-4q0 -139 44.5 -262t126 -215.5t203.5 -146.5t269 -54q141 0 268.5 52t221.5 132v441h-510v67h577v-534q-107 -99 -251 -159.5t-308 -60.5z" />
    <glyph glyph-name="gbreve" unicode="&#x11f;" horiz-adv-x="1335" 
d="M641 -334q-258 0 -471 160l39 53q195 -149 432 -149q200 0 318 112t118 324v186q-63 -124 -180.5 -200t-269.5 -76q-133 0 -248.5 62.5t-185.5 175.5t-70 249v4q0 137 70 250.5t185.5 176.5t248.5 63q153 0 269 -75t181 -198v248h68v-874q0 -224 -133 -357
q-135 -135 -371 -135zM633 139q119 0 222.5 55.5t165.5 153.5t62 215v4q0 117 -62 215.5t-165.5 154.5t-222.5 56q-182 0 -310 -121.5t-128 -302.5v-4q0 -179 128.5 -302.5t309.5 -123.5zM676 1217q-114 0 -182.5 58.5t-79.5 154.5h51q19 -66 72 -109t139 -43
q87 0 139.5 42.5t71.5 109.5h51q-11 -96 -79.5 -154.5t-182.5 -58.5z" />
    <glyph glyph-name="Gdotaccent" unicode="&#x120;" horiz-adv-x="1599" 
d="M784 1604v125h111v-125h-111zM862 -25q-165 0 -301 59t-225 160t-137.5 234.5t-48.5 284.5v4q0 115 31.5 224.5t93.5 202.5t146.5 163.5t197.5 110.5t239 40q161 0 279 -45.5t229 -140.5l-45 -53q-104 87 -211.5 131.5t-255.5 44.5q-140 0 -260 -56t-201 -150
t-126.5 -216t-45.5 -254v-4q0 -139 44.5 -262t126 -215.5t203.5 -146.5t269 -54q141 0 268.5 52t221.5 132v441h-510v67h577v-534q-107 -99 -251 -159.5t-308 -60.5z" />
    <glyph glyph-name="gdotaccent" unicode="&#x121;" horiz-adv-x="1335" 
d="M641 -334q-258 0 -471 160l39 53q195 -149 432 -149q200 0 318 112t118 324v186q-63 -124 -180.5 -200t-269.5 -76q-133 0 -248.5 62.5t-185.5 175.5t-70 249v4q0 137 70 250.5t185.5 176.5t248.5 63q153 0 269 -75t181 -198v248h68v-874q0 -224 -133 -357
q-135 -135 -371 -135zM633 139q119 0 222.5 55.5t165.5 153.5t62 215v4q0 117 -62 215.5t-165.5 154.5t-222.5 56q-182 0 -310 -121.5t-128 -302.5v-4q0 -179 128.5 -302.5t309.5 -123.5zM625 1241v129h102v-129h-102z" />
    <glyph glyph-name="Gcommaaccent" unicode="&#x122;" horiz-adv-x="1599" 
d="M770 -414l-14 35q41 14 59.5 38t18.5 67h-48v116h103v-75q0 -84 -27.5 -123.5t-91.5 -57.5zM862 -25q-165 0 -301 59t-225 160t-137.5 234.5t-48.5 284.5v4q0 115 31.5 224.5t93.5 202.5t146.5 163.5t197.5 110.5t239 40q161 0 279 -45.5t229 -140.5l-45 -53
q-104 87 -211.5 131.5t-255.5 44.5q-140 0 -260 -56t-201 -150t-126.5 -216t-45.5 -254v-4q0 -139 44.5 -262t126 -215.5t203.5 -146.5t269 -54q141 0 268.5 52t221.5 132v441h-510v67h577v-534q-107 -99 -251 -159.5t-308 -60.5z" />
    <glyph glyph-name="gcommaaccent" unicode="&#x123;" horiz-adv-x="1335" 
d="M743 1495l15 -35q-42 -14 -60 -38t-18 -66h47v-117h-102v76q0 84 27 123t91 57zM641 -334q-258 0 -471 160l39 53q195 -149 432 -149q200 0 318 112t118 324v186q-63 -124 -180.5 -200t-269.5 -76q-133 0 -248.5 62.5t-185.5 175.5t-70 249v4q0 137 70 250.5t185.5 176.5
t248.5 63q153 0 269 -75t181 -198v248h68v-874q0 -224 -133 -357q-135 -135 -371 -135zM633 139q119 0 222.5 55.5t165.5 153.5t62 215v4q0 117 -62 215.5t-165.5 154.5t-222.5 56q-182 0 -310 -121.5t-128 -302.5v-4q0 -179 128.5 -302.5t309.5 -123.5z" />
    <glyph glyph-name="Hbar" unicode="&#x126;" horiz-adv-x="1595" 
d="M84 1067v59h154v308h69v-308h981v308h70v-308h153v-59h-153v-1067h-70v686h-981v-686h-69v1067h-154zM307 750h981v317h-981v-317z" />
    <glyph glyph-name="hbar" unicode="&#x127;" horiz-adv-x="1249" 
d="M635 1266h-379v-480q20 49 52 94t79.5 86.5t116.5 66t149 24.5q199 0 312.5 -124.5t113.5 -328.5v-604h-65v594q0 184 -96 292.5t-273 108.5q-164 0 -276.5 -118.5t-112.5 -294.5v-582h-66v1266h-143v59h143v170h66v-170h379v-59z" />
    <glyph glyph-name="Itilde" unicode="&#x128;" horiz-adv-x="524" 
d="M25 1565l-45 10q22 94 61 135t96 41q41 0 135.5 -53t128.5 -53q38 0 63 26t48 92l45 -10q-22 -94 -61.5 -134t-96.5 -40q-44 0 -137.5 52t-126.5 52q-38 0 -62.5 -25.5t-47.5 -92.5zM227 0v1434h70v-1434h-70z" />
    <glyph glyph-name="itilde" unicode="&#x129;" horiz-adv-x="473" 
d="M203 0v1032h67v-1032h-67zM-8 1219l-45 10q22 94 61 135t96 41q41 0 136 -53.5t129 -53.5q37 0 62 26.5t48 92.5l45 -10q-22 -94 -61 -134t-96 -40q-44 0 -138 52t-127 52q-38 0 -62.5 -25.5t-47.5 -92.5z" />
    <glyph glyph-name="Imacron" unicode="&#x12a;" horiz-adv-x="524" 
d="M227 0v1434h70v-1434h-70zM-33 1620v66h590v-66h-590z" />
    <glyph glyph-name="imacron" unicode="&#x12b;" horiz-adv-x="473" 
d="M203 0v1032h67v-1032h-67zM-45 1272v61h561v-61h-561z" />
    <glyph glyph-name="Ibreve" unicode="&#x12c;" horiz-adv-x="524" 
d="M227 0v1434h70v-1434h-70zM262 1565q-114 0 -183 50t-81 134h57q41 -121 207 -121q168 0 207 121h57q-12 -84 -81 -134t-183 -50z" />
    <glyph glyph-name="ibreve" unicode="&#x12d;" horiz-adv-x="473" 
d="M203 0v1032h67v-1032h-67zM236 1217q-114 0 -183 58.5t-80 154.5h52q19 -66 72 -109t139 -43q87 0 139 42.5t71 109.5h52q-11 -96 -79.5 -154.5t-182.5 -58.5z" />
    <glyph glyph-name="Iogonek" unicode="&#x12e;" horiz-adv-x="524" 
d="M344 -281v-49q-109 1 -174.5 44.5t-65.5 111.5q0 96 123 182v1426h70v-1434h-6q-117 -82 -117 -166q0 -103 170 -115z" />
    <glyph glyph-name="iogonek" unicode="&#x12f;" horiz-adv-x="473" 
d="M317 -281v-49q-109 1 -174 44.5t-65 111.5q0 52 31 95.5t94 88.5v1022h67v-1032h-6q-117 -82 -117 -166q0 -103 170 -115zM193 1317v125h88v-125h-88z" />
    <glyph glyph-name="Idotaccent" unicode="&#x130;" horiz-adv-x="524" 
d="M227 0v1434h70v-1434h-70zM207 1589v125h110v-125h-110z" />
    <glyph glyph-name="dotlessi" unicode="&#x131;" horiz-adv-x="473" 
d="M203 0v1032h67v-1032h-67z" />
    <glyph glyph-name="Kcommaaccent" unicode="&#x136;" horiz-adv-x="1452" 
d="M659 -397l-14 35q42 14 60 38t18 66h-47v117h102v-76q0 -84 -27.5 -123t-91.5 -57zM213 0v1434h70v-959l960 959h96l-624 -617l649 -817h-90l-608 770l-383 -379v-391h-70z" />
    <glyph glyph-name="kcommaaccent" unicode="&#x137;" horiz-adv-x="1126" 
d="M514 -401l-14 34q41 14 59.5 38t18.5 67h-48v117h103v-76q0 -84 -27.5 -123t-91.5 -57zM190 0v1495h66v-1130l686 667h88l-475 -457l500 -575h-82l-463 530l-254 -243v-287h-66z" />
    <glyph glyph-name="Lacute" unicode="&#x139;" horiz-adv-x="1224" 
d="M240 1567l198 219l76 -39l-215 -180h-59zM213 0v1434h70v-1371h864v-63h-934z" />
    <glyph glyph-name="lacute" unicode="&#x13a;" horiz-adv-x="473" 
d="M203 1599l198 220l76 -39l-215 -181h-59zM203 0v1495h67v-1495h-67z" />
    <glyph glyph-name="Lcommaaccent" unicode="&#x13b;" horiz-adv-x="1224" 
d="M600 -408l-14 35q41 14 59.5 38t18.5 67h-48v116h103v-75q0 -84 -27.5 -123.5t-91.5 -57.5zM213 0v1434h70v-1371h864v-63h-934z" />
    <glyph glyph-name="lcommaaccent" unicode="&#x13c;" horiz-adv-x="473" 
d="M166 -408l-14 35q41 13 59 37.5t18 67.5h-47v116h103v-75q0 -84 -27.5 -123.5t-91.5 -57.5zM203 0v1495h67v-1495h-67z" />
    <glyph glyph-name="Lcaron" unicode="&#x13d;" horiz-adv-x="1224" 
d="M520 1128l35 306h82v-4l-78 -302h-39zM213 0v1434h70v-1371h864v-63h-934z" />
    <glyph glyph-name="lcaron" unicode="&#x13e;" horiz-adv-x="473" 
d="M401 1190l35 305h82v-4l-78 -301h-39zM203 0v1495h67v-1495h-67z" />
    <glyph glyph-name="Ldot" unicode="&#x13f;" horiz-adv-x="1224" 
d="M856 664v135h100v-135h-100zM213 0v1434h70v-1371h864v-63h-934z" />
    <glyph glyph-name="ldot" unicode="&#x140;" horiz-adv-x="522" 
d="M449 680v137h100v-137h-100zM203 0v1495h67v-1495h-67z" />
    <glyph glyph-name="Lslash" unicode="&#x141;" horiz-adv-x="1282" 
d="M754 864l-414 -198v-603h864v-63h-934v631l-178 -84v71l178 84v732h70v-699l414 199v-70z" />
    <glyph glyph-name="lslash" unicode="&#x142;" horiz-adv-x="571" 
d="M479 827l-160 -90v-737h-67v698l-160 -88v72l160 88v725h67v-686l160 88v-70z" />
    <glyph glyph-name="Nacute" unicode="&#x143;" horiz-adv-x="1605" 
d="M778 1556l199 220l76 -39l-215 -181h-60zM213 0v1434h63l1049 -1315v1315h68v-1434h-56l-1056 1325v-1325h-68z" />
    <glyph glyph-name="nacute" unicode="&#x144;" horiz-adv-x="1249" 
d="M602 1219l178 247l80 -39l-207 -208h-51zM190 0v1032h66v-246q20 49 52 94t79.5 86.5t116.5 66t149 24.5q199 0 312.5 -124.5t113.5 -328.5v-604h-65v594q0 184 -96 292.5t-273 108.5q-164 0 -276.5 -118.5t-112.5 -294.5v-582h-66z" />
    <glyph glyph-name="Ncommaaccent" unicode="&#x145;" horiz-adv-x="1605" 
d="M741 -397l-14 35q42 14 60 38t18 66h-47v117h102v-76q0 -84 -27.5 -123t-91.5 -57zM213 0v1434h63l1049 -1315v1315h68v-1434h-56l-1056 1325v-1325h-68z" />
    <glyph glyph-name="ncommaaccent" unicode="&#x146;" horiz-adv-x="1249" 
d="M563 -401l-14 34q41 14 59.5 38t18.5 67h-47v117h102v-76q0 -84 -27.5 -123t-91.5 -57zM190 0v1032h66v-246q20 49 52 94t79.5 86.5t116.5 66t149 24.5q199 0 312.5 -124.5t113.5 -328.5v-604h-65v594q0 184 -96 292.5t-273 108.5q-164 0 -276.5 -118.5t-112.5 -294.5
v-582h-66z" />
    <glyph glyph-name="Ncaron" unicode="&#x147;" horiz-adv-x="1605" 
d="M1055 1763l-213 -207h-62l-213 207h70l174 -141l176 141h68zM213 0v1434h63l1049 -1315v1315h68v-1434h-56l-1056 1325v-1325h-68z" />
    <glyph glyph-name="ncaron" unicode="&#x148;" horiz-adv-x="1249" 
d="M868 1456l-211 -237h-49l-211 237h60l176 -162l176 162h59zM190 0v1032h66v-246q20 49 52 94t79.5 86.5t116.5 66t149 24.5q199 0 312.5 -124.5t113.5 -328.5v-604h-65v594q0 184 -96 292.5t-273 108.5q-164 0 -276.5 -118.5t-112.5 -294.5v-582h-66z" />
    <glyph glyph-name="Omacron" unicode="&#x14c;" horiz-adv-x="1730" 
d="M569 1634v66h590v-66h-590zM864 -25q-127 0 -240.5 39t-199 109t-148 162.5t-94.5 202.5t-32 227v4q0 146 51.5 280t143 236t227.5 162.5t294 60.5t294 -60.5t227 -162.5t142.5 -236t51.5 -280v-4q0 -146 -51.5 -280.5t-143.5 -236.5t-228 -162.5t-294 -60.5zM868 39
q139 0 260 54.5t204 146.5t130 215t47 258v4q0 134 -47.5 257.5t-130.5 216.5t-205 148.5t-262 55.5t-261.5 -54.5t-204.5 -146.5t-130 -215t-47 -258v-4q0 -134 48 -257.5t131.5 -216.5t205.5 -148.5t262 -55.5z" />
    <glyph glyph-name="omacron" unicode="&#x14d;" horiz-adv-x="1302" 
d="M371 1272v61h561v-61h-561zM651 -25q-154 0 -277.5 74t-190 196.5t-66.5 266.5v4q0 145 66.5 268t190.5 198t279 75q153 0 276.5 -74t190 -196.5t66.5 -266.5v-4q0 -144 -66.5 -267.5t-190.5 -198.5t-278 -75zM653 37q133 0 239.5 65t165 174t58.5 238v4q0 129 -59.5 238
t-167.5 174t-240 65q-200 0 -330.5 -139t-130.5 -338v-4q0 -129 59.5 -238t167 -174t238.5 -65z" />
    <glyph glyph-name="Obreve" unicode="&#x14e;" horiz-adv-x="1730" 
d="M864 1579q-114 0 -183 50t-81 134h57q41 -121 207 -121q168 0 207 121h57q-12 -84 -81 -134t-183 -50zM864 -25q-127 0 -240.5 39t-199 109t-148 162.5t-94.5 202.5t-32 227v4q0 146 51.5 280t143 236t227.5 162.5t294 60.5t294 -60.5t227 -162.5t142.5 -236t51.5 -280
v-4q0 -146 -51.5 -280.5t-143.5 -236.5t-228 -162.5t-294 -60.5zM868 39q139 0 260 54.5t204 146.5t130 215t47 258v4q0 134 -47.5 257.5t-130.5 216.5t-205 148.5t-262 55.5t-261.5 -54.5t-204.5 -146.5t-130 -215t-47 -258v-4q0 -134 48 -257.5t131.5 -216.5t205.5 -148.5
t262 -55.5z" />
    <glyph glyph-name="obreve" unicode="&#x14f;" horiz-adv-x="1302" 
d="M651 -25q-154 0 -277.5 74t-190 196.5t-66.5 266.5v4q0 145 66.5 268t190.5 198t279 75q153 0 276.5 -74t190 -196.5t66.5 -266.5v-4q0 -144 -66.5 -267.5t-190.5 -198.5t-278 -75zM653 37q133 0 239.5 65t165 174t58.5 238v4q0 129 -59.5 238t-167.5 174t-240 65
q-200 0 -330.5 -139t-130.5 -338v-4q0 -129 59.5 -238t167 -174t238.5 -65zM651 1217q-114 0 -182.5 58.5t-79.5 154.5h51q19 -66 72 -109t139 -43q87 0 139.5 42.5t71.5 109.5h51q-11 -96 -79.5 -154.5t-182.5 -58.5z" />
    <glyph glyph-name="Ohungarumlaut" unicode="&#x150;" horiz-adv-x="1730" 
d="M864 -25q-127 0 -240.5 39t-199 109t-148 162.5t-94.5 202.5t-32 227v4q0 146 51.5 280t143 236t227.5 162.5t294 60.5t294 -60.5t227 -162.5t142.5 -236t51.5 -280v-4q0 -146 -51.5 -280.5t-143.5 -236.5t-228 -162.5t-294 -60.5zM868 39q139 0 260 54.5t204 146.5
t130 215t47 258v4q0 134 -47.5 257.5t-130.5 216.5t-205 148.5t-262 55.5t-261.5 -54.5t-204.5 -146.5t-130 -215t-47 -258v-4q0 -134 48 -257.5t131.5 -216.5t205.5 -148.5t262 -55.5zM684 1581l199 219l75 -39l-215 -180h-59zM948 1581l197 219l78 -39l-217 -180h-58z" />
    <glyph glyph-name="ohungarumlaut" unicode="&#x151;" horiz-adv-x="1302" 
d="M723 1219l180 247l74 -36l-203 -211h-51zM487 1219l181 247l73 -36l-202 -211h-52zM651 -25q-154 0 -277.5 74t-190 196.5t-66.5 266.5v4q0 145 66.5 268t190.5 198t279 75q153 0 276.5 -74t190 -196.5t66.5 -266.5v-4q0 -144 -66.5 -267.5t-190.5 -198.5t-278 -75z
M653 37q133 0 239.5 65t165 174t58.5 238v4q0 129 -59.5 238t-167.5 174t-240 65q-200 0 -330.5 -139t-130.5 -338v-4q0 -129 59.5 -238t167 -174t238.5 -65z" />
    <glyph glyph-name="OE" unicode="&#x152;" horiz-adv-x="2375" 
d="M2247 0h-1336q-166 0 -308.5 55.5t-241.5 151.5t-155 227.5t-56 280.5v4q0 149 56 280.5t155 227.5t241.5 151.5t308.5 55.5h1325v-64h-909v-616h819v-64h-819v-627h920v-63zM913 63h344v1307h-348q-151 0 -280.5 -50.5t-218.5 -138t-139 -206.5t-50 -254v-4
q0 -135 50 -255t139.5 -208t219.5 -139.5t283 -51.5z" />
    <glyph glyph-name="oe" unicode="&#x153;" horiz-adv-x="2187" 
d="M649 -25q-152 0 -275 74t-190 196.5t-67 266.5v4q0 145 66.5 268t190 198t277.5 75q179 0 312.5 -99.5t183.5 -261.5q44 165 169 263t290 98q113 0 204.5 -45.5t149 -122.5t88.5 -173.5t31 -201.5v-22h-897q5 -135 67.5 -240.5t161 -160t213.5 -54.5q233 0 375 180
l47 -41q-161 -201 -424 -201q-167 0 -296.5 97t-178.5 268q-51 -163 -184 -264t-314 -101zM653 37q133 0 239.5 65t165 174t58.5 238v4q0 129 -59.5 238t-167.5 174t-240 65q-200 0 -330.5 -139t-130.5 -338v-4q0 -129 59.5 -238t167 -174t238.5 -65zM1182 551h825
q-4 85 -32 163.5t-77 142t-126 101t-170 37.5q-176 0 -292 -125.5t-128 -318.5z" />
    <glyph glyph-name="Racute" unicode="&#x154;" horiz-adv-x="1482" 
d="M213 0v1434h592q271 0 409 -138q105 -108 105 -266v-4q0 -175 -123.5 -281t-327.5 -124l478 -621h-89l-466 612h-508v-612h-70zM283 676h503q217 0 340 95.5t123 250.5v4q0 162 -117.5 253t-330.5 91h-518v-694zM680 1567l199 219l75 -39l-215 -180h-59z" />
    <glyph glyph-name="racute" unicode="&#x155;" horiz-adv-x="739" 
d="M190 0v1032h66v-315q48 142 165.5 241t272.5 95v-68h-10q-122 0 -221.5 -71t-153 -184.5t-53.5 -240.5v-489h-66zM373 1219l178 247l80 -39l-207 -208h-51z" />
    <glyph glyph-name="Rcommaaccent" unicode="&#x156;" horiz-adv-x="1482" 
d="M213 0v1434h592q271 0 409 -138q105 -108 105 -266v-4q0 -175 -123.5 -281t-327.5 -124l478 -621h-89l-466 612h-508v-612h-70zM283 676h503q217 0 340 95.5t123 250.5v4q0 162 -117.5 253t-330.5 91h-518v-694zM645 -397l-14 35q42 14 60 38t18 66h-47v117h102v-76
q0 -84 -27.5 -123t-91.5 -57z" />
    <glyph glyph-name="rcommaaccent" unicode="&#x157;" horiz-adv-x="739" 
d="M190 0v1032h66v-315q48 142 165.5 241t272.5 95v-68h-10q-122 0 -221.5 -71t-153 -184.5t-53.5 -240.5v-489h-66zM164 -408l-14 35q41 13 59 37.5t18 67.5h-47v116h103v-75q0 -84 -27.5 -123.5t-91.5 -57.5z" />
    <glyph glyph-name="Rcaron" unicode="&#x158;" horiz-adv-x="1482" 
d="M213 0v1434h592q271 0 409 -138q105 -108 105 -266v-4q0 -175 -123.5 -281t-327.5 -124l478 -621h-89l-466 612h-508v-612h-70zM283 676h503q217 0 340 95.5t123 250.5v4q0 162 -117.5 253t-330.5 91h-518v-694zM958 1774l-213 -207h-61l-213 207h70l174 -142l176 142h67
z" />
    <glyph glyph-name="rcaron" unicode="&#x159;" horiz-adv-x="739" 
d="M190 0v1032h66v-315q48 142 165.5 241t272.5 95v-68h-10q-122 0 -221.5 -71t-153 -184.5t-53.5 -240.5v-489h-66zM639 1456l-211 -237h-49l-211 237h59l176 -162l177 162h59z" />
    <glyph glyph-name="Sacute" unicode="&#x15a;" horiz-adv-x="1312" 
d="M692 -20q-321 0 -571 229l47 51q117 -110 244.5 -163.5t283.5 -53.5q184 0 297 89t113 226v4q0 87 -38 145t-135 103.5t-269 81.5q-265 54 -376.5 142.5t-111.5 244.5v4q0 156 132.5 263.5t332.5 107.5q270 0 487 -168l-43 -55q-201 160 -448 160q-173 0 -282 -89
t-109 -212v-5q0 -86 37.5 -143.5t135.5 -103.5t271 -82q264 -53 375 -143.5t111 -243.5v-4q0 -168 -133.5 -276.5t-350.5 -108.5zM641 1581l199 219l75 -39l-215 -180h-59z" />
    <glyph glyph-name="sacute" unicode="&#x15b;" horiz-adv-x="1009" 
d="M477 1219l178 247l80 -39l-207 -208h-51zM514 -18q-111 0 -222.5 40t-197.5 111l39 51q180 -141 385 -141q126 0 210.5 60.5t84.5 154.5v4q0 27 -6.5 50t-20.5 42t-29.5 34.5t-41 29t-46.5 23.5t-54 21t-56 17.5t-59 16.5q-73 21 -113.5 34t-94.5 38t-82 50.5t-48.5 66
t-20.5 91.5v4q0 117 98.5 194t254.5 77q193 0 362 -115l-37 -55q-147 108 -327 108q-127 0 -205 -57.5t-78 -145.5v-4q0 -27 9.5 -51t22.5 -41.5t39.5 -35t47 -28.5t59.5 -24.5t63.5 -21t71.5 -21.5q53 -14 92.5 -26.5t83.5 -30.5t74.5 -39.5t56.5 -49.5t39 -64.5t13 -80.5
v-4q0 -125 -105 -203.5t-262 -78.5z" />
    <glyph glyph-name="Scedilla" unicode="&#x15e;" horiz-adv-x="1312" 
d="M567 -295l-71 35l157 242q-297 11 -532 227l47 51q117 -110 244.5 -163.5t283.5 -53.5q184 0 297 89t113 226v4q0 87 -38 145t-135 103.5t-269 81.5q-265 54 -376.5 142.5t-111.5 244.5v4q0 156 132.5 263.5t332.5 107.5q270 0 487 -168l-43 -55q-201 160 -448 160
q-173 0 -282 -89t-109 -212v-5q0 -86 37.5 -143.5t135.5 -103.5t271 -82q264 -53 375 -143.5t111 -243.5v-4q0 -164 -127 -272.5t-338 -112.5z" />
    <glyph glyph-name="scedilla" unicode="&#x15f;" horiz-adv-x="1009" 
d="M385 -295l-72 35l160 244q-105 8 -203.5 46t-175.5 103l39 51q180 -141 385 -141q126 0 210.5 60.5t84.5 154.5v4q0 27 -6.5 50t-20.5 42t-29.5 34.5t-41 29t-46.5 23.5t-54 21t-56 17.5t-59 16.5q-73 21 -113.5 34t-94.5 38t-82 50.5t-48.5 66t-20.5 91.5v4
q0 117 98.5 194t254.5 77q193 0 362 -115l-37 -55q-147 108 -327 108q-127 0 -205 -57.5t-78 -145.5v-4q0 -27 9.5 -51t22.5 -41.5t39.5 -35t47 -28.5t59.5 -24.5t63.5 -21t71.5 -21.5q53 -14 92.5 -26.5t83.5 -30.5t74.5 -39.5t56.5 -49.5t39 -64.5t13 -80.5v-4
q0 -122 -99.5 -199.5t-253.5 -82.5z" />
    <glyph glyph-name="Scaron" unicode="&#x160;" horiz-adv-x="1312" 
d="M692 -20q-321 0 -571 229l47 51q117 -110 244.5 -163.5t283.5 -53.5q184 0 297 89t113 226v4q0 87 -38 145t-135 103.5t-269 81.5q-265 54 -376.5 142.5t-111.5 244.5v4q0 156 132.5 263.5t332.5 107.5q270 0 487 -168l-43 -55q-201 160 -448 160q-173 0 -282 -89
t-109 -212v-5q0 -86 37.5 -143.5t135.5 -103.5t271 -82q264 -53 375 -143.5t111 -243.5v-4q0 -168 -133.5 -276.5t-350.5 -108.5zM918 1788l-213 -207h-62l-213 207h70l174 -141l176 141h68z" />
    <glyph glyph-name="scaron" unicode="&#x161;" horiz-adv-x="1009" 
d="M745 1456l-210 -237h-50l-211 237h60l176 -162l176 162h59zM514 -18q-111 0 -222.5 40t-197.5 111l39 51q180 -141 385 -141q126 0 210.5 60.5t84.5 154.5v4q0 27 -6.5 50t-20.5 42t-29.5 34.5t-41 29t-46.5 23.5t-54 21t-56 17.5t-59 16.5q-73 21 -113.5 34t-94.5 38
t-82 50.5t-48.5 66t-20.5 91.5v4q0 117 98.5 194t254.5 77q193 0 362 -115l-37 -55q-147 108 -327 108q-127 0 -205 -57.5t-78 -145.5v-4q0 -27 9.5 -51t22.5 -41.5t39.5 -35t47 -28.5t59.5 -24.5t63.5 -21t71.5 -21.5q53 -14 92.5 -26.5t83.5 -30.5t74.5 -39.5t56.5 -49.5
t39 -64.5t13 -80.5v-4q0 -125 -105 -203.5t-262 -78.5z" />
    <glyph glyph-name="Tcommaaccent" unicode="&#x162;" horiz-adv-x="1245" 
d="M553 -408l-14 35q41 13 59 37.5t18 67.5h-47v116h103v-75q0 -84 -27.5 -123.5t-91.5 -57.5zM588 0v1370h-510v64h1091v-64h-512v-1370h-69z" />
    <glyph glyph-name="tcommaaccent" unicode="&#x163;" horiz-adv-x="786" 
d="M373 -414l-15 35q41 14 59.5 38t18.5 67h-47v116h103v-75q0 -84 -27.5 -123.5t-91.5 -57.5zM520 -18q-128 0 -201 72t-73 210v709h-158v59h158v346h65v-346h375v-59h-375v-703q0 -114 55.5 -170.5t159.5 -56.5q78 0 156 37v-64q-69 -34 -162 -34z" />
    <glyph glyph-name="Tcaron" unicode="&#x164;" horiz-adv-x="1245" 
d="M866 1774l-213 -207h-61l-213 207h70l174 -142l176 142h67zM588 0v1370h-510v64h1091v-64h-512v-1370h-69z" />
    <glyph glyph-name="tcaron" unicode="&#x165;" horiz-adv-x="786" 
d="M561 1194l35 305h82v-4l-78 -301h-39zM520 -18q-128 0 -201 72t-73 210v709h-158v59h158v346h65v-346h375v-59h-375v-703q0 -114 55.5 -170.5t159.5 -56.5q78 0 156 37v-64q-69 -34 -162 -34z" />
    <glyph glyph-name="Utilde" unicode="&#x168;" horiz-adv-x="1546" 
d="M530 1565l-45 10q22 94 61.5 135t96.5 41q41 0 135.5 -53t128.5 -53q38 0 63 26t48 92l45 -10q-22 -94 -61.5 -134t-96.5 -40q-44 0 -137.5 52t-126.5 52q-38 0 -63 -25.5t-48 -92.5zM774 -23q-130 0 -236.5 41t-184.5 120t-120.5 201.5t-42.5 278.5v816h70v-811
q0 -281 138.5 -431.5t377.5 -150.5t374.5 147t135.5 430v816h70v-809q0 -313 -157.5 -480.5t-424.5 -167.5z" />
    <glyph glyph-name="utilde" unicode="&#x169;" horiz-adv-x="1249" 
d="M596 -25q-199 0 -312.5 124.5t-113.5 328.5v604h66v-594q0 -184 96 -292.5t272 -108.5q164 0 276.5 119t112.5 295v581h66v-1032h-66v246q-20 -50 -52.5 -95t-80.5 -86t-116.5 -65.5t-147.5 -24.5zM365 1219l-46 10q22 94 61.5 135t96.5 41q41 0 135.5 -53.5t128.5 -53.5
q38 0 63 26.5t48 92.5l45 -10q-22 -94 -61.5 -134t-96.5 -40q-44 0 -137.5 52t-126.5 52q-38 0 -62.5 -25.5t-47.5 -92.5z" />
    <glyph glyph-name="Umacron" unicode="&#x16a;" horiz-adv-x="1546" 
d="M477 1610v65h590v-65h-590zM774 -23q-130 0 -236.5 41t-184.5 120t-120.5 201.5t-42.5 278.5v816h70v-811q0 -281 138.5 -431.5t377.5 -150.5t374.5 147t135.5 430v816h70v-809q0 -313 -157.5 -480.5t-424.5 -167.5z" />
    <glyph glyph-name="umacron" unicode="&#x16b;" horiz-adv-x="1249" 
d="M596 -25q-199 0 -312.5 124.5t-113.5 328.5v604h66v-594q0 -184 96 -292.5t272 -108.5q164 0 276.5 119t112.5 295v581h66v-1032h-66v246q-20 -50 -52.5 -95t-80.5 -86t-116.5 -65.5t-147.5 -24.5zM332 1266v61h561v-61h-561z" />
    <glyph glyph-name="Ubreve" unicode="&#x16c;" horiz-adv-x="1546" 
d="M772 1554q-114 0 -183 50.5t-81 134.5h57q41 -121 207 -121q168 0 207 121h57q-12 -84 -81 -134.5t-183 -50.5zM774 -23q-130 0 -236.5 41t-184.5 120t-120.5 201.5t-42.5 278.5v816h70v-811q0 -281 138.5 -431.5t377.5 -150.5t374.5 147t135.5 430v816h70v-809
q0 -313 -157.5 -480.5t-424.5 -167.5z" />
    <glyph glyph-name="ubreve" unicode="&#x16d;" horiz-adv-x="1249" 
d="M596 -25q-199 0 -312.5 124.5t-113.5 328.5v604h66v-594q0 -184 96 -292.5t272 -108.5q164 0 276.5 119t112.5 295v581h66v-1032h-66v246q-20 -50 -52.5 -95t-80.5 -86t-116.5 -65.5t-147.5 -24.5zM612 1210q-114 0 -182.5 58.5t-79.5 154.5h51q19 -66 72 -108.5
t139 -42.5q88 0 140 42t71 109h51q-11 -96 -79.5 -154.5t-182.5 -58.5z" />
    <glyph glyph-name="Uring" unicode="&#x16e;" horiz-adv-x="1546" 
d="M774 -23q-130 0 -236.5 41t-184.5 120t-120.5 201.5t-42.5 278.5v816h70v-811q0 -281 138.5 -431.5t377.5 -150.5t374.5 147t135.5 430v816h70v-809q0 -313 -157.5 -480.5t-424.5 -167.5zM561 1718q0 81 61 134t150 53t150 -53t61 -134q0 -79 -61 -131.5t-150 -52.5
t-150 52.5t-61 131.5zM616 1718q0 -61 44.5 -100t111.5 -39t111.5 39t44.5 100q0 62 -44.5 102t-111.5 40t-111.5 -40t-44.5 -102z" />
    <glyph glyph-name="uring" unicode="&#x16f;" horiz-adv-x="1249" 
d="M408 1384q0 82 59.5 139.5t144.5 57.5t145 -57.5t60 -139.5q0 -80 -60 -137t-145 -57q-84 0 -144 57t-60 137zM459 1384q0 -64 43.5 -107.5t109.5 -43.5t110 44t44 107q0 64 -44.5 109t-109.5 45t-109 -45t-44 -109zM596 -25q-199 0 -312.5 124.5t-113.5 328.5v604h66
v-594q0 -184 96 -292.5t272 -108.5q164 0 276.5 119t112.5 295v581h66v-1032h-66v246q-20 -50 -52.5 -95t-80.5 -86t-116.5 -65.5t-147.5 -24.5z" />
    <glyph glyph-name="Uhungarumlaut" unicode="&#x170;" horiz-adv-x="1546" 
d="M774 -23q-130 0 -236.5 41t-184.5 120t-120.5 201.5t-42.5 278.5v816h70v-811q0 -281 138.5 -431.5t377.5 -150.5t374.5 147t135.5 430v816h70v-809q0 -313 -157.5 -480.5t-424.5 -167.5zM592 1556l199 220l75 -39l-215 -181h-59zM856 1556l197 220l77 -39l-217 -181h-57
z" />
    <glyph glyph-name="uhungarumlaut" unicode="&#x171;" horiz-adv-x="1249" 
d="M596 -25q-199 0 -312.5 124.5t-113.5 328.5v604h66v-594q0 -184 96 -292.5t272 -108.5q164 0 276.5 119t112.5 295v581h66v-1032h-66v246q-20 -50 -52.5 -95t-80.5 -86t-116.5 -65.5t-147.5 -24.5zM684 1212l180 248l74 -37l-203 -211h-51zM449 1212l180 248l73 -37
l-202 -211h-51z" />
    <glyph glyph-name="Uogonek" unicode="&#x172;" horiz-adv-x="1546" 
d="M887 -281v-49q-109 1 -174.5 44.5t-65.5 111.5q0 82 84 154q-249 12 -395 175.5t-146 462.5v816h70v-811q0 -281 138.5 -431.5t377.5 -150.5t374.5 147t135.5 430v816h70v-809q0 -305 -148 -470.5t-403 -177.5q-88 -73 -88 -143q0 -103 170 -115z" />
    <glyph glyph-name="uogonek" unicode="&#x173;" horiz-adv-x="1249" 
d="M596 -25q-199 0 -312.5 124.5t-113.5 328.5v604h66v-594q0 -184 96 -292.5t272 -108.5q164 0 276.5 119t112.5 295v581h66v-1032h-10q-117 -82 -117 -166q0 -103 170 -115v-49q-109 1 -174.5 44.5t-65.5 111.5q0 99 131 188v232q-20 -50 -52.5 -95t-80.5 -86
t-116.5 -65.5t-147.5 -24.5z" />
    <glyph glyph-name="Wcircumflex" unicode="&#x174;" horiz-adv-x="2152" 
d="M590 -10l-496 1444h76l451 -1334l430 1338h53l432 -1340l451 1336h71l-495 -1444h-58l-430 1317l-428 -1317h-57zM831 1567l213 207h62l213 -207h-70l-174 141l-176 -141h-68z" />
    <glyph glyph-name="wcircumflex" unicode="&#x175;" horiz-adv-x="1693" 
d="M610 1219l211 237h49l211 -237h-59l-176 161l-176 -161h-60zM467 -8l-369 1040h74l324 -946l325 952h53l326 -952l326 946h67l-366 -1040h-56l-323 942l-326 -942h-55z" />
    <glyph glyph-name="Ycircumflex" unicode="&#x176;" horiz-adv-x="1394" 
d="M664 0v588l-611 846h86l561 -785l557 785h84l-608 -846v-588h-69zM453 1556l213 207h61l213 -207h-70l-174 142l-176 -142h-67z" />
    <glyph glyph-name="ycircumflex" unicode="&#x177;" horiz-adv-x="1181" 
d="M297 -334q-109 0 -199 51l27 56q82 -45 174 -45q89 0 149 57t132 217l-496 1030h74l454 -960l416 960h70l-465 -1059q-79 -178 -153 -242.5t-183 -64.5zM358 1212l211 238h49l211 -238h-59l-176 162l-176 -162h-60z" />
    <glyph glyph-name="Ydieresis" unicode="&#x178;" horiz-adv-x="1394" 
d="M664 0v588l-611 846h86l561 -785l557 785h84l-608 -846v-588h-69zM801 1579v125h106v-125h-106zM485 1579v125h107v-125h-107z" />
    <glyph glyph-name="Zacute" unicode="&#x179;" horiz-adv-x="1396" 
d="M137 0v39l1016 1331h-981v64h1079v-39l-1015 -1332h1011v-63h-1110zM678 1567l199 219l75 -39l-215 -180h-59z" />
    <glyph glyph-name="zacute" unicode="&#x17a;" horiz-adv-x="1052" 
d="M508 1219l178 247l80 -39l-207 -208h-51zM92 0v37l770 936h-743v59h839v-37l-768 -936h773v-59h-871z" />
    <glyph glyph-name="Zdotaccent" unicode="&#x17b;" horiz-adv-x="1396" 
d="M657 1589v125h111v-125h-111zM137 0v39l1016 1331h-981v64h1079v-39l-1015 -1332h1011v-63h-1110z" />
    <glyph glyph-name="zdotaccent" unicode="&#x17c;" horiz-adv-x="1052" 
d="M92 0v37l770 936h-743v59h839v-37l-768 -936h773v-59h-871zM487 1241v129h103v-129h-103z" />
    <glyph glyph-name="Zcaron" unicode="&#x17d;" horiz-adv-x="1396" 
d="M956 1774l-213 -207h-61l-213 207h70l174 -142l176 142h67zM137 0v39l1016 1331h-981v64h1079v-39l-1015 -1332h1011v-63h-1110z" />
    <glyph glyph-name="zcaron" unicode="&#x17e;" horiz-adv-x="1052" 
d="M774 1456l-211 -237h-49l-211 237h59l177 -162l176 162h59zM92 0v37l770 936h-743v59h839v-37l-768 -936h773v-59h-871z" />
    <glyph glyph-name="florin" unicode="&#x192;" horiz-adv-x="985" 
d="M150 -8q-53 0 -89 8v59q36 -8 84 -8q75 0 122 48.5t69 162.5l100 545h-225v61h238l53 287q28 151 98 219t184 68q67 0 131 -19v-61q-70 18 -124 18q-91 0 -144.5 -54t-77.5 -185l-51 -273h320v-61h-332l-103 -555q-28 -144 -89 -202t-164 -58z" />
    <glyph glyph-name="Ohorn" unicode="&#x1a0;" horiz-adv-x="1730" 
d="M864 -25q-127 0 -240.5 39t-199 109t-148 162.5t-94.5 202.5t-32 227v4q0 146 51.5 280t143 236t227.5 162.5t294 60.5q222 0 402 -121q83 6 122.5 36t39.5 95q0 19 -39 134h75q31 -77 31 -142q0 -146 -162 -176q117 -104 181.5 -252t64.5 -313v-4q0 -146 -51.5 -280.5
t-143.5 -236.5t-228 -162.5t-294 -60.5zM868 39q139 0 260 54.5t204 146.5t130 215t47 258v4q0 134 -47.5 257.5t-130.5 216.5t-205 148.5t-262 55.5t-261.5 -54.5t-204.5 -146.5t-130 -215t-47 -258v-4q0 -134 48 -257.5t131.5 -216.5t205.5 -148.5t262 -55.5z" />
    <glyph glyph-name="ohorn" unicode="&#x1a1;" horiz-adv-x="1302" 
d="M651 -25q-154 0 -277.5 74t-190 196.5t-66.5 266.5v4q0 145 66.5 268t190.5 198t279 75q169 0 305 -92q85 6 125.5 36t40.5 95q0 18 -39 133h76q31 -77 31 -142q0 -77 -41 -118.5t-127 -59.5q77 -75 119.5 -175.5t42.5 -213.5v-4q0 -144 -66.5 -267.5t-190.5 -198.5
t-278 -75zM653 37q133 0 239.5 65t165 174t58.5 238v4q0 129 -59.5 238t-167.5 174t-240 65q-200 0 -330.5 -139t-130.5 -338v-4q0 -129 59.5 -238t167 -174t238.5 -65z" />
    <glyph glyph-name="Uhorn" unicode="&#x1af;" 
d="M774 -23q-130 0 -236.5 41t-184.5 120t-120.5 201.5t-42.5 278.5v816h70v-811q0 -281 138.5 -431.5t377.5 -150.5t374.5 147t135.5 430v816h55q68 11 100 40t32 87q0 18 -39 133h75q31 -77 31 -142q0 -81 -45.5 -124.5t-138.5 -55.5v-747q0 -313 -157.5 -480.5
t-424.5 -167.5z" />
    <glyph glyph-name="uhorn" unicode="&#x1b0;" horiz-adv-x="1329" 
d="M596 -25q-199 0 -312.5 124.5t-113.5 328.5v604h66v-594q0 -184 96 -292.5t272 -108.5q164 0 276.5 119t112.5 295v581h66v-4q63 11 92 39t29 86q0 18 -39 133h76q30 -74 30 -141q0 -81 -46.5 -124.5t-141.5 -55.5v-965h-66v246q-20 -50 -52.5 -95t-80.5 -86
t-116.5 -65.5t-147.5 -24.5z" />
    <glyph glyph-name="Aringacute" unicode="&#x1fa;" 
d="M584 1556q0 79 61.5 133t149.5 54t149.5 -54t61.5 -133q0 -65 -40.5 -112.5t-107.5 -65.5l649 -1378h-75l-195 418h-887l-196 -418h-72l649 1378q-67 17 -107 65t-40 113zM381 481h825l-413 881zM637 1556q0 -61 45.5 -100t112.5 -39t111 39t44 100t-44.5 101.5
t-110.5 40.5q-67 0 -112.5 -40.5t-45.5 -101.5zM756 1806l186 191l74 -37l-199 -154h-61z" />
    <glyph glyph-name="aringacute" unicode="&#x1fb;" horiz-adv-x="1165" 
d="M551 1681l182 211l76 -37l-203 -174h-55zM496 -25q-76 0 -145.5 20.5t-125 58.5t-88.5 99.5t-33 137.5v4q0 157 127 244.5t330 87.5q193 0 369 -58v70q0 174 -96 261t-273 87q-161 0 -336 -86l-24 57q190 91 364 91q215 0 328 -113q102 -105 102 -293v-643h-65v215
q-46 -97 -158.5 -168.5t-275.5 -71.5zM500 37q185 0 308.5 101t123.5 243v127q-173 57 -373 57q-174 0 -279.5 -70t-105.5 -196v-4q0 -122 94.5 -190t231.5 -68zM379 1411q0 82 60 139.5t145 57.5t144.5 -57.5t59.5 -139.5q0 -80 -60 -137t-144 -57q-85 0 -145 57t-60 137z
M430 1411q0 -63 44 -107t110 -44t109.5 44t43.5 107q0 64 -44 109t-109 45t-109.5 -45t-44.5 -109z" />
    <glyph glyph-name="AEacute" unicode="&#x1fc;" horiz-adv-x="2101" 
d="M1229 1567l198 219l76 -39l-215 -180h-59zM16 0l899 1434h1047v-64h-907v-616h819v-64h-819v-627h917v-63h-987v418h-633l-260 -418h-76zM391 481h594v889h-37z" />
    <glyph glyph-name="aeacute" unicode="&#x1fd;" horiz-adv-x="1986" 
d="M506 -25q-109 0 -198.5 34.5t-146.5 107.5t-57 174v4q0 156 127 244t326 88q186 0 356 -56l7 72q-1 170 -96.5 257t-268.5 87q-155 0 -330 -86l-24 57q190 91 358 91q169 0 273 -72t133 -217q58 137 173 217t265 80q113 0 205 -46t150 -122.5t89 -173t31 -201.5
q0 -16 -2 -22h-895q5 -135 67 -240.5t160 -160t213 -54.5q233 0 375 180l47 -41q-157 -201 -424 -201q-136 0 -250.5 65t-181.5 181q-76 -102 -200.5 -174t-280.5 -72zM510 37q141 0 262 70t186 174q-44 99 -47 229q-163 55 -356 55q-172 0 -276.5 -70t-104.5 -196v-4
q0 -123 94 -190.5t242 -67.5zM981 551h825q-4 85 -32 163.5t-77.5 142t-126 101t-169.5 37.5q-174 0 -293 -126.5t-127 -317.5zM958 1219l179 247l80 -39l-207 -208h-52z" />
    <glyph glyph-name="Oslashacute" unicode="&#x1fe;" horiz-adv-x="1730" 
d="M864 -25q-283 0 -479 183l-156 -168h-82l197 209q-194 216 -194 516v4q0 146 51.5 280t143 236t227.5 162.5t294 60.5q285 0 480 -182l155 168h82l-197 -209q195 -217 195 -516v-4q0 -146 -51.5 -280.5t-143.5 -236.5t-228 -162.5t-294 -60.5zM391 250l909 975
q-181 170 -436 170q-140 0 -261.5 -54.5t-204.5 -146.5t-130 -215t-47 -258v-4q0 -275 170 -467zM868 39q139 0 260 54.5t204 146.5t130 215t47 258v4q0 275 -170 467l-909 -975q181 -170 438 -170zM831 1581l199 219l76 -39l-215 -180h-60z" />
    <glyph glyph-name="oslashacute" unicode="&#x1ff;" horiz-adv-x="1302" 
d="M651 -25q-207 0 -352 129l-111 -114h-77l147 153q-67 73 -104 169.5t-37 199.5v4q0 145 66.5 268t190.5 198t279 75q206 0 353 -131l124 133h78l-164 -170q142 -155 142 -369v-4q0 -144 -66.5 -267.5t-190.5 -198.5t-278 -75zM305 193l656 684q-128 118 -312 118
q-200 0 -330.5 -139t-130.5 -338v-4q0 -182 117 -321zM653 37q133 0 239.5 65t165 174t58.5 238v4q0 185 -119 320l-655 -684q133 -117 311 -117zM625 1219l178 247l80 -39l-207 -208h-51z" />
    <glyph glyph-name="Scommaaccent" unicode="&#x218;" horiz-adv-x="1312" 
d="M604 -414l-14 35q41 14 59.5 38t18.5 67h-47v116h102v-75q0 -84 -27.5 -123.5t-91.5 -57.5zM692 -20q-321 0 -571 229l47 51q117 -110 244.5 -163.5t283.5 -53.5q184 0 297 89t113 226v4q0 87 -38 145t-135 103.5t-269 81.5q-265 54 -376.5 142.5t-111.5 244.5v4
q0 156 132.5 263.5t332.5 107.5q270 0 487 -168l-43 -55q-201 160 -448 160q-173 0 -282 -89t-109 -212v-5q0 -86 37.5 -143.5t135.5 -103.5t271 -82q264 -53 375 -143.5t111 -243.5v-4q0 -168 -133.5 -276.5t-350.5 -108.5z" />
    <glyph glyph-name="scommaaccent" unicode="&#x219;" horiz-adv-x="1009" 
d="M440 -414l-14 35q41 14 59.5 38t18.5 67h-47v116h102v-75q0 -84 -27.5 -123.5t-91.5 -57.5zM514 -18q-111 0 -222.5 40t-197.5 111l39 51q180 -141 385 -141q126 0 210.5 60.5t84.5 154.5v4q0 27 -6.5 50t-20.5 42t-29.5 34.5t-41 29t-46.5 23.5t-54 21t-56 17.5
t-59 16.5q-73 21 -113.5 34t-94.5 38t-82 50.5t-48.5 66t-20.5 91.5v4q0 117 98.5 194t254.5 77q193 0 362 -115l-37 -55q-147 108 -327 108q-127 0 -205 -57.5t-78 -145.5v-4q0 -27 9.5 -51t22.5 -41.5t39.5 -35t47 -28.5t59.5 -24.5t63.5 -21t71.5 -21.5
q53 -14 92.5 -26.5t83.5 -30.5t74.5 -39.5t56.5 -49.5t39 -64.5t13 -80.5v-4q0 -125 -105 -203.5t-262 -78.5z" />
    <glyph glyph-name="schwa" unicode="&#x259;" horiz-adv-x="1193" 
d="M563 1057q104 0 197.5 -38.5t163 -107.5t110.5 -171.5t41 -223.5v-4q0 -150 -63.5 -273t-176.5 -193.5t-253 -70.5q-113 0 -204.5 45.5t-149 122.5t-88.5 173.5t-31 201.5v23h895q-5 136 -68 241t-161.5 159t-213.5 54t-210 -52t-161 -138l-49 39q166 213 422 213z
M1004 481h-824q4 -85 32 -163.5t77.5 -142t126.5 -101t170 -37.5q173 0 291.5 126.5t126.5 317.5z" />
    <glyph glyph-name="circumflex" unicode="&#x2c6;" horiz-adv-x="1024" 
d="M276 1219l211 237h50l211 -237h-60l-176 161l-176 -161h-60z" />
    <glyph glyph-name="caron" unicode="&#x2c7;" horiz-adv-x="1024" 
d="M748 1456l-211 -237h-50l-211 237h60l176 -162l176 162h60z" />
    <glyph glyph-name="breve" unicode="&#x2d8;" horiz-adv-x="1024" 
d="M512 1217q-114 0 -182.5 58.5t-79.5 154.5h51q19 -66 72 -109t139 -43q87 0 139.5 42.5t71.5 109.5h51q-11 -96 -79.5 -154.5t-182.5 -58.5z" />
    <glyph glyph-name="dotaccent" unicode="&#x2d9;" horiz-adv-x="1024" 
d="M461 1241v129h102v-129h-102z" />
    <glyph glyph-name="ring" unicode="&#x2da;" horiz-adv-x="1024" 
d="M307 1411q0 82 60 139.5t145 57.5t145 -57.5t60 -139.5q0 -80 -60 -137t-145 -57t-145 57t-60 137zM358 1411q0 -63 44 -107t110 -44t110 44t44 107q0 64 -44.5 109t-109.5 45t-109.5 -45t-44.5 -109z" />
    <glyph glyph-name="ogonek" unicode="&#x2db;" horiz-adv-x="1024" 
d="M662 -281v-49q-109 1 -174.5 44.5t-65.5 111.5q0 104 151 203l39 -27q-120 -86 -120 -168q0 -103 170 -115z" />
    <glyph glyph-name="tilde" unicode="&#x2dc;" horiz-adv-x="1024" 
d="M268 1219l-45 10q22 94 61.5 135t96.5 41q41 0 135.5 -53.5t128.5 -53.5q38 0 63 26.5t48 92.5l45 -10q-22 -94 -61.5 -134t-96.5 -40q-44 0 -137.5 52t-126.5 52q-38 0 -63 -25.5t-48 -92.5z" />
    <glyph glyph-name="hungarumlaut" unicode="&#x2dd;" horiz-adv-x="1024" 
d="M496 1219l180 247l74 -36l-203 -211h-51zM260 1219l180 247l74 -36l-203 -211h-51z" />
    <glyph glyph-name="commaaccent" unicode="&#x326;" horiz-adv-x="1024" 
d="M444 -408l-14 35q41 14 59.5 38t18.5 67h-47v116h102v-75q0 -84 -27.5 -123.5t-91.5 -57.5z" />
    <glyph glyph-name="Wgrave" unicode="&#x1e80;" horiz-adv-x="2152" 
d="M909 1786l199 -219h-59l-215 180zM590 -10l-496 1444h76l451 -1334l430 1338h53l432 -1340l451 1336h71l-495 -1444h-58l-430 1317l-428 -1317h-57z" />
    <glyph glyph-name="wgrave" unicode="&#x1e81;" horiz-adv-x="1693" 
d="M467 -8l-369 1040h74l324 -946l325 952h53l326 -952l326 946h67l-366 -1040h-56l-323 942l-326 -942h-55zM825 1219l-207 208l80 39l179 -247h-52z" />
    <glyph glyph-name="Wacute" unicode="&#x1e82;" horiz-adv-x="2152" 
d="M1040 1567l199 219l76 -39l-215 -180h-60zM590 -10l-496 1444h76l451 -1334l430 1338h53l432 -1340l451 1336h71l-495 -1444h-58l-430 1317l-428 -1317h-57z" />
    <glyph glyph-name="wacute" unicode="&#x1e83;" horiz-adv-x="1693" 
d="M813 1219l178 247l80 -39l-207 -208h-51zM467 -8l-369 1040h74l324 -946l325 952h53l326 -952l326 946h67l-366 -1040h-56l-323 942l-326 -942h-55z" />
    <glyph glyph-name="Wdieresis" unicode="&#x1e84;" horiz-adv-x="2152" 
d="M1180 1589v125h106v-125h-106zM864 1589v125h107v-125h-107zM590 -10l-496 1444h76l451 -1334l430 1338h53l432 -1340l451 1336h71l-495 -1444h-58l-430 1317l-428 -1317h-57z" />
    <glyph glyph-name="wdieresis" unicode="&#x1e85;" horiz-adv-x="1693" 
d="M942 1241v127h100v-127h-100zM649 1241v127h101v-127h-101zM467 -8l-369 1040h74l324 -946l325 952h53l326 -952l326 946h67l-366 -1040h-56l-323 942l-326 -942h-55z" />
    <glyph glyph-name="uni1EA0" unicode="&#x1ea0;" 
d="M748 -332v170h71v-170h-71zM82 0l680 1444h65l680 -1444h-75l-195 418h-887l-196 -418h-72zM381 481h825l-413 881z" />
    <glyph glyph-name="uni1EA1" unicode="&#x1ea1;" horiz-adv-x="1165" 
d="M535 -332v170h71v-170h-71zM496 -25q-76 0 -145.5 20.5t-125 58.5t-88.5 99.5t-33 137.5v4q0 157 127 244.5t330 87.5q193 0 369 -58v70q0 174 -96 261t-273 87q-161 0 -336 -86l-24 57q190 91 364 91q215 0 328 -113q102 -105 102 -293v-643h-65v215
q-46 -97 -158.5 -168.5t-275.5 -71.5zM500 37q185 0 308.5 101t123.5 243v127q-173 57 -373 57q-174 0 -279.5 -70t-105.5 -196v-4q0 -122 94.5 -190t231.5 -68z" />
    <glyph glyph-name="uni1EA2" unicode="&#x1ea2;" 
d="M772 1581l-6 145q58 5 94.5 29t36.5 62q0 36 -27 60t-69 24q-63 0 -117 -82l-47 28q66 109 164 109q69 0 112 -39.5t43 -99.5q0 -59 -40 -96.5t-97 -49.5q0 -33 -1 -60.5t-1 -29.5h-45zM82 0l680 1444h65l680 -1444h-75l-195 418h-887l-196 -418h-72zM381 481h825
l-413 881z" />
    <glyph glyph-name="uni1EA3" unicode="&#x1ea3;" horiz-adv-x="1165" 
d="M496 -25q-76 0 -145.5 20.5t-125 58.5t-88.5 99.5t-33 137.5v4q0 157 127 244.5t330 87.5q193 0 369 -58v70q0 174 -96 261t-273 87q-161 0 -336 -86l-24 57q190 91 364 91q215 0 328 -113q102 -105 102 -293v-643h-65v215q-46 -97 -158.5 -168.5t-275.5 -71.5zM500 37
q185 0 308.5 101t123.5 243v127q-173 57 -373 57q-174 0 -279.5 -70t-105.5 -196v-4q0 -122 94.5 -190t231.5 -68zM625 1208l-7 146q59 5 95.5 29t36.5 61q0 36 -27.5 60t-69.5 24q-62 0 -116 -82l-48 29q65 108 164 108q69 0 112.5 -39.5t43.5 -99.5q0 -59 -40 -96.5
t-97 -49.5q0 -33 -1 -60.5t-1 -29.5h-45z" />
    <glyph glyph-name="uni1EA4" unicode="&#x1ea4;" 
d="M82 0l680 1444h65l680 -1444h-75l-195 418h-887l-196 -418h-72zM381 481h825l-413 881zM557 1575l211 237h49l211 -237h-59l-176 162l-177 -162h-59zM973 1769l178 248l80 -39l-207 -209h-51z" />
    <glyph glyph-name="uni1EA5" unicode="&#x1ea5;" horiz-adv-x="1165" 
d="M496 -25q-76 0 -145.5 20.5t-125 58.5t-88.5 99.5t-33 137.5v4q0 157 127 244.5t330 87.5q193 0 369 -58v70q0 174 -96 261t-273 87q-161 0 -336 -86l-24 57q190 91 364 91q215 0 328 -113q102 -105 102 -293v-643h-65v215q-46 -97 -158.5 -168.5t-275.5 -71.5zM500 37
q185 0 308.5 101t123.5 243v127q-173 57 -373 57q-174 0 -279.5 -70t-105.5 -196v-4q0 -122 94.5 -190t231.5 -68zM371 1219l211 237h49l211 -237h-60l-176 161l-176 -161h-59zM786 1413l179 248l79 -39l-206 -209h-52z" />
    <glyph glyph-name="uni1EA6" unicode="&#x1ea6;" 
d="M82 0l680 1444h65l680 -1444h-75l-195 418h-887l-196 -418h-72zM381 481h825l-413 881zM557 1575l211 237h49l211 -237h-59l-176 162l-177 -162h-59zM1028 1769l-207 209l80 39l178 -248h-51z" />
    <glyph glyph-name="uni1EA7" unicode="&#x1ea7;" horiz-adv-x="1165" 
d="M496 -25q-76 0 -145.5 20.5t-125 58.5t-88.5 99.5t-33 137.5v4q0 157 127 244.5t330 87.5q193 0 369 -58v70q0 174 -96 261t-273 87q-161 0 -336 -86l-24 57q190 91 364 91q215 0 328 -113q102 -105 102 -293v-643h-65v215q-46 -97 -158.5 -168.5t-275.5 -71.5zM500 37
q185 0 308.5 101t123.5 243v127q-173 57 -373 57q-174 0 -279.5 -70t-105.5 -196v-4q0 -122 94.5 -190t231.5 -68zM371 1219l211 237h49l211 -237h-60l-176 161l-176 -161h-59zM842 1413l-207 209l80 39l178 -248h-51z" />
    <glyph glyph-name="uni1EA8" unicode="&#x1ea8;" 
d="M82 0l680 1444h65l680 -1444h-75l-195 418h-887l-196 -418h-72zM381 481h825l-413 881zM557 1575l211 237h49l211 -237h-59l-176 162l-177 -162h-59zM989 1751l-6 145q58 5 94.5 29t36.5 62q0 36 -27 60t-69 24q-63 0 -117 -82l-47 28q66 109 164 109q69 0 112.5 -39.5
t43.5 -99.5q0 -59 -40.5 -96.5t-97.5 -49.5q0 -33 -1 -60.5t-1 -29.5h-45z" />
    <glyph glyph-name="uni1EA9" unicode="&#x1ea9;" horiz-adv-x="1165" 
d="M496 -25q-76 0 -145.5 20.5t-125 58.5t-88.5 99.5t-33 137.5v4q0 157 127 244.5t330 87.5q193 0 369 -58v70q0 174 -96 261t-273 87q-161 0 -336 -86l-24 57q190 91 364 91q215 0 328 -113q102 -105 102 -293v-643h-65v215q-46 -97 -158.5 -168.5t-275.5 -71.5zM500 37
q185 0 308.5 101t123.5 243v127q-173 57 -373 57q-174 0 -279.5 -70t-105.5 -196v-4q0 -122 94.5 -190t231.5 -68zM371 1219l211 237h49l211 -237h-60l-176 161l-176 -161h-59zM803 1395l-6 145q58 5 94.5 29t36.5 61q0 36 -27.5 60t-69.5 24q-62 0 -116 -82l-47 29
q65 108 163 108q69 0 112.5 -39.5t43.5 -99.5q0 -59 -40 -96t-97 -49q0 -33 -1 -60.5t-1 -29.5h-45z" />
    <glyph glyph-name="uni1EAA" unicode="&#x1eaa;" 
d="M82 0l680 1444h65l680 -1444h-75l-195 418h-887l-196 -418h-72zM381 481h825l-413 881zM557 1575l211 237h49l211 -237h-59l-176 162l-177 -162h-59zM563 1886l-41 10q22 90 58 129t88 39q41 0 127 -51t116 -51q35 0 57.5 24.5t45.5 90.5l41 -11q-22 -90 -58 -127.5
t-88 -37.5q-41 0 -127 50t-116 50q-35 0 -57.5 -24.5t-45.5 -90.5z" />
    <glyph glyph-name="uni1EAB" unicode="&#x1eab;" horiz-adv-x="1165" 
d="M496 -25q-76 0 -145.5 20.5t-125 58.5t-88.5 99.5t-33 137.5v4q0 157 127 244.5t330 87.5q193 0 369 -58v70q0 174 -96 261t-273 87q-161 0 -336 -86l-24 57q190 91 364 91q215 0 328 -113q102 -105 102 -293v-643h-65v215q-46 -97 -158.5 -168.5t-275.5 -71.5zM500 37
q185 0 308.5 101t123.5 243v127q-173 57 -373 57q-174 0 -279.5 -70t-105.5 -196v-4q0 -122 94.5 -190t231.5 -68zM371 1219l211 237h49l211 -237h-60l-176 161l-176 -161h-59zM377 1530l-41 10q22 90 57.5 129t87.5 39q41 0 127.5 -51t116.5 -51q35 0 57 24t45 90l41 -10
q-22 -90 -57.5 -128t-87.5 -38q-41 0 -127.5 50.5t-116.5 50.5q-35 0 -57 -24.5t-45 -90.5z" />
    <glyph glyph-name="uni1EAC" unicode="&#x1eac;" 
d="M82 0l680 1444h65l680 -1444h-75l-195 418h-887l-196 -418h-72zM381 481h825l-413 881zM557 1575l211 237h49l211 -237h-59l-176 162l-177 -162h-59zM748 -332v170h71v-170h-71z" />
    <glyph glyph-name="uni1EAD" unicode="&#x1ead;" horiz-adv-x="1165" 
d="M496 -25q-76 0 -145.5 20.5t-125 58.5t-88.5 99.5t-33 137.5v4q0 157 127 244.5t330 87.5q193 0 369 -58v70q0 174 -96 261t-273 87q-161 0 -336 -86l-24 57q190 91 364 91q215 0 328 -113q102 -105 102 -293v-643h-65v215q-46 -97 -158.5 -168.5t-275.5 -71.5zM500 37
q185 0 308.5 101t123.5 243v127q-173 57 -373 57q-174 0 -279.5 -70t-105.5 -196v-4q0 -122 94.5 -190t231.5 -68zM371 1219l211 237h49l211 -237h-60l-176 161l-176 -161h-59zM535 -332v170h71v-170h-71z" />
    <glyph glyph-name="uni1EAE" unicode="&#x1eae;" 
d="M82 0l680 1444h65l680 -1444h-75l-195 418h-887l-196 -418h-72zM381 481h825l-413 881zM793 1579q-114 0 -183 58.5t-80 154.5h52q19 -66 72 -109t139 -43q87 0 139.5 42.5t71.5 109.5h51q-11 -96 -79.5 -154.5t-182.5 -58.5zM735 1792l178 248l80 -39l-207 -209h-51z
" />
    <glyph glyph-name="uni1EAF" unicode="&#x1eaf;" horiz-adv-x="1165" 
d="M496 -25q-76 0 -145.5 20.5t-125 58.5t-88.5 99.5t-33 137.5v4q0 157 127 244.5t330 87.5q193 0 369 -58v70q0 174 -96 261t-273 87q-161 0 -336 -86l-24 57q190 91 364 91q215 0 328 -113q102 -105 102 -293v-643h-65v215q-46 -97 -158.5 -168.5t-275.5 -71.5zM500 37
q185 0 308.5 101t123.5 243v127q-173 57 -373 57q-174 0 -279.5 -70t-105.5 -196v-4q0 -122 94.5 -190t231.5 -68zM672 1217q-114 0 -182.5 58.5t-79.5 154.5h51q19 -66 72 -109t139 -43q87 0 139.5 42.5t71.5 109.5h51q-11 -96 -79.5 -154.5t-182.5 -58.5zM616 1430
l179 247l79 -39l-206 -208h-52z" />
    <glyph glyph-name="uni1EB0" unicode="&#x1eb0;" 
d="M82 0l680 1444h65l680 -1444h-75l-195 418h-887l-196 -418h-72zM381 481h825l-413 881zM793 1579q-114 0 -183 58.5t-80 154.5h52q19 -66 72 -109t139 -43q87 0 139.5 42.5t71.5 109.5h51q-11 -96 -79.5 -154.5t-182.5 -58.5zM795 1792l-207 209l80 39l178 -248h-51z" />
    <glyph glyph-name="uni1EB1" unicode="&#x1eb1;" horiz-adv-x="1165" 
d="M496 -25q-76 0 -145.5 20.5t-125 58.5t-88.5 99.5t-33 137.5v4q0 157 127 244.5t330 87.5q193 0 369 -58v70q0 174 -96 261t-273 87q-161 0 -336 -86l-24 57q190 91 364 91q215 0 328 -113q102 -105 102 -293v-643h-65v215q-46 -97 -158.5 -168.5t-275.5 -71.5zM500 37
q185 0 308.5 101t123.5 243v127q-173 57 -373 57q-174 0 -279.5 -70t-105.5 -196v-4q0 -122 94.5 -190t231.5 -68zM672 1217q-114 0 -182.5 58.5t-79.5 154.5h51q19 -66 72 -109t139 -43q87 0 139.5 42.5t71.5 109.5h51q-11 -96 -79.5 -154.5t-182.5 -58.5zM674 1430
l-207 208l80 39l178 -247h-51z" />
    <glyph glyph-name="uni1EB2" unicode="&#x1eb2;" 
d="M82 0l680 1444h65l680 -1444h-75l-195 418h-887l-196 -418h-72zM381 481h825l-413 881zM793 1579q-114 0 -183 58.5t-80 154.5h52q19 -66 72 -109t139 -43q87 0 139.5 42.5t71.5 109.5h51q-11 -96 -79.5 -154.5t-182.5 -58.5zM770 1788l-6 145q58 5 94.5 29t36.5 61
q0 36 -27 60t-69 24q-63 0 -117 -82l-47 29q66 109 164 109q68 0 111.5 -39.5t43.5 -100.5q0 -59 -40 -96t-97 -49q0 -33 -1 -60.5t-1 -29.5h-45z" />
    <glyph glyph-name="uni1EB3" unicode="&#x1eb3;" horiz-adv-x="1165" 
d="M496 -25q-76 0 -145.5 20.5t-125 58.5t-88.5 99.5t-33 137.5v4q0 157 127 244.5t330 87.5q193 0 369 -58v70q0 174 -96 261t-273 87q-161 0 -336 -86l-24 57q190 91 364 91q215 0 328 -113q102 -105 102 -293v-643h-65v215q-46 -97 -158.5 -168.5t-275.5 -71.5zM500 37
q185 0 308.5 101t123.5 243v127q-173 57 -373 57q-174 0 -279.5 -70t-105.5 -196v-4q0 -122 94.5 -190t231.5 -68zM672 1217q-114 0 -182.5 58.5t-79.5 154.5h51q19 -66 72 -109t139 -43q87 0 139.5 42.5t71.5 109.5h51q-11 -96 -79.5 -154.5t-182.5 -58.5zM649 1425l-6 146
q58 5 94.5 29t36.5 61q0 36 -27 60t-69 24q-63 0 -117 -82l-47 29q65 108 164 108q69 0 112.5 -39.5t43.5 -99.5q0 -59 -40.5 -96t-97.5 -49q0 -33 -1 -61t-1 -30h-45z" />
    <glyph glyph-name="uni1EB4" unicode="&#x1eb4;" 
d="M82 0l680 1444h65l680 -1444h-75l-195 418h-887l-196 -418h-72zM381 481h825l-413 881zM793 1579q-114 0 -183 58.5t-80 154.5h52q19 -66 72 -109t139 -43q87 0 139.5 42.5t71.5 109.5h51q-11 -96 -79.5 -154.5t-182.5 -58.5zM571 1864l-41 10q22 90 58 129t88 39
q41 0 127.5 -51.5t116.5 -51.5q35 0 57 24.5t45 90.5l41 -10q-22 -90 -57.5 -128t-87.5 -38q-41 0 -127.5 50t-116.5 50q-36 0 -58 -24.5t-45 -89.5z" />
    <glyph glyph-name="uni1EB5" unicode="&#x1eb5;" horiz-adv-x="1165" 
d="M496 -25q-76 0 -145.5 20.5t-125 58.5t-88.5 99.5t-33 137.5v4q0 157 127 244.5t330 87.5q193 0 369 -58v70q0 174 -96 261t-273 87q-161 0 -336 -86l-24 57q190 91 364 91q215 0 328 -113q102 -105 102 -293v-643h-65v215q-46 -97 -158.5 -168.5t-275.5 -71.5zM500 37
q185 0 308.5 101t123.5 243v127q-173 57 -373 57q-174 0 -279.5 -70t-105.5 -196v-4q0 -122 94.5 -190t231.5 -68zM584 1217q-114 0 -182.5 58.5t-79.5 154.5h51q19 -66 72 -109t139 -43q87 0 139.5 42.5t71.5 109.5h51q-11 -96 -79.5 -154.5t-182.5 -58.5zM362 1501l-40 10
q22 90 57.5 129t87.5 39q41 0 127.5 -51t116.5 -51q35 0 57 24.5t45 90.5l41 -11q-22 -90 -57.5 -127.5t-87.5 -37.5q-41 0 -127.5 50t-116.5 50q-35 0 -57.5 -24.5t-45.5 -90.5z" />
    <glyph glyph-name="uni1EB6" unicode="&#x1eb6;" 
d="M82 0l680 1444h65l680 -1444h-75l-195 418h-887l-196 -418h-72zM381 481h825l-413 881zM793 1579q-114 0 -183 58.5t-80 154.5h52q19 -66 72 -109t139 -43q87 0 139.5 42.5t71.5 109.5h51q-11 -96 -79.5 -154.5t-182.5 -58.5zM748 -332v170h71v-170h-71z" />
    <glyph glyph-name="uni1EB7" unicode="&#x1eb7;" horiz-adv-x="1165" 
d="M496 -25q-76 0 -145.5 20.5t-125 58.5t-88.5 99.5t-33 137.5v4q0 157 127 244.5t330 87.5q193 0 369 -58v70q0 174 -96 261t-273 87q-161 0 -336 -86l-24 57q190 91 364 91q215 0 328 -113q102 -105 102 -293v-643h-65v215q-46 -97 -158.5 -168.5t-275.5 -71.5zM500 37
q185 0 308.5 101t123.5 243v127q-173 57 -373 57q-174 0 -279.5 -70t-105.5 -196v-4q0 -122 94.5 -190t231.5 -68zM535 -332v170h71v-170h-71zM672 1217q-114 0 -182.5 58.5t-79.5 154.5h51q19 -66 72 -109t139 -43q87 0 139.5 42.5t71.5 109.5h51q-11 -96 -79.5 -154.5
t-182.5 -58.5z" />
    <glyph glyph-name="uni1EB8" unicode="&#x1eb8;" horiz-adv-x="1361" 
d="M684 -332v170h72v-170h-72zM213 0v1434h1010v-64h-940v-616h850v-64h-850v-627h950v-63h-1020z" />
    <glyph glyph-name="uni1EB9" unicode="&#x1eb9;" horiz-adv-x="1193" 
d="M575 -332v170h72v-170h-72zM631 -25q-104 0 -197.5 38.5t-163 107.5t-110.5 171.5t-41 223.5v4q0 150 63.5 273t176.5 193.5t253 70.5q113 0 204.5 -45.5t149 -122.5t88.5 -173.5t31 -201.5v-22h-895q5 -136 68 -241.5t161.5 -159.5t213.5 -54t210 52t161 138l49 -39
q-166 -213 -422 -213zM190 551h824q-4 85 -32 163.5t-77.5 142t-126.5 101t-170 37.5q-176 0 -293 -126t-125 -318z" />
    <glyph glyph-name="uni1EBA" unicode="&#x1eba;" horiz-adv-x="1361" 
d="M213 0v1434h1010v-64h-940v-616h850v-64h-850v-627h950v-63h-1020zM715 1581l-6 145q58 5 94.5 29t36.5 62q0 36 -27.5 60t-69.5 24q-62 0 -116 -82l-47 28q66 109 163 109q69 0 112.5 -39.5t43.5 -99.5q0 -59 -40 -96.5t-97 -49.5q0 -33 -1 -60.5t-1 -29.5h-45z" />
    <glyph glyph-name="uni1EBB" unicode="&#x1ebb;" horiz-adv-x="1193" 
d="M631 -25q-104 0 -197.5 38.5t-163 107.5t-110.5 171.5t-41 223.5v4q0 150 63.5 273t176.5 193.5t253 70.5q113 0 204.5 -45.5t149 -122.5t88.5 -173.5t31 -201.5v-22h-895q5 -136 68 -241.5t161.5 -159.5t213.5 -54t210 52t161 138l49 -39q-166 -213 -422 -213zM190 551
h824q-4 85 -32 163.5t-77.5 142t-126.5 101t-170 37.5q-176 0 -293 -126t-125 -318zM621 1208l-7 146q58 5 94.5 29t36.5 61q0 36 -27 60t-69 24q-63 0 -117 -82l-47 29q65 108 164 108q69 0 112.5 -39.5t43.5 -99.5q0 -59 -40 -96.5t-97 -49.5q0 -33 -1 -60.5t-1 -29.5h-45
z" />
    <glyph glyph-name="uni1EBC" unicode="&#x1ebc;" horiz-adv-x="1361" 
d="M467 1565l-45 10q22 94 61.5 135t96.5 41q41 0 135.5 -53t128.5 -53q38 0 62.5 26t47.5 92l45 -10q-22 -94 -61 -134t-96 -40q-44 0 -137.5 52t-126.5 52q-38 0 -63 -25.5t-48 -92.5zM213 0v1434h1010v-64h-940v-616h850v-64h-850v-627h950v-63h-1020z" />
    <glyph glyph-name="uni1EBD" unicode="&#x1ebd;" horiz-adv-x="1193" 
d="M631 -25q-104 0 -197.5 38.5t-163 107.5t-110.5 171.5t-41 223.5v4q0 150 63.5 273t176.5 193.5t253 70.5q113 0 204.5 -45.5t149 -122.5t88.5 -173.5t31 -201.5v-22h-895q5 -136 68 -241.5t161.5 -159.5t213.5 -54t210 52t161 138l49 -39q-166 -213 -422 -213zM190 551
h824q-4 85 -32 163.5t-77.5 142t-126.5 101t-170 37.5q-176 0 -293 -126t-125 -318zM362 1219l-45 10q22 94 61.5 135t96.5 41q41 0 135.5 -53.5t128.5 -53.5q38 0 63 26.5t48 92.5l45 -10q-22 -94 -61.5 -134t-96.5 -40q-44 0 -137.5 52t-126.5 52q-38 0 -63 -25.5
t-48 -92.5z" />
    <glyph glyph-name="uni1EBE" unicode="&#x1ebe;" horiz-adv-x="1361" 
d="M213 0v1434h1010v-64h-940v-616h850v-64h-850v-627h950v-63h-1020zM485 1567l211 237h49l211 -237h-59l-176 162l-176 -162h-60zM901 1761l178 248l80 -39l-207 -209h-51z" />
    <glyph glyph-name="uni1EBF" unicode="&#x1ebf;" horiz-adv-x="1193" 
d="M631 -25q-104 0 -197.5 38.5t-163 107.5t-110.5 171.5t-41 223.5v4q0 150 63.5 273t176.5 193.5t253 70.5q113 0 204.5 -45.5t149 -122.5t88.5 -173.5t31 -201.5v-22h-895q5 -136 68 -241.5t161.5 -159.5t213.5 -54t210 52t161 138l49 -39q-166 -213 -422 -213zM190 551
h824q-4 85 -32 163.5t-77.5 142t-126.5 101t-170 37.5q-176 0 -293 -126t-125 -318zM375 1219l211 237h49l211 -237h-60l-176 161l-176 -161h-59zM791 1413l178 248l80 -39l-207 -209h-51z" />
    <glyph glyph-name="uni1EC0" unicode="&#x1ec0;" horiz-adv-x="1361" 
d="M213 0v1434h1010v-64h-940v-616h850v-64h-850v-627h950v-63h-1020zM485 1567l211 237h49l211 -237h-59l-176 162l-176 -162h-60zM956 1761l-206 209l79 39l179 -248h-52z" />
    <glyph glyph-name="uni1EC1" unicode="&#x1ec1;" horiz-adv-x="1193" 
d="M631 -25q-104 0 -197.5 38.5t-163 107.5t-110.5 171.5t-41 223.5v4q0 150 63.5 273t176.5 193.5t253 70.5q113 0 204.5 -45.5t149 -122.5t88.5 -173.5t31 -201.5v-22h-895q5 -136 68 -241.5t161.5 -159.5t213.5 -54t210 52t161 138l49 -39q-166 -213 -422 -213zM190 551
h824q-4 85 -32 163.5t-77.5 142t-126.5 101t-170 37.5q-176 0 -293 -126t-125 -318zM375 1219l211 237h49l211 -237h-60l-176 161l-176 -161h-59zM846 1413l-207 209l80 39l178 -248h-51z" />
    <glyph glyph-name="uni1EC2" unicode="&#x1ec2;" horiz-adv-x="1361" 
d="M213 0v1434h1010v-64h-940v-616h850v-64h-850v-627h950v-63h-1020zM485 1567l211 237h49l211 -237h-59l-176 162l-176 -162h-60zM918 1743l-7 145q58 5 94.5 29t36.5 61q0 36 -27 60t-69 24q-63 0 -117 -82l-47 29q66 109 164 109q68 0 112 -40t44 -100q0 -59 -40 -96
t-97 -49q0 -33 -1 -60.5t-1 -29.5h-45z" />
    <glyph glyph-name="uni1EC3" unicode="&#x1ec3;" horiz-adv-x="1193" 
d="M631 -25q-104 0 -197.5 38.5t-163 107.5t-110.5 171.5t-41 223.5v4q0 150 63.5 273t176.5 193.5t253 70.5q113 0 204.5 -45.5t149 -122.5t88.5 -173.5t31 -201.5v-22h-895q5 -136 68 -241.5t161.5 -159.5t213.5 -54t210 52t161 138l49 -39q-166 -213 -422 -213zM190 551
h824q-4 85 -32 163.5t-77.5 142t-126.5 101t-170 37.5q-176 0 -293 -126t-125 -318zM375 1219l211 237h49l211 -237h-60l-176 161l-176 -161h-59zM807 1395l-6 145q58 5 94.5 29t36.5 61q0 36 -27 60t-69 24q-63 0 -117 -82l-47 29q65 108 164 108q69 0 112 -39.5t43 -99.5
q0 -59 -40 -96t-97 -49q0 -33 -1 -60.5t-1 -29.5h-45z" />
    <glyph glyph-name="uni1EC4" unicode="&#x1ec4;" horiz-adv-x="1361" 
d="M213 0v1434h1010v-64h-940v-616h850v-64h-850v-627h950v-63h-1020zM485 1567l211 237h49l211 -237h-59l-176 162l-176 -162h-60zM492 1878l-41 10q22 90 57.5 129t87.5 39q41 0 127.5 -51t116.5 -51q35 0 57 24t45 90l41 -10q-22 -90 -57.5 -128t-87.5 -38
q-41 0 -127.5 50.5t-116.5 50.5q-35 0 -57 -24.5t-45 -90.5z" />
    <glyph glyph-name="uni1EC5" unicode="&#x1ec5;" horiz-adv-x="1193" 
d="M631 -25q-104 0 -197.5 38.5t-163 107.5t-110.5 171.5t-41 223.5v4q0 150 63.5 273t176.5 193.5t253 70.5q113 0 204.5 -45.5t149 -122.5t88.5 -173.5t31 -201.5v-22h-895q5 -136 68 -241.5t161.5 -159.5t213.5 -54t210 52t161 138l49 -39q-166 -213 -422 -213zM190 551
h824q-4 85 -32 163.5t-77.5 142t-126.5 101t-170 37.5q-176 0 -293 -126t-125 -318zM375 1219l211 237h49l211 -237h-60l-176 161l-176 -161h-59zM381 1530l-41 10q22 90 57.5 129t87.5 39q41 0 127.5 -51t116.5 -51q35 0 57 24t45 90l41 -10q-22 -90 -57.5 -128t-87.5 -38
q-41 0 -127.5 50.5t-116.5 50.5q-35 0 -57 -24.5t-45 -90.5z" />
    <glyph glyph-name="uni1EC6" unicode="&#x1ec6;" horiz-adv-x="1361" 
d="M213 0v1434h1010v-64h-940v-616h850v-64h-850v-627h950v-63h-1020zM485 1567l211 237h49l211 -237h-59l-176 162l-176 -162h-60zM684 -332v170h72v-170h-72z" />
    <glyph glyph-name="uni1EC7" unicode="&#x1ec7;" horiz-adv-x="1193" 
d="M631 -25q-104 0 -197.5 38.5t-163 107.5t-110.5 171.5t-41 223.5v4q0 150 63.5 273t176.5 193.5t253 70.5q113 0 204.5 -45.5t149 -122.5t88.5 -173.5t31 -201.5v-22h-895q5 -136 68 -241.5t161.5 -159.5t213.5 -54t210 52t161 138l49 -39q-166 -213 -422 -213zM190 551
h824q-4 85 -32 163.5t-77.5 142t-126.5 101t-170 37.5q-176 0 -293 -126t-125 -318zM375 1219l211 237h49l211 -237h-60l-176 161l-176 -161h-59zM575 -332v170h72v-170h-72z" />
    <glyph glyph-name="uni1EC8" unicode="&#x1ec8;" horiz-adv-x="524" 
d="M227 0v1434h70v-1434h-70zM238 1581l-7 145q58 5 94.5 29t36.5 62q0 36 -27 60t-69 24q-62 0 -116 -82l-48 28q66 109 164 109q69 0 112.5 -39.5t43.5 -99.5q0 -59 -40 -96.5t-97 -49.5q0 -33 -1 -60.5t-1 -29.5h-45z" />
    <glyph glyph-name="uni1EC9" unicode="&#x1ec9;" horiz-adv-x="473" 
d="M203 0v1032h67v-1032h-67zM215 1208l-6 146q58 5 94.5 29t36.5 61q0 36 -27 60t-69 24q-63 0 -117 -82l-47 29q65 108 164 108q69 0 112 -39.5t43 -99.5q0 -59 -40 -96.5t-97 -49.5q0 -33 -1 -60.5t-1 -29.5h-45z" />
    <glyph glyph-name="uni1ECA" unicode="&#x1eca;" horiz-adv-x="524" 
d="M227 -332v170h72v-170h-72zM227 0v1434h70v-1434h-70z" />
    <glyph glyph-name="uni1ECB" unicode="&#x1ecb;" horiz-adv-x="473" 
d="M203 -332v170h71v-170h-71zM193 1317v125h88v-125h-88zM203 0v1032h67v-1032h-67z" />
    <glyph glyph-name="uni1ECC" unicode="&#x1ecc;" horiz-adv-x="1730" 
d="M829 -332v170h72v-170h-72zM864 -25q-127 0 -240.5 39t-199 109t-148 162.5t-94.5 202.5t-32 227v4q0 146 51.5 280t143 236t227.5 162.5t294 60.5t294 -60.5t227 -162.5t142.5 -236t51.5 -280v-4q0 -146 -51.5 -280.5t-143.5 -236.5t-228 -162.5t-294 -60.5zM868 39
q139 0 260 54.5t204 146.5t130 215t47 258v4q0 134 -47.5 257.5t-130.5 216.5t-205 148.5t-262 55.5t-261.5 -54.5t-204.5 -146.5t-130 -215t-47 -258v-4q0 -134 48 -257.5t131.5 -216.5t205.5 -148.5t262 -55.5z" />
    <glyph glyph-name="uni1ECD" unicode="&#x1ecd;" horiz-adv-x="1302" 
d="M618 -332v170h72v-170h-72zM651 -25q-154 0 -277.5 74t-190 196.5t-66.5 266.5v4q0 145 66.5 268t190.5 198t279 75q153 0 276.5 -74t190 -196.5t66.5 -266.5v-4q0 -144 -66.5 -267.5t-190.5 -198.5t-278 -75zM653 37q133 0 239.5 65t165 174t58.5 238v4q0 129 -59.5 238
t-167.5 174t-240 65q-200 0 -330.5 -139t-130.5 -338v-4q0 -129 59.5 -238t167 -174t238.5 -65z" />
    <glyph glyph-name="uni1ECE" unicode="&#x1ece;" horiz-adv-x="1730" 
d="M864 -25q-127 0 -240.5 39t-199 109t-148 162.5t-94.5 202.5t-32 227v4q0 146 51.5 280t143 236t227.5 162.5t294 60.5t294 -60.5t227 -162.5t142.5 -236t51.5 -280v-4q0 -146 -51.5 -280.5t-143.5 -236.5t-228 -162.5t-294 -60.5zM868 39q139 0 260 54.5t204 146.5
t130 215t47 258v4q0 134 -47.5 257.5t-130.5 216.5t-205 148.5t-262 55.5t-261.5 -54.5t-204.5 -146.5t-130 -215t-47 -258v-4q0 -134 48 -257.5t131.5 -216.5t205.5 -148.5t262 -55.5zM895 1581l-6 145q58 5 94.5 29t36.5 62q0 36 -27 60t-69 24q-63 0 -117 -82l-47 28
q66 109 164 109q69 0 112 -39.5t43 -99.5q0 -59 -40 -96.5t-97 -49.5q0 -33 -1 -60.5t-1 -29.5h-45z" />
    <glyph glyph-name="uni1ECF" unicode="&#x1ecf;" horiz-adv-x="1302" 
d="M651 -25q-154 0 -277.5 74t-190 196.5t-66.5 266.5v4q0 145 66.5 268t190.5 198t279 75q153 0 276.5 -74t190 -196.5t66.5 -266.5v-4q0 -144 -66.5 -267.5t-190.5 -198.5t-278 -75zM653 37q133 0 239.5 65t165 174t58.5 238v4q0 129 -59.5 238t-167.5 174t-240 65
q-200 0 -330.5 -139t-130.5 -338v-4q0 -129 59.5 -238t167 -174t238.5 -65zM672 1208l-6 146q58 5 94.5 29t36.5 61q0 36 -27.5 60t-69.5 24q-62 0 -116 -82l-47 29q65 108 163 108q69 0 112.5 -39.5t43.5 -99.5q0 -59 -40 -96.5t-97 -49.5q0 -33 -1 -60.5t-1 -29.5h-45z
" />
    <glyph glyph-name="uni1ED0" unicode="&#x1ed0;" horiz-adv-x="1730" 
d="M864 -25q-127 0 -240.5 39t-199 109t-148 162.5t-94.5 202.5t-32 227v4q0 146 51.5 280t143 236t227.5 162.5t294 60.5t294 -60.5t227 -162.5t142.5 -236t51.5 -280v-4q0 -146 -51.5 -280.5t-143.5 -236.5t-228 -162.5t-294 -60.5zM868 39q139 0 260 54.5t204 146.5
t130 215t47 258v4q0 134 -47.5 257.5t-130.5 216.5t-205 148.5t-262 55.5t-261.5 -54.5t-204.5 -146.5t-130 -215t-47 -258v-4q0 -134 48 -257.5t131.5 -216.5t205.5 -148.5t262 -55.5zM629 1579l211 238h49l211 -238h-60l-176 162l-176 -162h-59zM1044 1774l179 247l80 -39
l-207 -208h-52z" />
    <glyph glyph-name="uni1ED1" unicode="&#x1ed1;" horiz-adv-x="1302" 
d="M416 1219l211 237h49l211 -237h-60l-176 161l-176 -161h-59zM651 -25q-154 0 -277.5 74t-190 196.5t-66.5 266.5v4q0 145 66.5 268t190.5 198t279 75q153 0 276.5 -74t190 -196.5t66.5 -266.5v-4q0 -144 -66.5 -267.5t-190.5 -198.5t-278 -75zM653 37q133 0 239.5 65
t165 174t58.5 238v4q0 129 -59.5 238t-167.5 174t-240 65q-200 0 -330.5 -139t-130.5 -338v-4q0 -129 59.5 -238t167 -174t238.5 -65zM831 1413l179 248l80 -39l-207 -209h-52z" />
    <glyph glyph-name="uni1ED2" unicode="&#x1ed2;" horiz-adv-x="1730" 
d="M864 -25q-127 0 -240.5 39t-199 109t-148 162.5t-94.5 202.5t-32 227v4q0 146 51.5 280t143 236t227.5 162.5t294 60.5t294 -60.5t227 -162.5t142.5 -236t51.5 -280v-4q0 -146 -51.5 -280.5t-143.5 -236.5t-228 -162.5t-294 -60.5zM868 39q139 0 260 54.5t204 146.5
t130 215t47 258v4q0 134 -47.5 257.5t-130.5 216.5t-205 148.5t-262 55.5t-261.5 -54.5t-204.5 -146.5t-130 -215t-47 -258v-4q0 -134 48 -257.5t131.5 -216.5t205.5 -148.5t262 -55.5zM629 1579l211 238h49l211 -238h-60l-176 162l-176 -162h-59zM1100 1774l-207 208l80 39
l178 -247h-51z" />
    <glyph glyph-name="uni1ED3" unicode="&#x1ed3;" horiz-adv-x="1302" 
d="M416 1219l211 237h49l211 -237h-60l-176 161l-176 -161h-59zM651 -25q-154 0 -277.5 74t-190 196.5t-66.5 266.5v4q0 145 66.5 268t190.5 198t279 75q153 0 276.5 -74t190 -196.5t66.5 -266.5v-4q0 -144 -66.5 -267.5t-190.5 -198.5t-278 -75zM653 37q133 0 239.5 65
t165 174t58.5 238v4q0 129 -59.5 238t-167.5 174t-240 65q-200 0 -330.5 -139t-130.5 -338v-4q0 -129 59.5 -238t167 -174t238.5 -65zM887 1413l-207 209l80 39l178 -248h-51z" />
    <glyph glyph-name="uni1ED4" unicode="&#x1ed4;" horiz-adv-x="1730" 
d="M864 -25q-127 0 -240.5 39t-199 109t-148 162.5t-94.5 202.5t-32 227v4q0 146 51.5 280t143 236t227.5 162.5t294 60.5t294 -60.5t227 -162.5t142.5 -236t51.5 -280v-4q0 -146 -51.5 -280.5t-143.5 -236.5t-228 -162.5t-294 -60.5zM868 39q139 0 260 54.5t204 146.5
t130 215t47 258v4q0 134 -47.5 257.5t-130.5 216.5t-205 148.5t-262 55.5t-261.5 -54.5t-204.5 -146.5t-130 -215t-47 -258v-4q0 -134 48 -257.5t131.5 -216.5t205.5 -148.5t262 -55.5zM629 1579l211 238h49l211 -238h-60l-176 162l-176 -162h-59zM1061 1755l-6 146
q58 5 94.5 29t36.5 61q0 36 -27 60t-69 24q-63 0 -117 -82l-47 28q66 109 164 109q69 0 112 -39.5t43 -99.5q0 -59 -40 -96.5t-97 -49.5q0 -33 -1 -60.5t-1 -29.5h-45z" />
    <glyph glyph-name="uni1ED5" unicode="&#x1ed5;" horiz-adv-x="1302" 
d="M416 1219l211 237h49l211 -237h-60l-176 161l-176 -161h-59zM651 -25q-154 0 -277.5 74t-190 196.5t-66.5 266.5v4q0 145 66.5 268t190.5 198t279 75q153 0 276.5 -74t190 -196.5t66.5 -266.5v-4q0 -144 -66.5 -267.5t-190.5 -198.5t-278 -75zM653 37q133 0 239.5 65
t165 174t58.5 238v4q0 129 -59.5 238t-167.5 174t-240 65q-200 0 -330.5 -139t-130.5 -338v-4q0 -129 59.5 -238t167 -174t238.5 -65zM848 1395l-6 145q58 5 94.5 29t36.5 61q0 36 -27 60t-69 24q-63 0 -117 -82l-47 29q65 108 164 108q69 0 112 -39.5t43 -99.5
q0 -59 -40 -96t-97 -49q0 -33 -1 -60.5t-1 -29.5h-45z" />
    <glyph glyph-name="uni1ED6" unicode="&#x1ed6;" horiz-adv-x="1730" 
d="M864 -25q-127 0 -240.5 39t-199 109t-148 162.5t-94.5 202.5t-32 227v4q0 146 51.5 280t143 236t227.5 162.5t294 60.5t294 -60.5t227 -162.5t142.5 -236t51.5 -280v-4q0 -146 -51.5 -280.5t-143.5 -236.5t-228 -162.5t-294 -60.5zM868 39q139 0 260 54.5t204 146.5
t130 215t47 258v4q0 134 -47.5 257.5t-130.5 216.5t-205 148.5t-262 55.5t-261.5 -54.5t-204.5 -146.5t-130 -215t-47 -258v-4q0 -134 48 -257.5t131.5 -216.5t205.5 -148.5t262 -55.5zM629 1579l211 238h49l211 -238h-60l-176 162l-176 -162h-59zM635 1890l-41 11
q22 90 57.5 128.5t87.5 38.5q41 0 127.5 -51t116.5 -51q35 0 57 24.5t45 90.5l41 -10q-22 -90 -57.5 -128t-87.5 -38q-41 0 -127.5 50t-116.5 50q-35 0 -57 -24.5t-45 -90.5z" />
    <glyph glyph-name="uni1ED7" unicode="&#x1ed7;" horiz-adv-x="1302" 
d="M416 1219l211 237h49l211 -237h-60l-176 161l-176 -161h-59zM651 -25q-154 0 -277.5 74t-190 196.5t-66.5 266.5v4q0 145 66.5 268t190.5 198t279 75q153 0 276.5 -74t190 -196.5t66.5 -266.5v-4q0 -144 -66.5 -267.5t-190.5 -198.5t-278 -75zM653 37q133 0 239.5 65
t165 174t58.5 238v4q0 129 -59.5 238t-167.5 174t-240 65q-200 0 -330.5 -139t-130.5 -338v-4q0 -129 59.5 -238t167 -174t238.5 -65zM422 1530l-41 10q22 90 57.5 129t87.5 39q41 0 127.5 -51t116.5 -51q35 0 57 24t45 90l41 -10q-22 -90 -57.5 -128t-87.5 -38
q-41 0 -127.5 50.5t-116.5 50.5q-35 0 -57 -24.5t-45 -90.5z" />
    <glyph glyph-name="uni1ED8" unicode="&#x1ed8;" horiz-adv-x="1730" 
d="M864 -25q-127 0 -240.5 39t-199 109t-148 162.5t-94.5 202.5t-32 227v4q0 146 51.5 280t143 236t227.5 162.5t294 60.5t294 -60.5t227 -162.5t142.5 -236t51.5 -280v-4q0 -146 -51.5 -280.5t-143.5 -236.5t-228 -162.5t-294 -60.5zM868 39q139 0 260 54.5t204 146.5
t130 215t47 258v4q0 134 -47.5 257.5t-130.5 216.5t-205 148.5t-262 55.5t-261.5 -54.5t-204.5 -146.5t-130 -215t-47 -258v-4q0 -134 48 -257.5t131.5 -216.5t205.5 -148.5t262 -55.5zM629 1579l211 238h49l211 -238h-60l-176 162l-176 -162h-59zM829 -332v170h72v-170h-72
z" />
    <glyph glyph-name="uni1ED9" unicode="&#x1ed9;" horiz-adv-x="1302" 
d="M416 1219l211 237h49l211 -237h-60l-176 161l-176 -161h-59zM651 -25q-154 0 -277.5 74t-190 196.5t-66.5 266.5v4q0 145 66.5 268t190.5 198t279 75q153 0 276.5 -74t190 -196.5t66.5 -266.5v-4q0 -144 -66.5 -267.5t-190.5 -198.5t-278 -75zM653 37q133 0 239.5 65
t165 174t58.5 238v4q0 129 -59.5 238t-167.5 174t-240 65q-200 0 -330.5 -139t-130.5 -338v-4q0 -129 59.5 -238t167 -174t238.5 -65zM618 -332v170h72v-170h-72z" />
    <glyph glyph-name="uni1EDA" unicode="&#x1eda;" horiz-adv-x="1730" 
d="M864 -25q-127 0 -240.5 39t-199 109t-148 162.5t-94.5 202.5t-32 227v4q0 146 51.5 280t143 236t227.5 162.5t294 60.5q222 0 402 -121q83 6 122.5 36t39.5 95q0 19 -39 134h75q31 -77 31 -142q0 -146 -162 -176q117 -104 181.5 -252t64.5 -313v-4q0 -146 -51.5 -280.5
t-143.5 -236.5t-228 -162.5t-294 -60.5zM868 39q139 0 260 54.5t204 146.5t130 215t47 258v4q0 134 -47.5 257.5t-130.5 216.5t-205 148.5t-262 55.5t-261.5 -54.5t-204.5 -146.5t-130 -215t-47 -258v-4q0 -134 48 -257.5t131.5 -216.5t205.5 -148.5t262 -55.5zM741 1581
l179 248l79 -39l-206 -209h-52z" />
    <glyph glyph-name="uni1EDB" unicode="&#x1edb;" horiz-adv-x="1302" 
d="M651 -25q-154 0 -277.5 74t-190 196.5t-66.5 266.5v4q0 145 66.5 268t190.5 198t279 75q169 0 305 -92q85 6 125.5 36t40.5 95q0 18 -39 133h76q31 -77 31 -142q0 -77 -41 -118.5t-127 -59.5q77 -75 119.5 -175.5t42.5 -213.5v-4q0 -144 -66.5 -267.5t-190.5 -198.5
t-278 -75zM653 37q133 0 239.5 65t165 174t58.5 238v4q0 129 -59.5 238t-167.5 174t-240 65q-200 0 -330.5 -139t-130.5 -338v-4q0 -129 59.5 -238t167 -174t238.5 -65zM567 1219l178 247l80 -39l-207 -208h-51z" />
    <glyph glyph-name="uni1EDC" unicode="&#x1edc;" horiz-adv-x="1730" 
d="M864 -25q-127 0 -240.5 39t-199 109t-148 162.5t-94.5 202.5t-32 227v4q0 146 51.5 280t143 236t227.5 162.5t294 60.5q222 0 402 -121q83 6 122.5 36t39.5 95q0 19 -39 134h75q31 -77 31 -142q0 -146 -162 -176q117 -104 181.5 -252t64.5 -313v-4q0 -146 -51.5 -280.5
t-143.5 -236.5t-228 -162.5t-294 -60.5zM868 39q139 0 260 54.5t204 146.5t130 215t47 258v4q0 134 -47.5 257.5t-130.5 216.5t-205 148.5t-262 55.5t-261.5 -54.5t-204.5 -146.5t-130 -215t-47 -258v-4q0 -134 48 -257.5t131.5 -216.5t205.5 -148.5t262 -55.5zM924 1579
l-207 209l80 39l178 -248h-51z" />
    <glyph glyph-name="uni1EDD" unicode="&#x1edd;" horiz-adv-x="1302" 
d="M651 -25q-154 0 -277.5 74t-190 196.5t-66.5 266.5v4q0 145 66.5 268t190.5 198t279 75q169 0 305 -92q85 6 125.5 36t40.5 95q0 18 -39 133h76q31 -77 31 -142q0 -77 -41 -118.5t-127 -59.5q77 -75 119.5 -175.5t42.5 -213.5v-4q0 -144 -66.5 -267.5t-190.5 -198.5
t-278 -75zM653 37q133 0 239.5 65t165 174t58.5 238v4q0 129 -59.5 238t-167.5 174t-240 65q-200 0 -330.5 -139t-130.5 -338v-4q0 -129 59.5 -238t167 -174t238.5 -65zM702 1219l-206 208l79 39l179 -247h-52z" />
    <glyph glyph-name="uni1EDE" unicode="&#x1ede;" horiz-adv-x="1730" 
d="M864 -25q-127 0 -240.5 39t-199 109t-148 162.5t-94.5 202.5t-32 227v4q0 146 51.5 280t143 236t227.5 162.5t294 60.5q222 0 402 -121q83 6 122.5 36t39.5 95q0 19 -39 134h75q31 -77 31 -142q0 -146 -162 -176q117 -104 181.5 -252t64.5 -313v-4q0 -146 -51.5 -280.5
t-143.5 -236.5t-228 -162.5t-294 -60.5zM868 39q139 0 260 54.5t204 146.5t130 215t47 258v4q0 134 -47.5 257.5t-130.5 216.5t-205 148.5t-262 55.5t-261.5 -54.5t-204.5 -146.5t-130 -215t-47 -258v-4q0 -134 48 -257.5t131.5 -216.5t205.5 -148.5t262 -55.5zM895 1581
l-6 145q58 5 94.5 29t36.5 62q0 36 -27 60t-69 24q-63 0 -117 -82l-47 28q66 109 164 109q69 0 112 -39.5t43 -99.5q0 -59 -40 -96.5t-97 -49.5q0 -33 -1 -60.5t-1 -29.5h-45z" />
    <glyph glyph-name="uni1EDF" unicode="&#x1edf;" horiz-adv-x="1302" 
d="M651 -25q-154 0 -277.5 74t-190 196.5t-66.5 266.5v4q0 145 66.5 268t190.5 198t279 75q169 0 305 -92q85 6 125.5 36t40.5 95q0 18 -39 133h76q31 -77 31 -142q0 -77 -41 -118.5t-127 -59.5q77 -75 119.5 -175.5t42.5 -213.5v-4q0 -144 -66.5 -267.5t-190.5 -198.5
t-278 -75zM653 37q133 0 239.5 65t165 174t58.5 238v4q0 129 -59.5 238t-167.5 174t-240 65q-200 0 -330.5 -139t-130.5 -338v-4q0 -129 59.5 -238t167 -174t238.5 -65zM672 1208l-6 146q58 5 94.5 29t36.5 61q0 36 -27.5 60t-69.5 24q-62 0 -116 -82l-47 29q65 108 163 108
q69 0 112.5 -39.5t43.5 -99.5q0 -59 -40 -96.5t-97 -49.5q0 -33 -1 -60.5t-1 -29.5h-45z" />
    <glyph glyph-name="uni1EE0" unicode="&#x1ee0;" horiz-adv-x="1730" 
d="M864 -25q-127 0 -240.5 39t-199 109t-148 162.5t-94.5 202.5t-32 227v4q0 146 51.5 280t143 236t227.5 162.5t294 60.5q222 0 402 -121q83 6 122.5 36t39.5 95q0 19 -39 134h75q31 -77 31 -142q0 -146 -162 -176q117 -104 181.5 -252t64.5 -313v-4q0 -146 -51.5 -280.5
t-143.5 -236.5t-228 -162.5t-294 -60.5zM868 39q139 0 260 54.5t204 146.5t130 215t47 258v4q0 134 -47.5 257.5t-130.5 216.5t-205 148.5t-262 55.5t-261.5 -54.5t-204.5 -146.5t-130 -215t-47 -258v-4q0 -134 48 -257.5t131.5 -216.5t205.5 -148.5t262 -55.5zM627 1581
l-45 10q22 94 61 135t96 41q41 0 136 -53t129 -53q37 0 62 26.5t48 92.5l45 -11q-22 -94 -61.5 -134t-96.5 -40q-44 0 -137.5 52.5t-126.5 52.5q-38 0 -62.5 -26t-47.5 -93z" />
    <glyph glyph-name="uni1EE1" unicode="&#x1ee1;" horiz-adv-x="1302" 
d="M651 -25q-154 0 -277.5 74t-190 196.5t-66.5 266.5v4q0 145 66.5 268t190.5 198t279 75q169 0 305 -92q85 6 125.5 36t40.5 95q0 18 -39 133h76q31 -77 31 -142q0 -77 -41 -118.5t-127 -59.5q77 -75 119.5 -175.5t42.5 -213.5v-4q0 -144 -66.5 -267.5t-190.5 -198.5
t-278 -75zM653 37q133 0 239.5 65t165 174t58.5 238v4q0 129 -59.5 238t-167.5 174t-240 65q-200 0 -330.5 -139t-130.5 -338v-4q0 -129 59.5 -238t167 -174t238.5 -65zM412 1219l-45 10q22 94 61 135t96 41q41 0 135.5 -53.5t128.5 -53.5q38 0 63 26.5t48 92.5l45 -10
q-22 -94 -61.5 -134t-96.5 -40q-44 0 -137.5 52t-126.5 52q-38 0 -62.5 -25.5t-47.5 -92.5z" />
    <glyph glyph-name="uni1EE2" unicode="&#x1ee2;" horiz-adv-x="1730" 
d="M864 -25q-127 0 -240.5 39t-199 109t-148 162.5t-94.5 202.5t-32 227v4q0 146 51.5 280t143 236t227.5 162.5t294 60.5q222 0 402 -121q83 6 122.5 36t39.5 95q0 19 -39 134h75q31 -77 31 -142q0 -146 -162 -176q117 -104 181.5 -252t64.5 -313v-4q0 -146 -51.5 -280.5
t-143.5 -236.5t-228 -162.5t-294 -60.5zM868 39q139 0 260 54.5t204 146.5t130 215t47 258v4q0 134 -47.5 257.5t-130.5 216.5t-205 148.5t-262 55.5t-261.5 -54.5t-204.5 -146.5t-130 -215t-47 -258v-4q0 -134 48 -257.5t131.5 -216.5t205.5 -148.5t262 -55.5zM829 -332
v170h72v-170h-72z" />
    <glyph glyph-name="uni1EE3" unicode="&#x1ee3;" horiz-adv-x="1302" 
d="M651 -25q-154 0 -277.5 74t-190 196.5t-66.5 266.5v4q0 145 66.5 268t190.5 198t279 75q169 0 305 -92q85 6 125.5 36t40.5 95q0 18 -39 133h76q31 -77 31 -142q0 -77 -41 -118.5t-127 -59.5q77 -75 119.5 -175.5t42.5 -213.5v-4q0 -144 -66.5 -267.5t-190.5 -198.5
t-278 -75zM653 37q133 0 239.5 65t165 174t58.5 238v4q0 129 -59.5 238t-167.5 174t-240 65q-200 0 -330.5 -139t-130.5 -338v-4q0 -129 59.5 -238t167 -174t238.5 -65zM618 -332v170h72v-170h-72z" />
    <glyph glyph-name="uni1EE4" unicode="&#x1ee4;" horiz-adv-x="1546" 
d="M774 -23q-130 0 -236.5 41t-184.5 120t-120.5 201.5t-42.5 278.5v816h70v-811q0 -281 138.5 -431.5t377.5 -150.5t374.5 147t135.5 430v816h70v-809q0 -313 -157.5 -480.5t-424.5 -167.5zM735 -332v170h72v-170h-72z" />
    <glyph glyph-name="uni1EE5" unicode="&#x1ee5;" horiz-adv-x="1249" 
d="M582 -332v170h71v-170h-71zM596 -25q-199 0 -312.5 124.5t-113.5 328.5v604h66v-594q0 -184 96 -292.5t272 -108.5q164 0 276.5 119t112.5 295v581h66v-1032h-66v246q-20 -50 -52.5 -95t-80.5 -86t-116.5 -65.5t-147.5 -24.5z" />
    <glyph glyph-name="uni1EE6" unicode="&#x1ee6;" horiz-adv-x="1546" 
d="M774 -23q-130 0 -236.5 41t-184.5 120t-120.5 201.5t-42.5 278.5v816h70v-811q0 -281 138.5 -431.5t377.5 -150.5t374.5 147t135.5 430v816h70v-809q0 -313 -157.5 -480.5t-424.5 -167.5zM786 1581l-6 145q58 5 94.5 29t36.5 62q0 36 -27 60t-69 24q-63 0 -117 -82
l-47 28q66 109 164 109q69 0 112.5 -39.5t43.5 -99.5q0 -59 -40 -96.5t-97 -49.5q0 -33 -1.5 -60.5t-1.5 -29.5h-45z" />
    <glyph glyph-name="uni1EE7" unicode="&#x1ee7;" horiz-adv-x="1249" 
d="M596 -25q-199 0 -312.5 124.5t-113.5 328.5v604h66v-594q0 -184 96 -292.5t272 -108.5q164 0 276.5 119t112.5 295v581h66v-1032h-66v246q-20 -50 -52.5 -95t-80.5 -86t-116.5 -65.5t-147.5 -24.5zM631 1208l-6 146q58 5 94.5 29t36.5 61q0 36 -27.5 60t-69.5 24
q-62 0 -116 -82l-47 29q65 108 163 108q69 0 112.5 -39.5t43.5 -99.5q0 -59 -40 -96.5t-97 -49.5q0 -33 -1 -60.5t-1 -29.5h-45z" />
    <glyph glyph-name="uni1EE8" unicode="&#x1ee8;" 
d="M774 -23q-130 0 -236.5 41t-184.5 120t-120.5 201.5t-42.5 278.5v816h70v-811q0 -281 138.5 -431.5t377.5 -150.5t374.5 147t135.5 430v816h55q68 11 100 40t32 87q0 18 -39 133h75q31 -77 31 -142q0 -81 -45.5 -124.5t-138.5 -55.5v-747q0 -313 -157.5 -480.5
t-424.5 -167.5zM688 1559l178 247l80 -39l-207 -208h-51z" />
    <glyph glyph-name="uni1EE9" unicode="&#x1ee9;" horiz-adv-x="1329" 
d="M596 -25q-199 0 -312.5 124.5t-113.5 328.5v604h66v-594q0 -184 96 -292.5t272 -108.5q164 0 276.5 119t112.5 295v581h66v-4q63 11 92 39t29 86q0 18 -39 133h76q30 -74 30 -141q0 -81 -46.5 -124.5t-141.5 -55.5v-965h-66v246q-20 -50 -52.5 -95t-80.5 -86
t-116.5 -65.5t-147.5 -24.5zM532 1212l179 248l80 -39l-207 -209h-52z" />
    <glyph glyph-name="uni1EEA" unicode="&#x1eea;" 
d="M774 -23q-130 0 -236.5 41t-184.5 120t-120.5 201.5t-42.5 278.5v816h70v-811q0 -281 138.5 -431.5t377.5 -150.5t374.5 147t135.5 430v816h55q68 11 100 40t32 87q0 18 -39 133h75q31 -77 31 -142q0 -81 -45.5 -124.5t-138.5 -55.5v-747q0 -313 -157.5 -480.5
t-424.5 -167.5zM803 1556l-207 209l80 39l178 -248h-51z" />
    <glyph glyph-name="uni1EEB" unicode="&#x1eeb;" horiz-adv-x="1329" 
d="M596 -25q-199 0 -312.5 124.5t-113.5 328.5v604h66v-594q0 -184 96 -292.5t272 -108.5q164 0 276.5 119t112.5 295v581h66v-4q63 11 92 39t29 86q0 18 -39 133h76q30 -74 30 -141q0 -81 -46.5 -124.5t-141.5 -55.5v-965h-66v246q-20 -50 -52.5 -95t-80.5 -86
t-116.5 -65.5t-147.5 -24.5zM645 1212l-207 209l80 39l178 -248h-51z" />
    <glyph glyph-name="uni1EEC" unicode="&#x1eec;" 
d="M774 -23q-130 0 -236.5 41t-184.5 120t-120.5 201.5t-42.5 278.5v816h70v-811q0 -281 138.5 -431.5t377.5 -150.5t374.5 147t135.5 430v816h55q68 11 100 40t32 87q0 18 -39 133h75q31 -77 31 -142q0 -81 -45.5 -124.5t-138.5 -55.5v-747q0 -313 -157.5 -480.5
t-424.5 -167.5zM786 1581l-6 145q58 5 94.5 29t36.5 62q0 36 -27 60t-69 24q-63 0 -117 -82l-47 28q66 109 164 109q69 0 112.5 -39.5t43.5 -99.5q0 -59 -40 -96.5t-97 -49.5q0 -33 -1.5 -60.5t-1.5 -29.5h-45z" />
    <glyph glyph-name="uni1EED" unicode="&#x1eed;" horiz-adv-x="1329" 
d="M596 -25q-199 0 -312.5 124.5t-113.5 328.5v604h66v-594q0 -184 96 -292.5t272 -108.5q164 0 276.5 119t112.5 295v581h66v-4q63 11 92 39t29 86q0 18 -39 133h76q30 -74 30 -141q0 -81 -46.5 -124.5t-141.5 -55.5v-965h-66v246q-20 -50 -52.5 -95t-80.5 -86
t-116.5 -65.5t-147.5 -24.5zM631 1208l-6 146q58 5 94.5 29t36.5 61q0 36 -27.5 60t-69.5 24q-62 0 -116 -82l-47 29q65 108 163 108q69 0 112.5 -39.5t43.5 -99.5q0 -59 -40 -96.5t-97 -49.5q0 -33 -1 -60.5t-1 -29.5h-45z" />
    <glyph glyph-name="uni1EEE" unicode="&#x1eee;" 
d="M774 -23q-130 0 -236.5 41t-184.5 120t-120.5 201.5t-42.5 278.5v816h70v-811q0 -281 138.5 -431.5t377.5 -150.5t374.5 147t135.5 430v816h55q68 11 100 40t32 87q0 18 -39 133h75q31 -77 31 -142q0 -81 -45.5 -124.5t-138.5 -55.5v-747q0 -313 -157.5 -480.5
t-424.5 -167.5zM530 1565l-45 10q22 94 61.5 135t96.5 41q41 0 135.5 -53t128.5 -53q38 0 63 26t48 92l45 -10q-22 -94 -61.5 -134t-96.5 -40q-44 0 -137.5 52t-126.5 52q-38 0 -63 -25.5t-48 -92.5z" />
    <glyph glyph-name="uni1EEF" unicode="&#x1eef;" horiz-adv-x="1329" 
d="M596 -25q-199 0 -312.5 124.5t-113.5 328.5v604h66v-594q0 -184 96 -292.5t272 -108.5q164 0 276.5 119t112.5 295v581h66v-4q63 11 92 39t29 86q0 18 -39 133h76q30 -74 30 -141q0 -81 -46.5 -124.5t-141.5 -55.5v-965h-66v246q-20 -50 -52.5 -95t-80.5 -86
t-116.5 -65.5t-147.5 -24.5zM365 1219l-46 10q22 94 61.5 135t96.5 41q41 0 135.5 -53.5t128.5 -53.5q38 0 63 26.5t48 92.5l45 -10q-22 -94 -61.5 -134t-96.5 -40q-44 0 -137.5 52t-126.5 52q-38 0 -62.5 -25.5t-47.5 -92.5z" />
    <glyph glyph-name="uni1EF0" unicode="&#x1ef0;" 
d="M774 -23q-130 0 -236.5 41t-184.5 120t-120.5 201.5t-42.5 278.5v816h70v-811q0 -281 138.5 -431.5t377.5 -150.5t374.5 147t135.5 430v816h55q68 11 100 40t32 87q0 18 -39 133h75q31 -77 31 -142q0 -81 -45.5 -124.5t-138.5 -55.5v-747q0 -313 -157.5 -480.5
t-424.5 -167.5zM735 -332v170h72v-170h-72z" />
    <glyph glyph-name="uni1EF1" unicode="&#x1ef1;" horiz-adv-x="1329" 
d="M596 -25q-199 0 -312.5 124.5t-113.5 328.5v604h66v-594q0 -184 96 -292.5t272 -108.5q164 0 276.5 119t112.5 295v581h66v-4q63 11 92 39t29 86q0 18 -39 133h76q30 -74 30 -141q0 -81 -46.5 -124.5t-141.5 -55.5v-965h-66v246q-20 -50 -52.5 -95t-80.5 -86
t-116.5 -65.5t-147.5 -24.5zM582 -332v170h71v-170h-71z" />
    <glyph glyph-name="Ygrave" unicode="&#x1ef2;" horiz-adv-x="1394" 
d="M664 0v588l-611 846h86l561 -785l557 785h84l-608 -846v-588h-69zM598 1776l199 -220h-60l-215 181z" />
    <glyph glyph-name="ygrave" unicode="&#x1ef3;" horiz-adv-x="1181" 
d="M297 -334q-109 0 -199 51l27 56q82 -45 174 -45q89 0 149 57t132 217l-496 1030h74l454 -960l416 960h70l-465 -1059q-79 -178 -153 -242.5t-183 -64.5zM633 1212l-207 209l80 39l178 -248h-51z" />
    <glyph glyph-name="uni1EF4" unicode="&#x1ef4;" horiz-adv-x="1394" 
d="M664 -332v170h71v-170h-71zM664 0v588l-611 846h86l561 -785l557 785h84l-608 -846v-588h-69z" />
    <glyph glyph-name="uni1EF5" unicode="&#x1ef5;" horiz-adv-x="1181" 
d="M702 -332v170h72v-170h-72zM297 -334q-109 0 -199 51l27 56q82 -45 174 -45q89 0 149 57t132 217l-496 1030h74l454 -960l416 960h70l-465 -1059q-79 -178 -153 -242.5t-183 -64.5z" />
    <glyph glyph-name="uni1EF6" unicode="&#x1ef6;" horiz-adv-x="1394" 
d="M664 0v588l-611 846h86l561 -785l557 785h84l-608 -846v-588h-69zM696 1581l-6 145q58 5 94.5 29t36.5 62q0 36 -27 60t-69 24q-63 0 -117 -82l-47 28q66 109 164 109q69 0 112.5 -39.5t43.5 -99.5q0 -59 -40.5 -96.5t-97.5 -49.5q0 -33 -1 -60.5t-1 -29.5h-45z" />
    <glyph glyph-name="uni1EF7" unicode="&#x1ef7;" horiz-adv-x="1181" 
d="M297 -334q-109 0 -199 51l27 56q82 -45 174 -45q89 0 149 57t132 217l-496 1030h74l454 -960l416 960h70l-465 -1059q-79 -178 -153 -242.5t-183 -64.5zM590 1208l-6 146q58 5 94.5 29t36.5 61q0 36 -27.5 60t-69.5 24q-62 0 -116 -82l-47 29q65 108 163 108
q69 0 112.5 -39.5t43.5 -99.5q0 -59 -40 -96.5t-97 -49.5q0 -33 -1 -60.5t-1 -29.5h-45z" />
    <glyph glyph-name="uni1EF8" unicode="&#x1ef8;" horiz-adv-x="1394" 
d="M467 1565l-45 10q22 94 61.5 135t96.5 41q41 0 135.5 -53t128.5 -53q38 0 62.5 26t47.5 92l45 -10q-22 -94 -61 -134t-96 -40q-44 0 -137.5 52t-126.5 52q-38 0 -63 -25.5t-48 -92.5zM664 0v588l-611 846h86l561 -785l557 785h84l-608 -846v-588h-69z" />
    <glyph glyph-name="uni1EF9" unicode="&#x1ef9;" horiz-adv-x="1181" 
d="M297 -334q-109 0 -199 51l27 56q82 -45 174 -45q89 0 149 57t132 217l-496 1030h74l454 -960l416 960h70l-465 -1059q-79 -178 -153 -242.5t-183 -64.5zM367 1219l-45 10q22 94 61 135t96 41q41 0 135.5 -53.5t128.5 -53.5q38 0 63 26.5t48 92.5l45 -10
q-22 -94 -61.5 -134t-96.5 -40q-44 0 -137.5 52t-126.5 52q-38 0 -62.5 -25.5t-47.5 -92.5z" />
    <glyph glyph-name="uni1EFA" unicode="&#x1efa;" horiz-adv-x="1460" 
d="M1333 1626h78q31 -77 31 -141q0 -92 -61 -136t-187 -49v62q95 5 137.5 33.5t42.5 97.5q0 8 -4.5 25t-9.5 31.5t-14 40t-13 36.5z" />
    <glyph glyph-name="uni1EFB" unicode="&#x1efb;" horiz-adv-x="0" 
d="M748 1534l-3 154q62 5 98 28.5t36 65.5q0 37 -27.5 62.5t-73.5 25.5q-67 0 -121 -86l-51 31q68 114 172 114q73 0 118.5 -41.5t45.5 -105.5q0 -62 -42 -102.5t-103 -51.5q0 -33 -1 -62.5t-1 -31.5h-47z" />
    <glyph glyph-name="enspace" unicode="&#x2002;" horiz-adv-x="1024" 
 />
    <glyph glyph-name="emspace" unicode="&#x2003;" horiz-adv-x="2048" 
 />
    <glyph glyph-name="threeperemspace" unicode="&#x2004;" horiz-adv-x="681" 
 />
    <glyph glyph-name="fourperemspace" unicode="&#x2005;" horiz-adv-x="512" 
 />
    <glyph glyph-name="thinspace" unicode="&#x2009;" horiz-adv-x="272" 
 />
    <glyph glyph-name="hairspace" unicode="&#x200a;" horiz-adv-x="153" 
 />
    <glyph glyph-name="endash" unicode="&#x2013;" horiz-adv-x="1093" 
d="M143 575v66h807v-66h-807z" />
    <glyph glyph-name="emdash" unicode="&#x2014;" horiz-adv-x="1835" 
d="M143 575v66h1549v-66h-1549z" />
    <glyph glyph-name="quoteleft" unicode="&#x2018;" horiz-adv-x="389" 
d="M141 1120v117q0 90 26 135t89 70l18 -37q-47 -23 -64.5 -58.5t-12.5 -93.5h43v-133h-99z" />
    <glyph glyph-name="quoteright" unicode="&#x2019;" horiz-adv-x="389" 
d="M135 1112l-18 37q47 23 65 58t13 93h-45v134h98v-117q0 -90 -25.5 -135t-87.5 -70z" />
    <glyph glyph-name="quotesinglbase" unicode="&#x201a;" horiz-adv-x="389" 
d="M131 -186l-18 34q47 23 64.5 58.5t12.5 93.5h-45v133h99v-117q0 -90 -25.5 -134t-87.5 -68z" />
    <glyph glyph-name="quotedblleft" unicode="&#x201c;" horiz-adv-x="647" 
d="M399 1120v117q0 90 26 135t89 70l18 -37q-47 -23 -64.5 -58.5t-12.5 -93.5h43v-133h-99zM141 1120v117q0 90 26 135t89 70l18 -37q-47 -23 -64.5 -58.5t-12.5 -93.5h43v-133h-99z" />
    <glyph glyph-name="quotedblright" unicode="&#x201d;" horiz-adv-x="647" 
d="M393 1112l-18 37q47 23 65 58t13 93h-45v134h98v-117q0 -90 -25.5 -135t-87.5 -70zM135 1112l-18 37q47 23 65 58t13 93h-45v134h98v-117q0 -90 -25.5 -135t-87.5 -70z" />
    <glyph glyph-name="quotedblbase" unicode="&#x201e;" horiz-adv-x="647" 
d="M389 -186l-18 34q47 23 65 58.5t13 93.5h-46v133h99v-117q0 -90 -25.5 -134t-87.5 -68zM131 -186l-18 34q47 23 64.5 58.5t12.5 93.5h-45v133h99v-117q0 -90 -25.5 -134t-87.5 -68z" />
    <glyph glyph-name="dagger" unicode="&#x2020;" horiz-adv-x="813" 
d="M373 487l12 600l-256 -14v64l256 -13l-12 310h67l-12 -310l256 13v-64l-256 14l10 -600h-65z" />
    <glyph glyph-name="daggerdbl" unicode="&#x2021;" horiz-adv-x="829" 
d="M381 0l12 309l-256 -12v63l256 -14l-10 371l10 370l-256 -14v64l256 -13l-12 310h68l-13 -310l256 13v-64l-256 14l10 -370l-10 -371l256 14v-63l-256 12l13 -309h-68z" />
    <glyph glyph-name="bullet" unicode="&#x2022;" horiz-adv-x="913" 
d="M459 492q-95 0 -164.5 67.5t-69.5 161.5v4q0 92 70 159.5t164 67.5q93 0 162 -67.5t69 -159.5v-4q0 -94 -68.5 -161.5t-162.5 -67.5z" />
    <glyph glyph-name="ellipsis" unicode="&#x2026;" horiz-adv-x="1150" 
d="M909 0v131h97v-131h-97zM528 0v131h97v-131h-97zM145 0v131h97v-131h-97z" />
    <glyph glyph-name="perthousand" unicode="&#x2030;" horiz-adv-x="2414" 
d="M428 715q-139 0 -228 107.5t-89 256.5v4q0 148 89.5 257.5t227.5 109.5t227.5 -108.5t89.5 -256.5v-4q0 -151 -89 -258.5t-228 -107.5zM264 0l1053 1434h69l-1052 -1434h-70zM1987 -16q-139 0 -228.5 107.5t-89.5 256.5v4q0 148 90 257.5t228 109.5t227.5 -108.5
t89.5 -256.5v-4q0 -151 -89 -258.5t-228 -107.5zM1223 -16q-139 0 -228.5 107.5t-89.5 256.5v4q0 148 90 257.5t228 109.5t227.5 -108.5t89.5 -256.5v-4q0 -151 -89 -258.5t-228 -107.5zM430 772q109 0 177.5 89t68.5 216v4q0 127 -71 218.5t-179 91.5t-177 -90t-69 -216v-4
q0 -129 71.5 -219t178.5 -90zM1989 43q110 0 177.5 88.5t67.5 216.5v4q0 128 -70.5 219t-178.5 91t-177 -90t-69 -216v-4q0 -129 71.5 -219t178.5 -90zM1225 43q110 0 177.5 88.5t67.5 216.5v4q0 128 -70.5 219t-178.5 91t-177 -90t-69 -216v-4q0 -129 71.5 -219t178.5 -90z
" />
    <glyph glyph-name="guilsinglleft" unicode="&#x2039;" horiz-adv-x="614" 
d="M442 92l-346 424v12l346 424l45 -32l-313 -398l313 -397z" />
    <glyph glyph-name="guilsinglright" unicode="&#x203a;" horiz-adv-x="614" 
d="M170 92l-45 33l313 397l-313 398l45 32l348 -424v-12z" />
    <glyph glyph-name="fraction" unicode="&#x2044;" horiz-adv-x="921" 
d="M-61 0l501 727l475 707h68l-502 -727l-475 -707h-67z" />
    <glyph glyph-name="Euro" unicode="&#x20ac;" horiz-adv-x="1474" 
d="M872 -25q-219 0 -372 148t-203 397h-188v64h178q-6 64 -6 129v4q0 81 12 151h-184v66h194q55 231 205 377.5t350 146.5q170 0 285 -75t205 -214l-56 -36q-85 131 -185.5 197.5t-250.5 66.5q-174 0 -304 -128.5t-181 -334.5h616v-66h-629q-12 -94 -12 -149v-4
q0 -74 8 -131h633v-64h-620q45 -218 181 -350.5t326 -132.5q139 0 241 73.5t183 204.5l54 -32q-91 -145 -206 -226.5t-274 -81.5z" />
    <glyph glyph-name="published" unicode="&#x2117;" horiz-adv-x="1699" 
d="M850 -25q-204 0 -375 99.5t-268.5 269.5t-97.5 371v4q0 200 99 370t270 269.5t372 99.5q153 0 290.5 -58.5t236 -157.5t156.5 -235.5t58 -287.5v-4q0 -150 -58.5 -286.5t-157.5 -236t-236.5 -158.5t-288.5 -59zM850 18q142 0 271 55.5t221.5 149.5t147 222.5t54.5 269.5
v4q0 141 -54.5 270t-147 222t-221.5 148.5t-271 55.5q-143 0 -272 -55.5t-221.5 -149t-146.5 -222t-54 -269.5v-4q0 -189 91.5 -349t251.5 -254t351 -94zM623 346v750h276q132 0 209.5 -60.5t77.5 -169.5v-4q0 -114 -84 -176.5t-213 -62.5h-207v-277h-59zM682 678h207
q110 0 173.5 47.5t63.5 132.5v4q0 86 -61.5 132t-169.5 46h-213v-362z" />
    <glyph glyph-name="servicemark" unicode="&#x2120;" horiz-adv-x="1417" 
d="M328 793q-146 0 -258 100l30 35q100 -92 230 -92q73 0 119.5 36.5t46.5 92.5q0 52 -39.5 82t-145.5 53q-114 24 -165.5 64.5t-51.5 111.5q0 72 60.5 120t152.5 48q125 0 219 -76l-28 -35q-86 68 -193 68q-72 0 -117 -35.5t-45 -87.5t40.5 -82t148.5 -53
q118 -26 165.5 -65t47.5 -111q0 -75 -62 -124.5t-155 -49.5zM713 803v631h47l258 -379l258 379h47v-631h-47v545l-256 -371h-6l-254 371v-545h-47z" />
    <glyph glyph-name="trademark" unicode="&#x2122;" horiz-adv-x="1372" 
d="M666 803v631h47l258 -379l258 379h47v-631h-47v545l-256 -371h-6l-254 371v-545h-47zM260 803v583h-217v48h481v-48h-217v-583h-47z" />
    <glyph glyph-name="minus" unicode="&#x2212;" horiz-adv-x="1245" 
d="M1102 690h-959v62h959v-62z" />
    <glyph glyph-name="f_f" unicode="&#xfb00;" horiz-adv-x="1392" 
d="M954 0v973h-157v59h157v129q0 178 86 264q79 76 205 76q74 0 150 -26v-64q-67 27 -150 27q-225 0 -225 -283v-123h371v-59h-371v-973h-66zM258 0v973h-158v59h158v129q0 182 88 264q76 76 203 76q79 0 149 -26v-64q-67 27 -149 27q-225 0 -225 -283v-123h370v-59h-370
v-973h-66z" />
    <glyph glyph-name="fi" unicode="&#xfb01;" horiz-adv-x="1169" 
d="M889 1317v125h88v-125h-88zM258 0v973h-158v59h158v129q0 182 88 264q76 76 203 76q79 0 149 -26v-64q-67 27 -149 27q-225 0 -225 -283v-123h370v-59h-370v-973h-66zM899 0v1032h66v-1032h-66z" />
    <glyph glyph-name="fl" unicode="&#xfb02;" horiz-adv-x="1169" 
d="M258 0v973h-158v59h158v129q0 182 88 264q76 76 203 76q79 0 149 -26v-64q-67 27 -149 27q-225 0 -225 -283v-123h370v-59h-370v-973h-66zM899 0v1495h66v-1495h-66z" />
    <glyph glyph-name="f_f_i" unicode="&#xfb03;" horiz-adv-x="1865" 
d="M1585 1317v125h88v-125h-88zM954 0v973h-157v59h157v129q0 178 86 264q79 76 205 76q74 0 150 -26v-64q-67 27 -150 27q-225 0 -225 -283v-123h371v-59h-371v-973h-66zM258 0v973h-158v59h158v129q0 182 88 264q76 76 203 76q79 0 149 -26v-64q-67 27 -149 27
q-225 0 -225 -283v-123h370v-59h-370v-973h-66zM1595 0v1032h66v-1032h-66z" />
    <glyph glyph-name="f_f_l" unicode="&#xfb04;" horiz-adv-x="1865" 
d="M954 0v973h-157v59h157v129q0 178 86 264q79 76 205 76q74 0 150 -26v-64q-67 27 -150 27q-225 0 -225 -283v-123h371v-59h-371v-973h-66zM258 0v973h-158v59h158v129q0 182 88 264q76 76 203 76q79 0 149 -26v-64q-67 27 -149 27q-225 0 -225 -283v-123h370v-59h-370
v-973h-66zM1595 0v1495h66v-1495h-66z" />
    <glyph glyph-name="NUL" horiz-adv-x="0" 
 />
    <glyph glyph-name="CR" horiz-adv-x="589" 
 />
    <glyph glyph-name="Q.alt" horiz-adv-x="1730" 
d="M1546 -207l-309 285q-162 -103 -373 -103q-127 0 -240.5 39t-199 109t-148 162.5t-94.5 202.5t-32 227v4q0 146 51.5 280t143 236t227.5 162.5t294 60.5t294 -60.5t227 -162.5t142.5 -236t51.5 -280v-4q0 -180 -75 -337t-210 -261l338 -318v-6h-88zM868 39
q139 0 260 54.5t204 146.5t130 215t47 258v4q0 134 -47.5 257.5t-130.5 216.5t-205 148.5t-262 55.5t-261.5 -54.5t-204.5 -146.5t-130 -215t-47 -258v-4q0 -134 48 -257.5t131.5 -216.5t205.5 -148.5t262 -55.5z" />
    <glyph glyph-name="a.alt" horiz-adv-x="1345" 
d="M633 -25q-104 0 -197.5 40.5t-162.5 110.5t-109.5 171t-40.5 217v4q0 115 40.5 216t109.5 171.5t162.5 111t197.5 40.5q163 0 281 -85t176 -220v280h65v-1032h-65v285q-55 -136 -176 -223t-281 -87zM639 39q189 0 322 138t133 337v4q0 199 -133 337t-322 138
q-196 0 -321 -133t-125 -340v-4q0 -204 127 -340.5t319 -136.5z" />
    <glyph glyph-name="aacute.alt" horiz-adv-x="1345" 
d="M645 1219l178 247l80 -39l-207 -208h-51zM633 -25q-104 0 -197.5 40.5t-162.5 110.5t-109.5 171t-40.5 217v4q0 115 40.5 216t109.5 171.5t162.5 111t197.5 40.5q163 0 281 -85t176 -220v280h65v-1032h-65v285q-55 -136 -176 -223t-281 -87zM639 39q189 0 322 138
t133 337v4q0 199 -133 337t-322 138q-196 0 -321 -133t-125 -340v-4q0 -204 127 -340.5t319 -136.5z" />
    <glyph glyph-name="abreve.alt" horiz-adv-x="1345" 
d="M633 -25q-104 0 -197.5 40.5t-162.5 110.5t-109.5 171t-40.5 217v4q0 115 40.5 216t109.5 171.5t162.5 111t197.5 40.5q163 0 281 -85t176 -220v280h65v-1032h-65v285q-55 -136 -176 -223t-281 -87zM639 39q189 0 322 138t133 337v4q0 199 -133 337t-322 138
q-196 0 -321 -133t-125 -340v-4q0 -204 127 -340.5t319 -136.5zM676 1217q-114 0 -182.5 58.5t-79.5 154.5h51q19 -66 72 -109t139 -43q87 0 139.5 42.5t71.5 109.5h51q-11 -96 -79.5 -154.5t-182.5 -58.5z" />
    <glyph glyph-name="acircumflex.alt" horiz-adv-x="1345" 
d="M440 1219l211 237h49l211 -237h-59l-176 161l-176 -161h-60zM633 -25q-104 0 -197.5 40.5t-162.5 110.5t-109.5 171t-40.5 217v4q0 115 40.5 216t109.5 171.5t162.5 111t197.5 40.5q163 0 281 -85t176 -220v280h65v-1032h-65v285q-55 -136 -176 -223t-281 -87zM639 39
q189 0 322 138t133 337v4q0 199 -133 337t-322 138q-196 0 -321 -133t-125 -340v-4q0 -204 127 -340.5t319 -136.5z" />
    <glyph glyph-name="adieresis.alt" horiz-adv-x="1345" 
d="M772 1241v127h100v-127h-100zM479 1241v127h101v-127h-101zM633 -25q-104 0 -197.5 40.5t-162.5 110.5t-109.5 171t-40.5 217v4q0 115 40.5 216t109.5 171.5t162.5 111t197.5 40.5q163 0 281 -85t176 -220v280h65v-1032h-65v285q-55 -136 -176 -223t-281 -87zM639 39
q189 0 322 138t133 337v4q0 199 -133 337t-322 138q-196 0 -321 -133t-125 -340v-4q0 -204 127 -340.5t319 -136.5z" />
    <glyph glyph-name="agrave.alt" horiz-adv-x="1345" 
d="M633 -25q-104 0 -197.5 40.5t-162.5 110.5t-109.5 171t-40.5 217v4q0 115 40.5 216t109.5 171.5t162.5 111t197.5 40.5q163 0 281 -85t176 -220v280h65v-1032h-65v285q-55 -136 -176 -223t-281 -87zM639 39q189 0 322 138t133 337v4q0 199 -133 337t-322 138
q-196 0 -321 -133t-125 -340v-4q0 -204 127 -340.5t319 -136.5zM657 1219l-206 208l79 39l179 -247h-52z" />
    <glyph glyph-name="amacron.alt" horiz-adv-x="1345" 
d="M633 -25q-104 0 -197.5 40.5t-162.5 110.5t-109.5 171t-40.5 217v4q0 115 40.5 216t109.5 171.5t162.5 111t197.5 40.5q163 0 281 -85t176 -220v280h65v-1032h-65v285q-55 -136 -176 -223t-281 -87zM639 39q189 0 322 138t133 337v4q0 199 -133 337t-322 138
q-196 0 -321 -133t-125 -340v-4q0 -204 127 -340.5t319 -136.5zM395 1272v61h561v-61h-561z" />
    <glyph glyph-name="aogonek.alt" horiz-adv-x="1345" 
d="M1198 -281v-49q-109 1 -174.5 44.5t-65.5 111.5q0 98 132 188v271q-55 -136 -176 -223t-281 -87q-104 0 -197.5 40.5t-162.5 110.5t-109.5 171t-40.5 217v4q0 115 40.5 216t109.5 171.5t162.5 111t197.5 40.5q163 0 281 -85t176 -220v280h65v-1032h-10
q-117 -82 -117 -166q0 -103 170 -115zM639 39q189 0 322 138t133 337v4q0 199 -133 337t-322 138q-196 0 -321 -133t-125 -340v-4q0 -204 127 -340.5t319 -136.5z" />
    <glyph glyph-name="aring.alt" horiz-adv-x="1345" 
d="M471 1411q0 82 60 139.5t145 57.5t145 -57.5t60 -139.5q0 -80 -60 -137t-145 -57t-145 57t-60 137zM522 1411q0 -63 44 -107t110 -44t109.5 44t43.5 107q0 64 -44 109t-109 45t-109.5 -45t-44.5 -109zM633 -25q-104 0 -197.5 40.5t-162.5 110.5t-109.5 171t-40.5 217v4
q0 115 40.5 216t109.5 171.5t162.5 111t197.5 40.5q163 0 281 -85t176 -220v280h65v-1032h-65v285q-55 -136 -176 -223t-281 -87zM639 39q189 0 322 138t133 337v4q0 199 -133 337t-322 138q-196 0 -321 -133t-125 -340v-4q0 -204 127 -340.5t319 -136.5z" />
    <glyph glyph-name="aring.alt2" horiz-adv-x="1165" 
d="M381 1200q0 82 60 139.5t145 57.5t145 -57.5t60 -139.5q0 -52 -27 -95t-72 -69q123 -25 201 -100q102 -105 102 -293v-643h-65v215q-46 -97 -158.5 -168.5t-275.5 -71.5q-76 0 -145.5 20.5t-125 58.5t-88.5 99.5t-33 137.5v4q0 157 127 244.5t330 87.5q193 0 369 -58v70
q0 174 -96 261t-273 87q-161 0 -336 -86l-24 57q142 66 268 84q-88 56 -88 158zM500 37q185 0 308.5 101t123.5 243v127q-173 57 -373 57q-174 0 -279.5 -70t-105.5 -196v-4q0 -122 94.5 -190t231.5 -68zM430 1200q0 -63 45 -107t111 -44q63 0 108 44t45 107t-45 107.5
t-108 44.5q-66 0 -111 -44.5t-45 -107.5z" />
    <glyph glyph-name="aringacute.alt" horiz-adv-x="1345" 
d="M643 1681l182 211l76 -37l-203 -174h-55zM471 1411q0 82 60 139.5t145 57.5t145 -57.5t60 -139.5q0 -80 -60 -137t-145 -57t-145 57t-60 137zM522 1411q0 -63 44 -107t110 -44t109.5 44t43.5 107q0 64 -44 109t-109 45t-109.5 -45t-44.5 -109zM633 -25
q-104 0 -197.5 40.5t-162.5 110.5t-109.5 171t-40.5 217v4q0 115 40.5 216t109.5 171.5t162.5 111t197.5 40.5q163 0 281 -85t176 -220v280h65v-1032h-65v285q-55 -136 -176 -223t-281 -87zM639 39q189 0 322 138t133 337v4q0 199 -133 337t-322 138q-196 0 -321 -133
t-125 -340v-4q0 -204 127 -340.5t319 -136.5z" />
    <glyph glyph-name="aringacute.alt2" horiz-adv-x="1165" 
d="M551 1479l182 211l76 -39l-203 -172h-55zM381 1200q0 82 60 139.5t145 57.5t145 -57.5t60 -139.5q0 -52 -27 -95t-72 -69q123 -25 201 -100q102 -105 102 -293v-643h-65v215q-46 -97 -158.5 -168.5t-275.5 -71.5q-76 0 -145.5 20.5t-125 58.5t-88.5 99.5t-33 137.5v4
q0 157 127 244.5t330 87.5q193 0 369 -58v70q0 174 -96 261t-273 87q-161 0 -336 -86l-24 57q142 66 268 84q-88 56 -88 158zM500 37q185 0 308.5 101t123.5 243v127q-173 57 -373 57q-174 0 -279.5 -70t-105.5 -196v-4q0 -122 94.5 -190t231.5 -68zM430 1200q0 -63 45 -107
t111 -44q63 0 108 44t45 107t-45 107.5t-108 44.5q-66 0 -111 -44.5t-45 -107.5z" />
    <glyph glyph-name="atilde.alt" horiz-adv-x="1345" 
d="M633 -25q-104 0 -197.5 40.5t-162.5 110.5t-109.5 171t-40.5 217v4q0 115 40.5 216t109.5 171.5t162.5 111t197.5 40.5q163 0 281 -85t176 -220v280h65v-1032h-65v285q-55 -136 -176 -223t-281 -87zM639 39q189 0 322 138t133 337v4q0 199 -133 337t-322 138
q-196 0 -321 -133t-125 -340v-4q0 -204 127 -340.5t319 -136.5zM438 1219l-45 10q22 94 61.5 135t96.5 41q41 0 135.5 -53.5t128.5 -53.5q38 0 63 26.5t48 92.5l45 -10q-22 -94 -61.5 -134t-96.5 -40q-44 0 -137.5 52t-126.5 52q-38 0 -63 -25.5t-48 -92.5z" />
    <glyph glyph-name="three.alt" horiz-adv-x="1179" 
d="M594 -25q-164 0 -298 70.5t-224 192.5l57 43q81 -114 200 -178t267 -64q171 0 287 93t116 243v4q0 155 -120 234t-328 79h-154v64h156q180 0 295 87t115 234v4q0 132 -109 223t-274 91q-260 0 -424 -238l-54 33q82 124 204 196t276 72q197 0 324.5 -108.5t127.5 -266.5
v-4q0 -140 -88.5 -230.5t-218.5 -117.5q73 -15 132.5 -42t108.5 -68.5t76 -102.5t27 -137v-4q0 -172 -137.5 -287t-339.5 -115z" />
    <glyph glyph-name="registered.alt" horiz-adv-x="1699" 
d="M850 -25q-204 0 -375 99.5t-268.5 269.5t-97.5 371v4q0 200 99 370t270 269.5t372 99.5q153 0 290.5 -58.5t236 -157.5t156.5 -235.5t58 -287.5v-4q0 -150 -58.5 -286.5t-157.5 -236t-236.5 -158.5t-288.5 -59zM850 18q142 0 271 55.5t221.5 149.5t147 222.5t54.5 269.5
v4q0 141 -54.5 270t-147 222t-221.5 148.5t-271 55.5q-143 0 -272 -55.5t-221.5 -149t-146.5 -222t-54 -269.5v-4q0 -189 91.5 -349t251.5 -254t351 -94zM575 362v750h322q144 0 215 -74q57 -51 57 -137v-4q0 -91 -59 -146t-160 -69l248 -320h-76l-241 312h-244v-312h-62z
M637 729h252q101 0 160 43.5t59 120.5v4q0 74 -56.5 117t-158.5 43h-256v-328z" />
    <glyph glyph-name="hfjslug" horiz-adv-x="1421" 
d="M1319 -410h-426l-16 29h-334l-17 -29h-424v621q29 0 47.5 18t18.5 47q0 27 -18.5 46.5t-47.5 19.5v1135h205l62 161h684l59 -161h207v-1887zM819 1153v-352h31v160h78v28h-78v135h88v29h-119zM377 1153v-352h31v162h96v-162h31v352h-31v-162h-96v162h-31zM942 838v-31
q19 -8 43 -8q64 0 64 73v281h-33v-281q0 -45 -33 -45q-23 0 -41 11zM760 952l-27 6q-3 -9 -8 -30.5t-8 -30.5h-2l-33 64q47 44 47 86q0 63 -55 63q-26 0 -42 -18t-16 -45q0 -9 1 -16.5t4.5 -16.5t6 -13.5t9 -16.5t8.5 -17q-47 -38 -47 -97q0 -35 16 -55t43 -20q39 0 60 49h2
l24 -49l25 12l-35 65q18 45 27 80zM1071 662v-95h16v25l17 16l31 -41h20l-41 54l37 41h-21l-40 -50h-3v50h-16zM999 598l21 -31h18l-24 35q20 9 20 29q0 31 -35 31h-41v-95h17v31h24zM872 565q23 0 36.5 14t13.5 35q0 20 -14 35t-36 15t-35.5 -15t-13.5 -35q0 -21 13 -35
t36 -14zM758 616l-27 46h-18l37 -60v-35h16v35l37 60h-19zM395 662v-95h70v15h-53v26h47v15h-47v24h53v15h-70zM270 662v-95h17v66l51 -66h14v95h-16v-66l-51 66h-15zM494 662l28 -97h17l22 70h2l23 -70h16l29 97h-17l-20 -72h-2l-23 72h-14l-23 -72h-2l-20 72h-16zM670 981
q-25 48 -25 66q0 38 29 38q26 0 26 -38q0 -31 -30 -66zM659 946l41 -80q-15 -43 -41 -43q-32 0 -32 51q0 40 32 72zM997 612h-22v35h22q21 0 21 -16q0 -19 -21 -19zM872 580q-32 0 -32 34q0 14 8 24.5t24 10.5t24.5 -10.5t8.5 -24.5q0 -34 -33 -34z" />
    <glyph glyph-name="i.dot" horiz-adv-x="473" 
d="M193 1317v125h88v-125h-88zM203 0v1032h67v-1032h-67z" />
    <glyph glyph-name="caron.alt" horiz-adv-x="1024" 
d="M455 1190l34 305h82v-4l-77 -301h-39z" />
    <glyph glyph-name="acute.cap" horiz-adv-x="1024" 
d="M408 1567l198 219l76 -39l-215 -180h-59z" />
    <glyph glyph-name="hungarumlaut.cap" horiz-adv-x="1024" 
d="M242 1567l198 219l76 -39l-215 -180h-59zM506 1567l196 219l78 -39l-217 -180h-57z" />
    <glyph glyph-name="grave.cap" horiz-adv-x="1024" 
d="M418 1786l198 -219h-59l-215 180z" />
    <glyph glyph-name="circumflex.cap" horiz-adv-x="1024" 
d="M268 1567l213 207h62l213 -207h-70l-174 141l-176 -141h-68z" />
    <glyph glyph-name="caron.cap" horiz-adv-x="1024" 
d="M756 1774l-213 -207h-62l-213 207h70l174 -142l176 142h68z" />
    <glyph glyph-name="breve.cap" horiz-adv-x="1024" 
d="M512 1565q-114 0 -183 50t-81 134h57q41 -121 207 -121q168 0 207 121h57q-12 -84 -81 -134t-183 -50z" />
    <glyph glyph-name="tilde.cap" horiz-adv-x="1024" 
d="M270 1567l-47 12q43 162 156 162q41 0 135.5 -47t128.5 -47q38 0 63 24t48 84l45 -12q-43 -162 -156 -162q-42 0 -136.5 47t-125.5 47q-38 0 -63 -24t-48 -84z" />
    <glyph glyph-name="macron.cap" horiz-adv-x="1024" 
d="M217 1620v66h590v-66h-590z" />
    <glyph glyph-name="dieresis.cap" horiz-adv-x="1024" 
d="M616 1589v125h107v-125h-107zM301 1589v125h107v-125h-107z" />
    <glyph glyph-name="dotaccent.cap" horiz-adv-x="1024" 
d="M457 1589v125h110v-125h-110z" />
    <glyph glyph-name="ring.cap" horiz-adv-x="1024" 
d="M301 1749q0 81 61 133.5t150 52.5t150 -52.5t61 -133.5q0 -79 -61 -131.5t-150 -52.5t-150 52.5t-61 131.5zM356 1749q0 -61 44.5 -100t111.5 -39t111.5 39t44.5 100q0 62 -44.5 101.5t-111.5 39.5t-111.5 -39.5t-44.5 -101.5z" />
    </font>
</defs>
</svg>
