<?xml version="1.0" standalone="no"?>
<!DOCTYPE svg PUBLIC "-//W3C//DTD SVG 1.1//EN" "http://www.w3.org/Graphics/SVG/1.1/DTD/svg11.dtd" >
<svg xmlns="http://www.w3.org/2000/svg" xmlns:xlink="http://www.w3.org/1999/xlink" version="1.1">
<metadata>
Created by FontForge 20201107 at Sun Nov  3 14:32:22 2024
 By 
HTF Gotham  Copr. 2002 The Hoefler Type Foundry, Inc. Info: www.typography.com
</metadata>
<defs>
<font id="SVN-GothamBookItalic" horiz-adv-x="1724" >
  <font-face 
    font-family="SVN-Gotham Book"
    font-weight="400"
    font-style="italic"
    font-stretch="normal"
    units-per-em="2048"
    panose-1="2 0 6 3 4 0 0 9 0 4"
    ascent="1638"
    descent="-410"
    x-height="1059"
    cap-height="1434"
    bbox="-256 -410 2427 2238"
    underline-thickness="40"
    underline-position="-271"
    slope="-12"
    unicode-range="U+0020-FB02"
  />
<missing-glyph horiz-adv-x="1024" 
 />
    <glyph glyph-name="fi" unicode="fi" horiz-adv-x="1308" 
d="M817 0l285 1059h158l-285 -1059h-158zM94 0l248 920h-145l36 139h146l35 127q81 313 362 313q128 0 211 -45l-37 -135q-87 43 -174 43q-157 0 -213 -201l-26 -102h346l-39 -139h-344l-248 -920h-158zM1153 1290l49 174h178l-47 -174h-180z" />
    <glyph glyph-name="fl" unicode="fl" horiz-adv-x="1308" 
d="M817 0l402 1495h157l-401 -1495h-158zM94 0l248 920h-145l36 139h146l35 127q81 313 362 313q128 0 211 -45l-37 -135q-87 43 -174 43q-157 0 -213 -201l-26 -102h346l-39 -139h-344l-248 -920h-158z" />
    <glyph glyph-name=".notdef" horiz-adv-x="1024" 
 />
    <glyph glyph-name=".null" horiz-adv-x="0" 
 />
    <glyph glyph-name="nonmarkingreturn" horiz-adv-x="682" 
 />
    <glyph glyph-name="space" unicode=" " horiz-adv-x="614" 
 />
    <glyph glyph-name="exclam" unicode="!" horiz-adv-x="555" 
d="M41 0l57 215h189l-58 -215h-188zM199 406l196 911l33 117h184l-30 -117l-293 -911h-90z" />
    <glyph glyph-name="quotedbl" unicode="&#x22;" horiz-adv-x="905" 
d="M205 877l186 557h189l-2 -11l-285 -546h-88zM608 877l187 557h188l-2 -11l-285 -546h-88z" />
    <glyph glyph-name="numbersign" unicode="#" horiz-adv-x="1396" 
d="M479 504h387l154 434h-389zM158 0l127 362h-226l35 142h240l151 434h-249l36 141h263l122 355h146l-125 -355h391l123 355h145l-125 -355h228l-37 -141h-238l-153 -434h252l-37 -142h-264l-125 -362h-146l127 362h-391l-125 -362h-145z" />
    <glyph glyph-name="dollar" unicode="$" horiz-adv-x="1275" 
d="M733 631l-135 -488q158 -4 259 68.5t101 189.5q0 74 -50 127t-175 103zM668 823l127 465q-155 17 -260 -55t-105 -184q0 -77 53.5 -126.5t184.5 -99.5zM373 -201l61 213q-279 47 -438 242l119 100q142 -164 368 -200l140 516q-96 37 -159 71t-110.5 76.5t-68.5 94.5
t-21 120q0 172 143 287t357 115q13 0 36 -1t34 -1l34 120h129l-36 -139q201 -43 342 -184l-113 -109q-117 117 -279 152l-135 -488q183 -68 265.5 -151.5t82.5 -214.5q0 -184 -150 -301t-386 -117h-29l-55 -201h-131z" />
    <glyph glyph-name="percent" unicode="%" horiz-adv-x="1714" 
d="M1245 98q70 0 130 48.5t93 122t33 149.5q0 91 -45.5 143.5t-126.5 52.5q-105 0 -180.5 -100.5t-75.5 -220.5q0 -89 45.5 -142t126.5 -53zM485 821q70 0 130 48.5t93 122t33 149.5q0 91 -45.5 143.5t-126.5 52.5q-105 0 -180.5 -100t-75.5 -219q0 -92 44.5 -144.5
t127.5 -52.5zM1235 -14q-128 0 -208.5 84.5t-80.5 214.5q0 111 50.5 212.5t142 165.5t200.5 64q127 0 208 -85.5t81 -213.5q0 -111 -50.5 -212.5t-142 -165.5t-200.5 -64zM131 0l1391 1434h161l-1390 -1434h-162zM475 709q-127 0 -208 85.5t-81 213.5q0 111 50.5 212.5
t142 165.5t199.5 64q129 0 209.5 -85.5t80.5 -213.5q0 -111 -50.5 -212.5t-142 -165.5t-200.5 -64z" />
    <glyph glyph-name="ampersand" unicode="&#x26;" horiz-adv-x="1417" 
d="M500 119q109 0 206 44t197 136l-297 418q-195 -52 -291 -146.5t-96 -212.5q0 -110 75.5 -174.5t205.5 -64.5zM680 856q362 97 362 285q0 81 -55.5 132.5t-150.5 51.5q-100 0 -170 -70t-70 -168q0 -57 19 -110.5t65 -120.5zM1141 -29l-160 224q-121 -111 -237 -163
t-263 -52q-184 0 -303 98.5t-119 267.5q0 164 120 287t356 188q-91 149 -91 266q0 155 115.5 263t282.5 108q158 0 255 -86t97 -223q0 -268 -442 -395l256 -359q108 122 221 312l108 -70q-123 -205 -250 -344l175 -244z" />
    <glyph glyph-name="quotesingle" unicode="'" horiz-adv-x="501" 
d="M205 877l186 557h189l-2 -11l-285 -546h-88z" />
    <glyph glyph-name="parenleft" unicode="(" horiz-adv-x="888" 
d="M635 -190l-94 -99q-361 309 -361 731q0 156 50 303t149 280t254.5 247t357.5 196l56 -116q-182 -79 -320 -185t-221 -225t-123.5 -243t-40.5 -253q0 -193 77.5 -344t215.5 -292z" />
    <glyph glyph-name="parenright" unicode=")" horiz-adv-x="888" 
d="M-70 -285l-55 119q183 80 320 185.5t219.5 223.5t123 242t40.5 254q0 102 -22 193t-64 169.5t-91 142t-116 132.5l96 97q360 -309 360 -730q0 -156 -50 -303.5t-148.5 -281.5t-255 -248.5t-357.5 -194.5z" />
    <glyph glyph-name="asterisk" unicode="*" horiz-adv-x="880" 
d="M557 809l-104 27l88 243l-244 -88l-31 105l260 45l-202 168l79 77l166 -198l45 252l105 -27l-88 -242l243 89l31 -107l-260 -43l203 -168l-80 -78l-166 199z" />
    <glyph glyph-name="plus" unicode="+" horiz-adv-x="1314" 
d="M500 225l112 422h-424l39 148h424l113 422h154l-113 -422h424l-39 -148h-424l-115 -422h-151z" />
    <glyph glyph-name="comma" unicode="," horiz-adv-x="522" 
d="M-76 -248l-16 70q89 23 134.5 66.5t57.5 111.5h-75l59 215h186l-49 -184q-36 -131 -104 -193t-193 -86z" />
    <glyph glyph-name="hyphen" unicode="-" horiz-adv-x="839" 
d="M135 532l43 166h572l-43 -166h-572z" />
    <glyph glyph-name="hyphen" unicode="&#xad;" horiz-adv-x="839" 
d="M135 532l43 166h572l-43 -166h-572z" />
    <glyph glyph-name="period" unicode="." horiz-adv-x="522" 
d="M25 0l59 215h186l-57 -215h-188z" />
    <glyph glyph-name="slash" unicode="/" horiz-adv-x="1040" 
d="M-256 -262l1448 1896h160l-1448 -1896h-160z" />
    <glyph glyph-name="zero" unicode="0" horiz-adv-x="1464" 
d="M670 123q153 0 285.5 117t207 297t74.5 368q0 180 -91.5 293t-254.5 113q-114 0 -220 -69.5t-180.5 -180.5t-119.5 -252t-45 -281q0 -180 90.5 -292.5t253.5 -112.5zM659 -25q-236 0 -368.5 152.5t-132.5 400.5q0 112 25 225.5t70 216.5t112 192.5t148 155t181.5 103
t208.5 37.5q156 0 271 -71.5t173 -195.5t58 -286q0 -135 -34.5 -269.5t-101.5 -253t-156 -210t-207 -144.5t-247 -53z" />
    <glyph glyph-name="one" unicode="1" horiz-adv-x="739" 
d="M193 0l337 1264l-290 -84l-4 141l385 123h120l-387 -1444h-161z" />
    <glyph glyph-name="two" unicode="2" horiz-adv-x="1218" 
d="M-45 0l33 127l821 623q126 96 183 172.5t57 164.5q0 99 -73 159.5t-200 60.5q-201 0 -393 -197l-107 102q228 242 506 242q193 0 314 -98.5t121 -257.5q0 -124 -74 -227.5t-234 -221.5l-661 -502h766l-39 -147h-1020z" />
    <glyph glyph-name="three" unicode="3" horiz-adv-x="1239" 
d="M508 -25q-184 0 -310.5 73.5t-191.5 205.5l127 82q122 -213 383 -213q169 0 282 90.5t113 226.5q0 120 -98 182t-272 62h-66l-20 92l579 512h-706l41 146h934l-33 -119l-584 -510q110 -8 197.5 -49t141.5 -119.5t54 -183.5q0 -101 -45.5 -190.5t-123 -152.5t-182.5 -99
t-220 -36z" />
    <glyph glyph-name="four" unicode="4" horiz-adv-x="1329" 
d="M264 475h590l197 731zM725 0l92 340h-745l-21 121l1063 983h156l-260 -969h223l-37 -135h-223l-90 -340h-158z" />
    <glyph glyph-name="five" unicode="5" horiz-adv-x="1234" 
d="M514 -25q-167 0 -292.5 70.5t-203.5 185.5l125 93q145 -203 383 -203q184 0 300 104t116 248q0 127 -88.5 201t-232.5 74q-154 0 -293 -78l-92 73l225 691h801l-43 -150h-654l-151 -450q44 23 115.5 39t129.5 16q204 0 328.5 -110t124.5 -294q0 -102 -43.5 -194.5
t-120 -162.5t-189.5 -111.5t-245 -41.5z" />
    <glyph glyph-name="six" unicode="6" horiz-adv-x="1312" 
d="M651 117q166 0 276.5 107t110.5 253q0 115 -83.5 200t-233.5 85q-86 0 -161.5 -29.5t-126 -78t-79 -110t-28.5 -126.5q0 -130 84 -211q90 -90 241 -90zM647 -25q-220 0 -348 131q-141 141 -141 398q0 224 76.5 420t207.5 327q207 207 476 207q263 0 423 -184l-106 -111
q-135 148 -330 148q-194 0 -346 -152q-87 -87 -147.5 -212t-73.5 -255q68 90 175 149.5t239 59.5q204 0 328 -118t124 -294q0 -135 -72 -253t-201 -189.5t-284 -71.5z" />
    <glyph glyph-name="seven" unicode="7" horiz-adv-x="1200" 
d="M125 0l944 1286h-780l41 148h973l-35 -121l-955 -1313h-188z" />
    <glyph glyph-name="eight" unicode="8" horiz-adv-x="1325" 
d="M616 119q178 0 289 78.5t111 205.5q0 108 -103.5 185.5t-269.5 77.5q-180 0 -290.5 -83.5t-110.5 -203.5q0 -116 101.5 -188t272.5 -72zM770 799q167 0 263.5 79.5t96.5 188.5q0 110 -89.5 179t-237.5 69q-157 0 -255.5 -75.5t-98.5 -192.5q0 -106 90 -177t231 -71z
M606 -20q-230 0 -379 109.5t-149 272.5q0 111 57 196.5t148.5 134.5t212.5 71q-91 37 -149 116t-58 181q0 164 146.5 278.5t371.5 114.5q212 0 347.5 -104t135.5 -267q0 -142 -99.5 -241t-254.5 -129q101 -35 172.5 -120.5t71.5 -197.5q0 -178 -162 -296.5t-412 -118.5z" />
    <glyph glyph-name="nine" unicode="9" horiz-adv-x="1312" 
d="M692 655q168 0 279.5 109t111.5 252q0 127 -82 209q-92 92 -241 92q-168 0 -278.5 -109.5t-110.5 -261.5q0 -122 81.5 -206.5t239.5 -84.5zM498 -27q-132 0 -244.5 52t-196.5 147l107 111q149 -162 342 -162t346 153q87 86 146.5 208t72.5 249q-67 -92 -172 -154.5
t-244 -62.5q-205 0 -328.5 119.5t-123.5 300.5q0 140 73.5 260t203 191t284.5 71q103 0 194.5 -34t153.5 -95q70 -72 105.5 -169t35.5 -238q0 -222 -76.5 -414.5t-209.5 -325.5q-213 -207 -469 -207z" />
    <glyph glyph-name="colon" unicode=":" horiz-adv-x="536" 
d="M33 0l57 215h189l-58 -215h-188zM258 844l59 215h189l-60 -215h-188z" />
    <glyph glyph-name="semicolon" unicode=";" horiz-adv-x="536" 
d="M-68 -248l-16 70q88 23 133 66.5t57 111.5h-73l57 215h189l-50 -184q-36 -131 -104 -193t-193 -86zM258 844l59 215h189l-60 -215h-188z" />
    <glyph glyph-name="semicolon" unicode="&#x37e;" horiz-adv-x="536" 
d="M-68 -248l-16 70q88 23 133 66.5t57 111.5h-73l57 215h189l-50 -184q-36 -131 -104 -193t-193 -86zM258 844l59 215h189l-60 -215h-188z" />
    <glyph glyph-name="less" unicode="&#x3c;" horiz-adv-x="1310" 
d="M991 176l-835 477l37 135l1091 478l-45 -170l-893 -385l686 -387z" />
    <glyph glyph-name="equal" unicode="=" horiz-adv-x="1310" 
d="M152 406l41 151h940l-41 -151h-940zM281 885l41 151h940l-39 -151h-942z" />
    <glyph glyph-name="greater" unicode="&#x3e;" horiz-adv-x="1310" 
d="M94 176l45 170l891 385l-684 387l41 148l834 -478l-37 -135z" />
    <glyph glyph-name="question" unicode="?" horiz-adv-x="1099" 
d="M240 0l57 215h188l-57 -215h-188zM387 406l57 331l13 11q225 18 355 102t130 227q0 107 -75.5 167.5t-196.5 60.5q-106 0 -202.5 -46t-170.5 -118l-92 106q205 205 481 205q194 0 309 -102.5t115 -259.5q0 -127 -71.5 -225t-190.5 -155t-275 -79l-81 -225h-105z" />
    <glyph glyph-name="at" unicode="@" horiz-adv-x="2007" 
d="M920 268q93 0 182 55.5t146 148.5t57 194q0 106 -65.5 172.5t-174.5 66.5q-143 0 -249.5 -121.5t-106.5 -287.5q0 -107 58.5 -167.5t152.5 -60.5zM987 -326q-255 0 -450 99.5t-301.5 281.5t-106.5 420q0 194 79.5 375t213.5 315t320.5 214.5t390.5 80.5
q150 0 279.5 -36.5t226 -102.5t165.5 -156t103.5 -198t34.5 -226q0 -115 -27 -214.5t-71 -168t-101.5 -118t-119 -72.5t-122.5 -23q-107 0 -172 50.5t-84 142.5q-164 -197 -366 -197q-139 0 -232.5 93t-93.5 249q0 148 74 276t190 200.5t240 72.5q115 0 190 -56.5
t111 -144.5l55 181l133 -35l-155 -500q-36 -110 1 -180t134 -70q43 0 89 19.5t91 61.5t80.5 101t57.5 145.5t22 186.5q0 134 -50.5 252.5t-143 207t-232 139.5t-307.5 51q-188 0 -361 -75.5t-296.5 -200.5t-197 -293t-73.5 -347q0 -215 97 -381t275 -258t410 -92
q219 0 422 92l31 -63q-214 -99 -453 -99z" />
    <glyph glyph-name="A" unicode="A" horiz-adv-x="1558" 
d="M469 524h653l-129 736zM-82 0l1040 1444h156l266 -1444h-166l-65 379h-782l-271 -379h-178z" />
    <glyph glyph-name="B" unicode="B" horiz-adv-x="1468" 
d="M260 145h479q196 0 308 76t112 211q0 107 -91 163t-239 56h-434zM434 795h408q192 0 306 77.5t114 206.5q0 102 -75.5 155.5t-217.5 53.5h-404zM61 0l385 1434h537q209 0 326.5 -89.5t117.5 -244.5q0 -148 -99.5 -247t-258.5 -130q115 -35 184.5 -108.5t69.5 -188.5
q0 -189 -162 -307.5t-440 -118.5h-660z" />
    <glyph glyph-name="C" unicode="C" horiz-adv-x="1505" 
d="M784 -27q-169 0 -306.5 70.5t-220.5 207.5t-83 316q0 172 68.5 335t183 285t274.5 196.5t334 74.5q190 0 327.5 -83t213.5 -224l-139 -86q-46 79 -100 130.5t-134 82.5t-182 31q-136 0 -261.5 -62t-216 -163.5t-144.5 -236t-54 -274.5q0 -206 125 -327t324 -121
q139 0 242 48.5t202 145.5l109 -106q-240 -240 -562 -240z" />
    <glyph glyph-name="D" unicode="D" horiz-adv-x="1583" 
d="M264 150h303q367 0 592 225q180 180 180 446q0 201 -120 318q-145 145 -437 145h-213zM61 0l385 1434h347q179 0 322 -49t237 -142q155 -155 155 -412q0 -334 -225 -559q-130 -130 -319 -201t-416 -71h-486z" />
    <glyph glyph-name="E" unicode="E" horiz-adv-x="1337" 
d="M61 0l385 1434h1027l-41 -148h-865l-131 -489h772l-41 -148h-770l-135 -502h875l-39 -147h-1037z" />
    <glyph glyph-name="F" unicode="F" horiz-adv-x="1347" 
d="M61 0l385 1434h1031l-39 -150h-871l-137 -512h778l-41 -147h-776l-168 -625h-162z" />
    <glyph glyph-name="G" unicode="G" horiz-adv-x="1605" 
d="M811 -27q-132 0 -247 42t-201.5 118.5t-136.5 193t-50 257.5q0 131 42.5 260t123 239t187 194.5t244 132.5t284.5 48q107 0 195.5 -21t152.5 -59.5t109 -82t83 -99.5l-122 -96q-47 65 -98 108t-137.5 73t-197.5 30q-116 0 -224.5 -40t-192.5 -110t-147.5 -160.5
t-97.5 -196.5t-34 -214q0 -218 131 -342.5t344 -124.5q210 0 371 100l113 398h-433l39 145h592l-182 -643q-241 -150 -510 -150z" />
    <glyph glyph-name="H" unicode="H" horiz-adv-x="1548" 
d="M61 0l385 1434h162l-170 -637h817l170 637h164l-385 -1434h-164l174 645h-817l-174 -645h-162z" />
    <glyph glyph-name="I" unicode="I" horiz-adv-x="595" 
d="M76 0l385 1434h162l-385 -1434h-162z" />
    <glyph glyph-name="J" unicode="J" horiz-adv-x="1122" 
d="M397 -20q-162 0 -270 83t-156 222l129 75q45 -118 116.5 -174.5t182.5 -56.5q141 0 242 98q50 51 84.5 123t65.5 187l241 897h164l-250 -928q-36 -137 -81 -228t-113 -159t-160.5 -103.5t-194.5 -35.5z" />
    <glyph glyph-name="K" unicode="K" horiz-adv-x="1470" 
d="M61 0l385 1434h162l-227 -852l1028 852h229l-770 -631l408 -803h-182l-357 709l-415 -342l-99 -367h-162z" />
    <glyph glyph-name="L" unicode="L" horiz-adv-x="1243" 
d="M61 0l385 1434h162l-344 -1284h807l-41 -150h-969z" />
    <glyph glyph-name="M" unicode="M" horiz-adv-x="1779" 
d="M61 0l385 1434h152l309 -783l731 783h181l-385 -1434h-164l311 1161l-727 -768h-8l-314 766l-311 -1159h-160z" />
    <glyph glyph-name="N" unicode="N" horiz-adv-x="1609" 
d="M61 0l385 1434h150l584 -1164l313 1164h158l-385 -1434h-129l-598 1190l-320 -1190h-158z" />
    <glyph glyph-name="O" unicode="O" 
d="M819 123q110 0 212 39t181.5 108t139 158t91.5 193t32 210q0 207 -129 342.5t-340 135.5q-136 0 -260 -61t-209.5 -160t-136 -227.5t-50.5 -260.5q0 -206 129 -341.5t340 -135.5zM809 -27q-182 0 -326.5 82.5t-223.5 224.5t-79 316q0 164 65 321t175 276t266.5 192
t329.5 73q136 0 254 -48t200 -131t128.5 -197.5t46.5 -243.5q0 -165 -65 -322.5t-175 -277t-266.5 -192.5t-329.5 -73z" />
    <glyph glyph-name="P" unicode="P" horiz-adv-x="1366" 
d="M399 653h310q256 0 393 96t137 275q0 105 -65 170q-90 90 -285 90h-322zM61 0l385 1434h449q273 0 410 -134q102 -105 102 -266q0 -246 -193 -385t-514 -139h-340l-137 -510h-162z" />
    <glyph glyph-name="Q" unicode="Q" 
d="M819 123q181 0 332 104l-223 262l127 97l209 -264q99 101 155 234.5t56 274.5q0 207 -129 342.5t-340 135.5q-136 0 -260 -61t-209.5 -160t-136 -227.5t-50.5 -260.5q0 -206 129 -341.5t340 -135.5zM1376 -59l-133 168q-202 -136 -434 -136q-182 0 -326.5 82.5
t-223.5 224.5t-79 316q0 164 65 321t175 276t266.5 192t329.5 73q136 0 254 -48t200 -131t128.5 -197.5t46.5 -243.5q0 -182 -75 -349.5t-210 -291.5l143 -162z" />
    <glyph glyph-name="R" unicode="R" horiz-adv-x="1468" 
d="M412 702h389q275 0 407 132q86 89 86 208q0 97 -59 156q-86 86 -281 86h-385zM61 0l385 1434h517q269 0 403 -131q94 -98 94 -248q0 -182 -127 -312q-133 -133 -397 -170l295 -573h-187l-282 557h-389l-150 -557h-162z" />
    <glyph glyph-name="S" unicode="S" horiz-adv-x="1304" 
d="M610 -20q-195 0 -343 70.5t-242 201.5l122 96q95 -114 207 -168.5t267 -54.5q156 0 259 75.5t103 192.5q0 83 -64 139.5t-231 122.5q-209 83 -301 166.5t-92 216.5q0 179 148.5 297.5t379.5 118.5q162 0 292.5 -58t215.5 -159l-119 -107q-162 179 -403 179
q-155 0 -249.5 -74.5t-94.5 -177.5q0 -84 70 -139.5t247 -124.5q192 -72 281.5 -159t89.5 -220q0 -124 -72 -223.5t-196 -155t-275 -55.5z" />
    <glyph glyph-name="T" unicode="T" horiz-adv-x="1261" 
d="M401 0l344 1284h-483l41 150h1129l-41 -150h-484l-344 -1284h-162z" />
    <glyph glyph-name="U" unicode="U" horiz-adv-x="1552" 
d="M711 -23q-250 0 -386.5 126t-136.5 333q0 108 31 223l205 775h164l-217 -818q-21 -64 -21 -161q0 -147 95.5 -237.5t279.5 -90.5q185 0 319 131q126 129 183 350l223 826h162l-230 -854q-73 -272 -225 -424q-179 -179 -446 -179z" />
    <glyph glyph-name="V" unicode="V" horiz-adv-x="1468" 
d="M506 -10l-225 1444h172l176 -1233l837 1233h185l-1000 -1444h-145z" />
    <glyph glyph-name="W" unicode="W" horiz-adv-x="2217" 
d="M422 -10l-125 1444h168l90 -1194l711 1198h133l76 -1198l729 1194h182l-899 -1444h-141l-82 1157l-703 -1157h-139z" />
    <glyph glyph-name="X" unicode="X" horiz-adv-x="1421" 
d="M-63 0l735 741l-361 693h178l299 -586l572 586h209l-709 -715l373 -719h-178l-312 612l-596 -612h-210z" />
    <glyph glyph-name="Y" unicode="Y" horiz-adv-x="1357" 
d="M442 0l156 578l-354 856h180l287 -723l675 723h207l-839 -883l-148 -551h-164z" />
    <glyph glyph-name="Z" unicode="Z" horiz-adv-x="1370" 
d="M-39 0l29 109l1222 1179h-874l41 146h1110l-29 -109l-1224 -1180h913l-39 -145h-1149z" />
    <glyph glyph-name="bracketleft" unicode="[" horiz-adv-x="899" 
d="M18 -266l457 1700h586l-33 -123h-438l-389 -1454h436l-33 -123h-586z" />
    <glyph glyph-name="backslash" unicode="\" horiz-adv-x="1040" 
d="M731 -262l-446 1896h135l446 -1896h-135z" />
    <glyph glyph-name="bracketright" unicode="]" horiz-adv-x="899" 
d="M-135 -266l35 123h438l389 1454h-438l33 123h587l-456 -1700h-588z" />
    <glyph glyph-name="asciicircum" unicode="^" horiz-adv-x="1024" 
d="M240 1010l432 428h123l204 -428h-125l-157 315l-326 -315h-151z" />
    <glyph glyph-name="underscore" unicode="_" horiz-adv-x="1228" 
d="M-233 -328l34 129h1239l-36 -129h-1237z" />
    <glyph glyph-name="grave" unicode="`" horiz-adv-x="1024" 
d="M741 1219l-170 221l166 76l115 -297h-111z" />
    <glyph glyph-name="a" unicode="a" horiz-adv-x="1179" 
d="M424 102q137 0 257.5 88.5t156.5 225.5l20 73q-177 48 -342 48q-141 0 -228 -69t-87 -179q0 -87 59.5 -137t163.5 -50zM373 -23q-141 0 -237.5 78.5t-96.5 214.5q0 176 131.5 279.5t339.5 103.5q191 0 375 -57l8 27q12 62 12 96q0 104 -71.5 158.5t-212.5 54.5
q-148 0 -299 -55l-29 133q168 65 352 65q199 0 307.5 -87.5t108.5 -242.5q0 -71 -21 -145l-159 -600h-156l43 166q-158 -189 -395 -189z" />
    <glyph glyph-name="b" unicode="b" horiz-adv-x="1349" 
d="M639 115q123 0 225 69t159.5 184.5t57.5 249.5q0 147 -82.5 235.5t-216.5 88.5q-116 0 -225.5 -70.5t-177.5 -186.5t-68 -241q0 -142 91 -235.5t237 -93.5zM653 -25q-78 0 -144.5 21t-114 59t-81.5 83t-57 100l-63 -238h-158l401 1495h158l-168 -618q184 204 401 204
q182 0 301 -124t119 -324q0 -137 -49.5 -260.5t-131.5 -210t-190 -137t-223 -50.5z" />
    <glyph glyph-name="c" unicode="c" horiz-adv-x="1150" 
d="M567 -25q-125 0 -230.5 54.5t-172 161.5t-66.5 247q0 169 85 317.5t229 237t309 88.5q155 0 261 -69t161 -178l-127 -80q-109 188 -305 188q-118 0 -222.5 -69.5t-166.5 -185t-62 -245.5q0 -151 92 -239t223 -88q162 0 314 139l92 -102q-89 -85 -188.5 -131t-225.5 -46z
" />
    <glyph glyph-name="d" unicode="d" horiz-adv-x="1349" 
d="M567 115q116 0 225.5 70t177.5 186t68 243q0 140 -91 234t-236 94q-123 0 -225.5 -69.5t-160 -185t-57.5 -249.5q0 -147 83 -235t216 -88zM522 -25q-182 0 -301 125t-119 324q0 137 49.5 260.5t131.5 209.5t190 136.5t223 50.5q283 0 398 -262l180 676h158l-400 -1495
h-158l48 180q-178 -205 -400 -205z" />
    <glyph glyph-name="e" unicode="e" horiz-adv-x="1206" 
d="M281 596h682q8 31 8 80q0 117 -67.5 194.5t-196.5 77.5q-151 0 -265.5 -99.5t-160.5 -252.5zM1085 469h-827q-2 -14 -2 -37q0 -147 86 -233t233 -86q98 0 174 30.5t152 94.5l82 -105q-88 -74 -187.5 -116t-228.5 -42q-210 0 -339.5 125t-129.5 326q0 96 29.5 191.5
t86 178.5t131 147t171 101t199.5 37q129 0 223.5 -56t140 -146.5t45.5 -202.5q0 -104 -39 -207z" />
    <glyph glyph-name="f" unicode="f" horiz-adv-x="768" 
d="M94 0l248 920h-145l36 139h146l35 127q81 313 362 313q128 0 211 -45l-37 -135q-87 43 -174 43q-157 0 -213 -201l-26 -102h346l-39 -139h-344l-248 -920h-158z" />
    <glyph glyph-name="g" unicode="g" horiz-adv-x="1349" 
d="M588 217q117 0 222 60.5t167.5 159t62.5 206.5q0 123 -89 211t-236 88q-111 0 -211 -56t-162.5 -158.5t-62.5 -225.5q0 -134 90 -209.5t219 -75.5zM492 -332q-147 0 -283.5 49t-235.5 136l99 110q192 -160 417 -160q193 0 297 109q85 81 134 254l28 106
q-88 -90 -185.5 -140t-219.5 -50q-84 0 -160.5 27t-137 76.5t-96.5 126.5t-36 169q0 128 51 241.5t134.5 191t190.5 122.5t218 45q66 0 122 -14.5t95.5 -38t73.5 -58t56 -68t42 -75.5l61 232h158l-242 -907q-35 -122 -75 -199.5t-97 -134.5q-150 -150 -409 -150z" />
    <glyph glyph-name="h" unicode="h" horiz-adv-x="1255" 
d="M35 0l401 1495h158l-164 -608q81 92 168.5 143t200.5 51q155 0 246.5 -88t91.5 -239q0 -58 -27 -164l-156 -590h-157l159 600q17 60 17 119q0 104 -63.5 162.5t-174.5 58.5q-123 0 -233.5 -96.5t-149.5 -245.5l-159 -598h-158z" />
    <glyph glyph-name="i" unicode="i" horiz-adv-x="540" 
d="M49 0l285 1059h158l-285 -1059h-158zM385 1290l47 174h180l-47 -174h-180z" />
    <glyph glyph-name="j" unicode="j" horiz-adv-x="538" 
d="M-102 -334q-76 0 -142 19l37 133q51 -15 90 -15q112 0 152 144l299 1112h158l-304 -1129q-36 -132 -110.5 -198t-179.5 -66zM385 1290l47 174h180l-47 -174h-180z" />
    <glyph glyph-name="k" unicode="k" horiz-adv-x="1163" 
d="M35 0l401 1495h158l-272 -1018l712 582h215l-567 -457l291 -602h-178l-246 502l-283 -226l-73 -276h-158z" />
    <glyph glyph-name="l" unicode="l" horiz-adv-x="540" 
d="M49 0l402 1495h157l-401 -1495h-158z" />
    <glyph glyph-name="m" unicode="m" horiz-adv-x="1945" 
d="M35 0l282 1059h158l-45 -172q83 94 163.5 144t188.5 50q125 0 201 -68.5t100 -170.5q156 239 426 239q143 0 233.5 -90t90.5 -237q0 -50 -29 -164l-157 -590h-158l162 600q14 61 14 119q0 104 -57.5 162.5t-161.5 58.5q-117 0 -221.5 -97t-145.5 -245l-157 -598h-158
l160 600q16 56 16 119q0 104 -58.5 162.5t-162.5 58.5q-117 0 -221.5 -97t-145.5 -245l-159 -598h-158z" />
    <glyph glyph-name="n" unicode="n" horiz-adv-x="1255" 
d="M35 0l282 1059h158l-45 -172q81 92 168.5 143t200.5 51q155 0 246.5 -88t91.5 -239q0 -58 -27 -164l-156 -590h-157l159 600q17 60 17 119q0 104 -63.5 162.5t-174.5 58.5q-123 0 -233.5 -96.5t-149.5 -245.5l-159 -598h-158z" />
    <glyph glyph-name="o" unicode="o" horiz-adv-x="1306" 
d="M592 117q117 0 221.5 67.5t167.5 180t63 237.5q0 159 -90.5 249.5t-240.5 90.5q-89 0 -173.5 -41.5t-145 -109.5t-97.5 -156.5t-37 -179.5q0 -159 91 -248.5t241 -89.5zM582 -25q-216 0 -349 134.5t-133 341.5q0 163 85 308.5t229.5 233.5t308.5 88q215 0 349 -133.5
t134 -339.5q0 -124 -51 -241t-136 -202.5t-200 -137.5t-237 -52z" />
    <glyph glyph-name="p" unicode="p" horiz-adv-x="1349" 
d="M639 115q123 0 225 69t159.5 184.5t57.5 249.5q0 147 -82.5 235.5t-216.5 88.5q-116 0 -225.5 -70.5t-177.5 -186.5t-68 -241q0 -142 91 -235.5t237 -93.5zM-53 -328l370 1387h158l-49 -182q184 204 401 204q182 0 301 -124t119 -324q0 -137 -49.5 -260.5t-131.5 -210
t-190 -137t-223 -50.5q-78 0 -144.5 21t-114 59t-81.5 83t-57 100l-152 -566h-157z" />
    <glyph glyph-name="q" unicode="q" horiz-adv-x="1349" 
d="M567 115q87 0 173 42.5t151.5 110.5t106 160t40.5 186q0 140 -91 234t-236 94q-123 0 -225.5 -69.5t-160 -185t-57.5 -249.5q0 -147 83 -235t216 -88zM766 -410l158 592q-187 -207 -402 -207q-182 0 -301 125t-119 324q0 137 49.5 260.5t131.5 209.5t190 136.5t223 50.5
q284 0 398 -260l63 238h158l-391 -1469h-158z" />
    <glyph glyph-name="r" unicode="r" horiz-adv-x="823" 
d="M35 0l282 1059h158l-72 -277q220 308 504 295l-45 -170h-10q-117 0 -225 -54.5t-195 -167.5t-127 -267l-112 -418h-158z" />
    <glyph glyph-name="s" unicode="s" horiz-adv-x="1015" 
d="M444 -23q-126 0 -246 47.5t-210 137.5l102 102q158 -155 369 -155q94 0 163.5 49.5t69.5 126.5q0 53 -44.5 95t-155.5 85q-156 61 -227.5 124t-71.5 167q0 139 109.5 232t291.5 93q110 0 214.5 -41.5t176.5 -103.5l-92 -109q-150 123 -313 123q-108 0 -169 -49t-61 -119
q0 -54 43.5 -93t167.5 -87q152 -64 220.5 -128.5t68.5 -162.5q0 -145 -118 -239.5t-288 -94.5z" />
    <glyph glyph-name="t" unicode="t" horiz-adv-x="821" 
d="M414 -18q-119 0 -188.5 53t-69.5 155q0 53 14 111l166 619h-146l37 139h148l86 319h155l-86 -319h334l-37 -139h-333l-164 -611q-8 -33 -8 -78q0 -108 145 -108q75 0 154 33l-39 -144q-72 -30 -168 -30z" />
    <glyph glyph-name="u" unicode="u" horiz-adv-x="1255" 
d="M455 -23q-154 0 -245 88t-91 240q0 62 26 164l156 590h158l-162 -600q-14 -61 -14 -119q0 -104 62.5 -162.5t172.5 -58.5q125 0 233.5 96.5t149.5 247.5l160 596h158l-283 -1059h-158l47 172q-81 -92 -169 -143.5t-201 -51.5z" />
    <glyph glyph-name="v" unicode="v" horiz-adv-x="1159" 
d="M350 -8l-170 1067h166l119 -879l586 879h178l-740 -1067h-139z" />
    <glyph glyph-name="w" unicode="w" horiz-adv-x="1736" 
d="M281 -8l-84 1067h159l56 -844l512 848h131l59 -848l510 844h164l-660 -1067h-139l-61 835l-510 -835h-137z" />
    <glyph glyph-name="x" unicode="x" horiz-adv-x="1155" 
d="M-72 0l570 549l-267 510h175l200 -404l404 404h198l-538 -524l276 -535h-174l-211 430l-434 -430h-199z" />
    <glyph glyph-name="y" unicode="y" horiz-adv-x="1175" 
d="M78 -334q-125 0 -232 74l86 119q29 -23 76 -38.5t86 -15.5q71 0 135.5 44t141.5 153l-193 1057h164l147 -883l570 883h178l-725 -1094q-111 -162 -212.5 -230.5t-221.5 -68.5z" />
    <glyph glyph-name="z" unicode="z" horiz-adv-x="1124" 
d="M-41 0l29 100l903 826h-658l37 133h885l-29 -101l-905 -825h692l-36 -133h-918z" />
    <glyph glyph-name="braceleft" unicode="{" horiz-adv-x="989" 
d="M686 -190l-49 -99q-177 35 -258.5 123.5t-81.5 210.5q0 75 47 227q21 70 21 121q0 67 -41.5 100t-145.5 33h-57l33 123h57q153 0 223 77.5t107 281.5q19 110 55 188t100.5 138t164.5 92t241 38l2 -112q-107 -6 -182.5 -32.5t-122.5 -75.5t-72.5 -111.5t-40.5 -151.5
q-24 -142 -64.5 -225.5t-100 -123.5t-154.5 -54q149 -37 149 -172q0 -59 -22 -130q-43 -118 -43 -210q0 -95 53.5 -157t181.5 -99z" />
    <glyph glyph-name="bar" unicode="|" horiz-adv-x="620" 
d="M285 -262v1896h131v-1896h-131z" />
    <glyph glyph-name="braceright" unicode="}" horiz-adv-x="989" 
d="M-82 -289l-2 113q107 6 182 32.5t122 75.5t73 111.5t41 151.5q24 142 64.5 225.5t100 123.5t154.5 54q-151 38 -151 172q0 55 24 129q43 151 43 211q0 95 -53.5 157t-181.5 99l49 98q175 -35 256.5 -123.5t81.5 -210.5q0 -73 -45 -227q-23 -77 -23 -121q0 -67 42.5 -100
t146.5 -33h55l-31 -123h-57q-153 0 -224 -78t-108 -280q-19 -110 -54.5 -188t-99 -138.5t-164 -92.5t-241.5 -38z" />
    <glyph glyph-name="asciitilde" unicode="~" horiz-adv-x="968" 
d="M262 487l-102 45q53 110 110.5 164t130.5 54q43 0 72.5 -16t71.5 -52q39 -36 57.5 -47.5t42.5 -11.5q35 0 62 27.5t65 92.5l100 -43q-51 -109 -108.5 -163t-130.5 -54q-43 0 -72.5 16t-71.5 52q-38 35 -57.5 47t-42.5 12q-34 0 -61 -28t-66 -95z" />
    <glyph glyph-name="nbspace" unicode="&#xa0;" horiz-adv-x="614" 
 />
    <glyph glyph-name="exclamdown" unicode="&#xa1;" horiz-adv-x="555" 
d="M43 0l31 117l293 911h88l-195 -911l-33 -117h-184zM369 1219l57 215h188l-59 -215h-186z" />
    <glyph glyph-name="cent" unicode="&#xa2;" horiz-adv-x="1159" 
d="M475 348l309 791h-10q-127 0 -234.5 -69.5t-169 -185.5t-61.5 -249q0 -97 43.5 -171t122.5 -116zM328 -12l90 227q-126 55 -197 164t-71 254q0 174 84 323t229 236.5t317 87.5q38 0 54 -2l67 168h131l-76 -191q184 -59 265 -225l-125 -80q-38 65 -84.5 107.5t-114.5 64.5
l-315 -805q32 -4 51 -4q185 0 340 136l92 -105q-187 -172 -434 -172q-55 0 -96 8l-76 -192h-131z" />
    <glyph glyph-name="sterling" unicode="&#xa3;" horiz-adv-x="1288" 
d="M-10 0l24 94l183 43l127 467h-172l38 141h170l68 248q56 211 164 316q138 141 346 141q268 0 397 -231l-133 -86q-51 84 -114 125.5t-160 41.5q-129 0 -219 -90q-84 -84 -127 -245l-60 -220h574l-39 -141h-574l-123 -461h730l-39 -143h-1061z" />
    <glyph glyph-name="currency" unicode="&#xa4;" horiz-adv-x="1421" 
d="M774 -25q-216 0 -355.5 137t-156.5 373h-194l34 129h162q6 122 39 222h-143l35 127h149q95 224 268.5 359.5t399.5 135.5q182 0 298 -89t169 -239l-140 -63q-53 123 -132.5 183.5t-213.5 60.5q-152 0 -273 -94t-198 -254h557l-35 -127h-571q-31 -98 -41 -222h555
l-35 -129h-520q11 -166 102.5 -264t243.5 -98q117 0 206 46t173 138l109 -94q-101 -114 -218.5 -176t-273.5 -62z" />
    <glyph glyph-name="yen" unicode="&#xa5;" horiz-adv-x="1439" 
d="M492 0l63 238h-416l33 127h416l47 180h-416l35 127h362l-323 762h180l289 -705l668 705h202l-737 -762h356l-34 -127h-422l-47 -180h421l-34 -127h-422l-62 -238h-159z" />
    <glyph glyph-name="section" unicode="&#xa7;" horiz-adv-x="1294" 
d="M807 526q107 0 180.5 46t73.5 114q0 55 -57 96t-189 84q-122 43 -231 43q-107 0 -180.5 -46t-73.5 -113q0 -55 56.5 -96.5t188.5 -84.5q122 -43 232 -43zM588 -20q-141 0 -265 49t-196 125l102 102q64 -64 162.5 -104.5t210.5 -40.5q95 0 158 38t63 99q0 55 -59 95
t-205 89q-202 67 -293.5 131.5t-91.5 165.5q0 114 103 185t268 79q-135 73 -135 191q0 122 113.5 197t281.5 75q138 0 263 -49t196 -125l-101 -102q-66 62 -165 103.5t-210 41.5q-95 0 -158 -38t-63 -99q0 -56 61 -97.5t203 -86.5q202 -67 294 -131.5t92 -165.5
q0 -114 -103 -185.5t-268 -79.5q135 -71 135 -190q0 -122 -112.5 -197t-280.5 -75z" />
    <glyph glyph-name="dieresis" unicode="&#xa8;" horiz-adv-x="1024" 
d="M406 1219l53 194h184l-53 -194h-184zM768 1219l53 194h183l-54 -194h-182z" />
    <glyph glyph-name="copyright" unicode="&#xa9;" horiz-adv-x="1699" 
d="M907 334q-163 0 -272 114t-109 279q0 163 109.5 278t273.5 115q97 0 165 -31.5t130 -91.5l-74 -82q-107 103 -221 103q-117 0 -192.5 -84t-75.5 -205q0 -120 78 -205.5t190 -85.5q68 0 117.5 24.5t110.5 78.5l73 -72q-68 -68 -136.5 -101.5t-166.5 -33.5zM897 39
q188 0 344 92.5t244 248t88 339.5q0 137 -51.5 261.5t-140.5 215.5t-214 145t-266 54q-188 0 -344 -92.5t-244 -248t-88 -339.5q0 -137 51.5 -261.5t140.5 -215.5t214 -145t266 -54zM897 -25q-204 0 -374.5 100t-267.5 270t-97 370q0 149 58 286t156.5 237t236.5 160t292 60
q153 0 290.5 -59t235.5 -158t155.5 -235.5t57.5 -286.5q0 -149 -58 -286t-156.5 -237.5t-237 -160.5t-291.5 -60z" />
    <glyph glyph-name="ordfeminine" unicode="&#xaa;" horiz-adv-x="798" 
d="M424 913q74 0 138 50t85 120l8 27q-77 23 -166 23q-74 0 -119.5 -36t-45.5 -96q0 -39 27 -63.5t73 -24.5zM115 592l24 96h512l-24 -96h-512zM389 834q-75 0 -124.5 42.5t-49.5 112.5q0 101 73.5 160t192.5 59q73 0 191 -30l4 12q8 19 8 49q0 109 -147 109q-80 0 -164 -31
l-19 88q95 37 203 37q112 0 171.5 -47.5t59.5 -134.5q0 -28 -12 -82l-88 -332h-104l24 94q-93 -106 -219 -106z" />
    <glyph glyph-name="guillemotleft" unicode="&#xab;" horiz-adv-x="1126" 
d="M307 80l-215 436l4 16l455 443l102 -86l-385 -383l168 -363zM762 80l-215 436l4 16l455 443l102 -86l-385 -383l168 -363z" />
    <glyph glyph-name="registered" unicode="&#xae;" horiz-adv-x="1699" 
d="M721 745h217q80 0 130 36.5t50 101.5q0 63 -46 98t-128 35h-223v-271zM608 358v760h340q128 0 206.5 -62t78.5 -167q0 -90 -52.5 -147t-142.5 -78l234 -306h-137l-220 287h-194v-287h-113zM897 39q188 0 344 92.5t244 248t88 339.5q0 137 -51.5 261.5t-140.5 215.5
t-214 145t-266 54q-188 0 -344 -92.5t-244 -248t-88 -339.5q0 -137 51.5 -261.5t140.5 -215.5t214 -145t266 -54zM897 -25q-204 0 -374.5 100t-267.5 270t-97 370q0 149 58 286t156.5 237t236.5 160t292 60q153 0 290.5 -59t235.5 -158t155.5 -235.5t57.5 -286.5
q0 -149 -58 -286t-156.5 -237.5t-237 -160.5t-291.5 -60z" />
    <glyph glyph-name="macron" unicode="&#xaf;" horiz-adv-x="1024" 
d="M373 1229l35 137h649l-37 -137h-647z" />
    <glyph glyph-name="macron" unicode="&#x2c9;" horiz-adv-x="1024" 
d="M373 1229l35 137h649l-37 -137h-647z" />
    <glyph glyph-name="degree" unicode="&#xb0;" horiz-adv-x="792" 
d="M467 922q91 0 159 73.5t68 167.5q0 81 -47 128.5t-123 47.5q-91 0 -159 -73.5t-68 -167.5q0 -81 47 -128.5t123 -47.5zM457 815q-122 0 -199.5 78t-77.5 197q0 141 104.5 248.5t250.5 107.5q122 0 199 -77t77 -195q0 -143 -104 -251t-250 -108z" />
    <glyph glyph-name="plusminus" unicode="&#xb1;" horiz-adv-x="1241" 
d="M530 -25q-185 0 -321 73.5t-205 189.5l129 88q138 -203 408 -203q164 0 268 81t104 199q0 125 -105 187.5t-280 62.5h-88l37 140h105q217 0 343 75.5t126 208.5q0 104 -83.5 168t-211.5 64q-111 0 -198 -36.5t-173 -107.5l-94 107q203 184 475 184q196 0 325.5 -98.5
t129.5 -261.5q0 -150 -105.5 -246.5t-296.5 -132.5q115 -37 188.5 -116.5t73.5 -197.5q0 -119 -71.5 -217.5t-198 -154.5t-281.5 -56z" />
    <glyph glyph-name="acute" unicode="&#xb4;" horiz-adv-x="1024" 
d="M489 1219l275 297l164 -76l-291 -221h-148z" />
    <glyph glyph-name="mu" unicode="&#xb5;" 
d="M819 123q181 0 332 104l-223 262l127 97l209 -264q99 101 155 234.5t56 274.5q0 207 -129 342.5t-340 135.5q-136 0 -260 -61t-209.5 -160t-136 -227.5t-50.5 -260.5q0 -206 129 -341.5t340 -135.5zM1376 -59l-133 168q-202 -136 -434 -136q-182 0 -326.5 82.5
t-223.5 224.5t-79 316q0 164 65 321t175 276t266.5 192t329.5 73q136 0 254 -48t200 -131t128.5 -197.5t46.5 -243.5q0 -182 -75 -349.5t-210 -291.5l143 -162z" />
    <glyph glyph-name="mu" unicode="&#x3bc;" 
d="M819 123q181 0 332 104l-223 262l127 97l209 -264q99 101 155 234.5t56 274.5q0 207 -129 342.5t-340 135.5q-136 0 -260 -61t-209.5 -160t-136 -227.5t-50.5 -260.5q0 -206 129 -341.5t340 -135.5zM1376 -59l-133 168q-202 -136 -434 -136q-182 0 -326.5 82.5
t-223.5 224.5t-79 316q0 164 65 321t175 276t266.5 192t329.5 73q136 0 254 -48t200 -131t128.5 -197.5t46.5 -243.5q0 -182 -75 -349.5t-210 -291.5l143 -162z" />
    <glyph glyph-name="paragraph" unicode="&#xb6;" horiz-adv-x="1058" 
d="M549 0l135 510q-83 3 -154.5 18.5t-132.5 47t-104 76t-67.5 108t-24.5 141.5q0 245 180 389t502 144h215l-385 -1434h-164z" />
    <glyph glyph-name="periodcentered" unicode="&#xb7;" horiz-adv-x="522" 
d="M158 508l59 215h186l-57 -215h-188z" />
    <glyph glyph-name="periodcentered" unicode="&#x2219;" horiz-adv-x="522" 
d="M158 508l59 215h186l-57 -215h-188z" />
    <glyph glyph-name="cedilla" unicode="&#xb8;" horiz-adv-x="1024" 
d="M264 -317l-135 69l256 268h125z" />
    <glyph glyph-name="ordmasculine" unicode="&#xba;" horiz-adv-x="804" 
d="M508 924q93 0 161 75t68 172q0 79 -47.5 129t-122.5 50q-96 0 -162.5 -75t-66.5 -173q0 -79 47.5 -128.5t122.5 -49.5zM119 592l24 96h553l-24 -96h-553zM502 829q-122 0 -197.5 75.5t-75.5 193.5q0 138 101.5 242t242.5 104q122 0 197.5 -75.5t75.5 -192.5
q0 -138 -101.5 -242.5t-242.5 -104.5z" />
    <glyph glyph-name="guillemotright" unicode="&#xbb;" horiz-adv-x="1126" 
d="M119 78l-103 86l383 383l-168 362l129 64l215 -436l-4 -17zM571 78l-100 86l383 383l-168 362l129 64l215 -436l-4 -17z" />
    <glyph glyph-name="questiondown" unicode="&#xbf;" horiz-adv-x="1099" 
d="M514 -18q-194 0 -309 102.5t-115 259.5q0 127 71.5 225t190.5 155t275 79l82 225h102l-55 -332l-15 -10q-222 -18 -352.5 -103.5t-130.5 -226.5q0 -107 75.5 -167t196.5 -60q104 0 200.5 46t172.5 118l92 -107q-204 -204 -481 -204zM715 1219l57 215h189l-58 -215h-188z
" />
    <glyph glyph-name="Agrave" unicode="&#xc0;" horiz-adv-x="1558" 
d="M1028 1561l-170 221l166 76l115 -297h-111zM469 524h653l-129 736zM-82 0l1040 1444h156l266 -1444h-166l-65 379h-782l-271 -379h-178z" />
    <glyph glyph-name="Aacute" unicode="&#xc1;" horiz-adv-x="1558" 
d="M967 1561l274 297l164 -76l-291 -221h-147zM469 524h653l-129 736zM-82 0l1040 1444h156l266 -1444h-166l-65 379h-782l-271 -379h-178z" />
    <glyph glyph-name="Acircumflex" unicode="&#xc2;" horiz-adv-x="1558" 
d="M766 1561l289 268h139l145 -268h-127l-110 137l-197 -137h-139zM469 524h653l-129 736zM-82 0l1040 1444h156l266 -1444h-166l-65 379h-782l-271 -379h-178z" />
    <glyph glyph-name="Atilde" unicode="&#xc3;" horiz-adv-x="1558" 
d="M469 524h653l-129 736zM-82 0l1040 1444h156l266 -1444h-166l-65 379h-782l-271 -379h-178zM870 1567l-92 39q49 100 101 149t116 49q43 0 70 -14.5t65 -48.5q25 -22 35 -30.5t25 -15.5t31 -7q33 0 56.5 25t57.5 87l92 -41q-49 -101 -100.5 -149.5t-116.5 -48.5
q-12 0 -23 1.5t-22 5.5t-18 6t-19 10t-15.5 10.5t-18 13t-17.5 12.5q-30 33 -49 45t-43 12q-30 0 -55 -26t-60 -84z" />
    <glyph glyph-name="Adieresis" unicode="&#xc4;" horiz-adv-x="1558" 
d="M799 1561l53 194h184l-53 -194h-184zM1161 1561l53 194h183l-54 -194h-182zM469 524h653l-129 736zM-82 0l1040 1444h156l266 -1444h-166l-65 379h-782l-271 -379h-178z" />
    <glyph glyph-name="Aring" unicode="&#xc5;" horiz-adv-x="1558" 
d="M483 524h656l-131 736zM1065 1444q59 0 100 43t41 104q0 46 -30 74.5t-84 28.5q-61 0 -102.5 -43.5t-41.5 -104.5q0 -44 31 -73t86 -29zM-68 0l1010 1401q-82 46 -82 145q0 92 69 160t163 68q91 0 147.5 -51t56.5 -130q0 -72 -43.5 -129.5t-111.5 -81.5l256 -1382h-168
l-66 379h-780l-272 -379h-179z" />
    <glyph glyph-name="AE" unicode="&#xc6;" horiz-adv-x="2181" 
d="M549 524h498l204 766h-51zM-82 0l1227 1434h1147l-41 -148h-838l-131 -489h746l-39 -148h-746l-135 -502h848l-39 -147h-1010l103 379h-582l-324 -379h-186z" />
    <glyph glyph-name="Ccedilla" unicode="&#xc7;" horiz-adv-x="1505" 
d="M774 -27l-215 -290l-133 69l225 236q-210 38 -343.5 193.5t-133.5 385.5q0 172 68.5 335t183 285t274.5 196.5t334 74.5q190 0 327.5 -83t213.5 -224l-139 -86q-46 79 -100 130.5t-134 82.5t-182 31q-136 0 -261.5 -62t-216 -163.5t-144.5 -236t-54 -274.5
q0 -206 125 -327t324 -121q139 0 242 48.5t202 145.5l109 -106q-240 -240 -562 -240h-10z" />
    <glyph glyph-name="Egrave" unicode="&#xc8;" horiz-adv-x="1337" 
d="M954 1561l-170 221l166 76l115 -297h-111zM61 0l385 1434h1027l-41 -148h-865l-131 -489h772l-41 -148h-770l-135 -502h875l-39 -147h-1037z" />
    <glyph glyph-name="Eacute" unicode="&#xc9;" horiz-adv-x="1337" 
d="M829 1561l275 297l164 -76l-291 -221h-148zM61 0l385 1434h1027l-41 -148h-865l-131 -489h772l-41 -148h-770l-135 -502h875l-39 -147h-1037z" />
    <glyph glyph-name="Ecircumflex" unicode="&#xca;" horiz-adv-x="1337" 
d="M686 1561l289 268h139l146 -268h-127l-111 137l-197 -137h-139zM61 0l385 1434h1027l-41 -148h-865l-131 -489h772l-41 -148h-770l-135 -502h875l-39 -147h-1037z" />
    <glyph glyph-name="Edieresis" unicode="&#xcb;" horiz-adv-x="1337" 
d="M709 1561l53 194h184l-53 -194h-184zM1071 1561l53 194h183l-54 -194h-182zM61 0l385 1434h1027l-41 -148h-865l-131 -489h772l-41 -148h-770l-135 -502h875l-39 -147h-1037z" />
    <glyph glyph-name="Igrave" unicode="&#xcc;" horiz-adv-x="595" 
d="M557 1561l-170 221l166 76l115 -297h-111zM76 0l385 1434h162l-385 -1434h-162z" />
    <glyph glyph-name="Iacute" unicode="&#xcd;" horiz-adv-x="595" 
d="M463 1561l274 297l164 -76l-291 -221h-147zM76 0l385 1434h162l-385 -1434h-162z" />
    <glyph glyph-name="Icircumflex" unicode="&#xce;" horiz-adv-x="595" 
d="M272 1561l289 268h139l146 -268h-127l-111 137l-196 -137h-140zM76 0l385 1434h162l-385 -1434h-162z" />
    <glyph glyph-name="Idieresis" unicode="&#xcf;" horiz-adv-x="595" 
d="M303 1561l53 194h185l-54 -194h-184zM666 1561l53 194h182l-53 -194h-182zM76 0l385 1434h162l-385 -1434h-162z" />
    <glyph glyph-name="Eth" unicode="&#xd0;" horiz-adv-x="1638" 
d="M319 150h304q180 0 332 57.5t262 167.5q178 178 178 446q0 199 -119 318q-145 145 -438 145h-213l-131 -489h424l-39 -148h-426zM117 0l174 647h-160l41 148h158l172 639h348q179 0 321.5 -49t235.5 -142q158 -158 158 -412q0 -331 -228 -559q-130 -130 -319 -201
t-416 -71h-485z" />
    <glyph glyph-name="Ntilde" unicode="&#xd1;" horiz-adv-x="1609" 
d="M821 1554l-100 43q53 109 110.5 163.5t129.5 54.5q31 0 57.5 -9.5t42.5 -21.5t45 -37q53 -46 70 -53q14 -6 30 -6q34 0 61 28t66 94l101 -45q-53 -109 -110.5 -163t-129.5 -54q-30 0 -56.5 10.5t-41 21t-45.5 36.5q-38 35 -58 47t-45 12q-33 0 -61 -28t-66 -93zM61 0
l385 1434h150l584 -1164l313 1164h158l-385 -1434h-129l-598 1190l-320 -1190h-158z" />
    <glyph glyph-name="Ograve" unicode="&#xd2;" 
d="M1077 1561l-170 221l166 76l115 -297h-111zM819 123q110 0 212 39t181.5 108t139 158t91.5 193t32 210q0 207 -129 342.5t-340 135.5q-136 0 -260 -61t-209.5 -160t-136 -227.5t-50.5 -260.5q0 -206 129 -341.5t340 -135.5zM809 -27q-182 0 -326.5 82.5t-223.5 224.5
t-79 316q0 164 65 321t175 276t266.5 192t329.5 73q136 0 254 -48t200 -131t128.5 -197.5t46.5 -243.5q0 -165 -65 -322.5t-175 -277t-266.5 -192.5t-329.5 -73z" />
    <glyph glyph-name="Oacute" unicode="&#xd3;" 
d="M930 1561l274 297l164 -76l-291 -221h-147zM819 123q110 0 212 39t181.5 108t139 158t91.5 193t32 210q0 207 -129 342.5t-340 135.5q-136 0 -260 -61t-209.5 -160t-136 -227.5t-50.5 -260.5q0 -206 129 -341.5t340 -135.5zM809 -27q-182 0 -326.5 82.5t-223.5 224.5
t-79 316q0 164 65 321t175 276t266.5 192t329.5 73q136 0 254 -48t200 -131t128.5 -197.5t46.5 -243.5q0 -165 -65 -322.5t-175 -277t-266.5 -192.5t-329.5 -73z" />
    <glyph glyph-name="Ocircumflex" unicode="&#xd4;" 
d="M805 1561l289 268h139l145 -268h-127l-110 137l-197 -137h-139zM819 123q110 0 212 39t181.5 108t139 158t91.5 193t32 210q0 207 -129 342.5t-340 135.5q-136 0 -260 -61t-209.5 -160t-136 -227.5t-50.5 -260.5q0 -206 129 -341.5t340 -135.5zM809 -27
q-182 0 -326.5 82.5t-223.5 224.5t-79 316q0 164 65 321t175 276t266.5 192t329.5 73q136 0 254 -48t200 -131t128.5 -197.5t46.5 -243.5q0 -165 -65 -322.5t-175 -277t-266.5 -192.5t-329.5 -73z" />
    <glyph glyph-name="Otilde" unicode="&#xd5;" 
d="M819 123q110 0 212 39t181.5 108t139 158t91.5 193t32 210q0 207 -129 342.5t-340 135.5q-136 0 -260 -61t-209.5 -160t-136 -227.5t-50.5 -260.5q0 -206 129 -341.5t340 -135.5zM809 -27q-182 0 -326.5 82.5t-223.5 224.5t-79 316q0 164 65 321t175 276t266.5 192
t329.5 73q136 0 254 -48t200 -131t128.5 -197.5t46.5 -243.5q0 -165 -65 -322.5t-175 -277t-266.5 -192.5t-329.5 -73zM905 1567l-92 39q49 100 101 149t116 49q43 0 70 -14.5t65 -48.5q26 -23 35 -30.5t24 -15t31 -7.5q33 0 57 25.5t58 86.5l92 -41q-49 -101 -100.5 -149.5
t-116.5 -48.5q-12 0 -23 1.5t-22 5.5t-18 6t-19 10t-15.5 10.5t-18 13t-17.5 12.5q-30 33 -49 45t-43 12q-30 0 -55 -26t-60 -84z" />
    <glyph glyph-name="Odieresis" unicode="&#xd6;" 
d="M819 1561l53 194h185l-53 -194h-185zM1182 1561l53 194h182l-53 -194h-182zM819 123q110 0 212 39t181.5 108t139 158t91.5 193t32 210q0 207 -129 342.5t-340 135.5q-136 0 -260 -61t-209.5 -160t-136 -227.5t-50.5 -260.5q0 -206 129 -341.5t340 -135.5zM809 -27
q-182 0 -326.5 82.5t-223.5 224.5t-79 316q0 164 65 321t175 276t266.5 192t329.5 73q136 0 254 -48t200 -131t128.5 -197.5t46.5 -243.5q0 -165 -65 -322.5t-175 -277t-266.5 -192.5t-329.5 -73z" />
    <glyph glyph-name="Oslash" unicode="&#xd8;" 
d="M819 119q137 0 261.5 61.5t210.5 161.5t137 228.5t51 260.5q0 134 -58 244l-950 -811q129 -145 348 -145zM399 362l953 812q-130 139 -346 139q-137 0 -261.5 -61t-210.5 -161t-137 -229t-51 -262q0 -129 53 -238zM809 -27q-139 0 -257 50.5t-202 140.5l-205 -174h-184
l313 268q-94 146 -94 338q0 164 65 321t175 276t266.5 192t329.5 73q276 0 457 -184l196 170h184l-305 -264q97 -148 97 -342q0 -165 -65 -322.5t-175 -277t-266.5 -192.5t-329.5 -73z" />
    <glyph glyph-name="Ugrave" unicode="&#xd9;" horiz-adv-x="1552" 
d="M1012 1561l-170 221l166 76l114 -297h-110zM711 -23q-250 0 -386.5 126t-136.5 333q0 108 31 223l205 775h164l-217 -818q-21 -64 -21 -161q0 -147 95.5 -237.5t279.5 -90.5q185 0 319 131q126 129 183 350l223 826h162l-230 -854q-73 -272 -225 -424
q-179 -179 -446 -179z" />
    <glyph glyph-name="Uacute" unicode="&#xda;" horiz-adv-x="1552" 
d="M887 1561l274 297l164 -76l-291 -221h-147zM711 -23q-250 0 -386.5 126t-136.5 333q0 108 31 223l205 775h164l-217 -818q-21 -64 -21 -161q0 -147 95.5 -237.5t279.5 -90.5q185 0 319 131q126 129 183 350l223 826h162l-230 -854q-73 -272 -225 -424
q-179 -179 -446 -179z" />
    <glyph glyph-name="Ucircumflex" unicode="&#xdb;" horiz-adv-x="1552" 
d="M748 1561l288 268h140l145 -268h-127l-111 137l-196 -137h-139zM711 -23q-250 0 -386.5 126t-136.5 333q0 108 31 223l205 775h164l-217 -818q-21 -64 -21 -161q0 -147 95.5 -237.5t279.5 -90.5q185 0 319 131q126 129 183 350l223 826h162l-230 -854q-73 -272 -225 -424
q-179 -179 -446 -179z" />
    <glyph glyph-name="Udieresis" unicode="&#xdc;" horiz-adv-x="1552" 
d="M770 1561l53 194h185l-54 -194h-184zM1133 1561l53 194h182l-53 -194h-182zM711 -23q-250 0 -386.5 126t-136.5 333q0 108 31 223l205 775h164l-217 -818q-21 -64 -21 -161q0 -147 95.5 -237.5t279.5 -90.5q185 0 319 131q126 129 183 350l223 826h162l-230 -854
q-73 -272 -225 -424q-179 -179 -446 -179z" />
    <glyph glyph-name="Yacute" unicode="&#xdd;" horiz-adv-x="1357" 
d="M788 1561l275 297l164 -76l-291 -221h-148zM442 0l156 578l-354 856h180l287 -723l675 723h207l-839 -883l-148 -551h-164z" />
    <glyph glyph-name="Thorn" unicode="&#xde;" horiz-adv-x="1380" 
d="M334 408h309q254 0 392.5 95.5t138.5 272.5q0 107 -68 172q-90 90 -283 90h-321zM61 0l385 1434h160l-63 -246h284q276 0 412 -133q100 -103 100 -269q0 -164 -88.5 -283.5t-246.5 -180t-369 -60.5h-340l-72 -262h-162z" />
    <glyph glyph-name="germandbls" unicode="&#xdf;" horiz-adv-x="1275" 
d="M455 -4l34 131q125 0 220 24t151 66t83.5 94t27.5 113q0 204 -334 256l33 123q212 50 310.5 137t98.5 213q0 98 -68 157.5t-184 59.5q-131 0 -224.5 -97t-141.5 -274l-268 -999h-158l276 1026q63 228 178 340q140 143 349 143q177 0 288 -98.5t111 -247.5
q0 -300 -401 -420q294 -89 294 -321q0 -191 -179 -310.5t-496 -115.5z" />
    <glyph glyph-name="agrave" unicode="&#xe0;" horiz-adv-x="1179" 
d="M764 1219l-170 221l166 76l114 -297h-110zM424 102q137 0 257.5 88.5t156.5 225.5l20 73q-177 48 -342 48q-141 0 -228 -69t-87 -179q0 -87 59.5 -137t163.5 -50zM373 -23q-141 0 -237.5 78.5t-96.5 214.5q0 176 131.5 279.5t339.5 103.5q191 0 375 -57l8 27q12 62 12 96
q0 104 -71.5 158.5t-212.5 54.5q-148 0 -299 -55l-29 133q168 65 352 65q199 0 307.5 -87.5t108.5 -242.5q0 -71 -21 -145l-159 -600h-156l43 166q-158 -189 -395 -189z" />
    <glyph glyph-name="aacute" unicode="&#xe1;" horiz-adv-x="1179" 
d="M655 1219l275 297l164 -76l-291 -221h-148zM424 102q137 0 257.5 88.5t156.5 225.5l20 73q-177 48 -342 48q-141 0 -228 -69t-87 -179q0 -87 59.5 -137t163.5 -50zM373 -23q-141 0 -237.5 78.5t-96.5 214.5q0 176 131.5 279.5t339.5 103.5q191 0 375 -57l8 27
q12 62 12 96q0 104 -71.5 158.5t-212.5 54.5q-148 0 -299 -55l-29 133q168 65 352 65q199 0 307.5 -87.5t108.5 -242.5q0 -71 -21 -145l-159 -600h-156l43 166q-158 -189 -395 -189z" />
    <glyph glyph-name="acircumflex" unicode="&#xe2;" horiz-adv-x="1179" 
d="M467 1219l289 268h139l145 -268h-127l-110 137l-197 -137h-139zM424 102q137 0 257.5 88.5t156.5 225.5l20 73q-177 48 -342 48q-141 0 -228 -69t-87 -179q0 -87 59.5 -137t163.5 -50zM373 -23q-141 0 -237.5 78.5t-96.5 214.5q0 176 131.5 279.5t339.5 103.5
q191 0 375 -57l8 27q12 62 12 96q0 104 -71.5 158.5t-212.5 54.5q-148 0 -299 -55l-29 133q168 65 352 65q199 0 307.5 -87.5t108.5 -242.5q0 -71 -21 -145l-159 -600h-156l43 166q-158 -189 -395 -189z" />
    <glyph glyph-name="atilde" unicode="&#xe3;" horiz-adv-x="1179" 
d="M573 1212l-92 39q49 100 101 149.5t116 49.5q43 0 70.5 -14.5t65.5 -49.5q26 -23 35 -30.5t24 -15t31 -7.5q33 0 56.5 25.5t57.5 87.5l92 -41q-49 -101 -100.5 -150t-116.5 -49q-14 0 -28 3t-22.5 5t-23 10.5t-18.5 11.5t-21 15.5t-20 14.5q-30 33 -49 45t-43 12
q-30 0 -55 -26.5t-60 -84.5zM424 102q137 0 257.5 88.5t156.5 225.5l20 73q-177 48 -342 48q-141 0 -228 -69t-87 -179q0 -87 59.5 -137t163.5 -50zM373 -23q-141 0 -237.5 78.5t-96.5 214.5q0 176 131.5 279.5t339.5 103.5q191 0 375 -57l8 27q12 62 12 96
q0 104 -71.5 158.5t-212.5 54.5q-148 0 -299 -55l-29 133q168 65 352 65q199 0 307.5 -87.5t108.5 -242.5q0 -71 -21 -145l-159 -600h-156l43 166q-158 -189 -395 -189z" />
    <glyph glyph-name="adieresis" unicode="&#xe4;" horiz-adv-x="1179" 
d="M479 1219l53 194h185l-53 -194h-185zM842 1219l53 194h182l-53 -194h-182zM424 102q137 0 257.5 88.5t156.5 225.5l20 73q-177 48 -342 48q-141 0 -228 -69t-87 -179q0 -87 59.5 -137t163.5 -50zM373 -23q-141 0 -237.5 78.5t-96.5 214.5q0 176 131.5 279.5t339.5 103.5
q191 0 375 -57l8 27q12 62 12 96q0 104 -71.5 158.5t-212.5 54.5q-148 0 -299 -55l-29 133q168 65 352 65q199 0 307.5 -87.5t108.5 -242.5q0 -71 -21 -145l-159 -600h-156l43 166q-158 -189 -395 -189z" />
    <glyph glyph-name="aring" unicode="&#xe5;" horiz-adv-x="1179" 
d="M791 1296q61 0 101 43.5t40 104.5q0 45 -30.5 73.5t-84.5 28.5q-61 0 -102 -43t-41 -104q0 -46 31 -74.5t86 -28.5zM788 1217q-91 0 -146.5 50.5t-55.5 129.5q0 92 68.5 159.5t162.5 67.5q91 0 148 -50.5t57 -129.5q0 -92 -69.5 -159.5t-164.5 -67.5zM424 102
q137 0 257.5 88.5t156.5 225.5l20 73q-177 48 -342 48q-141 0 -228 -69t-87 -179q0 -87 59.5 -137t163.5 -50zM373 -23q-141 0 -237.5 78.5t-96.5 214.5q0 176 131.5 279.5t339.5 103.5q191 0 375 -57l8 27q12 62 12 96q0 104 -71.5 158.5t-212.5 54.5q-148 0 -299 -55
l-29 133q168 65 352 65q199 0 307.5 -87.5t108.5 -242.5q0 -71 -21 -145l-159 -600h-156l43 166q-158 -189 -395 -189z" />
    <glyph glyph-name="ae" unicode="&#xe6;" horiz-adv-x="1961" 
d="M874 485q-164 52 -358 52q-141 0 -228 -69t-87 -179q0 -87 59.5 -137t163.5 -50q244 0 455 224q-11 72 -11 110q0 19 6 49zM1038 596h682q9 35 9 80q0 117 -67.5 194.5t-197.5 77.5q-151 0 -265.5 -99.5t-160.5 -252.5zM911 219q-232 -242 -538 -242q-141 0 -237.5 78.5
t-96.5 214.5q0 176 131.5 279.5t339.5 103.5q191 0 375 -57l8 27q12 62 12 96q0 104 -71.5 158.5t-212.5 54.5q-148 0 -299 -55l-29 133q168 65 352 65q149 0 251.5 -58.5t137.5 -162.5q83 104 197 165.5t244 61.5q97 0 175.5 -32.5t128.5 -88t76.5 -128.5t26.5 -156
q0 -104 -39 -207h-827q-2 -14 -2 -37q0 -147 86 -233t233 -86q99 0 174.5 30.5t153.5 94.5l82 -105q-187 -158 -414 -158q-152 0 -259 63.5t-159 180.5z" />
    <glyph glyph-name="ccedilla" unicode="&#xe7;" horiz-adv-x="1150" 
d="M217 -248l227 238q-150 39 -248 157t-98 291q0 169 85 317.5t229 237t309 88.5q155 0 261 -69t161 -178l-127 -80q-109 188 -305 188q-118 0 -222.5 -69.5t-166.5 -185t-62 -245.5q0 -151 92 -239t223 -88q162 0 314 139l92 -102q-89 -85 -187.5 -131t-224.5 -46h-4
l-213 -292z" />
    <glyph glyph-name="egrave" unicode="&#xe8;" horiz-adv-x="1206" 
d="M735 1219l-170 221l166 76l115 -297h-111zM281 596h682q8 31 8 80q0 117 -67.5 194.5t-196.5 77.5q-151 0 -265.5 -99.5t-160.5 -252.5zM1085 469h-827q-2 -14 -2 -37q0 -147 86 -233t233 -86q98 0 174 30.5t152 94.5l82 -105q-88 -74 -187.5 -116t-228.5 -42
q-210 0 -339.5 125t-129.5 326q0 96 29.5 191.5t86 178.5t131 147t171 101t199.5 37q129 0 223.5 -56t140 -146.5t45.5 -202.5q0 -104 -39 -207z" />
    <glyph glyph-name="eacute" unicode="&#xe9;" horiz-adv-x="1206" 
d="M621 1219l274 297l164 -76l-291 -221h-147zM281 596h682q8 31 8 80q0 117 -67.5 194.5t-196.5 77.5q-151 0 -265.5 -99.5t-160.5 -252.5zM1085 469h-827q-2 -14 -2 -37q0 -147 86 -233t233 -86q98 0 174 30.5t152 94.5l82 -105q-88 -74 -187.5 -116t-228.5 -42
q-210 0 -339.5 125t-129.5 326q0 96 29.5 191.5t86 178.5t131 147t171 101t199.5 37q129 0 223.5 -56t140 -146.5t45.5 -202.5q0 -104 -39 -207z" />
    <glyph glyph-name="ecircumflex" unicode="&#xea;" horiz-adv-x="1206" 
d="M467 1219l289 268h139l145 -268h-127l-110 137l-197 -137h-139zM281 596h682q8 31 8 80q0 117 -67.5 194.5t-196.5 77.5q-151 0 -265.5 -99.5t-160.5 -252.5zM1085 469h-827q-2 -14 -2 -37q0 -147 86 -233t233 -86q98 0 174 30.5t152 94.5l82 -105q-88 -74 -187.5 -116
t-228.5 -42q-210 0 -339.5 125t-129.5 326q0 96 29.5 191.5t86 178.5t131 147t171 101t199.5 37q129 0 223.5 -56t140 -146.5t45.5 -202.5q0 -104 -39 -207z" />
    <glyph glyph-name="edieresis" unicode="&#xeb;" horiz-adv-x="1206" 
d="M489 1219l54 194h184l-53 -194h-185zM852 1219l53 194h182l-53 -194h-182zM281 596h682q8 31 8 80q0 117 -67.5 194.5t-196.5 77.5q-151 0 -265.5 -99.5t-160.5 -252.5zM1085 469h-827q-2 -14 -2 -37q0 -147 86 -233t233 -86q98 0 174 30.5t152 94.5l82 -105
q-88 -74 -187.5 -116t-228.5 -42q-210 0 -339.5 125t-129.5 326q0 96 29.5 191.5t86 178.5t131 147t171 101t199.5 37q129 0 223.5 -56t140 -146.5t45.5 -202.5q0 -104 -39 -207z" />
    <glyph glyph-name="igrave" unicode="&#xec;" horiz-adv-x="540" 
d="M412 1219l-170 221l166 76l114 -297h-110zM49 0l285 1059h158l-285 -1059h-158z" />
    <glyph glyph-name="iacute" unicode="&#xed;" horiz-adv-x="540" 
d="M352 1219l275 297l164 -76l-291 -221h-148zM49 0l285 1059h158l-285 -1059h-158z" />
    <glyph glyph-name="icircumflex" unicode="&#xee;" horiz-adv-x="540" 
d="M152 1219l288 268h140l145 -268h-127l-111 137l-196 -137h-139zM49 0l285 1059h158l-285 -1059h-158z" />
    <glyph glyph-name="idieresis" unicode="&#xef;" horiz-adv-x="540" 
d="M174 1219l53 194h185l-54 -194h-184zM537 1219l53 194h182l-53 -194h-182zM49 0l285 1059h158l-285 -1059h-158z" />
    <glyph glyph-name="eth" unicode="&#xf0;" horiz-adv-x="1273" 
d="M575 117q119 0 220 59.5t159 160t58 216.5q0 135 -93 225t-249 90q-112 0 -209 -59t-154 -159t-57 -216q0 -145 90.5 -231t234.5 -86zM563 -23q-205 0 -338 127.5t-133 321.5q0 116 46.5 222t123.5 181t180 119.5t213 44.5q188 0 314 -110l-160 370l-305 -129l-53 103
l313 131l-62 137h172l33 -80l232 98l51 -102l-240 -100l131 -322q51 -125 73 -215t22 -182q0 -160 -75.5 -300t-217.5 -227.5t-320 -87.5z" />
    <glyph glyph-name="ntilde" unicode="&#xf1;" horiz-adv-x="1255" 
d="M559 1212l-100 43q53 109 110.5 163.5t128.5 54.5q45 0 74.5 -15.5t71.5 -52.5q53 -46 70 -53q14 -6 30 -6q34 0 61 28t66 94l100 -45q-53 -109 -110 -163t-129 -54q-30 0 -56.5 10.5t-41.5 21.5t-46 36q-38 35 -57.5 47t-44.5 12q-33 0 -61 -28t-66 -93zM35 0l282 1059
h158l-45 -172q81 92 168.5 143t200.5 51q155 0 246.5 -88t91.5 -239q0 -58 -27 -164l-156 -590h-157l159 600q17 60 17 119q0 104 -63.5 162.5t-174.5 58.5q-123 0 -233.5 -96.5t-149.5 -245.5l-159 -598h-158z" />
    <glyph glyph-name="ograve" unicode="&#xf2;" horiz-adv-x="1306" 
d="M758 1219l-170 221l166 76l114 -297h-110zM592 117q117 0 221.5 67.5t167.5 180t63 237.5q0 159 -90.5 249.5t-240.5 90.5q-89 0 -173.5 -41.5t-145 -109.5t-97.5 -156.5t-37 -179.5q0 -159 91 -248.5t241 -89.5zM582 -25q-216 0 -349 134.5t-133 341.5q0 163 85 308.5
t229.5 233.5t308.5 88q215 0 349 -133.5t134 -339.5q0 -124 -51 -241t-136 -202.5t-200 -137.5t-237 -52z" />
    <glyph glyph-name="oacute" unicode="&#xf3;" horiz-adv-x="1306" 
d="M686 1219l275 297l163 -76l-290 -221h-148zM592 117q117 0 221.5 67.5t167.5 180t63 237.5q0 159 -90.5 249.5t-240.5 90.5q-89 0 -173.5 -41.5t-145 -109.5t-97.5 -156.5t-37 -179.5q0 -159 91 -248.5t241 -89.5zM582 -25q-216 0 -349 134.5t-133 341.5q0 163 85 308.5
t229.5 233.5t308.5 88q215 0 349 -133.5t134 -339.5q0 -124 -51 -241t-136 -202.5t-200 -137.5t-237 -52z" />
    <glyph glyph-name="ocircumflex" unicode="&#xf4;" horiz-adv-x="1306" 
d="M520 1219l289 268h139l146 -268h-127l-111 137l-197 -137h-139zM592 117q117 0 221.5 67.5t167.5 180t63 237.5q0 159 -90.5 249.5t-240.5 90.5q-89 0 -173.5 -41.5t-145 -109.5t-97.5 -156.5t-37 -179.5q0 -159 91 -248.5t241 -89.5zM582 -25q-216 0 -349 134.5
t-133 341.5q0 163 85 308.5t229.5 233.5t308.5 88q215 0 349 -133.5t134 -339.5q0 -124 -51 -241t-136 -202.5t-200 -137.5t-237 -52z" />
    <glyph glyph-name="otilde" unicode="&#xf5;" horiz-adv-x="1306" 
d="M592 117q117 0 221.5 67.5t167.5 180t63 237.5q0 159 -90.5 249.5t-240.5 90.5q-89 0 -173.5 -41.5t-145 -109.5t-97.5 -156.5t-37 -179.5q0 -159 91 -248.5t241 -89.5zM582 -25q-216 0 -349 134.5t-133 341.5q0 163 85 308.5t229.5 233.5t308.5 88q215 0 349 -133.5
t134 -339.5q0 -124 -51 -241t-136 -202.5t-200 -137.5t-237 -52zM602 1212l-92 39q49 100 101 149.5t116 49.5q30 0 54.5 -9t39.5 -20t41 -35q26 -23 35 -30.5t24 -15t31 -7.5q33 0 57 25.5t58 87.5l92 -41q-49 -101 -100.5 -150t-116.5 -49q-14 0 -28 3t-22.5 5t-23 10.5
t-18.5 11.5t-21 15.5t-20 14.5q-30 33 -49 45t-43 12q-30 0 -55 -26.5t-60 -84.5z" />
    <glyph glyph-name="odieresis" unicode="&#xf6;" horiz-adv-x="1306" 
d="M516 1219l53 194h185l-54 -194h-184zM879 1219l53 194h182l-53 -194h-182zM592 117q117 0 221.5 67.5t167.5 180t63 237.5q0 159 -90.5 249.5t-240.5 90.5q-89 0 -173.5 -41.5t-145 -109.5t-97.5 -156.5t-37 -179.5q0 -159 91 -248.5t241 -89.5zM582 -25
q-216 0 -349 134.5t-133 341.5q0 163 85 308.5t229.5 233.5t308.5 88q215 0 349 -133.5t134 -339.5q0 -124 -51 -241t-136 -202.5t-200 -137.5t-237 -52z" />
    <glyph glyph-name="oslash" unicode="&#xf8;" horiz-adv-x="1306" 
d="M590 113q88 0 172.5 41t146.5 108t100 157t38 183q0 89 -31 162l-668 -561q90 -90 242 -90zM289 299l665 557q-88 88 -239 88q-90 0 -175 -42t-146.5 -110t-98.5 -157t-37 -180q0 -75 31 -156zM582 -25q-209 0 -346 134l-144 -119h-174l246 207q-64 110 -64 254
q0 163 85 308.5t229.5 233.5t308.5 88q215 0 344 -129l145 119h174l-247 -207q67 -110 67 -256q0 -124 -51 -241t-136 -202.5t-200 -137.5t-237 -52z" />
    <glyph glyph-name="ugrave" unicode="&#xf9;" horiz-adv-x="1255" 
d="M756 1219l-170 221l166 76l114 -297h-110zM455 -23q-154 0 -245 88t-91 240q0 62 26 164l156 590h158l-162 -600q-14 -61 -14 -119q0 -104 62.5 -162.5t172.5 -58.5q125 0 233.5 96.5t149.5 247.5l160 596h158l-283 -1059h-158l47 172q-81 -92 -169 -143.5t-201 -51.5z
" />
    <glyph glyph-name="uacute" unicode="&#xfa;" horiz-adv-x="1255" 
d="M657 1219l275 297l164 -76l-291 -221h-148zM455 -23q-154 0 -245 88t-91 240q0 62 26 164l156 590h158l-162 -600q-14 -61 -14 -119q0 -104 62.5 -162.5t172.5 -58.5q125 0 233.5 96.5t149.5 247.5l160 596h158l-283 -1059h-158l47 172q-81 -92 -169 -143.5t-201 -51.5z
" />
    <glyph glyph-name="ucircumflex" unicode="&#xfb;" horiz-adv-x="1255" 
d="M502 1219l289 268h139l145 -268h-127l-110 137l-197 -137h-139zM455 -23q-154 0 -245 88t-91 240q0 62 26 164l156 590h158l-162 -600q-14 -61 -14 -119q0 -104 62.5 -162.5t172.5 -58.5q125 0 233.5 96.5t149.5 247.5l160 596h158l-283 -1059h-158l47 172
q-81 -92 -169 -143.5t-201 -51.5z" />
    <glyph glyph-name="udieresis" unicode="&#xfc;" horiz-adv-x="1255" 
d="M520 1219l53 194h185l-53 -194h-185zM883 1219l53 194h182l-53 -194h-182zM455 -23q-154 0 -245 88t-91 240q0 62 26 164l156 590h158l-162 -600q-14 -61 -14 -119q0 -104 62.5 -162.5t172.5 -58.5q125 0 233.5 96.5t149.5 247.5l160 596h158l-283 -1059h-158l47 172
q-81 -92 -169 -143.5t-201 -51.5z" />
    <glyph glyph-name="yacute" unicode="&#xfd;" horiz-adv-x="1175" 
d="M604 1219l275 297l163 -76l-290 -221h-148zM78 -334q-125 0 -232 74l86 119q29 -23 76 -38.5t86 -15.5q71 0 135.5 44t141.5 153l-193 1057h164l147 -883l570 883h178l-725 -1094q-111 -162 -212.5 -230.5t-221.5 -68.5z" />
    <glyph glyph-name="thorn" unicode="&#xfe;" horiz-adv-x="1349" 
d="M639 115q123 0 225 69t159.5 184.5t57.5 249.5q0 147 -82.5 235.5t-216.5 88.5q-116 0 -225.5 -70.5t-177.5 -186.5t-68 -241q0 -142 91 -235.5t237 -93.5zM-53 -328l489 1823h158l-168 -618q184 204 401 204q182 0 301 -124t119 -324q0 -137 -49.5 -260.5t-131.5 -210
t-190 -137t-223 -50.5q-78 0 -144.5 21t-114 59t-81.5 83t-57 100l-152 -566h-157z" />
    <glyph glyph-name="ydieresis" unicode="&#xff;" horiz-adv-x="1175" 
d="M467 1219l53 194h185l-54 -194h-184zM829 1219l54 194h182l-53 -194h-183zM78 -334q-125 0 -232 74l86 119q29 -23 76 -38.5t86 -15.5q71 0 135.5 44t141.5 153l-193 1057h164l147 -883l570 883h178l-725 -1094q-111 -162 -212.5 -230.5t-221.5 -68.5z" />
    <glyph glyph-name="Abreve" unicode="&#x102;" horiz-adv-x="1558" 
d="M1073 1577q-127 0 -186.5 67.5t-30.5 188.5h111q-19 -57 17 -93t110 -36q87 0 142 33t95 96h111q-47 -122 -145 -189t-224 -67zM469 524h653l-129 736zM-82 0l1040 1444h156l266 -1444h-166l-65 379h-782l-271 -379h-178z" />
    <glyph glyph-name="abreve" unicode="&#x103;" horiz-adv-x="1179" 
d="M793 1214q-127 0 -187 67.5t-31 188.5h111q-19 -57 17 -93t110 -36q87 0 142.5 33.5t95.5 95.5h110q-47 -122 -144.5 -189t-223.5 -67zM424 102q137 0 257.5 88.5t156.5 225.5l20 73q-177 48 -342 48q-141 0 -228 -69t-87 -179q0 -87 59.5 -137t163.5 -50zM373 -23
q-141 0 -237.5 78.5t-96.5 214.5q0 176 131.5 279.5t339.5 103.5q191 0 375 -57l8 27q12 62 12 96q0 104 -71.5 158.5t-212.5 54.5q-148 0 -299 -55l-29 133q168 65 352 65q199 0 307.5 -87.5t108.5 -242.5q0 -71 -21 -145l-159 -600h-156l43 166q-158 -189 -395 -189z" />
    <glyph glyph-name="Dcroat" unicode="&#x110;" horiz-adv-x="1583" 
d="M88 666l39 133h149l170 635h347q179 0 322 -49t237 -142q155 -155 155 -412q0 -334 -225 -559q-130 -130 -319 -201t-416 -71h-486l179 666h-152zM264 150h303q367 0 592 225q180 180 180 446q0 201 -120 318q-145 145 -437 145h-213l-131 -485h367l-39 -133h-363z" />
    <glyph glyph-name="dcroat" unicode="&#x111;" horiz-adv-x="1349" 
d="M901 1219l43 120h610l-43 -120h-610zM567 115q116 0 225.5 70t177.5 186t68 243q0 140 -91 234t-236 94q-123 0 -225.5 -69.5t-160 -185t-57.5 -249.5q0 -147 83 -235t216 -88zM522 -25q-182 0 -301 125t-119 324q0 137 49.5 260.5t131.5 209.5t190 136.5t223 50.5
q283 0 398 -262l180 676h158l-400 -1495h-158l48 180q-178 -205 -400 -205z" />
    <glyph glyph-name="Itilde" unicode="&#x128;" horiz-adv-x="595" 
d="M356 1567l-92 39q49 100 101 149t116 49q43 0 70 -14.5t65 -48.5q25 -22 35 -30.5t25 -15.5t31 -7q33 0 56.5 25t57.5 87l92 -41q-49 -101 -100.5 -149.5t-116.5 -48.5q-12 0 -23 1.5t-22 5.5t-18 6t-19 10t-15.5 10.5t-18 13t-17.5 12.5q-30 33 -49 45t-43 12
q-30 0 -55 -26t-60 -84zM76 0l385 1434h162l-385 -1434h-162z" />
    <glyph glyph-name="itilde" unicode="&#x129;" horiz-adv-x="540" 
d="M49 0l285 1059h158l-285 -1059h-158zM231 1212l-92 39q49 100 101 149.5t116 49.5q43 0 70.5 -14.5t65.5 -49.5q26 -23 35 -30.5t24 -15t31 -7.5q33 0 56.5 25.5t57.5 87.5l92 -41q-49 -101 -100.5 -150t-116.5 -49q-14 0 -28 3t-22.5 5t-23 10.5t-18.5 11.5t-21 15.5
t-20 14.5q-30 33 -49 45t-43 12q-30 0 -55 -26.5t-60 -84.5z" />
    <glyph glyph-name="dotlessi" unicode="&#x131;" horiz-adv-x="540" 
d="M49 0l285 1059h158l-285 -1059h-158z" />
    <glyph glyph-name="Lslash" unicode="&#x141;" horiz-adv-x="1335" 
d="M152 0l165 616l-163 -45l39 150l165 47l179 666h161l-166 -617l480 135l-41 -151l-479 -135l-140 -516h811l-41 -150h-970z" />
    <glyph glyph-name="lslash" unicode="&#x142;" horiz-adv-x="659" 
d="M111 0l176 655l-166 -47l41 154l166 47l184 686h158l-172 -639l170 49l-41 -153l-170 -50l-189 -702h-157z" />
    <glyph glyph-name="OE" unicode="&#x152;" horiz-adv-x="2318" 
d="M901 150h182l306 1134h-273q-180 0 -332 -57.5t-262 -167.5q-178 -178 -178 -447q0 -198 119 -317q145 -145 438 -145zM2052 0h-1161q-368 0 -561 193q-156 156 -156 409q0 332 227 559q130 130 320 201.5t416 71.5h1290l-39 -148h-838l-131 -489h744l-39 -148h-744
l-135 -502h848z" />
    <glyph glyph-name="oe" unicode="&#x153;" horiz-adv-x="2131" 
d="M592 117q117 0 221.5 66t167.5 176.5t63 234.5q0 163 -90.5 255.5t-240.5 92.5q-90 0 -174 -41t-145 -108t-97.5 -155.5t-36.5 -180.5q0 -158 91 -249t241 -91zM1208 596h682q8 31 8 80q0 117 -67.5 194.5t-196.5 77.5q-151 0 -265.5 -99.5t-160.5 -252.5zM2013 469h-827
q-2 -14 -2 -37q0 -147 86 -233t233 -86q98 0 174 30.5t152 94.5l84 -105q-187 -158 -414 -158q-160 0 -273.5 77.5t-152.5 209.5q-85 -129 -210.5 -208t-284.5 -79q-212 0 -345 135t-133 341q0 122 50 237.5t133.5 201.5t199 138.5t240.5 52.5q166 0 277.5 -84t150.5 -217
q79 134 203 217.5t288 83.5q98 0 177 -32.5t129 -88t77 -128.5t27 -156q0 -104 -39 -207z" />
    <glyph glyph-name="Scaron" unicode="&#x160;" horiz-adv-x="1304" 
d="M825 1561l-145 268h127l113 -137l196 137h139l-290 -268h-140zM610 -20q-195 0 -343 70.5t-242 201.5l122 96q95 -114 207 -168.5t267 -54.5q156 0 259 75.5t103 192.5q0 83 -64 139.5t-231 122.5q-209 83 -301 166.5t-92 216.5q0 179 148.5 297.5t379.5 118.5
q162 0 292.5 -58t215.5 -159l-119 -107q-162 179 -403 179q-155 0 -249.5 -74.5t-94.5 -177.5q0 -84 70 -139.5t247 -124.5q192 -72 281.5 -159t89.5 -220q0 -124 -72 -223.5t-196 -155t-275 -55.5z" />
    <glyph glyph-name="scaron" unicode="&#x161;" horiz-adv-x="1015" 
d="M606 1219l-145 268h127l112 -137l197 137h139l-291 -268h-139zM444 -23q-126 0 -246 47.5t-210 137.5l102 102q158 -155 369 -155q94 0 163.5 49.5t69.5 126.5q0 53 -44.5 95t-155.5 85q-156 61 -227.5 124t-71.5 167q0 139 109.5 232t291.5 93q110 0 214.5 -41.5
t176.5 -103.5l-92 -109q-150 123 -313 123q-108 0 -169 -49t-61 -119q0 -54 43.5 -93t167.5 -87q152 -64 220.5 -128.5t68.5 -162.5q0 -145 -118 -239.5t-288 -94.5z" />
    <glyph glyph-name="Utilde" unicode="&#x168;" horiz-adv-x="1552" 
d="M842 1567l-92 39q49 100 101 149t116 49q43 0 70 -14.5t65 -48.5q26 -23 35 -30.5t24 -15t31 -7.5q33 0 57 25.5t58 86.5l92 -41q-49 -101 -100.5 -149.5t-116.5 -48.5q-12 0 -23 1.5t-22 5.5t-18 6t-19 10t-15.5 10.5t-18 13t-17.5 12.5q-30 33 -49.5 45t-43.5 12
q-30 0 -54.5 -26t-59.5 -84zM711 -23q-250 0 -386.5 126t-136.5 333q0 108 31 223l205 775h164l-217 -818q-21 -64 -21 -161q0 -147 95.5 -237.5t279.5 -90.5q185 0 319 131q126 129 183 350l223 826h162l-230 -854q-73 -272 -225 -424q-179 -179 -446 -179z" />
    <glyph glyph-name="utilde" unicode="&#x169;" horiz-adv-x="1255" 
d="M578 1212l-93 39q49 100 101 149.5t116 49.5q43 0 70.5 -14.5t65.5 -49.5q26 -23 35 -30.5t24 -15t31 -7.5q33 0 56.5 25.5t57.5 87.5l93 -41q-49 -101 -100.5 -150t-116.5 -49q-12 0 -23 1.5t-22 5.5t-18 6.5t-19 10t-16.5 10.5t-18 13t-17.5 13q-30 33 -49 45t-43 12
q-30 0 -54.5 -26t-59.5 -85zM455 -23q-154 0 -245 88t-91 240q0 62 26 164l156 590h158l-162 -600q-14 -61 -14 -119q0 -104 62.5 -162.5t172.5 -58.5q125 0 233.5 96.5t149.5 247.5l160 596h158l-283 -1059h-158l47 172q-81 -92 -169 -143.5t-201 -51.5z" />
    <glyph glyph-name="Ydieresis" unicode="&#x178;" horiz-adv-x="1357" 
d="M655 1561l54 194h184l-53 -194h-185zM1018 1561l53 194h182l-53 -194h-182zM442 0l156 578l-354 856h180l287 -723l675 723h207l-839 -883l-148 -551h-164z" />
    <glyph glyph-name="Zcaron" unicode="&#x17d;" horiz-adv-x="1370" 
d="M852 1561l-145 268h127l112 -137l197 137h139l-291 -268h-139zM-39 0l29 109l1222 1179h-874l41 146h1110l-29 -109l-1224 -1180h913l-39 -145h-1149z" />
    <glyph glyph-name="zcaron" unicode="&#x17e;" horiz-adv-x="1124" 
d="M647 1219l-145 268h127l112 -137l197 137h139l-291 -268h-139zM-41 0l29 100l903 826h-658l37 133h885l-29 -101l-905 -825h692l-36 -133h-918z" />
    <glyph glyph-name="florin" unicode="&#x192;" horiz-adv-x="1087" 
d="M84 -20q-76 0 -135 18l39 131q54 -14 96 -14q64 0 114.5 46.5t94.5 147.5l201 455h-199l37 137h221l111 248q67 155 158.5 230t219.5 75q113 0 191 -35l-41 -131q-74 29 -148 29q-78 0 -137 -51t-106 -160l-90 -205h307l-35 -137h-332l-219 -498q-69 -155 -153 -220.5
t-195 -65.5z" />
    <glyph glyph-name="Ohorn" unicode="&#x1a0;" 
d="M809 -27q-182 0 -326.5 82.5t-223.5 224.5t-79 316q0 164 65 321t175 276t266.5 192t329.5 73q141 0 254 -49q33 -13 84 -43v2q89 5 134.5 24.5t57.5 61.5l6 31q13 61 -6 137h156q18 -96 -8 -176q-41 -146 -199 -195q59 -70 102 -170q48 -118 48 -243q0 -165 -65 -322.5
t-175 -277t-266.5 -192.5t-329.5 -73zM819 123q110 0 212 39t181.5 108t139 158t91.5 193t32 210q0 207 -129 342.5t-340 135.5q-136 0 -260 -61t-209.5 -160t-136 -227.5t-50.5 -260.5q0 -206 129 -341.5t340 -135.5z" />
    <glyph glyph-name="ohorn" unicode="&#x1a1;" horiz-adv-x="1306" 
d="M582 -25q-216 0 -349 134.5t-133 341.5q0 163 85 308.5t229.5 233.5t308.5 88q110 0 197 -37q36 -12 65 -30q75 3 121 22q47 21 59 64l6 30q14 61 -6 138h156q18 -96 -8 -176q-40 -142 -197 -195q35 -47 55 -100q35 -87 35 -189q0 -124 -51 -241t-136 -202.5t-200 -137.5
t-237 -52zM592 117q117 0 221.5 67.5t167.5 180t63 237.5q0 159 -90.5 249.5t-240.5 90.5q-89 0 -173.5 -41.5t-145 -109.5t-97.5 -156.5t-37 -179.5q0 -159 91 -248.5t241 -89.5z" />
    <glyph glyph-name="Uhorn" unicode="&#x1af;" horiz-adv-x="1622" 
d="M711 -23q-250 0 -386.5 126t-136.5 333q0 108 31 223l205 775h164l-217 -818q-21 -64 -21 -161q0 -147 95.5 -237.5t279.5 -90.5q185 0 319 131q126 129 183 350l223 826h158l24 8q49 22 60 63l6 31q13 61 -6 137h155q18 -96 -8 -176q-46 -173 -268 -211l-189 -706
q-73 -272 -225 -424q-179 -179 -446 -179z" />
    <glyph glyph-name="uhorn" unicode="&#x1b0;" horiz-adv-x="1294" 
d="M455 -23q-154 0 -245 88t-91 240q0 62 26 164l156 590h158l-162 -600q-14 -61 -14 -119q0 -104 62.5 -162.5t172.5 -58.5q125 0 233.5 96.5t149.5 247.5l160 596h139l19 6q48 21 59 63l6 31q13 61 -6 137h156q18 -94 -9 -176q-47 -164 -245 -207l-244 -913h-158l47 172
q-81 -92 -169 -143.5t-201 -51.5z" />
    <glyph glyph-name="circumflex" unicode="&#x2c6;" horiz-adv-x="1024" 
d="M412 1219l288 268h140l145 -268h-127l-110 137l-197 -137h-139z" />
    <glyph glyph-name="caron" unicode="&#x2c7;" horiz-adv-x="1024" 
d="M625 1219l-146 268h127l113 -137l196 137h140l-291 -268h-139z" />
    <glyph glyph-name="breve" unicode="&#x2d8;" horiz-adv-x="1024" 
d="M705 1214q-116 0 -182 61t-66 161q0 28 6 51h117q0 -68 33.5 -104.5t113.5 -36.5q136 0 215 141h127q-41 -126 -141 -199.5t-223 -73.5z" />
    <glyph glyph-name="dotaccent" unicode="&#x2d9;" horiz-adv-x="1024" 
d="M604 1217l55 200h183l-56 -200h-182z" />
    <glyph glyph-name="ring" unicode="&#x2da;" horiz-adv-x="1024" 
d="M735 1296q61 0 101.5 43.5t40.5 104.5q0 45 -30.5 73.5t-84.5 28.5q-61 0 -102.5 -43t-41.5 -104q0 -46 31 -74.5t86 -28.5zM733 1217q-91 0 -147 50.5t-56 129.5q0 92 69 159.5t163 67.5q91 0 148 -50.5t57 -129.5q0 -92 -69.5 -159.5t-164.5 -67.5z" />
    <glyph glyph-name="ogonek" unicode="&#x2db;" horiz-adv-x="1024" 
d="M487 -252l-20 -84q-155 -7 -234 38t-79 128q0 39 22 92.5t53 97.5h121q-19 -36 -33 -81t-14 -74q0 -108 184 -117z" />
    <glyph glyph-name="tilde" unicode="&#x2dc;" horiz-adv-x="1024" 
d="M469 1212l-100 43q53 109 110.5 163.5t128.5 54.5q45 0 74.5 -15.5t71.5 -52.5q53 -46 70 -53q14 -6 30 -6q34 0 61 28t66 94l100 -45q-53 -109 -110 -163t-129 -54q-30 0 -56.5 10.5t-41.5 21.5t-46 36q-38 35 -57.5 47t-44.5 12q-33 0 -61 -28t-66 -93z" />
    <glyph glyph-name="hungarumlaut" unicode="&#x2dd;" horiz-adv-x="1024" 
d="M354 1219l277 297l131 -76l-281 -221h-127zM690 1219l277 297l133 -76l-285 -221h-125z" />
    <glyph glyph-name="Omega" unicode="&#x3a9;" horiz-adv-x="1536" 
d="M94 0l248 920h-145l36 139h146l35 127q81 313 362 313q128 0 211 -45l-37 -135q-87 43 -174 43q-157 0 -213 -201l-26 -102h346l-39 -139h-344l-248 -920h-158zM864 0l248 920h-147l36 139h146l35 127q81 313 364 313q126 0 209 -45l-37 -135q-87 43 -174 43
q-157 0 -213 -201l-26 -102h346l-37 -139h-346l-248 -920h-156z" />
    <glyph glyph-name="Omega" unicode="&#x2126;" horiz-adv-x="1536" 
d="M94 0l248 920h-145l36 139h146l35 127q81 313 362 313q128 0 211 -45l-37 -135q-87 43 -174 43q-157 0 -213 -201l-26 -102h346l-39 -139h-344l-248 -920h-158zM864 0l248 920h-147l36 139h146l35 127q81 313 364 313q126 0 209 -45l-37 -135q-87 43 -174 43
q-157 0 -213 -201l-26 -102h346l-37 -139h-346l-248 -920h-156z" />
    <glyph glyph-name="pi" unicode="&#x3c0;" horiz-adv-x="1699" 
d="M760 711h174q89 0 140.5 40t51.5 111q0 73 -50 110.5t-140 37.5h-176v-299zM647 352v760h299q136 0 215.5 -65.5t79.5 -182.5q0 -123 -90 -189.5t-221 -66.5h-170v-256h-113zM897 39q188 0 344 92.5t244 248t88 339.5q0 137 -51.5 261.5t-140.5 215.5t-214 145t-266 54
q-188 0 -344 -92.5t-244 -248t-88 -339.5q0 -137 51.5 -261.5t140.5 -215.5t214 -145t266 -54zM897 -25q-204 0 -374.5 100t-267.5 270t-97 370q0 149 58 286t156.5 237t236.5 160t292 60q153 0 290.5 -59t235.5 -158t155.5 -235.5t57.5 -286.5q0 -149 -58 -286
t-156.5 -237.5t-237 -160.5t-291.5 -60z" />
    <glyph glyph-name="uni1EA0" unicode="&#x1ea0;" horiz-adv-x="1558" 
d="M483 -385l58 215h157l-57 -215h-158zM469 524h653l-129 736zM-82 0l1040 1444h156l266 -1444h-166l-65 379h-782l-271 -379h-178z" />
    <glyph glyph-name="uni1EA1" unicode="&#x1ea1;" horiz-adv-x="1179" 
d="M293 -385l57 215h158l-57 -215h-158zM424 102q137 0 257.5 88.5t156.5 225.5l20 73q-177 48 -342 48q-141 0 -228 -69t-87 -179q0 -87 59.5 -137t163.5 -50zM373 -23q-141 0 -237.5 78.5t-96.5 214.5q0 176 131.5 279.5t339.5 103.5q191 0 375 -57l8 27q12 62 12 96
q0 104 -71.5 158.5t-212.5 54.5q-148 0 -299 -55l-29 133q168 65 352 65q199 0 307.5 -87.5t108.5 -242.5q0 -71 -21 -145l-159 -600h-156l43 166q-158 -189 -395 -189z" />
    <glyph glyph-name="uni1EA2" unicode="&#x1ea2;" horiz-adv-x="1558" 
d="M1026 1561l37 157q72 18 105 41t46 60q7 26 -3 38.5t-50 12.5q-60 0 -112 -76l-101 57q111 134 250 134q88 0 129.5 -47t18.5 -119q-23 -64 -77 -111t-122 -66q-9 -17 -18.5 -42t-16.5 -39h-86zM469 524h653l-129 736zM-82 0l1040 1444h156l266 -1444h-166l-65 379h-782
l-271 -379h-178z" />
    <glyph glyph-name="uni1EA3" unicode="&#x1ea3;" horiz-adv-x="1179" 
d="M745 1221l37 157q73 18 106.5 41t45.5 60q7 26 -3 38.5t-50 12.5q-61 0 -113 -76l-100 57q111 134 250 134q88 0 129 -47t18 -119q-23 -64 -77 -110.5t-122 -65.5q-9 -17 -18.5 -42t-16.5 -40h-86zM424 102q137 0 257.5 88.5t156.5 225.5l20 73q-177 48 -342 48
q-141 0 -228 -69t-87 -179q0 -87 59.5 -137t163.5 -50zM373 -23q-141 0 -237.5 78.5t-96.5 214.5q0 176 131.5 279.5t339.5 103.5q191 0 375 -57l8 27q12 62 12 96q0 104 -71.5 158.5t-212.5 54.5q-148 0 -299 -55l-29 133q168 65 352 65q199 0 307.5 -87.5t108.5 -242.5
q0 -71 -21 -145l-159 -600h-156l43 166q-158 -189 -395 -189z" />
    <glyph glyph-name="uni1EA4" unicode="&#x1ea4;" horiz-adv-x="1558" 
d="M1317 1786l274 297l164 -76l-291 -221h-147zM766 1561l289 268h139l145 -268h-127l-110 137l-197 -137h-139zM469 524h653l-129 736zM-82 0l1040 1444h156l266 -1444h-166l-65 379h-782l-271 -379h-178z" />
    <glyph glyph-name="uni1EA5" unicode="&#x1ea5;" horiz-adv-x="1179" 
d="M1018 1444l274 297l164 -76l-291 -221h-147zM467 1219l289 268h139l145 -268h-127l-110 137l-197 -137h-139zM424 102q137 0 257.5 88.5t156.5 225.5l20 73q-177 48 -342 48q-141 0 -228 -69t-87 -179q0 -87 59.5 -137t163.5 -50zM373 -23q-141 0 -237.5 78.5
t-96.5 214.5q0 176 131.5 279.5t339.5 103.5q191 0 375 -57l8 27q12 62 12 96q0 104 -71.5 158.5t-212.5 54.5q-148 0 -299 -55l-29 133q168 65 352 65q199 0 307.5 -87.5t108.5 -242.5q0 -71 -21 -145l-159 -600h-156l43 166q-158 -189 -395 -189z" />
    <glyph glyph-name="uni1EA6" unicode="&#x1ea6;" horiz-adv-x="1558" 
d="M1337 1788l-170 221l166 76l115 -297h-111zM766 1561l289 268h139l145 -268h-127l-110 137l-197 -137h-139zM469 524h653l-129 736zM-82 0l1040 1444h156l266 -1444h-166l-65 379h-782l-271 -379h-178z" />
    <glyph glyph-name="uni1EA7" unicode="&#x1ea7;" horiz-adv-x="1179" 
d="M1038 1446l-170 221l166 76l115 -297h-111zM467 1219l289 268h139l145 -268h-127l-110 137l-197 -137h-139zM424 102q137 0 257.5 88.5t156.5 225.5l20 73q-177 48 -342 48q-141 0 -228 -69t-87 -179q0 -87 59.5 -137t163.5 -50zM373 -23q-141 0 -237.5 78.5t-96.5 214.5
q0 176 131.5 279.5t339.5 103.5q191 0 375 -57l8 27q12 62 12 96q0 104 -71.5 158.5t-212.5 54.5q-148 0 -299 -55l-29 133q168 65 352 65q199 0 307.5 -87.5t108.5 -242.5q0 -71 -21 -145l-159 -600h-156l43 166q-158 -189 -395 -189z" />
    <glyph glyph-name="uni1EA8" unicode="&#x1ea8;" horiz-adv-x="1558" 
d="M1307 1786l34 149q69 16 100 38.5t44 56.5q7 26 -2.5 37.5t-48.5 11.5q-55 0 -107 -72l-94 53q58 71 115 99t122 28q81 0 120.5 -44.5t19.5 -112.5q-23 -60 -74.5 -104t-114.5 -62q-9 -18 -18.5 -43t-13.5 -35h-82zM766 1561l289 268h139l145 -268h-127l-110 137
l-197 -137h-139zM469 524h653l-129 736zM-82 0l1040 1444h156l266 -1444h-166l-65 379h-782l-271 -379h-178z" />
    <glyph glyph-name="uni1EA9" unicode="&#x1ea9;" horiz-adv-x="1179" 
d="M1008 1444l34 149q69 16 100 38.5t44 56.5q7 26 -2.5 37.5t-48.5 11.5q-55 0 -107 -72l-94 53q58 71 115 99t122 28q81 0 120.5 -44.5t19.5 -112.5q-23 -60 -74.5 -104t-114.5 -62q-9 -18 -18.5 -43t-13.5 -35h-82zM467 1219l289 268h139l145 -268h-127l-110 137
l-197 -137h-139zM424 102q137 0 257.5 88.5t156.5 225.5l20 73q-177 48 -342 48q-141 0 -228 -69t-87 -179q0 -87 59.5 -137t163.5 -50zM373 -23q-141 0 -237.5 78.5t-96.5 214.5q0 176 131.5 279.5t339.5 103.5q191 0 375 -57l8 27q12 62 12 96q0 104 -71.5 158.5
t-212.5 54.5q-148 0 -299 -55l-29 133q168 65 352 65q199 0 307.5 -87.5t108.5 -242.5q0 -71 -21 -145l-159 -600h-156l43 166q-158 -189 -395 -189z" />
    <glyph glyph-name="uni1EAA" unicode="&#x1eaa;" horiz-adv-x="1558" 
d="M936 1915l-92 39q49 100 101 149t116 49q43 0 70 -14.5t65 -48.5q26 -23 35 -30.5t24 -15t31 -7.5q33 0 57 25.5t58 86.5l92 -41q-49 -101 -100.5 -149.5t-116.5 -48.5q-12 0 -23 1.5t-22 5.5t-18 6t-19 10t-15.5 10.5t-18 13t-17.5 12.5q-30 33 -49 45t-43 12
q-30 0 -55 -26t-60 -84zM766 1561l289 268h139l145 -268h-127l-110 137l-197 -137h-139zM469 524h653l-129 736zM-82 0l1040 1444h156l266 -1444h-166l-65 379h-782l-271 -379h-178z" />
    <glyph glyph-name="uni1EAB" unicode="&#x1eab;" horiz-adv-x="1179" 
d="M637 1573l-92 39q49 100 101 149t116 49q43 0 70 -14.5t65 -48.5q26 -23 35 -30.5t24 -15t31 -7.5q33 0 57 25.5t58 86.5l92 -41q-49 -101 -100.5 -149.5t-116.5 -48.5q-12 0 -23 1.5t-22 5.5t-18 6t-19 10t-15.5 10.5t-18 13t-17.5 12.5q-30 33 -49 45t-43 12
q-30 0 -55 -26t-60 -84zM467 1219l289 268h139l145 -268h-127l-110 137l-197 -137h-139zM424 102q137 0 257.5 88.5t156.5 225.5l20 73q-177 48 -342 48q-141 0 -228 -69t-87 -179q0 -87 59.5 -137t163.5 -50zM373 -23q-141 0 -237.5 78.5t-96.5 214.5q0 176 131.5 279.5
t339.5 103.5q191 0 375 -57l8 27q12 62 12 96q0 104 -71.5 158.5t-212.5 54.5q-148 0 -299 -55l-29 133q168 65 352 65q199 0 307.5 -87.5t108.5 -242.5q0 -71 -21 -145l-159 -600h-156l43 166q-158 -189 -395 -189z" />
    <glyph glyph-name="uni1EAC" unicode="&#x1eac;" horiz-adv-x="1558" 
d="M483 -385l58 215h157l-57 -215h-158zM766 1561l289 268h139l145 -268h-127l-110 137l-197 -137h-139zM469 524h653l-129 736zM-82 0l1040 1444h156l266 -1444h-166l-65 379h-782l-271 -379h-178z" />
    <glyph glyph-name="uni1EAD" unicode="&#x1ead;" horiz-adv-x="1179" 
d="M293 -385l57 215h158l-57 -215h-158zM467 1219l289 268h139l145 -268h-127l-110 137l-197 -137h-139zM424 102q137 0 257.5 88.5t156.5 225.5l20 73q-177 48 -342 48q-141 0 -228 -69t-87 -179q0 -87 59.5 -137t163.5 -50zM373 -23q-141 0 -237.5 78.5t-96.5 214.5
q0 176 131.5 279.5t339.5 103.5q191 0 375 -57l8 27q12 62 12 96q0 104 -71.5 158.5t-212.5 54.5q-148 0 -299 -55l-29 133q168 65 352 65q199 0 307.5 -87.5t108.5 -242.5q0 -71 -21 -145l-159 -600h-156l43 166q-158 -189 -395 -189z" />
    <glyph glyph-name="uni1EAE" unicode="&#x1eae;" horiz-adv-x="1558" 
d="M1061 1831l274 297l164 -76l-291 -221h-147zM1073 1577q-127 0 -186.5 67.5t-30.5 188.5h111q-19 -57 17 -93t110 -36q87 0 142 33t95 96h111q-47 -122 -145 -189t-224 -67zM469 524h653l-129 736zM-82 0l1040 1444h156l266 -1444h-166l-65 379h-782l-271 -379h-178z" />
    <glyph glyph-name="uni1EAF" unicode="&#x1eaf;" horiz-adv-x="1179" 
d="M780 1468l275 297l164 -75l-291 -222h-148zM793 1214q-127 0 -187 67.5t-31 188.5h111q-19 -57 17 -93t110 -36q87 0 142.5 33.5t95.5 95.5h110q-47 -122 -144.5 -189t-223.5 -67zM424 102q137 0 257.5 88.5t156.5 225.5l20 73q-177 48 -342 48q-141 0 -228 -69t-87 -179
q0 -87 59.5 -137t163.5 -50zM373 -23q-141 0 -237.5 78.5t-96.5 214.5q0 176 131.5 279.5t339.5 103.5q191 0 375 -57l8 27q12 62 12 96q0 104 -71.5 158.5t-212.5 54.5q-148 0 -299 -55l-29 133q168 65 352 65q199 0 307.5 -87.5t108.5 -242.5q0 -71 -21 -145l-159 -600
h-156l43 166q-158 -189 -395 -189z" />
    <glyph glyph-name="uni1EB0" unicode="&#x1eb0;" horiz-adv-x="1558" 
d="M1114 1831l-170 221l166 76l115 -297h-111zM1073 1577q-127 0 -186.5 67.5t-30.5 188.5h111q-19 -57 17 -93t110 -36q87 0 142 33t95 96h111q-47 -122 -145 -189t-224 -67zM469 524h653l-129 736zM-82 0l1040 1444h156l266 -1444h-166l-65 379h-782l-271 -379h-178z" />
    <glyph glyph-name="uni1EB1" unicode="&#x1eb1;" horiz-adv-x="1179" 
d="M834 1468l-170 222l165 75l115 -297h-110zM793 1214q-127 0 -187 67.5t-31 188.5h111q-19 -57 17 -93t110 -36q87 0 142.5 33.5t95.5 95.5h110q-47 -122 -144.5 -189t-223.5 -67zM424 102q137 0 257.5 88.5t156.5 225.5l20 73q-177 48 -342 48q-141 0 -228 -69t-87 -179
q0 -87 59.5 -137t163.5 -50zM373 -23q-141 0 -237.5 78.5t-96.5 214.5q0 176 131.5 279.5t339.5 103.5q191 0 375 -57l8 27q12 62 12 96q0 104 -71.5 158.5t-212.5 54.5q-148 0 -299 -55l-29 133q168 65 352 65q199 0 307.5 -87.5t108.5 -242.5q0 -71 -21 -145l-159 -600
h-156l43 166q-158 -189 -395 -189z" />
    <glyph glyph-name="uni1EB2" unicode="&#x1eb2;" horiz-adv-x="1558" 
d="M1094 1831l34 151q72 18 105.5 40.5t46.5 56.5q7 26 -3 37.5t-50 11.5q-61 0 -111 -72l-100 55q62 71 121.5 99t126.5 28q86 0 127 -45t18 -114q-23 -61 -76 -106t-121 -64q-9 -15 -18 -39.5t-16 -38.5h-84zM1073 1577q-127 0 -186.5 67.5t-30.5 188.5h111
q-19 -57 17 -93t110 -36q87 0 142 33t95 96h111q-47 -122 -145 -189t-224 -67zM469 524h653l-129 736zM-82 0l1040 1444h156l266 -1444h-166l-65 379h-782l-271 -379h-178z" />
    <glyph glyph-name="uni1EB3" unicode="&#x1eb3;" horiz-adv-x="1179" 
d="M813 1468l35 152q72 18 105 40t46 56q7 26 -3 37.5t-50 11.5q-61 0 -110 -71l-101 55q62 71 121.5 99t126.5 28q86 0 127 -45.5t18 -114.5q-23 -61 -75.5 -106t-120.5 -64q-9 -15 -19 -40t-16 -38h-84zM793 1214q-127 0 -187 67.5t-31 188.5h111q-19 -57 17 -93t110 -36
q87 0 142.5 33.5t95.5 95.5h110q-47 -122 -144.5 -189t-223.5 -67zM424 102q137 0 257.5 88.5t156.5 225.5l20 73q-177 48 -342 48q-141 0 -228 -69t-87 -179q0 -87 59.5 -137t163.5 -50zM373 -23q-141 0 -237.5 78.5t-96.5 214.5q0 176 131.5 279.5t339.5 103.5
q191 0 375 -57l8 27q12 62 12 96q0 104 -71.5 158.5t-212.5 54.5q-148 0 -299 -55l-29 133q168 65 352 65q199 0 307.5 -87.5t108.5 -242.5q0 -71 -21 -145l-159 -600h-156l43 166q-158 -189 -395 -189z" />
    <glyph glyph-name="uni1EB4" unicode="&#x1eb4;" horiz-adv-x="1558" 
d="M956 1913l-92 39q49 100 101 149t116 49q43 0 70.5 -14.5t65.5 -48.5q26 -23 35 -30.5t24 -15t31 -7.5q33 0 56.5 25t57.5 87l92 -41q-49 -101 -100.5 -149.5t-116.5 -48.5q-12 0 -23 1.5t-22 5.5t-18 6t-19 10t-15.5 10.5t-18 13t-17.5 12.5q-30 33 -49 45t-43 12
q-30 0 -55 -26t-60 -84zM1073 1577q-127 0 -186.5 67.5t-30.5 188.5h111q-19 -57 17 -93t110 -36q87 0 142 33t95 96h111q-47 -122 -145 -189t-224 -67zM469 524h653l-129 736zM-82 0l1040 1444h156l266 -1444h-166l-65 379h-782l-271 -379h-178z" />
    <glyph glyph-name="uni1EB5" unicode="&#x1eb5;" horiz-adv-x="1179" 
d="M676 1550l-92 39q49 100 101 149.5t116 49.5q30 0 54.5 -9t39.5 -20t41 -35q26 -23 35 -30.5t24 -15t31 -7.5q33 0 57 25.5t58 87.5l92 -41q-49 -101 -100.5 -150t-116.5 -49q-14 0 -28 3t-22.5 5t-23 10.5t-18.5 11.5t-21 15.5t-20 14.5q-30 33 -49 45t-43 12
q-30 0 -55 -26.5t-60 -84.5zM793 1214q-127 0 -187 67.5t-31 188.5h111q-19 -57 17 -93t110 -36q87 0 142.5 33.5t95.5 95.5h110q-47 -122 -144.5 -189t-223.5 -67zM424 102q137 0 257.5 88.5t156.5 225.5l20 73q-177 48 -342 48q-141 0 -228 -69t-87 -179q0 -87 59.5 -137
t163.5 -50zM373 -23q-141 0 -237.5 78.5t-96.5 214.5q0 176 131.5 279.5t339.5 103.5q191 0 375 -57l8 27q12 62 12 96q0 104 -71.5 158.5t-212.5 54.5q-148 0 -299 -55l-29 133q168 65 352 65q199 0 307.5 -87.5t108.5 -242.5q0 -71 -21 -145l-159 -600h-156l43 166
q-158 -189 -395 -189z" />
    <glyph glyph-name="uni1EB6" unicode="&#x1eb6;" horiz-adv-x="1558" 
d="M483 -385l58 215h157l-57 -215h-158zM1073 1577q-127 0 -186.5 67.5t-30.5 188.5h111q-19 -57 17 -93t110 -36q87 0 142 33t95 96h111q-47 -122 -145 -189t-224 -67zM469 524h653l-129 736zM-82 0l1040 1444h156l266 -1444h-166l-65 379h-782l-271 -379h-178z" />
    <glyph glyph-name="uni1EB7" unicode="&#x1eb7;" horiz-adv-x="1179" 
d="M293 -385l57 215h158l-57 -215h-158zM793 1214q-127 0 -187 67.5t-31 188.5h111q-19 -57 17 -93t110 -36q87 0 142.5 33.5t95.5 95.5h110q-47 -122 -144.5 -189t-223.5 -67zM424 102q137 0 257.5 88.5t156.5 225.5l20 73q-177 48 -342 48q-141 0 -228 -69t-87 -179
q0 -87 59.5 -137t163.5 -50zM373 -23q-141 0 -237.5 78.5t-96.5 214.5q0 176 131.5 279.5t339.5 103.5q191 0 375 -57l8 27q12 62 12 96q0 104 -71.5 158.5t-212.5 54.5q-148 0 -299 -55l-29 133q168 65 352 65q199 0 307.5 -87.5t108.5 -242.5q0 -71 -21 -145l-159 -600
h-156l43 166q-158 -189 -395 -189z" />
    <glyph glyph-name="uni1EB8" unicode="&#x1eb8;" horiz-adv-x="1337" 
d="M416 -385l57 215h158l-58 -215h-157zM61 0l385 1434h1027l-41 -148h-865l-131 -489h772l-41 -148h-770l-135 -502h875l-39 -147h-1037z" />
    <glyph glyph-name="uni1EB9" unicode="&#x1eb9;" horiz-adv-x="1206" 
d="M369 -385l57 215h158l-58 -215h-157zM281 596h682q8 31 8 80q0 117 -67.5 194.5t-196.5 77.5q-151 0 -265.5 -99.5t-160.5 -252.5zM1085 469h-827q-2 -14 -2 -37q0 -147 86 -233t233 -86q98 0 174 30.5t152 94.5l82 -105q-88 -74 -187.5 -116t-228.5 -42
q-210 0 -339.5 125t-129.5 326q0 96 29.5 191.5t86 178.5t131 147t171 101t199.5 37q129 0 223.5 -56t140 -146.5t45.5 -202.5q0 -104 -39 -207z" />
    <glyph glyph-name="uni1EBA" unicode="&#x1eba;" horiz-adv-x="1337" 
d="M924 1561l37 157q72 18 105 41t46 60q7 26 -3 38.5t-50 12.5q-61 0 -113 -76l-100 57q111 134 250 134q88 0 129 -47t18 -119q-23 -64 -77 -111t-122 -66q-9 -17 -18 -41.5t-16 -39.5h-86zM61 0l385 1434h1027l-41 -148h-865l-131 -489h772l-41 -148h-770l-135 -502h875
l-39 -147h-1037z" />
    <glyph glyph-name="uni1EBB" unicode="&#x1ebb;" horiz-adv-x="1206" 
d="M737 1221l37 157q73 18 106.5 41t45.5 60q7 26 -3.5 38.5t-50.5 12.5q-60 0 -112 -76l-101 57q111 134 250 134q88 0 129.5 -47t18.5 -119q-23 -64 -77 -110.5t-122 -65.5q-9 -17 -18.5 -42t-16.5 -40h-86zM281 596h682q8 31 8 80q0 117 -67.5 194.5t-196.5 77.5
q-151 0 -265.5 -99.5t-160.5 -252.5zM1085 469h-827q-2 -14 -2 -37q0 -147 86 -233t233 -86q98 0 174 30.5t152 94.5l82 -105q-88 -74 -187.5 -116t-228.5 -42q-210 0 -339.5 125t-129.5 326q0 96 29.5 191.5t86 178.5t131 147t171 101t199.5 37q129 0 223.5 -56t140 -146.5
t45.5 -202.5q0 -104 -39 -207z" />
    <glyph glyph-name="uni1EBC" unicode="&#x1ebc;" horiz-adv-x="1337" 
d="M770 1567l-92 39q49 100 101 149t116 49q43 0 70 -14.5t65 -48.5q26 -23 35 -30.5t24 -15t31 -7.5q33 0 57 25.5t58 86.5l92 -41q-49 -101 -100.5 -149.5t-116.5 -48.5q-12 0 -23 1.5t-22 5.5t-18 6t-19 10t-15.5 10.5t-18 13t-17.5 12.5q-30 33 -49 45t-43 12
q-30 0 -55 -26t-60 -84zM61 0l385 1434h1027l-41 -148h-865l-131 -489h772l-41 -148h-770l-135 -502h875l-39 -147h-1037z" />
    <glyph glyph-name="uni1EBD" unicode="&#x1ebd;" horiz-adv-x="1206" 
d="M606 1212l-92 39q49 100 101 149.5t116 49.5q30 0 54.5 -9t39.5 -20t41 -35q26 -23 35 -30.5t24 -15t31 -7.5q33 0 57 25.5t58 87.5l92 -41q-49 -101 -100.5 -150t-116.5 -49q-14 0 -28 3t-22.5 5t-23 10.5t-18.5 11.5t-21 15.5t-20 14.5q-30 33 -49 45t-43 12
q-30 0 -55 -26.5t-60 -84.5zM281 596h682q8 31 8 80q0 117 -67.5 194.5t-196.5 77.5q-151 0 -265.5 -99.5t-160.5 -252.5zM1085 469h-827q-2 -14 -2 -37q0 -147 86 -233t233 -86q98 0 174 30.5t152 94.5l82 -105q-88 -74 -187.5 -116t-228.5 -42q-210 0 -339.5 125
t-129.5 326q0 96 29.5 191.5t86 178.5t131 147t171 101t199.5 37q129 0 223.5 -56t140 -146.5t45.5 -202.5q0 -104 -39 -207z" />
    <glyph glyph-name="uni1EBE" unicode="&#x1ebe;" horiz-adv-x="1337" 
d="M1237 1786l274 297l164 -76l-291 -221h-147zM686 1561l289 268h139l146 -268h-127l-111 137l-197 -137h-139zM61 0l385 1434h1027l-41 -148h-865l-131 -489h772l-41 -148h-770l-135 -502h875l-39 -147h-1037z" />
    <glyph glyph-name="uni1EBF" unicode="&#x1ebf;" horiz-adv-x="1206" 
d="M1018 1444l274 297l164 -76l-291 -221h-147zM467 1219l289 268h139l145 -268h-127l-110 137l-197 -137h-139zM281 596h682q8 31 8 80q0 117 -67.5 194.5t-196.5 77.5q-151 0 -265.5 -99.5t-160.5 -252.5zM1085 469h-827q-2 -14 -2 -37q0 -147 86 -233t233 -86
q98 0 174 30.5t152 94.5l82 -105q-88 -74 -187.5 -116t-228.5 -42q-210 0 -339.5 125t-129.5 326q0 96 29.5 191.5t86 178.5t131 147t171 101t199.5 37q129 0 223.5 -56t140 -146.5t45.5 -202.5q0 -104 -39 -207z" />
    <glyph glyph-name="uni1EC0" unicode="&#x1ec0;" horiz-adv-x="1337" 
d="M1257 1788l-170 221l166 76l115 -297h-111zM686 1561l289 268h139l146 -268h-127l-111 137l-197 -137h-139zM61 0l385 1434h1027l-41 -148h-865l-131 -489h772l-41 -148h-770l-135 -502h875l-39 -147h-1037z" />
    <glyph glyph-name="uni1EC1" unicode="&#x1ec1;" horiz-adv-x="1206" 
d="M1038 1446l-170 221l166 76l115 -297h-111zM467 1219l289 268h139l145 -268h-127l-110 137l-197 -137h-139zM281 596h682q8 31 8 80q0 117 -67.5 194.5t-196.5 77.5q-151 0 -265.5 -99.5t-160.5 -252.5zM1085 469h-827q-2 -14 -2 -37q0 -147 86 -233t233 -86
q98 0 174 30.5t152 94.5l82 -105q-88 -74 -187.5 -116t-228.5 -42q-210 0 -339.5 125t-129.5 326q0 96 29.5 191.5t86 178.5t131 147t171 101t199.5 37q129 0 223.5 -56t140 -146.5t45.5 -202.5q0 -104 -39 -207z" />
    <glyph glyph-name="uni1EC2" unicode="&#x1ec2;" horiz-adv-x="1337" 
d="M1227 1786l35 149q68 16 99 38t44 57q7 26 -2.5 37.5t-48.5 11.5q-55 0 -107 -72l-94 53q58 71 115.5 99t122.5 28q81 0 120 -44.5t19 -112.5q-23 -60 -74.5 -104t-114.5 -62q-9 -18 -18.5 -43t-13.5 -35h-82zM686 1561l289 268h139l146 -268h-127l-111 137l-197 -137
h-139zM61 0l385 1434h1027l-41 -148h-865l-131 -489h772l-41 -148h-770l-135 -502h875l-39 -147h-1037z" />
    <glyph glyph-name="uni1EC3" unicode="&#x1ec3;" horiz-adv-x="1206" 
d="M1008 1444l34 149q69 16 100 38.5t44 56.5q7 26 -2.5 37.5t-48.5 11.5q-55 0 -107 -72l-94 53q58 71 115 99t122 28q81 0 120.5 -44.5t19.5 -112.5q-23 -60 -74.5 -104t-114.5 -62q-9 -18 -18.5 -43t-13.5 -35h-82zM467 1219l289 268h139l145 -268h-127l-110 137
l-197 -137h-139zM281 596h682q8 31 8 80q0 117 -67.5 194.5t-196.5 77.5q-151 0 -265.5 -99.5t-160.5 -252.5zM1085 469h-827q-2 -14 -2 -37q0 -147 86 -233t233 -86q98 0 174 30.5t152 94.5l82 -105q-88 -74 -187.5 -116t-228.5 -42q-210 0 -339.5 125t-129.5 326
q0 96 29.5 191.5t86 178.5t131 147t171 101t199.5 37q129 0 223.5 -56t140 -146.5t45.5 -202.5q0 -104 -39 -207z" />
    <glyph glyph-name="uni1EC4" unicode="&#x1ec4;" horiz-adv-x="1337" 
d="M856 1915l-92 39q49 100 101 149t116 49q43 0 70 -14.5t65 -48.5q26 -23 35 -30.5t24 -15t31 -7.5q33 0 57 25.5t58 86.5l92 -41q-49 -101 -100.5 -149.5t-116.5 -48.5q-12 0 -23 1.5t-22 5.5t-18 6t-19 10t-15.5 10.5t-18 13t-17.5 12.5q-30 33 -49 45t-43 12
q-30 0 -55 -26t-60 -84zM686 1561l289 268h139l146 -268h-127l-111 137l-197 -137h-139zM61 0l385 1434h1027l-41 -148h-865l-131 -489h772l-41 -148h-770l-135 -502h875l-39 -147h-1037z" />
    <glyph glyph-name="uni1EC5" unicode="&#x1ec5;" horiz-adv-x="1206" 
d="M637 1573l-92 39q49 100 101 149t116 49q43 0 70 -14.5t65 -48.5q26 -23 35 -30.5t24 -15t31 -7.5q33 0 57 25.5t58 86.5l92 -41q-49 -101 -100.5 -149.5t-116.5 -48.5q-12 0 -23 1.5t-22 5.5t-18 6t-19 10t-15.5 10.5t-18 13t-17.5 12.5q-30 33 -49 45t-43 12
q-30 0 -55 -26t-60 -84zM467 1219l289 268h139l145 -268h-127l-110 137l-197 -137h-139zM281 596h682q8 31 8 80q0 117 -67.5 194.5t-196.5 77.5q-151 0 -265.5 -99.5t-160.5 -252.5zM1085 469h-827q-2 -14 -2 -37q0 -147 86 -233t233 -86q98 0 174 30.5t152 94.5l82 -105
q-88 -74 -187.5 -116t-228.5 -42q-210 0 -339.5 125t-129.5 326q0 96 29.5 191.5t86 178.5t131 147t171 101t199.5 37q129 0 223.5 -56t140 -146.5t45.5 -202.5q0 -104 -39 -207z" />
    <glyph glyph-name="uni1EC6" unicode="&#x1ec6;" horiz-adv-x="1337" 
d="M416 -385l57 215h158l-58 -215h-157zM686 1561l289 268h139l146 -268h-127l-111 137l-197 -137h-139zM61 0l385 1434h1027l-41 -148h-865l-131 -489h772l-41 -148h-770l-135 -502h875l-39 -147h-1037z" />
    <glyph glyph-name="uni1EC7" unicode="&#x1ec7;" horiz-adv-x="1206" 
d="M369 -385l57 215h158l-58 -215h-157zM467 1219l289 268h139l145 -268h-127l-110 137l-197 -137h-139zM281 596h682q8 31 8 80q0 117 -67.5 194.5t-196.5 77.5q-151 0 -265.5 -99.5t-160.5 -252.5zM1085 469h-827q-2 -14 -2 -37q0 -147 86 -233t233 -86q98 0 174 30.5
t152 94.5l82 -105q-88 -74 -187.5 -116t-228.5 -42q-210 0 -339.5 125t-129.5 326q0 96 29.5 191.5t86 178.5t131 147t171 101t199.5 37q129 0 223.5 -56t140 -146.5t45.5 -202.5q0 -104 -39 -207z" />
    <glyph glyph-name="uni1EC8" unicode="&#x1ec8;" horiz-adv-x="595" 
d="M524 1561l37 157q73 18 106.5 41t45.5 60q7 26 -3.5 38.5t-50.5 12.5q-60 0 -112 -76l-101 57q111 134 250 134q88 0 129.5 -47t18.5 -119q-23 -64 -77 -111t-122 -66q-9 -17 -18.5 -42t-16.5 -39h-86zM76 0l385 1434h162l-385 -1434h-162z" />
    <glyph glyph-name="uni1EC9" unicode="&#x1ec9;" horiz-adv-x="540" 
d="M49 0l285 1059h158l-285 -1059h-158zM399 1221l37 157q73 18 106.5 41t45.5 60q7 26 -3 38.5t-50 12.5q-61 0 -113 -76l-100 57q62 75 122 104.5t127 29.5q88 0 129.5 -47t18.5 -119q-23 -64 -77 -110.5t-122 -65.5q-9 -17 -18.5 -42t-16.5 -40h-86z" />
    <glyph glyph-name="uni1ECA" unicode="&#x1eca;" horiz-adv-x="595" 
d="M-18 -385l57 215h158l-58 -215h-157zM76 0l385 1434h162l-385 -1434h-162z" />
    <glyph glyph-name="uni1ECB" unicode="&#x1ecb;" horiz-adv-x="540" 
d="M-49 -385l57 215h158l-57 -215h-158zM49 0l285 1059h158l-285 -1059h-158zM385 1290l47 174h180l-47 -174h-180z" />
    <glyph glyph-name="uni1ECC" unicode="&#x1ecc;" 
d="M580 -385l57 215h158l-58 -215h-157zM819 123q110 0 212 39t181.5 108t139 158t91.5 193t32 210q0 207 -129 342.5t-340 135.5q-136 0 -260 -61t-209.5 -160t-136 -227.5t-50.5 -260.5q0 -206 129 -341.5t340 -135.5zM809 -27q-182 0 -326.5 82.5t-223.5 224.5t-79 316
q0 164 65 321t175 276t266.5 192t329.5 73q136 0 254 -48t200 -131t128.5 -197.5t46.5 -243.5q0 -165 -65 -322.5t-175 -277t-266.5 -192.5t-329.5 -73z" />
    <glyph glyph-name="uni1ECD" unicode="&#x1ecd;" horiz-adv-x="1306" 
d="M346 -385l57 215h158l-57 -215h-158zM592 117q117 0 221.5 67.5t167.5 180t63 237.5q0 159 -90.5 249.5t-240.5 90.5q-89 0 -173.5 -41.5t-145 -109.5t-97.5 -156.5t-37 -179.5q0 -159 91 -248.5t241 -89.5zM582 -25q-216 0 -349 134.5t-133 341.5q0 163 85 308.5
t229.5 233.5t308.5 88q215 0 349 -133.5t134 -339.5q0 -124 -51 -241t-136 -202.5t-200 -137.5t-237 -52z" />
    <glyph glyph-name="uni1ECE" unicode="&#x1ece;" 
d="M1055 1561l37 157q72 18 105 41t46 60q7 26 -3 38.5t-50 12.5q-61 0 -113 -76l-100 57q111 134 250 134q88 0 129 -47t18 -119q-23 -64 -76.5 -111t-121.5 -66q-9 -17 -18.5 -42t-16.5 -39h-86zM819 123q110 0 212 39t181.5 108t139 158t91.5 193t32 210
q0 207 -129 342.5t-340 135.5q-136 0 -260 -61t-209.5 -160t-136 -227.5t-50.5 -260.5q0 -206 129 -341.5t340 -135.5zM809 -27q-182 0 -326.5 82.5t-223.5 224.5t-79 316q0 164 65 321t175 276t266.5 192t329.5 73q136 0 254 -48t200 -131t128.5 -197.5t46.5 -243.5
q0 -165 -65 -322.5t-175 -277t-266.5 -192.5t-329.5 -73z" />
    <glyph glyph-name="uni1ECF" unicode="&#x1ecf;" horiz-adv-x="1306" 
d="M743 1221l37 157q73 18 106.5 41t45.5 60q7 26 -3 38.5t-50 12.5q-61 0 -113 -76l-100 57q62 75 122 104.5t127 29.5q88 0 129.5 -47t18.5 -119q-23 -64 -77 -110.5t-122 -65.5q-9 -17 -18.5 -42t-16.5 -40h-86zM592 117q117 0 221.5 67.5t167.5 180t63 237.5
q0 159 -90.5 249.5t-240.5 90.5q-89 0 -173.5 -41.5t-145 -109.5t-97.5 -156.5t-37 -179.5q0 -159 91 -248.5t241 -89.5zM582 -25q-216 0 -349 134.5t-133 341.5q0 163 85 308.5t229.5 233.5t308.5 88q215 0 349 -133.5t134 -339.5q0 -124 -51 -241t-136 -202.5t-200 -137.5
t-237 -52z" />
    <glyph glyph-name="uni1ED0" unicode="&#x1ed0;" 
d="M1356 1786l274 297l164 -76l-291 -221h-147zM805 1561l289 268h139l145 -268h-127l-110 137l-197 -137h-139zM819 123q110 0 212 39t181.5 108t139 158t91.5 193t32 210q0 207 -129 342.5t-340 135.5q-136 0 -260 -61t-209.5 -160t-136 -227.5t-50.5 -260.5
q0 -206 129 -341.5t340 -135.5zM809 -27q-182 0 -326.5 82.5t-223.5 224.5t-79 316q0 164 65 321t175 276t266.5 192t329.5 73q136 0 254 -48t200 -131t128.5 -197.5t46.5 -243.5q0 -165 -65 -322.5t-175 -277t-266.5 -192.5t-329.5 -73z" />
    <glyph glyph-name="uni1ED1" unicode="&#x1ed1;" horiz-adv-x="1306" 
d="M1071 1444l275 297l163 -76l-290 -221h-148zM520 1219l289 268h139l146 -268h-127l-111 137l-197 -137h-139zM592 117q117 0 221.5 67.5t167.5 180t63 237.5q0 159 -90.5 249.5t-240.5 90.5q-89 0 -173.5 -41.5t-145 -109.5t-97.5 -156.5t-37 -179.5q0 -159 91 -248.5
t241 -89.5zM582 -25q-216 0 -349 134.5t-133 341.5q0 163 85 308.5t229.5 233.5t308.5 88q215 0 349 -133.5t134 -339.5q0 -124 -51 -241t-136 -202.5t-200 -137.5t-237 -52z" />
    <glyph glyph-name="uni1ED2" unicode="&#x1ed2;" 
d="M1376 1788l-170 221l166 76l115 -297h-111zM805 1561l289 268h139l145 -268h-127l-110 137l-197 -137h-139zM819 123q110 0 212 39t181.5 108t139 158t91.5 193t32 210q0 207 -129 342.5t-340 135.5q-136 0 -260 -61t-209.5 -160t-136 -227.5t-50.5 -260.5
q0 -206 129 -341.5t340 -135.5zM809 -27q-182 0 -326.5 82.5t-223.5 224.5t-79 316q0 164 65 321t175 276t266.5 192t329.5 73q136 0 254 -48t200 -131t128.5 -197.5t46.5 -243.5q0 -165 -65 -322.5t-175 -277t-266.5 -192.5t-329.5 -73z" />
    <glyph glyph-name="uni1ED3" unicode="&#x1ed3;" horiz-adv-x="1306" 
d="M1092 1446l-170 221l165 76l115 -297h-110zM520 1219l289 268h139l146 -268h-127l-111 137l-197 -137h-139zM592 117q117 0 221.5 67.5t167.5 180t63 237.5q0 159 -90.5 249.5t-240.5 90.5q-89 0 -173.5 -41.5t-145 -109.5t-97.5 -156.5t-37 -179.5q0 -159 91 -248.5
t241 -89.5zM582 -25q-216 0 -349 134.5t-133 341.5q0 163 85 308.5t229.5 233.5t308.5 88q215 0 349 -133.5t134 -339.5q0 -124 -51 -241t-136 -202.5t-200 -137.5t-237 -52z" />
    <glyph glyph-name="uni1ED4" unicode="&#x1ed4;" 
d="M1346 1786l34 149q69 16 100 38.5t44 56.5q7 26 -2.5 37.5t-48.5 11.5q-55 0 -107 -72l-94 53q58 71 115 99t122 28q81 0 120.5 -44.5t19.5 -112.5q-23 -60 -74.5 -104t-114.5 -62q-7 -14 -12 -25.5t-10.5 -26t-10.5 -26.5h-81zM805 1561l289 268h139l145 -268h-127
l-110 137l-197 -137h-139zM819 123q110 0 212 39t181.5 108t139 158t91.5 193t32 210q0 207 -129 342.5t-340 135.5q-136 0 -260 -61t-209.5 -160t-136 -227.5t-50.5 -260.5q0 -206 129 -341.5t340 -135.5zM809 -27q-182 0 -326.5 82.5t-223.5 224.5t-79 316q0 164 65 321
t175 276t266.5 192t329.5 73q136 0 254 -48t200 -131t128.5 -197.5t46.5 -243.5q0 -165 -65 -322.5t-175 -277t-266.5 -192.5t-329.5 -73z" />
    <glyph glyph-name="uni1ED5" unicode="&#x1ed5;" horiz-adv-x="1306" 
d="M1061 1444l35 149q68 16 99 38t44 57q7 26 -2.5 37.5t-48.5 11.5q-55 0 -107 -72l-94 53q58 71 115.5 99t122.5 28q81 0 120 -44.5t19 -112.5q-23 -60 -74 -104t-114 -62q-7 -14 -12 -25.5t-10.5 -26t-10.5 -26.5h-82zM520 1219l289 268h139l146 -268h-127l-111 137
l-197 -137h-139zM592 117q117 0 221.5 67.5t167.5 180t63 237.5q0 159 -90.5 249.5t-240.5 90.5q-89 0 -173.5 -41.5t-145 -109.5t-97.5 -156.5t-37 -179.5q0 -159 91 -248.5t241 -89.5zM582 -25q-216 0 -349 134.5t-133 341.5q0 163 85 308.5t229.5 233.5t308.5 88
q215 0 349 -133.5t134 -339.5q0 -124 -51 -241t-136 -202.5t-200 -137.5t-237 -52z" />
    <glyph glyph-name="uni1ED6" unicode="&#x1ed6;" 
d="M975 1915l-92 39q49 100 101 149t116 49q43 0 70 -14.5t65 -48.5q26 -23 35 -30.5t24 -15t31 -7.5q33 0 57 25.5t58 86.5l92 -41q-49 -101 -100.5 -149.5t-116.5 -48.5q-12 0 -23 1.5t-22 5.5t-18 6t-19 10t-15.5 10.5t-18 13t-17.5 12.5q-30 33 -49 45t-43 12
q-30 0 -55 -26t-60 -84zM805 1561l289 268h139l145 -268h-127l-110 137l-197 -137h-139zM819 123q110 0 212 39t181.5 108t139 158t91.5 193t32 210q0 207 -129 342.5t-340 135.5q-136 0 -260 -61t-209.5 -160t-136 -227.5t-50.5 -260.5q0 -206 129 -341.5t340 -135.5z
M809 -27q-182 0 -326.5 82.5t-223.5 224.5t-79 316q0 164 65 321t175 276t266.5 192t329.5 73q136 0 254 -48t200 -131t128.5 -197.5t46.5 -243.5q0 -165 -65 -322.5t-175 -277t-266.5 -192.5t-329.5 -73z" />
    <glyph glyph-name="uni1ED7" unicode="&#x1ed7;" horiz-adv-x="1306" 
d="M690 1573l-92 39q49 100 101 149t116 49q43 0 70 -14.5t65 -48.5q26 -23 35 -30.5t24 -15t31 -7.5q33 0 57 25.5t58 86.5l92 -41q-49 -101 -100.5 -149.5t-116.5 -48.5q-12 0 -23 1.5t-22 5.5t-18 6t-19 10t-15.5 10.5t-18 13t-17.5 12.5q-30 33 -49 45t-43 12
q-30 0 -55 -26t-60 -84zM520 1219l289 268h139l146 -268h-127l-111 137l-197 -137h-139zM592 117q117 0 221.5 67.5t167.5 180t63 237.5q0 159 -90.5 249.5t-240.5 90.5q-89 0 -173.5 -41.5t-145 -109.5t-97.5 -156.5t-37 -179.5q0 -159 91 -248.5t241 -89.5zM582 -25
q-216 0 -349 134.5t-133 341.5q0 163 85 308.5t229.5 233.5t308.5 88q215 0 349 -133.5t134 -339.5q0 -124 -51 -241t-136 -202.5t-200 -137.5t-237 -52z" />
    <glyph glyph-name="uni1ED8" unicode="&#x1ed8;" 
d="M580 -385l57 215h158l-58 -215h-157zM805 1561l289 268h139l145 -268h-127l-110 137l-197 -137h-139zM819 123q110 0 212 39t181.5 108t139 158t91.5 193t32 210q0 207 -129 342.5t-340 135.5q-136 0 -260 -61t-209.5 -160t-136 -227.5t-50.5 -260.5q0 -206 129 -341.5
t340 -135.5zM809 -27q-182 0 -326.5 82.5t-223.5 224.5t-79 316q0 164 65 321t175 276t266.5 192t329.5 73q136 0 254 -48t200 -131t128.5 -197.5t46.5 -243.5q0 -165 -65 -322.5t-175 -277t-266.5 -192.5t-329.5 -73z" />
    <glyph glyph-name="uni1ED9" unicode="&#x1ed9;" horiz-adv-x="1306" 
d="M346 -385l57 215h158l-57 -215h-158zM520 1219l289 268h139l146 -268h-127l-111 137l-197 -137h-139zM592 117q117 0 221.5 67.5t167.5 180t63 237.5q0 159 -90.5 249.5t-240.5 90.5q-89 0 -173.5 -41.5t-145 -109.5t-97.5 -156.5t-37 -179.5q0 -159 91 -248.5t241 -89.5
zM582 -25q-216 0 -349 134.5t-133 341.5q0 163 85 308.5t229.5 233.5t308.5 88q215 0 349 -133.5t134 -339.5q0 -124 -51 -241t-136 -202.5t-200 -137.5t-237 -52z" />
    <glyph glyph-name="uni1EDA" unicode="&#x1eda;" 
d="M930 1561l274 297l164 -76l-291 -221h-147zM809 -27q-182 0 -326.5 82.5t-223.5 224.5t-79 316q0 164 65 321t175 276t266.5 192t329.5 73q141 0 254 -49q33 -13 84 -43v2q89 5 134.5 24.5t57.5 61.5l6 31q13 61 -6 137h156q18 -96 -8 -176q-41 -146 -199 -195
q59 -70 102 -170q48 -118 48 -243q0 -165 -65 -322.5t-175 -277t-266.5 -192.5t-329.5 -73zM819 123q110 0 212 39t181.5 108t139 158t91.5 193t32 210q0 207 -129 342.5t-340 135.5q-136 0 -260 -61t-209.5 -160t-136 -227.5t-50.5 -260.5q0 -206 129 -341.5t340 -135.5z
" />
    <glyph glyph-name="uni1EDB" unicode="&#x1edb;" horiz-adv-x="1306" 
d="M686 1219l275 297l163 -76l-290 -221h-148zM582 -25q-216 0 -349 134.5t-133 341.5q0 163 85 308.5t229.5 233.5t308.5 88q110 0 197 -37q36 -12 65 -30q75 3 121 22q47 21 59 64l6 30q14 61 -6 138h156q18 -96 -8 -176q-40 -142 -197 -195q35 -47 55 -100
q35 -87 35 -189q0 -124 -51 -241t-136 -202.5t-200 -137.5t-237 -52zM592 117q117 0 221.5 67.5t167.5 180t63 237.5q0 159 -90.5 249.5t-240.5 90.5q-89 0 -173.5 -41.5t-145 -109.5t-97.5 -156.5t-37 -179.5q0 -159 91 -248.5t241 -89.5z" />
    <glyph glyph-name="uni1EDC" unicode="&#x1edc;" 
d="M1077 1561l-170 221l166 76l115 -297h-111zM809 -27q-182 0 -326.5 82.5t-223.5 224.5t-79 316q0 164 65 321t175 276t266.5 192t329.5 73q141 0 254 -49q33 -13 84 -43v2q89 5 134.5 24.5t57.5 61.5l6 31q13 61 -6 137h156q18 -96 -8 -176q-41 -146 -199 -195
q59 -70 102 -170q48 -118 48 -243q0 -165 -65 -322.5t-175 -277t-266.5 -192.5t-329.5 -73zM819 123q110 0 212 39t181.5 108t139 158t91.5 193t32 210q0 207 -129 342.5t-340 135.5q-136 0 -260 -61t-209.5 -160t-136 -227.5t-50.5 -260.5q0 -206 129 -341.5t340 -135.5z
" />
    <glyph glyph-name="uni1EDD" unicode="&#x1edd;" horiz-adv-x="1306" 
d="M758 1219l-170 221l166 76l114 -297h-110zM582 -25q-216 0 -349 134.5t-133 341.5q0 163 85 308.5t229.5 233.5t308.5 88q110 0 197 -37q36 -12 65 -30q75 3 121 22q47 21 59 64l6 30q14 61 -6 138h156q18 -96 -8 -176q-40 -142 -197 -195q35 -47 55 -100q35 -87 35 -189
q0 -124 -51 -241t-136 -202.5t-200 -137.5t-237 -52zM592 117q117 0 221.5 67.5t167.5 180t63 237.5q0 159 -90.5 249.5t-240.5 90.5q-89 0 -173.5 -41.5t-145 -109.5t-97.5 -156.5t-37 -179.5q0 -159 91 -248.5t241 -89.5z" />
    <glyph glyph-name="uni1EDE" unicode="&#x1ede;" 
d="M1055 1561l37 157q72 18 105 41t46 60q7 26 -3 38.5t-50 12.5q-61 0 -113 -76l-100 57q111 134 250 134q88 0 129 -47t18 -119q-23 -64 -76.5 -111t-121.5 -66q-9 -17 -18.5 -42t-16.5 -39h-86zM809 -27q-182 0 -326.5 82.5t-223.5 224.5t-79 316q0 164 65 321t175 276
t266.5 192t329.5 73q141 0 254 -49q33 -13 84 -43v2q89 5 134.5 24.5t57.5 61.5l6 31q13 61 -6 137h156q18 -96 -8 -176q-41 -146 -199 -195q59 -70 102 -170q48 -118 48 -243q0 -165 -65 -322.5t-175 -277t-266.5 -192.5t-329.5 -73zM819 123q110 0 212 39t181.5 108
t139 158t91.5 193t32 210q0 207 -129 342.5t-340 135.5q-136 0 -260 -61t-209.5 -160t-136 -227.5t-50.5 -260.5q0 -206 129 -341.5t340 -135.5z" />
    <glyph glyph-name="uni1EDF" unicode="&#x1edf;" horiz-adv-x="1306" 
d="M743 1221l37 157q73 18 106.5 41t45.5 60q7 26 -3 38.5t-50 12.5q-61 0 -113 -76l-100 57q62 75 122 104.5t127 29.5q88 0 129.5 -47t18.5 -119q-23 -64 -77 -110.5t-122 -65.5q-9 -17 -18.5 -42t-16.5 -40h-86zM582 -25q-216 0 -349 134.5t-133 341.5q0 163 85 308.5
t229.5 233.5t308.5 88q110 0 197 -37q36 -12 65 -30q75 3 121 22q47 21 59 64l6 30q14 61 -6 138h156q18 -96 -8 -176q-40 -142 -197 -195q35 -47 55 -100q35 -87 35 -189q0 -124 -51 -241t-136 -202.5t-200 -137.5t-237 -52zM592 117q117 0 221.5 67.5t167.5 180t63 237.5
q0 159 -90.5 249.5t-240.5 90.5q-89 0 -173.5 -41.5t-145 -109.5t-97.5 -156.5t-37 -179.5q0 -159 91 -248.5t241 -89.5z" />
    <glyph glyph-name="uni1EE0" unicode="&#x1ee0;" 
d="M905 1567l-92 39q49 100 101 149t116 49q43 0 70 -14.5t65 -48.5q26 -23 35 -30.5t24 -15t31 -7.5q33 0 57 25.5t58 86.5l92 -41q-49 -101 -100.5 -149.5t-116.5 -48.5q-12 0 -23 1.5t-22 5.5t-18 6t-19 10t-15.5 10.5t-18 13t-17.5 12.5q-30 33 -49 45t-43 12
q-30 0 -55 -26t-60 -84zM809 -27q-182 0 -326.5 82.5t-223.5 224.5t-79 316q0 164 65 321t175 276t266.5 192t329.5 73q141 0 254 -49q33 -13 84 -43v2q89 5 134.5 24.5t57.5 61.5l6 31q13 61 -6 137h156q18 -96 -8 -176q-41 -146 -199 -195q59 -70 102 -170
q48 -118 48 -243q0 -165 -65 -322.5t-175 -277t-266.5 -192.5t-329.5 -73zM819 123q110 0 212 39t181.5 108t139 158t91.5 193t32 210q0 207 -129 342.5t-340 135.5q-136 0 -260 -61t-209.5 -160t-136 -227.5t-50.5 -260.5q0 -206 129 -341.5t340 -135.5z" />
    <glyph glyph-name="uni1EE1" unicode="&#x1ee1;" horiz-adv-x="1306" 
d="M602 1212l-92 39q49 100 101 149.5t116 49.5q30 0 54.5 -9t39.5 -20t41 -35q26 -23 35 -30.5t24 -15t31 -7.5q33 0 57 25.5t58 87.5l92 -41q-49 -101 -100.5 -150t-116.5 -49q-14 0 -28 3t-22.5 5t-23 10.5t-18.5 11.5t-21 15.5t-20 14.5q-30 33 -49 45t-43 12
q-30 0 -55 -26.5t-60 -84.5zM582 -25q-216 0 -349 134.5t-133 341.5q0 163 85 308.5t229.5 233.5t308.5 88q110 0 197 -37q36 -12 65 -30q75 3 121 22q47 21 59 64l6 30q14 61 -6 138h156q18 -96 -8 -176q-40 -142 -197 -195q35 -47 55 -100q35 -87 35 -189q0 -124 -51 -241
t-136 -202.5t-200 -137.5t-237 -52zM592 117q117 0 221.5 67.5t167.5 180t63 237.5q0 159 -90.5 249.5t-240.5 90.5q-89 0 -173.5 -41.5t-145 -109.5t-97.5 -156.5t-37 -179.5q0 -159 91 -248.5t241 -89.5z" />
    <glyph glyph-name="uni1EE2" unicode="&#x1ee2;" 
d="M580 -385l57 215h158l-58 -215h-157zM809 -27q-182 0 -326.5 82.5t-223.5 224.5t-79 316q0 164 65 321t175 276t266.5 192t329.5 73q141 0 254 -49q33 -13 84 -43v2q89 5 134.5 24.5t57.5 61.5l6 31q13 61 -6 137h156q18 -96 -8 -176q-41 -146 -199 -195q59 -70 102 -170
q48 -118 48 -243q0 -165 -65 -322.5t-175 -277t-266.5 -192.5t-329.5 -73zM819 123q110 0 212 39t181.5 108t139 158t91.5 193t32 210q0 207 -129 342.5t-340 135.5q-136 0 -260 -61t-209.5 -160t-136 -227.5t-50.5 -260.5q0 -206 129 -341.5t340 -135.5z" />
    <glyph glyph-name="uni1EE3" unicode="&#x1ee3;" horiz-adv-x="1306" 
d="M346 -385l57 215h158l-57 -215h-158zM582 -25q-216 0 -349 134.5t-133 341.5q0 163 85 308.5t229.5 233.5t308.5 88q110 0 197 -37q36 -12 65 -30q75 3 121 22q47 21 59 64l6 30q14 61 -6 138h156q18 -96 -8 -176q-40 -142 -197 -195q35 -47 55 -100q35 -87 35 -189
q0 -124 -51 -241t-136 -202.5t-200 -137.5t-237 -52zM592 117q117 0 221.5 67.5t167.5 180t63 237.5q0 159 -90.5 249.5t-240.5 90.5q-89 0 -173.5 -41.5t-145 -109.5t-97.5 -156.5t-37 -179.5q0 -159 91 -248.5t241 -89.5z" />
    <glyph glyph-name="uni1EE4" unicode="&#x1ee4;" horiz-adv-x="1552" 
d="M477 -385l58 215h157l-57 -215h-158zM711 -23q-250 0 -386.5 126t-136.5 333q0 108 31 223l205 775h164l-217 -818q-21 -64 -21 -161q0 -147 95.5 -237.5t279.5 -90.5q185 0 319 131q126 129 183 350l223 826h162l-230 -854q-73 -272 -225 -424q-179 -179 -446 -179z" />
    <glyph glyph-name="uni1EE5" unicode="&#x1ee5;" horiz-adv-x="1255" 
d="M309 -385l58 215h157l-57 -215h-158zM455 -23q-154 0 -245 88t-91 240q0 62 26 164l156 590h158l-162 -600q-14 -61 -14 -119q0 -104 62.5 -162.5t172.5 -58.5q125 0 233.5 96.5t149.5 247.5l160 596h158l-283 -1059h-158l47 172q-81 -92 -169 -143.5t-201 -51.5z" />
    <glyph glyph-name="uni1EE6" unicode="&#x1ee6;" horiz-adv-x="1552" 
d="M991 1561l37 157q73 18 106.5 41t45.5 60q7 26 -3.5 38.5t-50.5 12.5q-60 0 -112 -76l-101 57q111 134 250 134q88 0 129.5 -47t18.5 -119q-23 -64 -77 -111t-122 -66q-9 -17 -18.5 -42t-16.5 -39h-86zM711 -23q-250 0 -386.5 126t-136.5 333q0 108 31 223l205 775h164
l-217 -818q-21 -64 -21 -161q0 -147 95.5 -237.5t279.5 -90.5q185 0 319 131q126 129 183 350l223 826h162l-230 -854q-73 -272 -225 -424q-179 -179 -446 -179z" />
    <glyph glyph-name="uni1EE7" unicode="&#x1ee7;" horiz-adv-x="1255" 
d="M741 1221l37 157q73 18 106.5 41t45.5 60q7 26 -3 38.5t-50 12.5q-61 0 -113 -76l-100 57q62 75 122 104.5t127 29.5q88 0 129.5 -47t18.5 -119q-23 -64 -77 -110.5t-122 -65.5q-9 -17 -18.5 -42t-16.5 -40h-86zM455 -23q-154 0 -245 88t-91 240q0 62 26 164l156 590h158
l-162 -600q-14 -61 -14 -119q0 -104 62.5 -162.5t172.5 -58.5q125 0 233.5 96.5t149.5 247.5l160 596h158l-283 -1059h-158l47 172q-81 -92 -169 -143.5t-201 -51.5z" />
    <glyph glyph-name="uni1EE8" unicode="&#x1ee8;" horiz-adv-x="1622" 
d="M887 1561l274 297l164 -76l-291 -221h-147zM711 -23q-250 0 -386.5 126t-136.5 333q0 108 31 223l205 775h164l-217 -818q-21 -64 -21 -161q0 -147 95.5 -237.5t279.5 -90.5q185 0 319 131q126 129 183 350l223 826h158l24 8q49 22 60 63l6 31q13 61 -6 137h155
q18 -96 -8 -176q-46 -173 -268 -211l-189 -706q-73 -272 -225 -424q-179 -179 -446 -179z" />
    <glyph glyph-name="uni1EE9" unicode="&#x1ee9;" horiz-adv-x="1294" 
d="M657 1219l275 297l164 -76l-291 -221h-148zM455 -23q-154 0 -245 88t-91 240q0 62 26 164l156 590h158l-162 -600q-14 -61 -14 -119q0 -104 62.5 -162.5t172.5 -58.5q125 0 233.5 96.5t149.5 247.5l160 596h139l19 6q48 21 59 63l6 31q13 61 -6 137h156q18 -94 -9 -176
q-47 -164 -245 -207l-244 -913h-158l47 172q-81 -92 -169 -143.5t-201 -51.5z" />
    <glyph glyph-name="uni1EEA" unicode="&#x1eea;" horiz-adv-x="1622" 
d="M1012 1561l-170 221l166 76l114 -297h-110zM711 -23q-250 0 -386.5 126t-136.5 333q0 108 31 223l205 775h164l-217 -818q-21 -64 -21 -161q0 -147 95.5 -237.5t279.5 -90.5q185 0 319 131q126 129 183 350l223 826h158l24 8q49 22 60 63l6 31q13 61 -6 137h155
q18 -96 -8 -176q-46 -173 -268 -211l-189 -706q-73 -272 -225 -424q-179 -179 -446 -179z" />
    <glyph glyph-name="uni1EEB" unicode="&#x1eeb;" horiz-adv-x="1294" 
d="M756 1219l-170 221l166 76l114 -297h-110zM455 -23q-154 0 -245 88t-91 240q0 62 26 164l156 590h158l-162 -600q-14 -61 -14 -119q0 -104 62.5 -162.5t172.5 -58.5q125 0 233.5 96.5t149.5 247.5l160 596h139l19 6q48 21 59 63l6 31q13 61 -6 137h156q18 -94 -9 -176
q-47 -164 -245 -207l-244 -913h-158l47 172q-81 -92 -169 -143.5t-201 -51.5z" />
    <glyph glyph-name="uni1EEC" unicode="&#x1eec;" horiz-adv-x="1622" 
d="M991 1561l37 157q73 18 106.5 41t45.5 60q7 26 -3.5 38.5t-50.5 12.5q-60 0 -112 -76l-101 57q111 134 250 134q88 0 129.5 -47t18.5 -119q-23 -64 -77 -111t-122 -66q-9 -17 -18.5 -42t-16.5 -39h-86zM711 -23q-250 0 -386.5 126t-136.5 333q0 108 31 223l205 775h164
l-217 -818q-21 -64 -21 -161q0 -147 95.5 -237.5t279.5 -90.5q185 0 319 131q126 129 183 350l223 826h158l24 8q49 22 60 63l6 31q13 61 -6 137h155q18 -96 -8 -176q-46 -173 -268 -211l-189 -706q-73 -272 -225 -424q-179 -179 -446 -179z" />
    <glyph glyph-name="uni1EED" unicode="&#x1eed;" horiz-adv-x="1294" 
d="M741 1221l37 157q73 18 106.5 41t45.5 60q7 26 -3 38.5t-50 12.5q-61 0 -113 -76l-100 57q62 75 122 104.5t127 29.5q88 0 129.5 -47t18.5 -119q-23 -64 -77 -110.5t-122 -65.5q-9 -17 -18.5 -42t-16.5 -40h-86zM455 -23q-154 0 -245 88t-91 240q0 62 26 164l156 590h158
l-162 -600q-14 -61 -14 -119q0 -104 62.5 -162.5t172.5 -58.5q125 0 233.5 96.5t149.5 247.5l160 596h139l19 6q48 21 59 63l6 31q13 61 -6 137h156q18 -94 -9 -176q-47 -164 -245 -207l-244 -913h-158l47 172q-81 -92 -169 -143.5t-201 -51.5z" />
    <glyph glyph-name="uni1EEE" unicode="&#x1eee;" horiz-adv-x="1622" 
d="M842 1567l-92 39q49 100 101 149t116 49q43 0 70 -14.5t65 -48.5q26 -23 35 -30.5t24 -15t31 -7.5q33 0 57 25.5t58 86.5l92 -41q-49 -101 -100.5 -149.5t-116.5 -48.5q-12 0 -23 1.5t-22 5.5t-18 6t-19 10t-15.5 10.5t-18 13t-17.5 12.5q-30 33 -49.5 45t-43.5 12
q-30 0 -54.5 -26t-59.5 -84zM711 -23q-250 0 -386.5 126t-136.5 333q0 108 31 223l205 775h164l-217 -818q-21 -64 -21 -161q0 -147 95.5 -237.5t279.5 -90.5q185 0 319 131q126 129 183 350l223 826h158l24 8q49 22 60 63l6 31q13 61 -6 137h155q18 -96 -8 -176
q-46 -173 -268 -211l-189 -706q-73 -272 -225 -424q-179 -179 -446 -179z" />
    <glyph glyph-name="uni1EEF" unicode="&#x1eef;" horiz-adv-x="1294" 
d="M578 1212l-93 39q49 100 101 149.5t116 49.5q43 0 70.5 -14.5t65.5 -49.5q26 -23 35 -30.5t24 -15t31 -7.5q33 0 56.5 25.5t57.5 87.5l93 -41q-49 -101 -100.5 -150t-116.5 -49q-12 0 -23 1.5t-22 5.5t-18 6.5t-19 10t-16.5 10.5t-18 13t-17.5 13q-30 33 -49 45t-43 12
q-30 0 -54.5 -26t-59.5 -85zM455 -23q-154 0 -245 88t-91 240q0 62 26 164l156 590h158l-162 -600q-14 -61 -14 -119q0 -104 62.5 -162.5t172.5 -58.5q125 0 233.5 96.5t149.5 247.5l160 596h139l19 6q48 21 59 63l6 31q13 61 -6 137h156q18 -94 -9 -176q-47 -164 -245 -207
l-244 -913h-158l47 172q-81 -92 -169 -143.5t-201 -51.5z" />
    <glyph glyph-name="uni1EF0" unicode="&#x1ef0;" horiz-adv-x="1622" 
d="M477 -385l58 215h157l-57 -215h-158zM711 -23q-250 0 -386.5 126t-136.5 333q0 108 31 223l205 775h164l-217 -818q-21 -64 -21 -161q0 -147 95.5 -237.5t279.5 -90.5q185 0 319 131q126 129 183 350l223 826h158l24 8q49 22 60 63l6 31q13 61 -6 137h155q18 -96 -8 -176
q-46 -173 -268 -211l-189 -706q-73 -272 -225 -424q-179 -179 -446 -179z" />
    <glyph glyph-name="uni1EF1" unicode="&#x1ef1;" horiz-adv-x="1294" 
d="M309 -385l58 215h157l-57 -215h-158zM455 -23q-154 0 -245 88t-91 240q0 62 26 164l156 590h158l-162 -600q-14 -61 -14 -119q0 -104 62.5 -162.5t172.5 -58.5q125 0 233.5 96.5t149.5 247.5l160 596h139l19 6q48 21 59 63l6 31q13 61 -6 137h156q18 -94 -9 -176
q-47 -164 -245 -207l-244 -913h-158l47 172q-81 -92 -169 -143.5t-201 -51.5z" />
    <glyph glyph-name="Ygrave" unicode="&#x1ef2;" horiz-adv-x="1357" 
d="M897 1561l-170 221l166 76l115 -297h-111zM442 0l156 578l-354 856h180l287 -723l675 723h207l-839 -883l-148 -551h-164z" />
    <glyph glyph-name="ygrave" unicode="&#x1ef3;" horiz-adv-x="1175" 
d="M672 1219l-170 221l166 76l114 -297h-110zM78 -334q-125 0 -232 74l86 119q29 -23 76 -38.5t86 -15.5q71 0 135.5 44t141.5 153l-193 1057h164l147 -883l570 883h178l-725 -1094q-111 -162 -212.5 -230.5t-221.5 -68.5z" />
    <glyph glyph-name="uni1EF4" unicode="&#x1ef4;" horiz-adv-x="1357" 
d="M348 -385l58 215h157l-57 -215h-158zM442 0l156 578l-354 856h180l287 -723l675 723h207l-839 -883l-148 -551h-164z" />
    <glyph glyph-name="uni1EF5" unicode="&#x1ef5;" horiz-adv-x="1175" 
d="M530 -385l58 215h157l-57 -215h-158zM78 -334q-125 0 -232 74l86 119q29 -23 76 -38.5t86 -15.5q71 0 135.5 44t141.5 153l-193 1057h164l147 -883l570 883h178l-725 -1094q-111 -162 -212.5 -230.5t-221.5 -68.5z" />
    <glyph glyph-name="uni1EF6" unicode="&#x1ef6;" horiz-adv-x="1357" 
d="M850 1561l37 157q72 18 105 41t46 60q7 26 -3 38.5t-50 12.5q-61 0 -113 -76l-100 57q111 134 250 134q88 0 129 -47t18 -119q-23 -64 -76.5 -111t-121.5 -66q-9 -17 -18.5 -42t-16.5 -39h-86zM442 0l156 578l-354 856h180l287 -723l675 723h207l-839 -883l-148 -551
h-164z" />
    <glyph glyph-name="uni1EF7" unicode="&#x1ef7;" horiz-adv-x="1175" 
d="M659 1221l37 157q73 18 106.5 41t45.5 60q7 26 -3 38.5t-50 12.5q-61 0 -113 -76l-100 57q62 75 122 104.5t127 29.5q88 0 129.5 -47t18.5 -119q-23 -64 -77 -110.5t-122 -65.5q-9 -17 -18.5 -42t-16.5 -40h-86zM78 -334q-125 0 -232 74l86 119q29 -23 76 -38.5t86 -15.5
q71 0 135.5 44t141.5 153l-193 1057h164l147 -883l570 883h178l-725 -1094q-111 -162 -212.5 -230.5t-221.5 -68.5z" />
    <glyph glyph-name="uni1EF8" unicode="&#x1ef8;" horiz-adv-x="1357" 
d="M717 1567l-92 39q49 100 101 149t116 49q43 0 70 -14.5t65 -48.5q26 -23 35 -30.5t24 -15t31 -7.5q33 0 57 25.5t58 86.5l92 -41q-49 -101 -100.5 -149.5t-116.5 -48.5q-12 0 -23 1.5t-22 5.5t-18 6t-19 10t-15.5 10.5t-18 13t-17.5 12.5q-30 33 -49.5 45t-43.5 12
q-30 0 -54.5 -26t-59.5 -84zM442 0l156 578l-354 856h180l287 -723l675 723h207l-839 -883l-148 -551h-164z" />
    <glyph glyph-name="uni1EF9" unicode="&#x1ef9;" horiz-adv-x="1175" 
d="M504 1212l-92 39q49 100 101 149.5t116 49.5q30 0 54.5 -9t39.5 -20t41 -35q26 -23 35 -30.5t24 -15t31 -7.5q33 0 57 25.5t58 87.5l92 -41q-49 -101 -100.5 -150t-116.5 -49q-14 0 -28 3t-22.5 5t-23 10.5t-18.5 11.5t-21 15.5t-20 14.5q-30 33 -49.5 45t-43.5 12
q-30 0 -54.5 -26t-59.5 -85zM78 -334q-125 0 -232 74l86 119q29 -23 76 -38.5t86 -15.5q71 0 135.5 44t141.5 153l-193 1057h164l147 -883l570 883h178l-725 -1094q-111 -162 -212.5 -230.5t-221.5 -68.5z" />
    <glyph glyph-name="endash" unicode="&#x2013;" horiz-adv-x="1083" 
d="M135 537l41 157h817l-41 -157h-817z" />
    <glyph glyph-name="emdash" unicode="&#x2014;" horiz-adv-x="1841" 
d="M135 537l41 157h1575l-41 -157h-1575z" />
    <glyph glyph-name="quoteleft" unicode="&#x2018;" horiz-adv-x="522" 
d="M270 979l52 186q35 129 103 192t193 87l17 -72q-89 -23 -135 -66t-58 -112h76l-59 -215h-189z" />
    <glyph glyph-name="quoteright" unicode="&#x2019;" horiz-adv-x="522" 
d="M254 971l-16 69q88 23 134 67t58 112h-76l60 215h188l-51 -185q-36 -133 -104 -195.5t-193 -82.5z" />
    <glyph glyph-name="quotesinglbase" unicode="&#x201a;" horiz-adv-x="522" 
d="M-76 -248l-16 70q89 23 134.5 66.5t57.5 111.5h-75l59 215h186l-49 -184q-36 -131 -104 -193t-193 -86z" />
    <glyph glyph-name="quotedblleft" unicode="&#x201c;" horiz-adv-x="931" 
d="M270 979l49 184q37 131 105.5 195t193.5 84l15 -70q-88 -23 -133.5 -66.5t-57.5 -111.5h74l-57 -215h-189zM680 979l49 184q35 131 104 195t193 84l16 -70q-88 -23 -133 -66.5t-57 -111.5h74l-58 -215h-188z" />
    <glyph glyph-name="quotedblright" unicode="&#x201d;" horiz-adv-x="931" 
d="M238 971l-15 69q88 23 133.5 67t57.5 112h-74l57 215h189l-49 -185q-36 -132 -104.5 -195t-194.5 -83zM647 971l-14 69q88 23 133 67t57 112h-73l57 215h188l-49 -185q-36 -132 -104.5 -195t-194.5 -83z" />
    <glyph glyph-name="quotedblbase" unicode="&#x201e;" horiz-adv-x="931" 
d="M-76 -248l-16 70q89 23 134.5 66.5t57.5 111.5h-75l59 215h186l-49 -184q-36 -131 -104 -193t-193 -86zM336 -248l-17 70q88 23 133.5 66.5t57.5 111.5h-74l58 215h188l-49 -184q-36 -131 -104 -193t-193 -86z" />
    <glyph glyph-name="dagger" unicode="&#x2020;" horiz-adv-x="841" 
d="M326 487l166 578l-256 -16l30 112l246 -16l61 289h125l-96 -289l256 16l-31 -112l-249 16l-140 -578h-112z" />
    <glyph glyph-name="daggerdbl" unicode="&#x2021;" horiz-adv-x="870" 
d="M203 0l94 289l-254 -17l29 113l247 -16l82 348l105 348l-256 -16l31 112l247 -16l60 289h125l-95 -289l256 16l-30 -112l-250 16l-80 -348l-106 -348l258 16l-31 -113l-246 17l-61 -289h-125z" />
    <glyph glyph-name="bullet" unicode="&#x2022;" horiz-adv-x="978" 
d="M483 442q-99 0 -160 62t-61 166q0 131 90 230t217 99q99 0 160.5 -61t61.5 -164q0 -131 -91 -231.5t-217 -100.5z" />
    <glyph glyph-name="ellipsis" unicode="&#x2026;" horiz-adv-x="1503" 
d="M25 0l57 213h186l-57 -213h-186zM516 0l59 213h185l-58 -213h-186zM1010 0l57 213h186l-57 -213h-186z" />
    <glyph glyph-name="perthousand" unicode="&#x2030;" horiz-adv-x="2510" 
d="M1245 98q70 0 130 48.5t93 122t33 149.5q0 91 -45.5 143.5t-126.5 52.5q-105 0 -180.5 -100.5t-75.5 -220.5q0 -89 45.5 -142t126.5 -53zM2042 98q70 0 130 48.5t93 122t33 149.5q0 91 -45.5 143.5t-126.5 52.5q-105 0 -180.5 -100.5t-75.5 -220.5q0 -89 45.5 -142
t126.5 -53zM485 821q70 0 130 48.5t93 122t33 149.5q0 91 -45.5 143.5t-126.5 52.5q-105 0 -180.5 -100t-75.5 -219q0 -92 44.5 -144.5t127.5 -52.5zM1235 -14q-128 0 -208.5 84.5t-80.5 214.5q0 111 50.5 212.5t142 165.5t200.5 64q127 0 208 -85.5t81 -213.5
q0 -111 -50.5 -212.5t-142 -165.5t-200.5 -64zM2032 -14q-128 0 -208.5 84.5t-80.5 214.5q0 111 50.5 212.5t142 165.5t200.5 64q127 0 208 -85.5t81 -213.5q0 -111 -50.5 -212.5t-142 -165.5t-200.5 -64zM131 0l1391 1434h161l-1390 -1434h-162zM475 709q-127 0 -208 85.5
t-81 213.5q0 111 50.5 212.5t142 165.5t199.5 64q129 0 209.5 -85.5t80.5 -213.5q0 -111 -50.5 -212.5t-142 -165.5t-200.5 -64z" />
    <glyph glyph-name="guilsinglleft" unicode="&#x2039;" horiz-adv-x="671" 
d="M307 80l-215 436l4 16l455 443l102 -86l-385 -383l168 -363z" />
    <glyph glyph-name="guilsinglright" unicode="&#x203a;" horiz-adv-x="671" 
d="M119 78l-103 86l383 383l-168 362l129 64l215 -436l-4 -17z" />
    <glyph glyph-name="fraction" unicode="&#x2044;" horiz-adv-x="1110" 
d="M-201 -201l1428 1753h162l-1428 -1753h-162z" />
    <glyph glyph-name="fraction" unicode="&#x2215;" horiz-adv-x="1110" 
d="M-201 -201l1428 1753h162l-1428 -1753h-162z" />
    <glyph glyph-name="trademark" unicode="&#x2122;" horiz-adv-x="1419" 
d="M307 803l152 545h-201l25 86h493l-24 -86h-201l-154 -545h-90zM739 803l179 631h86l133 -347l315 347h104l-178 -631h-88l137 483l-317 -342h-10l-133 342l-138 -483h-90z" />
    <glyph glyph-name="radical" unicode="&#x221a;" horiz-adv-x="2076" 
d="M1587 0l402 1495h155l-401 -1495h-156zM94 0l248 920h-145l36 139h146l35 127q81 313 362 313q128 0 211 -45l-37 -135q-87 43 -174 43q-157 0 -213 -201l-26 -102h346l-39 -139h-344l-248 -920h-158zM864 0l248 920h-147l36 139h146l35 127q81 313 364 313
q126 0 209 -45l-37 -135q-87 43 -174 43q-157 0 -213 -201l-26 -102h346l-37 -139h-346l-248 -920h-156z" />
    <glyph glyph-name="approxequal" unicode="&#x2248;" horiz-adv-x="2076" 
d="M1587 0l285 1059h156l-285 -1059h-156zM94 0l248 920h-145l36 139h146l35 127q81 313 362 313q128 0 211 -45l-37 -135q-87 43 -174 43q-157 0 -213 -201l-26 -102h346l-39 -139h-344l-248 -920h-158zM864 0l248 920h-147l36 139h146l35 127q81 313 364 313
q126 0 209 -45l-37 -135q-87 43 -174 43q-157 0 -213 -201l-26 -102h346l-37 -139h-346l-248 -920h-156zM1923 1290l47 174h180l-49 -174h-178z" />
    <glyph glyph-name="NUL" horiz-adv-x="0" 
 />
    <glyph glyph-name="CR" horiz-adv-x="614" 
 />
    <glyph glyph-name="apple" horiz-adv-x="1980" 
d="M854 131q0 -35 -25 -35q-24 0 -24 35q0 33 24 33q25 0 25 -33zM721 152v-21h-6q-17 0 -17 16q0 13 15 13q8 0 8 -8zM1133 162q9 0 0 -19q-9 19 0 19zM786 444l19 -71q0 -15 -8 -15h-11q-22 0 -37.5 20t-15.5 46q0 35 29 35h12q6 -1 6.5 -2t5.5 -13zM1466 383
q0 -27 -22 -27q-19 0 -35 24t-16 54q0 29 22 29q19 0 35 -24t16 -56zM573 410h-10q-16 0 -23.5 9t-7.5 21q0 19 17 19q15 0 18 -10zM803 786h-23q-26 0 -26 23q0 22 26 22h23v-45zM1401 1096q0 -27 -23 -27q-19 0 -35 24t-16 54q0 29 23 29q19 0 35 -24t16 -56zM557 1133
q-6 -9 -14 -9t-8 4q0 7 8 7q12 0 14 -2zM1159 1133q-6 -9 -14 -9t-8 4q0 7 8 7q12 0 14 -2zM360 1122h-10q-16 0 -23.5 9.5t-7.5 21.5q0 18 17 18q15 0 18 -10zM903 -180q0 26 -22 26q-23 0 -23 -24q0 -27 23 -27q22 0 22 25zM1638 -180q0 26 -22 26q-23 0 -23 -24
q0 -27 23 -27q22 0 22 25zM1155 -188l-10 24l-10 -24h20zM807 -170q0 17 -23 14v-26q23 0 23 12zM1075 -168q0 15 -22 12v-24q22 -3 22 12zM1241 -170q0 17 -22 14v-26q22 0 22 12zM633 94v4q-4 0 -6 2q-6 3 -6 11v41q0 5 6 8q2 2 6 2v4h-37v-4q4 0 6 -2q6 -6 6 -8v-19
q-4 0 -8 4l-16 17q-5 3 -2 6q2 2 4 2v4h-29v-4q4 0 6 -2q3 -1 5 -3t5 -3l21 -19l-27 -26q-1 -1 -4 -3.5t-4 -3.5t-3 -2t-3 -2v-4h35v4q-4 0 -6 2t2 9l16 16q4 4 8 4v-18q0 -5 -6 -11q-2 -2 -6 -2v-4h37zM745 94v4q-4 0 -6 2q-4 4 -4 9v41q0 6 4 10q2 2 6 2v4h-36
q-27 0 -27 -19q0 -9 18 -18l-14 -20l-8 -6l-4 -3l-4 -2v-4h22l15 25q5 8 14 8v-18q0 -3 -6 -9q-2 -2 -4 -2v-4h34zM870 131q0 37 -41 37t-41 -37q0 -39 41 -39t41 39zM983 162v4h-31v-4q2 0 4 -2q1 -1 -2 -8l-12 -19l-12 19q-4 4 0 8q2 2 6 2v4h-31v-4q4 0 6 -2q1 -1 5 -3.5
t6 -4.5l16 -25v-16q0 -5 -6 -11q-2 -2 -4 -2v-4h35v4q-5 0 -7 2q-4 4 -4 11v16l17 25q1 4 5 6l5 2q2 2 4 2zM1194 166h-31v-4q2 0 4 -2q3 -3 0 -8l-18 -39l-10 20l8 17q1 3 2.5 4.5t3 2t2.5 1.5l4 4v4h-53l2 -4q2 0 4 -2l10 -10l6 -11l-14 -26l-16 37q-3 7 0 10q2 2 4 2v4
h-27v-4q2 0 4 -2t4.5 -5.5t3.5 -4.5l27 -56h2q2 -2 2 0l17 33l18 -33h2l25 56q1 3 3 5t4 3t3 2q2 2 4 2v4zM1296 94v4q-3 -3 -6 0q-4 0 -4 11v43q0 6 4 10h6v4h-59l-4 -21l4 -2q0 5 4 9q3 8 14 8h9q8 0 8 -6v-21h-8q-7 0 -11 4q-2 2 -2 6h-4v-26h4q0 4 2 6q6 6 11 6h8v-23
q0 -6 -8 -6h-9q-7 0 -16 9q-4 4 -4 10l-4 -2l4 -23h61zM1421 94v4q-4 0 -6 2q-6 3 -6 9v41q0 5 6 8q1 1 3 2t3 2v4h-20l-49 -53v37q0 7 6 10q2 2 6 2v4h-31v-4q4 0 6 -2q7 -7 7 -10v-58h6l51 58v-41q0 -3 -6 -9q-2 -2 -4 -2v-4h28zM1694 260v12h-1403v-12h1403zM629 350
l-2 6q-7 0 -9 2q-10 3 -12 15l-14 71q-4 12 6 15q2 2 8 2l-2 6h-55q-41 0 -41 -31q0 -12 11 -20t28 -10l-19 -33q-7 -11 -18 -15q-4 -2 -10 -2l2 -6h39l24 47q3 6 10 6l7 -30q4 -11 -7 -15q-2 -2 -8 -2l2 -6h60zM848 350l-2 8q-4 -4 -8 0q-10 3 -13 19l-16 63q-6 18 16 21
l-2 6h-61q-21 0 -36 -11.5t-15 -33.5q0 -31 21.5 -51.5t49.5 -20.5h66zM1071 350l-2 6q-4 0 -6 2q-9 3 -12 19l-15 65q-3 14 6 17q2 2 11 2l-2 6h-29l-59 -86l-11 61q-3 14 6 17q2 2 9 2l-2 6h-43l2 -6q6 0 8 -2q7 -3 10 -17l16 -92l7 -2l61 90l12 -61q3 -15 -4 -19
q-2 -2 -8 -2l2 -6h43zM1272 461l-2 6h-60l2 -6q7 0 9 -2q8 -3 12 -17l10 -43q4 -16 4 -23t-5.5 -12.5t-20.5 -5.5q-30 0 -41 45l-9 39q-3 16 7 19q4 4 8 0v6h-49l2 -6q6 0 10 -2q8 -3 12 -17l8 -39q14 -55 58 -55q52 0 39 49l-11 45q-8 14 7 19q3 3 10 0zM1686 350l-3 6
q-6 0 -8 2q-10 3 -12 15l-14 71q-4 12 6 15q2 2 8 2l-2 6h-92v-21v-14h8q-2 4 2 12q3 15 25 15h8q9 0 12 -13l6 -32h-8q-10 0 -18 8q-4 4 -7 10h-6l11 -47h6q0 6 2 10q3 13 14 13h8l6 -35q4 -12 -6 -15q-2 -2 -8 -2l2 -6h60zM412 440l4 4q-5 8 -6.5 10.5t-6 7.5t-10.5 7
t-14 2q-32 0 -29 -47q-14 47 -43 47q-24 0 -24 -25l6 -2q0 13 16 13q33 0 49 -68q6 -19 -4 -29q-5 -5 -8 -2l2 -8h57l-2 8q-4 -4 -8 0q-9 3 -12 19q-10 38 -10 51q0 27 18 27q10 0 25 -15zM1491 393q0 31 -23.5 54.5t-52.5 23.5q-17 0 -32 -11.5t-15 -33.5q0 -32 23 -55
t53 -23q17 0 32 11.5t15 33.5zM1694 555v12h-1403v-12h1403zM580 631v67h-29v133h29v70h-289v-127h84v57h67v-40h-49v-50h49v-43h-67v58h-84v-125h289zM938 631v67h-29v133h29v70h-197q-44 0 -70 -23t-26 -59t26 -59t70 -23h62v-39h-31v-67h166zM1327 831v70h-166v-70h23
l-31 -47l-31 47h21v70h-127v-70h24l76 -94v-39h-29v-67h166v67h-30v41l75 92h29zM1694 774v127h-301v-127h73v57h23v-133h-29v-67h166v67h-29v133h23v-57h74zM1694 973v12h-1403v-12h1403zM819 1067q0 5 -7 11t-19 7q-6 4 -9 21t-5 34t-13 30.5t-33 13.5q-10 0 -18 -7
t-8 -14q0 -10 10 -10q8 0 8 12q0 13 10 13t14 -15.5t9.5 -39.5t19.5 -38q-18 0 -30 -13t-17 -13q-10 0 -10 8q0 3 2 5t2 5q0 10 -10 10t-10 -14q0 -10 9.5 -17t20.5 -7q19 0 30 13t21 13q6 -14 25 -14q8 0 8 6zM416 1063l-2 6q-6 0 -8 2q-11 4 -13 14l-14 72q-4 11 6 14
q3 3 8 3l-2 6h-55q-41 0 -41 -31q0 -12 11 -21t28 -10l-19 -33q-6 -10 -18 -14q-4 -2 -10 -2l2 -6h39l24 47q3 6 10 6l7 -31q3 -11 -7 -14q-2 -2 -8 -2l2 -6h60zM1020 1063l-2 6q-6 0 -8 2q-11 4 -13 14l-14 72q-4 11 6 14q3 3 8 3l-2 6h-92v-21v-14h8q-2 4 2 12q3 14 25 14
h8q9 0 12 -12l7 -33h-9q-9 0 -18 9q-2 2 -6 10h-6l10 -47h6q0 6 2 10q3 12 14 12h9l6 -35q4 -11 -6 -14q-2 -2 -9 -2l3 -6h59zM1681 1063l-2 6q-6 0 -8 2q-10 3 -12 14l-14 72q-4 11 6 14q3 3 8 3l-2 6h-58l3 -6q5 0 8 -3q6 -2 10 -14l6 -31h-49l-6 31q-4 11 6 14q3 3 8 3
l-2 6h-59l2 -6q5 0 8 -3q8 -3 12 -14l15 -72q3 -11 -7 -14q-2 -2 -8 -2l2 -6h60l-2 6q-7 0 -9 2q-10 3 -12 14l-6 33h49l6 -33q4 -11 -6 -14q-2 -2 -8 -2l2 -6h59zM604 1100q0 25 -29 35q11 7 11 18q0 12 -11 21.5t-32 9.5q-27 0 -27 -23q0 -12 10 -12q9 0 9 6q0 4 -3.5 6.5
t-3.5 5.5q0 11 15 11q20 0 20 -25q0 -8 -4 -12q-33 3 -33 -13q0 -12 17 -12q12 0 22 10q13 -10 13 -30q0 -29 -25 -29t-25 18q0 7 7 7q1 0 4 -2.5t6 -2.5q8 0 8 11q0 10 -14 10q-19 0 -19 -21q0 -26 33 -26q51 0 51 39zM1206 1100q0 26 -28 35q10 7 10 18q0 12 -11 21.5
t-32 9.5q-27 0 -27 -23q0 -12 10 -12q9 0 9 6q0 4 -3.5 6.5t-3.5 5.5q0 11 15 11q20 0 20 -25q0 -8 -4 -12q-33 3 -33 -13q0 -12 17 -12q12 0 22 10q13 -10 13 -30q0 -29 -25 -29t-25 18q0 7 7 7q1 0 4 -2.5t6 -2.5q8 0 8 11q0 10 -14 10q-19 0 -19 -21q0 -26 33 -26
q51 0 51 39zM1425 1106q0 31 -23 54.5t-52 23.5q-17 0 -32 -11.5t-15 -33.5q0 -32 22.5 -55t52.5 -23q17 0 32 11.5t15 33.5zM1694 1266v12h-1403v-12h1403zM899 1356v4q-3 -3 -6 0q-4 0 -4 10v43q0 6 4 10h6v4h-59l-4 -20l4 -2q0 4 4 8q3 8 14 8h8q8 0 8 -6v-20h-8
q-6 0 -10 4q-2 2 -2 6h-4v-27h4q0 4 2 6q7 7 10 7h8v-23q0 -6 -8 -6h-8q-8 0 -16 8q-4 4 -4 10l-4 -2l4 -22h61zM1032 1356v4q-3 -3 -6 0q-6 0 -6 10v43q0 7 6 10h6v4h-37v-2v-2h4q7 -7 7 -10v-18h-35v18q0 6 4 10h6v2v2h-35v-4h4q6 -6 6 -10v-43q0 -2 -6 -8q-2 -2 -4 -2v-4
h35v4q-4 0 -6 2q-4 4 -4 8v21h35v-21q0 -10 -7 -10q-2 -2 -4 0v-4h37zM1141 1405h4v8q0 3 -1 8.5t-1 8.5q-3 -3 -35 -3q-31 0 -37 3q0 -3 -1 -8.5t-1 -8.5v-8h4q1 1 3 4t3 4q10 10 15 10q6 0 6 -6v-47q0 -10 -6 -10q-2 -2 -4 0v-4h34v4q-3 -3 -6 0q-4 0 -4 10v47q0 6 6 6
q7 0 17 -10q4 -4 4 -8zM582 -207q0 -8 -9 -8q-8 0 -8 8t8 8q9 0 9 -8zM1466 -207q0 -8 -8 -8t-8 8t8 8t8 -8zM317 -145l-24 -70h-2l-23 47l-20 -47h-2l-25 70l12 2l15 -47l20 47h2l21 -47l14 45h12zM432 -145l-24 -70h-2l-23 47l-21 -47h-2l-24 70l12 2l14 -47l21 47h2
l21 -47l14 45h12zM547 -145l-25 -70h-2l-22 47l-21 -47h-2l-24 70l12 2l14 -47l21 47h2l20 -47l15 45h12zM662 -145v-11h-25v-57h-12v57h-25v11h62zM745 -145l-26 -39v-29h-12v29l-29 39l12 2l23 -31l18 29h14zM819 -168q0 -25 -35 -25v-20h-12v68q47 7 47 -23zM915 -178
q0 -37 -34 -37q-16 0 -25.5 10.5t-9.5 24.5q0 37 37 37q13 0 22.5 -10.5t9.5 -24.5zM1006 -176v-31q-11 -8 -27 -8q-37 0 -37 35q0 17 11 27t28 10q13 0 25 -9l-5 -10q-8 8 -22 8q-25 0 -25 -26q0 -25 27 -25l12 4v15h-18v10h31zM1094 -213h-15l-16 23h-10v-23h-13v68
q47 7 47 -21q0 -14 -14 -20zM1180 -213h-13l-8 16h-29l-6 -16h-12l31 70h4zM1253 -168q0 -25 -34 -25v-20h-13v68q47 7 47 -23zM1343 -213h-12v31h-33v-31h-12v68h12v-27h33v27h12v-68zM1438 -145l-27 -39v-29h-12v29l-29 39l12 2l23 -31l18 29h15zM1552 -197l-2 -12
q-6 -6 -20 -6q-37 0 -37 35q0 37 37 37q11 0 22 -7l-4 -10q-6 6 -18 6q-11 0 -18 -7t-7 -17q0 -27 27 -27q9 0 20 8zM1651 -178q0 -37 -35 -37q-16 0 -25.5 10.5t-9.5 24.5q0 37 37 37q13 0 23 -10.5t10 -24.5zM1759 -213h-12l-6 41l-21 -43h-4l-20 43l-6 -41h-13l13 70h2
l26 -54l27 54h2zM1778 0h-1571v1536h1571v-1536z" />
    </font>
</defs>
</svg>
