<?xml version="1.0" standalone="no"?>
<!DOCTYPE svg PUBLIC "-//W3C//DTD SVG 1.1//EN" "http://www.w3.org/Graphics/SVG/1.1/DTD/svg11.dtd" >
<svg xmlns="http://www.w3.org/2000/svg" xmlns:xlink="http://www.w3.org/1999/xlink" version="1.1">
<metadata>
Created by FontForge 20201107 at Sun Nov  3 14:32:20 2024
 By 
HTF Gotham  Copr. 2002 The Hoefler Type Foundry, Inc. Info: www.typography.com
</metadata>
<defs>
<font id="SVN-GothamBoldItalic" horiz-adv-x="1703" >
  <font-face 
    font-family="SVN-Gotham"
    font-weight="700"
    font-style="italic"
    font-stretch="normal"
    units-per-em="2048"
    panose-1="2 0 8 3 4 0 0 9 0 4"
    ascent="1638"
    descent="-410"
    x-height="1098"
    cap-height="1434"
    bbox="-283 -410 2554 2347"
    underline-thickness="40"
    underline-position="-271"
    slope="-12"
    unicode-range="U+0020-FB02"
  />
<missing-glyph horiz-adv-x="1024" 
 />
    <glyph glyph-name="fi" unicode="fi" horiz-adv-x="1460" 
d="M848 0l295 1098h311l-295 -1098h-311zM47 0l225 831h-131l72 267h129l14 59q46 181 157 266.5t288 85.5q128 0 213 -30l-68 -258q-67 26 -135 26q-120 0 -154 -119l-8 -30h264l-71 -267h-258l-226 -831h-311zM1167 1219l76 276h328l-76 -276h-328z" />
    <glyph glyph-name="fl" unicode="fl" horiz-adv-x="1460" 
d="M47 0l225 831h-131l72 267h129l14 59q46 181 157 266.5t288 85.5q128 0 213 -30l-68 -258q-67 26 -135 26q-120 0 -154 -119l-8 -30h264l-71 -267h-258l-226 -831h-311zM848 0l401 1495h312l-402 -1495h-311z" />
    <glyph glyph-name=".notdef" horiz-adv-x="1024" 
 />
    <glyph glyph-name=".null" horiz-adv-x="0" 
 />
    <glyph glyph-name="nonmarkingreturn" horiz-adv-x="682" 
 />
    <glyph glyph-name="space" unicode=" " horiz-adv-x="614" 
 />
    <glyph glyph-name="exclam" unicode="!" horiz-adv-x="665" 
d="M18 0l88 328h332l-88 -328h-332zM229 487l146 906l12 41h365l-13 -41l-338 -906h-172z" />
    <glyph glyph-name="quotedbl" unicode="&#x22;" horiz-adv-x="1081" 
d="M203 780l172 654h348l-4 -11l-354 -643h-162zM698 780l172 654h349l-5 -11l-354 -643h-162z" />
    <glyph glyph-name="numbersign" unicode="#" horiz-adv-x="1415" 
d="M551 569h297l104 303h-297zM82 0l106 307h-165l69 262h189l104 303h-190l69 263h213l105 299h270l-104 -299h296l105 299h270l-104 -299h168l-70 -263h-190l-105 -303h193l-70 -262h-215l-106 -307h-271l107 307h-297l-107 -307h-270z" />
    <glyph glyph-name="dollar" unicode="$" horiz-adv-x="1302" 
d="M758 537l-82 -267q87 8 134.5 45.5t47.5 102.5q0 39 -22.5 66t-77.5 53zM674 899l80 264q-94 -6 -141.5 -47t-47.5 -100q0 -37 24 -62.5t85 -54.5zM330 -201l67 221q-265 54 -407 244l229 193q111 -128 266 -170l97 317q-82 30 -136.5 59t-104.5 73t-74.5 105t-24.5 142
q0 127 74.5 230.5t204 162t286.5 58.5h16l37 118h213l-43 -145q186 -50 316 -186l-213 -209q-102 92 -189 125l-92 -306q80 -31 135.5 -62.5t102 -75.5t69.5 -104t23 -138q0 -132 -77.5 -236t-208.5 -159.5t-290 -55.5h-2l-61 -201h-213z" />
    <glyph glyph-name="percent" unicode="%" horiz-adv-x="1802" 
d="M1333 162q80 0 132.5 76t52.5 163q0 68 -33.5 107t-93.5 39q-54 0 -97.5 -38.5t-65.5 -92.5t-22 -109q0 -68 33.5 -106.5t93.5 -38.5zM500 887q54 0 97.5 38t65 92t21.5 109q0 68 -33.5 107t-93.5 39q-54 0 -97.5 -38.5t-65 -92.5t-21.5 -109q0 -68 33.5 -106.5
t93.5 -38.5zM1321 -16q-142 0 -228.5 87.5t-86.5 227.5q0 107 48.5 203.5t141.5 159.5t207 63q142 0 228.5 -87.5t86.5 -227.5q0 -107 -48.5 -203.5t-141.5 -159.5t-207 -63zM123 0l1378 1434h266l-1378 -1434h-266zM487 709q-142 0 -228.5 87.5t-86.5 227.5
q0 107 48.5 203.5t141.5 159.5t207 63q142 0 229 -87.5t87 -227.5q0 -107 -49 -203.5t-142 -159.5t-207 -63z" />
    <glyph glyph-name="ampersand" unicode="&#x26;" horiz-adv-x="1425" 
d="M537 238q122 0 262 88l-221 305q-118 -45 -176 -110.5t-58 -137.5q0 -64 50 -104.5t143 -40.5zM713 893q135 47 185 93.5t50 109.5q0 46 -33.5 81t-95.5 35q-75 0 -120.5 -46.5t-45.5 -110.5q0 -70 60 -162zM1055 -29l-115 158q-213 -149 -438 -149q-203 0 -329 104
t-126 281q0 140 99.5 258t306.5 188q-76 133 -76 248q0 164 126.5 281.5t330.5 117.5q176 0 285.5 -97t109.5 -247q0 -263 -387 -397l162 -217q86 90 174 231l190 -133q-112 -169 -223 -289l141 -190z" />
    <glyph glyph-name="quotesingle" unicode="'" horiz-adv-x="585" 
d="M203 780l172 654h348l-4 -11l-354 -643h-162z" />
    <glyph glyph-name="parenleft" unicode="(" horiz-adv-x="911" 
d="M688 -94l-194 -199q-375 297 -375 721q0 337 211 607t598 425l114 -231q-293 -135 -450.5 -346t-157.5 -445q0 -269 254 -532z" />
    <glyph glyph-name="parenright" unicode=")" horiz-adv-x="911" 
d="M4 -285l-115 232q295 137 452 346t157 444q0 270 -254 533l194 198q375 -297 375 -720q0 -336 -212 -609t-597 -424z" />
    <glyph glyph-name="asterisk" unicode="*" horiz-adv-x="880" 
d="M569 752l-161 43l94 229l-232 -94l-45 164l248 32l-197 154l121 121l152 -199l33 246l161 -43l-94 -229l232 94l45 -164l-248 -33l196 -153l-120 -121l-152 198z" />
    <glyph glyph-name="plus" unicode="+" horiz-adv-x="1329" 
d="M430 211l98 369h-370l75 282h371l98 369h291l-98 -369h371l-76 -282h-371l-98 -369h-291z" />
    <glyph glyph-name="comma" unicode="," horiz-adv-x="653" 
d="M-104 -332l-21 129q123 10 185.5 60.5t80.5 142.5h-127l88 328h332l-74 -277q-53 -199 -165 -288.5t-299 -94.5z" />
    <glyph glyph-name="hyphen" unicode="-" horiz-adv-x="843" 
d="M90 485l80 299h631l-80 -299h-631z" />
    <glyph glyph-name="hyphen" unicode="&#xad;" horiz-adv-x="843" 
d="M90 485l80 299h631l-80 -299h-631z" />
    <glyph glyph-name="period" unicode="." horiz-adv-x="653" 
d="M14 0l88 328h332l-88 -328h-332z" />
    <glyph glyph-name="slash" unicode="/" horiz-adv-x="1085" 
d="M-276 -262l1394 1896h293l-1395 -1896h-292z" />
    <glyph glyph-name="zero" unicode="0" horiz-adv-x="1495" 
d="M711 260q92 0 173 57t133.5 145.5t82.5 194.5t30 207q0 151 -69.5 230.5t-190.5 79.5q-92 0 -173 -57t-133.5 -146t-82.5 -195t-30 -207q0 -151 69.5 -230t190.5 -79zM686 -25q-252 0 -405.5 163t-153.5 433q0 126 33 252.5t99 240.5t156.5 202t215 140t264.5 52
q252 0 405.5 -163t153.5 -433q0 -126 -33 -252.5t-99 -240.5t-156.5 -202t-215 -140t-264.5 -52z" />
    <glyph glyph-name="one" unicode="1" horiz-adv-x="888" 
d="M195 0l297 1110l-261 -59l-4 268l451 125h215l-387 -1444h-311z" />
    <glyph glyph-name="two" unicode="2" horiz-adv-x="1257" 
d="M-61 0l69 258l725 500q108 75 158.5 137t50.5 129q0 71 -47 109t-133 38q-88 0 -168 -44.5t-174 -133.5l-193 201q229 260 549 260q220 0 355 -110.5t135 -284.5q0 -135 -74 -243t-264 -241l-443 -303h602l-73 -272h-1075z" />
    <glyph glyph-name="three" unicode="3" horiz-adv-x="1236" 
d="M496 -25q-371 0 -531 273l234 172q60 -83 131.5 -122.5t179.5 -39.5q114 0 192 60t78 141q0 83 -73.5 126.5t-206.5 43.5h-88l-13 196l422 338h-542l73 271h969l-66 -238l-462 -352q305 -73 305 -357q0 -143 -78.5 -260t-217 -184.5t-306.5 -67.5z" />
    <glyph glyph-name="four" unicode="4" horiz-adv-x="1349" 
d="M432 565h365l123 459zM645 0l82 309h-664l-30 234l989 901h307l-235 -879h192l-69 -256h-193l-82 -309h-297z" />
    <glyph glyph-name="five" unicode="5" horiz-adv-x="1249" 
d="M512 -23q-155 0 -306.5 73.5t-223.5 182.5l221 187q146 -158 336 -158q126 0 208 64.5t82 158.5q0 82 -67.5 133.5t-198.5 51.5q-84 0 -192 -45l-160 129l223 680h869l-76 -277h-584l-82 -244q87 17 146 17q199 0 322.5 -111.5t123.5 -298.5q0 -107 -46 -205t-127.5 -173
t-203 -120t-264.5 -45z" />
    <glyph glyph-name="six" unicode="6" horiz-adv-x="1316" 
d="M641 242q120 0 198.5 75t78.5 172q0 87 -59 138t-157 51q-124 0 -203 -72t-79 -174q0 -76 53 -129q61 -61 168 -61zM641 -25q-242 0 -373 131q-147 147 -147 404q0 209 72 403t208 330q215 215 521 215q261 0 442 -166l-182 -227q-124 111 -287 111q-166 0 -279 -113
q-98 -98 -147 -252q50 50 141 85.5t189 35.5q121 0 218.5 -45.5t157.5 -138t60 -216.5q0 -143 -78 -271t-216 -207t-300 -79z" />
    <glyph glyph-name="seven" unicode="7" horiz-adv-x="1247" 
d="M18 0l891 1161h-659l74 273h1032l-66 -238l-901 -1196h-371z" />
    <glyph glyph-name="eight" unicode="8" horiz-adv-x="1355" 
d="M631 233q118 0 194.5 52t77.5 137q2 78 -70 127t-190 49q-117 0 -192.5 -53t-77.5 -133q-2 -79 70 -129t188 -50zM774 852q99 0 166.5 51.5t69.5 126.5q2 71 -59 118.5t-169 47.5q-98 0 -164.5 -50.5t-68.5 -125.5q-2 -73 60 -120.5t165 -47.5zM614 -20q-148 0 -272.5 49
t-200 143t-75.5 213q0 156 99.5 254t266.5 137q-84 42 -129 115.5t-45 161.5q0 72 35 141.5t99.5 128.5t170 95t234.5 36q225 0 366.5 -108.5t141.5 -276.5q0 -135 -83 -229t-231 -129q102 -38 160.5 -115.5t58.5 -189.5q0 -83 -41 -159t-115 -136t-188.5 -95.5
t-251.5 -35.5z" />
    <glyph glyph-name="nine" unicode="9" horiz-adv-x="1316" 
d="M709 741q124 0 201 74t77 180q0 84 -51 135q-62 62 -168 62q-124 0 -201.5 -75t-77.5 -183q0 -92 60.5 -142.5t159.5 -50.5zM498 -25q-266 0 -471 183l184 227q74 -64 144.5 -95.5t158.5 -31.5q164 0 281 117q92 92 139 231q-50 -50 -139 -84.5t-187 -34.5
q-122 0 -219 44.5t-157 138t-60 223.5q0 116 46 220.5t125 180t189.5 120t233.5 44.5q110 0 211 -33t164 -96q74 -74 110.5 -177t36.5 -257q0 -197 -74.5 -383t-212.5 -324q-213 -213 -503 -213z" />
    <glyph glyph-name="colon" unicode=":" horiz-adv-x="653" 
d="M14 0l88 328h332l-88 -328h-332zM221 770l88 328h332l-88 -328h-332z" />
    <glyph glyph-name="semicolon" unicode=";" horiz-adv-x="653" 
d="M-104 -332l-21 129q123 10 185.5 60.5t80.5 142.5h-127l88 328h332l-74 -277q-53 -199 -165 -288.5t-299 -94.5zM221 770l88 328h332l-88 -328h-332z" />
    <glyph glyph-name="semicolon" unicode="&#x37e;" horiz-adv-x="653" 
d="M-104 -332l-21 129q123 10 185.5 60.5t80.5 142.5h-127l88 328h332l-74 -277q-53 -199 -165 -288.5t-299 -94.5zM221 770l88 328h332l-88 -328h-332z" />
    <glyph glyph-name="less" unicode="&#x3c;" horiz-adv-x="1310" 
d="M1022 145l-875 435l76 282l1108 434l-84 -303l-768 -284l617 -285z" />
    <glyph glyph-name="equal" unicode="=" horiz-adv-x="1310" 
d="M111 313l75 283h971l-76 -283h-970zM254 846l76 282h970l-75 -282h-971z" />
    <glyph glyph-name="greater" unicode="&#x3e;" horiz-adv-x="1310" 
d="M66 145l84 304l768 284l-617 285l74 278l874 -434l-75 -282z" />
    <glyph glyph-name="question" unicode="?" horiz-adv-x="1114" 
d="M176 0l88 328h332l-88 -328h-332zM362 487l41 332l13 10q200 14 304.5 66.5t104.5 142.5q0 127 -170 127q-73 0 -150 -32t-143 -89l-163 207q96 98 227.5 149.5t271.5 51.5q208 0 332.5 -109.5t124.5 -263.5q0 -180 -132.5 -293.5t-391.5 -154.5l-60 -144h-209z" />
    <glyph glyph-name="at" unicode="@" horiz-adv-x="2007" 
d="M944 338q107 0 195 97t88 229q0 77 -49.5 123.5t-128.5 46.5q-107 0 -192 -94t-85 -226q0 -82 46 -129t126 -47zM965 -317q-186 0 -344.5 59t-270 162.5t-174.5 251.5t-63 321q0 156 49.5 304.5t141 271t213.5 215.5t275.5 144.5t317.5 51.5q151 0 283.5 -37t231 -103.5
t170 -154.5t108 -192.5t36.5 -216.5q0 -157 -41 -280t-110.5 -197t-154.5 -112t-179 -38q-103 0 -177.5 42.5t-107.5 115.5q-72 -74 -150 -117t-177 -43q-141 0 -235.5 92.5t-94.5 253.5q0 120 44.5 227t117 180t165 115.5t187.5 42.5q99 0 161.5 -36t106.5 -107l39 127
l228 -63l-162 -510q-34 -108 1 -166t118 -58q57 0 115 35.5t107.5 99.5t81 168t31.5 228q0 125 -52 238t-146 198.5t-235.5 135.5t-309.5 50q-188 0 -358.5 -74t-291.5 -197.5t-192 -289.5t-71 -344q0 -156 56.5 -289t157 -226.5t243.5 -146.5t311 -53q214 0 419 93l33 -72
q-208 -100 -452 -100z" />
    <glyph glyph-name="A" unicode="A" horiz-adv-x="1566" 
d="M629 600h381l-66 473zM-117 0l1002 1444h303l227 -1444h-323l-45 322h-607l-217 -322h-340z" />
    <glyph glyph-name="B" unicode="B" horiz-adv-x="1468" 
d="M406 276h370q119 0 187.5 48t68.5 133q0 64 -49.5 99.5t-146.5 35.5h-347zM561 854h318q258 0 258 174q0 59 -49.5 94t-149.5 35h-297zM25 0l385 1434h557q122 0 217 -27.5t152.5 -76.5t86.5 -112t29 -137q0 -140 -82 -231.5t-225 -122.5q201 -91 201 -291
q0 -197 -162.5 -316.5t-454.5 -119.5h-704z" />
    <glyph glyph-name="C" unicode="C" horiz-adv-x="1486" 
d="M813 -25q-196 0 -349 75.5t-240 218.5t-87 331q0 113 31.5 222.5t87.5 203.5t136.5 174.5t176 137t209 88.5t232.5 32q386 0 573 -305l-260 -182q-68 98 -149 147t-203 49q-97 0 -189.5 -44.5t-162 -118.5t-112 -177t-42.5 -215q0 -154 97.5 -250t252.5 -96
q98 0 173 34.5t163 107.5l205 -213q-114 -106 -244 -163t-299 -57z" />
    <glyph glyph-name="D" unicode="D" horiz-adv-x="1591" 
d="M416 285h178q145 0 269.5 44.5t209.5 129.5q144 144 144 358q0 143 -84 227q-105 105 -330 105h-154zM25 0l385 1434h417q377 0 562 -185q155 -155 155 -420q0 -330 -235 -565q-264 -264 -752 -264h-532z" />
    <glyph glyph-name="E" unicode="E" horiz-adv-x="1361" 
d="M25 0l385 1434h1071l-76 -281h-758l-78 -293h666l-76 -276h-665l-82 -303h770l-76 -281h-1081z" />
    <glyph glyph-name="F" unicode="F" horiz-adv-x="1357" 
d="M25 0l385 1434h1091l-78 -287h-776l-82 -305h684l-75 -287h-685l-149 -555h-315z" />
    <glyph glyph-name="G" unicode="G" horiz-adv-x="1597" 
d="M809 -25q-100 0 -196 23t-183 73.5t-152.5 122t-104 176t-38.5 228.5q0 166 68 322.5t185 275t285.5 190.5t356.5 72q211 0 357.5 -69.5t228.5 -178.5l-234 -206q-151 165 -376 165q-149 0 -274.5 -77.5t-197 -206.5t-71.5 -277q0 -162 103.5 -253t262.5 -91
q144 0 256 55l68 234h-317l73 272h623l-203 -714q-240 -136 -520 -136z" />
    <glyph glyph-name="H" unicode="H" horiz-adv-x="1548" 
d="M25 0l385 1434h315l-152 -568h574l151 568h316l-385 -1434h-316l156 575h-573l-156 -575h-315z" />
    <glyph glyph-name="I" unicode="I" horiz-adv-x="688" 
d="M39 0l385 1434h315l-385 -1434h-315z" />
    <glyph glyph-name="J" unicode="J" horiz-adv-x="1177" 
d="M385 -20q-142 0 -266 60.5t-199 178.5l223 195q60 -75 121.5 -108.5t136.5 -33.5q113 0 193 80q36 36 63.5 96.5t61.5 196.5l211 789h323l-231 -865q-45 -173 -89.5 -267t-119.5 -169q-153 -153 -428 -153z" />
    <glyph glyph-name="K" unicode="K" horiz-adv-x="1488" 
d="M25 0l385 1434h315l-170 -635l709 635h426l-699 -600l338 -834h-346l-242 645l-297 -254l-104 -391h-315z" />
    <glyph glyph-name="L" unicode="L" horiz-adv-x="1282" 
d="M25 0l385 1434h315l-307 -1147h715l-78 -287h-1030z" />
    <glyph glyph-name="M" unicode="M" horiz-adv-x="1777" 
d="M25 0l385 1434h327l207 -607l535 607h364l-385 -1434h-319l250 936l-562 -612h-8l-229 606l-250 -930h-315z" />
    <glyph glyph-name="N" unicode="N" horiz-adv-x="1609" 
d="M25 0l385 1434h290l418 -912l246 912h311l-385 -1434h-268l-434 940l-252 -940h-311z" />
    <glyph glyph-name="O" unicode="O" 
d="M829 266q87 0 167 32t139 86t103 123t66.5 145.5t22.5 150.5q0 164 -95 264t-269 100q-109 0 -204.5 -49t-158.5 -126.5t-99 -172t-36 -188.5q0 -165 95 -265t269 -100zM793 -25q-145 0 -268 49t-208 133.5t-132.5 201.5t-47.5 251q0 127 39.5 251.5t116.5 231.5t180 189
t239.5 129t286.5 47q145 0 268 -49t208 -133.5t132.5 -201.5t47.5 -251q0 -127 -39.5 -251.5t-116.5 -231.5t-180 -189t-239.5 -129t-286.5 -47z" />
    <glyph glyph-name="P" unicode="P" horiz-adv-x="1390" 
d="M530 711h215q161 0 256 67.5t95 188.5q0 71 -47 118q-64 64 -197 64h-205zM25 0l385 1434h454q156 0 265 -34.5t186 -111.5q110 -110 110 -295q0 -173 -93 -301.5t-249.5 -193t-353.5 -64.5h-272l-117 -434h-315z" />
    <glyph glyph-name="Q" unicode="Q" 
d="M829 266q93 0 181 37l-185 250l260 174l146 -233q96 146 96 309q0 164 -95 264t-269 100q-109 0 -204.5 -49t-158.5 -126.5t-99 -172t-36 -188.5q0 -165 95 -265t269 -100zM1266 -90l-95 151q-177 -86 -378 -86q-145 0 -268 49t-208 133.5t-132.5 201.5t-47.5 251
q0 127 39.5 251.5t116.5 231.5t180 189t239.5 129t286.5 47q145 0 268 -49t208 -133.5t132.5 -201.5t47.5 -251q0 -164 -63 -316t-181 -274l115 -151z" />
    <glyph glyph-name="R" unicode="R" horiz-adv-x="1488" 
d="M539 737h280q197 0 289 92q59 59 59 146q0 70 -45 115q-59 59 -209 59h-264zM25 0l385 1434h522q310 0 454 -144q111 -111 111 -289q0 -208 -131 -339q-124 -124 -332 -173l244 -489h-358l-222 459h-235l-123 -459h-315z" />
    <glyph glyph-name="S" unicode="S" horiz-adv-x="1302" 
d="M604 -20q-418 0 -624 264l237 200q89 -95 185 -141.5t216 -46.5q97 0 158.5 41.5t61.5 108.5q0 53 -51 92t-193 96q-79 32 -134.5 63.5t-109 77.5t-81 107.5t-27.5 138.5q0 107 46 197t124 150t181.5 93t217.5 33q337 0 537 -213l-218 -217q-87 79 -165.5 116.5
t-178.5 37.5q-95 0 -151.5 -44t-56.5 -102q0 -55 48 -89t203 -99q81 -34 137.5 -66.5t107 -78.5t75.5 -106t25 -136q0 -146 -80.5 -256.5t-208.5 -165.5t-281 -55z" />
    <glyph glyph-name="T" unicode="T" horiz-adv-x="1269" 
d="M326 0l307 1143h-436l77 291h1188l-78 -291h-436l-307 -1143h-315z" />
    <glyph glyph-name="U" unicode="U" horiz-adv-x="1564" 
d="M702 -23q-251 0 -393.5 128t-142.5 356q0 104 35 229l198 744h316l-207 -772q-23 -81 -23 -156q0 -109 65 -173.5t185 -64.5q138 0 234 90q92 92 139 267l217 809h315l-229 -854q-73 -278 -221 -426q-177 -177 -488 -177z" />
    <glyph glyph-name="V" unicode="V" horiz-adv-x="1482" 
d="M442 -10l-186 1444h338l98 -1000l635 1000h354l-960 -1444h-279z" />
    <glyph glyph-name="W" unicode="W" horiz-adv-x="2269" 
d="M369 -10l-103 1444h328l37 -971l577 975h271l65 -975l557 971h357l-877 -1444h-293l-69 919l-562 -919h-288z" />
    <glyph glyph-name="X" unicode="X" horiz-adv-x="1433" 
d="M-104 0l692 743l-307 691h354l180 -461l402 461h403l-674 -725l318 -709h-355l-192 481l-418 -481h-403z" />
    <glyph glyph-name="Y" unicode="Y" horiz-adv-x="1331" 
d="M346 0l152 565l-297 869h350l168 -594l491 594h381l-784 -897l-145 -537h-316z" />
    <glyph glyph-name="Z" unicode="Z" horiz-adv-x="1411" 
d="M-39 0l64 240l1007 917h-737l76 277h1163l-66 -240l-1007 -918h768l-74 -276h-1194z" />
    <glyph glyph-name="bracketleft" unicode="[" horiz-adv-x="952" 
d="M-20 -266l456 1700h662l-66 -244h-362l-326 -1213h363l-66 -243h-661z" />
    <glyph glyph-name="backslash" unicode="\" horiz-adv-x="1085" 
d="M668 -262l-426 1896h258l426 -1896h-258z" />
    <glyph glyph-name="bracketright" unicode="]" horiz-adv-x="952" 
d="M-127 -266l66 243h362l326 1213h-363l66 244h661l-456 -1700h-662z" />
    <glyph glyph-name="asciicircum" unicode="^" horiz-adv-x="1024" 
d="M172 1010l418 424h213l188 -424h-203l-122 239l-250 -239h-244z" />
    <glyph glyph-name="underscore" unicode="_" horiz-adv-x="1228" 
d="M-236 -328l64 238h1237l-64 -238h-1237z" />
    <glyph glyph-name="grave" unicode="`" horiz-adv-x="1024" 
d="M709 1219l-195 245l274 117l134 -362h-213z" />
    <glyph glyph-name="a" unicode="a" horiz-adv-x="1204" 
d="M467 193q95 0 173 64t103 157l9 28q-93 39 -205 39q-99 0 -161 -46.5t-62 -125.5q0 -52 39 -84t104 -32zM334 -20q-141 0 -230.5 82.5t-89.5 211.5q0 185 133.5 290.5t339.5 105.5q165 0 310 -49l4 14q12 50 12 82q0 129 -207 129q-148 0 -293 -60l-49 246q191 78 408 78
q220 0 332 -87.5t112 -250.5q0 -72 -24 -166l-162 -606h-301l33 127q-135 -147 -328 -147z" />
    <glyph glyph-name="b" unicode="b" horiz-adv-x="1380" 
d="M649 242q129 0 227.5 111.5t98.5 273.5q0 108 -62.5 168.5t-167.5 60.5q-131 0 -231 -113t-100 -268q0 -104 65.5 -168.5t169.5 -64.5zM690 -20q-123 0 -204.5 46t-139.5 134l-43 -160h-309l397 1495h311l-137 -516q77 70 149 104.5t160 34.5q185 0 303.5 -126.5
t118.5 -344.5q0 -142 -51.5 -268t-135.5 -212.5t-194 -136.5t-225 -50z" />
    <glyph glyph-name="c" unicode="c" horiz-adv-x="1146" 
d="M598 -25q-227 0 -369.5 136.5t-142.5 359.5q0 175 88 324.5t237 236t322 86.5q311 0 451 -241l-238 -168q-31 47 -59 75.5t-73.5 48t-104.5 19.5q-124 0 -220 -114t-96 -267q0 -104 60.5 -167.5t154.5 -63.5q70 0 127 26t121 82l160 -203q-94 -85 -190.5 -127.5
t-227.5 -42.5z" />
    <glyph glyph-name="d" unicode="d" horiz-adv-x="1380" 
d="M633 242q131 0 231.5 113t100.5 268q0 104 -65.5 168.5t-170.5 64.5q-129 0 -227.5 -111.5t-98.5 -273.5q0 -108 62.5 -168.5t167.5 -60.5zM504 -20q-185 0 -303.5 126.5t-118.5 344.5q0 142 51.5 268t135.5 212.5t194 136.5t225 50q123 0 204.5 -46t139.5 -134l148 557
h311l-399 -1495h-312l33 119q-77 -70 -149 -104.5t-160 -34.5z" />
    <glyph glyph-name="e" unicode="e" horiz-adv-x="1243" 
d="M403 635h478q10 38 10 72q0 72 -44 116.5t-136 44.5q-104 0 -186.5 -63.5t-121.5 -169.5zM1128 440h-751q8 -102 69.5 -158.5t180.5 -56.5q117 0 243 88l144 -192q-174 -146 -422 -146q-237 0 -372.5 130t-135.5 358q0 120 47.5 237t130 210t207 150.5t266.5 57.5
q210 0 329.5 -120t119.5 -308q0 -116 -56 -250z" />
    <glyph glyph-name="f" unicode="f" horiz-adv-x="841" 
d="M47 0l225 831h-131l72 267h129l14 59q46 181 157 266.5t288 85.5q128 0 213 -30l-68 -258q-67 26 -135 26q-120 0 -154 -119l-8 -30h264l-71 -267h-258l-226 -831h-311z" />
    <glyph glyph-name="g" unicode="g" horiz-adv-x="1374" 
d="M618 338q130 0 227 94.5t97 224.5q0 93 -59 147t-158 54q-129 0 -222 -98t-93 -228q0 -95 56 -144.5t152 -49.5zM512 -332q-166 0 -318 40.5t-262 113.5l164 213q183 -121 396 -121q149 0 237 88q62 62 100 197l11 37q-87 -79 -165 -112.5t-179 -33.5q-80 0 -153 25
t-130 71.5t-91 121t-34 165.5q0 134 51.5 255t135 205.5t192 134.5t221.5 50q68 0 122.5 -15t93.5 -43.5t65.5 -59t52.5 -72.5l45 170h311l-235 -883q-43 -162 -84 -244.5t-109 -150.5q-152 -152 -438 -152z" />
    <glyph glyph-name="h" unicode="h" horiz-adv-x="1273" 
d="M-6 0l397 1495h311l-135 -512q150 135 299 135t236.5 -85.5t87.5 -233.5q0 -61 -37 -209l-158 -590h-311l162 602q14 54 14 98q0 66 -39.5 101t-111.5 35q-89 0 -150 -59t-88 -161l-166 -616h-311z" />
    <glyph glyph-name="i" unicode="i" horiz-adv-x="618" 
d="M6 0l295 1098h311l-295 -1098h-311zM326 1219l75 276h328l-76 -276h-327z" />
    <glyph glyph-name="j" unicode="j" horiz-adv-x="616" 
d="M-94 -334q-90 0 -170 17l65 243q42 -10 76 -10q51 0 90 39t58 111l276 1032h311l-286 -1071q-54 -193 -160 -277t-260 -84zM326 1219l73 276h328l-74 -276h-327z" />
    <glyph glyph-name="k" unicode="k" horiz-adv-x="1210" 
d="M-6 0l401 1495h312l-209 -774l444 377h406l-531 -428l240 -670h-348l-156 465l-158 -127l-90 -338h-311z" />
    <glyph glyph-name="l" unicode="l" horiz-adv-x="618" 
d="M6 0l402 1495h311l-402 -1495h-311z" />
    <glyph glyph-name="m" unicode="m" horiz-adv-x="1943" 
d="M-6 0l293 1098h311l-31 -115q71 64 139 99.5t152 35.5q110 0 184 -52t107 -146q162 198 393 198q148 0 233 -85t85 -234q0 -61 -37 -209l-158 -590h-311l162 602q14 54 14 98q0 136 -146 136q-89 0 -147 -58.5t-86 -161.5l-166 -616h-311l162 602q14 54 14 98
q0 136 -145 136q-89 0 -148 -58.5t-86 -161.5l-166 -616h-311z" />
    <glyph glyph-name="n" unicode="n" horiz-adv-x="1267" 
d="M-6 0l293 1098h311l-31 -115q150 135 299 135t236.5 -85.5t87.5 -233.5q0 -61 -37 -209l-158 -590h-311l162 602q14 54 14 98q0 66 -39.5 101t-111.5 35q-89 0 -150 -59t-88 -161l-166 -616h-311z" />
    <glyph glyph-name="o" unicode="o" horiz-adv-x="1335" 
d="M629 242q90 0 164.5 58t112.5 140t38 162q0 119 -64.5 184.5t-172.5 65.5q-68 0 -129 -34t-101 -87.5t-63 -116.5t-23 -122q0 -119 65 -184.5t173 -65.5zM614 -25q-241 0 -384.5 141.5t-143.5 366.5q0 163 84 309t231.5 236t319.5 90q241 0 384.5 -141.5t143.5 -366.5
q0 -121 -50.5 -237t-135 -203.5t-203 -141t-246.5 -53.5z" />
    <glyph glyph-name="p" unicode="p" horiz-adv-x="1380" 
d="M649 242q129 0 227.5 111.5t98.5 273.5q0 108 -62.5 168.5t-167.5 60.5q-131 0 -231 -113t-100 -268q0 -104 65.5 -168.5t169.5 -64.5zM-94 -328l381 1426h311l-33 -119q77 70 149 104.5t160 34.5q185 0 303.5 -126.5t118.5 -344.5q0 -142 -51.5 -268t-135.5 -212.5
t-194 -136.5t-225 -50q-123 0 -204.5 46t-139.5 134l-129 -488h-311z" />
    <glyph glyph-name="q" unicode="q" horiz-adv-x="1380" 
d="M633 242q131 0 231.5 113t100.5 268q0 104 -65.5 168.5t-170.5 64.5q-129 0 -227.5 -111.5t-98.5 -273.5q0 -108 62.5 -168.5t167.5 -60.5zM672 -410l141 529q-77 -70 -149 -104.5t-160 -34.5q-185 0 -303.5 126.5t-118.5 344.5q0 142 51.5 268t135.5 212.5t194 136.5
t225 50q123 0 204.5 -46t139.5 -134l41 160h311l-401 -1508h-311z" />
    <glyph glyph-name="r" unicode="r" horiz-adv-x="858" 
d="M-6 0l293 1098h311l-59 -221q89 129 188 190t229 51l-88 -325h-16q-335 0 -442 -404l-105 -389h-311z" />
    <glyph glyph-name="s" unicode="s" horiz-adv-x="1024" 
d="M444 -25q-132 0 -266.5 51t-226.5 148l180 186q147 -147 336 -147q62 0 96.5 24.5t34.5 71.5q0 29 -31.5 52t-95.5 51q-59 24 -100.5 44t-85.5 49.5t-71 60.5t-44.5 74t-17.5 93q0 168 120 276.5t320 108.5q125 0 241.5 -45.5t190.5 -111.5l-168 -197q-148 117 -287 117
q-57 0 -88.5 -25t-31.5 -68q0 -30 34 -55t111 -59q42 -19 62.5 -29t58.5 -31t58.5 -36.5t47.5 -40.5t40.5 -49t23.5 -57t10 -69q0 -177 -125.5 -282t-325.5 -105z" />
    <glyph glyph-name="t" unicode="t" horiz-adv-x="849" 
d="M393 -18q-136 0 -208 59.5t-72 155.5q0 67 20 137l133 497h-131l72 267h131l76 280h311l-76 -280h258l-71 -267h-258l-123 -460q-9 -24 -9 -49q0 -66 84 -66q82 0 160 35l-72 -264q-91 -45 -225 -45z" />
    <glyph glyph-name="u" unicode="u" horiz-adv-x="1273" 
d="M408 -20q-149 0 -236.5 85.5t-87.5 233.5q0 61 37 209l158 590h311l-162 -602q-14 -54 -14 -99q0 -66 39.5 -100.5t111.5 -34.5q89 0 150 58.5t88 160.5l166 617h311l-293 -1098h-311l31 115q-150 -135 -299 -135z" />
    <glyph glyph-name="v" unicode="v" horiz-adv-x="1212" 
d="M307 -8l-133 1106h320l49 -731l436 731h334l-723 -1106h-283z" />
    <glyph glyph-name="w" unicode="w" horiz-adv-x="1755" 
d="M223 -8l-41 1106h316l-2 -666l385 670h268l29 -672l360 668h309l-639 -1106h-280l-31 674l-395 -674h-279z" />
    <glyph glyph-name="x" unicode="x" horiz-adv-x="1183" 
d="M-102 0l536 573l-239 525h331l123 -307l258 307h371l-514 -555l242 -543h-332l-127 326l-279 -326h-370z" />
    <glyph glyph-name="y" unicode="y" horiz-adv-x="1212" 
d="M174 -334q-146 0 -256 76l166 225q57 -43 121 -43q37 0 63.5 14t57.5 54l-136 1106h318l51 -746l412 746h336l-680 -1125q-105 -167 -209 -237t-244 -70z" />
    <glyph glyph-name="z" unicode="z" horiz-adv-x="1140" 
d="M-55 0l59 219l719 627h-533l68 252h930l-60 -219l-720 -627h559l-68 -252h-954z" />
    <glyph glyph-name="braceleft" unicode="{" horiz-adv-x="1003" 
d="M733 -98l-102 -191q-203 37 -292 113.5t-89 200.5q0 67 41 176q33 79 33 145q0 32 -5 51t-21 37.5t-51 26.5t-91 8h-66l64 238h65q75 0 121.5 12t82 46.5t55 95t32.5 159.5q29 231 164 335.5t413 108.5l21 -209q-79 -8 -132.5 -23.5t-89 -37.5t-57.5 -59t-33 -80
t-18 -109q-16 -141 -57 -221.5t-105 -115t-172 -46.5q85 -12 129.5 -60t44.5 -122q0 -64 -36 -158q-35 -103 -35 -143q0 -65 37.5 -102t148.5 -76z" />
    <glyph glyph-name="bar" unicode="|" horiz-adv-x="716" 
d="M270 -262v1896h246v-1896h-246z" />
    <glyph glyph-name="braceright" unicode="}" horiz-adv-x="1003" 
d="M-63 -289l-21 209q77 7 130.5 22.5t89.5 38t58 60t33.5 80.5t18.5 108q16 141 57 221.5t105 115t172 46.5q-84 12 -129 60.5t-45 122.5q0 63 36 157q35 94 35 144q0 65 -37.5 102t-148.5 76l102 190q204 -41 292.5 -115.5t88.5 -197.5q0 -67 -41 -176q-33 -79 -33 -146
q0 -32 5 -51t21 -37t51 -26t91 -8h66l-64 -238h-65q-76 0 -122.5 -12t-82 -46.5t-54.5 -94.5t-32 -160q-29 -231 -164.5 -336t-412.5 -109z" />
    <glyph glyph-name="asciitilde" unicode="~" horiz-adv-x="1044" 
d="M276 451l-163 81q56 126 137 199.5t176 73.5q50 0 85.5 -15t76.5 -45q46 -33 65.5 -43t42.5 -10q44 0 78 31t66 90l164 -82q-56 -126 -137.5 -199t-176.5 -73q-50 0 -84.5 14.5t-77.5 44.5q-46 33 -65.5 43t-42.5 10q-44 0 -78 -30.5t-66 -89.5z" />
    <glyph glyph-name="nbspace" unicode="&#xa0;" horiz-adv-x="614" 
 />
    <glyph glyph-name="exclamdown" unicode="&#xa1;" horiz-adv-x="665" 
d="M2 0l12 41l338 905h172l-145 -905l-12 -41h-365zM315 1106l88 328h332l-88 -328h-332z" />
    <glyph glyph-name="cent" unicode="&#xa2;" horiz-adv-x="1200" 
d="M526 477l217 553q-132 -12 -217.5 -119t-85.5 -239q0 -122 86 -195zM326 -12l88 225q-132 62 -205.5 179.5t-73.5 275.5q0 132 50 249t136.5 200.5t206.5 132t256 48.5q36 0 54 -2l57 150h213l-76 -193q153 -63 232 -202l-236 -164q-49 74 -106 106l-224 -571
q75 1 133.5 25.5t122.5 74.5l164 -211q-169 -155 -418 -155q-48 0 -94 6l-67 -174h-213z" />
    <glyph glyph-name="sterling" unicode="&#xa3;" horiz-adv-x="1318" 
d="M-27 0l56 207l170 51l77 289h-155l69 260h156l51 192q52 198 164 310q145 145 383 145q298 0 438 -246l-252 -172q-39 64 -86.5 95.5t-121.5 31.5q-83 0 -140 -57q-56 -56 -84 -160l-39 -139h474l-70 -260h-471l-74 -275h627l-74 -272h-1098z" />
    <glyph glyph-name="currency" unicode="&#xa4;" horiz-adv-x="1474" 
d="M811 -25q-232 0 -380 126t-177 343h-205l55 207h154q10 84 27 140h-144l56 206h149q95 210 268 335.5t402 125.5q400 0 518 -334l-268 -133q-46 95 -105 139t-162 44q-190 0 -301 -177h396l-56 -206h-417q-22 -66 -35 -140h415l-55 -207h-362q20 -90 82 -137t151 -47
q88 0 152.5 33.5t136.5 109.5l213 -184q-204 -244 -508 -244z" />
    <glyph glyph-name="yen" unicode="&#xa5;" horiz-adv-x="1456" 
d="M428 0l51 188h-377l60 222h377l32 127h-376l59 221h293l-256 676h340l172 -531l461 531h374l-624 -676h297l-60 -221h-377l-32 -127h377l-60 -222h-377l-51 -188h-303z" />
    <glyph glyph-name="section" unicode="&#xa7;" horiz-adv-x="1294" 
d="M817 590q55 0 94 29t39 71q0 39 -40.5 64t-135.5 53q-139 43 -205 43q-55 0 -94 -29t-39 -71q0 -39 40.5 -64t135.5 -53q139 -43 205 -43zM580 -18q-158 0 -283 49.5t-199 140.5l195 172q59 -59 137.5 -94t165.5 -35q66 0 104.5 21.5t38.5 56.5q0 34 -42 55t-167 55
q-72 19 -121.5 35t-103 41.5t-86 54t-53.5 70t-21 92.5q0 102 70.5 172t208.5 99q-74 71 -74 170q0 140 130 230.5t327 90.5q158 0 282.5 -49.5t198.5 -140.5l-194 -172q-59 59 -137.5 94t-165.5 35q-66 0 -105 -21.5t-39 -56.5q0 -34 42.5 -55.5t166.5 -55.5
q57 -17 88.5 -26.5t78.5 -27t73.5 -32t58 -36.5t47.5 -46t27.5 -56t11.5 -69q0 -102 -70 -171.5t-208 -98.5q73 -70 73 -170q0 -140 -129.5 -230.5t-326.5 -90.5z" />
    <glyph glyph-name="dieresis" unicode="&#xa8;" horiz-adv-x="1024" 
d="M322 1219l75 276h299l-75 -276h-299zM760 1219l76 276h299l-76 -276h-299z" />
    <glyph glyph-name="copyright" unicode="&#xa9;" horiz-adv-x="1699" 
d="M901 319q-172 0 -287.5 117.5t-115.5 288.5t115.5 290.5t293.5 119.5q106 0 178.5 -31t133.5 -90l-113 -131q-94 88 -199 88q-97 0 -161 -71t-64 -173t63.5 -173t161.5 -71q61 0 104.5 22t98.5 70l115 -114q-67 -71 -141 -106.5t-183 -35.5zM891 57q138 0 260.5 52.5
t209 141.5t137 211t50.5 257q0 136 -50.5 257.5t-136.5 209t-207.5 139t-258.5 51.5q-138 0 -260.5 -52.5t-209 -141t-137 -210.5t-50.5 -257q0 -136 50 -257.5t136 -209.5t208 -139.5t259 -51.5zM891 -25q-204 0 -374.5 100t-267.5 270t-97 370q0 149 58 286t156.5 237
t236.5 160t292 60q153 0 290.5 -59t235.5 -158t155.5 -235.5t57.5 -286.5q0 -149 -58 -286t-156.5 -237.5t-237 -160.5t-291.5 -60z" />
    <glyph glyph-name="ordfeminine" unicode="&#xaa;" horiz-adv-x="798" 
d="M459 936q53 0 96 35.5t55 87.5l4 16q-65 21 -112 21q-55 0 -89 -26t-34 -69q0 -29 21.5 -47t58.5 -18zM104 567l37 135h545l-37 -135h-545zM385 819q-78 0 -127 45t-49 117q0 102 73.5 160.5t186.5 58.5q83 0 172 -29l4 15q6 18 6 35q0 75 -116 75q-84 0 -160 -32
l-29 135q100 43 225 43q244 0 244 -187q0 -47 -12 -90l-90 -334h-166l18 70q-79 -82 -180 -82z" />
    <glyph glyph-name="guillemotleft" unicode="&#xab;" horiz-adv-x="1316" 
d="M315 63l-221 459l4 17l486 477l178 -164l-361 -350l164 -328zM868 63l-221 459l4 17l486 477l178 -164l-361 -350l164 -328z" />
    <glyph glyph-name="registered" unicode="&#xae;" horiz-adv-x="1699" 
d="M762 748h174q65 0 100 31t35 83q0 117 -139 117h-170v-231zM588 344v789h350q142 0 225.5 -69.5t83.5 -191.5q0 -179 -170 -245l193 -283h-203l-168 254h-137v-254h-174zM891 57q138 0 260.5 52.5t209 141.5t137 211t50.5 257q0 136 -50.5 257.5t-136.5 209t-207.5 139
t-258.5 51.5q-138 0 -260.5 -52.5t-209 -141t-137 -210.5t-50.5 -257q0 -136 50 -257.5t136 -209.5t208 -139.5t259 -51.5zM891 -25q-204 0 -374.5 100t-267.5 270t-97 370q0 149 58 286t156.5 237t236.5 160t292 60q153 0 290.5 -59t235.5 -158t155.5 -235.5t57.5 -286.5
q0 -149 -58 -286t-156.5 -237.5t-237 -160.5t-291.5 -60z" />
    <glyph glyph-name="macron" unicode="&#xaf;" horiz-adv-x="1024" 
d="M326 1229l57 215h737l-57 -215h-737z" />
    <glyph glyph-name="macron" unicode="&#x2c9;" horiz-adv-x="1024" 
d="M326 1229l57 215h737l-57 -215h-737z" />
    <glyph glyph-name="degree" unicode="&#xb0;" horiz-adv-x="911" 
d="M516 903q88 0 145.5 71t57.5 156q0 72 -42.5 117t-111.5 45q-88 0 -145.5 -71t-57.5 -156q0 -72 42.5 -117t111.5 -45zM510 743q-151 0 -240.5 88.5t-89.5 227.5q0 102 51.5 192t142 145.5t197.5 55.5q151 0 240.5 -88t89.5 -227q0 -102 -51.5 -192.5t-142 -146
t-197.5 -55.5z" />
    <glyph glyph-name="plusminus" unicode="&#xb1;" horiz-adv-x="1271" 
d="M524 -25q-109 0 -201.5 23t-158.5 63.5t-112 87t-79 101.5l234 176q67 -83 147 -125.5t193 -42.5q121 0 190.5 56t69.5 130q0 150 -232 150h-155l69 260h166q116 0 193.5 47.5t77.5 134.5q0 62 -54 101t-135 39q-90 0 -159 -35.5t-156 -112.5l-174 199q108 112 233 171.5
t293 59.5q218 0 346.5 -107.5t128.5 -265.5q0 -272 -319 -366q84 -38 139 -110t55 -173q0 -198 -166.5 -329.5t-433.5 -131.5z" />
    <glyph glyph-name="acute" unicode="&#xb4;" horiz-adv-x="1024" 
d="M426 1219l330 362l262 -117l-330 -245h-262z" />
    <glyph glyph-name="mu" unicode="&#xb5;" 
d="M829 266q93 0 181 37l-185 250l260 174l146 -233q96 146 96 309q0 164 -95 264t-269 100q-109 0 -204.5 -49t-158.5 -126.5t-99 -172t-36 -188.5q0 -165 95 -265t269 -100zM1266 -90l-95 151q-177 -86 -378 -86q-145 0 -268 49t-208 133.5t-132.5 201.5t-47.5 251
q0 127 39.5 251.5t116.5 231.5t180 189t239.5 129t286.5 47q145 0 268 -49t208 -133.5t132.5 -201.5t47.5 -251q0 -164 -63 -316t-181 -274l115 -151z" />
    <glyph glyph-name="mu" unicode="&#x3bc;" 
d="M829 266q93 0 181 37l-185 250l260 174l146 -233q96 146 96 309q0 164 -95 264t-269 100q-109 0 -204.5 -49t-158.5 -126.5t-99 -172t-36 -188.5q0 -165 95 -265t269 -100zM1266 -90l-95 151q-177 -86 -378 -86q-145 0 -268 49t-208 133.5t-132.5 201.5t-47.5 251
q0 127 39.5 251.5t116.5 231.5t180 189t239.5 129t286.5 47q145 0 268 -49t208 -133.5t132.5 -201.5t47.5 -251q0 -164 -63 -316t-181 -274l115 -151z" />
    <glyph glyph-name="paragraph" unicode="&#xb6;" horiz-adv-x="1226" 
d="M594 0l115 434q-256 5 -393.5 113t-137.5 321q0 121 44.5 222.5t131.5 179t227 121t320 43.5h391l-385 -1434h-313z" />
    <glyph glyph-name="periodcentered" unicode="&#xb7;" horiz-adv-x="653" 
d="M131 471l88 328h332l-88 -328h-332z" />
    <glyph glyph-name="periodcentered" unicode="&#x2219;" horiz-adv-x="653" 
d="M131 471l88 328h332l-88 -328h-332z" />
    <glyph glyph-name="cedilla" unicode="&#xb8;" horiz-adv-x="1024" 
d="M322 -354l-232 108l254 266h229z" />
    <glyph glyph-name="ordmasculine" unicode="&#xba;" horiz-adv-x="823" 
d="M510 963q76 0 125 61t49 135q0 62 -35 100.5t-94 38.5q-76 0 -125 -61t-49 -135q0 -62 35 -100.5t94 -38.5zM104 567l37 135h570l-37 -135h-570zM504 817q-133 0 -212 77t-79 202q0 139 101.5 243.5t246.5 104.5q133 0 212 -77t79 -202q0 -139 -101.5 -243.5
t-246.5 -104.5z" />
    <glyph glyph-name="guillemotright" unicode="&#xbb;" horiz-adv-x="1316" 
d="M176 63l-178 164l360 351l-163 327l249 111l222 -459l-4 -16zM729 63l-178 164l360 351l-163 327l249 111l222 -459l-5 -16z" />
    <glyph glyph-name="questiondown" unicode="&#xbf;" horiz-adv-x="1114" 
d="M506 -18q-208 0 -332.5 109t-124.5 263q0 180 132.5 294t391.5 155l60 143h209l-41 -332l-13 -10q-200 -14 -304.5 -66.5t-104.5 -142.5q0 -127 170 -127q73 0 150 32t143 89l164 -207q-96 -97 -228 -148.5t-272 -51.5zM608 1106l88 328h332l-88 -328h-332z" />
    <glyph glyph-name="Agrave" unicode="&#xc0;" horiz-adv-x="1566" 
d="M977 1546l-195 246l275 117l133 -363h-213zM629 600h381l-66 473zM-117 0l1002 1444h303l227 -1444h-323l-45 322h-607l-217 -322h-340z" />
    <glyph glyph-name="Aacute" unicode="&#xc1;" horiz-adv-x="1566" 
d="M872 1546l330 363l262 -117l-329 -246h-263zM629 600h381l-66 473zM-117 0l1002 1444h303l227 -1444h-323l-45 322h-607l-217 -322h-340z" />
    <glyph glyph-name="Acircumflex" unicode="&#xc2;" horiz-adv-x="1566" 
d="M645 1546l338 322h295l166 -322h-225l-125 135l-199 -135h-250zM629 600h381l-66 473zM-117 0l1002 1444h303l227 -1444h-323l-45 322h-607l-217 -322h-340z" />
    <glyph glyph-name="Atilde" unicode="&#xc3;" horiz-adv-x="1566" 
d="M629 600h381l-66 473zM-117 0l1002 1444h303l227 -1444h-323l-45 322h-607l-217 -322h-340zM819 1544l-143 76q49 115 120 182.5t154 67.5q76 0 144 -55q6 -5 18.5 -14t17 -11.5t13 -8.5t12.5 -7.5t10.5 -4.5t12 -3.5t12.5 -0.5q39 0 68 28t59 83l143 -74
q-49 -115 -120 -182.5t-154 -67.5q-74 0 -144 54q-5 3 -15 10.5t-13.5 10t-11 7.5l-10.5 7t-9 5t-9.5 4t-8.5 2.5t-9.5 2t-9.5 0.5q-40 0 -69 -28t-58 -83z" />
    <glyph glyph-name="Adieresis" unicode="&#xc4;" horiz-adv-x="1566" 
d="M674 1546l76 277h299l-76 -277h-299zM1112 1546l76 277h299l-76 -277h-299zM629 600h381l-66 473zM-117 0l1002 1444h303l227 -1444h-323l-45 322h-607l-217 -322h-340z" />
    <glyph glyph-name="Aring" unicode="&#xc5;" horiz-adv-x="1566" 
d="M629 600h381l-66 473zM1042 1462q60 0 100 48t40 112q0 44 -26.5 73t-72.5 29q-60 0 -99.5 -47.5t-39.5 -111.5q0 -44 26 -73.5t72 -29.5zM-117 0l983 1417q-53 59 -53 146q0 111 80 192.5t194 81.5q102 0 164 -60t62 -153q0 -68 -32 -127t-87 -98l221 -1399h-323
l-45 322h-607l-217 -322h-340z" />
    <glyph glyph-name="AE" unicode="&#xc6;" horiz-adv-x="2166" 
d="M696 600h336l150 561h-39zM-125 0l1157 1434h1254l-76 -281h-717l-78 -293h625l-76 -276h-625l-82 -303h730l-76 -281h-1041l86 322h-483l-256 -322h-342z" />
    <glyph glyph-name="Ccedilla" unicode="&#xc7;" horiz-adv-x="1486" 
d="M795 -25l-222 -329l-231 108l240 252q-204 58 -324.5 215t-120.5 379q0 113 31.5 222.5t87.5 203.5t136.5 174.5t176 137t209 88.5t232.5 32q386 0 573 -305l-260 -182q-68 98 -149 147t-203 49q-97 0 -189.5 -44.5t-162 -118.5t-112 -177t-42.5 -215q0 -154 97.5 -250
t252.5 -96q98 0 173 34.5t163 107.5l205 -213q-114 -106 -244 -163t-299 -57h-18z" />
    <glyph glyph-name="Egrave" unicode="&#xc8;" horiz-adv-x="1361" 
d="M877 1546l-195 246l274 117l134 -363h-213zM25 0l385 1434h1071l-76 -281h-758l-78 -293h666l-76 -276h-665l-82 -303h770l-76 -281h-1081z" />
    <glyph glyph-name="Eacute" unicode="&#xc9;" horiz-adv-x="1361" 
d="M743 1546l330 363l262 -117l-329 -246h-263zM25 0l385 1434h1071l-76 -281h-758l-78 -293h666l-76 -276h-665l-82 -303h770l-76 -281h-1081z" />
    <glyph glyph-name="Ecircumflex" unicode="&#xca;" horiz-adv-x="1361" 
d="M561 1546l338 322h295l166 -322h-225l-125 135l-199 -135h-250zM25 0l385 1434h1071l-76 -281h-758l-78 -293h666l-76 -276h-665l-82 -303h770l-76 -281h-1081z" />
    <glyph glyph-name="Edieresis" unicode="&#xcb;" horiz-adv-x="1361" 
d="M600 1546l76 277h299l-76 -277h-299zM1038 1546l76 277h299l-76 -277h-299zM25 0l385 1434h1071l-76 -281h-758l-78 -293h666l-76 -276h-665l-82 -303h770l-76 -281h-1081z" />
    <glyph glyph-name="Igrave" unicode="&#xcc;" horiz-adv-x="688" 
d="M537 1546l-195 246l274 117l134 -363h-213zM39 0l385 1434h315l-385 -1434h-315z" />
    <glyph glyph-name="Iacute" unicode="&#xcd;" horiz-adv-x="688" 
d="M430 1546l330 363l262 -117l-330 -246h-262zM39 0l385 1434h315l-385 -1434h-315z" />
    <glyph glyph-name="Icircumflex" unicode="&#xce;" horiz-adv-x="688" 
d="M188 1546l338 322h295l166 -322h-225l-125 135l-199 -135h-250zM39 0l385 1434h315l-385 -1434h-315z" />
    <glyph glyph-name="Idieresis" unicode="&#xcf;" horiz-adv-x="688" 
d="M240 1546l75 277h299l-75 -277h-299zM678 1546l76 277h299l-76 -277h-299zM39 0l385 1434h315l-385 -1434h-315z" />
    <glyph glyph-name="Eth" unicode="&#xd0;" horiz-adv-x="1632" 
d="M457 285h178q145 0 269.5 44.5t209.5 129.5q143 143 143 358q0 144 -83 227q-105 105 -330 105h-154l-78 -289h291l-76 -278h-290zM66 0l155 582h-170l76 278h170l154 574h417q377 0 562 -185q155 -155 155 -420q0 -330 -235 -565q-264 -264 -752 -264h-532z" />
    <glyph glyph-name="Ntilde" unicode="&#xd1;" horiz-adv-x="1609" 
d="M793 1532l-164 82q56 126 137 199t176 73q50 0 86 -14.5t76 -44.5q46 -33 65.5 -43t42.5 -10q44 0 78 30.5t66 89.5l164 -82q-56 -126 -137.5 -199t-176.5 -73q-50 0 -84.5 14.5t-77.5 44.5q-47 34 -66 44t-42 10q-44 0 -77.5 -30.5t-65.5 -90.5zM25 0l385 1434h290
l418 -912l246 912h311l-385 -1434h-268l-434 940l-252 -940h-311z" />
    <glyph glyph-name="Ograve" unicode="&#xd2;" 
d="M967 1546l-195 246l275 117l133 -363h-213zM829 266q87 0 167 32t139 86t103 123t66.5 145.5t22.5 150.5q0 164 -95 264t-269 100q-109 0 -204.5 -49t-158.5 -126.5t-99 -172t-36 -188.5q0 -165 95 -265t269 -100zM793 -25q-145 0 -268 49t-208 133.5t-132.5 201.5
t-47.5 251q0 127 39.5 251.5t116.5 231.5t180 189t239.5 129t286.5 47q145 0 268 -49t208 -133.5t132.5 -201.5t47.5 -251q0 -127 -39.5 -251.5t-116.5 -231.5t-180 -189t-239.5 -129t-286.5 -47z" />
    <glyph glyph-name="Oacute" unicode="&#xd3;" 
d="M848 1546l330 363l262 -117l-330 -246h-262zM829 266q87 0 167 32t139 86t103 123t66.5 145.5t22.5 150.5q0 164 -95 264t-269 100q-109 0 -204.5 -49t-158.5 -126.5t-99 -172t-36 -188.5q0 -165 95 -265t269 -100zM793 -25q-145 0 -268 49t-208 133.5t-132.5 201.5
t-47.5 251q0 127 39.5 251.5t116.5 231.5t180 189t239.5 129t286.5 47q145 0 268 -49t208 -133.5t132.5 -201.5t47.5 -251q0 -127 -39.5 -251.5t-116.5 -231.5t-180 -189t-239.5 -129t-286.5 -47z" />
    <glyph glyph-name="Ocircumflex" unicode="&#xd4;" 
d="M653 1546l338 322h295l166 -322h-225l-125 135l-199 -135h-250zM829 266q87 0 167 32t139 86t103 123t66.5 145.5t22.5 150.5q0 164 -95 264t-269 100q-109 0 -204.5 -49t-158.5 -126.5t-99 -172t-36 -188.5q0 -165 95 -265t269 -100zM793 -25q-145 0 -268 49t-208 133.5
t-132.5 201.5t-47.5 251q0 127 39.5 251.5t116.5 231.5t180 189t239.5 129t286.5 47q145 0 268 -49t208 -133.5t132.5 -201.5t47.5 -251q0 -127 -39.5 -251.5t-116.5 -231.5t-180 -189t-239.5 -129t-286.5 -47z" />
    <glyph glyph-name="Otilde" unicode="&#xd5;" 
d="M829 266q87 0 167 32t139 86t103 123t66.5 145.5t22.5 150.5q0 164 -95 264t-269 100q-109 0 -204.5 -49t-158.5 -126.5t-99 -172t-36 -188.5q0 -165 95 -265t269 -100zM793 -25q-145 0 -268 49t-208 133.5t-132.5 201.5t-47.5 251q0 127 39.5 251.5t116.5 231.5t180 189
t239.5 129t286.5 47q145 0 268 -49t208 -133.5t132.5 -201.5t47.5 -251q0 -127 -39.5 -251.5t-116.5 -231.5t-180 -189t-239.5 -129t-286.5 -47zM838 1544l-144 76q49 115 120.5 182.5t154.5 67.5q75 0 143 -55q6 -5 18.5 -14t17 -11.5t13 -8.5t12.5 -7.5t10.5 -4.5t12 -3.5
t12.5 -0.5q39 0 68 28t59 83l144 -74q-49 -115 -120.5 -182.5t-154.5 -67.5q-44 0 -75.5 13t-67.5 41q-5 3 -15 10.5t-13.5 10t-11 7.5l-10.5 7t-9 5t-9.5 4t-8.5 2.5t-9.5 2t-9.5 0.5q-40 0 -69 -28t-58 -83z" />
    <glyph glyph-name="Odieresis" unicode="&#xd6;" 
d="M700 1546l76 277h299l-76 -277h-299zM1139 1546l75 277h299l-75 -277h-299zM829 266q87 0 167 32t139 86t103 123t66.5 145.5t22.5 150.5q0 164 -95 264t-269 100q-109 0 -204.5 -49t-158.5 -126.5t-99 -172t-36 -188.5q0 -165 95 -265t269 -100zM793 -25q-145 0 -268 49
t-208 133.5t-132.5 201.5t-47.5 251q0 127 39.5 251.5t116.5 231.5t180 189t239.5 129t286.5 47q145 0 268 -49t208 -133.5t132.5 -201.5t47.5 -251q0 -127 -39.5 -251.5t-116.5 -231.5t-180 -189t-239.5 -129t-286.5 -47z" />
    <glyph glyph-name="Oslash" unicode="&#xd8;" 
d="M827 252q111 0 209.5 50.5t163 130.5t102 177.5t37.5 194.5q0 73 -22 147l-703 -647q89 -53 213 -53zM483 463l711 653q-91 66 -229 66q-111 0 -209.5 -51t-163 -131.5t-102 -178t-37.5 -192.5q0 -93 30 -166zM793 -25q-244 0 -418 131l-127 -116h-301l291 266
q-101 151 -101 354q0 127 39.5 251.5t116.5 231.5t180 189t239.5 129t286.5 47q253 0 433 -143l139 129h301l-307 -283q90 -146 90 -338q0 -127 -39.5 -251.5t-116.5 -231.5t-180 -189t-239.5 -129t-286.5 -47z" />
    <glyph glyph-name="Ugrave" unicode="&#xd9;" horiz-adv-x="1564" 
d="M948 1546l-194 246l274 117l133 -363h-213zM702 -23q-251 0 -393.5 128t-142.5 356q0 104 35 229l198 744h316l-207 -772q-23 -81 -23 -156q0 -109 65 -173.5t185 -64.5q138 0 234 90q92 92 139 267l217 809h315l-229 -854q-73 -278 -221 -426q-177 -177 -488 -177z" />
    <glyph glyph-name="Uacute" unicode="&#xda;" horiz-adv-x="1564" 
d="M856 1546l330 363l262 -117l-330 -246h-262zM702 -23q-251 0 -393.5 128t-142.5 356q0 104 35 229l198 744h316l-207 -772q-23 -81 -23 -156q0 -109 65 -173.5t185 -64.5q138 0 234 90q92 92 139 267l217 809h315l-229 -854q-73 -278 -221 -426q-177 -177 -488 -177z" />
    <glyph glyph-name="Ucircumflex" unicode="&#xdb;" horiz-adv-x="1564" 
d="M621 1546l337 322h295l166 -322h-225l-125 135l-199 -135h-249zM702 -23q-251 0 -393.5 128t-142.5 356q0 104 35 229l198 744h316l-207 -772q-23 -81 -23 -156q0 -109 65 -173.5t185 -64.5q138 0 234 90q92 92 139 267l217 809h315l-229 -854q-73 -278 -221 -426
q-177 -177 -488 -177z" />
    <glyph glyph-name="Udieresis" unicode="&#xdc;" horiz-adv-x="1564" 
d="M678 1546l76 277h299l-76 -277h-299zM1116 1546l76 277h299l-76 -277h-299zM702 -23q-251 0 -393.5 128t-142.5 356q0 104 35 229l198 744h316l-207 -772q-23 -81 -23 -156q0 -109 65 -173.5t185 -64.5q138 0 234 90q92 92 139 267l217 809h315l-229 -854
q-73 -278 -221 -426q-177 -177 -488 -177z" />
    <glyph glyph-name="Yacute" unicode="&#xdd;" horiz-adv-x="1331" 
d="M735 1546l330 363l262 -117l-330 -246h-262zM346 0l152 565l-297 869h350l168 -594l491 594h381l-784 -897l-145 -537h-316z" />
    <glyph glyph-name="Thorn" unicode="&#xde;" horiz-adv-x="1411" 
d="M475 502h215q161 0 255.5 67.5t94.5 188.5q0 72 -47 119q-63 63 -196 63h-205zM25 0l385 1434h315l-55 -209h139q156 0 265 -34.5t186 -111.5q110 -110 110 -295q0 -173 -93 -301.5t-249.5 -193t-353.5 -64.5h-273l-61 -225h-315z" />
    <glyph glyph-name="germandbls" unicode="&#xdf;" horiz-adv-x="1294" 
d="M465 -4l65 242q92 -4 159.5 12.5t105.5 48.5t55.5 71t17.5 85q0 148 -235 172l55 204q283 67 283 261q0 75 -46 115t-116 40q-172 0 -236 -233l-270 -1014h-309l276 1030q58 217 179 338q141 141 370 141q207 0 326 -109t119 -278q0 -146 -82.5 -244t-233.5 -147
q213 -91 213 -285q0 -100 -41.5 -183t-124.5 -145.5t-218.5 -95t-311.5 -26.5z" />
    <glyph glyph-name="agrave" unicode="&#xe0;" horiz-adv-x="1204" 
d="M711 1219l-195 245l275 117l133 -362h-213zM467 193q95 0 173 64t103 157l9 28q-93 39 -205 39q-99 0 -161 -46.5t-62 -125.5q0 -52 39 -84t104 -32zM334 -20q-141 0 -230.5 82.5t-89.5 211.5q0 185 133.5 290.5t339.5 105.5q165 0 310 -49l4 14q12 50 12 82
q0 129 -207 129q-148 0 -293 -60l-49 246q191 78 408 78q220 0 332 -87.5t112 -250.5q0 -72 -24 -166l-162 -606h-301l33 127q-135 -147 -328 -147z" />
    <glyph glyph-name="aacute" unicode="&#xe1;" horiz-adv-x="1204" 
d="M602 1219l330 362l262 -117l-330 -245h-262zM467 193q95 0 173 64t103 157l9 28q-93 39 -205 39q-99 0 -161 -46.5t-62 -125.5q0 -52 39 -84t104 -32zM334 -20q-141 0 -230.5 82.5t-89.5 211.5q0 185 133.5 290.5t339.5 105.5q165 0 310 -49l4 14q12 50 12 82
q0 129 -207 129q-148 0 -293 -60l-49 246q191 78 408 78q220 0 332 -87.5t112 -250.5q0 -72 -24 -166l-162 -606h-301l33 127q-135 -147 -328 -147z" />
    <glyph glyph-name="acircumflex" unicode="&#xe2;" horiz-adv-x="1204" 
d="M367 1219l338 321h294l166 -321h-225l-125 135l-199 -135h-249zM467 193q95 0 173 64t103 157l9 28q-93 39 -205 39q-99 0 -161 -46.5t-62 -125.5q0 -52 39 -84t104 -32zM334 -20q-141 0 -230.5 82.5t-89.5 211.5q0 185 133.5 290.5t339.5 105.5q165 0 310 -49l4 14
q12 50 12 82q0 129 -207 129q-148 0 -293 -60l-49 246q191 78 408 78q220 0 332 -87.5t112 -250.5q0 -72 -24 -166l-162 -606h-301l33 127q-135 -147 -328 -147z" />
    <glyph glyph-name="atilde" unicode="&#xe3;" horiz-adv-x="1204" 
d="M467 193q95 0 173 64t103 157l9 28q-93 39 -205 39q-99 0 -161 -46.5t-62 -125.5q0 -52 39 -84t104 -32zM334 -20q-141 0 -230.5 82.5t-89.5 211.5q0 185 133.5 290.5t339.5 105.5q165 0 310 -49l4 14q12 50 12 82q0 129 -207 129q-148 0 -293 -60l-49 246q191 78 408 78
q220 0 332 -87.5t112 -250.5q0 -72 -24 -166l-162 -606h-301l33 127q-135 -147 -328 -147zM561 1221l-143 75q49 115 120 182.5t154 67.5q76 0 144 -55q5 -3 15 -10.5t13.5 -10t11 -7.5l10.5 -7t9 -5t9.5 -4t8.5 -2.5t9.5 -2t9.5 -0.5q39 0 68 28t59 82l143 -73
q-49 -115 -120 -182.5t-154 -67.5q-75 0 -144 53q-5 3 -15 10.5t-13.5 10t-11 7.5l-10.5 7t-9 5t-9.5 4t-8.5 2.5t-9.5 2t-9.5 0.5q-40 0 -69 -27.5t-58 -82.5z" />
    <glyph glyph-name="adieresis" unicode="&#xe4;" horiz-adv-x="1204" 
d="M399 1219l76 276h299l-76 -276h-299zM838 1219l75 276h299l-75 -276h-299zM467 193q95 0 173 64t103 157l9 28q-93 39 -205 39q-99 0 -161 -46.5t-62 -125.5q0 -52 39 -84t104 -32zM334 -20q-141 0 -230.5 82.5t-89.5 211.5q0 185 133.5 290.5t339.5 105.5q165 0 310 -49
l4 14q12 50 12 82q0 129 -207 129q-148 0 -293 -60l-49 246q191 78 408 78q220 0 332 -87.5t112 -250.5q0 -72 -24 -166l-162 -606h-301l33 127q-135 -147 -328 -147z" />
    <glyph glyph-name="aring" unicode="&#xe5;" horiz-adv-x="1204" 
d="M805 1327q60 0 99.5 48t39.5 112q0 44 -26 73t-72 29q-60 0 -99.5 -47.5t-39.5 -111.5q0 -44 26 -73.5t72 -29.5zM801 1214q-102 0 -164 60t-62 153q0 111 80.5 193t194.5 82q102 0 163.5 -60t61.5 -153q0 -112 -80 -193.5t-194 -81.5zM467 193q95 0 173 64t103 157l9 28
q-93 39 -205 39q-99 0 -161 -46.5t-62 -125.5q0 -52 39 -84t104 -32zM334 -20q-141 0 -230.5 82.5t-89.5 211.5q0 185 133.5 290.5t339.5 105.5q165 0 310 -49l4 14q12 50 12 82q0 129 -207 129q-148 0 -293 -60l-49 246q191 78 408 78q220 0 332 -87.5t112 -250.5
q0 -72 -24 -166l-162 -606h-301l33 127q-135 -147 -328 -147z" />
    <glyph glyph-name="ae" unicode="&#xe6;" horiz-adv-x="1925" 
d="M791 426q-124 55 -244 55q-99 0 -161 -46.5t-62 -125.5q0 -53 42 -84.5t121 -31.5q75 0 163 37t153 102q-9 44 -12 94zM1085 635h478q10 38 10 72q0 72 -44 116.5t-136 44.5q-104 0 -186.5 -63.5t-121.5 -169.5zM856 186q-203 -206 -491 -206q-168 0 -259.5 79t-91.5 215
q0 185 133.5 290.5t339.5 105.5q165 0 310 -49l4 14q12 50 12 82q0 129 -207 129q-148 0 -293 -60l-49 246q191 78 408 78q268 0 360 -162q170 170 395 170q201 0 320 -120.5t119 -307.5q0 -116 -56 -250h-751q8 -102 69.5 -158.5t180.5 -56.5q117 0 243 88l144 -192
q-72 -66 -182 -106t-240 -40q-143 0 -250 53t-168 158z" />
    <glyph glyph-name="ccedilla" unicode="&#xe7;" horiz-adv-x="1146" 
d="M606 -25l-221 -329l-231 108l243 254q-145 55 -228 175.5t-83 287.5q0 175 88 324.5t237 236t322 86.5q311 0 451 -241l-238 -168q-31 47 -59 75.5t-73.5 48t-104.5 19.5q-124 0 -220 -114t-96 -267q0 -104 60.5 -167.5t154.5 -63.5q70 0 127 26t121 82l160 -203
q-94 -83 -188 -126t-222 -44z" />
    <glyph glyph-name="egrave" unicode="&#xe8;" horiz-adv-x="1243" 
d="M694 1219l-194 245l274 117l133 -362h-213zM403 635h478q10 38 10 72q0 72 -44 116.5t-136 44.5q-104 0 -186.5 -63.5t-121.5 -169.5zM1128 440h-751q8 -102 69.5 -158.5t180.5 -56.5q117 0 243 88l144 -192q-174 -146 -422 -146q-237 0 -372.5 130t-135.5 358
q0 120 47.5 237t130 210t207 150.5t266.5 57.5q210 0 329.5 -120t119.5 -308q0 -116 -56 -250z" />
    <glyph glyph-name="eacute" unicode="&#xe9;" horiz-adv-x="1243" 
d="M586 1219l329 362l263 -117l-330 -245h-262zM403 635h478q10 38 10 72q0 72 -44 116.5t-136 44.5q-104 0 -186.5 -63.5t-121.5 -169.5zM1128 440h-751q8 -102 69.5 -158.5t180.5 -56.5q117 0 243 88l144 -192q-174 -146 -422 -146q-237 0 -372.5 130t-135.5 358
q0 120 47.5 237t130 210t207 150.5t266.5 57.5q210 0 329.5 -120t119.5 -308q0 -116 -56 -250z" />
    <glyph glyph-name="ecircumflex" unicode="&#xea;" horiz-adv-x="1243" 
d="M375 1219l338 321h295l166 -321h-226l-125 135l-198 -135h-250zM403 635h478q10 38 10 72q0 72 -44 116.5t-136 44.5q-104 0 -186.5 -63.5t-121.5 -169.5zM1128 440h-751q8 -102 69.5 -158.5t180.5 -56.5q117 0 243 88l144 -192q-174 -146 -422 -146q-237 0 -372.5 130
t-135.5 358q0 120 47.5 237t130 210t207 150.5t266.5 57.5q210 0 329.5 -120t119.5 -308q0 -116 -56 -250z" />
    <glyph glyph-name="edieresis" unicode="&#xeb;" horiz-adv-x="1243" 
d="M414 1219l75 276h299l-75 -276h-299zM852 1219l76 276h299l-76 -276h-299zM403 635h478q10 38 10 72q0 72 -44 116.5t-136 44.5q-104 0 -186.5 -63.5t-121.5 -169.5zM1128 440h-751q8 -102 69.5 -158.5t180.5 -56.5q117 0 243 88l144 -192q-174 -146 -422 -146
q-237 0 -372.5 130t-135.5 358q0 120 47.5 237t130 210t207 150.5t266.5 57.5q210 0 329.5 -120t119.5 -308q0 -116 -56 -250z" />
    <glyph glyph-name="igrave" unicode="&#xec;" horiz-adv-x="618" 
d="M422 1219l-195 245l275 117l133 -362h-213zM6 0l295 1098h311l-295 -1098h-311z" />
    <glyph glyph-name="iacute" unicode="&#xed;" horiz-adv-x="618" 
d="M303 1219l330 362l262 -117l-330 -245h-262zM6 0l295 1098h311l-295 -1098h-311z" />
    <glyph glyph-name="icircumflex" unicode="&#xee;" horiz-adv-x="618" 
d="M76 1219l338 321h295l165 -321h-225l-125 135l-198 -135h-250zM6 0l295 1098h311l-295 -1098h-311z" />
    <glyph glyph-name="idieresis" unicode="&#xef;" horiz-adv-x="618" 
d="M115 1219l75 276h299l-75 -276h-299zM553 1219l76 276h299l-76 -276h-299zM6 0l295 1098h311l-295 -1098h-311z" />
    <glyph glyph-name="eth" unicode="&#xf0;" horiz-adv-x="1306" 
d="M604 238q126 0 210.5 91.5t84.5 211.5q0 104 -63.5 168.5t-167.5 64.5q-124 0 -208.5 -89t-84.5 -210q0 -110 64 -173.5t165 -63.5zM586 -25q-226 0 -367 133t-141 349q0 148 72.5 272t195.5 195t268 71q183 0 310 -121l-138 297l-276 -100l-74 154l281 102l-78 168h307
l33 -72l242 88l71 -153l-245 -90l77 -176q90 -209 90 -420q0 -116 -26.5 -220.5t-80 -191.5t-128 -150.5t-175.5 -99t-218 -35.5z" />
    <glyph glyph-name="ntilde" unicode="&#xf1;" horiz-adv-x="1267" 
d="M537 1204l-164 82q56 126 137 199.5t176 73.5q50 0 85.5 -15t76.5 -45q46 -33 65.5 -43t42.5 -10q44 0 78 31t66 90l164 -82q-56 -126 -137.5 -199.5t-176.5 -73.5q-49 0 -84 14.5t-78 45.5q-46 33 -65.5 43t-42.5 10q-44 0 -77.5 -30.5t-65.5 -90.5zM-6 0l293 1098h311
l-31 -115q150 135 299 135t236.5 -85.5t87.5 -233.5q0 -61 -37 -209l-158 -590h-311l162 602q14 54 14 98q0 66 -39.5 101t-111.5 35q-89 0 -150 -59t-88 -161l-166 -616h-311z" />
    <glyph glyph-name="ograve" unicode="&#xf2;" horiz-adv-x="1335" 
d="M717 1219l-195 245l275 117l133 -362h-213zM629 242q90 0 164.5 58t112.5 140t38 162q0 119 -64.5 184.5t-172.5 65.5q-68 0 -129 -34t-101 -87.5t-63 -116.5t-23 -122q0 -119 65 -184.5t173 -65.5zM614 -25q-241 0 -384.5 141.5t-143.5 366.5q0 163 84 309t231.5 236
t319.5 90q241 0 384.5 -141.5t143.5 -366.5q0 -121 -50.5 -237t-135 -203.5t-203 -141t-246.5 -53.5z" />
    <glyph glyph-name="oacute" unicode="&#xf3;" horiz-adv-x="1335" 
d="M588 1219l330 362l262 -117l-330 -245h-262zM629 242q90 0 164.5 58t112.5 140t38 162q0 119 -64.5 184.5t-172.5 65.5q-68 0 -129 -34t-101 -87.5t-63 -116.5t-23 -122q0 -119 65 -184.5t173 -65.5zM614 -25q-241 0 -384.5 141.5t-143.5 366.5q0 163 84 309t231.5 236
t319.5 90q241 0 384.5 -141.5t143.5 -366.5q0 -121 -50.5 -237t-135 -203.5t-203 -141t-246.5 -53.5z" />
    <glyph glyph-name="ocircumflex" unicode="&#xf4;" horiz-adv-x="1335" 
d="M385 1219l338 321h295l166 -321h-226l-124 135l-199 -135h-250zM629 242q90 0 164.5 58t112.5 140t38 162q0 119 -64.5 184.5t-172.5 65.5q-68 0 -129 -34t-101 -87.5t-63 -116.5t-23 -122q0 -119 65 -184.5t173 -65.5zM614 -25q-241 0 -384.5 141.5t-143.5 366.5
q0 163 84 309t231.5 236t319.5 90q241 0 384.5 -141.5t143.5 -366.5q0 -121 -50.5 -237t-135 -203.5t-203 -141t-246.5 -53.5z" />
    <glyph glyph-name="otilde" unicode="&#xf5;" horiz-adv-x="1335" 
d="M629 242q90 0 164.5 58t112.5 140t38 162q0 119 -64.5 184.5t-172.5 65.5q-68 0 -129 -34t-101 -87.5t-63 -116.5t-23 -122q0 -119 65 -184.5t173 -65.5zM614 -25q-241 0 -384.5 141.5t-143.5 366.5q0 163 84 309t231.5 236t319.5 90q241 0 384.5 -141.5t143.5 -366.5
q0 -121 -50.5 -237t-135 -203.5t-203 -141t-246.5 -53.5zM567 1221l-143 75q49 115 120 182.5t154 67.5q76 0 144 -55q5 -3 15 -10.5t13.5 -10t11 -7.5l10.5 -7t9 -5t9.5 -4t8.5 -2.5t9.5 -2t9.5 -0.5q39 0 68 28t59 82l143 -73q-49 -115 -120 -182.5t-154 -67.5
q-44 0 -75.5 13t-67.5 40q-57 41 -74 46q-11 3 -23 3q-40 0 -69 -27.5t-58 -82.5z" />
    <glyph glyph-name="odieresis" unicode="&#xf6;" horiz-adv-x="1335" 
d="M422 1219l76 276h299l-76 -276h-299zM860 1219l76 276h299l-76 -276h-299zM629 242q90 0 164.5 58t112.5 140t38 162q0 119 -64.5 184.5t-172.5 65.5q-68 0 -129 -34t-101 -87.5t-63 -116.5t-23 -122q0 -119 65 -184.5t173 -65.5zM614 -25q-241 0 -384.5 141.5
t-143.5 366.5q0 163 84 309t231.5 236t319.5 90q241 0 384.5 -141.5t143.5 -366.5q0 -121 -50.5 -237t-135 -203.5t-203 -141t-246.5 -53.5z" />
    <glyph glyph-name="oslash" unicode="&#xf8;" horiz-adv-x="1335" 
d="M621 231q73 0 137.5 35.5t106 91t65.5 120t24 124.5q0 53 -8 86l-463 -422q59 -35 138 -35zM387 420l455 414q-54 28 -127 28q-97 0 -176 -60.5t-118.5 -144t-39.5 -165.5q0 -38 6 -72zM614 -25q-205 0 -346 109l-104 -94h-273l259 233q-64 116 -64 260q0 163 84 309
t231.5 236t319.5 90q200 0 336 -102l100 92h273l-250 -227q69 -115 69 -271q0 -121 -50.5 -237t-135 -203.5t-203 -141t-246.5 -53.5z" />
    <glyph glyph-name="ugrave" unicode="&#xf9;" horiz-adv-x="1273" 
d="M754 1219l-195 245l275 117l133 -362h-213zM408 -20q-149 0 -236.5 85.5t-87.5 233.5q0 61 37 209l158 590h311l-162 -602q-14 -54 -14 -99q0 -66 39.5 -100.5t111.5 -34.5q89 0 150 58.5t88 160.5l166 617h311l-293 -1098h-311l31 115q-150 -135 -299 -135z" />
    <glyph glyph-name="uacute" unicode="&#xfa;" horiz-adv-x="1273" 
d="M612 1219l330 362l262 -117l-330 -245h-262zM408 -20q-149 0 -236.5 85.5t-87.5 233.5q0 61 37 209l158 590h311l-162 -602q-14 -54 -14 -99q0 -66 39.5 -100.5t111.5 -34.5q89 0 150 58.5t88 160.5l166 617h311l-293 -1098h-311l31 115q-150 -135 -299 -135z" />
    <glyph glyph-name="ucircumflex" unicode="&#xfb;" horiz-adv-x="1273" 
d="M399 1219l338 321h295l166 -321h-225l-125 135l-199 -135h-250zM408 -20q-149 0 -236.5 85.5t-87.5 233.5q0 61 37 209l158 590h311l-162 -602q-14 -54 -14 -99q0 -66 39.5 -100.5t111.5 -34.5q89 0 150 58.5t88 160.5l166 617h311l-293 -1098h-311l31 115
q-150 -135 -299 -135z" />
    <glyph glyph-name="udieresis" unicode="&#xfc;" horiz-adv-x="1273" 
d="M438 1219l76 276h299l-76 -276h-299zM877 1219l75 276h299l-75 -276h-299zM408 -20q-149 0 -236.5 85.5t-87.5 233.5q0 61 37 209l158 590h311l-162 -602q-14 -54 -14 -99q0 -66 39.5 -100.5t111.5 -34.5q89 0 150 58.5t88 160.5l166 617h311l-293 -1098h-311l31 115
q-150 -135 -299 -135z" />
    <glyph glyph-name="yacute" unicode="&#xfd;" horiz-adv-x="1212" 
d="M604 1219l330 362l262 -117l-330 -245h-262zM174 -334q-146 0 -256 76l166 225q57 -43 121 -43q37 0 63.5 14t57.5 54l-136 1106h318l51 -746l412 746h336l-680 -1125q-105 -167 -209 -237t-244 -70z" />
    <glyph glyph-name="thorn" unicode="&#xfe;" horiz-adv-x="1380" 
d="M649 242q129 0 227.5 111.5t98.5 273.5q0 108 -62.5 168.5t-167.5 60.5q-131 0 -231 -113t-100 -268q0 -104 65.5 -168.5t169.5 -64.5zM-94 -328l487 1823h312l-140 -516q77 70 149 104.5t160 34.5q185 0 303.5 -126.5t118.5 -344.5q0 -142 -51.5 -268t-135.5 -212.5
t-194 -136.5t-225 -50q-123 0 -204.5 46t-139.5 134l-129 -488h-311z" />
    <glyph glyph-name="ydieresis" unicode="&#xff;" horiz-adv-x="1212" 
d="M387 1219l76 276h299l-76 -276h-299zM825 1219l76 276h299l-76 -276h-299zM174 -334q-146 0 -256 76l166 225q57 -43 121 -43q37 0 63.5 14t57.5 54l-136 1106h318l51 -746l412 746h336l-680 -1125q-105 -167 -209 -237t-244 -70z" />
    <glyph glyph-name="Abreve" unicode="&#x102;" horiz-adv-x="1566" 
d="M1055 1542q-86 0 -151 26.5t-100 71.5t-48 101t-2 117v10h202q-2 -53 34.5 -88t105.5 -35q53 0 109 35t100 88h225q-70 -148 -201.5 -237t-273.5 -89zM629 600h381l-66 473zM-117 0l1002 1444h303l227 -1444h-323l-45 322h-607l-217 -322h-340z" />
    <glyph glyph-name="abreve" unicode="&#x103;" horiz-adv-x="1204" 
d="M467 193q95 0 173 64t103 157l9 28q-93 39 -205 39q-99 0 -161 -46.5t-62 -125.5q0 -52 39 -84t104 -32zM334 -20q-141 0 -230.5 82.5t-89.5 211.5q0 185 133.5 290.5t339.5 105.5q165 0 310 -49l4 14q12 50 12 82q0 129 -207 129q-148 0 -293 -60l-49 246q191 78 408 78
q220 0 332 -87.5t112 -250.5q0 -72 -24 -166l-162 -606h-301l33 127q-135 -147 -328 -147zM801 1214q-86 0 -151 26.5t-100 71.5t-48 101t-2 117v10h202q-2 -53 34.5 -88t105.5 -35q53 0 109 35t100 88h225q-70 -148 -201.5 -237t-273.5 -89z" />
    <glyph glyph-name="Dcroat" unicode="&#x110;" horiz-adv-x="1591" 
d="M59 594l76 270h121l154 570h417q377 0 562 -185q155 -155 155 -420q0 -330 -235 -565q-264 -264 -752 -264h-532l159 594h-125zM416 285h178q145 0 269.5 44.5t209.5 129.5q144 144 144 358q0 143 -84 227q-105 105 -330 105h-154l-78 -285h316l-76 -270h-311z" />
    <glyph glyph-name="dcroat" unicode="&#x111;" horiz-adv-x="1380" 
d="M504 -20q-185 0 -303.5 126.5t-118.5 344.5q0 142 51.5 268t135.5 212.5t194 136.5t225 50q123 0 204.5 -46t139.5 -134l72 270h-275l50 174h270l31 113h311l-31 -113h170l-49 -174h-166l-323 -1208h-312l33 119q-77 -70 -149 -104.5t-160 -34.5zM633 242
q131 0 231.5 113t100.5 268q0 104 -65.5 168.5t-170.5 64.5q-129 0 -227.5 -111.5t-98.5 -273.5q0 -108 62.5 -168.5t167.5 -60.5z" />
    <glyph glyph-name="Itilde" unicode="&#x128;" horiz-adv-x="688" 
d="M385 1544l-143 76q49 115 120 182.5t154 67.5q75 0 143 -55q5 -4 16.5 -12t15 -10.5t12 -8.5t12 -7.5t10 -4.5t10.5 -4t9.5 -2t11.5 -1q39 0 68 28t59 83l143 -74q-49 -115 -120 -182.5t-154 -67.5q-74 0 -144 54q-5 3 -15 10.5t-13.5 10t-11 7.5l-10.5 7t-9 5t-9.5 4
t-8.5 2.5t-9.5 2t-9.5 0.5q-40 0 -69 -28t-58 -83zM39 0l385 1434h315l-385 -1434h-315z" />
    <glyph glyph-name="itilde" unicode="&#x129;" horiz-adv-x="618" 
d="M6 0l295 1098h311l-295 -1098h-311zM254 1221l-143 75q49 115 120 182.5t154 67.5q75 0 143 -55q57 -41 74 -46q11 -3 23 -3q39 0 68 28t59 82l143 -73q-49 -115 -120 -182.5t-154 -67.5q-75 0 -144 53q-5 3 -15 10.5t-13.5 10t-11 7.5l-10.5 7t-9 5t-9.5 4t-8.5 2.5
t-9.5 2t-9.5 0.5q-40 0 -69 -27.5t-58 -82.5z" />
    <glyph glyph-name="dotlessi" unicode="&#x131;" horiz-adv-x="618" 
d="M6 0l295 1098h311l-295 -1098h-311z" />
    <glyph glyph-name="Lslash" unicode="&#x141;" horiz-adv-x="1345" 
d="M88 0l143 537l-165 -45l79 292l166 45l162 605h305l-137 -512l430 118l-78 -292l-430 -119l-92 -342h725l-78 -287h-1030z" />
    <glyph glyph-name="lslash" unicode="&#x142;" horiz-adv-x="735" 
d="M70 0l153 571l-166 -45l78 293l166 45l170 631h311l-145 -537l166 46l-78 -293l-166 -45l-178 -666h-311z" />
    <glyph glyph-name="OE" unicode="&#x152;" horiz-adv-x="2193" 
d="M879 285h92l233 864h-117q-145 0 -269.5 -44.5t-209.5 -129.5q-69 -69 -106 -162t-37 -197q0 -143 84 -227q104 -104 330 -104zM1937 0h-1083q-202 0 -338 49t-233 146q-146 146 -146 409q0 329 236 565q265 265 751 265h1188l-76 -281h-716l-78 -293h624l-75 -276h-625
l-82 -303h729z" />
    <glyph glyph-name="oe" unicode="&#x153;" horiz-adv-x="2105" 
d="M627 242q93 0 167.5 54t112 135t37.5 169q0 113 -64.5 182.5t-170.5 69.5q-93 0 -167.5 -54t-112.5 -135t-38 -169q0 -113 65 -182.5t171 -69.5zM1266 635h477q10 38 10 72q0 72 -44 116.5t-136 44.5q-104 0 -186 -63.5t-121 -169.5zM1991 440h-752q8 -102 69.5 -158.5
t180.5 -56.5q118 0 244 88l143 -192q-72 -66 -182 -106t-240 -40q-293 0 -407 201q-170 -201 -431 -201q-241 0 -385.5 142t-144.5 366q0 165 83.5 311t230 235t319.5 89q151 0 259 -57t165 -160q81 102 196 159.5t258 57.5q210 0 329.5 -120t119.5 -308q0 -118 -55 -250z
" />
    <glyph glyph-name="Scaron" unicode="&#x160;" horiz-adv-x="1302" 
d="M733 1546l-166 322h226l125 -135l198 135h250l-338 -322h-295zM604 -20q-418 0 -624 264l237 200q89 -95 185 -141.5t216 -46.5q97 0 158.5 41.5t61.5 108.5q0 53 -51 92t-193 96q-79 32 -134.5 63.5t-109 77.5t-81 107.5t-27.5 138.5q0 107 46 197t124 150t181.5 93
t217.5 33q337 0 537 -213l-218 -217q-87 79 -165.5 116.5t-178.5 37.5q-95 0 -151.5 -44t-56.5 -102q0 -55 48 -89t203 -99q81 -34 137.5 -66.5t107 -78.5t75.5 -106t25 -136q0 -146 -80.5 -256.5t-208.5 -165.5t-281 -55z" />
    <glyph glyph-name="scaron" unicode="&#x161;" horiz-adv-x="1024" 
d="M537 1219l-166 321h225l125 -135l199 135h249l-338 -321h-294zM444 -25q-132 0 -266.5 51t-226.5 148l180 186q147 -147 336 -147q62 0 96.5 24.5t34.5 71.5q0 29 -31.5 52t-95.5 51q-59 24 -100.5 44t-85.5 49.5t-71 60.5t-44.5 74t-17.5 93q0 168 120 276.5t320 108.5
q125 0 241.5 -45.5t190.5 -111.5l-168 -197q-148 117 -287 117q-57 0 -88.5 -25t-31.5 -68q0 -30 34 -55t111 -59q42 -19 62.5 -29t58.5 -31t58.5 -36.5t47.5 -40.5t40.5 -49t23.5 -57t10 -69q0 -177 -125.5 -282t-325.5 -105z" />
    <glyph glyph-name="Utilde" unicode="&#x168;" horiz-adv-x="1564" 
d="M793 1544l-144 76q49 115 120.5 182.5t154.5 67.5q75 0 143 -55q6 -5 18.5 -14t17 -11.5t13 -8.5t12.5 -7.5t10.5 -4.5t12 -3.5t12.5 -0.5q39 0 68 28t59 83l144 -74q-49 -115 -120.5 -182.5t-154.5 -67.5q-44 0 -75.5 13t-67.5 41q-5 3 -15 10.5t-13.5 10t-11 7.5
l-10.5 7t-9 5t-9.5 4t-8.5 2.5t-9.5 2t-9.5 0.5q-40 0 -69 -28t-58 -83zM702 -23q-251 0 -393.5 128t-142.5 356q0 104 35 229l198 744h316l-207 -772q-23 -81 -23 -156q0 -109 65 -173.5t185 -64.5q138 0 234 90q92 92 139 267l217 809h315l-229 -854q-73 -278 -221 -426
q-177 -177 -488 -177z" />
    <glyph glyph-name="utilde" unicode="&#x169;" horiz-adv-x="1273" 
d="M565 1221l-143 75q49 115 120 182.5t154 67.5q76 0 144 -55q5 -3 15 -10.5t13.5 -10t11 -7.5l10.5 -7t9 -5t9.5 -4t8.5 -2.5t9.5 -2t9.5 -0.5q39 0 68 28t59 82l143 -73q-49 -115 -120 -182.5t-154 -67.5q-75 0 -144 53q-5 3 -15 10.5t-13.5 10t-11 7.5l-10.5 7t-9 5
t-9.5 4t-8.5 2.5t-9.5 2t-9.5 0.5q-40 0 -69 -27.5t-58 -82.5zM408 -20q-149 0 -236.5 85.5t-87.5 233.5q0 61 37 209l158 590h311l-162 -602q-14 -54 -14 -99q0 -66 39.5 -100.5t111.5 -34.5q89 0 150 58.5t88 160.5l166 617h311l-293 -1098h-311l31 115
q-150 -135 -299 -135z" />
    <glyph glyph-name="Ydieresis" unicode="&#x178;" horiz-adv-x="1331" 
d="M526 1546l76 277h299l-76 -277h-299zM965 1546l75 277h299l-75 -277h-299zM346 0l152 565l-297 869h350l168 -594l491 594h381l-784 -897l-145 -537h-316z" />
    <glyph glyph-name="Zcaron" unicode="&#x17d;" horiz-adv-x="1411" 
d="M801 1546l-166 322h225l125 -135l199 135h250l-338 -322h-295zM-39 0l64 240l1007 917h-737l76 277h1163l-66 -240l-1007 -918h768l-74 -276h-1194z" />
    <glyph glyph-name="zcaron" unicode="&#x17e;" horiz-adv-x="1140" 
d="M573 1219l-165 321h225l125 -135l198 135h250l-338 -321h-295zM-55 0l59 219l719 627h-533l68 252h930l-60 -219l-720 -627h559l-68 -252h-954z" />
    <glyph glyph-name="florin" unicode="&#x192;" horiz-adv-x="1112" 
d="M125 -18q-99 0 -184 18l67 250q49 -12 96 -12q95 0 152 127l152 340h-148l70 256h192l78 176q137 315 418 315q153 0 250 -41l-68 -254q-67 33 -160 33q-60 0 -102 -36t-74 -107l-39 -86h246l-70 -256h-290l-193 -435q-69 -153 -167 -220.5t-226 -67.5z" />
    <glyph glyph-name="Ohorn" unicode="&#x1a0;" 
d="M793 -25q-145 0 -268 49t-208 133.5t-132.5 201.5t-47.5 251q0 127 39.5 251.5t116.5 231.5t180 189t239.5 129t286.5 47t269 -49q25 -10 69 -33q87 5 122 17t42 41q35 67 -2 204h293q6 -105 0 -145q-2 -33 -25 -102q-48 -131 -176 -205q-10 -6 -32 -17q34 -59 49 -96
q47 -115 47 -250q0 -127 -39.5 -251.5t-116.5 -231.5t-180 -189t-239.5 -129t-286.5 -47zM829 266q87 0 167 32t139 86t103 123t66.5 145.5t22.5 150.5q0 164 -95 264t-269 100q-109 0 -204.5 -49t-158.5 -126.5t-99 -172t-36 -188.5q0 -165 95 -265t269 -100z" />
    <glyph glyph-name="ohorn" unicode="&#x1a1;" horiz-adv-x="1335" 
d="M614 -25q-241 0 -384.5 141.5t-143.5 366.5q0 163 84 309t231.5 236t319.5 90q128 0 219 -39q50 -18 90 -45q57 5 92 17q33 12 43 41q35 67 -2 204h293q6 -105 0 -145q-3 -37 -24 -102q-48 -130 -177 -205q-21 -12 -47 -25q1 -1 2 -3t2 -3q37 -90 37 -203
q0 -121 -50.5 -237t-135 -203.5t-203 -141t-246.5 -53.5zM629 242q90 0 164.5 58t112.5 140t38 162q0 119 -64.5 184.5t-172.5 65.5q-68 0 -129 -34t-101 -87.5t-63 -116.5t-23 -122q0 -119 65 -184.5t173 -65.5z" />
    <glyph glyph-name="Uhorn" unicode="&#x1af;" horiz-adv-x="1646" 
d="M1599 1688h293q6 -106 0 -146q-3 -37 -24 -102q-48 -131 -176 -205q-50 -28 -119 -51l-162 -604q-73 -278 -221 -426q-177 -177 -488 -177q-251 0 -393.5 128t-142.5 356q0 104 35 229l198 744h316l-207 -772q-23 -81 -23 -156q0 -109 65 -173.5t185 -64.5q138 0 234 90
q92 92 139 267l217 809h201q2 0 33 8q33 12 43 41q34 67 -3 205z" />
    <glyph glyph-name="uhorn" unicode="&#x1b0;" horiz-adv-x="1357" 
d="M408 -20q-149 0 -236.5 85.5t-87.5 233.5q0 61 37 209l158 590h311l-162 -602q-14 -54 -14 -99q0 -66 39.5 -100.5t111.5 -34.5q89 0 150 58.5t88 160.5l166 617h178q42 3 63 12q33 12 43 41q35 68 -2 205h293q6 -106 0 -146q-3 -37 -24 -102q-48 -130 -177 -205
q-51 -30 -131 -53l-225 -850h-311l31 115q-150 -135 -299 -135z" />
    <glyph glyph-name="circumflex" unicode="&#x2c6;" horiz-adv-x="1024" 
d="M293 1219l338 321h295l166 -321h-226l-125 135l-198 -135h-250z" />
    <glyph glyph-name="caron" unicode="&#x2c7;" horiz-adv-x="1024" 
d="M537 1219l-166 321h225l125 -135l199 135h249l-338 -321h-294z" />
    <glyph glyph-name="breve" unicode="&#x2d8;" horiz-adv-x="1024" 
d="M735 1214q-169 0 -258.5 92.5t-89.5 223.5v10h213q5 -52 47 -87.5t111 -35.5q52 0 102 34.5t88 88.5h215q-49 -148 -167 -237t-261 -89z" />
    <glyph glyph-name="dotaccent" unicode="&#x2d9;" horiz-adv-x="1024" 
d="M541 1219l75 276h308l-76 -276h-307z" />
    <glyph glyph-name="ring" unicode="&#x2da;" horiz-adv-x="1024" 
d="M735 1327q60 0 99.5 48t39.5 112q0 44 -26 73t-72 29q-60 0 -99.5 -47.5t-39.5 -111.5q0 -44 26 -73.5t72 -29.5zM731 1214q-102 0 -163.5 60t-61.5 153q0 112 80 193.5t194 81.5q102 0 164 -60t62 -153q0 -111 -80.5 -193t-194.5 -82z" />
    <glyph glyph-name="ogonek" unicode="&#x2db;" horiz-adv-x="1024" 
d="M512 -199l-37 -137q-173 -13 -265.5 29.5t-92.5 134.5q0 84 78 192h213q-41 -71 -41 -122q0 -89 145 -97z" />
    <glyph glyph-name="tilde" unicode="&#x2dc;" horiz-adv-x="1024" 
d="M451 1204l-164 82q56 126 137 199.5t176 73.5q50 0 85.5 -15t76.5 -45q46 -33 65.5 -43t42.5 -10q44 0 78 31t66 90l164 -82q-56 -126 -137.5 -199.5t-176.5 -73.5q-49 0 -84 14.5t-78 45.5q-46 33 -65.5 43t-42.5 10q-44 0 -77.5 -30.5t-65.5 -90.5z" />
    <glyph glyph-name="hungarumlaut" unicode="&#x2dd;" horiz-adv-x="1024" 
d="M252 1219l326 362l231 -117l-330 -245h-227zM651 1219l330 362l231 -117l-333 -245h-228z" />
    <glyph glyph-name="Omega" unicode="&#x3a9;" horiz-adv-x="1683" 
d="M47 0l225 831h-131l72 267h129l14 59q46 181 157 266.5t288 85.5q128 0 213 -30l-68 -258q-67 26 -135 26q-120 0 -154 -119l-8 -30h264l-71 -267h-258l-226 -831h-311zM889 0l225 831h-131l72 267h129l14 59q84 352 444 352q128 0 213 -30l-67 -258q-67 26 -135 26
q-124 0 -154 -119l-8 -30h264l-72 -267h-258l-225 -831h-311z" />
    <glyph glyph-name="Omega" unicode="&#x2126;" horiz-adv-x="1683" 
d="M47 0l225 831h-131l72 267h129l14 59q46 181 157 266.5t288 85.5q128 0 213 -30l-68 -258q-67 26 -135 26q-120 0 -154 -119l-8 -30h264l-71 -267h-258l-226 -831h-311zM889 0l225 831h-131l72 267h129l14 59q84 352 444 352q128 0 213 -30l-67 -258q-67 26 -135 26
q-124 0 -154 -119l-8 -30h264l-72 -267h-258l-225 -831h-311z" />
    <glyph glyph-name="pi" unicode="&#x3c0;" horiz-adv-x="1699" 
d="M797 727h135q65 0 101 33t36 88q0 59 -37 90t-104 31h-131v-242zM621 336v788h323q140 0 221.5 -75t81.5 -199q0 -131 -91 -204t-228 -73h-131v-237h-176zM891 57q138 0 260.5 52.5t209 141.5t137 211t50.5 257q0 136 -50.5 257.5t-136.5 209t-207.5 139t-258.5 51.5
q-138 0 -260.5 -52.5t-209 -141t-137 -210.5t-50.5 -257q0 -136 50 -257.5t136 -209.5t208 -139.5t259 -51.5zM891 -25q-204 0 -374.5 100t-267.5 270t-97 370q0 149 58 286t156.5 237t236.5 160t292 60q153 0 290.5 -59t235.5 -158t155.5 -235.5t57.5 -286.5
q0 -149 -58 -286t-156.5 -237.5t-237 -160.5t-291.5 -60z" />
    <glyph glyph-name="uni1EA0" unicode="&#x1ea0;" horiz-adv-x="1566" 
d="M422 -408l72 271h292l-71 -271h-293zM629 600h381l-66 473zM-117 0l1002 1444h303l227 -1444h-323l-45 322h-607l-217 -322h-340z" />
    <glyph glyph-name="uni1EA1" unicode="&#x1ea1;" horiz-adv-x="1204" 
d="M221 -408l72 271h293l-72 -271h-293zM467 193q95 0 173 64t103 157l9 28q-93 39 -205 39q-99 0 -161 -46.5t-62 -125.5q0 -52 39 -84t104 -32zM334 -20q-141 0 -230.5 82.5t-89.5 211.5q0 185 133.5 290.5t339.5 105.5q165 0 310 -49l4 14q12 50 12 82q0 129 -207 129
q-148 0 -293 -60l-49 246q191 78 408 78q220 0 332 -87.5t112 -250.5q0 -72 -24 -166l-162 -606h-301l33 127q-135 -147 -328 -147z" />
    <glyph glyph-name="uni1EA2" unicode="&#x1ea2;" horiz-adv-x="1566" 
d="M989 1565l53 194q71 11 108.5 29t76.5 65q15 51 -37 58q-69 3 -135 -82l-127 82q143 172 319 168q105 -1 151 -62.5t15 -154.5q-32 -80 -94 -133t-133 -80l-41 -84h-156zM629 600h381l-66 473zM-117 0l1002 1444h303l227 -1444h-323l-45 322h-607l-217 -322h-340z" />
    <glyph glyph-name="uni1EA3" unicode="&#x1ea3;" horiz-adv-x="1204" 
d="M719 1217l53 194q70 11 107.5 29t76.5 65q15 51 -36 58q-70 3 -136 -82l-127 82q143 172 320 168q105 -1 151 -63t15 -155q-32 -80 -94.5 -132.5t-133.5 -80.5l-41 -83h-155zM467 193q95 0 173 64t103 157l9 28q-93 39 -205 39q-99 0 -161 -46.5t-62 -125.5q0 -52 39 -84
t104 -32zM334 -20q-141 0 -230.5 82.5t-89.5 211.5q0 185 133.5 290.5t339.5 105.5q165 0 310 -49l4 14q12 50 12 82q0 129 -207 129q-148 0 -293 -60l-49 246q191 78 408 78q220 0 332 -87.5t112 -250.5q0 -72 -24 -166l-162 -606h-301l33 127q-135 -147 -328 -147z" />
    <glyph glyph-name="uni1EA4" unicode="&#x1ea4;" horiz-adv-x="1566" 
d="M1395 1788l329 362l263 -116l-330 -246h-262zM645 1546l338 322h295l166 -322h-225l-125 135l-199 -135h-250zM629 600h381l-66 473zM-117 0l1002 1444h303l227 -1444h-323l-45 322h-607l-217 -322h-340z" />
    <glyph glyph-name="uni1EA5" unicode="&#x1ea5;" horiz-adv-x="1204" 
d="M1116 1460l330 363l262 -117l-330 -246h-262zM367 1219l338 321h294l166 -321h-225l-125 135l-199 -135h-249zM467 193q95 0 173 64t103 157l9 28q-93 39 -205 39q-99 0 -161 -46.5t-62 -125.5q0 -52 39 -84t104 -32zM334 -20q-141 0 -230.5 82.5t-89.5 211.5
q0 185 133.5 290.5t339.5 105.5q165 0 310 -49l4 14q12 50 12 82q0 129 -207 129q-148 0 -293 -60l-49 246q191 78 408 78q220 0 332 -87.5t112 -250.5q0 -72 -24 -166l-162 -606h-301l33 127q-135 -147 -328 -147z" />
    <glyph glyph-name="uni1EA6" unicode="&#x1ea6;" horiz-adv-x="1566" 
d="M1450 1788l-195 246l275 116l133 -362h-213zM645 1546l338 322h295l166 -322h-225l-125 135l-199 -135h-250zM629 600h381l-66 473zM-117 0l1002 1444h303l227 -1444h-323l-45 322h-607l-217 -322h-340z" />
    <glyph glyph-name="uni1EA7" unicode="&#x1ea7;" horiz-adv-x="1204" 
d="M1171 1460l-194 246l274 117l133 -363h-213zM367 1219l338 321h294l166 -321h-225l-125 135l-199 -135h-249zM467 193q95 0 173 64t103 157l9 28q-93 39 -205 39q-99 0 -161 -46.5t-62 -125.5q0 -52 39 -84t104 -32zM334 -20q-141 0 -230.5 82.5t-89.5 211.5
q0 185 133.5 290.5t339.5 105.5q165 0 310 -49l4 14q12 50 12 82q0 129 -207 129q-148 0 -293 -60l-49 246q191 78 408 78q220 0 332 -87.5t112 -250.5q0 -72 -24 -166l-162 -606h-301l33 127q-135 -147 -328 -147z" />
    <glyph glyph-name="uni1EA8" unicode="&#x1ea8;" horiz-adv-x="1566" 
d="M1389 1788l49 180q67 11 103 28.5t73 59.5q15 46 -35 53q-65 3 -129 -75l-121 75q42 48 82.5 80t80.5 47t70 20.5t72 8.5q99 -1 143 -58.5t15 -142.5q-29 -75 -89.5 -124.5t-127.5 -73.5l-39 -78h-147zM645 1546l338 322h295l166 -322h-225l-125 135l-199 -135h-250z
M629 600h381l-66 473zM-117 0l1002 1444h303l227 -1444h-323l-45 322h-607l-217 -322h-340z" />
    <glyph glyph-name="uni1EA9" unicode="&#x1ea9;" horiz-adv-x="1204" 
d="M1110 1460l49 180q66 11 102.5 28.5t73.5 60.5q15 46 -35 53q-64 3 -129 -76l-120 76q42 48 82.5 79.5t80.5 46.5t69.5 20.5t72.5 8.5q99 -1 142.5 -58t14.5 -142q-30 -75 -90 -125t-127 -74l-39 -78h-147zM367 1219l338 321h294l166 -321h-225l-125 135l-199 -135h-249z
M467 193q95 0 173 64t103 157l9 28q-93 39 -205 39q-99 0 -161 -46.5t-62 -125.5q0 -52 39 -84t104 -32zM334 -20q-141 0 -230.5 82.5t-89.5 211.5q0 185 133.5 290.5t339.5 105.5q165 0 310 -49l4 14q12 50 12 82q0 129 -207 129q-148 0 -293 -60l-49 246q191 78 408 78
q220 0 332 -87.5t112 -250.5q0 -72 -24 -166l-162 -606h-301l33 127q-135 -147 -328 -147z" />
    <glyph glyph-name="uni1EAA" unicode="&#x1eaa;" horiz-adv-x="1566" 
d="M913 1935l-143 76q49 115 120 182.5t154 67.5q76 0 144 -55q5 -3 15 -10.5t13.5 -10t11 -7.5l10.5 -7t9 -5t9.5 -4t8.5 -2.5t9.5 -2t9.5 -0.5q39 0 68 28t59 82l143 -74q-49 -115 -120 -182t-154 -67q-44 0 -75.5 13t-67.5 40q-57 41 -74 46q-11 3 -23 3q-40 0 -69 -28
t-58 -83zM645 1546l338 322h295l166 -322h-225l-125 135l-199 -135h-250zM629 600h381l-66 473zM-117 0l1002 1444h303l227 -1444h-323l-45 322h-607l-217 -322h-340z" />
    <glyph glyph-name="uni1EAB" unicode="&#x1eab;" horiz-adv-x="1204" 
d="M635 1608l-143 75q49 115 120 182.5t154 67.5q75 0 143 -55q57 -41 74 -46q11 -3 23 -3q39 0 68 28t59 82l143 -73q-49 -115 -120.5 -182.5t-154.5 -67.5q-44 0 -75.5 13t-67.5 40q-5 3 -15 10.5t-13.5 10t-11 7.5l-10.5 7t-9 5t-9.5 4t-8.5 2.5t-9.5 2t-9.5 0.5
q-40 0 -69 -27.5t-58 -82.5zM367 1219l338 321h294l166 -321h-225l-125 135l-199 -135h-249zM467 193q95 0 173 64t103 157l9 28q-93 39 -205 39q-99 0 -161 -46.5t-62 -125.5q0 -52 39 -84t104 -32zM334 -20q-141 0 -230.5 82.5t-89.5 211.5q0 185 133.5 290.5t339.5 105.5
q165 0 310 -49l4 14q12 50 12 82q0 129 -207 129q-148 0 -293 -60l-49 246q191 78 408 78q220 0 332 -87.5t112 -250.5q0 -72 -24 -166l-162 -606h-301l33 127q-135 -147 -328 -147z" />
    <glyph glyph-name="uni1EAC" unicode="&#x1eac;" horiz-adv-x="1566" 
d="M422 -408l72 271h292l-71 -271h-293zM645 1546l338 322h295l166 -322h-225l-125 135l-199 -135h-250zM629 600h381l-66 473zM-117 0l1002 1444h303l227 -1444h-323l-45 322h-607l-217 -322h-340z" />
    <glyph glyph-name="uni1EAD" unicode="&#x1ead;" horiz-adv-x="1204" 
d="M221 -408l72 271h293l-72 -271h-293zM367 1219l338 321h294l166 -321h-225l-125 135l-199 -135h-249zM467 193q95 0 173 64t103 157l9 28q-93 39 -205 39q-99 0 -161 -46.5t-62 -125.5q0 -52 39 -84t104 -32zM334 -20q-141 0 -230.5 82.5t-89.5 211.5q0 185 133.5 290.5
t339.5 105.5q165 0 310 -49l4 14q12 50 12 82q0 129 -207 129q-148 0 -293 -60l-49 246q191 78 408 78q220 0 332 -87.5t112 -250.5q0 -72 -24 -166l-162 -606h-301l33 127q-135 -147 -328 -147z" />
    <glyph glyph-name="uni1EAE" unicode="&#x1eae;" horiz-adv-x="1566" 
d="M993 1868l316 362l262 -116l-330 -246h-248zM1055 1542q-86 0 -151 26.5t-100 71.5t-48 101t-2 117v10h202q-2 -53 34.5 -88t105.5 -35q53 0 109 35t100 88h225q-70 -148 -201.5 -237t-273.5 -89zM629 600h381l-66 473zM-117 0l1002 1444h303l227 -1444h-323l-45 322
h-607l-217 -322h-340z" />
    <glyph glyph-name="uni1EAF" unicode="&#x1eaf;" horiz-adv-x="1204" 
d="M739 1540l316 363l262 -117l-330 -246h-248zM467 193q95 0 173 64t103 157l9 28q-93 39 -205 39q-99 0 -161 -46.5t-62 -125.5q0 -52 39 -84t104 -32zM334 -20q-141 0 -230.5 82.5t-89.5 211.5q0 185 133.5 290.5t339.5 105.5q165 0 310 -49l4 14q12 50 12 82
q0 129 -207 129q-148 0 -293 -60l-49 246q191 78 408 78q220 0 332 -87.5t112 -250.5q0 -72 -24 -166l-162 -606h-301l33 127q-135 -147 -328 -147zM801 1214q-86 0 -151 26.5t-100 71.5t-48 101t-2 117v10h202q-2 -53 34.5 -88t105.5 -35q53 0 109 35t100 88h225
q-70 -148 -201.5 -237t-273.5 -89z" />
    <glyph glyph-name="uni1EB0" unicode="&#x1eb0;" horiz-adv-x="1566" 
d="M1036 1868l-209 246l275 116l133 -362h-199zM1055 1542q-86 0 -151 26.5t-100 71.5t-48 101t-2 117v10h202q-2 -53 34.5 -88t105.5 -35q53 0 109 35t100 88h225q-70 -148 -201.5 -237t-273.5 -89zM629 600h381l-66 473zM-117 0l1002 1444h303l227 -1444h-323l-45 322
h-607l-217 -322h-340z" />
    <glyph glyph-name="uni1EB1" unicode="&#x1eb1;" horiz-adv-x="1204" 
d="M782 1540l-209 246l275 117l133 -363h-199zM467 193q95 0 173 64t103 157l9 28q-93 39 -205 39q-99 0 -161 -46.5t-62 -125.5q0 -52 39 -84t104 -32zM334 -20q-141 0 -230.5 82.5t-89.5 211.5q0 185 133.5 290.5t339.5 105.5q165 0 310 -49l4 14q12 50 12 82
q0 129 -207 129q-148 0 -293 -60l-49 246q191 78 408 78q220 0 332 -87.5t112 -250.5q0 -72 -24 -166l-162 -606h-301l33 127q-135 -147 -328 -147zM801 1214q-86 0 -151 26.5t-100 71.5t-48 101t-2 117v10h202q-2 -53 34.5 -88t105.5 -35q53 0 109 35t100 88h225
q-70 -148 -201.5 -237t-273.5 -89z" />
    <glyph glyph-name="uni1EB2" unicode="&#x1eb2;" horiz-adv-x="1566" 
d="M1040 1870l50 180q67 11 103 28.5t73 59.5q15 46 -35 53q-65 3 -129 -75l-121 75q42 48 82.5 80t80.5 47t70 20.5t72 8.5q99 -1 143 -58.5t15 -142.5q-29 -75 -89.5 -124.5t-127.5 -73.5l-39 -78h-148zM1055 1542q-86 0 -151 26.5t-100 71.5t-48 101t-2 117v10h202
q-2 -53 34.5 -88t105.5 -35q53 0 109 35t100 88h225q-70 -148 -201.5 -237t-273.5 -89zM629 600h381l-66 473zM-117 0l1002 1444h303l227 -1444h-323l-45 322h-607l-217 -322h-340z" />
    <glyph glyph-name="uni1EB3" unicode="&#x1eb3;" horiz-adv-x="1204" 
d="M786 1542l50 180q67 11 103 28.5t73 59.5q15 47 -35 54q-64 3 -129 -76l-121 76q42 48 82.5 79.5t80.5 46.5t69.5 20.5t72.5 8.5q99 -1 143 -58t15 -142q-30 -75 -90 -125t-127 -74l-39 -78h-148zM467 193q95 0 173 64t103 157l9 28q-93 39 -205 39q-99 0 -161 -46.5
t-62 -125.5q0 -52 39 -84t104 -32zM334 -20q-141 0 -230.5 82.5t-89.5 211.5q0 185 133.5 290.5t339.5 105.5q165 0 310 -49l4 14q12 50 12 82q0 129 -207 129q-148 0 -293 -60l-49 246q191 78 408 78q220 0 332 -87.5t112 -250.5q0 -72 -24 -166l-162 -606h-301l33 127
q-135 -147 -328 -147zM801 1214q-86 0 -151 26.5t-100 71.5t-48 101t-2 117v10h202q-2 -53 34.5 -88t105.5 -35q53 0 109 35t100 88h225q-70 -148 -201.5 -237t-273.5 -89z" />
    <glyph glyph-name="uni1EB4" unicode="&#x1eb4;" horiz-adv-x="1566" 
d="M926 1935l-144 76q49 115 120.5 182.5t154.5 67.5q75 0 143 -55q5 -3 15 -10.5t13.5 -10t11 -7.5l10.5 -7t9 -5t9.5 -4t8.5 -2.5t9.5 -2t9.5 -0.5q39 0 68 28t59 82l144 -74q-49 -115 -120.5 -182t-154.5 -67q-44 0 -75.5 13t-67.5 40q-5 3 -15 10.5t-13.5 10t-11 7.5
l-10.5 7t-9 5t-9.5 4t-8.5 2.5t-9.5 2t-9.5 0.5q-40 0 -69 -28t-58 -83zM1055 1542q-86 0 -151 26.5t-100 71.5t-48 101t-2 117v10h202q-2 -53 34.5 -88t105.5 -35q53 0 109 35t100 88h225q-70 -148 -201.5 -237t-273.5 -89zM629 600h381l-66 473zM-117 0l1002 1444h303
l227 -1444h-323l-45 322h-607l-217 -322h-340z" />
    <glyph glyph-name="uni1EB5" unicode="&#x1eb5;" horiz-adv-x="1204" 
d="M674 1610l-144 76q49 115 120.5 182t154.5 67q75 0 143 -55q5 -3 15 -10.5t13.5 -10t11 -7.5l10.5 -7t9 -5t9.5 -4t8.5 -2.5t9.5 -2t9.5 -0.5q39 0 68 28t59 83l144 -74q-49 -115 -120.5 -182.5t-154.5 -67.5q-44 0 -75.5 13t-67.5 40q-5 3 -15 10.5t-13.5 10t-11 7.5
l-10.5 7t-9 5t-9.5 4t-8.5 2.5t-9.5 2t-9.5 0.5q-40 0 -69 -27.5t-58 -82.5zM467 193q95 0 173 64t103 157l9 28q-93 39 -205 39q-99 0 -161 -46.5t-62 -125.5q0 -52 39 -84t104 -32zM334 -20q-141 0 -230.5 82.5t-89.5 211.5q0 185 133.5 290.5t339.5 105.5q165 0 310 -49
l4 14q12 50 12 82q0 129 -207 129q-148 0 -293 -60l-49 246q191 78 408 78q220 0 332 -87.5t112 -250.5q0 -72 -24 -166l-162 -606h-301l33 127q-135 -147 -328 -147zM801 1214q-86 0 -151 26.5t-100 71.5t-48 101t-2 117v10h202q-2 -53 34.5 -88t105.5 -35q53 0 109 35
t100 88h225q-70 -148 -201.5 -237t-273.5 -89z" />
    <glyph glyph-name="uni1EB6" unicode="&#x1eb6;" horiz-adv-x="1566" 
d="M422 -408l72 271h292l-71 -271h-293zM1055 1542q-86 0 -151 26.5t-100 71.5t-48 101t-2 117v10h202q-2 -53 34.5 -88t105.5 -35q53 0 109 35t100 88h225q-70 -148 -201.5 -237t-273.5 -89zM629 600h381l-66 473zM-117 0l1002 1444h303l227 -1444h-323l-45 322h-607
l-217 -322h-340z" />
    <glyph glyph-name="uni1EB7" unicode="&#x1eb7;" horiz-adv-x="1204" 
d="M221 -408l72 271h293l-72 -271h-293zM467 193q95 0 173 64t103 157l9 28q-93 39 -205 39q-99 0 -161 -46.5t-62 -125.5q0 -52 39 -84t104 -32zM334 -20q-141 0 -230.5 82.5t-89.5 211.5q0 185 133.5 290.5t339.5 105.5q165 0 310 -49l4 14q12 50 12 82q0 129 -207 129
q-148 0 -293 -60l-49 246q191 78 408 78q220 0 332 -87.5t112 -250.5q0 -72 -24 -166l-162 -606h-301l33 127q-135 -147 -328 -147zM801 1214q-86 0 -151 26.5t-100 71.5t-48 101t-2 117v10h202q-2 -53 34.5 -88t105.5 -35q53 0 109 35t100 88h225q-70 -148 -201.5 -237
t-273.5 -89z" />
    <glyph glyph-name="uni1EB8" unicode="&#x1eb8;" horiz-adv-x="1361" 
d="M311 -408l72 271h293l-72 -271h-293zM25 0l385 1434h1071l-76 -281h-758l-78 -293h666l-76 -276h-665l-82 -303h770l-76 -281h-1081z" />
    <glyph glyph-name="uni1EB9" unicode="&#x1eb9;" horiz-adv-x="1243" 
d="M322 -408l71 271h293l-72 -271h-292zM403 635h478q10 38 10 72q0 72 -44 116.5t-136 44.5q-104 0 -186.5 -63.5t-121.5 -169.5zM1128 440h-751q8 -102 69.5 -158.5t180.5 -56.5q117 0 243 88l144 -192q-174 -146 -422 -146q-237 0 -372.5 130t-135.5 358q0 120 47.5 237
t130 210t207 150.5t266.5 57.5q210 0 329.5 -120t119.5 -308q0 -116 -56 -250z" />
    <glyph glyph-name="uni1EBA" unicode="&#x1eba;" horiz-adv-x="1361" 
d="M877 1565l53 194q70 11 107.5 29t76.5 65q15 51 -37 58q-69 3 -135 -82l-127 82q143 172 320 168q105 -1 150.5 -62.5t14.5 -154.5q-32 -80 -94 -133t-133 -80l-41 -84h-155zM25 0l385 1434h1071l-76 -281h-758l-78 -293h666l-76 -276h-665l-82 -303h770l-76 -281h-1081z
" />
    <glyph glyph-name="uni1EBB" unicode="&#x1ebb;" horiz-adv-x="1243" 
d="M731 1217l53 194q71 11 108.5 29t76.5 65q15 51 -37 58q-69 3 -135 -82l-127 82q143 172 319 168q105 -1 151 -63t15 -155q-32 -80 -94 -133t-133 -80l-41 -83h-156zM403 635h478q10 38 10 72q0 72 -44 116.5t-136 44.5q-104 0 -186.5 -63.5t-121.5 -169.5zM1128 440
h-751q8 -102 69.5 -158.5t180.5 -56.5q117 0 243 88l144 -192q-174 -146 -422 -146q-237 0 -372.5 130t-135.5 358q0 120 47.5 237t130 210t207 150.5t266.5 57.5q210 0 329.5 -120t119.5 -308q0 -116 -56 -250z" />
    <glyph glyph-name="uni1EBC" unicode="&#x1ebc;" horiz-adv-x="1361" 
d="M729 1544l-143 76q49 115 120 182.5t154 67.5q76 0 144 -55q6 -5 18.5 -14t17 -11.5t13 -8.5t12.5 -7.5t10.5 -4.5t12 -3.5t12.5 -0.5q39 0 68 28t59 83l143 -74q-49 -115 -120 -182.5t-154 -67.5q-74 0 -144 54q-5 3 -15 10.5t-13.5 10t-11 7.5l-10.5 7t-9 5t-9.5 4
t-8.5 2.5t-9.5 2t-9.5 0.5q-40 0 -69 -28t-58 -83zM25 0l385 1434h1071l-76 -281h-758l-78 -293h666l-76 -276h-665l-82 -303h770l-76 -281h-1081z" />
    <glyph glyph-name="uni1EBD" unicode="&#x1ebd;" horiz-adv-x="1243" 
d="M571 1221l-143 75q49 115 120 182.5t154 67.5q76 0 144 -55q5 -3 15 -10.5t13.5 -10t11 -7.5l10.5 -7t9 -5t9.5 -4t8.5 -2.5t9.5 -2t9.5 -0.5q39 0 68 28t59 82l143 -73q-49 -115 -120 -182.5t-154 -67.5q-44 0 -75.5 13t-67.5 40q-57 41 -74 46q-11 3 -23 3
q-40 0 -69 -27.5t-58 -82.5zM403 635h478q10 38 10 72q0 72 -44 116.5t-136 44.5q-104 0 -186.5 -63.5t-121.5 -169.5zM1128 440h-751q8 -102 69.5 -158.5t180.5 -56.5q117 0 243 88l144 -192q-174 -146 -422 -146q-237 0 -372.5 130t-135.5 358q0 120 47.5 237t130 210
t207 150.5t266.5 57.5q210 0 329.5 -120t119.5 -308q0 -116 -56 -250z" />
    <glyph glyph-name="uni1EBE" unicode="&#x1ebe;" horiz-adv-x="1361" 
d="M1313 1788l329 362l263 -116l-330 -246h-262zM561 1546l338 322h295l166 -322h-225l-125 135l-199 -135h-250zM25 0l385 1434h1071l-76 -281h-758l-78 -293h666l-76 -276h-665l-82 -303h770l-76 -281h-1081z" />
    <glyph glyph-name="uni1EBF" unicode="&#x1ebf;" horiz-adv-x="1243" 
d="M1124 1460l330 363l262 -117l-330 -246h-262zM375 1219l338 321h295l166 -321h-226l-125 135l-198 -135h-250zM403 635h478q10 38 10 72q0 72 -44 116.5t-136 44.5q-104 0 -186.5 -63.5t-121.5 -169.5zM1128 440h-751q8 -102 69.5 -158.5t180.5 -56.5q117 0 243 88
l144 -192q-174 -146 -422 -146q-237 0 -372.5 130t-135.5 358q0 120 47.5 237t130 210t207 150.5t266.5 57.5q210 0 329.5 -120t119.5 -308q0 -116 -56 -250z" />
    <glyph glyph-name="uni1EC0" unicode="&#x1ec0;" horiz-adv-x="1361" 
d="M1366 1788l-195 246l275 116l133 -362h-213zM561 1546l338 322h295l166 -322h-225l-125 135l-199 -135h-250zM25 0l385 1434h1071l-76 -281h-758l-78 -293h666l-76 -276h-665l-82 -303h770l-76 -281h-1081z" />
    <glyph glyph-name="uni1EC1" unicode="&#x1ec1;" horiz-adv-x="1243" 
d="M1180 1460l-195 246l275 117l133 -363h-213zM375 1219l338 321h295l166 -321h-226l-125 135l-198 -135h-250zM403 635h478q10 38 10 72q0 72 -44 116.5t-136 44.5q-104 0 -186.5 -63.5t-121.5 -169.5zM1128 440h-751q8 -102 69.5 -158.5t180.5 -56.5q117 0 243 88
l144 -192q-174 -146 -422 -146q-237 0 -372.5 130t-135.5 358q0 120 47.5 237t130 210t207 150.5t266.5 57.5q210 0 329.5 -120t119.5 -308q0 -116 -56 -250z" />
    <glyph glyph-name="uni1EC2" unicode="&#x1ec2;" horiz-adv-x="1361" 
d="M1305 1788l49 180q67 11 103 28.5t73 59.5q15 46 -35 53q-65 3 -129 -75l-121 75q42 48 82.5 80t80.5 47t70 20.5t72 8.5q99 -1 143 -58.5t15 -142.5q-29 -75 -89.5 -124.5t-127.5 -73.5l-39 -78h-147zM561 1546l338 322h295l166 -322h-225l-125 135l-199 -135h-250z
M25 0l385 1434h1071l-76 -281h-758l-78 -293h666l-76 -276h-665l-82 -303h770l-76 -281h-1081z" />
    <glyph glyph-name="uni1EC3" unicode="&#x1ec3;" horiz-adv-x="1243" 
d="M1118 1460l49 180q66 11 102.5 28.5t73.5 60.5q15 46 -34 53q-64 3 -129 -76l-121 76q42 48 82.5 79.5t80.5 46.5t69.5 20.5t72.5 8.5q99 -1 143 -58t15 -142q-30 -75 -90 -125t-127 -74l-39 -78h-148zM375 1219l338 321h295l166 -321h-226l-125 135l-198 -135h-250z
M403 635h478q10 38 10 72q0 72 -44 116.5t-136 44.5q-104 0 -186.5 -63.5t-121.5 -169.5zM1128 440h-751q8 -102 69.5 -158.5t180.5 -56.5q117 0 243 88l144 -192q-174 -146 -422 -146q-237 0 -372.5 130t-135.5 358q0 120 47.5 237t130 210t207 150.5t266.5 57.5
q210 0 329.5 -120t119.5 -308q0 -116 -56 -250z" />
    <glyph glyph-name="uni1EC4" unicode="&#x1ec4;" horiz-adv-x="1361" 
d="M829 1935l-143 76q49 115 120.5 182.5t154.5 67.5q75 0 143 -55q5 -3 15 -10.5t13.5 -10t11 -7.5l10.5 -7t9 -5t9.5 -4t8.5 -2.5t9.5 -2t9.5 -0.5q39 0 68 28t59 82l143 -74q-49 -115 -120 -182t-154 -67q-44 0 -75.5 13t-67.5 40q-57 41 -74 46q-11 3 -23 3
q-40 0 -69 -28t-58 -83zM561 1546l338 322h295l166 -322h-225l-125 135l-199 -135h-250zM25 0l385 1434h1071l-76 -281h-758l-78 -293h666l-76 -276h-665l-82 -303h770l-76 -281h-1081z" />
    <glyph glyph-name="uni1EC5" unicode="&#x1ec5;" horiz-adv-x="1243" 
d="M643 1608l-143 75q49 115 120 182.5t154 67.5q76 0 144 -55q5 -3 15 -10.5t13.5 -10t11 -7.5l10.5 -7t9 -5t9.5 -4t8.5 -2.5t9.5 -2t9.5 -0.5q39 0 68 28t59 82l143 -73q-49 -115 -120 -182.5t-154 -67.5q-75 0 -144 53q-5 3 -15 10.5t-13.5 10t-11 7.5l-10.5 7t-9 5
t-9.5 4t-8.5 2.5t-9.5 2t-9.5 0.5q-40 0 -69 -27.5t-58 -82.5zM375 1219l338 321h295l166 -321h-226l-125 135l-198 -135h-250zM403 635h478q10 38 10 72q0 72 -44 116.5t-136 44.5q-104 0 -186.5 -63.5t-121.5 -169.5zM1128 440h-751q8 -102 69.5 -158.5t180.5 -56.5
q117 0 243 88l144 -192q-174 -146 -422 -146q-237 0 -372.5 130t-135.5 358q0 120 47.5 237t130 210t207 150.5t266.5 57.5q210 0 329.5 -120t119.5 -308q0 -116 -56 -250z" />
    <glyph glyph-name="uni1EC6" unicode="&#x1ec6;" horiz-adv-x="1361" 
d="M311 -408l72 271h293l-72 -271h-293zM561 1546l338 322h295l166 -322h-225l-125 135l-199 -135h-250zM25 0l385 1434h1071l-76 -281h-758l-78 -293h666l-76 -276h-665l-82 -303h770l-76 -281h-1081z" />
    <glyph glyph-name="uni1EC7" unicode="&#x1ec7;" horiz-adv-x="1243" 
d="M322 -408l71 271h293l-72 -271h-292zM375 1219l338 321h295l166 -321h-226l-125 135l-198 -135h-250zM403 635h478q10 38 10 72q0 72 -44 116.5t-136 44.5q-104 0 -186.5 -63.5t-121.5 -169.5zM1128 440h-751q8 -102 69.5 -158.5t180.5 -56.5q117 0 243 88l144 -192
q-174 -146 -422 -146q-237 0 -372.5 130t-135.5 358q0 120 47.5 237t130 210t207 150.5t266.5 57.5q210 0 329.5 -120t119.5 -308q0 -116 -56 -250z" />
    <glyph glyph-name="uni1EC8" unicode="&#x1ec8;" horiz-adv-x="688" 
d="M530 1565l54 194q70 11 107.5 29t76.5 65q15 51 -37 58q-69 3 -135 -82l-127 82q143 172 319 168q105 -1 151 -62.5t15 -154.5q-32 -80 -94 -133t-133 -80l-41 -84h-156zM39 0l385 1434h315l-385 -1434h-315z" />
    <glyph glyph-name="uni1EC9" unicode="&#x1ec9;" horiz-adv-x="618" 
d="M6 0l295 1098h311l-295 -1098h-311zM408 1217l53 194q70 11 107.5 29t76.5 65q15 51 -37 58q-69 3 -135 -82l-127 82q143 172 320 168q105 -1 150.5 -63t14.5 -155q-32 -80 -94 -133t-133 -80l-41 -83h-155z" />
    <glyph glyph-name="uni1ECA" unicode="&#x1eca;" horiz-adv-x="688" 
d="M-53 -408l71 271h293l-71 -271h-293zM39 0l385 1434h315l-385 -1434h-315z" />
    <glyph glyph-name="uni1ECB" unicode="&#x1ecb;" horiz-adv-x="618" 
d="M-88 -408l72 271h292l-71 -271h-293zM6 0l295 1098h311l-295 -1098h-311zM326 1219l75 276h328l-76 -276h-327z" />
    <glyph glyph-name="uni1ECC" unicode="&#x1ecc;" 
d="M522 -408l72 271h293l-72 -271h-293zM829 266q87 0 167 32t139 86t103 123t66.5 145.5t22.5 150.5q0 164 -95 264t-269 100q-109 0 -204.5 -49t-158.5 -126.5t-99 -172t-36 -188.5q0 -165 95 -265t269 -100zM793 -25q-145 0 -268 49t-208 133.5t-132.5 201.5t-47.5 251
q0 127 39.5 251.5t116.5 231.5t180 189t239.5 129t286.5 47q145 0 268 -49t208 -133.5t132.5 -201.5t47.5 -251q0 -127 -39.5 -251.5t-116.5 -231.5t-180 -189t-239.5 -129t-286.5 -47z" />
    <glyph glyph-name="uni1ECD" unicode="&#x1ecd;" horiz-adv-x="1335" 
d="M334 -408l72 271h292l-71 -271h-293zM629 242q90 0 164.5 58t112.5 140t38 162q0 119 -64.5 184.5t-172.5 65.5q-68 0 -129 -34t-101 -87.5t-63 -116.5t-23 -122q0 -119 65 -184.5t173 -65.5zM614 -25q-241 0 -384.5 141.5t-143.5 366.5q0 163 84 309t231.5 236t319.5 90
q241 0 384.5 -141.5t143.5 -366.5q0 -121 -50.5 -237t-135 -203.5t-203 -141t-246.5 -53.5z" />
    <glyph glyph-name="uni1ECE" unicode="&#x1ece;" 
d="M1014 1565l53 194q70 11 107.5 29t76.5 65q15 51 -37 58q-69 3 -135 -82l-127 82q143 172 320 168q105 -1 151 -62.5t15 -154.5q-32 -80 -94.5 -132.5t-133.5 -80.5l-41 -84h-155zM829 266q87 0 167 32t139 86t103 123t66.5 145.5t22.5 150.5q0 164 -95 264t-269 100
q-109 0 -204.5 -49t-158.5 -126.5t-99 -172t-36 -188.5q0 -165 95 -265t269 -100zM793 -25q-145 0 -268 49t-208 133.5t-132.5 201.5t-47.5 251q0 127 39.5 251.5t116.5 231.5t180 189t239.5 129t286.5 47q145 0 268 -49t208 -133.5t132.5 -201.5t47.5 -251
q0 -127 -39.5 -251.5t-116.5 -231.5t-180 -189t-239.5 -129t-286.5 -47z" />
    <glyph glyph-name="uni1ECF" unicode="&#x1ecf;" horiz-adv-x="1335" 
d="M750 1217l53 194q70 11 107.5 29t76.5 65q15 51 -37 58q-69 3 -135 -82l-127 82q143 172 320 168q105 -1 151 -63t15 -155q-32 -80 -94.5 -132.5t-133.5 -80.5l-41 -83h-155zM629 242q90 0 164.5 58t112.5 140t38 162q0 119 -64.5 184.5t-172.5 65.5q-68 0 -129 -34
t-101 -87.5t-63 -116.5t-23 -122q0 -119 65 -184.5t173 -65.5zM614 -25q-241 0 -384.5 141.5t-143.5 366.5q0 163 84 309t231.5 236t319.5 90q241 0 384.5 -141.5t143.5 -366.5q0 -121 -50.5 -237t-135 -203.5t-203 -141t-246.5 -53.5z" />
    <glyph glyph-name="uni1ED0" unicode="&#x1ed0;" 
d="M1403 1788l330 362l262 -116l-330 -246h-262zM653 1546l338 322h295l166 -322h-225l-125 135l-199 -135h-250zM829 266q87 0 167 32t139 86t103 123t66.5 145.5t22.5 150.5q0 164 -95 264t-269 100q-109 0 -204.5 -49t-158.5 -126.5t-99 -172t-36 -188.5q0 -165 95 -265
t269 -100zM793 -25q-145 0 -268 49t-208 133.5t-132.5 201.5t-47.5 251q0 127 39.5 251.5t116.5 231.5t180 189t239.5 129t286.5 47q145 0 268 -49t208 -133.5t132.5 -201.5t47.5 -251q0 -127 -39.5 -251.5t-116.5 -231.5t-180 -189t-239.5 -129t-286.5 -47z" />
    <glyph glyph-name="uni1ED1" unicode="&#x1ed1;" horiz-adv-x="1335" 
d="M1135 1460l329 363l262 -117l-329 -246h-262zM385 1219l338 321h295l166 -321h-226l-124 135l-199 -135h-250zM629 242q90 0 164.5 58t112.5 140t38 162q0 119 -64.5 184.5t-172.5 65.5q-68 0 -129 -34t-101 -87.5t-63 -116.5t-23 -122q0 -119 65 -184.5t173 -65.5z
M614 -25q-241 0 -384.5 141.5t-143.5 366.5q0 163 84 309t231.5 236t319.5 90q241 0 384.5 -141.5t143.5 -366.5q0 -121 -50.5 -237t-135 -203.5t-203 -141t-246.5 -53.5z" />
    <glyph glyph-name="uni1ED2" unicode="&#x1ed2;" 
d="M1458 1788l-194 246l274 116l133 -362h-213zM653 1546l338 322h295l166 -322h-225l-125 135l-199 -135h-250zM829 266q87 0 167 32t139 86t103 123t66.5 145.5t22.5 150.5q0 164 -95 264t-269 100q-109 0 -204.5 -49t-158.5 -126.5t-99 -172t-36 -188.5q0 -165 95 -265
t269 -100zM793 -25q-145 0 -268 49t-208 133.5t-132.5 201.5t-47.5 251q0 127 39.5 251.5t116.5 231.5t180 189t239.5 129t286.5 47q145 0 268 -49t208 -133.5t132.5 -201.5t47.5 -251q0 -127 -39.5 -251.5t-116.5 -231.5t-180 -189t-239.5 -129t-286.5 -47z" />
    <glyph glyph-name="uni1ED3" unicode="&#x1ed3;" horiz-adv-x="1335" 
d="M1190 1460l-195 246l275 117l133 -363h-213zM385 1219l338 321h295l166 -321h-226l-124 135l-199 -135h-250zM629 242q90 0 164.5 58t112.5 140t38 162q0 119 -64.5 184.5t-172.5 65.5q-68 0 -129 -34t-101 -87.5t-63 -116.5t-23 -122q0 -119 65 -184.5t173 -65.5z
M614 -25q-241 0 -384.5 141.5t-143.5 366.5q0 163 84 309t231.5 236t319.5 90q241 0 384.5 -141.5t143.5 -366.5q0 -121 -50.5 -237t-135 -203.5t-203 -141t-246.5 -53.5z" />
    <glyph glyph-name="uni1ED4" unicode="&#x1ed4;" 
d="M1397 1788l49 180q67 11 103 28.5t73 59.5q15 46 -35 53q-65 3 -129 -75l-121 75q42 48 82.5 80t80.5 47t70 20.5t72 8.5q99 -1 143 -58.5t15 -142.5q-29 -75 -89.5 -124.5t-127.5 -73.5l-39 -78h-147zM653 1546l338 322h295l166 -322h-225l-125 135l-199 -135h-250z
M829 266q87 0 167 32t139 86t103 123t66.5 145.5t22.5 150.5q0 164 -95 264t-269 100q-109 0 -204.5 -49t-158.5 -126.5t-99 -172t-36 -188.5q0 -165 95 -265t269 -100zM793 -25q-145 0 -268 49t-208 133.5t-132.5 201.5t-47.5 251q0 127 39.5 251.5t116.5 231.5t180 189
t239.5 129t286.5 47q145 0 268 -49t208 -133.5t132.5 -201.5t47.5 -251q0 -127 -39.5 -251.5t-116.5 -231.5t-180 -189t-239.5 -129t-286.5 -47z" />
    <glyph glyph-name="uni1ED5" unicode="&#x1ed5;" horiz-adv-x="1335" 
d="M1128 1460l50 180q66 11 102.5 28.5t73.5 60.5q15 46 -35 53q-64 3 -129 -76l-121 76q42 48 82.5 79.5t80.5 46.5t69.5 20.5t72.5 8.5q99 -1 143 -58t15 -142q-30 -75 -90 -125t-127 -74l-39 -78h-148zM385 1219l338 321h295l166 -321h-226l-124 135l-199 -135h-250z
M629 242q90 0 164.5 58t112.5 140t38 162q0 119 -64.5 184.5t-172.5 65.5q-68 0 -129 -34t-101 -87.5t-63 -116.5t-23 -122q0 -119 65 -184.5t173 -65.5zM614 -25q-241 0 -384.5 141.5t-143.5 366.5q0 163 84 309t231.5 236t319.5 90q241 0 384.5 -141.5t143.5 -366.5
q0 -121 -50.5 -237t-135 -203.5t-203 -141t-246.5 -53.5z" />
    <glyph glyph-name="uni1ED6" unicode="&#x1ed6;" 
d="M922 1935l-144 76q49 115 120.5 182.5t154.5 67.5q75 0 143 -55q5 -3 15 -10.5t13.5 -10t11 -7.5l10.5 -7t9 -5t9.5 -4t8.5 -2.5t9.5 -2t9.5 -0.5q39 0 68 28t59 82l144 -74q-49 -115 -120.5 -182t-154.5 -67q-44 0 -75.5 13t-67.5 40q-5 3 -15 10.5t-13.5 10t-11 7.5
l-10.5 7t-9 5t-9.5 4t-8.5 2.5t-9.5 2t-9.5 0.5q-40 0 -69 -28t-58 -83zM653 1546l338 322h295l166 -322h-225l-125 135l-199 -135h-250zM829 266q87 0 167 32t139 86t103 123t66.5 145.5t22.5 150.5q0 164 -95 264t-269 100q-109 0 -204.5 -49t-158.5 -126.5t-99 -172
t-36 -188.5q0 -165 95 -265t269 -100zM793 -25q-145 0 -268 49t-208 133.5t-132.5 201.5t-47.5 251q0 127 39.5 251.5t116.5 231.5t180 189t239.5 129t286.5 47q145 0 268 -49t208 -133.5t132.5 -201.5t47.5 -251q0 -127 -39.5 -251.5t-116.5 -231.5t-180 -189t-239.5 -129
t-286.5 -47z" />
    <glyph glyph-name="uni1ED7" unicode="&#x1ed7;" horiz-adv-x="1335" 
d="M653 1608l-143 75q49 115 120 182.5t154 67.5q76 0 144 -55q5 -3 15 -10.5t13.5 -10t11 -7.5l10.5 -7t9 -5t9.5 -4t8.5 -2.5t9.5 -2t9.5 -0.5q39 0 68 28t59 82l143 -73q-49 -115 -120 -182.5t-154 -67.5q-44 0 -75.5 13t-67.5 40q-57 41 -74 46q-11 3 -23 3
q-40 0 -69 -27.5t-58 -82.5zM385 1219l338 321h295l166 -321h-226l-124 135l-199 -135h-250zM629 242q90 0 164.5 58t112.5 140t38 162q0 119 -64.5 184.5t-172.5 65.5q-68 0 -129 -34t-101 -87.5t-63 -116.5t-23 -122q0 -119 65 -184.5t173 -65.5zM614 -25
q-241 0 -384.5 141.5t-143.5 366.5q0 163 84 309t231.5 236t319.5 90q241 0 384.5 -141.5t143.5 -366.5q0 -121 -50.5 -237t-135 -203.5t-203 -141t-246.5 -53.5z" />
    <glyph glyph-name="uni1ED8" unicode="&#x1ed8;" 
d="M522 -408l72 271h293l-72 -271h-293zM653 1546l338 322h295l166 -322h-225l-125 135l-199 -135h-250zM829 266q87 0 167 32t139 86t103 123t66.5 145.5t22.5 150.5q0 164 -95 264t-269 100q-109 0 -204.5 -49t-158.5 -126.5t-99 -172t-36 -188.5q0 -165 95 -265t269 -100
zM793 -25q-145 0 -268 49t-208 133.5t-132.5 201.5t-47.5 251q0 127 39.5 251.5t116.5 231.5t180 189t239.5 129t286.5 47q145 0 268 -49t208 -133.5t132.5 -201.5t47.5 -251q0 -127 -39.5 -251.5t-116.5 -231.5t-180 -189t-239.5 -129t-286.5 -47z" />
    <glyph glyph-name="uni1ED9" unicode="&#x1ed9;" horiz-adv-x="1335" 
d="M334 -408l72 271h292l-71 -271h-293zM385 1219l338 321h295l166 -321h-226l-124 135l-199 -135h-250zM629 242q90 0 164.5 58t112.5 140t38 162q0 119 -64.5 184.5t-172.5 65.5q-68 0 -129 -34t-101 -87.5t-63 -116.5t-23 -122q0 -119 65 -184.5t173 -65.5zM614 -25
q-241 0 -384.5 141.5t-143.5 366.5q0 163 84 309t231.5 236t319.5 90q241 0 384.5 -141.5t143.5 -366.5q0 -121 -50.5 -237t-135 -203.5t-203 -141t-246.5 -53.5z" />
    <glyph glyph-name="uni1EDA" unicode="&#x1eda;" 
d="M848 1546l330 363l262 -117l-330 -246h-262zM793 -25q-145 0 -268 49t-208 133.5t-132.5 201.5t-47.5 251q0 127 39.5 251.5t116.5 231.5t180 189t239.5 129t286.5 47t269 -49q25 -10 69 -33q87 5 122 17t42 41q35 67 -2 204h293q6 -105 0 -145q-2 -33 -25 -102
q-48 -131 -176 -205q-10 -6 -32 -17q34 -59 49 -96q47 -115 47 -250q0 -127 -39.5 -251.5t-116.5 -231.5t-180 -189t-239.5 -129t-286.5 -47zM829 266q87 0 167 32t139 86t103 123t66.5 145.5t22.5 150.5q0 164 -95 264t-269 100q-109 0 -204.5 -49t-158.5 -126.5t-99 -172
t-36 -188.5q0 -165 95 -265t269 -100z" />
    <glyph glyph-name="uni1EDB" unicode="&#x1edb;" horiz-adv-x="1335" 
d="M588 1219l330 362l262 -117l-330 -245h-262zM614 -25q-241 0 -384.5 141.5t-143.5 366.5q0 163 84 309t231.5 236t319.5 90q128 0 219 -39q50 -18 90 -45q57 5 92 17q33 12 43 41q35 67 -2 204h293q6 -105 0 -145q-3 -37 -24 -102q-48 -130 -177 -205q-21 -12 -47 -25
q1 -1 2 -3t2 -3q37 -90 37 -203q0 -121 -50.5 -237t-135 -203.5t-203 -141t-246.5 -53.5zM629 242q90 0 164.5 58t112.5 140t38 162q0 119 -64.5 184.5t-172.5 65.5q-68 0 -129 -34t-101 -87.5t-63 -116.5t-23 -122q0 -119 65 -184.5t173 -65.5z" />
    <glyph glyph-name="uni1EDC" unicode="&#x1edc;" 
d="M967 1546l-195 246l275 117l133 -363h-213zM793 -25q-145 0 -268 49t-208 133.5t-132.5 201.5t-47.5 251q0 127 39.5 251.5t116.5 231.5t180 189t239.5 129t286.5 47t269 -49q25 -10 69 -33q87 5 122 17t42 41q35 67 -2 204h293q6 -105 0 -145q-2 -33 -25 -102
q-48 -131 -176 -205q-10 -6 -32 -17q34 -59 49 -96q47 -115 47 -250q0 -127 -39.5 -251.5t-116.5 -231.5t-180 -189t-239.5 -129t-286.5 -47zM829 266q87 0 167 32t139 86t103 123t66.5 145.5t22.5 150.5q0 164 -95 264t-269 100q-109 0 -204.5 -49t-158.5 -126.5t-99 -172
t-36 -188.5q0 -165 95 -265t269 -100z" />
    <glyph glyph-name="uni1EDD" unicode="&#x1edd;" horiz-adv-x="1335" 
d="M717 1219l-195 245l275 117l133 -362h-213zM614 -25q-241 0 -384.5 141.5t-143.5 366.5q0 163 84 309t231.5 236t319.5 90q128 0 219 -39q50 -18 90 -45q57 5 92 17q33 12 43 41q35 67 -2 204h293q6 -105 0 -145q-3 -37 -24 -102q-48 -130 -177 -205q-21 -12 -47 -25
q1 -1 2 -3t2 -3q37 -90 37 -203q0 -121 -50.5 -237t-135 -203.5t-203 -141t-246.5 -53.5zM629 242q90 0 164.5 58t112.5 140t38 162q0 119 -64.5 184.5t-172.5 65.5q-68 0 -129 -34t-101 -87.5t-63 -116.5t-23 -122q0 -119 65 -184.5t173 -65.5z" />
    <glyph glyph-name="uni1EDE" unicode="&#x1ede;" 
d="M1014 1565l53 194q70 11 107.5 29t76.5 65q15 51 -37 58q-69 3 -135 -82l-127 82q143 172 320 168q105 -1 151 -62.5t15 -154.5q-32 -80 -94.5 -132.5t-133.5 -80.5l-41 -84h-155zM793 -25q-145 0 -268 49t-208 133.5t-132.5 201.5t-47.5 251q0 127 39.5 251.5
t116.5 231.5t180 189t239.5 129t286.5 47t269 -49q25 -10 69 -33q87 5 122 17t42 41q35 67 -2 204h293q6 -105 0 -145q-2 -33 -25 -102q-48 -131 -176 -205q-10 -6 -32 -17q34 -59 49 -96q47 -115 47 -250q0 -127 -39.5 -251.5t-116.5 -231.5t-180 -189t-239.5 -129
t-286.5 -47zM829 266q87 0 167 32t139 86t103 123t66.5 145.5t22.5 150.5q0 164 -95 264t-269 100q-109 0 -204.5 -49t-158.5 -126.5t-99 -172t-36 -188.5q0 -165 95 -265t269 -100z" />
    <glyph glyph-name="uni1EDF" unicode="&#x1edf;" horiz-adv-x="1335" 
d="M750 1217l53 194q70 11 107.5 29t76.5 65q15 51 -37 58q-69 3 -135 -82l-127 82q143 172 320 168q105 -1 151 -63t15 -155q-32 -80 -94.5 -132.5t-133.5 -80.5l-41 -83h-155zM614 -25q-241 0 -384.5 141.5t-143.5 366.5q0 163 84 309t231.5 236t319.5 90q128 0 219 -39
q50 -18 90 -45q57 5 92 17q33 12 43 41q35 67 -2 204h293q6 -105 0 -145q-3 -37 -24 -102q-48 -130 -177 -205q-21 -12 -47 -25q1 -1 2 -3t2 -3q37 -90 37 -203q0 -121 -50.5 -237t-135 -203.5t-203 -141t-246.5 -53.5zM629 242q90 0 164.5 58t112.5 140t38 162
q0 119 -64.5 184.5t-172.5 65.5q-68 0 -129 -34t-101 -87.5t-63 -116.5t-23 -122q0 -119 65 -184.5t173 -65.5z" />
    <glyph glyph-name="uni1EE0" unicode="&#x1ee0;" 
d="M838 1544l-144 76q49 115 120.5 182.5t154.5 67.5q75 0 143 -55q6 -5 18.5 -14t17 -11.5t13 -8.5t12.5 -7.5t10.5 -4.5t12 -3.5t12.5 -0.5q39 0 68 28t59 83l144 -74q-49 -115 -120.5 -182.5t-154.5 -67.5q-44 0 -75.5 13t-67.5 41q-5 3 -15 10.5t-13.5 10t-11 7.5
l-10.5 7t-9 5t-9.5 4t-8.5 2.5t-9.5 2t-9.5 0.5q-40 0 -69 -28t-58 -83zM793 -25q-145 0 -268 49t-208 133.5t-132.5 201.5t-47.5 251q0 127 39.5 251.5t116.5 231.5t180 189t239.5 129t286.5 47t269 -49q25 -10 69 -33q87 5 122 17t42 41q35 67 -2 204h293q6 -105 0 -145
q-2 -33 -25 -102q-48 -131 -176 -205q-10 -6 -32 -17q34 -59 49 -96q47 -115 47 -250q0 -127 -39.5 -251.5t-116.5 -231.5t-180 -189t-239.5 -129t-286.5 -47zM829 266q87 0 167 32t139 86t103 123t66.5 145.5t22.5 150.5q0 164 -95 264t-269 100q-109 0 -204.5 -49
t-158.5 -126.5t-99 -172t-36 -188.5q0 -165 95 -265t269 -100z" />
    <glyph glyph-name="uni1EE1" unicode="&#x1ee1;" horiz-adv-x="1335" 
d="M567 1221l-143 75q49 115 120 182.5t154 67.5q76 0 144 -55q5 -3 15 -10.5t13.5 -10t11 -7.5l10.5 -7t9 -5t9.5 -4t8.5 -2.5t9.5 -2t9.5 -0.5q39 0 68 28t59 82l143 -73q-49 -115 -120 -182.5t-154 -67.5q-44 0 -75.5 13t-67.5 40q-57 41 -74 46q-11 3 -23 3
q-40 0 -69 -27.5t-58 -82.5zM614 -25q-241 0 -384.5 141.5t-143.5 366.5q0 163 84 309t231.5 236t319.5 90q128 0 219 -39q50 -18 90 -45q57 5 92 17q33 12 43 41q35 67 -2 204h293q6 -105 0 -145q-3 -37 -24 -102q-48 -130 -177 -205q-21 -12 -47 -25q1 -1 2 -3t2 -3
q37 -90 37 -203q0 -121 -50.5 -237t-135 -203.5t-203 -141t-246.5 -53.5zM629 242q90 0 164.5 58t112.5 140t38 162q0 119 -64.5 184.5t-172.5 65.5q-68 0 -129 -34t-101 -87.5t-63 -116.5t-23 -122q0 -119 65 -184.5t173 -65.5z" />
    <glyph glyph-name="uni1EE2" unicode="&#x1ee2;" 
d="M522 -408l72 271h293l-72 -271h-293zM793 -25q-145 0 -268 49t-208 133.5t-132.5 201.5t-47.5 251q0 127 39.5 251.5t116.5 231.5t180 189t239.5 129t286.5 47t269 -49q25 -10 69 -33q87 5 122 17t42 41q35 67 -2 204h293q6 -105 0 -145q-2 -33 -25 -102
q-48 -131 -176 -205q-10 -6 -32 -17q34 -59 49 -96q47 -115 47 -250q0 -127 -39.5 -251.5t-116.5 -231.5t-180 -189t-239.5 -129t-286.5 -47zM829 266q87 0 167 32t139 86t103 123t66.5 145.5t22.5 150.5q0 164 -95 264t-269 100q-109 0 -204.5 -49t-158.5 -126.5t-99 -172
t-36 -188.5q0 -165 95 -265t269 -100z" />
    <glyph glyph-name="uni1EE3" unicode="&#x1ee3;" horiz-adv-x="1335" 
d="M334 -408l72 271h292l-71 -271h-293zM614 -25q-241 0 -384.5 141.5t-143.5 366.5q0 163 84 309t231.5 236t319.5 90q128 0 219 -39q50 -18 90 -45q57 5 92 17q33 12 43 41q35 67 -2 204h293q6 -105 0 -145q-3 -37 -24 -102q-48 -130 -177 -205q-21 -12 -47 -25q1 -1 2 -3
t2 -3q37 -90 37 -203q0 -121 -50.5 -237t-135 -203.5t-203 -141t-246.5 -53.5zM629 242q90 0 164.5 58t112.5 140t38 162q0 119 -64.5 184.5t-172.5 65.5q-68 0 -129 -34t-101 -87.5t-63 -116.5t-23 -122q0 -119 65 -184.5t173 -65.5z" />
    <glyph glyph-name="uni1EE4" unicode="&#x1ee4;" horiz-adv-x="1564" 
d="M420 -408l72 271h292l-71 -271h-293zM702 -23q-251 0 -393.5 128t-142.5 356q0 104 35 229l198 744h316l-207 -772q-23 -81 -23 -156q0 -109 65 -173.5t185 -64.5q138 0 234 90q92 92 139 267l217 809h315l-229 -854q-73 -278 -221 -426q-177 -177 -488 -177z" />
    <glyph glyph-name="uni1EE5" unicode="&#x1ee5;" horiz-adv-x="1273" 
d="M256 -408l72 271h293l-72 -271h-293zM408 -20q-149 0 -236.5 85.5t-87.5 233.5q0 61 37 209l158 590h311l-162 -602q-14 -54 -14 -99q0 -66 39.5 -100.5t111.5 -34.5q89 0 150 58.5t88 160.5l166 617h311l-293 -1098h-311l31 115q-150 -135 -299 -135z" />
    <glyph glyph-name="uni1EE6" unicode="&#x1ee6;" horiz-adv-x="1564" 
d="M965 1565l53 194q70 11 107.5 29t76.5 65q15 51 -37 58q-69 3 -135 -82l-127 82q143 172 320 168q105 -1 151 -62.5t15 -154.5q-32 -80 -94.5 -132.5t-133.5 -80.5l-41 -84h-155zM702 -23q-251 0 -393.5 128t-142.5 356q0 104 35 229l198 744h316l-207 -772
q-23 -81 -23 -156q0 -109 65 -173.5t185 -64.5q138 0 234 90q92 92 139 267l217 809h315l-229 -854q-73 -278 -221 -426q-177 -177 -488 -177z" />
    <glyph glyph-name="uni1EE7" unicode="&#x1ee7;" horiz-adv-x="1273" 
d="M721 1217l53 194q70 11 107.5 29t76.5 65q15 51 -36 58q-70 3 -136 -82l-127 82q143 172 320 168q105 -1 151 -63t15 -155q-32 -80 -94 -133t-133 -80l-41 -83h-156zM408 -20q-149 0 -236.5 85.5t-87.5 233.5q0 61 37 209l158 590h311l-162 -602q-14 -54 -14 -99
q0 -66 39.5 -100.5t111.5 -34.5q89 0 150 58.5t88 160.5l166 617h311l-293 -1098h-311l31 115q-150 -135 -299 -135z" />
    <glyph glyph-name="uni1EE8" unicode="&#x1ee8;" horiz-adv-x="1646" 
d="M856 1546l330 363l262 -117l-330 -246h-262zM1599 1688h293q6 -106 0 -146q-3 -37 -24 -102q-48 -131 -176 -205q-50 -28 -119 -51l-162 -604q-73 -278 -221 -426q-177 -177 -488 -177q-251 0 -393.5 128t-142.5 356q0 104 35 229l198 744h316l-207 -772
q-23 -81 -23 -156q0 -109 65 -173.5t185 -64.5q138 0 234 90q92 92 139 267l217 809h201q2 0 33 8q33 12 43 41q34 67 -3 205z" />
    <glyph glyph-name="uni1EE9" unicode="&#x1ee9;" horiz-adv-x="1357" 
d="M612 1219l330 362l262 -117l-330 -245h-262zM408 -20q-149 0 -236.5 85.5t-87.5 233.5q0 61 37 209l158 590h311l-162 -602q-14 -54 -14 -99q0 -66 39.5 -100.5t111.5 -34.5q89 0 150 58.5t88 160.5l166 617h178q42 3 63 12q33 12 43 41q35 68 -2 205h293q6 -106 0 -146
q-3 -37 -24 -102q-48 -130 -177 -205q-51 -30 -131 -53l-225 -850h-311l31 115q-150 -135 -299 -135z" />
    <glyph glyph-name="uni1EEA" unicode="&#x1eea;" horiz-adv-x="1646" 
d="M948 1546l-194 246l274 117l133 -363h-213zM1599 1688h293q6 -106 0 -146q-3 -37 -24 -102q-48 -131 -176 -205q-50 -28 -119 -51l-162 -604q-73 -278 -221 -426q-177 -177 -488 -177q-251 0 -393.5 128t-142.5 356q0 104 35 229l198 744h316l-207 -772q-23 -81 -23 -156
q0 -109 65 -173.5t185 -64.5q138 0 234 90q92 92 139 267l217 809h201q2 0 33 8q33 12 43 41q34 67 -3 205z" />
    <glyph glyph-name="uni1EEB" unicode="&#x1eeb;" horiz-adv-x="1357" 
d="M754 1219l-195 245l275 117l133 -362h-213zM408 -20q-149 0 -236.5 85.5t-87.5 233.5q0 61 37 209l158 590h311l-162 -602q-14 -54 -14 -99q0 -66 39.5 -100.5t111.5 -34.5q89 0 150 58.5t88 160.5l166 617h178q42 3 63 12q33 12 43 41q35 68 -2 205h293q6 -106 0 -146
q-3 -37 -24 -102q-48 -130 -177 -205q-51 -30 -131 -53l-225 -850h-311l31 115q-150 -135 -299 -135z" />
    <glyph glyph-name="uni1EEC" unicode="&#x1eec;" horiz-adv-x="1646" 
d="M965 1565l53 194q70 11 107.5 29t76.5 65q15 51 -37 58q-69 3 -135 -82l-127 82q143 172 320 168q105 -1 151 -62.5t15 -154.5q-32 -80 -94.5 -132.5t-133.5 -80.5l-41 -84h-155zM1599 1688h293q6 -106 0 -146q-3 -37 -24 -102q-48 -131 -176 -205q-50 -28 -119 -51
l-162 -604q-73 -278 -221 -426q-177 -177 -488 -177q-251 0 -393.5 128t-142.5 356q0 104 35 229l198 744h316l-207 -772q-23 -81 -23 -156q0 -109 65 -173.5t185 -64.5q138 0 234 90q92 92 139 267l217 809h201q2 0 33 8q33 12 43 41q34 67 -3 205z" />
    <glyph glyph-name="uni1EED" unicode="&#x1eed;" horiz-adv-x="1357" 
d="M721 1217l53 194q70 11 107.5 29t76.5 65q15 51 -36 58q-70 3 -136 -82l-127 82q143 172 320 168q105 -1 151 -63t15 -155q-32 -80 -94 -133t-133 -80l-41 -83h-156zM408 -20q-149 0 -236.5 85.5t-87.5 233.5q0 61 37 209l158 590h311l-162 -602q-14 -54 -14 -99
q0 -66 39.5 -100.5t111.5 -34.5q89 0 150 58.5t88 160.5l166 617h178q42 3 63 12q33 12 43 41q35 68 -2 205h293q6 -106 0 -146q-3 -37 -24 -102q-48 -130 -177 -205q-51 -30 -131 -53l-225 -850h-311l31 115q-150 -135 -299 -135z" />
    <glyph glyph-name="uni1EEE" unicode="&#x1eee;" horiz-adv-x="1646" 
d="M793 1544l-144 76q49 115 120.5 182.5t154.5 67.5q75 0 143 -55q6 -5 18.5 -14t17 -11.5t13 -8.5t12.5 -7.5t10.5 -4.5t12 -3.5t12.5 -0.5q39 0 68 28t59 83l144 -74q-49 -115 -120.5 -182.5t-154.5 -67.5q-44 0 -75.5 13t-67.5 41q-5 3 -15 10.5t-13.5 10t-11 7.5
l-10.5 7t-9 5t-9.5 4t-8.5 2.5t-9.5 2t-9.5 0.5q-40 0 -69 -28t-58 -83zM1599 1688h293q6 -106 0 -146q-3 -37 -24 -102q-48 -131 -176 -205q-50 -28 -119 -51l-162 -604q-73 -278 -221 -426q-177 -177 -488 -177q-251 0 -393.5 128t-142.5 356q0 104 35 229l198 744h316
l-207 -772q-23 -81 -23 -156q0 -109 65 -173.5t185 -64.5q138 0 234 90q92 92 139 267l217 809h201q2 0 33 8q33 12 43 41q34 67 -3 205z" />
    <glyph glyph-name="uni1EEF" unicode="&#x1eef;" horiz-adv-x="1357" 
d="M565 1221l-143 75q49 115 120 182.5t154 67.5q76 0 144 -55q5 -3 15 -10.5t13.5 -10t11 -7.5l10.5 -7t9 -5t9.5 -4t8.5 -2.5t9.5 -2t9.5 -0.5q39 0 68 28t59 82l143 -73q-49 -115 -120 -182.5t-154 -67.5q-75 0 -144 53q-5 3 -15 10.5t-13.5 10t-11 7.5l-10.5 7t-9 5
t-9.5 4t-8.5 2.5t-9.5 2t-9.5 0.5q-40 0 -69 -27.5t-58 -82.5zM408 -20q-149 0 -236.5 85.5t-87.5 233.5q0 61 37 209l158 590h311l-162 -602q-14 -54 -14 -99q0 -66 39.5 -100.5t111.5 -34.5q89 0 150 58.5t88 160.5l166 617h178q42 3 63 12q33 12 43 41q35 68 -2 205h293
q6 -106 0 -146q-3 -37 -24 -102q-48 -130 -177 -205q-51 -30 -131 -53l-225 -850h-311l31 115q-150 -135 -299 -135z" />
    <glyph glyph-name="uni1EF0" unicode="&#x1ef0;" horiz-adv-x="1646" 
d="M420 -408l72 271h292l-71 -271h-293zM1599 1688h293q6 -106 0 -146q-3 -37 -24 -102q-48 -131 -176 -205q-50 -28 -119 -51l-162 -604q-73 -278 -221 -426q-177 -177 -488 -177q-251 0 -393.5 128t-142.5 356q0 104 35 229l198 744h316l-207 -772q-23 -81 -23 -156
q0 -109 65 -173.5t185 -64.5q138 0 234 90q92 92 139 267l217 809h201q2 0 33 8q33 12 43 41q34 67 -3 205z" />
    <glyph glyph-name="uni1EF1" unicode="&#x1ef1;" horiz-adv-x="1357" 
d="M256 -408l72 271h293l-72 -271h-293zM408 -20q-149 0 -236.5 85.5t-87.5 233.5q0 61 37 209l158 590h311l-162 -602q-14 -54 -14 -99q0 -66 39.5 -100.5t111.5 -34.5q89 0 150 58.5t88 160.5l166 617h178q42 3 63 12q33 12 43 41q35 68 -2 205h293q6 -106 0 -146
q-3 -37 -24 -102q-48 -130 -177 -205q-51 -30 -131 -53l-225 -850h-311l31 115q-150 -135 -299 -135z" />
    <glyph glyph-name="Ygrave" unicode="&#x1ef2;" horiz-adv-x="1331" 
d="M807 1546l-195 246l275 117l133 -363h-213zM346 0l152 565l-297 869h350l168 -594l491 594h381l-784 -897l-145 -537h-316z" />
    <glyph glyph-name="ygrave" unicode="&#x1ef3;" horiz-adv-x="1212" 
d="M680 1219l-195 245l275 117l133 -362h-213zM174 -334q-146 0 -256 76l166 225q57 -43 121 -43q37 0 63.5 14t57.5 54l-136 1106h318l51 -746l412 746h336l-680 -1125q-105 -167 -209 -237t-244 -70z" />
    <glyph glyph-name="uni1EF4" unicode="&#x1ef4;" horiz-adv-x="1331" 
d="M256 -408l72 271h293l-72 -271h-293zM346 0l152 565l-297 869h350l168 -594l491 594h381l-784 -897l-145 -537h-316z" />
    <glyph glyph-name="uni1EF5" unicode="&#x1ef5;" horiz-adv-x="1212" 
d="M631 -408l71 271h293l-71 -271h-293zM174 -334q-146 0 -256 76l166 225q57 -43 121 -43q37 0 63.5 14t57.5 54l-136 1106h318l51 -746l412 746h336l-680 -1125q-105 -167 -209 -237t-244 -70z" />
    <glyph glyph-name="uni1EF6" unicode="&#x1ef6;" horiz-adv-x="1331" 
d="M793 1565l53 194q70 11 107.5 29t76.5 65q15 51 -37 58q-69 3 -135 -82l-127 82q143 172 320 168q105 -1 151 -62.5t15 -154.5q-32 -80 -94.5 -132.5t-133.5 -80.5l-41 -84h-155zM346 0l152 565l-297 869h350l168 -594l491 594h381l-784 -897l-145 -537h-316z" />
    <glyph glyph-name="uni1EF7" unicode="&#x1ef7;" horiz-adv-x="1212" 
d="M676 1217l53 194q70 11 107.5 29t76.5 65q15 51 -36 58q-70 3 -136 -82l-127 82q143 172 320 168q105 -1 151 -63t15 -155q-32 -80 -94.5 -132.5t-133.5 -80.5l-41 -83h-155zM174 -334q-146 0 -256 76l166 225q57 -43 121 -43q37 0 63.5 14t57.5 54l-136 1106h318
l51 -746l412 746h336l-680 -1125q-105 -167 -209 -237t-244 -70z" />
    <glyph glyph-name="uni1EF8" unicode="&#x1ef8;" horiz-adv-x="1331" 
d="M666 1544l-144 76q49 115 120.5 182.5t154.5 67.5q75 0 143 -55q6 -5 18.5 -14t17 -11.5t13 -8.5t12.5 -7.5t10.5 -4.5t12 -3.5t12.5 -0.5q39 0 68 28t59 83l144 -74q-49 -115 -120.5 -182.5t-154.5 -67.5q-44 0 -75.5 13t-67.5 41q-5 3 -15 10.5t-13.5 10t-11 7.5
l-10.5 7t-9 5t-9.5 4t-8.5 2.5t-9.5 2t-9.5 0.5q-40 0 -69 -28t-58 -83zM346 0l152 565l-297 869h350l168 -594l491 594h381l-784 -897l-145 -537h-316z" />
    <glyph glyph-name="uni1EF9" unicode="&#x1ef9;" horiz-adv-x="1212" 
d="M522 1221l-143 75q49 115 120 182.5t154 67.5q76 0 144 -55q5 -3 15 -10.5t13.5 -10t11 -7.5l10.5 -7t9 -5t9.5 -4t8.5 -2.5t9.5 -2t9.5 -0.5q39 0 68 28t59 82l143 -73q-49 -115 -120 -182.5t-154 -67.5q-75 0 -144 53q-5 3 -15 10.5t-13.5 10t-11 7.5l-10.5 7t-9 5
t-9.5 4t-8.5 2.5t-9.5 2t-9.5 0.5q-40 0 -69 -27.5t-58 -82.5zM174 -334q-146 0 -256 76l166 225q57 -43 121 -43q37 0 63.5 14t57.5 54l-136 1106h318l51 -746l412 746h336l-680 -1125q-105 -167 -209 -237t-244 -70z" />
    <glyph glyph-name="endash" unicode="&#x2013;" horiz-adv-x="1087" 
d="M90 489l78 291h876l-77 -291h-877z" />
    <glyph glyph-name="emdash" unicode="&#x2014;" horiz-adv-x="1845" 
d="M90 489l78 291h1634l-78 -291h-1634z" />
    <glyph glyph-name="quoteleft" unicode="&#x2018;" horiz-adv-x="653" 
d="M190 786l74 277q53 199 165.5 288.5t299.5 94.5l21 -129q-123 -10 -186 -61t-81 -142h127l-88 -328h-332z" />
    <glyph glyph-name="quoteright" unicode="&#x2019;" horiz-adv-x="653" 
d="M178 774l-20 129q123 10 185.5 60.5t80.5 142.5h-127l88 328h332l-74 -277q-53 -199 -165.5 -288.5t-299.5 -94.5z" />
    <glyph glyph-name="quotesinglbase" unicode="&#x201a;" horiz-adv-x="653" 
d="M-104 -332l-21 129q123 10 185.5 60.5t80.5 142.5h-127l88 328h332l-74 -277q-53 -199 -165 -288.5t-299 -94.5z" />
    <glyph glyph-name="quotedblleft" unicode="&#x201c;" horiz-adv-x="1173" 
d="M193 784l73 277q53 199 165.5 288.5t299.5 94.5l21 -129q-123 -10 -186 -61t-81 -142h127l-88 -328h-331zM713 784l73 277q53 199 165.5 288.5t299.5 94.5l21 -129q-123 -10 -185.5 -60.5t-80.5 -142.5h127l-89 -328h-331z" />
    <glyph glyph-name="quotedblright" unicode="&#x201d;" horiz-adv-x="1173" 
d="M180 774l-20 129q123 10 185.5 60.5t80.5 142.5h-127l88 328h332l-74 -277q-53 -199 -165.5 -288.5t-299.5 -94.5zM700 774l-20 129q123 10 185.5 60.5t80.5 142.5h-127l88 328h332l-74 -277q-53 -199 -165.5 -288.5t-299.5 -94.5z" />
    <glyph glyph-name="quotedblbase" unicode="&#x201e;" horiz-adv-x="1173" 
d="M-104 -332l-21 129q123 10 185.5 60.5t80.5 142.5h-127l88 328h332l-74 -277q-53 -199 -165 -288.5t-299 -94.5zM416 -332l-21 129q123 10 186 61t81 142h-127l88 328h331l-73 -277q-53 -199 -165.5 -288.5t-299.5 -94.5z" />
    <glyph glyph-name="dagger" unicode="&#x2020;" horiz-adv-x="843" 
d="M319 487l168 553l-251 -20l47 170l237 -21l45 265h189l-99 -265l250 21l-47 -170l-240 20l-126 -553h-173z" />
    <glyph glyph-name="daggerdbl" unicode="&#x2021;" horiz-adv-x="843" 
d="M180 0l99 264l-250 -20l45 170l237 -21l70 324l104 323l-249 -20l47 170l237 -21l45 265h189l-99 -265l250 21l-47 -170l-237 20l-68 -323l-107 -324l250 21l-45 -170l-237 20l-45 -264h-189z" />
    <glyph glyph-name="bullet" unicode="&#x2022;" horiz-adv-x="1024" 
d="M504 410q-112 0 -175 63.5t-63 173.5q0 94 42 182.5t123 147.5t179 59q112 0 175 -63.5t63 -173.5q0 -94 -42 -182.5t-123 -147.5t-179 -59z" />
    <glyph glyph-name="ellipsis" unicode="&#x2026;" horiz-adv-x="1785" 
d="M14 0l86 319h324l-86 -319h-324zM586 0l86 319h323l-86 -319h-323zM1157 0l86 319h324l-86 -319h-324z" />
    <glyph glyph-name="perthousand" unicode="&#x2030;" horiz-adv-x="2637" 
d="M1333 162q80 0 132.5 76t52.5 163q0 68 -33.5 107t-93.5 39q-54 0 -97.5 -38.5t-65.5 -92.5t-22 -109q0 -68 33.5 -106.5t93.5 -38.5zM2169 162q54 0 97.5 38t65 92t21.5 109q0 68 -33.5 107t-93.5 39q-54 0 -97.5 -38.5t-65 -92.5t-21.5 -109q0 -68 33.5 -106.5
t93.5 -38.5zM500 887q54 0 97.5 38t65 92t21.5 109q0 68 -33.5 107t-93.5 39q-54 0 -97.5 -38.5t-65 -92.5t-21.5 -109q0 -68 33.5 -106.5t93.5 -38.5zM1321 -16q-142 0 -228.5 87.5t-86.5 227.5q0 107 48.5 203.5t141.5 159.5t207 63q142 0 228.5 -87.5t86.5 -227.5
q0 -107 -48.5 -203.5t-141.5 -159.5t-207 -63zM2157 -16q-142 0 -229 87.5t-87 227.5q0 107 48.5 203.5t141.5 159.5t207 63q142 0 229 -87.5t87 -227.5q0 -107 -48.5 -203.5t-141.5 -159.5t-207 -63zM123 0l1378 1434h266l-1378 -1434h-266zM487 709q-142 0 -228.5 87.5
t-86.5 227.5q0 107 48.5 203.5t141.5 159.5t207 63q142 0 229 -87.5t87 -227.5q0 -107 -49 -203.5t-142 -159.5t-207 -63z" />
    <glyph glyph-name="guilsinglleft" unicode="&#x2039;" horiz-adv-x="763" 
d="M315 63l-221 459l4 17l486 477l178 -164l-361 -350l164 -328z" />
    <glyph glyph-name="guilsinglright" unicode="&#x203a;" horiz-adv-x="763" 
d="M176 63l-178 164l360 351l-163 327l249 111l222 -459l-4 -16z" />
    <glyph glyph-name="fraction" unicode="&#x2044;" horiz-adv-x="1064" 
d="M-283 -201l1424 1753h274l-1423 -1753h-275z" />
    <glyph glyph-name="fraction" unicode="&#x2215;" horiz-adv-x="1064" 
d="M-283 -201l1424 1753h274l-1423 -1753h-275z" />
    <glyph glyph-name="trademark" unicode="&#x2122;" horiz-adv-x="1433" 
d="M283 803l135 504h-189l35 127h520l-34 -127h-189l-135 -504h-143zM748 803l170 631h143l94 -267l238 267h155l-170 -631h-135l115 426l-248 -277h-12l-101 277l-114 -426h-135z" />
    <glyph glyph-name="radical" unicode="&#x221a;" horiz-adv-x="2301" 
d="M1690 0l401 1495h311l-401 -1495h-311zM47 0l225 831h-131l72 267h129l14 59q46 181 157 266.5t288 85.5q128 0 213 -30l-68 -258q-67 26 -135 26q-120 0 -154 -119l-8 -30h264l-71 -267h-258l-226 -831h-311zM889 0l225 831h-131l72 267h129l14 59q84 352 444 352
q128 0 213 -30l-67 -258q-67 26 -135 26q-124 0 -154 -119l-8 -30h264l-72 -267h-258l-225 -831h-311z" />
    <glyph glyph-name="approxequal" unicode="&#x2248;" horiz-adv-x="2301" 
d="M1690 0l295 1098h311l-295 -1098h-311zM47 0l225 831h-131l72 267h129l14 59q46 181 157 266.5t288 85.5q128 0 213 -30l-68 -258q-67 26 -135 26q-120 0 -154 -119l-8 -30h264l-71 -267h-258l-226 -831h-311zM889 0l225 831h-131l72 267h129l14 59q84 352 444 352
q128 0 213 -30l-67 -258q-67 26 -135 26q-124 0 -154 -119l-8 -30h264l-72 -267h-258l-225 -831h-311zM2009 1219l76 276h328l-76 -276h-328z" />
    <glyph glyph-name="NUL" horiz-adv-x="0" 
 />
    <glyph glyph-name="CR" horiz-adv-x="614" 
 />
    <glyph glyph-name="apple" horiz-adv-x="1980" 
d="M854 131q0 -35 -25 -35q-24 0 -24 35q0 33 24 33q25 0 25 -33zM721 152v-21h-6q-17 0 -17 16q0 13 15 13q8 0 8 -8zM1133 162q9 0 0 -19q-9 19 0 19zM786 444l19 -71q0 -15 -8 -15h-11q-22 0 -37.5 20t-15.5 46q0 35 29 35h12q6 -1 6.5 -2t5.5 -13zM1466 383
q0 -27 -22 -27q-19 0 -35 24t-16 54q0 29 22 29q19 0 35 -24t16 -56zM573 410h-10q-16 0 -23.5 9t-7.5 21q0 19 17 19q15 0 18 -10zM803 786h-23q-26 0 -26 23q0 22 26 22h23v-45zM1401 1096q0 -27 -23 -27q-19 0 -35 24t-16 54q0 29 23 29q19 0 35 -24t16 -56zM557 1133
q-6 -9 -14 -9t-8 4q0 7 8 7q12 0 14 -2zM1159 1133q-6 -9 -14 -9t-8 4q0 7 8 7q12 0 14 -2zM360 1122h-10q-16 0 -23.5 9.5t-7.5 21.5q0 18 17 18q15 0 18 -10zM903 -180q0 26 -22 26q-23 0 -23 -24q0 -27 23 -27q22 0 22 25zM1638 -180q0 26 -22 26q-23 0 -23 -24
q0 -27 23 -27q22 0 22 25zM1155 -188l-10 24l-10 -24h20zM807 -170q0 17 -23 14v-26q23 0 23 12zM1075 -168q0 15 -22 12v-24q22 -3 22 12zM1241 -170q0 17 -22 14v-26q22 0 22 12zM633 94v4q-4 0 -6 2q-6 3 -6 11v41q0 5 6 8q2 2 6 2v4h-37v-4q4 0 6 -2q6 -6 6 -8v-19
q-4 0 -8 4l-16 17q-5 3 -2 6q2 2 4 2v4h-29v-4q4 0 6 -2q3 -1 5 -3t5 -3l21 -19l-27 -26q-1 -1 -4 -3.5t-4 -3.5t-3 -2t-3 -2v-4h35v4q-4 0 -6 2t2 9l16 16q4 4 8 4v-18q0 -5 -6 -11q-2 -2 -6 -2v-4h37zM745 94v4q-4 0 -6 2q-4 4 -4 9v41q0 6 4 10q2 2 6 2v4h-36
q-27 0 -27 -19q0 -9 18 -18l-14 -20l-8 -6l-4 -3l-4 -2v-4h22l15 25q5 8 14 8v-18q0 -3 -6 -9q-2 -2 -4 -2v-4h34zM870 131q0 37 -41 37t-41 -37q0 -39 41 -39t41 39zM983 162v4h-31v-4q2 0 4 -2q1 -1 -2 -8l-12 -19l-12 19q-4 4 0 8q2 2 6 2v4h-31v-4q4 0 6 -2q1 -1 5 -3.5
t6 -4.5l16 -25v-16q0 -5 -6 -11q-2 -2 -4 -2v-4h35v4q-5 0 -7 2q-4 4 -4 11v16l17 25q1 4 5 6l5 2q2 2 4 2zM1194 166h-31v-4q2 0 4 -2q3 -3 0 -8l-18 -39l-10 20l8 17q1 3 2.5 4.5t3 2t2.5 1.5l4 4v4h-53l2 -4q2 0 4 -2l10 -10l6 -11l-14 -26l-16 37q-3 7 0 10q2 2 4 2v4
h-27v-4q2 0 4 -2t4.5 -5.5t3.5 -4.5l27 -56h2q2 -2 2 0l17 33l18 -33h2l25 56q1 3 3 5t4 3t3 2q2 2 4 2v4zM1296 94v4q-3 -3 -6 0q-4 0 -4 11v43q0 6 4 10h6v4h-59l-4 -21l4 -2q0 5 4 9q3 8 14 8h9q8 0 8 -6v-21h-8q-7 0 -11 4q-2 2 -2 6h-4v-26h4q0 4 2 6q6 6 11 6h8v-23
q0 -6 -8 -6h-9q-7 0 -16 9q-4 4 -4 10l-4 -2l4 -23h61zM1421 94v4q-4 0 -6 2q-6 3 -6 9v41q0 5 6 8q1 1 3 2t3 2v4h-20l-49 -53v37q0 7 6 10q2 2 6 2v4h-31v-4q4 0 6 -2q7 -7 7 -10v-58h6l51 58v-41q0 -3 -6 -9q-2 -2 -4 -2v-4h28zM1694 260v12h-1403v-12h1403zM629 350
l-2 6q-7 0 -9 2q-10 3 -12 15l-14 71q-4 12 6 15q2 2 8 2l-2 6h-55q-41 0 -41 -31q0 -12 11 -20t28 -10l-19 -33q-7 -11 -18 -15q-4 -2 -10 -2l2 -6h39l24 47q3 6 10 6l7 -30q4 -11 -7 -15q-2 -2 -8 -2l2 -6h60zM848 350l-2 8q-4 -4 -8 0q-10 3 -13 19l-16 63q-6 18 16 21
l-2 6h-61q-21 0 -36 -11.5t-15 -33.5q0 -31 21.5 -51.5t49.5 -20.5h66zM1071 350l-2 6q-4 0 -6 2q-9 3 -12 19l-15 65q-3 14 6 17q2 2 11 2l-2 6h-29l-59 -86l-11 61q-3 14 6 17q2 2 9 2l-2 6h-43l2 -6q6 0 8 -2q7 -3 10 -17l16 -92l7 -2l61 90l12 -61q3 -15 -4 -19
q-2 -2 -8 -2l2 -6h43zM1272 461l-2 6h-60l2 -6q7 0 9 -2q8 -3 12 -17l10 -43q4 -16 4 -23t-5.5 -12.5t-20.5 -5.5q-30 0 -41 45l-9 39q-3 16 7 19q4 4 8 0v6h-49l2 -6q6 0 10 -2q8 -3 12 -17l8 -39q14 -55 58 -55q52 0 39 49l-11 45q-8 14 7 19q3 3 10 0zM1686 350l-3 6
q-6 0 -8 2q-10 3 -12 15l-14 71q-4 12 6 15q2 2 8 2l-2 6h-92v-21v-14h8q-2 4 2 12q3 15 25 15h8q9 0 12 -13l6 -32h-8q-10 0 -18 8q-4 4 -7 10h-6l11 -47h6q0 6 2 10q3 13 14 13h8l6 -35q4 -12 -6 -15q-2 -2 -8 -2l2 -6h60zM412 440l4 4q-5 8 -6.5 10.5t-6 7.5t-10.5 7
t-14 2q-32 0 -29 -47q-14 47 -43 47q-24 0 -24 -25l6 -2q0 13 16 13q33 0 49 -68q6 -19 -4 -29q-5 -5 -8 -2l2 -8h57l-2 8q-4 -4 -8 0q-9 3 -12 19q-10 38 -10 51q0 27 18 27q10 0 25 -15zM1491 393q0 31 -23.5 54.5t-52.5 23.5q-17 0 -32 -11.5t-15 -33.5q0 -32 23 -55
t53 -23q17 0 32 11.5t15 33.5zM1694 555v12h-1403v-12h1403zM580 631v67h-29v133h29v70h-289v-127h84v57h67v-40h-49v-50h49v-43h-67v58h-84v-125h289zM938 631v67h-29v133h29v70h-197q-44 0 -70 -23t-26 -59t26 -59t70 -23h62v-39h-31v-67h166zM1327 831v70h-166v-70h23
l-31 -47l-31 47h21v70h-127v-70h24l76 -94v-39h-29v-67h166v67h-30v41l75 92h29zM1694 774v127h-301v-127h73v57h23v-133h-29v-67h166v67h-29v133h23v-57h74zM1694 973v12h-1403v-12h1403zM819 1067q0 5 -7 11t-19 7q-6 4 -9 21t-5 34t-13 30.5t-33 13.5q-10 0 -18 -7
t-8 -14q0 -10 10 -10q8 0 8 12q0 13 10 13t14 -15.5t9.5 -39.5t19.5 -38q-18 0 -30 -13t-17 -13q-10 0 -10 8q0 3 2 5t2 5q0 10 -10 10t-10 -14q0 -10 9.5 -17t20.5 -7q19 0 30 13t21 13q6 -14 25 -14q8 0 8 6zM416 1063l-2 6q-6 0 -8 2q-11 4 -13 14l-14 72q-4 11 6 14
q3 3 8 3l-2 6h-55q-41 0 -41 -31q0 -12 11 -21t28 -10l-19 -33q-6 -10 -18 -14q-4 -2 -10 -2l2 -6h39l24 47q3 6 10 6l7 -31q3 -11 -7 -14q-2 -2 -8 -2l2 -6h60zM1020 1063l-2 6q-6 0 -8 2q-11 4 -13 14l-14 72q-4 11 6 14q3 3 8 3l-2 6h-92v-21v-14h8q-2 4 2 12q3 14 25 14
h8q9 0 12 -12l7 -33h-9q-9 0 -18 9q-2 2 -6 10h-6l10 -47h6q0 6 2 10q3 12 14 12h9l6 -35q4 -11 -6 -14q-2 -2 -9 -2l3 -6h59zM1681 1063l-2 6q-6 0 -8 2q-10 3 -12 14l-14 72q-4 11 6 14q3 3 8 3l-2 6h-58l3 -6q5 0 8 -3q6 -2 10 -14l6 -31h-49l-6 31q-4 11 6 14q3 3 8 3
l-2 6h-59l2 -6q5 0 8 -3q8 -3 12 -14l15 -72q3 -11 -7 -14q-2 -2 -8 -2l2 -6h60l-2 6q-7 0 -9 2q-10 3 -12 14l-6 33h49l6 -33q4 -11 -6 -14q-2 -2 -8 -2l2 -6h59zM604 1100q0 25 -29 35q11 7 11 18q0 12 -11 21.5t-32 9.5q-27 0 -27 -23q0 -12 10 -12q9 0 9 6q0 4 -3.5 6.5
t-3.5 5.5q0 11 15 11q20 0 20 -25q0 -8 -4 -12q-33 3 -33 -13q0 -12 17 -12q12 0 22 10q13 -10 13 -30q0 -29 -25 -29t-25 18q0 7 7 7q1 0 4 -2.5t6 -2.5q8 0 8 11q0 10 -14 10q-19 0 -19 -21q0 -26 33 -26q51 0 51 39zM1206 1100q0 26 -28 35q10 7 10 18q0 12 -11 21.5
t-32 9.5q-27 0 -27 -23q0 -12 10 -12q9 0 9 6q0 4 -3.5 6.5t-3.5 5.5q0 11 15 11q20 0 20 -25q0 -8 -4 -12q-33 3 -33 -13q0 -12 17 -12q12 0 22 10q13 -10 13 -30q0 -29 -25 -29t-25 18q0 7 7 7q1 0 4 -2.5t6 -2.5q8 0 8 11q0 10 -14 10q-19 0 -19 -21q0 -26 33 -26
q51 0 51 39zM1425 1106q0 31 -23 54.5t-52 23.5q-17 0 -32 -11.5t-15 -33.5q0 -32 22.5 -55t52.5 -23q17 0 32 11.5t15 33.5zM1694 1266v12h-1403v-12h1403zM899 1356v4q-3 -3 -6 0q-4 0 -4 10v43q0 6 4 10h6v4h-59l-4 -20l4 -2q0 4 4 8q3 8 14 8h8q8 0 8 -6v-20h-8
q-6 0 -10 4q-2 2 -2 6h-4v-27h4q0 4 2 6q7 7 10 7h8v-23q0 -6 -8 -6h-8q-8 0 -16 8q-4 4 -4 10l-4 -2l4 -22h61zM1032 1356v4q-3 -3 -6 0q-6 0 -6 10v43q0 7 6 10h6v4h-37v-2v-2h4q7 -7 7 -10v-18h-35v18q0 6 4 10h6v2v2h-35v-4h4q6 -6 6 -10v-43q0 -2 -6 -8q-2 -2 -4 -2v-4
h35v4q-4 0 -6 2q-4 4 -4 8v21h35v-21q0 -10 -7 -10q-2 -2 -4 0v-4h37zM1141 1405h4v8q0 3 -1 8.5t-1 8.5q-3 -3 -35 -3q-31 0 -37 3q0 -3 -1 -8.5t-1 -8.5v-8h4q1 1 3 4t3 4q10 10 15 10q6 0 6 -6v-47q0 -10 -6 -10q-2 -2 -4 0v-4h34v4q-3 -3 -6 0q-4 0 -4 10v47q0 6 6 6
q7 0 17 -10q4 -4 4 -8zM582 -207q0 -8 -9 -8q-8 0 -8 8t8 8q9 0 9 -8zM1466 -207q0 -8 -8 -8t-8 8t8 8t8 -8zM317 -145l-24 -70h-2l-23 47l-20 -47h-2l-25 70l12 2l15 -47l20 47h2l21 -47l14 45h12zM432 -145l-24 -70h-2l-23 47l-21 -47h-2l-24 70l12 2l14 -47l21 47h2
l21 -47l14 45h12zM547 -145l-25 -70h-2l-22 47l-21 -47h-2l-24 70l12 2l14 -47l21 47h2l20 -47l15 45h12zM662 -145v-11h-25v-57h-12v57h-25v11h62zM745 -145l-26 -39v-29h-12v29l-29 39l12 2l23 -31l18 29h14zM819 -168q0 -25 -35 -25v-20h-12v68q47 7 47 -23zM915 -178
q0 -37 -34 -37q-16 0 -25.5 10.5t-9.5 24.5q0 37 37 37q13 0 22.5 -10.5t9.5 -24.5zM1006 -176v-31q-11 -8 -27 -8q-37 0 -37 35q0 17 11 27t28 10q13 0 25 -9l-5 -10q-8 8 -22 8q-25 0 -25 -26q0 -25 27 -25l12 4v15h-18v10h31zM1094 -213h-15l-16 23h-10v-23h-13v68
q47 7 47 -21q0 -14 -14 -20zM1180 -213h-13l-8 16h-29l-6 -16h-12l31 70h4zM1253 -168q0 -25 -34 -25v-20h-13v68q47 7 47 -23zM1343 -213h-12v31h-33v-31h-12v68h12v-27h33v27h12v-68zM1438 -145l-27 -39v-29h-12v29l-29 39l12 2l23 -31l18 29h15zM1552 -197l-2 -12
q-6 -6 -20 -6q-37 0 -37 35q0 37 37 37q11 0 22 -7l-4 -10q-6 6 -18 6q-11 0 -18 -7t-7 -17q0 -27 27 -27q9 0 20 8zM1651 -178q0 -37 -35 -37q-16 0 -25.5 10.5t-9.5 24.5q0 37 37 37q13 0 23 -10.5t10 -24.5zM1759 -213h-12l-6 41l-21 -43h-4l-20 43l-6 -41h-13l13 70h2
l26 -54l27 54h2zM1778 0h-1571v1536h1571v-1536z" />
    </font>
</defs>
</svg>
